<svg xmlns="http://www.w3.org/2000/svg" xmlns:xlink="http://www.w3.org/1999/xlink" width="124.001" height="124" viewBox="0 0 124.001 124">
  <defs>
    <clipPath id="clip-path">
      <rect id="Rect치ngulo_346064" data-name="Rect치ngulo 346064" width="67" height="66.813" fill="none"/>
    </clipPath>
  </defs>
  <g id="Grupo_1072979" data-name="Grupo 1072979" transform="translate(-387.172 -4450.255)">
    <g id="Grupo_1015560" data-name="Grupo 1015560" transform="translate(0.172 -450.214)">
      <g id="Grupo_1015095" data-name="Grupo 1015095">
        <g id="Grupo_1015003" data-name="Grupo 1015003" transform="translate(2 2842.469)">
          <g id="Grupo_159182" data-name="Grupo 159182" transform="translate(0.001)">
            <path id="Uni칩n_12" data-name="Uni칩n 12" d="M8464.769,11817.939a62.055,62.055,0,1,1,20.7-16.051l8.516,22.111Z" transform="translate(-7991 -9642)" fill="#a3bfe4"/>
            <circle id="Elipse_4842" data-name="Elipse 4842" cx="48" cy="48" r="48" transform="translate(399 2072)" fill="#e3ecf7"/>
          </g>
        </g>
      </g>
    </g>
    <g id="Grupo_1015571" data-name="Grupo 1015571" transform="translate(416.5 4478.281)">
      <g id="Grupo_1015570" data-name="Grupo 1015570" clip-path="url(#clip-path)">
        <path id="Trazado_606159" data-name="Trazado 606159" d="M36.7,66.628a20.515,20.515,0,0,1-2.814.175c-.889.022-1.782.012-2.669-.05-1-.07-2-.216-3-.379-1.069-.175-2.125-.385-3.17-.666q-1.379-.37-2.721-.85a33.089,33.089,0,0,1-4.278-1.888,33.882,33.882,0,0,1-5.6-3.677,32.094,32.094,0,0,1-3.572-3.36,34.647,34.647,0,0,1-5.719-8.519,32.669,32.669,0,0,1-1.64-4.22c-.357-1.152-.653-2.323-.9-3.5-.153-.742-.225-1.5-.342-2.25-.023-.148-.031-.314-.183-.41.242-.235.054-.519.028-.745a35.013,35.013,0,0,1-.1-4.473,18.356,18.356,0,0,1,.3-2.873c.118-.693.224-1.388.356-2.079.167-.878.395-1.74.631-2.6a31.552,31.552,0,0,1,1.9-5.031c.413-.882.857-1.754,1.34-2.6a32.733,32.733,0,0,1,2.4-3.578c.4-.526.811-1.041,1.241-1.544a34.279,34.279,0,0,1,2.687-2.748,29.035,29.035,0,0,1,3.22-2.62,36.872,36.872,0,0,1,3.321-2.021A31.2,31.2,0,0,1,21.1,2.4a36.241,36.241,0,0,1,3.91-1.291A5.183,5.183,0,0,0,26.324.737c.128-.073.384,0,.585-.05A26.077,26.077,0,0,1,30.037.205,24.925,24.925,0,0,1,34.178.022c1.146.051,2.294.093,3.434.25A35.6,35.6,0,0,1,41.425,1a32.908,32.908,0,0,1,8.243,3.164c.716.4,1.425.817,2.105,1.282a35.4,35.4,0,0,1,5.86,4.853c.533.564,1.007,1.182,1.523,1.759.494.552.925,1.15,1.369,1.734.585.772,1.108,1.593,1.625,2.414a29.52,29.52,0,0,1,2.4,4.75,35.839,35.839,0,0,1,1.563,4.951,38.144,38.144,0,0,1,.669,3.924,27.805,27.805,0,0,1,.177,5.185,32.758,32.758,0,0,1-.432,3.873,32.765,32.765,0,0,1-2.209,7.623,37.379,37.379,0,0,1-1.924,3.86,27.373,27.373,0,0,1-1.828,2.652c-.407.529-.757,1.109-1.171,1.642a36.967,36.967,0,0,1-2.823,2.9A29.78,29.78,0,0,1,48.612,63.2a32.457,32.457,0,0,1-5.783,2.281,28.684,28.684,0,0,1-4.2.9c-.644.087-1.285.191-1.932.248M44.922,4.442a.137.137,0,0,0-.141-.058.151.151,0,0,0-.027-.019,29.585,29.585,0,0,0-7.286-1.851c-.938-.117-1.878-.155-2.815-.256a13.1,13.1,0,0,0-2.461,0c-.221.011-.444.006-.662.035-.938.124-1.879.227-2.817.346-1.044.132-2.057.375-3.076.6a23.725,23.725,0,0,0-3.147.994,32.139,32.139,0,0,0-3.87,1.748A34.06,34.06,0,0,0,15.1,8.191c-.492.345-.962.721-1.426,1.1a23.4,23.4,0,0,0-1.8,1.545c-.654.659-1.287,1.342-1.906,2.037s-1.185,1.4-1.732,2.134a30.421,30.421,0,0,0-2.76,4.532,29.1,29.1,0,0,0-1.5,3.553,32,32,0,0,0-1.711,9.082,31.32,31.32,0,0,0,.6,7.483,32.059,32.059,0,0,0,2.96,8.257,33.715,33.715,0,0,0,1.931,3.149A25.386,25.386,0,0,0,9.806,53.7a26.6,26.6,0,0,0,2.764,2.8l.133.12.1.09.087.071a.372.372,0,0,0,.04.052A29.882,29.882,0,0,0,20.3,61.594a31.765,31.765,0,0,0,6.35,2.124,31.152,31.152,0,0,0,5.739.738c.243.007.486.018.729.027l.011.01.009-.011.251,0h.075l.193,0h.41l.244-.007.022.008c.2.086.386-.035.58-.048.851-.059,1.707-.09,2.55-.206a30.316,30.316,0,0,0,4.288-.886,25.948,25.948,0,0,0,3.035-1.022,4.435,4.435,0,0,0,1.019-.375,30.121,30.121,0,0,0,8.084-5.022,32,32,0,0,0,3.453-3.479A30.826,30.826,0,0,0,62.825,44a30.278,30.278,0,0,0,1.819-9.62c.034-1.265-.062-2.524-.117-3.786a20.361,20.361,0,0,0-.327-2.753A30.706,30.706,0,0,0,59.87,16.73a31.307,31.307,0,0,0-6.336-7.217,30.456,30.456,0,0,0-6.5-4.192,13.208,13.208,0,0,0-1.916-.81h0a.223.223,0,0,0-.2-.073Z" transform="translate(0 0)" fill="#060607"/>
        <path id="Trazado_606160" data-name="Trazado 606160" d="M40.867,8.492c.937.1,1.877.14,2.815.257A29.585,29.585,0,0,1,50.968,10.6a.149.149,0,0,1,.027.019.124.124,0,0,0,.141.059l0,0c.042.089.122.079.2.073h0a.717.717,0,0,0,.408.551c.273.171.574.275.846.432.579.333,1.132.712,1.687,1.086a28.819,28.819,0,0,1,3.716,2.9A35.579,35.579,0,0,1,61.114,19a36.116,36.116,0,0,1,2.964,4.152,30,30,0,0,1,2.439,5.021,32.994,32.994,0,0,1,1.232,4,24.077,24.077,0,0,1,.587,3.331c.081.862.23,1.721.25,2.583a36.191,36.191,0,0,1-.167,4.977c-.1.894-.222,1.787-.389,2.665-.171.9-.414,1.791-.658,2.68a31.2,31.2,0,0,1-1.139,3.327,32.844,32.844,0,0,1-2.007,4.052,30.977,30.977,0,0,1-2.535,3.727,23.425,23.425,0,0,1-2.1,2.368c-.577.562-1.138,1.139-1.734,1.684-.878.8-1.82,1.527-2.765,2.242a30.445,30.445,0,0,1-3.922,2.4A.324.324,0,0,0,51,68.56a26,26,0,0,1-3.035,1.022,30.316,30.316,0,0,1-4.288.886c-.843.116-1.7.148-2.55.206-.194.014-.379.134-.58.048l-.006-.019-.016.01-.243.007-.009-.015-.007.015H40a.1.1,0,0,0-.138,0l-.192,0a.045.045,0,0,0-.075,0h-.25l-.011-.012-.01.013c-.243-.009-.486-.02-.729-.027a31.152,31.152,0,0,1-5.738-.738,31.731,31.731,0,0,1-6.35-2.124,29.875,29.875,0,0,1-7.363-4.764.369.369,0,0,1-.041-.052l-.087-.071-.1-.09a.121.121,0,0,0-.132-.12,26.6,26.6,0,0,1-2.764-2.8A25.414,25.414,0,0,1,13.976,57.3a33.749,33.749,0,0,1-1.931-3.149,32.069,32.069,0,0,1-2.96-8.257A31.376,31.376,0,0,1,9,33.848a31.008,31.008,0,0,1,1.193-4.52,29.119,29.119,0,0,1,1.5-3.553,30.432,30.432,0,0,1,2.76-4.531c.546-.735,1.12-1.448,1.732-2.134s1.252-1.378,1.906-2.037a23.286,23.286,0,0,1,1.8-1.546c.464-.381.935-.757,1.426-1.1a33.972,33.972,0,0,1,3.522-2.21,32.1,32.1,0,0,1,3.87-1.748,23.8,23.8,0,0,1,3.147-.993c1.019-.226,2.032-.469,3.076-.6.938-.119,1.879-.222,2.817-.346.218-.029.441-.024.662-.035h2.461M65.275,31.875h0c0-.088.015-.178-.1-.2-.008-.047-.017-.093-.025-.14l-.057-.057A1.474,1.474,0,0,0,65,31.1c-.185-.5-.343-1.008-.525-1.509a9.841,9.841,0,0,0-.452-1.1c-.175-.342-.392-.687-.561-1.04-.273-.569-.589-1.118-.892-1.666a13.092,13.092,0,0,0-.977-1.433,1.828,1.828,0,0,0-.591-.46c-.341-.2-.609.056-.911.06a.294.294,0,0,1-.269-.153,3.637,3.637,0,0,0-.336-.447,27,27,0,0,0-3.693-3.642c-.162-.132-.4-.209-.441-.465a1.184,1.184,0,0,0-.489-1.575c-.2-.141-.4-.271-.607-.4a26.39,26.39,0,0,0-7.856-3.5,30.348,30.348,0,0,0-3.422-.649,19.614,19.614,0,0,0-2.541-.125c-.023-.035-.046-.1-.07-.1a5.783,5.783,0,0,0-1.525.035c-.8.128-1.619.1-2.428.192a29.618,29.618,0,0,0-4.5.926,24.353,24.353,0,0,0-4.56,1.848,23.206,23.206,0,0,0-3.764,2.393,28.192,28.192,0,0,0-5.981,6.242,26.585,26.585,0,0,0-3.154,6.2,31.994,31.994,0,0,0-.869,3.1c-.217.907-.343,1.825-.5,2.736a22.539,22.539,0,0,0-.167,2.523,3.5,3.5,0,0,0,0,1.39,7.1,7.1,0,0,1,.077.979,8.314,8.314,0,0,0,.172,1.659A27.465,27.465,0,0,0,13.88,46.6a8.666,8.666,0,0,0,.377,1.269,15.735,15.735,0,0,1,.583,1.476c.175.52.384,1.017.6,1.515.2.461.407.929.649,1.365.463.837,1.006,1.631,1.518,2.441a1.915,1.915,0,0,0,.51.558c.431.3.836.111,1.245-.046a19.059,19.059,0,0,0,3.39,3.682c.412.363.855.69,1.284,1.033a1.13,1.13,0,0,0,.325,1.556c.323.245.668.464,1.011.682A26.392,26.392,0,0,0,30.6,64.688a25.742,25.742,0,0,0,4.8,1.23c.386.06.789.064,1.163.137a7.2,7.2,0,0,0,1.354.172,36.513,36.513,0,0,0,4.558-.1A28.15,28.15,0,0,0,46.9,65.27a25.385,25.385,0,0,0,2.459-.8,29.761,29.761,0,0,0,3.03-1.4,24.038,24.038,0,0,0,3.535-2.291c.67-.534,1.365-1.044,1.988-1.628a26.691,26.691,0,0,0,2.078-2.208,25.928,25.928,0,0,0,4.185-6.69c.144-.34.309-.673.436-1.019.212-.578.417-1.157.6-1.746a18.585,18.585,0,0,0,.545-2.169c.164-.046.149-.146.079-.262l-.012-.07.055-.067.022-.065c.006-.007.019-.016.018-.02a.3.3,0,0,0-.025-.044,35.7,35.7,0,0,0,.533-4.306,5.539,5.539,0,0,0,0-1.72,1.072,1.072,0,0,1-.073-.312,12.269,12.269,0,0,0-.079-1.435,9.578,9.578,0,0,0-.132-1.121c-.073-.455-.166-.908-.2-1.369,0-.093.037-.2-.077-.262-.035-.014-.054-.035-.032-.073.05-.165.125-.333-.067-.463L65.74,33.6l-.04-.13c-.108-.092-.067-.219-.078-.335.007-.007.02-.016.019-.02a.283.283,0,0,0-.024-.046l-.022-.1c0-.11.068-.24-.092-.3-.038-.107-.12-.2-.094-.326,0-.076.017-.156-.074-.2-.037-.01-.06-.028-.039-.07a.113.113,0,0,0-.021-.2" transform="translate(-6.214 -6.235)" fill="#fff198"/>
        <path id="Trazado_606161" data-name="Trazado 606161" d="M168.514,74.791a.324.324,0,0,1,.175-.354,30.524,30.524,0,0,0,3.922-2.4c.945-.715,1.886-1.439,2.765-2.242.6-.545,1.156-1.122,1.733-1.684a23.45,23.45,0,0,0,2.1-2.367,30.97,30.97,0,0,0,2.535-3.727,32.879,32.879,0,0,0,2.007-4.052,31.2,31.2,0,0,0,1.14-3.327c.244-.888.487-1.78.658-2.68.167-.878.287-1.771.39-2.665a36.192,36.192,0,0,0,.166-4.977c-.02-.863-.169-1.722-.25-2.583a24.038,24.038,0,0,0-.586-3.331,33.025,33.025,0,0,0-1.233-4A30,30,0,0,0,181.6,29.38a36.084,36.084,0,0,0-2.963-4.152,35.62,35.62,0,0,0-3.128-3.278,28.86,28.86,0,0,0-3.716-2.9c-.555-.374-1.108-.752-1.687-1.086-.272-.157-.573-.261-.846-.432a.717.717,0,0,1-.408-.551,13.207,13.207,0,0,1,1.916.81,30.466,30.466,0,0,1,6.5,4.191A31.309,31.309,0,0,1,183.6,29.2,30.71,30.71,0,0,1,187.933,40.3a20.313,20.313,0,0,1,.327,2.753c.055,1.262.151,2.521.117,3.786a30.275,30.275,0,0,1-1.819,9.62,30.829,30.829,0,0,1-5.488,9.453,32.047,32.047,0,0,1-3.453,3.479,30.118,30.118,0,0,1-8.084,5.022,4.438,4.438,0,0,1-1.02.375" transform="translate(-123.733 -12.466)" fill="#dec800"/>
        <path id="Trazado_606162" data-name="Trazado 606162" d="M123.6,8.332h-2.461a13.107,13.107,0,0,1,2.461,0" transform="translate(-88.951 -6.075)" fill="#287b28"/>
        <path id="Trazado_606163" data-name="Trazado 606163" d="M47.3,212.608a.121.121,0,0,1,.132.12l-.132-.12" transform="translate(-34.732 -156.111)" fill="#899b13"/>
        <path id="Trazado_606164" data-name="Trazado 606164" d="M169.233,16.78c-.077.006-.157.016-.2-.073a.223.223,0,0,1,.2.073" transform="translate(-124.116 -12.267)" fill="#899b13"/>
        <path id="Trazado_606165" data-name="Trazado 606165" d="M126.64,242.6a.1.1,0,0,1,.138,0h-.138" transform="translate(-92.988 -178.115)" fill="#287b28"/>
        <path id="Trazado_606166" data-name="Trazado 606166" d="M168.659,16.551a.125.125,0,0,1-.141-.058.137.137,0,0,1,.141.058" transform="translate(-123.737 -12.109)" fill="#899b13"/>
        <path id="Trazado_606167" data-name="Trazado 606167" d="M125.633,242.607a.045.045,0,0,1,.075,0h-.075" transform="translate(-92.248 -178.124)" fill="#287b28"/>
        <path id="Trazado_606168" data-name="Trazado 606168" d="M48.191,213.4l.087.071-.087-.071" transform="translate(-35.385 -156.69)" fill="#899b13"/>
        <path id="Trazado_606169" data-name="Trazado 606169" d="M124.615,242.626l.01-.013.011.012-.009.011Z" transform="translate(-91.501 -178.143)" fill="#287b28"/>
        <path id="Trazado_606170" data-name="Trazado 606170" d="M128.124,242.634l.007-.015.009.014h-.016" transform="translate(-94.077 -178.147)" fill="#287b28"/>
        <path id="Trazado_606171" data-name="Trazado 606171" d="M129.1,242.618l.016-.01.006.019-.022-.009" transform="translate(-94.795 -178.139)" fill="#287b28"/>
        <path id="Trazado_606172" data-name="Trazado 606172" d="M73.736,37.543c.038.256.279.333.441.465a27.012,27.012,0,0,1,3.693,3.642,3.679,3.679,0,0,1,.336.447.294.294,0,0,0,.269.153c0,.063-.041.09-.082.129a1.065,1.065,0,0,0-.192,1.53,25.822,25.822,0,0,1,3.1,6.18,22.747,22.747,0,0,1,1.211,6.366,26.258,26.258,0,0,1-.176,4.916,24.236,24.236,0,0,1-8.872,15.554A23.947,23.947,0,0,1,68,80.231a22.092,22.092,0,0,1-3.4,1.234,27.063,27.063,0,0,1-2.907.581,25.622,25.622,0,0,1-5.383.193,24.528,24.528,0,0,1-3.987-.6,24.093,24.093,0,0,1-6.574-2.591c-.621-.359-1.215-.765-1.83-1.135a.957.957,0,0,0-1.248.107,2.581,2.581,0,0,1-.239.176c-.429-.343-.872-.67-1.284-1.033a19.045,19.045,0,0,1-3.39-3.683,3.594,3.594,0,0,0,.333-.523,1.2,1.2,0,0,0-.246-1.2,24.464,24.464,0,0,1-4.3-12.658,23.721,23.721,0,0,1,.551-6.4,24.364,24.364,0,0,1,1.624-4.88,24.1,24.1,0,0,1,4.39-6.6,24.374,24.374,0,0,1,5.915-4.627,27.616,27.616,0,0,1,3.937-1.778,24.135,24.135,0,0,1,2.587-.722,25.466,25.466,0,0,1,5.509-.67c.742-.021,1.466.111,2.2.145A21.777,21.777,0,0,1,65,34.438c.892.246,1.741.623,2.605.953a19.813,19.813,0,0,1,2.667,1.34,13.938,13.938,0,0,1,1.615.994,1.183,1.183,0,0,0,1.847-.18M45.8,56.794h0q0,7.664,0,15.328a2.3,2.3,0,0,0,2.42,2.477c1.749.021,3.5.01,5.247,0a2.4,2.4,0,0,0,1.611-.6,2.209,2.209,0,0,0,.752-1.734c0-3.178,0-6.356-.009-9.534,0-.285.066-.392.367-.379.5.022,1,.009,1.494,0a.381.381,0,0,1,.392.235c.426.853.868,1.7,1.294,2.55.492.983.972,1.973,1.463,2.958.772,1.549,1.591,3.077,2.312,4.649a2.882,2.882,0,0,0,2.987,1.882c1.758-.059,3.52-.015,5.28-.021a4.344,4.344,0,0,0,.692-.059,2.2,2.2,0,0,0,1.662-3.182c-.184-.358-.361-.72-.562-1.071-.448-.785-.868-1.586-1.3-2.382q-1.865-3.448-3.735-6.894c-.133-.244-.123-.387.124-.536a9.877,9.877,0,0,0,1.986-1.591,12.036,12.036,0,0,0,2.734-4.4,10.854,10.854,0,0,0,.529-5.34,12.048,12.048,0,0,0-8.018-9.535A10.645,10.645,0,0,0,62.166,39c-4.627-.022-9.254,0-13.881-.012a2.393,2.393,0,0,0-2.492,2.481c.019,5.109.007,10.219.007,15.328" transform="translate(-24.599 -24.537)" fill="#33ece0"/>
        <path id="Trazado_606173" data-name="Trazado 606173" d="M67.669,31.5a1.183,1.183,0,0,1-1.847.181,13.9,13.9,0,0,0-1.615-.994,19.857,19.857,0,0,0-2.667-1.34c-.864-.33-1.713-.707-2.605-.953a21.777,21.777,0,0,0-4.751-.872c-.735-.035-1.459-.166-2.2-.145a25.483,25.483,0,0,0-5.509.67,24.074,24.074,0,0,0-2.587.722,27.572,27.572,0,0,0-3.937,1.777,24.387,24.387,0,0,0-5.915,4.627,24.1,24.1,0,0,0-4.39,6.6,24.364,24.364,0,0,0-1.624,4.88,23.722,23.722,0,0,0-.551,6.4,24.463,24.463,0,0,0,4.3,12.658,1.2,1.2,0,0,1,.246,1.2,3.58,3.58,0,0,1-.333.523c-.409.158-.814.351-1.245.046a1.916,1.916,0,0,1-.51-.558c-.512-.81-1.055-1.6-1.519-2.441-.242-.437-.445-.9-.649-1.365-.221-.5-.43-.995-.6-1.515-.163-.486-.364-.994-.583-1.476a8.666,8.666,0,0,1-.377-1.269,27.465,27.465,0,0,1-.711-3.476,8.314,8.314,0,0,1-.172-1.659,7.053,7.053,0,0,0-.076-.979q0-.7,0-1.39a22.532,22.532,0,0,1,.167-2.523c.157-.911.282-1.83.5-2.736a31.9,31.9,0,0,1,.869-3.1,26.585,26.585,0,0,1,3.154-6.2,28.192,28.192,0,0,1,5.981-6.242,23.224,23.224,0,0,1,3.764-2.393,24.352,24.352,0,0,1,4.56-1.848,29.619,29.619,0,0,1,4.5-.926c.809-.1,1.624-.064,2.428-.192a11.152,11.152,0,0,1,1.6.064,19.613,19.613,0,0,1,2.541.125,30.359,30.359,0,0,1,3.422.649,26.383,26.383,0,0,1,7.856,3.5c.2.133.409.264.607.4a1.184,1.184,0,0,1,.489,1.575" transform="translate(-18.531 -18.491)" fill="#060607"/>
        <path id="Trazado_606174" data-name="Trazado 606174" d="M66.635,102.228a2.627,2.627,0,0,0,.239-.176.956.956,0,0,1,1.248-.107c.615.37,1.209.776,1.83,1.135a24.083,24.083,0,0,0,6.574,2.591,24.492,24.492,0,0,0,3.987.6,25.638,25.638,0,0,0,5.383-.193A27.044,27.044,0,0,0,88.8,105.5a22.112,22.112,0,0,0,3.4-1.234,23.935,23.935,0,0,0,5.468-3.306,24.235,24.235,0,0,0,8.872-15.554,26.283,26.283,0,0,0,.175-4.916,22.747,22.747,0,0,0-1.21-6.366,25.827,25.827,0,0,0-3.1-6.18,1.065,1.065,0,0,1,.192-1.53c.041-.039.086-.066.082-.129.3,0,.57-.255.911-.06a1.828,1.828,0,0,1,.591.46,13.061,13.061,0,0,1,.977,1.433c.3.547.62,1.1.892,1.666.169.353.386.7.561,1.04a9.878,9.878,0,0,1,.452,1.1c.182.5.34,1.009.525,1.509a1.487,1.487,0,0,1,.089.378c0,.042.016.059.057.057l.025.139c-.052.112.042.149.1.2h0l.021.2c-.021.042,0,.06.039.07.028.065.005.148.074.2-.026.125.056.219.094.327a.27.27,0,0,0,.092.3l.023.1c0,.022,0,.044.005.066.011.115-.03.242.078.335a.108.108,0,0,0,.04.13l.024.129c-.052.165.086.3.067.463-.022.039,0,.06.032.073.031.086,0,.191.077.262.029.462.122.914.2,1.369a9.565,9.565,0,0,1,.132,1.122,12.261,12.261,0,0,1,.079,1.435,1.071,1.071,0,0,0,.073.312l0,1.72a35.7,35.7,0,0,1-.533,4.306c0,.022,0,.043.007.065l-.022.065c-.038.007-.062.025-.055.068l.012.07c.02.1-.117.155-.079.262a18.589,18.589,0,0,1-.545,2.169c-.181.589-.387,1.169-.6,1.747-.127.346-.291.679-.436,1.019a25.924,25.924,0,0,1-4.185,6.69,26.692,26.692,0,0,1-2.078,2.208c-.624.584-1.318,1.094-1.988,1.628a24.057,24.057,0,0,1-3.535,2.291,29.818,29.818,0,0,1-3.03,1.4,25.4,25.4,0,0,1-2.459.8,28.115,28.115,0,0,1-4.426.856,36.453,36.453,0,0,1-4.558.1,7.2,7.2,0,0,1-1.354-.172c-.374-.073-.776-.077-1.163-.137a25.749,25.749,0,0,1-4.8-1.23,26.39,26.39,0,0,1-5.218-2.559c-.343-.218-.687-.437-1.011-.682a1.13,1.13,0,0,1-.325-1.556" transform="translate(-48.807 -48.573)" fill="#060607"/>
        <path id="Trazado_606175" data-name="Trazado 606175" d="M124.375,25.055a11.152,11.152,0,0,0-1.6-.064,5.76,5.76,0,0,1,1.525-.035c.024,0,.047.065.07.1" transform="translate(-90.153 -18.299)" fill="#899b13"/>
        <path id="Trazado_606176" data-name="Trazado 606176" d="M226.561,124.127q0-.86,0-1.72a5.539,5.539,0,0,1,0,1.72" transform="translate(-166.354 -89.879)" fill="#899b13"/>
        <path id="Trazado_606177" data-name="Trazado 606177" d="M25.046,123.65v1.39a3.5,3.5,0,0,1,0-1.39" transform="translate(-18.339 -90.792)" fill="#899b13"/>
        <path id="Trazado_606178" data-name="Trazado 606178" d="M224.133,103.919c.019-.16-.118-.3-.067-.463.192.13.116.3.067.463" transform="translate(-164.516 -75.964)" fill="#899b13"/>
        <path id="Trazado_606179" data-name="Trazado 606179" d="M223.17,99.766a.271.271,0,0,1-.092-.3c.161.06.094.19.092.3" transform="translate(-163.789 -73.035)" fill="#899b13"/>
        <path id="Trazado_606180" data-name="Trazado 606180" d="M224.034,146.353c-.037-.107.1-.16.079-.262.07.116.085.216-.079.262" transform="translate(-164.496 -107.27)" fill="#899b13"/>
        <path id="Trazado_606181" data-name="Trazado 606181" d="M221.931,95.931c-.062-.054-.155-.092-.1-.2.119.025.108.116.1.2" transform="translate(-162.869 -70.29)" fill="#899b13"/>
        <path id="Trazado_606182" data-name="Trazado 606182" d="M224.548,105.734c-.081-.071-.045-.176-.077-.262.113.062.073.168.077.262" transform="translate(-164.822 -77.445)" fill="#899b13"/>
        <path id="Trazado_606183" data-name="Trazado 606183" d="M222.556,97.691c-.069-.049-.046-.133-.074-.2.091.041.077.122.074.2" transform="translate(-163.361 -71.586)" fill="#899b13"/>
        <path id="Trazado_606184" data-name="Trazado 606184" d="M222.277,96.685l-.021-.2a.113.113,0,0,1,.021.2" transform="translate(-163.195 -70.848)" fill="#899b13"/>
        <path id="Trazado_606185" data-name="Trazado 606185" d="M223.882,102.609a.108.108,0,0,1-.04-.13l.04.13" transform="translate(-164.355 -75.247)" fill="#899b13"/>
        <path id="Trazado_606186" data-name="Trazado 606186" d="M223.55,101.037c0-.022,0-.044-.005-.066a.294.294,0,0,1,.024.046s-.013.014-.019.02" transform="translate(-164.142 -74.14)" fill="#899b13"/>
        <path id="Trazado_606187" data-name="Trazado 606187" d="M221.615,95.045c-.04,0-.061-.016-.057-.057l.057.057" transform="translate(-162.683 -69.747)" fill="#899b13"/>
        <path id="Trazado_606188" data-name="Trazado 606188" d="M224.573,145.148c0-.022,0-.043-.007-.065a.259.259,0,0,1,.025.044s-.011.014-.018.02" transform="translate(-164.891 -106.53)" fill="#899b13"/>
        <path id="Trazado_606189" data-name="Trazado 606189" d="M224.3,145.64c-.007-.043.017-.061.055-.068l-.055.068" transform="translate(-164.696 -106.889)" fill="#899b13"/>
        <path id="Trazado_606190" data-name="Trazado 606190" d="M79.766,72.177c0-5.11.012-10.219-.007-15.328a2.393,2.393,0,0,1,2.492-2.481c4.627.015,9.254-.01,13.881.012a10.652,10.652,0,0,1,3.356.611,12.05,12.05,0,0,1,8.018,9.535,10.853,10.853,0,0,1-.529,5.339,12.043,12.043,0,0,1-2.734,4.4,9.887,9.887,0,0,1-1.986,1.591c-.247.15-.257.292-.124.536q1.878,3.442,3.735,6.894c.43.8.85,1.6,1.3,2.382.2.351.378.713.562,1.071a2.2,2.2,0,0,1-1.662,3.182,4.376,4.376,0,0,1-.692.059c-1.76.006-3.521-.039-5.28.021a2.883,2.883,0,0,1-2.987-1.882c-.721-1.572-1.539-3.1-2.312-4.649-.491-.984-.97-1.974-1.463-2.957-.427-.852-.868-1.7-1.294-2.55a.381.381,0,0,0-.392-.235c-.5.008-1,.021-1.494,0-.3-.014-.368.094-.367.379.01,3.178.007,6.356.009,9.534a2.21,2.21,0,0,1-.752,1.734,2.4,2.4,0,0,1-1.611.6c-1.749.01-3.5.022-5.247,0a2.3,2.3,0,0,1-2.42-2.476q0-7.664,0-15.328Zm2.2,15.405c-.01.234.167.158.281.158,1.638,0,3.277-.006,4.915.006.287,0,.382-.047.382-.364-.012-3.609,0-7.217,0-10.826a.915.915,0,0,1,.038-.279,1.109,1.109,0,0,1,1.216-.764q1.859-.027,3.719,0a1.146,1.146,0,0,1,1.1.712c.185.407.4.8.6,1.2q1.3,2.593,2.606,5.186c.809,1.614,1.62,3.228,2.413,4.85a.451.451,0,0,0,.48.293q2.906-.01,5.812,0c.216,0,.26-.037.148-.234-.34-.6-.671-1.2-1-1.81q-.926-1.7-1.848-3.4c-1.113-2.042-2.2-4.1-3.288-6.152a1.126,1.126,0,0,1,.481-1.558,14.407,14.407,0,0,0,1.474-.885,9.907,9.907,0,0,0,2.413-2.551,9.089,9.089,0,0,0,1.324-3.456,10.342,10.342,0,0,0,.1-2.885,10.076,10.076,0,0,0-.814-2.66,9.175,9.175,0,0,0-2.875-3.58,8.876,8.876,0,0,0-4.187-1.823,10.015,10.015,0,0,0-1.656-.135q-6.542-.016-13.084-.005c-.242,0-.554-.079-.706.041s-.023.453-.041.691c-.007.088,0,.176,0,.265q0,14.666,0,29.333c0,.1.03.2-.039.288-.065.064-.068.116.027.152l.007.18Z" transform="translate(-58.564 -39.921)" fill="#060607"/>
        <path id="Trazado_606191" data-name="Trazado 606191" d="M87.937,93.394c.069-.088.038-.192.038-.288q0-14.667,0-29.333c0-.088-.007-.177,0-.265.018-.238-.124-.561.041-.691s.464-.041.706-.041q6.542,0,13.085.005a10.013,10.013,0,0,1,1.656.135,8.874,8.874,0,0,1,4.187,1.823,9.175,9.175,0,0,1,2.875,3.58,10.079,10.079,0,0,1,.814,2.66,10.344,10.344,0,0,1-.1,2.885,9.083,9.083,0,0,1-1.324,3.456,9.907,9.907,0,0,1-2.413,2.551,14.413,14.413,0,0,1-1.474.885,1.125,1.125,0,0,0-.481,1.558c1.092,2.053,2.176,4.11,3.288,6.152q.925,1.7,1.848,3.4c.33.605.661,1.21,1,1.81.112.2.068.235-.148.234q-2.906-.01-5.812,0a.451.451,0,0,1-.48-.293c-.793-1.622-1.6-3.236-2.413-4.85q-1.3-2.594-2.606-5.186c-.2-.4-.414-.793-.6-1.2a1.147,1.147,0,0,0-1.1-.712q-1.859-.024-3.719,0a1.109,1.109,0,0,0-1.216.764.915.915,0,0,0-.038.279c0,3.609-.011,7.217,0,10.826,0,.317-.094.366-.381.364-1.638-.013-3.276,0-4.915-.006-.113,0-.291.076-.281-.158l.018-.006-.017-.006c0-.06,0-.12-.007-.18.074-.1.074-.1-.027-.152m18.9-21.581c.128-.106-.008-.2-.022-.3a4.887,4.887,0,0,0-1.337-2.822,5.038,5.038,0,0,0-1.552-.994,5.718,5.718,0,0,0-2.195-.471c-.95-.037-1.9,0-2.854-.006-1.372,0-2.744-.012-4.115-.008A1.152,1.152,0,0,0,93.545,68.3q-.006,3.921,0,7.841a.7.7,0,0,0,.061.278,1.2,1.2,0,0,0,1.243.8c2.478-.008,4.956.008,7.433-.007a4.147,4.147,0,0,0,2.089-.636,5.141,5.141,0,0,0,2.3-2.759,3.163,3.163,0,0,0,.2-1.915c.018-.013.051-.028.05-.038-.006-.045-.037-.06-.082-.045" transform="translate(-64.566 -46.076)" fill="#f2f1f0"/>
        <path id="Trazado_606192" data-name="Trazado 606192" d="M87.821,178.067c.1.05.1.05.027.152-.1-.036-.092-.088-.027-.152" transform="translate(-64.45 -130.749)" fill="#899b13"/>
        <path id="Trazado_606193" data-name="Trazado 606193" d="M88.075,179.317l.017.006-.018.006v-.012" transform="translate(-64.67 -131.667)" fill="#899b13"/>
        <path id="Trazado_606194" data-name="Trazado 606194" d="M122.373,84.221a3.165,3.165,0,0,1-.2,1.915,5.142,5.142,0,0,1-2.3,2.759,4.147,4.147,0,0,1-2.09.635c-2.477.015-4.955,0-7.433.008a1.2,1.2,0,0,1-1.243-.8.706.706,0,0,1-.061-.278c0-2.614,0-5.227,0-7.841a1.151,1.151,0,0,1,1.218-1.083c1.372,0,2.743.006,4.115.008.951,0,1.9-.032,2.854.006a5.713,5.713,0,0,1,2.195.471,5.037,5.037,0,0,1,1.552.994,4.887,4.887,0,0,1,1.337,2.822c.014.094.15.191.022.3-.024.04-.033.075.031.083m-7.751,3.074v-.01c.93,0,1.859.005,2.789,0a2.677,2.677,0,0,0,2.657-1.889,2.728,2.728,0,0,0-2.007-3.541,9.358,9.358,0,0,0-1.844-.109c-1.535-.014-3.071-.076-4.607.033-.249.018-.318.074-.317.319.009,1.611.011,3.222,0,4.833,0,.3.089.376.378.371.985-.016,1.97-.006,2.955-.006" transform="translate(-80.069 -58.4)" fill="#060607"/>
        <path id="Trazado_606195" data-name="Trazado 606195" d="M159.061,96.921c-.064-.008-.055-.043-.031-.083.044-.015.075,0,.081.045,0,.01-.032.025-.05.038" transform="translate(-116.757 -71.101)" fill="#899b13"/>
        <path id="Trazado_606196" data-name="Trazado 606196" d="M120.818,93.317c-.985,0-1.97-.01-2.955.006-.289,0-.381-.075-.378-.371.015-1.611.013-3.222,0-4.833,0-.245.068-.3.317-.319,1.535-.109,3.072-.047,4.607-.033a9.357,9.357,0,0,1,1.844.109,2.728,2.728,0,0,1,2.007,3.541,2.677,2.677,0,0,1-2.657,1.889c-.93.006-1.859,0-2.789,0v.01" transform="translate(-86.265 -64.422)" fill="#33ece0"/>
      </g>
    </g>
  </g>
</svg>
