<svg xmlns="http://www.w3.org/2000/svg" xmlns:xlink="http://www.w3.org/1999/xlink" width="142" height="142" viewBox="0 0 142 142">
  <defs>
    <clipPath id="clip-path">
      <rect id="Rectángulo_345990" data-name="Rectángulo 345990" width="115.211" height="98.851" fill="none"/>
    </clipPath>
    <clipPath id="clip-path-3">
      <rect id="Rectángulo_345913" data-name="Rectángulo 345913" width="7.235" height="0.663" fill="none"/>
    </clipPath>
    <clipPath id="clip-path-4">
      <rect id="Rectángulo_345915" data-name="Rectángulo 345915" width="5.587" height="0.661" fill="none"/>
    </clipPath>
    <clipPath id="clip-path-5">
      <rect id="Rectángulo_345917" data-name="Rectángulo 345917" width="6.169" height="0.661" fill="none"/>
    </clipPath>
    <clipPath id="clip-path-6">
      <rect id="Rectángulo_345923" data-name="Rectángulo 345923" width="3.257" height="0.679" fill="none"/>
    </clipPath>
    <clipPath id="clip-path-7">
      <rect id="Rectángulo_345925" data-name="Rectángulo 345925" width="4.301" height="0.679" fill="none"/>
    </clipPath>
    <clipPath id="clip-path-8">
      <rect id="Rectángulo_345927" data-name="Rectángulo 345927" width="3.257" height="0.681" fill="none"/>
    </clipPath>
    <clipPath id="clip-path-9">
      <rect id="Rectángulo_345929" data-name="Rectángulo 345929" width="4.503" height="0.679" fill="none"/>
    </clipPath>
    <clipPath id="clip-path-10">
      <rect id="Rectángulo_345934" data-name="Rectángulo 345934" width="9.541" height="2.581" fill="none"/>
    </clipPath>
    <clipPath id="clip-path-11">
      <rect id="Rectángulo_345936" data-name="Rectángulo 345936" width="9.541" height="1.052" fill="none"/>
    </clipPath>
    <clipPath id="clip-path-13">
      <rect id="Rectángulo_345941" data-name="Rectángulo 345941" width="9.541" height="1.221" fill="none"/>
    </clipPath>
    <clipPath id="clip-path-14">
      <rect id="Rectángulo_345946" data-name="Rectángulo 345946" width="8.809" height="0.806" fill="none"/>
    </clipPath>
    <clipPath id="clip-path-15">
      <rect id="Rectángulo_345948" data-name="Rectángulo 345948" width="6.802" height="0.805" fill="none"/>
    </clipPath>
    <clipPath id="clip-path-16">
      <rect id="Rectángulo_345950" data-name="Rectángulo 345950" width="7.511" height="0.806" fill="none"/>
    </clipPath>
    <clipPath id="clip-path-17">
      <rect id="Rectángulo_345956" data-name="Rectángulo 345956" width="3.966" height="0.827" fill="none"/>
    </clipPath>
    <clipPath id="clip-path-18">
      <rect id="Rectángulo_345958" data-name="Rectángulo 345958" width="5.236" height="0.827" fill="none"/>
    </clipPath>
    <clipPath id="clip-path-20">
      <rect id="Rectángulo_345962" data-name="Rectángulo 345962" width="5.482" height="0.828" fill="none"/>
    </clipPath>
    <clipPath id="clip-path-21">
      <rect id="Rectángulo_345967" data-name="Rectángulo 345967" width="11.617" height="3.141" fill="none"/>
    </clipPath>
    <clipPath id="clip-path-22">
      <rect id="Rectángulo_345969" data-name="Rectángulo 345969" width="11.617" height="1.282" fill="none"/>
    </clipPath>
    <clipPath id="clip-path-23">
      <rect id="Rectángulo_345972" data-name="Rectángulo 345972" width="11.617" height="1.28" fill="none"/>
    </clipPath>
    <clipPath id="clip-path-24">
      <rect id="Rectángulo_345974" data-name="Rectángulo 345974" width="11.617" height="1.486" fill="none"/>
    </clipPath>
    <clipPath id="clip-path-25">
      <rect id="Rectángulo_345978" data-name="Rectángulo 345978" width="8.044" height="8.112" fill="none"/>
    </clipPath>
    <clipPath id="clip-path-26">
      <rect id="Rectángulo_345984" data-name="Rectángulo 345984" width="44.769" height="32.229" fill="none"/>
    </clipPath>
    <clipPath id="clip-path-27">
      <rect id="Rectángulo_345985" data-name="Rectángulo 345985" width="0.872" height="3.542" fill="none"/>
    </clipPath>
    <clipPath id="clip-path-28">
      <rect id="Rectángulo_345986" data-name="Rectángulo 345986" width="0.866" height="4.968" fill="none"/>
    </clipPath>
  </defs>
  <g id="Grupo_1015274" data-name="Grupo 1015274" transform="translate(-1028.999 -7022)">
    <g id="Grupo_1015037" data-name="Grupo 1015037" transform="translate(1028.999 7022)">
      <g id="Grupo_159183" data-name="Grupo 159183" transform="translate(0 0)">
        <g id="Grupo_1015569" data-name="Grupo 1015569">
          <g id="Grupo_1015568" data-name="Grupo 1015568">
            <path id="Unión_12" data-name="Unión 12" d="M101.655,135.059a71.06,71.06,0,1,1,23.7-18.381L135.108,142Z" fill="#a3bfe4"/>
            <path id="Trazado_606158" data-name="Trazado 606158" d="M55.281,0A55.281,55.281,0,1,1,0,55.281,55.281,55.281,0,0,1,55.281,0Z" transform="translate(15.831 15.83)" fill="#fffbe5"/>
          </g>
        </g>
        <g id="Grupo_1015406" data-name="Grupo 1015406" transform="translate(15.769 23.122)">
          <g id="Grupo_1015405" data-name="Grupo 1015405" clip-path="url(#clip-path)">
            <g id="Grupo_1015404" data-name="Grupo 1015404">
              <g id="Grupo_1015403" data-name="Grupo 1015403" clip-path="url(#clip-path)">
                <path id="Rectángulo_345908" data-name="Rectángulo 345908" d="M2.162,0H22.813a2.162,2.162,0,0,1,2.162,2.162V28.183a2.162,2.162,0,0,1-2.162,2.162H2.161A2.161,2.161,0,0,1,0,28.184V2.162A2.162,2.162,0,0,1,2.162,0Z" transform="translate(0 22.582)" fill="#fff"/>
                <rect id="Rectángulo_345909" data-name="Rectángulo 345909" width="19.516" height="23.829" transform="translate(2.73 25.841)" fill="#87838f"/>
                <rect id="Rectángulo_345910" data-name="Rectángulo 345910" width="4.341" height="1.323" transform="translate(11.206 27.108)" fill="#7dc3ca"/>
                <rect id="Rectángulo_345911" data-name="Rectángulo 345911" width="3.078" height="1.323" transform="translate(16.271 27.108)" fill="#7dc3ca"/>
                <g id="Grupo_1015327" data-name="Grupo 1015327" transform="translate(11.206 29.348)" opacity="0.63">
                  <g id="Grupo_1015326" data-name="Grupo 1015326">
                    <g id="Grupo_1015325" data-name="Grupo 1015325" clip-path="url(#clip-path-3)">
                      <rect id="Rectángulo_345912" data-name="Rectángulo 345912" width="7.235" height="0.663" transform="translate(0 0)" fill="#7dc3ca"/>
                    </g>
                  </g>
                </g>
                <g id="Grupo_1015330" data-name="Grupo 1015330" transform="translate(11.206 30.57)" opacity="0.63">
                  <g id="Grupo_1015329" data-name="Grupo 1015329">
                    <g id="Grupo_1015328" data-name="Grupo 1015328" clip-path="url(#clip-path-4)">
                      <rect id="Rectángulo_345914" data-name="Rectángulo 345914" width="5.587" height="0.661" transform="translate(0 0)" fill="#7dc3ca"/>
                    </g>
                  </g>
                </g>
                <g id="Grupo_1015333" data-name="Grupo 1015333" transform="translate(11.206 31.792)" opacity="0.63">
                  <g id="Grupo_1015332" data-name="Grupo 1015332">
                    <g id="Grupo_1015331" data-name="Grupo 1015331" clip-path="url(#clip-path-5)">
                      <rect id="Rectángulo_345916" data-name="Rectángulo 345916" width="6.168" height="0.661" transform="translate(0)" fill="#7dc3ca"/>
                    </g>
                  </g>
                </g>
                <path id="Trazado_605896" data-name="Trazado 605896" d="M11.072,42.12A1.088,1.088,0,0,0,10.3,41.8v0h-.52l0,0H9.4a1.3,1.3,0,0,0,.436-.976v-.33a.365.365,0,0,0,.277-.356.359.359,0,0,0-.277-.351v-.432H9.9c0-.016,0-.032,0-.048a.769.769,0,0,0-.767-.726H7.012a.778.778,0,0,0,.229.55v.657a.358.358,0,0,0-.276.351.364.364,0,0,0,.276.356v.33a1.315,1.315,0,0,0,.379.926c.018.017.037.035.057.05H7.3v0H6.782v.012h0V41.8A1.087,1.087,0,0,0,6,42.12a1.107,1.107,0,0,0-.321.781h0v1.281h5.708V42.9a1.1,1.1,0,0,0-.321-.779" transform="translate(-1.436 -9.497)" fill="#fff"/>
                <rect id="Rectángulo_345918" data-name="Rectángulo 345918" width="2.796" height="2.019" transform="translate(11.205 33.286)" fill="#7dc3ca"/>
                <rect id="Rectángulo_345919" data-name="Rectángulo 345919" width="2.796" height="2.019" transform="translate(14.578 33.286)" fill="#7dc3ca"/>
                <rect id="Rectángulo_345920" data-name="Rectángulo 345920" width="2.796" height="2.019" transform="translate(17.951 33.286)" fill="#7dc3ca"/>
                <rect id="Rectángulo_345921" data-name="Rectángulo 345921" width="5.709" height="1.358" transform="translate(4.246 35.95)" fill="#7dc3ca"/>
                <g id="Grupo_1015336" data-name="Grupo 1015336" transform="translate(4.247 38.19)" opacity="0.63">
                  <g id="Grupo_1015335" data-name="Grupo 1015335">
                    <g id="Grupo_1015334" data-name="Grupo 1015334" clip-path="url(#clip-path-6)">
                      <rect id="Rectángulo_345922" data-name="Rectángulo 345922" width="3.258" height="0.679" transform="translate(0 0)" fill="#7dc3ca"/>
                    </g>
                  </g>
                </g>
                <g id="Grupo_1015339" data-name="Grupo 1015339" transform="translate(4.247 39.481)" opacity="0.63">
                  <g id="Grupo_1015338" data-name="Grupo 1015338">
                    <g id="Grupo_1015337" data-name="Grupo 1015337" clip-path="url(#clip-path-7)">
                      <rect id="Rectángulo_345924" data-name="Rectángulo 345924" width="4.301" height="0.678" transform="translate(0 0.001)" fill="#7dc3ca"/>
                    </g>
                  </g>
                </g>
                <g id="Grupo_1015342" data-name="Grupo 1015342" transform="translate(4.247 40.769)" opacity="0.63">
                  <g id="Grupo_1015341" data-name="Grupo 1015341">
                    <g id="Grupo_1015340" data-name="Grupo 1015340" clip-path="url(#clip-path-8)">
                      <rect id="Rectángulo_345926" data-name="Rectángulo 345926" width="3.258" height="0.681" transform="translate(0 0)" fill="#7dc3ca"/>
                    </g>
                  </g>
                </g>
                <g id="Grupo_1015345" data-name="Grupo 1015345" transform="translate(4.247 42.06)" opacity="0.63">
                  <g id="Grupo_1015344" data-name="Grupo 1015344">
                    <g id="Grupo_1015343" data-name="Grupo 1015343" clip-path="url(#clip-path-9)">
                      <rect id="Rectángulo_345928" data-name="Rectángulo 345928" width="4.503" height="0.679" transform="translate(0 0)" fill="#7dc3ca"/>
                    </g>
                  </g>
                </g>
                <path id="Trazado_605897" data-name="Trazado 605897" d="M5.684,61.4h5.71V57.858H5.684Zm2.282-.946V58.8l1.409.823Z" transform="translate(-1.436 -14.244)" fill="#7dc3ca"/>
                <rect id="Rectángulo_345930" data-name="Rectángulo 345930" width="5.709" height="0.61" transform="translate(4.246 47.627)" fill="#7dc3ca"/>
                <rect id="Rectángulo_345931" data-name="Rectángulo 345931" width="9.541" height="0.373" transform="translate(11.206 35.95)" fill="#7dc3ca"/>
                <rect id="Rectángulo_345932" data-name="Rectángulo 345932" width="6.428" height="0.683" transform="translate(11.205 37.64)" fill="#7dc3ca"/>
                <g id="Grupo_1015348" data-name="Grupo 1015348" transform="translate(11.206 38.869)" opacity="0.63">
                  <g id="Grupo_1015347" data-name="Grupo 1015347">
                    <g id="Grupo_1015346" data-name="Grupo 1015346" clip-path="url(#clip-path-10)">
                      <rect id="Rectángulo_345933" data-name="Rectángulo 345933" width="9.541" height="2.58" transform="translate(0 0)" fill="#7dc3ca"/>
                    </g>
                  </g>
                </g>
                <g id="Grupo_1015351" data-name="Grupo 1015351" transform="translate(11.206 42.06)" opacity="0.63">
                  <g id="Grupo_1015350" data-name="Grupo 1015350">
                    <g id="Grupo_1015349" data-name="Grupo 1015349" clip-path="url(#clip-path-11)">
                      <rect id="Rectángulo_345935" data-name="Rectángulo 345935" width="9.541" height="1.052" transform="translate(0 0)" fill="#7dc3ca"/>
                    </g>
                  </g>
                </g>
                <rect id="Rectángulo_345937" data-name="Rectángulo 345937" width="5.014" height="0.684" transform="translate(11.205 43.952)" fill="#7dc3ca"/>
                <g id="Grupo_1015354" data-name="Grupo 1015354" transform="translate(11.206 45.182)" opacity="0.63">
                  <g id="Grupo_1015353" data-name="Grupo 1015353">
                    <g id="Grupo_1015352" data-name="Grupo 1015352" clip-path="url(#clip-path-11)">
                      <rect id="Rectángulo_345938" data-name="Rectángulo 345938" width="9.541" height="1.052" transform="translate(0 0)" fill="#7dc3ca"/>
                    </g>
                  </g>
                </g>
                <g id="Grupo_1015357" data-name="Grupo 1015357" transform="translate(11.206 47.016)" opacity="0.63">
                  <g id="Grupo_1015356" data-name="Grupo 1015356">
                    <g id="Grupo_1015355" data-name="Grupo 1015355" clip-path="url(#clip-path-13)">
                      <rect id="Rectángulo_345940" data-name="Rectángulo 345940" width="9.541" height="1.221" transform="translate(0 0)" fill="#7dc3ca"/>
                    </g>
                  </g>
                </g>
                <path id="Trazado_605898" data-name="Trazado 605898" d="M17.334,67.736a.942.942,0,1,1-.942-.951.947.947,0,0,1,.942.951" transform="translate(-3.904 -16.442)" fill="#866072"/>
                <path id="Trazado_605899" data-name="Trazado 605899" d="M143.884,67.291a1.975,1.975,0,0,1-1.966,1.986H115.439a1.974,1.974,0,0,1-1.965-1.986V34.31a1.974,1.974,0,0,1,1.965-1.984h26.479a1.975,1.975,0,0,1,1.966,1.984Z" transform="translate(-28.673 -7.959)" fill="#ffb133"/>
                <rect id="Rectángulo_345942" data-name="Rectángulo 345942" width="23.764" height="29.014" transform="translate(88.123 28.335)" fill="#e9f0f0"/>
                <rect id="Rectángulo_345943" data-name="Rectángulo 345943" width="5.287" height="1.612" transform="translate(98.444 29.878)" fill="#7dc3ca"/>
                <rect id="Rectángulo_345944" data-name="Rectángulo 345944" width="3.748" height="1.612" transform="translate(104.611 29.878)" fill="#7dc3ca"/>
                <g id="Grupo_1015360" data-name="Grupo 1015360" transform="translate(98.445 32.605)" opacity="0.63">
                  <g id="Grupo_1015359" data-name="Grupo 1015359">
                    <g id="Grupo_1015358" data-name="Grupo 1015358" clip-path="url(#clip-path-14)">
                      <rect id="Rectángulo_345945" data-name="Rectángulo 345945" width="8.809" height="0.806" transform="translate(0 0)" fill="#7dc3ca"/>
                    </g>
                  </g>
                </g>
                <g id="Grupo_1015363" data-name="Grupo 1015363" transform="translate(98.445 34.094)" opacity="0.63">
                  <g id="Grupo_1015362" data-name="Grupo 1015362">
                    <g id="Grupo_1015361" data-name="Grupo 1015361" clip-path="url(#clip-path-15)">
                      <rect id="Rectángulo_345947" data-name="Rectángulo 345947" width="6.802" height="0.804" transform="translate(0 0)" fill="#7dc3ca"/>
                    </g>
                  </g>
                </g>
                <g id="Grupo_1015366" data-name="Grupo 1015366" transform="translate(98.445 35.581)" opacity="0.63">
                  <g id="Grupo_1015365" data-name="Grupo 1015365">
                    <g id="Grupo_1015364" data-name="Grupo 1015364" clip-path="url(#clip-path-16)">
                      <rect id="Rectángulo_345949" data-name="Rectángulo 345949" width="7.511" height="0.806" transform="translate(0 0)" fill="#7dc3ca"/>
                    </g>
                  </g>
                </g>
                <path id="Trazado_605900" data-name="Trazado 605900" d="M126.953,47.134a1.331,1.331,0,0,0-.943-.394v0h-.634v0h-.461a1.589,1.589,0,0,0,.531-1.189v-.4a.446.446,0,0,0,.337-.432.441.441,0,0,0-.337-.429v-.526h.084c0-.019,0-.038,0-.058a.938.938,0,0,0-.934-.884h-2.586a.951.951,0,0,0,.278.67v.8a.44.44,0,0,0-.336.429.445.445,0,0,0,.336.432v.4a1.6,1.6,0,0,0,.463,1.127l.069.062h-.461l0,0h-.632v.014h0V46.74a1.329,1.329,0,0,0-.943.394,1.343,1.343,0,0,0-.392.952h0v1.56h6.952V48.084a1.342,1.342,0,0,0-.391-.95" transform="translate(-30.421 -10.541)" fill="#f4a11a"/>
                <rect id="Rectángulo_345951" data-name="Rectángulo 345951" width="3.406" height="2.459" transform="translate(98.444 37.401)" fill="#7dc3ca"/>
                <rect id="Rectángulo_345952" data-name="Rectángulo 345952" width="3.406" height="2.459" transform="translate(102.55 37.401)" fill="#7dc3ca"/>
                <rect id="Rectángulo_345953" data-name="Rectángulo 345953" width="3.406" height="2.459" transform="translate(106.656 37.401)" fill="#7dc3ca"/>
                <rect id="Rectángulo_345954" data-name="Rectángulo 345954" width="6.952" height="1.654" transform="translate(89.972 40.644)" fill="#7dc3ca"/>
                <g id="Grupo_1015369" data-name="Grupo 1015369" transform="translate(89.971 43.372)" opacity="0.63">
                  <g id="Grupo_1015368" data-name="Grupo 1015368">
                    <g id="Grupo_1015367" data-name="Grupo 1015367" clip-path="url(#clip-path-17)">
                      <rect id="Rectángulo_345955" data-name="Rectángulo 345955" width="3.966" height="0.827" transform="translate(0 0)" fill="#7dc3ca"/>
                    </g>
                  </g>
                </g>
                <g id="Grupo_1015372" data-name="Grupo 1015372" transform="translate(89.971 44.943)" opacity="0.63">
                  <g id="Grupo_1015371" data-name="Grupo 1015371">
                    <g id="Grupo_1015370" data-name="Grupo 1015370" clip-path="url(#clip-path-18)">
                      <rect id="Rectángulo_345957" data-name="Rectángulo 345957" width="5.236" height="0.827" transform="translate(0 0)" fill="#7dc3ca"/>
                    </g>
                  </g>
                </g>
                <g id="Grupo_1015375" data-name="Grupo 1015375" transform="translate(89.971 46.513)" opacity="0.63">
                  <g id="Grupo_1015374" data-name="Grupo 1015374">
                    <g id="Grupo_1015373" data-name="Grupo 1015373" clip-path="url(#clip-path-17)">
                      <rect id="Rectángulo_345959" data-name="Rectángulo 345959" width="3.966" height="0.827" transform="translate(0 0)" fill="#7dc3ca"/>
                    </g>
                  </g>
                </g>
                <g id="Grupo_1015378" data-name="Grupo 1015378" transform="translate(89.971 48.084)" opacity="0.63">
                  <g id="Grupo_1015377" data-name="Grupo 1015377">
                    <g id="Grupo_1015376" data-name="Grupo 1015376" clip-path="url(#clip-path-20)">
                      <rect id="Rectángulo_345961" data-name="Rectángulo 345961" width="5.482" height="0.828" transform="translate(0 0)" fill="#7dc3ca"/>
                    </g>
                  </g>
                </g>
                <path id="Trazado_605901" data-name="Trazado 605901" d="M120.394,70.606h6.953V66.3h-6.953Zm2.779-1.151v-2l1.716,1Z" transform="translate(-30.422 -16.323)" fill="#f4a11a"/>
                <rect id="Rectángulo_345963" data-name="Rectángulo 345963" width="6.952" height="0.742" transform="translate(89.972 54.862)" fill="#7dc3ca"/>
                <rect id="Rectángulo_345964" data-name="Rectángulo 345964" width="11.617" height="0.455" transform="translate(98.445 40.644)" fill="#7dc3ca"/>
                <rect id="Rectángulo_345965" data-name="Rectángulo 345965" width="7.827" height="0.833" transform="translate(98.444 42.701)" fill="#7dc3ca"/>
                <g id="Grupo_1015381" data-name="Grupo 1015381" transform="translate(98.445 44.199)" opacity="0.63">
                  <g id="Grupo_1015380" data-name="Grupo 1015380">
                    <g id="Grupo_1015379" data-name="Grupo 1015379" clip-path="url(#clip-path-21)">
                      <rect id="Rectángulo_345966" data-name="Rectángulo 345966" width="11.617" height="3.141" transform="translate(0 0)" fill="#7dc3ca"/>
                    </g>
                  </g>
                </g>
                <g id="Grupo_1015384" data-name="Grupo 1015384" transform="translate(98.445 48.084)" opacity="0.63">
                  <g id="Grupo_1015383" data-name="Grupo 1015383">
                    <g id="Grupo_1015382" data-name="Grupo 1015382" clip-path="url(#clip-path-22)">
                      <rect id="Rectángulo_345968" data-name="Rectángulo 345968" width="11.617" height="1.281" transform="translate(0 0)" fill="#7dc3ca"/>
                    </g>
                  </g>
                </g>
                <rect id="Rectángulo_345970" data-name="Rectángulo 345970" width="6.105" height="0.834" transform="translate(98.445 50.387)" fill="#7dc3ca"/>
                <g id="Grupo_1015387" data-name="Grupo 1015387" transform="translate(98.445 51.886)" opacity="0.63">
                  <g id="Grupo_1015386" data-name="Grupo 1015386">
                    <g id="Grupo_1015385" data-name="Grupo 1015385" clip-path="url(#clip-path-23)">
                      <rect id="Rectángulo_345971" data-name="Rectángulo 345971" width="11.617" height="1.28" fill="#7dc3ca"/>
                    </g>
                  </g>
                </g>
                <g id="Grupo_1015390" data-name="Grupo 1015390" transform="translate(98.445 54.118)" opacity="0.63">
                  <g id="Grupo_1015389" data-name="Grupo 1015389">
                    <g id="Grupo_1015388" data-name="Grupo 1015388" clip-path="url(#clip-path-24)">
                      <rect id="Rectángulo_345973" data-name="Rectángulo 345973" width="11.617" height="1.486" transform="translate(0 0)" fill="#7dc3ca"/>
                    </g>
                  </g>
                </g>
                <path id="Trazado_605902" data-name="Trazado 605902" d="M134.579,78.326a1.147,1.147,0,1,1-1.147-1.157,1.152,1.152,0,0,1,1.147,1.157" transform="translate(-33.426 -18.999)" fill="#866072"/>
                <path id="Rectángulo_345975" data-name="Rectángulo 345975" d="M3.423,0H45.406A3.424,3.424,0,0,1,48.83,3.424V37.563a3.422,3.422,0,0,1-3.422,3.422H3.425A3.425,3.425,0,0,1,0,37.56V3.423A3.423,3.423,0,0,1,3.423,0Z" transform="translate(30.626 0)" fill="#fff"/>
                <rect id="Rectángulo_345976" data-name="Rectángulo 345976" width="37.553" height="30.042" transform="translate(36.264 5.472)" fill="#87838f"/>
                <path id="Trazado_605903" data-name="Trazado 605903" d="M80.711,23.674A10.665,10.665,0,1,1,70.047,12.916,10.711,10.711,0,0,1,80.711,23.674" transform="translate(-15.005 -3.18)" fill="#d6e4e4"/>
                <path id="Trazado_605904" data-name="Trazado 605904" d="M78.453,15.882a12.059,12.059,0,0,0-1.112-1.129,11.32,11.32,0,0,0-7.393-2.883c-.059,0-.114,0-.173,0s-.118,0-.176,0a11.325,11.325,0,0,0-7.38,2.883,11.585,11.585,0,0,0-.028,17.3A11.341,11.341,0,0,0,69.6,34.959c.058,0,.116,0,.176,0s.114,0,.173,0a11.355,11.355,0,0,0,7.423-2.907,12.239,12.239,0,0,0,1.108-1.132,11.611,11.611,0,0,0-.026-15.038m1.176,6.743H76.448a18.241,18.241,0,0,0-.683-4.438,11.106,11.106,0,0,0,1.576-1.178,9.945,9.945,0,0,1,2.288,5.617m-5.282,5.21a11.184,11.184,0,0,0-3.787-.928v-2.7h4.322a17.294,17.294,0,0,1-.534,3.628m-9.678-3.628h4.322v2.7a11.184,11.184,0,0,0-3.787.936,16.981,16.981,0,0,1-.536-3.636m.549-5.271a11.258,11.258,0,0,0,3.773.93v2.759H64.668a17.055,17.055,0,0,1,.549-3.689m5.342-5.365c1.32.413,2.491,1.85,3.279,3.857a9.618,9.618,0,0,1-3.279.851Zm-1.569,0h0v4.708a9.615,9.615,0,0,1-3.277-.853c.788-2.011,1.959-3.443,3.277-3.856m0,14.915h0v4.772c-1.33-.415-2.509-1.871-3.3-3.9a9.8,9.8,0,0,1,3.3-.868m1.569,4.772V28.486a9.737,9.737,0,0,1,3.3.862c-.794,2.035-1.972,3.494-3.3,3.91m0-10.634V19.866a11.261,11.261,0,0,0,3.772-.924,16.86,16.86,0,0,1,.55,3.683Zm5.678-6.743a9.81,9.81,0,0,1-1,.769,11.279,11.279,0,0,0-1.226-2.24,9.714,9.714,0,0,1,2.228,1.471M65.531,14.42a11.056,11.056,0,0,0-1.215,2.224,9.6,9.6,0,0,1-.992-.762,9.741,9.741,0,0,1,2.208-1.462m-3.312,2.588a11.212,11.212,0,0,0,1.569,1.17,18.251,18.251,0,0,0-.688,4.447H59.933a9.943,9.943,0,0,1,2.286-5.617m-2.286,7.2H63.1a18.39,18.39,0,0,0,.671,4.394,11.137,11.137,0,0,0-1.58,1.186,9.931,9.931,0,0,1-2.258-5.58m3.355,6.713a9.6,9.6,0,0,1,1.01-.782,11.232,11.232,0,0,0,1.233,2.273,9.991,9.991,0,0,1-2.243-1.491m10.722,1.5a11.158,11.158,0,0,0,1.243-2.289,9.665,9.665,0,0,1,1.021.788,9.936,9.936,0,0,1-2.264,1.5m3.361-2.635a11.161,11.161,0,0,0-1.59-1.194,18.59,18.59,0,0,0,.667-4.386h3.181a9.951,9.951,0,0,1-2.258,5.58" transform="translate(-14.74 -2.922)" fill="#54b5c3"/>
                <path id="Trazado_605905" data-name="Trazado 605905" d="M81.237,29.467l-5.322,5.368-2.264-7.647Z" transform="translate(-18.61 -6.693)" fill="#fff"/>
                <path id="Trazado_608380" data-name="Trazado 608380" d="M.008.013,2.927,0,2.919,1.757,0,1.77Z" transform="matrix(0.707, -0.707, 0.707, 0.707, 58.922, 26.492)" fill="#fff"/>
                <g id="Grupo_1015393" data-name="Grupo 1015393" transform="translate(57.303 22.772)" style="mix-blend-mode: multiply;isolation: isolate">
                  <g id="Grupo_1015392" data-name="Grupo 1015392">
                    <g id="Grupo_1015391" data-name="Grupo 1015391" clip-path="url(#clip-path-25)">
                      <path id="Trazado_605906" data-name="Trazado 605906" d="M84.722,32.956a11.915,11.915,0,0,1-1.607,2.479,12.346,12.346,0,0,1-1.11,1.132,11.736,11.736,0,0,1-2.6,1.754l-2.143-2.16-.582-.585,1.632-1.646.114.112,1.125,1.136.2-.2L80,34.725l1.6-1.618-.949-.955-.291-.293L82,30.21l1.533,1.547Z" transform="translate(-76.678 -30.21)" fill="#a9bfc2"/>
                    </g>
                  </g>
                </g>
                <rect id="Rectángulo_345979" data-name="Rectángulo 345979" width="19.622" height="2.751" transform="translate(45.23 40.985)" fill="#ced3d2"/>
                <rect id="Rectángulo_345980" data-name="Rectángulo 345980" width="29.106" height="2.044" transform="translate(40.488 43.721)" fill="#fff"/>
                <path id="Trazado_605907" data-name="Trazado 605907" d="M91.246,50.294a.912.912,0,0,0,.911.917h3.807a.918.918,0,0,0,0-1.836H92.157a.914.914,0,0,0-.911.918" transform="translate(-23.056 -12.156)" fill="#b6c0c6"/>
                <path id="Rectángulo_345981" data-name="Rectángulo 345981" d="M3.844,0H51.831a3.844,3.844,0,0,1,3.844,3.844v34.34a3.846,3.846,0,0,1-3.846,3.846H3.846A3.846,3.846,0,0,1,0,38.184V3.844A3.844,3.844,0,0,1,3.844,0Z" transform="translate(26.545 51.026)" fill="#634755"/>
                <rect id="Rectángulo_345982" data-name="Rectángulo 345982" width="61.353" height="5.796" transform="translate(23.706 93.055)" fill="#ffb133"/>
                <rect id="Rectángulo_345983" data-name="Rectángulo 345983" width="44.769" height="32.233" transform="translate(31.943 56.231)" fill="#7dc3ca"/>
                <g id="Grupo_1015396" data-name="Grupo 1015396" transform="translate(31.946 56.234)" opacity="0.5" style="mix-blend-mode: multiply;isolation: isolate">
                  <g id="Grupo_1015395" data-name="Grupo 1015395">
                    <g id="Grupo_1015394" data-name="Grupo 1015394" clip-path="url(#clip-path-26)">
                      <path id="Trazado_605908" data-name="Trazado 605908" d="M87.517,74.6v32.229H42.747Z" transform="translate(-42.747 -74.6)" fill="#f2cddb"/>
                    </g>
                  </g>
                </g>
                <path id="Trazado_605909" data-name="Trazado 605909" d="M76.867,105.016H58.678A5.7,5.7,0,0,0,53,110.734v.006h0v1.995H82.477v-2a5.7,5.7,0,0,0-5.609-5.718" transform="translate(-13.393 -25.855)" fill="#fff"/>
                <path id="Trazado_605910" data-name="Trazado 605910" d="M77.208,86.069v9.214a6.74,6.74,0,0,1-6.711,6.768,6.668,6.668,0,0,1-4.745-1.983,6.792,6.792,0,0,1-1.965-4.785V86.069Z" transform="translate(-16.118 -21.19)" fill="#ecd2a2"/>
                <path id="Trazado_605911" data-name="Trazado 605911" d="M78.481,85.53v1.656H77.336V85.53a6.431,6.431,0,0,0-6.4-6.45h-1.9a6.432,6.432,0,0,0-6.4,6.45v1.656H61.5V85.53a7.566,7.566,0,0,1,7.535-7.6h1.9a7.572,7.572,0,0,1,7.541,7.6" transform="translate(-15.541 -19.185)" fill="#fff"/>
                <g id="Grupo_1015399" data-name="Grupo 1015399" transform="translate(60.218 66.492)" opacity="0.51">
                  <g id="Grupo_1015398" data-name="Grupo 1015398">
                    <g id="Grupo_1015397" data-name="Grupo 1015397" clip-path="url(#clip-path-27)">
                      <path id="Trazado_605912" data-name="Trazado 605912" d="M81.451,88.209V91.75a.878.878,0,0,1-.611-.259.9.9,0,0,1-.262-.633v-2.65Z" transform="translate(-80.579 -88.209)" fill="#876756"/>
                    </g>
                  </g>
                </g>
                <g id="Grupo_1015402" data-name="Grupo 1015402" transform="translate(47.67 65.065)" opacity="0.51">
                  <g id="Grupo_1015401" data-name="Grupo 1015401">
                    <g id="Grupo_1015400" data-name="Grupo 1015400" clip-path="url(#clip-path-28)">
                      <path id="Trazado_605913" data-name="Trazado 605913" d="M64.654,86.316V90.57a.885.885,0,0,1-.866.714V86.316Z" transform="translate(-63.788 -86.316)" fill="#876756"/>
                    </g>
                  </g>
                </g>
                <path id="Trazado_605914" data-name="Trazado 605914" d="M77.166,86.9H66.173a3.84,3.84,0,0,1-.978-.121A4,4,0,0,1,62.206,82.9H73.192a3.978,3.978,0,0,1,3.966,3.752c.008.083.008.164.008.246" transform="translate(-15.718 -20.41)" fill="#765a4c"/>
                <path id="Trazado_605915" data-name="Trazado 605915" d="M83.171,93a1.874,1.874,0,0,1-1.425,1.829V91.173A1.864,1.864,0,0,1,83.171,93" transform="translate(-20.656 -22.447)" fill="#dcb88f"/>
                <path id="Trazado_605916" data-name="Trazado 605916" d="M61.875,93a1.877,1.877,0,0,0,1.43,1.829V91.173A1.867,1.867,0,0,0,61.875,93" transform="translate(-15.635 -22.447)" fill="#dcb88f"/>
                <rect id="Rectángulo_345987" data-name="Rectángulo 345987" width="2.386" height="5.221" transform="translate(61.085 68.001)" fill="#f4a11a"/>
                <rect id="Rectángulo_345988" data-name="Rectángulo 345988" width="2.389" height="5.221" transform="translate(45.291 68.001)" fill="#f4a11a"/>
                <path id="Trazado_605917" data-name="Trazado 605917" d="M65.449,100.253l-3.835-3.868.627-.631,3.832,3.866Z" transform="translate(-15.569 -23.575)" fill="#fff"/>
                <path id="Trazado_605918" data-name="Trazado 605918" d="M68.005,100.8a1.227,1.227,0,1,1-1.224-1.238,1.23,1.23,0,0,1,1.224,1.238" transform="translate(-16.564 -24.513)" fill="#f4a11a"/>
                <path id="Trazado_605919" data-name="Trazado 605919" d="M73.776,70.784a1.377,1.377,0,1,1-1.378-1.39,1.384,1.384,0,0,1,1.378,1.39" transform="translate(-17.946 -17.085)" fill="#634755"/>
              </g>
            </g>
          </g>
        </g>
      </g>
    </g>
  </g>
</svg>
