<svg id="Grupo_1015409" data-name="Grupo 1015409" xmlns="http://www.w3.org/2000/svg" xmlns:xlink="http://www.w3.org/1999/xlink" width="356" height="192.457" viewBox="0 0 356 192.457">
  <defs>
    <clipPath id="clip-path">
      <rect id="Rectángulo_345997" data-name="Rectángulo 345997" width="356" height="192.457" fill="none"/>
    </clipPath>
  </defs>
  <rect id="Rectángulo_345991" data-name="Rectángulo 345991" width="74.767" height="74.768" transform="translate(224.348 14.762)" fill="#33ece0"/>
  <g id="Grupo_1015408" data-name="Grupo 1015408">
    <g id="Grupo_1015407" data-name="Grupo 1015407" clip-path="url(#clip-path)">
      <path id="Trazado_605920" data-name="Trazado 605920" d="M103.323,135.622H7.4a7.305,7.305,0,0,1-7.285-7.285V61.083A7.305,7.305,0,0,1,7.4,53.8h95.925a7.306,7.306,0,0,1,7.285,7.285v67.255a7.306,7.306,0,0,1-7.285,7.285" transform="translate(0.047 22.372)" fill="#fff"/>
      <path id="Trazado_605921" data-name="Trazado 605921" d="M127.557,77.337s-10.374.252-17.4,6.248a72.694,72.694,0,0,0-17.783,23.074c-4.206,8.785-7.915,15.553-7.456,23.367s5.038,13.05,12.53,15.1a91.134,91.134,0,0,0,13.891,2.656l-.163,11.825h52.576l-.474-23.649a5.55,5.55,0,0,0,3.9-1.625c1.76-1.744.953-7.057.953-7.057s6.65,4.682,12.336,4.205,9.478-4.64,10.262-7.546a54.247,54.247,0,0,0,1.6-14.6c-.05-7.028-.738-22.222-.738-22.222s-1.178-2.456-9.158-2.837-9.917,2.186-9.917,2.186L172.33,91.6s-2.391-5.455-6.15-7.922-10.409-6.124-17.321-6.177l-21.3-.167" transform="translate(35.299 32.16)" fill="#1a1a1a"/>
      <path id="Trazado_605922" data-name="Trazado 605922" d="M143.1,130.424h13.3a5.676,5.676,0,0,0,3.9-1.46c1.569-1.57.951-5.261.951-5.261l.1-29.256a4.176,4.176,0,0,0-1.237-2.987,4.726,4.726,0,0,0-2.917-1.2H106.231s-2.952-.11-4.045,1.457a5.044,5.044,0,0,0-.691,3.534l-.072,26.06s13.625,2.867,20.366,2.941c0,0,1.24-.364,1.73.438s0,.2,0,.2,2.131-.82,2.35-2.567.035-6.514,2.3-6.572,2.723,3.112,2.71,5.625a21.239,21.239,0,0,1-1.179,5.755s-.357,1.373,1.661,1.926,7.739,1.822,11.746,1.371" transform="translate(42.176 37.532)" fill="#33ece0"/>
      <path id="Trazado_605923" data-name="Trazado 605923" d="M182.738,97.246a35.511,35.511,0,0,0-13.928,14.66c-5.213,10.244-8.157,19.2-8.662,26.363a29.7,29.7,0,0,0,2.447,14.123h50.5l15.866-4.812-6.677-33.663s-3.453-8.964-8.424-13.462A22.818,22.818,0,0,0,201.69,94.7c-1.3-.02-18.953,2.549-18.953,2.549" transform="translate(66.567 39.379)" fill="#a3bfe4"/>
      <path id="Trazado_605924" data-name="Trazado 605924" d="M206.792,149.467h47.438a7.6,7.6,0,0,0,6.882-5.164l11.25-32.491a6.993,6.993,0,0,0-6.882-9.122H218.043a7.229,7.229,0,0,0-6.884,4.757l-11.252,32.491a7.313,7.313,0,0,0,6.884,9.529" transform="translate(82.975 42.703)" fill="#1a1a1a"/>
      <path id="Trazado_605925" data-name="Trazado 605925" d="M61.388,67.69l-.276,1.127s.058-.2-.711-.283a1.216,1.216,0,0,0-1.247.908c-.089.317-1.4,5.084-1.4,5.084s.173.956.7.953a3.58,3.58,0,0,0,1.263-.384L58.908,77.7s-1.733-.643-2.717,0c0,0-3.339-1.352-4.757.343,0,0-2.312-1.92-3.272-2.532a2.128,2.128,0,0,0-2.976.251c-.663,1-.416,1.461.731,2.281s4.2,3.4,4.96,4.167a26.742,26.742,0,0,1,2.938,3.293c.027.3-.46.123-.954-.336s-3.309-3.271-4.265-3.353a1.6,1.6,0,0,0-1.634,2.154c.377,1.4,2.236,2.212,3.752,4.14s6.125,3.115,6.242,3.115,3.639-2.778,6.356-2.5a7.738,7.738,0,0,1-.513-5.131,9.375,9.375,0,0,1,3.448-4.725s2.675.67,3.824-1.5A3.272,3.272,0,0,0,68.9,73.019a4.14,4.14,0,0,0-1.967-.6s-4.8-1.8-5.542-4.726" transform="translate(18.639 28.149)" fill="#fff"/>
      <path id="Trazado_605926" data-name="Trazado 605926" d="M40.434,98.6a6.753,6.753,0,0,1-1.906-3.608c-.477-2.384-.721-6.142-1.426-6.6S34.687,87.1,34.3,89.05s.709,3.381.544,4.62-.429,1.822-1.228,1.872-1.642-.528-2.741-1.672a38.361,38.361,0,0,1-3.576-4.82c-.93-1.44-2.1-2.558-3.171-1.931a2.442,2.442,0,0,0-.987,2.107,1.558,1.558,0,0,0-1.75.127,1.31,1.31,0,0,0-.432,1.727,2.181,2.181,0,0,0-1.526,2.347c-.031,2.053,3.691,6.691,4.7,7.885s4.131,4.643,5.656,5.047a23.987,23.987,0,0,1,4.859-4.157c2.677-1.641,5.789-3.608,5.789-3.608" transform="translate(8.079 36.154)" fill="#fff"/>
      <path id="Trazado_605927" data-name="Trazado 605927" d="M115.927,118.492s2.82-1.216,3.622-2.448.95-1.573.949-3.576.4-3.96,2.039-4.2,2.755,1.625,2.694,4.238a29.163,29.163,0,0,1-.854,6.424,1.662,1.662,0,0,0,.855,2.425,14.2,14.2,0,0,0,7.287,1.567,31.924,31.924,0,0,1,4.954.023,4.025,4.025,0,0,1-1.038,1.267s-.7,3.132-3.016,3.947a20.335,20.335,0,0,1-7.313,1.423c-3.279.076-5.973-.282-7.1-.294s-3.357-.252-3.785-1.8a23.32,23.32,0,0,1-.229-4.8,12.324,12.324,0,0,1,.933-4.2" transform="translate(47.804 45.014)" fill="#fff"/>
      <path id="Trazado_605928" data-name="Trazado 605928" d="M163.7,92.633s.3-5.254.146-7.041-.53-1.971-.146-4.518a37.643,37.643,0,0,0,.728-8.2c-.2-2.762-.634-4.593-1.836-4.412a5.749,5.749,0,0,0-2.158.85,1.642,1.642,0,0,0-1.717-1.743,2.115,2.115,0,0,0-2.231,1.3,2.577,2.577,0,0,0-2.233-1.23c-1.421.13-2.148,1.274-2.22,2.833s-.29,9.645-.29,9.645-.854-.157-1.933-1.593S146.653,75.171,145,76.73s-1.089,3,.648,4.669,4.279,3.715,4.838,6.2a32,32,0,0,1,.639,5.294s8.247,1.549,12.571-.258" transform="translate(59.886 28.099)" fill="#fff"/>
      <path id="Trazado_605929" data-name="Trazado 605929" d="M129.054,106.907a4.226,4.226,0,1,1-4.226-4.228,4.227,4.227,0,0,1,4.226,4.228" transform="translate(50.151 42.699)" fill="#fff"/>
      <path id="Trazado_605930" data-name="Trazado 605930" d="M191.705,102.177l.256-4.854s3.214-.071,3.848-2.148a18.48,18.48,0,0,0,.946-6.972c-.092-3.317-.2-6.34-.2-6.34l-4.852-5.158s-4.48,5.992-5.819,7.511-2.526,2.568-2.407,4.753,2.387,5.035,3.166,5.8a7.593,7.593,0,0,1,1.07,6.189,15.21,15.21,0,0,1-1.873,3.77s2.346,4.28,4.277,3.973,1.586-6.521,1.586-6.521" transform="translate(76.295 31.898)" fill="#fff"/>
      <path id="Trazado_605931" data-name="Trazado 605931" d="M183.092,130.1a29.586,29.586,0,0,1,4.644-2.315c2.088-.736,3.418-1.281,5.12-1.034,0,0,3.02-2.081,5.84-.588a5.1,5.1,0,0,1,2.571-.983c1.465-.1,2.8,3.082,2.8,3.082l-.867,4.095s.545,3.68,1.233,4.134l-10.671.382-1.61-2.66a3.117,3.117,0,0,1-2.843,2.278,32.388,32.388,0,0,1-4.174,0s-2.8-2.99-2.044-6.391" transform="translate(76.084 52.054)" fill="#fff"/>
      <path id="Trazado_605932" data-name="Trazado 605932" d="M139.753,67.6c-.031-3.33-3.66-2.658-4.368-2.479a9.19,9.19,0,0,0-.3-3.247,23.824,23.824,0,0,1-1.335-3.779,68.407,68.407,0,0,1-7.2,1.051c-4.038.375-7.391-2.7-7.391-2.7a15.468,15.468,0,0,1-1.729,5.665l-.277,2.907c-2.864-.68-4.293.98-4.174,2.58a3.338,3.338,0,0,0,2.009,3.026,4.717,4.717,0,0,0,2.427-.222,14.565,14.565,0,0,1,.32,3.4c.093,2.772,2.578,4.907,2.578,4.907l-.253,3.717-4.181,3.6L119.49,104.3h13.989l3.7-18.106-4.6-3.77-.419-3.443c2.782-2.226,3.13-5.8,3.167-8.622,1.71.939,4.453.436,4.423-2.757" transform="translate(46.979 23.473)" fill="#fff"/>
      <path id="Trazado_605933" data-name="Trazado 605933" d="M61.529,81.584s-3.646,2.554-3.654,6.032,1.6,5.716,3.272,6.176,4.835.663,5.9,3.584,1.312,6.731,1.825,8.172a6.639,6.639,0,0,0,5.645,4.971c4.171.709,7.133-1.409,9.135-4.749s2.4-6.408,1.642-10.515A22.481,22.481,0,0,0,81.783,85.9c-1.972-3.087-4.311-4.679-5.13-5.612s-1.321-.915-.9-2.377,2.618-3.868,2.423-7.01-.5-4.563-7.333-6.449a9.487,9.487,0,0,0-5.556-3c-3.9-.794-7.416.089-8.539,2.707a8.339,8.339,0,0,0,.79,7.623c1.287,1.8,4.674,3.36,4.674,3.36s3.489-.016,3.562,2.985a3.417,3.417,0,0,1-4.245,3.467" transform="translate(23.356 25.434)" fill="#a3bfe4"/>
      <path id="Trazado_605934" data-name="Trazado 605934" d="M196.137,77.65l5.05,5.181a28.827,28.827,0,0,0-.1-4.332,4.346,4.346,0,0,0-3.619-3.865,39.009,39.009,0,0,0-9.166-.511c-3.93.3-9.168,2.4-9.418,7.582,0,0,1.118,5.193,1.542,7.893s1.482,6.928.28,8.283-3.891,1.86-5.195,2.305-5.049,5.145-1.55,7.9l3.61-2.251s5.652,2.716,9.04,1.869,5.274-3.552,5.52-4.863.409-4.674-.738-6.722-3.2-3.225-3.307-5.6.3-3.232,1.366-4.321a55.7,55.7,0,0,0,3.8-4.4c1.072-1.4,2.887-4.148,2.887-4.148" transform="translate(71.735 30.786)" fill="#1a1a1a"/>
      <path id="Trazado_605935" data-name="Trazado 605935" d="M189.543,91.432l-.256,4.854,3.248.607a4.305,4.305,0,0,0,.864-2.922,4.93,4.93,0,0,0-1.168-3.1,15.792,15.792,0,0,1-2.687.556" transform="translate(78.714 37.79)" fill="#1a1a1a"/>
      <path id="Trazado_605936" data-name="Trazado 605936" d="M226.37,118.912c-1.446,2.5-1.28,5.3.367,6.254s4.153-.307,5.6-2.81,1.28-5.3-.367-6.254-4.154.307-5.6,2.81" transform="translate(93.725 48.148)" fill="#fff"/>
      <path id="Trazado_605937" data-name="Trazado 605937" d="M214.623,150.08h-37.6s-1.676-.694-1.239-1.933a2.456,2.456,0,0,1,1.42-1.546l30.385.089a6.14,6.14,0,0,1-1.375-4.372,11.9,11.9,0,0,1,1.233-4.773l10.97-32.656a6.579,6.579,0,0,1,6.15-3.674h48.858l4.044,2.3-49.877-.181s-5.355.728-6.412,4.481l-11.625,33.721a6.245,6.245,0,0,0,.767,4.534,13.647,13.647,0,0,0,4.3,4.01" transform="translate(73.069 42.09)" fill="#fff"/>
      <path id="Trazado_605938" data-name="Trazado 605938" d="M183.059,130.96s6.594-3.916,9.972-3.348a5.217,5.217,0,0,1,4.88-.9l-.387-.67a10.746,10.746,0,0,0-6.853-2.939,7.567,7.567,0,0,0-7.613,7.861" transform="translate(76.117 51.19)" fill="#1a1a1a"/>
      <path id="Trazado_605939" data-name="Trazado 605939" d="M187.878,133.744s2.039-.838,2.23-2.186l1.324,2.186Z" transform="translate(78.128 54.708)" fill="#1a1a1a"/>
      <rect id="Rectángulo_345992" data-name="Rectángulo 345992" width="13.984" height="43.435" transform="translate(221.379 41.91)" fill="#1a1a1a"/>
      <rect id="Rectángulo_345993" data-name="Rectángulo 345993" width="13.984" height="27.028" transform="translate(250.845 53.168)" fill="#fff"/>
      <rect id="Rectángulo_345994" data-name="Rectángulo 345994" width="13.984" height="17.212" transform="translate(273.844 68.537)" fill="#1a1a1a"/>
      <path id="Trazado_605940" data-name="Trazado 605940" d="M123.432,80.783l-3.254,7.293,1.3,2.779-.8,3.322h6.257l-1.12-3.313L127,88.294Z" transform="translate(49.976 33.593)" fill="#fff198"/>
      <path id="Trazado_605941" data-name="Trazado 605941" d="M121.909,82.584l2.217,5.164-.691,3.115.691,3.313h2.088l-1.12-3.313,1.182-2.568-3.564-7.511Z" transform="translate(50.695 33.593)" fill="#fff"/>
      <path id="Trazado_605942" data-name="Trazado 605942" d="M114.7,61.179c-.891,6.4-6,11.12-13.47,12.479-.808.147-1.607.338-2.591.548v7H92.249V74.172C83.056,73.155,77.831,68.361,75.9,60.107L85.909,57.69c.263.678.524,1.293.742,1.918,1.724,5.008,7.347,7.446,12.619,5.45a5.466,5.466,0,0,0,3.735-5.023,4.451,4.451,0,0,0-2.912-4.685c-2.721-1.148-5.532-2.118-8.307-3.159-1.465-.549-2.969-1.022-4.4-1.637-7.2-3.085-10.374-8.249-9.472-15.338.879-6.905,5.253-11.17,13-12.685.314-.061.619-.164,1.121-.3v-5.38h6.31l.146,5.307a27.284,27.284,0,0,1,5.023,1.423c5.158,1.805,8.052,5.386,9.7,10.35l-8.865,3.38a47.893,47.893,0,0,0-3.221-4.682,7.115,7.115,0,0,0-7.47-2.052A5.087,5.087,0,0,0,89.589,34.8a4.316,4.316,0,0,0,2.692,5.165c2.329,1.019,4.736,1.883,7.112,2.808,1.994.776,4.035,1.461,5.983,2.323,7.46,3.3,10.392,8.406,9.322,16.084" transform="translate(31.561 7.008)" fill="#ffce26"/>
      <path id="Trazado_605943" data-name="Trazado 605943" d="M71.087,82.547s-6.97-.037-11.491,9.618-9.255,20.7-9.255,20.7L38.826,100s-8.628,3.762-12.7,9.214c0,0,6.707,15.131,14.287,21.038s10.271,6.526,16.03,5.087l-3.86,22.135H96.593s-2.6-18.276-2.779-21.837-.238-7.823-.238-7.823,3.558,1.593,7.076-1.88,3.583-4.967,3.147-7.95a64.648,64.648,0,0,0-3.792-13.3c-2.323-6.125-3.861-7.811-3.861-7.811s-2.287,5.512-8.025,4.8-6.5-3.717-7.051-6.176-.375-5.081-1.8-7.623-3.53-2.631-5.018-2.833-3.152-1.356-3.167-2.5" transform="translate(10.864 34.327)" fill="#1a1a1a"/>
      <path id="Trazado_605944" data-name="Trazado 605944" d="M38.218,119.4a10.675,10.675,0,0,1,18.589-.421,11.2,11.2,0,0,1-9.674,4.039,13.91,13.91,0,0,1-8.914-3.619" transform="translate(15.893 47.306)" fill="#33ece0"/>
      <rect id="Rectángulo_345995" data-name="Rectángulo 345995" width="6.63" height="6.63" transform="translate(9.907 130.166)" fill="#33ece0"/>
      <rect id="Rectángulo_345996" data-name="Rectángulo 345996" width="6.63" height="6.63" transform="translate(5.898 146.878)" fill="#1a1a1a"/>
      <path id="Trazado_605945" data-name="Trazado 605945" d="M115.369,66.931s-2.207-12.134,2.769-12.564a7.6,7.6,0,0,1,7.423-3.142c5.275.524,8.4,2.195,9.969,6.88a15.622,15.622,0,0,1,.239,8.873l-1.29.183V64.393l-1.274-4.226a17.366,17.366,0,0,1-8.019,1.148,18.8,18.8,0,0,1-6.823-2.676s-.808,4.7-1.727,5.665l-.278,2.907Z" transform="translate(47.773 21.28)" fill="#fff198"/>
      <path id="Trazado_605946" data-name="Trazado 605946" d="M189.723,77.818c-.437,2.033-2.662,5.721-4.127,8,1.053-1.114,2.478-2.765,3.435-4.02,1.072-1.4,2.887-4.148,2.887-4.148l5.05,5.181a28.826,28.826,0,0,0-.1-4.332,4.343,4.343,0,0,0-3.619-3.864,38.914,38.914,0,0,0-9.166-.513c-.46.035-.942.1-1.429.185.152.008,7.729.46,7.071,3.511" transform="translate(75.955 30.786)" fill="#fff"/>
      <path id="Trazado_605947" data-name="Trazado 605947" d="M183.414,102.031c3.388-.848,5.273-3.552,5.519-4.863s.411-4.674-.738-6.722a22.206,22.206,0,0,0-2.111-2.767c.929,1.992,2.132,5.492,1.049,8.7-1.63,4.818-6.945,5.574-6.945,5.574l.592.173a7.5,7.5,0,0,0,2.633-.091" transform="translate(74.931 36.461)" fill="#fff"/>
      <path id="Trazado_605948" data-name="Trazado 605948" d="M190.367,91.233c-.037.045,1.492,2.786.344,5.4l1.375.256a4.3,4.3,0,0,0,.862-2.921,4.925,4.925,0,0,0-1.168-3.1s-.718.194-1.413.357" transform="translate(79.163 37.79)" fill="#fff"/>
      <path id="Trazado_605949" data-name="Trazado 605949" d="M132.821,64.165v2.769l1.288-.183a15.635,15.635,0,0,0-.238-8.875,8.757,8.757,0,0,0-6.136-6.156c.908.8,4.1,3.823,2.682,5.959-1.634,2.469-11.48,1.928-11.545,1.924a17.647,17.647,0,0,0,4.654,1.484,17.366,17.366,0,0,0,8.021-1.15Z" transform="translate(49.432 21.508)" fill="#fff"/>
      <path id="Trazado_605950" data-name="Trazado 605950" d="M65.288,61.442c-3.9-.793-7.419.088-8.54,2.709a8.34,8.34,0,0,0,.79,7.621,9.157,9.157,0,0,0,2.414,2.1c-.776-1.458-5.192-10.685,6.676-12.079a12.253,12.253,0,0,0-1.339-.353" transform="translate(23.356 25.434)" fill="#fff"/>
      <path id="Trazado_605951" data-name="Trazado 605951" d="M61.811,88.051c-4.954-5.1.617-12.394.617-12.394a4.337,4.337,0,0,1-1.4-.071s-3.646,2.556-3.654,6.03,1.6,5.717,3.272,6.177c.341.095.746.178,1.181.276l-.016-.018" transform="translate(23.859 31.432)" fill="#fff"/>
      <path id="Trazado_605952" data-name="Trazado 605952" d="M189.116,70.748H175.13c-.289-.289-.289-27.319-.289-27.319.289-.287,14.275-.287,14.275-.287.29.287.29,27.317.29,27.317a.291.291,0,0,1-.29.289m-13.7-.578h13.408V43.717H175.419Z" transform="translate(72.707 17.94)" fill="#1a1a1a"/>
      <path id="Trazado_605953" data-name="Trazado 605953" d="M172.591,75.567H158.605c-.29-.289-.29-43.724-.29-43.724.29-.289,14.276-.289,14.276-.289.289.289.289,43.724.289,43.724a.29.29,0,0,1-.289.289m-13.7-.578H172.3V32.13H158.894Z" transform="translate(65.834 13.122)" fill="#1a1a1a"/>
      <path id="Trazado_605954" data-name="Trazado 605954" d="M120.082,68.654c-1.968,0-3.569-2.015-3.569-4.492s1.6-4.494,3.569-4.494,3.571,2.016,3.571,4.494-1.6,4.492-3.571,4.492m0-8.41c-1.651,0-2.995,1.758-2.995,3.918s1.344,3.916,2.995,3.916,2.993-1.757,2.993-3.916-1.342-3.918-2.993-3.918" transform="translate(48.451 24.813)" fill="#1a1a1a"/>
      <path id="Trazado_605955" data-name="Trazado 605955" d="M157.268,130.781H140.021c0-.576,17.248-.576,17.248-.576a3.842,3.842,0,0,0,3.837-3.837V94.452a3.842,3.842,0,0,0-3.837-3.837H105.621a3.843,3.843,0,0,0-3.837,3.837v27.01c-.576,0-.576-27.01-.576-27.01a4.417,4.417,0,0,1,4.413-4.412h51.647a4.417,4.417,0,0,1,4.415,4.412v31.916a4.419,4.419,0,0,1-4.415,4.413" transform="translate(42.087 37.443)" fill="#1a1a1a"/>
      <path id="Trazado_605956" data-name="Trazado 605956" d="M123.942,110.452a4.514,4.514,0,1,1,4.514-4.514,4.519,4.519,0,0,1-4.514,4.514m0-8.451a3.937,3.937,0,1,0,3.939,3.937A3.943,3.943,0,0,0,123.942,102" transform="translate(49.664 42.177)" fill="#1a1a1a"/>
      <path id="Trazado_605957" data-name="Trazado 605957" d="M153.522,92.22C151.534,88.534,150,86.226,148.58,85c-6.293-5.411-12.164-6.326-17.341-7.132-.452-.072-.9-.14-1.342-.212a1.449,1.449,0,0,1,1.431-.358c5.254.818,11.208,1.747,17.624,7.265,1.485,1.277,3.065,3.644,4.827,7.241-.173.4-.215.415-.258.415" transform="translate(54.017 32.124)" fill="#1a1a1a"/>
      <path id="Trazado_605958" data-name="Trazado 605958" d="M117.614,148.137c-16.56,0-26.649-3.416-30.8-10.409-4.359-7.345-2.042-18.315,7.3-34.525a83.547,83.547,0,0,1,14.518-18.59c6.419-5.52,12.376-6.448,17.632-7.266.45-.071.9-.139,1.338-.211a1.434,1.434,0,0,1-1.25.782c-5.178.807-11.048,1.72-17.341,7.132a82.821,82.821,0,0,0-14.395,18.44c-9.224,16.01-11.543,26.8-7.3,33.943,4.228,7.117,15.461,10.527,33.339,10.091,2.435-.055,9.762,0,9.833,0-.076.576-7.395.518-9.819.576q-1.557.038-3.047.038" transform="translate(35.217 32.076)" fill="#1a1a1a"/>
      <path id="Trazado_605959" data-name="Trazado 605959" d="M118.72,97.059c-.285-.232-3.9-18.505-3.9-18.505.091-.27,4.273-4.011,4.273-4.011.422.041,6.6,8.25,6.6,8.25l5.856-8.2c.422-.052,4.845,3.688,4.845,3.688.095.275-3.408,18.548-3.408,18.548-.563-.109,2.905-18.216,2.905-18.216l-4.055-3.431-5.9,8.269c-.464.007-6.691-8.266-6.691-8.266L115.423,78.6,119,96.715c-.246.343-.266.344-.283.344" transform="translate(47.749 30.998)" fill="#1a1a1a"/>
      <path id="Trazado_605960" data-name="Trazado 605960" d="M118.061,94.529c-.261-.409,6.04-13.9,6.04-13.9.522,0,6.775,13.492,6.775,13.492-.521.242-6.516-12.685-6.516-12.685l-6.039,12.928a.29.29,0,0,1-.261.166" transform="translate(49.092 33.529)" fill="#1a1a1a"/>
      <path id="Trazado_605961" data-name="Trazado 605961" d="M121.555,89.078a26.883,26.883,0,0,1-1.565-3.293c.534-.222,1.757,2.716,1.757,2.716l3.949-.007,1.048-2.534c.535.219-.586,2.932-.586,2.932a42.206,42.206,0,0,1-4.6.187" transform="translate(49.897 35.668)" fill="#1a1a1a"/>
      <path id="Trazado_605962" data-name="Trazado 605962" d="M120.547,91.523c-.279-.355.521-3.668.521-3.668.561.136-.241,3.449-.241,3.449a.286.286,0,0,1-.28.219" transform="translate(50.104 36.534)" fill="#1a1a1a"/>
      <path id="Trazado_605963" data-name="Trazado 605963" d="M125.237,91.483a24.4,24.4,0,0,1-1.274-3.525c.552-.166,1.55,3.155,1.55,3.155-.222.367-.249.371-.276.371" transform="translate(51.549 36.574)" fill="#1a1a1a"/>
      <path id="Trazado_605964" data-name="Trazado 605964" d="M126.952,68.654c-1.968,0-3.569-2.015-3.569-4.492s1.6-4.494,3.569-4.494,3.572,2.016,3.572,4.494-1.6,4.492-3.572,4.492m0-8.41c-1.651,0-2.993,1.758-2.993,3.918s1.342,3.916,2.993,3.916,2.994-1.757,2.994-3.916-1.342-3.918-2.994-3.918" transform="translate(51.308 24.813)" fill="#1a1a1a"/>
      <path id="Trazado_605965" data-name="Trazado 605965" d="M124.355,63.434a2.493,2.493,0,0,0-1.691-.752,1.643,1.643,0,0,0-1.06.554c-.429-.388.115-1.065,1.012-1.13a2.554,2.554,0,0,1,1.935.831c-.044.469-.12.5-.2.5" transform="translate(50.506 25.825)" fill="#1a1a1a"/>
      <path id="Trazado_605966" data-name="Trazado 605966" d="M130.212,68.718a3.285,3.285,0,0,1-1.515-.37,4.308,4.308,0,0,1,1.685-.214,2.718,2.718,0,0,0,1.631-4.749,2.72,2.72,0,0,0-2.863-.464c.119-.677.481-.762.857-.786a3.323,3.323,0,0,1,2.386.817,3.3,3.3,0,0,1-1.971,5.76c-.072,0-.14.006-.21.006" transform="translate(53.518 25.837)" fill="#1a1a1a"/>
      <path id="Trazado_605967" data-name="Trazado 605967" d="M130.882,66.836c-.177-.059-2.2-1.625-2.2-1.625,0-.462,2.246-2.121,2.246-2.121.341.466-1.591,1.9-1.591,1.9l1.723,1.334c0,.48-.089.517-.174.517" transform="translate(53.51 26.236)" fill="#1a1a1a"/>
      <path id="Trazado_605968" data-name="Trazado 605968" d="M116.064,68.718a3.294,3.294,0,1,1,.2-6.582,3.308,3.308,0,0,1,1.082.253,1.267,1.267,0,0,1-1.117.321,2.717,2.717,0,1,0,1.082,5.125,1.116,1.116,0,0,1-1.25.882" transform="translate(46.894 25.837)" fill="#1a1a1a"/>
      <path id="Trazado_605969" data-name="Trazado 605969" d="M114.741,66.724c-.177-.517,1.552-1.851,1.552-1.851l-1.935-1.43c.344-.466,2.584,1.194,2.584,1.194.006.462-2.023,2.027-2.023,2.027a.3.3,0,0,1-.177.059" transform="translate(47.555 26.348)" fill="#1a1a1a"/>
      <path id="Trazado_605970" data-name="Trazado 605970" d="M118.063,76.3c-.289-.289-.289-4.038-.289-4.038.576,0,.576,3.749.576,3.749a.288.288,0,0,1-.287.289" transform="translate(48.976 30.052)" fill="#1a1a1a"/>
      <path id="Trazado_605971" data-name="Trazado 605971" d="M126.964,75.971c-.286-.272-.487-3.651-.487-3.651.573-.033.774,3.347.774,3.347-.275.3-.282.3-.287.3" transform="translate(52.595 30.073)" fill="#1a1a1a"/>
      <path id="Trazado_605972" data-name="Trazado 605972" d="M135.811,67.34c1.215-6.308-.756-9.9-1.6-11.433-2.013-3.668-7.231-4.858-11.34-4.131a7.42,7.42,0,0,0-4.456,2.827,4.725,4.725,0,0,0-1.565.8,4.584,4.584,0,0,0-1.5,3.425c-.021,2.5.338,8.15.343,8.2-.58-.02-.94-5.692-.917-8.2a5.074,5.074,0,0,1,1.712-3.885,3.849,3.849,0,0,1,1.514-.767,7.875,7.875,0,0,1,4.766-2.979c4.317-.759,9.8.52,11.945,4.426a14.74,14.74,0,0,1,1.371,11.491.29.29,0,0,1-.28.218" transform="translate(47.732 21.207)" fill="#1a1a1a"/>
      <path id="Trazado_605973" data-name="Trazado 605973" d="M148.478,9.427a4.768,4.768,0,0,1-1.235-.164,4.713,4.713,0,0,1-3.312-5.787,4.714,4.714,0,1,1,4.546,5.951m0-8.853a4.159,4.159,0,1,0,1.093.147,4.174,4.174,0,0,0-1.093-.147" transform="translate(59.783 0)" fill="#1a1a1a"/>
      <path id="Trazado_605974" data-name="Trazado 605974" d="M187.321,26.131a22.451,22.451,0,0,1-1.446-1.889,2.914,2.914,0,0,1,1.686,1.444c-.133.429-.185.445-.241.445m-3.234-4.4c-.916-.951-1.654-1.78-2.408-2.574a5.947,5.947,0,0,1,2.633,2.1c-.095.447-.161.471-.225.471m-4.572-4.808c-1.009-.816-1.855-1.535-2.707-2.207a5.9,5.9,0,0,1,2.9,1.708c-.037.467-.116.5-.2.5m-5.207-4.107c-1.062-.663-2-1.256-2.952-1.809a5.971,5.971,0,0,1,3.113,1.281c.021.484-.068.528-.161.528M168.58,9.475c-1.109-.513-2.121-.974-3.133-1.395a6.006,6.006,0,0,1,3.261.85c.081.487-.021.545-.127.545m-6.122-2.55c-1.119-.37-2.18-.7-3.247-1a6.123,6.123,0,0,1,3.34.436c.137.487.024.562-.093.562m-6.388-1.792c-1.117-.238-2.209-.449-3.307-.631a6.2,6.2,0,0,1,3.368.061c.19.48.071.571-.061.571" transform="translate(63.525 1.784)" fill="#1a1a1a"/>
      <path id="Trazado_605975" data-name="Trazado 605975" d="M107.7,23.489a8.463,8.463,0,0,1,1.866-3.06,7.76,7.76,0,0,1-1.637,2.946.286.286,0,0,1-.229.113m4.335-5.022a7.924,7.924,0,0,1,2.217-2.789,7.766,7.766,0,0,1-2.012,2.7.29.29,0,0,1-.205.086m4.97-4.4a7.43,7.43,0,0,1,2.539-2.462,7.756,7.756,0,0,1-2.363,2.4.3.3,0,0,1-.176.059m5.523-3.671a7,7,0,0,1,2.816-2.087,7.809,7.809,0,0,1-2.673,2.05.291.291,0,0,1-.143.037m5.979-2.87a6.632,6.632,0,0,1,3.034-1.688,7.838,7.838,0,0,1-2.928,1.668.3.3,0,0,1-.106.02m6.309-2.046A6.412,6.412,0,0,1,138,4.188a7.777,7.777,0,0,1-3.113,1.284.314.314,0,0,1-.072.008m6.514-1.249a6.321,6.321,0,0,1,3.276-.919,7.541,7.541,0,0,1-3.239.917h-.037m6.616-.51a6.178,6.178,0,0,1,3.323-.582,7.49,7.49,0,0,1-3.316.582Z" transform="translate(44.787 1.303)" fill="#1a1a1a"/>
      <path id="Trazado_605976" data-name="Trazado 605976" d="M229.567,118.2a12.8,12.8,0,0,1,1.695-3.142,5.846,5.846,0,0,1-1.468,3.031.29.29,0,0,1-.227.11m3.646-5.54a14.607,14.607,0,0,1,1.2-3.378,5.877,5.877,0,0,1-.95,3.228.29.29,0,0,1-.255.15M235.9,106.6a16.875,16.875,0,0,1,.692-3.534,5.879,5.879,0,0,1-.421,3.341.288.288,0,0,1-.272.193m1.692-6.412a19.936,19.936,0,0,1,.188-3.6,5.947,5.947,0,0,1,.1,3.368.29.29,0,0,1-.286.235m.708-6.6a5.418,5.418,0,0,1-.26-1.914q0-.841-.033-1.682a1.977,1.977,0,0,1,.612,1.681q0,.82-.03,1.64a.289.289,0,0,1-.289.276m-.229-6.628a27.983,27.983,0,0,1-.732-3.528,5.975,5.975,0,0,1,1.018,3.211c-.268.317-.278.317-.286.317m-1.11-6.541a34.142,34.142,0,0,1-1.147-3.408,6.021,6.021,0,0,1,1.426,3.053c-.235.353-.259.355-.279.355m-1.944-6.344c-.665-1.225-1.094-2.251-1.545-3.231a5.937,5.937,0,0,1,1.814,2.84c-.2.384-.236.391-.269.391m-2.767-6.036c-.783-1.121-1.348-2.078-1.933-2.987a5.9,5.9,0,0,1,2.187,2.563c-.16.416-.207.425-.255.425m-3.593-5.573c-.912-1-1.624-1.856-2.342-2.643a5.749,5.749,0,0,1,2.571,2.179c-.106.446-.168.464-.229.464m-4.483-4.89c-1.026-.824-1.89-1.514-2.754-2.129a5.451,5.451,0,0,1,2.946,1.627c-.037.47-.115.5-.193.5m-5.411-3.814a25.755,25.755,0,0,0-3.14-1.317,5.1,5.1,0,0,1,3.272.773c.072.488-.027.544-.132.544M212.495,51.7a16.239,16.239,0,0,0-3.292-.136,4.858,4.858,0,0,1,3.333-.439c.225.47.1.575-.041.575" transform="translate(86.996 21.219)" fill="#1a1a1a"/>
      <path id="Trazado_605977" data-name="Trazado 605977" d="M140.815,142.673c-.29-.463-.293-17.767-.76-23.914,1.044,6.126,1.049,23.451,1.049,23.625a.289.289,0,0,1-.289.289" transform="translate(58.241 49.385)" fill="#1a1a1a"/>
      <path id="Trazado_605978" data-name="Trazado 605978" d="M103.509,139.207c-.287-.293-.126-12.115-.126-12.115.578.007.413,11.831.413,11.831a.287.287,0,0,1-.287.285" transform="translate(42.973 52.851)" fill="#1a1a1a"/>
      <path id="Trazado_605979" data-name="Trazado 605979" d="M243.509,135.818H14.625c0-.576,228.884-.576,228.884-.576.289.447.159.576,0,.576" transform="translate(6.082 56.24)" fill="#1a1a1a"/>
      <path id="Trazado_605980" data-name="Trazado 605980" d="M122.832,136.337c-.287-.289-.287-12.91-.287-12.91.575,0,.575,12.621.575,12.621a.288.288,0,0,1-.287.289" transform="translate(50.96 51.326)" fill="#1a1a1a"/>
      <path id="Trazado_605981" data-name="Trazado 605981" d="M134.056,123.289c-.256-.024-.569-.048-.942-.078-4.328-.341-8.462-.876-9.407-2.469a1.4,1.4,0,0,1-.044-1.352c1.031-2.291,1.583-7.58.319-9.778a1.707,1.707,0,0,0-1.324-.967,1.468,1.468,0,0,0-1.213.344c-.942.857-.92,3.138-.908,4.5,0,.232.006.445,0,.63-.03,2.72-4.78,4.736-4.98,4.821-.177-.551,4.376-2.485,4.4-4.828,0-.181,0-.391,0-.617-.016-1.555-.038-3.9,1.1-4.933a2.034,2.034,0,0,1,1.659-.49,2.276,2.276,0,0,1,1.764,1.252c1.39,2.417.783,7.916-.293,10.3a.833.833,0,0,0,.016.82c.92,1.557,6.551,2,8.955,2.189.379.03.694.057.925.079.244.464.118.575-.028.575" transform="translate(48.053 44.934)" fill="#1a1a1a"/>
      <path id="Trazado_605982" data-name="Trazado 605982" d="M126.031,122.226a34.363,34.363,0,0,1-5.161-.426c11.434,1.157,13.867-3.108,13.889-3.15.429.426-1.308,3.576-8.729,3.576" transform="translate(50.263 49.34)" fill="#1a1a1a"/>
      <path id="Trazado_605983" data-name="Trazado 605983" d="M125.846,125.18c-.871,0-1.75-.031-2.663-.064-.6-.023-1.211-.044-1.855-.058a23.269,23.269,0,0,1-2.483-.194,8.846,8.846,0,0,1-2.394-.487,3.292,3.292,0,0,1-1.556-1.624c.888.46,1.269.866,1.788,1.1a6.821,6.821,0,0,0,1.862.4,24.7,24.7,0,0,0,2.8.235c.646.016,1.263.038,1.862.058,3.317.116,5.937.214,9.447-1.018,1.815-.637,3.52-2.959,3.52-4,.578,1.356-1.354,3.851-3.33,4.545a19.989,19.989,0,0,1-6.994,1.114" transform="translate(47.778 49.702)" fill="#1a1a1a"/>
      <path id="Trazado_605984" data-name="Trazado 605984" d="M154.768,128.974a9.865,9.865,0,0,1-2.513-.311,23.942,23.942,0,0,1-8.693-4.032A45.37,45.37,0,0,0,152.4,128.1c3.446.913,8.121-.43,11.1-3.2,3.595-3.334,3.753-8.935,3.9-13.878.034-1.15.065-2.233.136-3.266.467-6.768-.609-23.339-.619-23.5.586.13,1.665,16.738,1.194,23.544-.069,1.021-.1,2.1-.133,3.242-.146,5.055-.309,10.787-4.079,14.284a13.894,13.894,0,0,1-9.125,3.643" transform="translate(59.699 35.039)" fill="#1a1a1a"/>
      <path id="Trazado_605985" data-name="Trazado 605985" d="M147.39,120.117c-2.118-6.07-.718-34.821-.657-36.043.559.327-.881,29.9.932,35.668-.218.371-.246.375-.275.375" transform="translate(60.806 34.962)" fill="#1a1a1a"/>
      <path id="Trazado_605986" data-name="Trazado 605986" d="M156.406,87.44c-4.883,0-9.825-.886-9.825-2.58,0-1,1.059-1.682,3.239-2.09-1.157.8-2.662,1.262-2.662,2.09s3.518,2,9.247,2,9.247-1.168,9.247-2c0-.61-1-1.179-2.665-1.523,2.7-.034,3.244.865,3.244,1.523,0,1.693-4.943,2.58-9.826,2.58" transform="translate(60.955 34.42)" fill="#1a1a1a"/>
      <path id="Trazado_605987" data-name="Trazado 605987" d="M151.344,90.782a2.381,2.381,0,0,1-.367-1.315c-.1-2.107-.277-5.632-3.7-8.611-2.438-2.124-3.537-3.714-3.456-5.006a2.55,2.55,0,0,1,1.327-1.945c2.026-1.362,3.494.314,4.784,1.8.94,1.083,1.913,2.2,3.084,2.287a5.2,5.2,0,0,1,4.3,3.448c-.586.069-1.559-2.672-4.337-2.871-1.407-.1-2.461-1.312-3.479-2.485-1.3-1.492-2.418-2.776-4.025-1.7a2.019,2.019,0,0,0-1.077,1.505c-.067,1.082,1,2.566,3.264,4.531a11.707,11.707,0,0,1,3.9,9.02c.02.4.038.752.074,1.014-.258.328-.27.33-.283.33" transform="translate(59.804 30.523)" fill="#1a1a1a"/>
      <path id="Trazado_605988" data-name="Trazado 605988" d="M149.561,80.468a21.28,21.28,0,0,1-.211-5.918c.065-1.011.14-2.158.181-3.491A4.657,4.657,0,0,1,150.2,68.5a2.731,2.731,0,0,1,2.554-1.062,2.032,2.032,0,0,1,1.649,1.212,2.886,2.886,0,0,1,.135.9,75.657,75.657,0,0,1-.3,10.559c-.132-3.745-.2-8.206-.277-10.54a2.465,2.465,0,0,0-.095-.721,1.459,1.459,0,0,0-1.191-.838,2.164,2.164,0,0,0-2.013.841,4.093,4.093,0,0,0-.547,2.226c-.045,1.341-.119,2.493-.185,3.51a37.091,37.091,0,0,0-.079,5.571c-.273.309-.279.309-.286.309" transform="translate(62.061 28.034)" fill="#1a1a1a"/>
      <path id="Trazado_605989" data-name="Trazado 605989" d="M156.446,80.322c.116-3.637.205-7.2-.017-10.9a1.84,1.84,0,0,0-.2-.893,1.626,1.626,0,0,0-1.235-.579,2.071,2.071,0,0,0-2.05,1.307,1.8,1.8,0,0,1,2.069-1.884,2.211,2.211,0,0,1,1.7.84,2.308,2.308,0,0,1,.3,1.174,59.371,59.371,0,0,1-.272,10.688.287.287,0,0,1-.286.253" transform="translate(63.599 28.014)" fill="#1a1a1a"/>
      <path id="Trazado_605990" data-name="Trazado 605990" d="M158.75,92.9a57.638,57.638,0,0,0-.215-8.586,13.339,13.339,0,0,1-.086-2.59c.368-2.8,1.039-7.9.634-11.266a2.558,2.558,0,0,0-.5-1.455,1.538,1.538,0,0,0-1.293-.415,1.9,1.9,0,0,0-1.434.68c.05-1.017.749-1.181,1.368-1.253a2.094,2.094,0,0,1,1.781.6,3.028,3.028,0,0,1,.653,1.778c.413,3.435-.263,8.589-.626,11.358a12.448,12.448,0,0,0,.078,2.515,35.423,35.423,0,0,1-.071,8.386.29.29,0,0,1-.287.252" transform="translate(64.811 28.276)" fill="#1a1a1a"/>
      <path id="Trazado_605991" data-name="Trazado 605991" d="M117.931,132.713c-1.729,0-2.893-4.692-3.111-9.153-.222-4.5.49-9.33,2.246-9.418a3.767,3.767,0,0,1,1.028.355,1.021,1.021,0,0,1-1.012.221c-.875.044-1.951,3.418-1.685,8.814s1.668,8.661,2.554,8.6c.232-.01,1.4-.317,1.615-5.26.37,4.752-.715,5.794-1.589,5.836h-.047" transform="translate(47.731 47.465)" fill="#1a1a1a"/>
      <path id="Trazado_605992" data-name="Trazado 605992" d="M125.315,116.308c-1.031-.1-2.032-.2-3.03-.29-4.052-.385-8.243-.783-12.348-1.552a119.982,119.982,0,0,1-15.682-4.15c6.016,1.372,10.976,2.684,15.788,3.583,4.079.765,8.257,1.16,12.3,1.543q1.5.14,3,.29c.242.464.118.575-.028.575" transform="translate(39.196 45.874)" fill="#1a1a1a"/>
      <path id="Trazado_605993" data-name="Trazado 605993" d="M52.689,131.211c-10.3,0-20.96-13.642-26.752-26.928a20.5,20.5,0,0,1,5.709-5.518,37.861,37.861,0,0,1,7.157-4.08c.438.2,13.684,13.514,17.766,21.688-4.337-7.394-16.33-19.655-17.736-21.078a41.318,41.318,0,0,0-6.863,3.946,26.839,26.839,0,0,0-5.434,4.971c6.015,13.708,17.184,27.735,27.622,26.323C65.232,129.019,69.922,114.678,74.9,96.09c-4.478,18.948-9.24,33.452-20.667,35.017a11.3,11.3,0,0,1-1.546.1" transform="translate(10.786 39.374)" fill="#1a1a1a"/>
      <path id="Trazado_605994" data-name="Trazado 605994" d="M43.228,113.237a90.855,90.855,0,0,1,3.247-8.552C51.552,92.6,55.563,83.06,63.653,82.345,55.961,83.6,52.009,93.006,47.005,104.909c-1.111,2.646-2.263,5.384-3.514,8.158a.287.287,0,0,1-.263.17" transform="translate(17.976 34.243)" fill="#1a1a1a"/>
      <path id="Trazado_605995" data-name="Trazado 605995" d="M61.573,77.827a3.423,3.423,0,0,1-2.823-1.487,8.773,8.773,0,0,1,1.821.726,2.854,2.854,0,1,0-.728-4.937,2.209,2.209,0,0,1,2.946-.944,3.431,3.431,0,0,1-1.216,6.642" transform="translate(24.431 29.516)" fill="#1a1a1a"/>
      <path id="Trazado_605996" data-name="Trazado 605996" d="M61.43,75.735a24.611,24.611,0,0,1-1.76-2.214c.153-.446,2.754-1.2,2.754-1.2.161.556-2.044,1.194-2.044,1.194l1.284,1.763c-.115.44-.174.457-.234.457" transform="translate(24.813 30.074)" fill="#1a1a1a"/>
      <path id="Trazado_605997" data-name="Trazado 605997" d="M58.616,83.9a4.433,4.433,0,0,1-3.6-1.868c-1.267-2.013-.241-4.838-.2-4.958l2.311-9.435c.558.137-1.76,9.607-1.76,9.607-.018.058-.981,2.711.135,4.483a3.884,3.884,0,0,0,3.135,1.6c.248.464.12.576-.025.576" transform="translate(22.617 28.129)" fill="#1a1a1a"/>
      <path id="Trazado_605998" data-name="Trazado 605998" d="M55,75.652c-1-.232-1.385-.92-1.2-1.581l1.433-5.106a1.246,1.246,0,0,1,1.533-.861,1.082,1.082,0,0,1,.688.484,1.07,1.07,0,0,1,.055.84c-.457-.51-.547-.668-.9-.769-.821.463-2.254,5.567-2.254,5.567.813.92,1.185.718,1.286.361.4.705-.1,1.065-.643,1.065" transform="translate(22.353 28.301)" fill="#1a1a1a"/>
      <path id="Trazado_605999" data-name="Trazado 605999" d="M44.811,142.182c.265-1.989,3.241-19.137,3.572-22.158.218,3.282-2.74,20.29-3.3,21.961a.288.288,0,0,1-.273.2" transform="translate(18.634 49.911)" fill="#1a1a1a"/>
      <path id="Trazado_606000" data-name="Trazado 606000" d="M75.654,124.3a4.4,4.4,0,0,1-1.986-.411c.421-.43,3.97,1.349,8.741-4.037,4.42-4.989-2.837-20.718-6.163-27.249,4.712,7.983,11.083,22.566,6.594,27.632-2.962,3.344-5.526,4.065-7.185,4.065" transform="translate(30.634 38.508)" fill="#1a1a1a"/>
      <path id="Trazado_606001" data-name="Trazado 606001" d="M76.863,152.976c-.323-.452-4.2-21.895-3.094-32.709a167.613,167.613,0,0,0,.994-26.2c1,6.637.658,15.73-.419,26.26-1.1,10.732,2.764,32.094,2.8,32.31-.249.338-.266.34-.283.34" transform="translate(30.594 39.117)" fill="#1a1a1a"/>
      <path id="Trazado_606002" data-name="Trazado 606002" d="M57.15,89.478c-.15-.04-.559-.214-2.246-.656a9.189,9.189,0,0,1-5.224-3.578l-.394-.462a13,13,0,0,0-1.018-1.015c-.875-.811-1.7-1.581-1.692-2.493A1.868,1.868,0,0,1,47.31,79.9a1.617,1.617,0,0,1,1.222-.422c1.342.075,2.788,1.552,3.347,2.183a13.038,13.038,0,0,0,1.318,1.32,31.941,31.941,0,0,0-2.187-2.335l-.614-.619a32.8,32.8,0,0,0-3.1-2.5,20.515,20.515,0,0,1-2.355-1.9,1.72,1.72,0,0,1,.045-2,1.9,1.9,0,0,1,2.05-.988c1.42.343,3.2,1.893,4.16,2.727.62.071,1.034-.317,1.79-.447a4.061,4.061,0,0,1,3.006.392,2.307,2.307,0,0,1,1.6-.328,8.057,8.057,0,0,1,1.389.418,1.767,1.767,0,0,1-1.491.15,1.877,1.877,0,0,0-1.327.34,5.107,5.107,0,0,0-3.078-.4,1.968,1.968,0,0,0-1.1.578c-.15.142-.379.355-.634.181-.089-.058-.278-.221-.537-.446-.855-.743-2.631-2.292-3.915-2.6a1.354,1.354,0,0,0-1.42.728,1.207,1.207,0,0,0-.108,1.318,21.58,21.58,0,0,0,2.267,1.817A32.651,32.651,0,0,1,50.8,79.618l.616.619c1.6,1.6,2.571,2.615,2.638,3.152-.354.524-.787.716-2.611-1.349A5.254,5.254,0,0,0,48.5,80.05a1,1,0,0,0-.8.276,1.345,1.345,0,0,0-.545.954c0,.657.731,1.341,1.511,2.066A14.146,14.146,0,0,1,49.724,84.4l.4.467a8.615,8.615,0,0,0,4.93,3.394,16.913,16.913,0,0,1,2.22.663c.091.488-.014.549-.122.549" transform="translate(18.564 30.187)" fill="#1a1a1a"/>
      <path id="Trazado_606003" data-name="Trazado 606003" d="M53.327,78.817a28.082,28.082,0,0,0-3.959-3.639c.469-.37,3.249,1.763,4.2,3.19-.13.433-.187.449-.241.449" transform="translate(20.529 31.245)" fill="#1a1a1a"/>
      <path id="Trazado_606004" data-name="Trazado 606004" d="M55.4,77.341a32.332,32.332,0,0,0-2.871-2.389c.406-.416,2.006.75,3.082,1.9-.071.459-.142.484-.211.484" transform="translate(21.843 31.133)" fill="#1a1a1a"/>
      <path id="Trazado_606005" data-name="Trazado 606005" d="M76.194,111.036a9.356,9.356,0,0,1-2.784-.418,6.517,6.517,0,0,1-4.236-3.552,19.423,19.423,0,0,1-1.116-4.7c-.052-.35-.1-.7-.161-1.051-.419-2.575-1.093-5.1-3.159-6.1a9.221,9.221,0,0,0-1.993-.62,6.153,6.153,0,0,1-3.163-1.424,6.759,6.759,0,0,1-1.879-5.2,7.61,7.61,0,0,1,4-6.517c.1.592-3.3,2.24-3.425,6.534a6.287,6.287,0,0,0,1.7,4.771,5.6,5.6,0,0,0,2.891,1.279,9.661,9.661,0,0,1,2.117.663c2.3,1.116,3.031,3.794,3.476,6.526.057.35.11.7.164,1.056a18.813,18.813,0,0,0,1.076,4.559,5.955,5.955,0,0,0,3.875,3.227,8.277,8.277,0,0,0,6.62-.667,10.093,10.093,0,0,0,3.041-3.228c2.364-3.782,2.776-7.522,1.417-12.907a20.684,20.684,0,0,0-6.727-11.323c-.593-.578-1.2-1.177-1.818-1.828a2.129,2.129,0,0,1-.687-1.3,4.1,4.1,0,0,1,.663-1.967,25.419,25.419,0,0,0,1.216-2.513,9.1,9.1,0,0,0,.572-4.879c-.61-3.384-6.831-4.774-6.894-4.787-3.094-2.7-8.3-4.249-11.878-2.281-3.438,1.893-2.53,6-2.52,6.044.006.244.02,4.318,6.359,6.722C56,73.144,56.015,68.687,56.019,68.5c-.008,0-.993-4.514,2.812-6.608,3.773-2.083,9.226-.5,12.352,2.237.769.178,6.618,1.645,7.263,5.232a9.638,9.638,0,0,1-.6,5.189,17.709,17.709,0,0,1-.841,1.8,6.077,6.077,0,0,0-1,2.439,1.649,1.649,0,0,0,.531.934c.6.641,1.211,1.236,1.8,1.811a21.151,21.151,0,0,1,6.882,11.592c1.4,5.556.973,9.425-1.487,13.356a10.649,10.649,0,0,1-3.221,3.409,8.146,8.146,0,0,1-4.317,1.147" transform="translate(23.245 25.34)" fill="#1a1a1a"/>
      <path id="Trazado_606006" data-name="Trazado 606006" d="M38.363,119.771c1.213-3.987,4.828-6.216,9.166-6.216a10.008,10.008,0,0,1,9.353,5.644,11.179,11.179,0,0,0-9.353-5.069c-4.1,0-7.51,2.093-8.9,5.462a.29.29,0,0,1-.268.178" transform="translate(15.953 47.221)" fill="#1a1a1a"/>
      <path id="Trazado_606007" data-name="Trazado 606007" d="M.287,77.452C0,77.165,0,60.8,0,60.8A7.217,7.217,0,0,1,7.209,53.6H80.3c0,.575-73.086.575-73.086.575A6.641,6.641,0,0,0,.576,60.8V77.165a.288.288,0,0,1-.289.287" transform="translate(0 22.287)" fill="#1a1a1a"/>
      <path id="Trazado_606008" data-name="Trazado 606008" d="M36.6,122.207H7.209A7.216,7.216,0,0,1,0,115V86.75C.576,86.75.576,115,.576,115a6.64,6.64,0,0,0,6.633,6.633H36.6c.287.45.159.576,0,.576" transform="translate(0 36.075)" fill="#1a1a1a"/>
      <path id="Trazado_606009" data-name="Trazado 606009" d="M73.266,126.771a7.589,7.589,0,0,0,6.633-7.209V75.774c.576,0,.576,43.788.576,43.788a7.215,7.215,0,0,1-7.209,7.209" transform="translate(30.467 31.51)" fill="#1a1a1a"/>
      <path id="Trazado_606010" data-name="Trazado 606010" d="M124.86,81.031c-9,0-9-5.853-9-15.553V62.538c.522-.626,1.436-3.632,1.94-5.536a6.392,6.392,0,0,1-1.133-1.332c.531-.232,3.544,4.907,12.668,3.145.7-.135,3.3-.708,3.3-.708.348.238,1.233,3.474,1.652,4.3.03.118.166,3.418.166,3.418,0,9.162,0,15.206-9.6,15.206m-8.427-18.386v2.833c0,9.657,0,14.977,8.427,14.977,9.018,0,9.018-5.192,9.018-14.617l-.13-3.228a37.112,37.112,0,0,1-1.256-3.882c-.684.151-2.489.545-3.05.653-5.873,1.137-9.352-.513-11.158-1.961-.35,1.3-1.235,4.425-1.851,5.226" transform="translate(48.179 23.147)" fill="#1a1a1a"/>
      <path id="Trazado_606011" data-name="Trazado 606011" d="M121.863,70.166c-.208-.071-2.067-1.017-1.815-2.488.16-.926,1.086-.906,1.751-.9.582.016.828-.011.854-.178.142-.92.1-6.269.1-6.322.579.217.617,5.443.47,6.41-.1.694-.845.684-1.436.668-.738-.014-1.106.021-1.172.419-.178,1.048,1.361,1.835,1.376,1.843.079.487-.024.545-.129.545" transform="translate(49.912 25.068)" fill="#1a1a1a"/>
      <path id="Trazado_606012" data-name="Trazado 606012" d="M123.083,70.112a3.186,3.186,0,0,1-.987-.17c.818-.34,1.348-.358,1.753-.61a2.168,2.168,0,0,0,.831-1.375c.564.132.385,1.3-.525,1.863a1.981,1.981,0,0,1-1.072.292" transform="translate(50.773 28.26)" fill="#1a1a1a"/>
      <path id="Trazado_606013" data-name="Trazado 606013" d="M94.967,79.071H88.58c-.287-.287-.287-7.061-.287-7.061-9-1.072-14.348-5.737-16.347-14.256.214-.347,10.227-2.764,10.227-2.764a1.874,1.874,0,0,1,.588.808c.176.443.344.868.493,1.3a8.685,8.685,0,0,0,4.569,5.066,9.773,9.773,0,0,0,7.675.207,5.17,5.17,0,0,0,3.551-4.774,4.176,4.176,0,0,0-2.737-4.4c-1.94-.816-3.957-1.557-5.911-2.272-.8-.292-1.591-.583-2.383-.881-.508-.191-1.021-.371-1.532-.554-.956-.336-1.941-.685-2.884-1.089-7.321-3.135-10.566-8.4-9.643-15.639.893-7.04,5.345-11.389,13.227-12.929.2-.04.4-.1.641-.166s.249-5.233.249-5.233c.287-.287,6.6-.287,6.6-.287.289.279.428,5.348.428,5.348a32.9,32.9,0,0,1,4.837,1.4c4.927,1.724,8.065,5.07,9.88,10.531-.173.361-9.035,3.741-9.035,3.741a7,7,0,0,1-1.346-1.654,25.468,25.468,0,0,0-2.2-3.108,6.85,6.85,0,0,0-7.183-1.962A4.779,4.779,0,0,0,86.2,32.429a4.042,4.042,0,0,0,2.522,4.851c1.671.732,3.418,1.395,5.1,2.039.668.253,1.335.505,2,.765s1.351.514,2.026.766c1.312.486,2.67.988,3.966,1.563,7.571,3.344,10.585,8.552,9.493,16.387-.9,6.473-6.155,11.351-13.705,12.724-.544.1-1.08.218-1.674.348l-.68.147v6.765a.289.289,0,0,1-.287.287m-6.1-.576h5.811V71.787a2.873,2.873,0,0,1,1.133-.479c.6-.133,1.144-.253,1.692-.353,7.411-1.348,12.359-5.922,13.238-12.237,1.052-7.539-1.856-12.553-9.153-15.781-1.281-.565-2.629-1.065-3.933-1.548-.681-.253-1.362-.505-2.036-.769s-1.329-.511-1.995-.763c-1.695-.646-3.445-1.312-5.13-2.05a4.618,4.618,0,0,1-2.861-5.476,5.388,5.388,0,0,1,4.283-4.453,7.41,7.41,0,0,1,7.757,2.142,25.849,25.849,0,0,1,2.25,3.179c.282.445.566.892.866,1.341l8.39-3.2c-1.764-5.123-4.769-8.273-9.432-9.905a27.45,27.45,0,0,0-4.961-1.409c-.256-.279-.394-5.307-.394-5.307H88.649v5.091A4.95,4.95,0,0,1,87.3,20.4c-7.612,1.488-11.907,5.672-12.768,12.438-.885,6.956,2.244,12.013,9.3,15.035.926.4,1.9.743,2.847,1.076.515.183,1.032.365,1.542.556.793.3,1.587.588,2.381.881,1.958.718,3.986,1.46,5.937,2.282a4.715,4.715,0,0,1,3.087,4.972,5.773,5.773,0,0,1-3.92,5.271,10.352,10.352,0,0,1-8.124-.224,9.257,9.257,0,0,1-4.871-5.4c-.146-.421-.313-.838-.484-1.271-.159-.4-9.649,1.887-9.649,1.887,2,8.155,7.255,12.594,16.039,13.567.255.286.255,7.028.255,7.028" transform="translate(29.918 5.882)" fill="#1a1a1a"/>
      <path id="Trazado_606014" data-name="Trazado 606014" d="M98.178,87.6c20.787-.99,37.7-18.25,37.7-39.056A38.487,38.487,0,1,0,93.12,86.8,38.039,38.039,0,0,1,58.33,48.549,39.063,39.063,0,1,1,98.183,87.6Z" transform="translate(24.256 3.944)" fill="#1a1a1a"/>
      <path id="Trazado_606015" data-name="Trazado 606015" d="M173.848,108.407c-1.2-.648-1.644-2.029-1.4-3.926a5.319,5.319,0,0,1,2.244-4.068,5.4,5.4,0,0,1,.919-.467,13.581,13.581,0,0,1,1.692-.522,6.548,6.548,0,0,0,2.931-1.293,3.1,3.1,0,0,0,.8-2.752,134.122,134.122,0,0,0-2.376-13.51,7.038,7.038,0,0,1,3.261-5.765c4.23-2.846,9.85-2.515,14.794-1.817a4.843,4.843,0,0,1,4.12,2.568,11.019,11.019,0,0,1,.7,6.1c-.392-1.645-.262-3.964-1.213-5.842-.787-1.552-2.042-2.025-3.684-2.257-4.837-.685-10.327-1.012-14.393,1.724a6.466,6.466,0,0,0-3.01,5.188c.122.5,1.252,5.181,2.379,13.53a3.679,3.679,0,0,1-.977,3.255,7.1,7.1,0,0,1-3.179,1.426,13.117,13.117,0,0,0-1.623.5,4.869,4.869,0,0,0-.821.421,4.767,4.767,0,0,0-1.986,3.653c-.12.959-.153,2.662.976,3.317.051.487-.045.538-.144.538" transform="translate(71.684 30.691)" fill="#1a1a1a"/>
      <path id="Trazado_606016" data-name="Trazado 606016" d="M166.406,132.978c9.178-8.692,30.091-10.033,30.3-10.045-.176.589-20.9,1.918-30.114,9.975a.292.292,0,0,1-.19.071" transform="translate(69.199 51.121)" fill="#1a1a1a"/>
      <path id="Trazado_606017" data-name="Trazado 606017" d="M162.683,152.005a19.04,19.04,0,0,1-2.224-5.982c-.164-.813-.295-1.634-.388-2.439-1.172-10.159,2.979-20.727,6.2-27.79,4.393-9.621,9.762-15.992,16.418-19.478-6.269,3.935-11.556,10.218-15.893,19.717-3.2,7-7.31,17.469-6.153,27.486.089.79.218,1.593.377,2.389a23.6,23.6,0,0,0,1.918,5.682c-.173.406-.215.416-.258.416" transform="translate(66.48 40.053)" fill="#1a1a1a"/>
      <path id="Trazado_606018" data-name="Trazado 606018" d="M210.373,114.749a12.41,12.41,0,0,1-1.09-2.132c-4.4-10.176-10.009-15.637-17.632-17.188-.6-.12-2.4-.435-2.4-.435.1-.569,1.913-.252,2.513-.13,7.719,1.57,13.623,7.3,18.049,17.524.106.249.721,1.712.824,1.961-.188.394-.228.4-.265.4" transform="translate(78.699 39.366)" fill="#1a1a1a"/>
      <path id="Trazado_606019" data-name="Trazado 606019" d="M190.833,95.876c-.263,0-.542-.011-.842-.038-.966-.082-2.383-.255-3.374-.453a8.8,8.8,0,0,1,3.422-.12,5.911,5.911,0,0,0,2.323-.173,3.315,3.315,0,0,0,2.145-2.376,20.28,20.28,0,0,0,.624-6.683c-.021-1.5-.062-2.714-.1-3.928l-.044-1.288c.562-.548.619,1.27.619,1.27.041,1.218.079,2.435.1,3.651a21.706,21.706,0,0,1-.648,7.158,3.857,3.857,0,0,1-2.52,2.742,5.572,5.572,0,0,1-1.7.236" transform="translate(77.604 33.565)" fill="#1a1a1a"/>
      <path id="Trazado_606020" data-name="Trazado 606020" d="M183.638,106.957a18.615,18.615,0,0,1-7.422-1.8c3.6.96,6.606,1.5,9.124,1.092a6,6,0,0,0,4.655-3.725,8.342,8.342,0,0,0-.739-7.825c-.27-.4-.562-.782-.854-1.168-1.368-1.821-2.786-3.7-1.96-6.312a8.15,8.15,0,0,1,2.04-2.946c.185-.2.37-.4.542-.592,1.212-1.363,2.251-2.641,3.179-3.908,1.8-2.347,2.081-2.949,2.114-3.115.565-.184,1.744,1.409,5.457,5.029a25.352,25.352,0,0,1-5.057-4.5A22.2,22.2,0,0,1,192.8,79.94c-1.069,1.455-2.119,2.747-3.344,4.123-.177.2-.362.4-.552.6a7.711,7.711,0,0,0-1.911,2.724c-.738,2.326.53,4.01,1.872,5.794.293.392.59.787.865,1.189a8.917,8.917,0,0,1,.8,8.376,6.559,6.559,0,0,1-5.09,4.066,11.119,11.119,0,0,1-1.8.142" transform="translate(73.279 31.871)" fill="#1a1a1a"/>
      <path id="Trazado_606021" data-name="Trazado 606021" d="M187.694,82.631c.231-.037.385.062.452.892.074.926-.166,1.089-.374,1.08s-.416-.295-.4-.956.025-.97.327-1.017" transform="translate(77.915 34.359)" fill="#1a1a1a"/>
      <path id="Trazado_606022" data-name="Trazado 606022" d="M192.2,82.365c.229-.044.387.05.481.876.1.923-.13,1.093-.337,1.092s-.425-.279-.437-.94-.007-.97.293-1.028" transform="translate(79.803 34.247)" fill="#1a1a1a"/>
      <path id="Trazado_606023" data-name="Trazado 606023" d="M193.263,81.439a1.952,1.952,0,0,0-1.873-.319c1.076-.881,1.7-.5,2.061-.188-.025.474-.108.507-.188.507" transform="translate(79.589 33.507)" fill="#1a1a1a"/>
      <path id="Trazado_606024" data-name="Trazado 606024" d="M189.692,102.947c-1.6,0-4.214-3.184-4.757-3.868,1.8,1.342,4.076,3.593,4.913,3.265.974-.377,1.106-4,.961-6.2l.255-4.889c.575.033.319,4.886.319,4.886.068.985.326,6.1-1.325,6.739a.983.983,0,0,1-.365.065" transform="translate(76.904 37.948)" fill="#1a1a1a"/>
      <path id="Trazado_606025" data-name="Trazado 606025" d="M191.892,96.874c1.682-3.155-.847-5.819-.871-5.847.445-.371,3.3,2.641,1.106,5.727a.286.286,0,0,1-.235.12" transform="translate(79.435 37.84)" fill="#1a1a1a"/>
      <path id="Trazado_606026" data-name="Trazado 606026" d="M174.736,133.8c-1.286-10.378,4.333-27.113,4.389-27.282.488.353-5.089,16.972-4.1,26.965-.268.317-.277.317-.287.317" transform="translate(72.584 44.295)" fill="#1a1a1a"/>
      <path id="Trazado_606027" data-name="Trazado 606027" d="M190.073,88.787a2.023,2.023,0,0,1-1.182-.351,2.727,2.727,0,0,1-1.007-1.832c.575-.045.678.908,1.338,1.359a1.818,1.818,0,0,0,1.569.14c-.159.64-.447.684-.718.684" transform="translate(78.131 36.013)" fill="#1a1a1a"/>
      <path id="Trazado_606028" data-name="Trazado 606028" d="M227.417,124.968a2.694,2.694,0,0,1-1.359-.35,3.264,3.264,0,0,1-1.487-2.779,7.586,7.586,0,0,1,3.861-6.683,3.266,3.266,0,0,1,3.146-.1c1.781,1.029,1.995,4.011.473,6.649-1.169,2.023-3.029,3.265-4.634,3.265m2.786-9.693a3.409,3.409,0,0,0-1.512.4,7.008,7.008,0,0,0-3.544,6.135,2.708,2.708,0,0,0,1.2,2.311c1.5.874,3.843-.341,5.206-2.7s1.244-4.989-.263-5.859a2.142,2.142,0,0,0-1.086-.279" transform="translate(93.383 47.697)" fill="#1a1a1a"/>
      <path id="Trazado_606029" data-name="Trazado 606029" d="M204.6,150.045a7.54,7.54,0,0,1-7.157-9.911l11.25-33.953a7.527,7.527,0,0,1,7.157-5.169h47.435a7.678,7.678,0,0,1,1.672.183c.074.03,4.752,2.584,4.752,2.584-.275.507-4.917-2.029-4.917-2.029a7.053,7.053,0,0,0-1.506-.161H215.85a6.959,6.959,0,0,0-6.612,4.774l-11.25,33.955a6.965,6.965,0,0,0,6.612,9.152c.289.447.16.576,0,.576" transform="translate(81.943 42.005)" fill="#1a1a1a"/>
      <path id="Trazado_606030" data-name="Trazado 606030" d="M254.314,149.839H206.875a7.6,7.6,0,0,1-7.154-9.912l11.249-32.491a7.512,7.512,0,0,1,7.157-4.948h47.436a7.631,7.631,0,0,1,6.23,3.156,6.914,6.914,0,0,1,.926,6.349L261.47,144.482a7.925,7.925,0,0,1-7.156,5.356m-36.188-46.775a6.934,6.934,0,0,0-6.612,4.562l-11.249,32.491a7.025,7.025,0,0,0,6.609,9.148h47.439a7.335,7.335,0,0,0,6.611-4.971L272.173,111.8a6.351,6.351,0,0,0-.851-5.825,7.056,7.056,0,0,0-5.76-2.914Z" transform="translate(82.892 42.619)" fill="#1a1a1a"/>
      <path id="Trazado_606031" data-name="Trazado 606031" d="M198.579,136.425a11.558,11.558,0,0,0-1.454-3.871c-.157-.31-.307-.6-.426-.852-.13-.277-.259-.6-.394-.956-.77-1.985-1.822-4.7-5.587-4.052a30.881,30.881,0,0,0-7.548,3.289c2.543-2.474,7.222-3.8,7.42-3.851,4.282-.733,5.457,2.356,6.251,4.4.133.338.253.653.378.922.117.246.262.527.419.83.641,1.24,1.441,2.782,1.223,3.9a.289.289,0,0,1-.283.234" transform="translate(76.17 52.405)" fill="#1a1a1a"/>
      <path id="Trazado_606032" data-name="Trazado 606032" d="M191.123,134.629a7.237,7.237,0,0,1-2.158-4.286c.579.246.964,2.444,2.36,3.792-.051.466-.126.494-.2.494" transform="translate(78.58 54.202)" fill="#1a1a1a"/>
      <path id="Trazado_606033" data-name="Trazado 606033" d="M199.95,136.717a2.9,2.9,0,0,0-.644-2.517,11.75,11.75,0,0,1-1.464-3.031,15.967,15.967,0,0,0-2.367-4.628c-1.6-1.744-5.243.3-5.28.324-.12-.595,3.8-2.789,5.707-.715a16.412,16.412,0,0,1,2.479,4.808,11.888,11.888,0,0,0,1.352,2.857,2.311,2.311,0,0,1,.459,2.772.288.288,0,0,1-.242.13" transform="translate(79.09 52.096)" fill="#1a1a1a"/>
      <path id="Trazado_606034" data-name="Trazado 606034" d="M185.243,137.733a8.611,8.611,0,0,1-2.427-7.5,8.429,8.429,0,0,1,9.447-7.258,10.34,10.34,0,0,1,6.186,3.541,13.558,13.558,0,0,0-6.278-2.972,7.866,7.866,0,0,0-8.785,6.779,8.276,8.276,0,0,0,2.069,6.926c-.069.46-.142.486-.211.486" transform="translate(75.977 51.097)" fill="#1a1a1a"/>
      <path id="Trazado_606035" data-name="Trazado 606035" d="M199.563,128.883c-.51-.926-1.328-2.9-2.285-3.293-1.44-.6-3.264.861-3.278.876-.282-.515,1.746-2.137,3.5-1.412,1.4.583,2.3,3.336,2.336,3.452-.215.372-.246.377-.273.377" transform="translate(80.663 51.927)" fill="#1a1a1a"/>
      <path id="Trazado_606036" data-name="Trazado 606036" d="M196.828,134.128c4.546-17.83.742-28.675.7-28.783.582-.089,4.451,10.913-.426,28.572a.289.289,0,0,1-.278.211" transform="translate(81.85 43.807)" fill="#1a1a1a"/>
      <path id="Trazado_606037" data-name="Trazado 606037" d="M27.316,91.663c-.2-.084-19.372-19.251-19.372-19.251C8.352,72,27.316,90.968,27.316,90.968l18.13-18.13c.408,0,13.68,13.272,13.68,13.272-.408.408-13.476-12.66-13.476-12.66L27.519,91.58a.284.284,0,0,1-.2.084" transform="translate(3.303 30.109)" fill="#1a1a1a"/>
      <path id="Trazado_606038" data-name="Trazado 606038" d="M66.662,78.6H63.647c0-.576,3.014-.576,3.014-.576.287.447.157.576,0,.576m-6.248,0H57.181c0-.576,3.232-.576,3.232-.576.287.447.159.576,0,.576m-6.465,0H50.715c0-.576,3.234-.576,3.234-.576.287.447.159.576,0,.576m-6.466,0H44.249c0-.576,3.234-.576,3.234-.576.287.447.157.576,0,.576m-6.466,0H37.783c0-.576,3.234-.576,3.234-.576.287.447.159.576,0,.576m-6.468,0H31.315c0-.576,3.234-.576,3.234-.576.289.447.16.576,0,.576m-6.466,0H24.85c0-.576,3.232-.576,3.232-.576.287.447.16.576,0,.576m-6.465,0H18.384c0-.576,3.234-.576,3.234-.576.287.447.157.576,0,.576m-6.468,0H11.92c0-.576,3.231-.576,3.231-.576.289.447.159.576,0,.576m-6.465,0H5.452c0-.576,3.234-.576,3.234-.576.287.447.159.576,0,.576" transform="translate(2.267 32.444)" fill="#1a1a1a"/>
      <path id="Trazado_606039" data-name="Trazado 606039" d="M29.754,106.066c-4-1.42-10.293-10.68-10.525-13.145a2.153,2.153,0,0,1,1.334-2.281,1.693,1.693,0,0,1,.682-2.015,2.129,2.129,0,0,1,.828-.375,1.757,1.757,0,0,1,1.48.494c.081.118,6.472,16.932,6.472,16.932-.119.36-.194.389-.27.389M22.336,88.8a1.563,1.563,0,0,0-.756.293,1.125,1.125,0,0,0-.371,1.574c-.241.438-1.54.76-1.406,2.2.2,2.115,5.7,10.354,9.435,12.362l-6.116-16.09a1.267,1.267,0,0,0-.786-.336" transform="translate(7.991 36.688)" fill="#1a1a1a"/>
      <path id="Trazado_606040" data-name="Trazado 606040" d="M39.5,99.114c-.065-.007-12.151-2.806-12.151-2.806a44.742,44.742,0,0,1-4.293-5.144c-.808-1.107-1.525-2.078-1.348-3A1.775,1.775,0,0,1,22.6,87c1.695-1.048,2.757.464,3.465,1.465.133.19.327.477.561.82a40.567,40.567,0,0,0,2.517,3.476c1.171,1.318,2.8,2.7,3.705,2.624a.725.725,0,0,0,.578-.374,1.921,1.921,0,0,0,.2-1.1,10.071,10.071,0,0,0-.2-1.2c-.319-1.562-.752-3.7.109-4.623a1.546,1.546,0,0,1,1.414-.416,2.223,2.223,0,0,1,1.314.518,2.273,2.273,0,0,1,.549,1.147c.2.85.343,1.761.48,2.639.371,2.4.756,4.885,2.418,6.66-.01.432-.108.486-.208.486m-11.943-3.35,11.177,2.588c-1.32-1.814-1.672-4.088-2.015-6.295-.14-.909-.275-1.767-.473-2.6a1.685,1.685,0,0,0-.389-.864,1.711,1.711,0,0,0-.984-.361,1,1,0,0,0-.919.236c-.658.708-.241,2.758.031,4.116a10.578,10.578,0,0,1,.217,1.287,2.473,2.473,0,0,1-.292,1.441,1.3,1.3,0,0,1-1.018.637c-1.446.091-3.4-1.928-4.182-2.812a41.742,41.742,0,0,1-2.566-3.537c-.228-.338-.421-.626-.552-.813-.968-1.372-1.651-1.958-2.689-1.305a1.216,1.216,0,0,0-.629.784c-.13.675.5,1.529.961,2.154a55.4,55.4,0,0,0,4.321,5.339" transform="translate(9.015 36.029)" fill="#1a1a1a"/>
      <path id="Trazado_606041" data-name="Trazado 606041" d="M25.534,97.143A34.992,34.992,0,0,1,22.687,93.9a26.6,26.6,0,0,1-2.363-3.632c.442-.4,1.686,1.914,2.806,3.264,1.383,1.666,2.624,3.14,2.624,3.14-.089.453-.154.474-.219.474" transform="translate(8.452 37.518)" fill="#1a1a1a"/>
      <path id="Trazado_606042" data-name="Trazado 606042" d="M12.817,100.048H6.259C5.97,99.76,5.97,93.2,5.97,93.2c.289-.287,6.847-.287,6.847-.287.287.287.287,6.846.287,6.846a.289.289,0,0,1-.287.289m-6.271-.576h5.982V93.49H6.546Z" transform="translate(2.483 38.638)" fill="#1a1a1a"/>
      <path id="Trazado_606043" data-name="Trazado 606043" d="M12.817,109.485H6.259c-.289-.29-.289-6.847-.289-6.847.289-.289,6.847-.289,6.847-.289.287.289.287,6.846.287,6.846a.289.289,0,0,1-.287.29m-6.271-.578h5.982v-5.982H6.546Z" transform="translate(2.483 42.561)" fill="#1a1a1a"/>
      <path id="Trazado_606044" data-name="Trazado 606044" d="M35.353,59.729H16.26c0-.576,19.093-.576,19.093-.576.287.447.159.576,0,.576" transform="translate(6.762 24.598)" fill="#1a1a1a"/>
      <path id="Trazado_606045" data-name="Trazado 606045" d="M13.1,59.729H8.088c0-.576,5.014-.576,5.014-.576.287.447.159.576,0,.576" transform="translate(3.363 24.598)" fill="#1a1a1a"/>
      <path id="Trazado_606046" data-name="Trazado 606046" d="M38.751,62.816H8.088c0-.575,30.663-.575,30.663-.575.287.447.159.575,0,.575" transform="translate(3.363 25.883)" fill="#1a1a1a"/>
      <path id="Trazado_606047" data-name="Trazado 606047" d="M22.172,65.932H8.089c0-.576,14.083-.576,14.083-.576.287.447.159.576,0,.576" transform="translate(3.364 27.178)" fill="#1a1a1a"/>
      <path id="Trazado_606048" data-name="Trazado 606048" d="M228.433,95.833,213.639,95.8c0-.576,14.505-.541,14.505-.541V21.065H153.955V81.009c-.579,0-.579-60.231-.579-60.231.289-.287,75.057-.287,75.057-.287.29.287.29,75.055.29,75.055-.14.259-.214.287-.29.287" transform="translate(63.781 8.521)" fill="#1a1a1a"/>
      <path id="Trazado_606049" data-name="Trazado 606049" d="M205.641,67.865H191.658c-.29-.289-.29-17.5-.29-17.5.29-.287,14.273-.287,14.273-.287.289.287.289,17.5.289,17.5a.29.29,0,0,1-.289.289m-13.694-.578h13.405V50.651H191.947Z" transform="translate(79.579 20.823)" fill="#1a1a1a"/>
      <path id="Trazado_606050" data-name="Trazado 606050" d="M191.836,88.4a3.064,3.064,0,0,0,1.194-2.263,3.891,3.891,0,0,1-2-.531,16.525,16.525,0,0,1-.883-3.565,18.986,18.986,0,0,1,1.329,3.2,5.8,5.8,0,0,0,1.869.341,2.085,2.085,0,0,1-1.457,2.815.439.439,0,0,1-.047,0" transform="translate(79.069 34.118)" fill="#1a1a1a"/>
      <path id="Trazado_606051" data-name="Trazado 606051" d="M186.5,83.473a2.119,2.119,0,0,1,1.106-2.333,2.4,2.4,0,0,1,2.013-.086c-.783.338-1.3.354-1.734.592a2.731,2.731,0,0,0-1.1,1.6.287.287,0,0,1-.282.225" transform="translate(77.516 33.632)" fill="#1a1a1a"/>
      <path id="Trazado_606052" data-name="Trazado 606052" d="M216.482,137.122h-38.92a2.027,2.027,0,1,1,0-4.055h30.061c0,.576-30.061.576-30.061.576a1.452,1.452,0,0,0,0,2.9h38.92c.289.446.16.575,0,.575" transform="translate(72.995 55.335)" fill="#1a1a1a"/>
      <path id="Trazado_606053" data-name="Trazado 606053" d="M186.906,134.339c3.113-.757,3.272-2.924,3.275-2.946.573.059.382,2.735-3.258,2.946Z" transform="translate(77.724 54.639)" fill="#1a1a1a"/>
    </g>
  </g>
</svg>
