<svg xmlns="http://www.w3.org/2000/svg" xmlns:xlink="http://www.w3.org/1999/xlink" width="124.001" height="124" viewBox="0 0 124.001 124">
  <defs>
    <clipPath id="clip-path">
      <rect id="Rectángulo_346068" data-name="Rectángulo 346068" width="68.327" height="64.349" fill="none"/>
    </clipPath>
  </defs>
  <g id="Grupo_1015564" data-name="Grupo 1015564" transform="translate(-6150 6645.521)">
    <g id="Grupo_1015006" data-name="Grupo 1015006" transform="translate(5765.001 -8703.521)">
      <path id="Unión_12" data-name="Unión 12" d="M8464.769,11817.939a62.055,62.055,0,1,1,20.7-16.051l8.516,22.111Z" transform="translate(-7991 -9642)" fill="#a3bfe4"/>
      <circle id="Elipse_4842" data-name="Elipse 4842" cx="48" cy="48" r="48" transform="translate(399 2072)" fill="#fffbe5"/>
    </g>
    <g id="Grupo_1015578" data-name="Grupo 1015578" transform="translate(6177.837 -6615.695)">
      <rect id="Rectángulo_346067" data-name="Rectángulo 346067" width="50.875" height="41.292" transform="translate(1.146 1.08)" fill="#f6f8fa"/>
      <g id="Grupo_1015577" data-name="Grupo 1015577">
        <g id="Grupo_1015576" data-name="Grupo 1015576" clip-path="url(#clip-path)">
          <path id="Trazado_606271" data-name="Trazado 606271" d="M48.51,29.184c.578.007,1.156.008,1.734.027.169.005.218-.054.2-.207a1.381,1.381,0,0,1,0-.167V2.428C50.442,2,50.441,2,50,2Q39.125,2,28.251,2a1.209,1.209,0,0,1-1.21-.628A1,1,0,0,1,27.675.067,3.2,3.2,0,0,1,28.368,0Q39.275,0,50.182,0a2.117,2.117,0,0,1,2.252,2.223c.026.677,0,1.356,0,2.034q0,12.321,0,24.641c0,.215.039.279.271.279q6.72-.009,13.441,0a1.91,1.91,0,0,1,1.955,1.067,2.412,2.412,0,0,1,.21,1.012q.007,6.452,0,12.9a1.1,1.1,0,0,1-1.038,1.272c-.811-.328-.953-.541-.952-1.413q0-2.584,0-5.168c0-.537-.006-1.073,0-1.61,0-.152-.058-.227-.215-.225-.244,0-.489,0-.734,0q-18.513,0-37.025-.009c-.314,0-.41.074-.41.4q.013,9.353,0,18.707c0,.316.107.393.4.39,1.156-.013,2.313,0,3.469,0H65.132c.289,0,.578,0,.867,0,.131,0,.25-.012.263-.179.022-.263.06-.526.06-.789,0-.658,0-1.317-.014-1.973-.032-1.484.014-2.965.028-4.448a.911.911,0,0,1,.926-1c.116.114.27.03.408.084a1.056,1.056,0,0,1,.649,1.111c.015,1.289.005,2.579.005,3.868,0,3.023.009,6.046-.005,9.069a1.95,1.95,0,0,1-1.3,2,2.643,2.643,0,0,1-.943.107h-8.1q-14.876,0-29.751.008A2.559,2.559,0,0,1,26.747,64a1.814,1.814,0,0,1-.852-1.513q0-9.168.024-18.335c0-.089,0-.178,0-.266.044-.025.038-.047-.005-.065l-.019-.146c.112-.169.01-.182-.125-.171-.018-.091-.091-.08-.156-.082-.554-.017-1.108-.048-1.662-.048q-10.258,0-20.516,0c-.454,0-.907.041-1.361.043A2.116,2.116,0,0,1,.01,41.368Q0,26.979,0,12.589,0,7.4,0,2.218A2.348,2.348,0,0,1,.412.824,1.855,1.855,0,0,1,2.006.008Q12.081,0,22.155,0c.442,0,.88.045,1.32.064a.854.854,0,0,1,.734.691.935.935,0,0,1-.441,1.051A1.449,1.449,0,0,1,22.931,2H7.819c-1.834,0-3.669,0-5.5,0C2.113,2,2,2.007,2,2.276q.017,11.739.015,23.477,0,7.687-.014,15.373c0,.293.131.288.34.289,2.7,0,5.4.013,8.106.014q7.622,0,15.245,0c.165,0,.216-.036.216-.192,0-.555,0-1.111.008-1.666,0-.152-.049-.2-.217-.2q-9.54.01-19.081,0a12.711,12.711,0,0,1-1.7-.016A1.053,1.053,0,0,1,4,38.351q0-16.522.009-33.044a1.574,1.574,0,0,1,.021-.455A1.072,1.072,0,0,1,5,4.049l.082-.005c.578-.007,1.156-.019,1.734-.019q19.6,0,39.193.01a5.9,5.9,0,0,1,1.607.095.907.907,0,0,1,.765.931,11.611,11.611,0,0,1,.038,1.33q0,11.137,0,22.274c0,.162-.065.332.034.488,0,.044.022.055.059.031M25.9,37.316l0-.006c.005-.061.01-.123.016-.184V37.1c.005-.122.015-.243.016-.365.005-1.878,0-3.756.015-5.634A1.867,1.867,0,0,1,27.18,29.3a2.545,2.545,0,0,1,.955-.1q7.837-.006,15.673,0c.278,0,.556.006.833.014.211.006.264-.093.166-.264q-.2-.354-.433-.692-1.518-2.216-3.041-4.428c-.906-1.322-1.8-2.65-2.711-3.971-1.3-1.894-2.61-3.78-3.9-5.681-.164-.242-.252-.127-.328.006-.468.824-1.044,1.576-1.568,2.363-.388.582-.815,1.138-1.208,1.717-.871,1.282-1.723,2.575-2.6,3.855q-2.111,3.095-4.238,6.178-1.7,2.471-3.39,4.942Q20.105,35.118,18.819,37c-.061.089-.166.183-.116.3s.194.063.3.063q1.167.005,2.334.006a2.074,2.074,0,0,0,.737.005c1.17.033,2.34.029,3.51.007H25.6l.194,0c.032.021.058.019.075-.018a.072.072,0,0,0,.039-.043M6.075,6.071c-.213.023-.089.116-.04.193,0,.022-.005.044-.005.066Q6.024,19.4,6.023,32.475c0,.085-.074.221.066.255.123.029.2-.082.259-.174.243-.358.477-.722.724-1.078,1.063-1.536,2.132-3.068,3.194-4.605.552-.8,1.086-1.611,1.641-2.409.518-.746,1.06-1.476,1.578-2.221.363-.522.7-1.06,1.054-1.588a2.047,2.047,0,0,1,3.077-.522,4.491,4.491,0,0,1,.786,1.029q2.14,3.115,4.268,6.238c.156.229.237.224.379-.014.657-1.1,1.412-2.139,2.141-3.192.487-.7.985-1.4,1.467-2.1.389-.568.752-1.154,1.142-1.72.973-1.412,1.946-2.825,2.938-4.225.817-1.154,1.532-2.381,2.45-3.465a1.9,1.9,0,0,1,2.543-.23,5.863,5.863,0,0,1,.879,1.052c.629.758,1.072,1.645,1.716,2.4.208.243.363.595.56.882Q40.2,18.7,41.518,20.621c.617.9,1.223,1.8,1.823,2.714.75,1.136,1.533,2.25,2.314,3.365a7.633,7.633,0,0,0,.783,1.057v-.444q0-3.785,0-7.57,0-6.67,0-13.339c0-.136.091-.324-.134-.39l-.122.013c-.533.005-1.066.015-1.6.015L9.337,6.026a2.281,2.281,0,0,0-.72,0c-.739.062-1.479,0-2.218.016-.11-.033-.221-.077-.32.025ZM8.733,37.366a2.312,2.312,0,0,0,.713.012l6.19.007h.027l.24.009.026,0a.437.437,0,0,0,.407-.23c.259-.388.524-.772.788-1.156Q19.33,32.8,21.54,29.587a.342.342,0,0,0-.019-.449Q19.064,25.572,16.615,22c-.286-.418-.291-.424-.571-.021q-1.615,2.325-3.227,4.653-3.25,4.7-6.5,9.394A1.607,1.607,0,0,0,6,37.009c0,.284.093.359.361.355.789-.011,1.578,0,2.368,0m35.033-6.219v0c-.7,0-1.4.007-2.1,0-.234,0-.3.076-.3.307q.016,1.634,0,3.267c0,.215.036.319.285.317q2.118-.012,4.235,0c.219,0,.289-.069.287-.286q-.01-1.65,0-3.3c0-.238-.085-.308-.311-.3-.7.01-1.4,0-2.1,0m.018,27.36V58.5c-.688,0-1.377.008-2.065,0-.248,0-.359.055-.355.334.014,1.077.013,2.154,0,3.23,0,.226.077.29.285.288q2.115-.015,4.23-.018c.223,0,.3-.078.3-.312-.013-1.054-.018-2.109,0-3.164.005-.293-.1-.357-.363-.352-.677.012-1.354,0-2.032,0M63.946,35.023v0c.688,0,1.377-.008,2.066,0,.219,0,.327-.038.326-.285q-.008-1.632.009-3.264c0-.254-.073-.349-.343-.346q-2.049.018-4.1,0c-.249,0-.327.076-.323.323.013.9.008,1.8.006,2.7a.721.721,0,0,1-.034.325.357.357,0,0,0,.326.54c.688,0,1.377,0,2.066,0M50.51,31.144v0H48.576c-.482,0-.483,0-.481.5,0,.989.019,1.979,0,2.968-.005.32.087.423.411.42,1.367-.01,2.735,0,4.1.015.212,0,.239-.076.238-.248,0-1.134-.007-2.267,0-3.4,0-.212-.072-.257-.271-.253-.689.013-1.379.005-2.068.005M30.3,35.015v.011c.678,0,1.357-.016,2.034.007.29.01.365-.094.363-.362q-.013-1.584,0-3.167c0-.269-.081-.367-.365-.365q-2.034.021-4.069,0c-.281,0-.332.109-.33.354q.013,1.6,0,3.2c0,.253.089.327.331.323.678-.012,1.356,0,2.035,0m6.737-3.87v0c-.677,0-1.354.014-2.031-.007-.276-.009-.326.087-.323.34q.021,1.631,0,3.262c0,.247.08.294.3.293q2.048-.012,4.1,0c.263,0,.357-.089.355-.345-.006-1.065-.008-2.13,0-3.2,0-.285-.11-.358-.375-.352-.677.014-1.354,0-2.031,0m20.213,0v0c-.7,0-1.4,0-2.1,0-.2,0-.31.044-.308.276.007,1.11,0,2.22,0,3.33,0,.2.079.278.277.278q2.115,0,4.23.008c.195,0,.246-.085.245-.262-.005-1.11-.009-2.22,0-3.33,0-.234-.081-.3-.311-.3-.677.014-1.354,0-2.032,0m-20.227,31.2v-.01c.689,0,1.378,0,2.067,0,.259,0,.364-.086.359-.371-.02-1.022-.017-2.044-.008-3.066,0-.29-.1-.389-.392-.383-1.022.019-2.045.017-3.068.024a4.312,4.312,0,0,1-.961-.007c-.319-.072-.329.047-.329.287,0,1.067,0,2.133-.019,3.2,0,.273.093.337.349.33.666-.017,1.334-.006,2-.006m13.452,0v0c.688,0,1.377-.011,2.064.005.254.006.316-.078.313-.323-.014-1.032-.025-2.064,0-3.1.01-.364-.124-.418-.437-.412-1.043.021-2.086.017-3.13.022a8.119,8.119,0,0,0-.928,0c-.219.026-.268.108-.266.312.009,1.01.005,2.019,0,3.029,0,.464,0,.464.446.464h1.931m13.452,0c.688,0,1.377,0,2.065,0,.162,0,.347.02.346-.24q0-1.665,0-3.329c0-.185-.077-.252-.262-.25-1.4.016-2.8.05-4.2,0-.2-.007-.3.066-.3.29q.012,1.615,0,3.23c0,.238.085.307.311.3.677-.01,1.354,0,2.032,0m-6.672-3.825v.027c-.111,0-.222,0-.333,0-.566-.008-1.132-.025-1.7-.02-.169,0-.386-.029-.383.274.01,1.087.007,2.175,0,3.262,0,.193.052.283.261.283q2.1,0,4.2.005c.225,0,.305-.089.3-.322-.012-1.043-.018-2.086,0-3.129,0-.3-.1-.388-.381-.383-.655.011-1.309,0-1.964,0M30.265,62.3v.015c.7,0,1.4,0,2.1,0,.229,0,.337-.061.333-.323q-.02-1.583,0-3.167c0-.269-.08-.34-.342-.334-1.377.032-2.755.1-4.133.035-.225-.011-.285.088-.285.295.005,1.067.006,2.134,0,3.2,0,.225.084.284.294.281.678-.009,1.356,0,2.035,0" transform="translate(0 0)" fill="#060607"/>
          <path id="Trazado_606272" data-name="Trazado 606272" d="M143.656,149.3a.911.911,0,0,0-.926,1c-.014,1.483-.06,2.964-.028,4.448.014.657.015,1.316.014,1.973,0,.263-.039.526-.06.789-.014.167-.132.18-.264.179-.289,0-.578,0-.867,0H108.2c-1.156,0-2.313-.011-3.469,0-.3,0-.4-.074-.4-.39q.015-9.354,0-18.707c0-.328.1-.4.41-.4q18.513.012,37.025.009c.244,0,.489,0,.734,0,.157,0,.215.074.215.225,0,.536,0,1.073,0,1.61q0,2.584,0,5.168c0,.872.142,1.085.952,1.413a13.058,13.058,0,0,1-.018,2.675m-23.823-1.861c.049,1.641-.026,2.875.051,4.107a1.51,1.51,0,0,0,.966,1.31,1.462,1.462,0,0,0,1.65-.288c.024-.019.035-.058.061-.072.993-.567,1.916-1.242,2.846-1.9.687-.487,1.4-.924,2.06-1.467a1.619,1.619,0,0,0,.7-1.208,1.74,1.74,0,0,0-1.026-1.568c-.682-.427-1.393-.812-2.045-1.279-.729-.523-1.48-1.012-2.228-1.5a2.546,2.546,0,0,0-1.548-.639,1.556,1.556,0,0,0-1.476,1.552c-.027,1.121-.007,2.244-.007,2.958" transform="translate(-76.394 -101.19)" fill="#e34b5d"/>
          <path id="Trazado_606273" data-name="Trazado 606273" d="M96.235,162.458c.135-.011.238,0,.125.171-.1-.016-.085-.113-.125-.171" transform="translate(-70.466 -118.955)" fill="#2c519d"/>
          <path id="Trazado_606274" data-name="Trazado 606274" d="M18.751,15.015l-.081.005c.024-.045.051-.054.081-.005" transform="translate(-13.671 -10.971)" fill="#2c519d"/>
          <path id="Trazado_606275" data-name="Trazado 606275" d="M96.75,163.65c.043.019.049.04.005.065a.251.251,0,0,1-.014-.043c0-.007.006-.015.009-.023" transform="translate(-70.837 -119.83)" fill="#2c519d"/>
          <path id="Trazado_606276" data-name="Trazado 606276" d="M181,108.894c-.038.024-.057.013-.06-.031.029-.007.055-.009.06.031" transform="translate(-132.49 -79.71)" fill="#51a974"/>
          <path id="Trazado_606277" data-name="Trazado 606277" d="M62.717,22.458c.226.066.134.254.135.39q.006,6.669,0,13.339,0,3.785,0,7.57V44.2a7.643,7.643,0,0,1-.783-1.057c-.781-1.115-1.564-2.229-2.314-3.365-.6-.91-1.207-1.817-1.823-2.714q-1.319-1.917-2.634-3.838c-.2-.287-.352-.639-.559-.881-.644-.754-1.087-1.642-1.716-2.4a5.85,5.85,0,0,0-.879-1.052,1.9,1.9,0,0,0-2.543.23c-.918,1.084-1.632,2.311-2.45,3.465-.992,1.4-1.964,2.812-2.938,4.225-.39.567-.754,1.152-1.142,1.72-.483.706-.981,1.4-1.467,2.1-.729,1.054-1.483,2.091-2.141,3.192-.142.238-.223.243-.379.014q-2.127-3.124-4.268-6.238a4.472,4.472,0,0,0-.786-1.029,2.047,2.047,0,0,0-3.077.522c-.354.528-.692,1.067-1.054,1.588-.518.746-1.06,1.476-1.578,2.222-.555.8-1.089,1.609-1.641,2.409-1.061,1.537-2.131,3.069-3.194,4.605-.246.356-.481.72-.724,1.078-.062.092-.136.2-.259.174-.14-.033-.066-.169-.066-.255q0-13.072.007-26.145c0-.022,0-.044.005-.066a.2.2,0,0,0,.04-.193l0,0a.6.6,0,0,0,.32-.025c.739-.018,1.479.046,2.218-.016a1.327,1.327,0,0,0,.72,0L61,22.486c.533,0,1.066-.01,1.6-.015.046.049.086.041.122-.013m-22.686,2.1a1.128,1.128,0,0,0-.65-.021l-.282.025c-.023-.031-.043-.023-.06.005a4.861,4.861,0,0,0-3.317,7.738,4.833,4.833,0,1,0,7.417-6.179,4.761,4.761,0,0,0-3.109-1.568" transform="translate(-16.416 -16.444)" fill="#2690d1"/>
          <path id="Trazado_606278" data-name="Trazado 606278" d="M77.031,75.506c-.005.061-.01.123-.016.184l0,.007a.071.071,0,0,1-.039.043l-.075.018-.193,0h-.014c-1.17.021-2.34.026-3.51-.008l-.738-.005q-1.167,0-2.334-.006c-.1,0-.242.063-.3-.063s.054-.206.116-.3Q71.215,73.5,72.5,71.617l3.39-4.942q2.12-3.088,4.238-6.177c.873-1.28,1.726-2.574,2.6-3.855.393-.579.82-1.135,1.208-1.717.525-.786,1.1-1.538,1.568-2.363.075-.133.164-.248.328-.006,1.289,1.9,2.6,3.787,3.9,5.681.907,1.321,1.805,2.649,2.711,3.971q1.518,2.216,3.041,4.428c.154.224.3.456.434.692.1.171.045.27-.167.264-.278-.008-.555-.014-.833-.014q-7.836,0-15.672,0a2.551,2.551,0,0,0-.955.1,1.867,1.867,0,0,0-1.226,1.81c-.011,1.878-.01,3.755-.015,5.633,0,.122-.01.243-.016.365l-.012.01Z" transform="translate(-51.109 -38.38)" fill="#51a974"/>
          <path id="Trazado_606279" data-name="Trazado 606279" d="M32.32,96.687l-.24-.009-.013-.015-.014.014-6.19-.007a3.142,3.142,0,0,0-.713-.012c-.789,0-1.578-.013-2.368,0-.269,0-.359-.071-.361-.355a1.607,1.607,0,0,1,.312-.984q3.261-4.69,6.5-9.394,1.611-2.328,3.227-4.652c.28-.4.284-.4.571.021q2.449,3.571,4.906,7.137a.342.342,0,0,1,.019.449q-2.214,3.208-4.416,6.424c-.264.384-.529.768-.788,1.156a.438.438,0,0,1-.407.231l-.012-.02-.014.017" transform="translate(-16.417 -59.292)" fill="#51a974"/>
          <path id="Trazado_606280" data-name="Trazado 606280" d="M156.88,116.293c.7,0,1.4.006,2.1,0,.227,0,.314.067.311.3q-.017,1.65,0,3.3c0,.217-.069.287-.287.286q-2.118-.014-4.235,0c-.249,0-.287-.1-.285-.317.009-1.089.01-2.178,0-3.267,0-.232.066-.311.3-.307.7.012,1.4,0,2.1,0Z" transform="translate(-113.114 -85.147)" fill="#2c519d"/>
          <path id="Trazado_606281" data-name="Trazado 606281" d="M156.9,218.469c.677,0,1.355.008,2.032,0,.261,0,.368.059.363.352-.018,1.054-.013,2.109,0,3.163,0,.235-.075.312-.3.312q-2.116,0-4.23.018c-.208,0-.288-.062-.286-.288.012-1.077.014-2.154,0-3.23,0-.279.106-.338.355-.334.688.012,1.377,0,2.065,0v.006" transform="translate(-113.112 -159.962)" fill="#2c519d"/>
          <path id="Trazado_606282" data-name="Trazado 606282" d="M232.146,120.166c-.689,0-1.377,0-2.066,0a.357.357,0,0,1-.326-.54.717.717,0,0,0,.034-.325c0-.9.007-1.8-.006-2.7,0-.247.074-.326.323-.323q2.049.016,4.1,0c.27,0,.346.092.343.346q-.018,1.632-.009,3.264c0,.247-.107.289-.326.285-.688-.013-1.377,0-2.066,0Z" transform="translate(-168.2 -85.143)" fill="#2c519d"/>
          <path id="Trazado_606283" data-name="Trazado 606283" d="M182.027,116.3c.69,0,1.379.008,2.068,0,.2,0,.273.042.271.253-.008,1.134-.005,2.268,0,3.4,0,.172-.026.25-.238.248-1.367-.018-2.735-.025-4.1-.015-.324,0-.416-.1-.411-.42.017-.989,0-1.979,0-2.968,0-.5,0-.5.481-.5h1.935v0" transform="translate(-131.517 -85.152)" fill="#2c519d"/>
          <path id="Trazado_606284" data-name="Trazado 606284" d="M106.687,120.169c-.678,0-1.357-.007-2.034,0-.242,0-.334-.07-.331-.323q.017-1.6,0-3.2c0-.245.048-.357.33-.354q2.034.02,4.069,0c.284,0,.367.1.364.365q-.015,1.584,0,3.167c0,.268-.072.371-.363.362-.677-.023-1.356-.007-2.034-.007v-.011" transform="translate(-76.387 -85.154)" fill="#2c519d"/>
          <path id="Trazado_606285" data-name="Trazado 606285" d="M131.878,116.287c.677,0,1.354.01,2.031,0,.265-.006.379.067.375.352-.013,1.065-.01,2.13,0,3.2,0,.256-.092.347-.355.345q-2.048-.017-4.1,0c-.223,0-.306-.046-.3-.293q.022-1.63,0-3.261c0-.252.047-.348.323-.34.676.021,1.354.007,2.031.007Z" transform="translate(-94.842 -85.143)" fill="#2c519d"/>
          <path id="Trazado_606286" data-name="Trazado 606286" d="M207.218,116.3c.677,0,1.355.009,2.032,0,.231,0,.313.064.311.3-.007,1.11,0,2.22,0,3.33,0,.177-.05.263-.245.262q-2.115-.011-4.23-.008c-.2,0-.278-.078-.277-.278.005-1.11.008-2.22,0-3.33,0-.232.109-.278.308-.276.7.006,1.4,0,2.1,0v0" transform="translate(-149.968 -85.156)" fill="#2c519d"/>
          <path id="Trazado_606287" data-name="Trazado 606287" d="M131.837,222.357c-.667,0-1.334-.011-2,.006-.256.006-.354-.057-.349-.33.019-1.067.02-2.133.019-3.2,0-.24.009-.359.329-.287a4.342,4.342,0,0,0,.961.007c1.023-.007,2.045,0,3.068-.024.291-.006.394.093.392.383-.009,1.022-.012,2.045.008,3.066.006.285-.1.373-.359.371-.689,0-1.378,0-2.067,0v.01" transform="translate(-94.815 -160.011)" fill="#2c519d"/>
          <path id="Trazado_606288" data-name="Trazado 606288" d="M181.995,222.358h-1.931c-.449,0-.446,0-.446-.464,0-1.01.006-2.02,0-3.029,0-.2.047-.286.266-.312a8.129,8.129,0,0,1,.928,0c1.043-.006,2.086,0,3.129-.022.313-.006.447.048.437.412-.029,1.031-.017,2.063,0,3.1,0,.245-.059.33-.313.323-.688-.016-1.376-.005-2.064-.005Z" transform="translate(-131.52 -160.015)" fill="#2c519d"/>
          <path id="Trazado_606289" data-name="Trazado 606289" d="M232.331,222.365c-.677,0-1.355-.006-2.032,0-.227,0-.314-.066-.311-.3q.016-1.615,0-3.23c0-.225.1-.3.3-.29,1.4.05,2.8.016,4.2,0,.185,0,.262.065.262.25q-.006,1.664,0,3.329c0,.26-.184.239-.346.24-.688,0-1.377,0-2.065,0" transform="translate(-168.404 -160.025)" fill="#2c519d"/>
          <path id="Trazado_606290" data-name="Trazado 606290" d="M207.22,218.519c.655,0,1.31.008,1.964,0,.28,0,.386.086.381.383-.016,1.043-.01,2.086,0,3.129,0,.232-.077.322-.3.322q-2.1-.007-4.2-.005c-.209,0-.262-.09-.261-.283.006-1.087.009-2.175,0-3.262,0-.3.214-.272.383-.274.566,0,1.132.012,1.7.02.111,0,.222,0,.333,0Z" transform="translate(-149.965 -160.004)" fill="#2c519d"/>
          <path id="Trazado_606291" data-name="Trazado 606291" d="M106.659,222.268c-.678,0-1.357-.006-2.035,0-.21,0-.3-.056-.294-.281.01-1.067.008-2.134,0-3.2,0-.207.059-.305.285-.295,1.378.066,2.756,0,4.133-.035.262-.006.346.065.342.334q-.022,1.583,0,3.167c0,.262-.1.325-.333.323-.7-.006-1.4,0-2.1,0v-.015" transform="translate(-76.394 -159.964)" fill="#2c519d"/>
          <path id="Trazado_606292" data-name="Trazado 606292" d="M32.613,139.5a3.125,3.125,0,0,1,.713.012,2.314,2.314,0,0,1-.713-.012" transform="translate(-23.88 -102.139)" fill="#2c519d"/>
          <path id="Trazado_606293" data-name="Trazado 606293" d="M79.679,139.546l.738.005a2.069,2.069,0,0,1-.738-.005" transform="translate(-58.344 -102.18)" fill="#2c519d"/>
          <path id="Trazado_606294" data-name="Trazado 606294" d="M32.9,22.428a1.327,1.327,0,0,1-.72,0,2.28,2.28,0,0,1,.72,0" transform="translate(-23.563 -16.402)" fill="#2c519d"/>
          <path id="Trazado_606295" data-name="Trazado 606295" d="M23.02,22.461a.6.6,0,0,1-.32.025c.1-.1.21-.058.32-.025" transform="translate(-16.622 -16.419)" fill="#2c519d"/>
          <path id="Trazado_606296" data-name="Trazado 606296" d="M22.356,22.673a.2.2,0,0,1-.04.193c-.049-.077-.173-.17.04-.193" transform="translate(-16.282 -16.602)" fill="#2c519d"/>
          <path id="Trazado_606297" data-name="Trazado 606297" d="M96.316,139.539l.075-.019c-.017.038-.043.04-.075.019" transform="translate(-70.526 -102.161)" fill="#2c519d"/>
          <path id="Trazado_606298" data-name="Trazado 606298" d="M172.586,22.457c-.035.054-.076.062-.122.013l.122-.013" transform="translate(-126.284 -16.444)" fill="#2c519d"/>
          <path id="Trazado_606299" data-name="Trazado 606299" d="M58.391,139.577l.015-.014.013.015h-.028" transform="translate(-42.755 -102.193)" fill="#2c519d"/>
          <path id="Trazado_606300" data-name="Trazado 606300" d="M59.389,139.607l.014-.017.012.02-.027,0" transform="translate(-43.486 -102.212)" fill="#2c519d"/>
          <path id="Trazado_606301" data-name="Trazado 606301" d="M95.542,139.593h0" transform="translate(-69.959 -102.215)" fill="#2c519d"/>
          <path id="Trazado_606302" data-name="Trazado 606302" d="M96.776,138.592l-.011-.011.012-.01v.021" transform="translate(-70.854 -101.466)" fill="#2c519d"/>
          <path id="Trazado_606303" data-name="Trazado 606303" d="M96.741,139.342l0-.007,0,.007" transform="translate(-70.837 -102.026)" fill="#2c519d"/>
          <path id="Trazado_606304" data-name="Trazado 606304" d="M162.208,160.369c0-.714-.021-1.836.007-2.958a1.556,1.556,0,0,1,1.476-1.552,2.547,2.547,0,0,1,1.548.639c.747.492,1.5.981,2.228,1.5.652.468,1.363.853,2.044,1.279a1.739,1.739,0,0,1,1.026,1.568,1.62,1.62,0,0,1-.7,1.208c-.655.544-1.373.981-2.06,1.467-.93.66-1.852,1.335-2.846,1.9-.025.015-.036.053-.061.072a1.462,1.462,0,0,1-1.65.288,1.511,1.511,0,0,1-.966-1.309c-.076-1.233,0-2.466-.051-4.108m2.025,3.1c.011.1.055.1.118.037,1.128-.8,2.245-1.616,3.445-2.308.455-.262.461-.4.018-.691q-1.642-1.074-3.291-2.137c-.266-.171-.306-.146-.306.172q.005,2.464.016,4.928" transform="translate(-118.768 -114.124)" fill="#060607"/>
          <path id="Trazado_606305" data-name="Trazado 606305" d="M72.795,30.25l.282-.025a2.665,2.665,0,0,0,.65.021,4.759,4.759,0,0,1,3.109,1.568,4.834,4.834,0,1,1-7.417,6.179,4.861,4.861,0,0,1,3.317-7.738l.031.007Zm.469,2.017a2.826,2.826,0,0,0-2.874,2.764,2.93,2.93,0,0,0,3,2.9,2.77,2.77,0,0,0,2.736-2.808,2.716,2.716,0,0,0-2.86-2.861" transform="translate(-50.11 -22.132)" fill="#060607"/>
          <path id="Trazado_606306" data-name="Trazado 606306" d="M86.42,30.145a2.677,2.677,0,0,1-.65-.021,1.128,1.128,0,0,1,.65.021" transform="translate(-62.804 -22.03)" fill="#2c519d"/>
          <path id="Trazado_606307" data-name="Trazado 606307" d="M84.553,30.264l-.029.013-.031-.007c.018-.028.037-.036.061-.005" transform="translate(-61.868 -22.146)" fill="#2c519d"/>
          <path id="Trazado_606308" data-name="Trazado 606308" d="M169.748,170.065q-.008-2.464-.016-4.928c0-.318.04-.343.306-.172q1.649,1.064,3.291,2.137c.443.29.437.429-.018.691-1.2.692-2.317,1.509-3.445,2.308l-.118-.037" transform="translate(-124.283 -120.716)" fill="#f6f8fa"/>
          <path id="Trazado_606309" data-name="Trazado 606309" d="M169.792,184.3l.118.037c-.063.063-.107.066-.118-.037" transform="translate(-124.327 -134.95)" fill="#51a974"/>
          <path id="Trazado_606310" data-name="Trazado 606310" d="M78.609,37.8a2.716,2.716,0,0,1,2.86,2.861,2.77,2.77,0,0,1-2.736,2.808,2.93,2.93,0,0,1-3-2.9A2.826,2.826,0,0,1,78.609,37.8" transform="translate(-55.455 -27.664)" fill="#e34b5d"/>
        </g>
      </g>
    </g>
  </g>
</svg>
