<svg xmlns="http://www.w3.org/2000/svg" xmlns:xlink="http://www.w3.org/1999/xlink" width="142" height="142" viewBox="0 0 142 142">
  <defs>
    <clipPath id="clip-path">
      <rect id="Rect치ngulo_377440" data-name="Rect치ngulo 377440" width="85.333" height="85.007" fill="none"/>
    </clipPath>
  </defs>
  <g id="Grupo_1072954" data-name="Grupo 1072954" transform="translate(-1028.999 -7022)">
    <g id="Grupo_1015037" data-name="Grupo 1015037" transform="translate(1028.999 7022)">
      <g id="Grupo_159183" data-name="Grupo 159183" transform="translate(0 0)">
        <g id="Grupo_1015569" data-name="Grupo 1015569">
          <g id="Grupo_1015568" data-name="Grupo 1015568">
            <path id="Uni칩n_12" data-name="Uni칩n 12" d="M101.655,135.059a71.06,71.06,0,1,1,23.7-18.381L135.108,142Z" fill="#a3bfe4"/>
            <path id="Trazado_606158" data-name="Trazado 606158" d="M55.281,0A55.281,55.281,0,1,1,0,55.281,55.281,55.281,0,0,1,55.281,0Z" transform="translate(15.831 15.83)" fill="#fffbe5"/>
          </g>
        </g>
        <g id="Grupo_1072959" data-name="Grupo 1072959" transform="translate(37 29.497)">
          <g id="Grupo_1072958" data-name="Grupo 1072958" clip-path="url(#clip-path)">
            <path id="Trazado_819219" data-name="Trazado 819219" d="M66.486,54.547a1.731,1.731,0,0,1-.092,1.345c-.525-.294-1.037-.613-1.576-.876A19.8,19.8,0,0,0,58.1,53.208,17.018,17.018,0,0,0,52,53.839a17.116,17.116,0,0,0-7.4,4.008A19.5,19.5,0,0,0,41.61,61.4a16.661,16.661,0,0,0-2.352,5.134,16.029,16.029,0,0,0-.637,3.866,22.607,22.607,0,0,0,.23,3.962,21.394,21.394,0,0,0,1.584,5.016,16.253,16.253,0,0,0,2.193,3.4,1.521,1.521,0,0,1-1.38.164,1.254,1.254,0,0,0-.388-.089,1.1,1.1,0,0,0-.713-1.337,3.177,3.177,0,0,0-1.062-.13q-13.3,0-26.6,0c-.556,0-1.114.011-1.669-.019a4.08,4.08,0,0,1-3.472-2.273A5.945,5.945,0,0,1,6.8,76.03q.016-21.8.009-43.6,0-10.356-.005-20.713a4.928,4.928,0,0,1,.415-2.277A4.653,4.653,0,0,1,8.972,7.476a4.933,4.933,0,0,1,2.572-.566q24.425.016,48.85,0a5.823,5.823,0,0,1,1.67.17,4.161,4.161,0,0,1,3.018,3,8.867,8.867,0,0,1,.18,2.508c0,.035,0,.071,0,.106,0,.076,0,.152,0,.228,0,.036,0,.071,0,.107q0,.114,0,.228c0,.036,0,.071,0,.107l0,.227c0,.036,0,.071,0,.107q0,9.637,0,19.274c0,.036,0,.071,0,.107,0,.076,0,.152,0,.227,0,.036,0,.071,0,.107q0,.114-.005.227c0,.036,0,.071,0,.107l-.009.563.007.1v.228l.005.107q0,.615-.005,1.23c0,.036,0,.071,0,.107,0,.075,0,.151,0,.227,0,.036,0,.071,0,.107q0,7.131,0,14.262c0,.036,0,.071,0,.107q-.006.616-.012,1.232c0,.034,0,.068,0,.1q0,.115,0,.23c0,.035.005.07.007.106.007.289.011.578.022.867.033.861.345,1.179,1.2,1.224M25.64,40.893c.378-.488.755-.978,1.135-1.464.8-1.024,1.618-2.035,2.4-3.075a1.141,1.141,0,0,0-.158-1.6,1.255,1.255,0,0,0-1.636.22c-.464.55-.9,1.12-1.348,1.686-.563.719-1.115,1.447-1.739,2.117a13.893,13.893,0,0,0-1.633-.022,1.3,1.3,0,0,0-1.5-1.081q-4.507-.007-9.014,0a2.91,2.91,0,0,0-.5.049,1.243,1.243,0,0,0-.954.912,5.344,5.344,0,0,0-.038,1.58c-.018,3.938-.013,7.876-.011,11.813,0,.25.026.5.046.749a1.213,1.213,0,0,0,1.058,1.035c.67.049,1.334,0,2,0l9.64.006c.709,0,1.419.016,2.128,0,.867-.019,1.289-.446,1.3-1.374q.028-3.986,0-7.973a1.154,1.154,0,0,0-1.241-1.317L25.589,43a.15.15,0,0,0,0-.238c0-.058,0-.117,0-.175.067-.052.07-.1,0-.159q0-.423,0-.847c.12-.221.037-.457.052-.686m-.1-21.264.052.033-.054-.037a10.088,10.088,0,0,1,1.095-1.432c.874-1.11,1.794-2.184,2.607-3.34a1.176,1.176,0,0,0-.278-1.588,1.252,1.252,0,0,0-1.553.218c-.285.333-.546.686-.81,1.036-.665.884-1.359,1.745-2.091,2.575a6.955,6.955,0,0,0-1.86-.038,1.649,1.649,0,0,0-1.612-.819c-1.071.027-2.143,0-3.214.007-2.017.006-4.034.01-6.051.03a1.183,1.183,0,0,0-1.073.949,6.686,6.686,0,0,0-.036,1.791c-.023,3.549-.012,7.1-.009,10.647,0,.472.031.947.022,1.415A1.16,1.16,0,0,0,11.81,32.4c.611.017,1.224.009,1.836.009q6.01-.005,12.019-.013a1.016,1.016,0,0,0,.908-.529,1.76,1.76,0,0,0,.244-.968c0-2.464-.02-4.927.01-7.39.011-.888-.136-1.6-1.143-1.81a.126.126,0,0,1-.035-.022c-.01-.1.025-.21-.052-.3l-.071-1.744Zm-.044,42.837c.367-.462.738-.923,1.1-1.388.886-1.133,1.81-2.236,2.647-3.409a1.106,1.106,0,0,0-.614-1.653,1.2,1.2,0,0,0-1.429.56c-1.054,1.3-2.042,2.654-3.152,3.908l-1.385-.013c-.105-1.207-.77-1.4-1.609-1.388-.709.01-1.419.005-2.129.008-2.378.01-4.757.011-7.135.036a1.07,1.07,0,0,0-1.1,1.086c-.023.375-.043.751-.043,1.126q-.005,5.406,0,10.813c0,.654.028,1.307.043,1.961a1.236,1.236,0,0,0,1.219,1.139c1.975-.014,3.951.01,5.926.009,2.629,0,5.259-.013,7.888-.02a1.167,1.167,0,0,0,1.021-.944c.093-.729,0-1.454.021-2.175.057-2-.012-4,.048-5.995.026-.861-.155-1.433-1.256-1.589l.04-.239c.007-.007.02-.015.019-.021a.282.282,0,0,0-.019-.049l-.007-.26c.008-.007.023-.016.022-.022a.268.268,0,0,0-.019-.054l0-.931c.053-.183.172-.378-.1-.5M57.132,24.8c.091.092.173.072.25-.02.217.094.406-.05.595-.1.449-.112.677-.557.659-1.16a.981.981,0,0,0-.712-.908,3.2,3.2,0,0,0-1.1-.133q-9.85,0-19.7,0c-1.1,0-2.2-.05-3.292.049a1.13,1.13,0,0,0-.867,1.746,1.367,1.367,0,0,0,1.341.548q10.559-.01,21.119-.012c.57,0,1.139-.01,1.709-.016M45.591,16.243q-4.3,0-8.6,0c-1.029,0-2.059,0-3.089.018a1.145,1.145,0,0,0-1.048.7,1.258,1.258,0,0,0,.5,1.418,1.955,1.955,0,0,0,1.2.191q11.25.015,22.5.007a3.2,3.2,0,0,0,.746-.059.99.99,0,0,0,.822-.786A1.08,1.08,0,0,0,58.17,16.5a2.29,2.29,0,0,0-1.266-.255q-5.656,0-11.313,0m.283,23.742v-.009H57.565a1.143,1.143,0,0,0,1.065-.8,1.2,1.2,0,0,0-.683-1.4,2.93,2.93,0,0,0-.9-.113q-3.277.014-6.555.011-8.1,0-16.2-.007a1.754,1.754,0,0,0-.924.16,1.057,1.057,0,0,0-.521,1.31,1.122,1.122,0,0,0,.963.8c.235.017.471.047.706.047q5.678,0,11.357,0m-.223,6.266v0q5.7,0,11.4,0a3.479,3.479,0,0,0,.783-.08,1.143,1.143,0,0,0,.647-1.69,1.424,1.424,0,0,0-1.381-.543q-11.084-.006-22.168,0a3.125,3.125,0,0,0-1.4.138,1.007,1.007,0,0,0-.712.867c-.047.881.393,1.31,1.352,1.31q5.74,0,11.48,0m-8.94,15.168v.022c.835,0,1.67,0,2.5,0a3.784,3.784,0,0,0,.745-.062,1.136,1.136,0,0,0,.207-2.158,2.794,2.794,0,0,0-.979-.13c-1.628,0-3.256,0-4.884,0a4.978,4.978,0,0,0-.623.047,1.08,1.08,0,0,0-.936,1.136,1.369,1.369,0,0,0,1.129,1.148q1.417,0,2.836,0m-1.356,6.225v0c.542,0,1.085.013,1.626,0a1.2,1.2,0,0,0,1.188-1.047,1.184,1.184,0,0,0-.927-1.192,4.669,4.669,0,0,0-1.286-.069,13.965,13.965,0,0,0-2.412.073,1.147,1.147,0,0,0-.8,1.141c.061.487.565,1.142,1.021,1.109.525-.039,1.056-.009,1.584-.009" transform="translate(-4.519 -4.594)" fill="#e9f5ff"/>
            <path id="Trazado_819220" data-name="Trazado 819220" d="M105.738,170.425a16.266,16.266,0,0,1-2.193-3.4,21.393,21.393,0,0,1-1.584-5.016,22.574,22.574,0,0,1-.23-3.962,16.028,16.028,0,0,1,.636-3.866,16.661,16.661,0,0,1,2.352-5.134,19.485,19.485,0,0,1,2.993-3.558,18.611,18.611,0,0,1,13.5-4.64,19.811,19.811,0,0,1,6.714,1.809c.54.262,1.052.582,1.576.876a23.2,23.2,0,0,1,3.42,2.758,20.466,20.466,0,0,1,1.929,2.377c.156.219.3.214.461.121,1.01-.584,2.014-1.18,3.015-1.779a.319.319,0,0,0,.167-.3c-.015-1.336-.027-2.671,0-4.007a1.06,1.06,0,0,1,.574-.905c1.527-.913,3.085-1.774,4.626-2.664a1.585,1.585,0,0,1,1.434-.308,1.133,1.133,0,0,1,.749.871,17.226,17.226,0,0,1,.072,2.285c.018.473.094.54.526.3,1.038-.57,2.061-1.165,3.089-1.751.5-.287.995-.593,1.507-.86a1.208,1.208,0,0,1,1.85.662,1.165,1.165,0,0,1-.571,1.295c-1.118.663-2.25,1.3-3.376,1.954l-1.6.925c-.263.152-.169.236.041.357.654.374,1.306.753,1.94,1.158.956.611.946,1.449.005,2.083-1.348.908-2.794,1.647-4.188,2.475a2.64,2.64,0,0,1-1.339.546,1.766,1.766,0,0,1-1.056-.33,14.249,14.249,0,0,0-2.187-1.254,1.9,1.9,0,0,1-.311-.245,1.053,1.053,0,0,0-1.315.042c-.817.523-1.675.982-2.513,1.472-.078.046-.182.091-.152.22-.024.054.008.077.051.095.248.8.62,1.548.877,2.348a18.515,18.515,0,0,1,.613,2.506,15.6,15.6,0,0,1,.283,3.953,22.514,22.514,0,0,1-.833,4.475,16.672,16.672,0,0,1-3.461,6.367,18.772,18.772,0,0,1-4.236,3.686,19.192,19.192,0,0,1-6.269,2.44,17.032,17.032,0,0,1-5.034.263,19.709,19.709,0,0,1-4.583-1.041,17.393,17.393,0,0,1-5.329-3.022,18.029,18.029,0,0,1-2.307-2.339c-.1-.122-.225-.228-.338-.341m35.076-23.57.037.079c.033.044.057.1.1.129.879.5,1.762,1,2.641,1.5a.5.5,0,0,0,.546-.045c.394-.233.79-.462,1.184-.7s.813-.484,1.279-.762l-2.278-1.3a1.25,1.25,0,0,1-.705-1.213c.026-.75,0-1.5.01-2.251.006-.305-.1-.342-.339-.2-.815.471-1.654.9-2.431,1.438a.18.18,0,0,0-.054.228l.009,3.1m-30.837,12.366a10.257,10.257,0,0,0,.658,3.392,10.05,10.05,0,0,0,9.169,6.355,8.706,8.706,0,0,0,2.377-.25,10.178,10.178,0,0,0,5.394-3.32,10.358,10.358,0,0,0,2.269-5.648,8.094,8.094,0,0,0-.069-2.028,8.844,8.844,0,0,0-.553-2.224c-.17-.393-.334-.332-.577-.2-.893.493-1.778,1-2.666,1.5a.328.328,0,0,0-.136.4c.035.185.1.364.136.55a6.03,6.03,0,0,1-3.467,6.9,6,6,0,0,1-5.9-.363,6.162,6.162,0,0,1-2.229-8.081,6.012,6.012,0,0,1,2.512-2.655,5.875,5.875,0,0,1,4.272-.6,6.114,6.114,0,0,1,3.242,1.786.376.376,0,0,0,.545.053c.856-.5,1.7-1.021,2.575-1.495.341-.185.306-.318.094-.574a10.236,10.236,0,0,0-3.671-2.786,9.357,9.357,0,0,0-2.972-.761,10.3,10.3,0,0,0-3.194.138,9.5,9.5,0,0,0-4.714,2.566,10.285,10.285,0,0,0-2.722,4.377,13.639,13.639,0,0,0-.363,2.713c-.159.076-.159.16-.012.251m9.052-16.05c-.707.1-1.42.109-2.126.25a15.89,15.89,0,0,0-7.507,3.709,15.343,15.343,0,0,0-3.812,5.018,15.011,15.011,0,0,0-1.487,5.935.146.146,0,0,0-.021.187,13.058,13.058,0,0,0,.055,2.318,16.725,16.725,0,0,0,.466,2.586,15.93,15.93,0,0,0,5.752,8.521,15.5,15.5,0,0,0,5.5,2.689c.469.126.972.125,1.423.257a8.113,8.113,0,0,0,1.819.27,15.539,15.539,0,0,0,3.545-.223,16.524,16.524,0,0,0,6.412-2.647,14.692,14.692,0,0,0,3.98-4,15.8,15.8,0,0,0,2.6-6.591,16.747,16.747,0,0,0-1.208-8.972c-.13-.3-.277-.332-.537-.179q-1.312.771-2.633,1.526c-.154.087-.185.164-.107.327a11.472,11.472,0,0,1,1.028,4.224,10.994,10.994,0,0,1-.4,3.774,12.13,12.13,0,0,1-7.188,8.2,10.735,10.735,0,0,1-3.791.9,14.706,14.706,0,0,1-2.027-.057,12.53,12.53,0,0,1-2.533-.462,11.559,11.559,0,0,1-5.847-4.031,12.312,12.312,0,0,1-2.657-6.532,12.772,12.772,0,0,1,.447-4.735,10.489,10.489,0,0,1,1.582-3.223,13.02,13.02,0,0,1,3.668-3.558,12.153,12.153,0,0,1,8.739-1.676,11.458,11.458,0,0,1,3.8,1.4,11.817,11.817,0,0,1,3.625,3.173.476.476,0,0,0,.744.149c.831-.478,1.659-.962,2.491-1.439.2-.116.236-.229.085-.427a16.051,16.051,0,0,0-12.3-6.654l0-.018-.006.018-.245-.012a3.5,3.5,0,0,0-1.337.012m-2.955,15.817a3.28,3.28,0,0,0,.008.749,3.915,3.915,0,0,0,5.345,2.893,3.768,3.768,0,0,0,2.333-4.062c-.081-.5-.3-.232-.469-.137-1.088.614-2.168,1.244-3.252,1.866a1.387,1.387,0,0,1-.859.254,1.344,1.344,0,0,1-1.018-.99,1.119,1.119,0,0,1,.489-1.118,2.874,2.874,0,0,1,.351-.223c1.1-.628,2.19-1.262,3.294-1.877.258-.144.247-.243.043-.417a3.363,3.363,0,0,0-.841-.424,3.739,3.739,0,0,0-2.266-.3,3.815,3.815,0,0,0-3.158,3.789" transform="translate(-67.628 -92.24)" fill="#010000"/>
            <path id="Trazado_819221" data-name="Trazado 819221" d="M60.74,47.757c0-.077,0-.154,0-.23.058-.036.053-.07,0-.1q.007-.615.013-1.232c.058-.038.056-.074,0-.107q0-7.131,0-14.262c.058-.038.056-.074,0-.107,0-.076,0-.152,0-.227.058-.038.056-.074,0-.107l.005-1.23c.058-.039.055-.074-.005-.107,0-.076,0-.152,0-.228.058-.039.05-.073-.007-.1l.009-.563c.059-.038.057-.073,0-.106l.005-.228c.058-.038.056-.073,0-.107,0-.076,0-.151,0-.227.058-.038.056-.074,0-.107l0-19.274c.058-.038.056-.074,0-.107l0-.228c.058-.038.056-.073,0-.107,0-.076,0-.151,0-.227.059-.038.056-.074,0-.107q0-.114,0-.228c.059-.038.056-.073,0-.107a8.86,8.86,0,0,0-.18-2.508,4.161,4.161,0,0,0-3.017-3,5.849,5.849,0,0,0-1.67-.17q-24.425.009-48.85,0a4.939,4.939,0,0,0-2.572.566A4.658,4.658,0,0,0,2.7,4.85a4.933,4.933,0,0,0-.415,2.277q0,10.357.005,20.713,0,21.8-.01,43.6A5.948,5.948,0,0,0,2.83,74.5,4.081,4.081,0,0,0,6.3,76.772c.555.031,1.113.019,1.669.019q13.3,0,26.6,0a3.171,3.171,0,0,1,1.062.13,1.1,1.1,0,0,1,.713,1.337,1.114,1.114,0,0,1-1.085.863c-.388.026-.778.025-1.168.025q-13.715,0-27.43,0a6.464,6.464,0,0,1-4.246-1.516A6.569,6.569,0,0,1,.007,72.3c.031-7.267.017-14.532.018-21.8q0-20.922,0-41.843c0-.7-.02-1.391-.023-2.086A6.7,6.7,0,0,1,4.039.526,7.728,7.728,0,0,1,7.132,0Q24.73,0,42.328,0c4.578,0,9.157-.008,13.736,0A6.637,6.637,0,0,1,62.8,4.8a7.852,7.852,0,0,1,.282,2.355q0,20.067,0,40.134c0,.4.029.807.022,1.21-.016.891-.351,1.332-1.136,1.455-.854-.045-1.166-.363-1.2-1.224-.011-.289-.015-.578-.022-.867.059-.04.052-.074-.007-.106" transform="translate(-0.001 0)" fill="#010000"/>
            <path id="Trazado_819222" data-name="Trazado 819222" d="M204.9,175.493c-.043-.017-.075-.041-.051-.095l.051.095" transform="translate(-136.175 -116.601)" fill="#e9f5ff"/>
            <path id="Trazado_819223" data-name="Trazado 819223" d="M33.21,40.168a.121.121,0,0,0,.035.022c1.006.21,1.153.922,1.142,1.81-.03,2.463-.011,4.927-.01,7.39a1.762,1.762,0,0,1-.245.968,1.016,1.016,0,0,1-.908.529q-6.01.01-12.019.013c-.612,0-1.225.009-1.836-.008a1.159,1.159,0,0,1-1.14-1.322c.009-.468-.021-.944-.022-1.415,0-3.549-.014-7.1.008-10.647a6.672,6.672,0,0,1,.037-1.791,1.182,1.182,0,0,1,1.073-.95c2.017-.02,4.034-.023,6.051-.03,1.071,0,2.143.02,3.214-.007a1.649,1.649,0,0,1,1.612.819c0,1.048-.273,1.406-1.129,1.5H29.07l-8.032.013a.932.932,0,0,0-.487.071l-.011.014c0,.529.007,1.057.007,1.586q-.005,4.716-.014,9.431c0,.238-.015.416.338.415q5.381-.029,10.763-.018c.311,0,.418-.063.415-.4-.017-2.17-.01-4.34-.008-6.51a1.31,1.31,0,0,1,1.1-1.48l.033.011Z" transform="translate(-12.08 -23.086)" fill="#010000"/>
            <path id="Trazado_819224" data-name="Trazado 819224" d="M33.185,168c1.1.156,1.282.727,1.256,1.589-.06,2,.009,4-.048,5.995-.021.721.072,1.446-.021,2.175a1.167,1.167,0,0,1-1.021.944c-2.629.007-5.259.018-7.888.019-1.975,0-3.951-.023-5.926-.009a1.235,1.235,0,0,1-1.219-1.139c-.015-.653-.042-1.307-.043-1.961q-.006-5.406,0-10.813c0-.375.02-.751.043-1.126a1.069,1.069,0,0,1,1.1-1.086c2.378-.024,4.757-.026,7.135-.036.709,0,1.419,0,2.128-.008.839-.011,1.5.181,1.609,1.388-.218.206-.187.561-.479.738a2.31,2.31,0,0,1-1.27.243q-3.746,0-7.491-.005c-.223,0-.468-.032-.456.312h0q.006,5.31.011,10.62a.035.035,0,0,0,0,.058c.029.176-.116.417.183.493v.02l0-.02,10.1,0,.007.022.007-.023.32,0,.006.022.006-.022h.32l.008.022.008-.022c.424.071.552-.087.547-.531-.025-2.171,0-4.342-.015-6.513,0-.8.244-1.1,1.082-1.349" transform="translate(-12.148 -108.058)" fill="#010000"/>
            <path id="Trazado_819225" data-name="Trazado 819225" d="M33.129,104.151a1.154,1.154,0,0,1,1.241,1.317q.032,3.986,0,7.973c-.007.928-.429,1.355-1.3,1.373-.709.016-1.419,0-2.128,0l-9.64-.006c-.667,0-1.331.05-2,0a1.212,1.212,0,0,1-1.058-1.035c-.019-.249-.046-.5-.046-.749,0-3.938-.007-7.876.011-11.814a5.341,5.341,0,0,1,.038-1.58,1.243,1.243,0,0,1,.954-.912,2.944,2.944,0,0,1,.5-.049q4.507,0,9.014,0a1.3,1.3,0,0,1,1.5,1.081c-.111.914-.461,1.229-1.381,1.241-.18,0-.361,0-.541,0l-7.666.019-.008,0-.09.269v0q0,5.365,0,10.73c0,.164-.043.337.077.482l.008.018.019,0q5.543,0,11.087.01c.32,0,.315-.16.315-.388q-.006-3.4,0-6.8a1.159,1.159,0,0,1,1.085-1.189" transform="translate(-12.08 -65.592)" fill="#010000"/>
            <path id="Trazado_819226" data-name="Trazado 819226" d="M37.8,106.272a1.159,1.159,0,0,0-1.085,1.189q-.01,3.4,0,6.8c0,.228.005.389-.315.388q-5.543-.017-11.086-.01l-.006-.024-.021.01c-.12-.145-.077-.318-.077-.482q0-5.365,0-10.73h.019l-.019,0c.03-.089.06-.179.09-.269l.01.012v-.017l7.666-.019c.18,0,.361,0,.541,0,.92-.012,1.27-.327,1.381-1.241a13.967,13.967,0,0,1,1.633.022.157.157,0,0,1-.016.038l-3.272,4.1q-1.092,1.37-2.184,2.739c-.259.326-.329.323-.534,0-.682-1.081-1.381-2.151-2.044-3.243a1.256,1.256,0,0,0-1.261-.665,1.071,1.071,0,0,0-.914,1.455c1.045,1.9,2.22,3.72,3.409,5.53a1.077,1.077,0,0,0,1.293.407,1.7,1.7,0,0,0,.726-.607c1.538-1.92,3.067-3.848,4.616-5.759a9.688,9.688,0,0,1,1.364-1.613c.04.14-.007.3.115.421q0,.423,0,.846l0,.159c0,.058,0,.116,0,.175l0,.238-.021.157" transform="translate(-16.756 -67.712)" fill="#fdd201"/>
            <path id="Trazado_819227" data-name="Trazado 819227" d="M37.826,41.7a1.31,1.31,0,0,0-1.1,1.48c0,2.17-.01,4.34.008,6.51,0,.341-.1.4-.415.4q-5.382-.007-10.763.018c-.353,0-.339-.177-.338-.415q.01-4.716.014-9.431c0-.528,0-1.057-.007-1.585l.021.007-.01-.021a.924.924,0,0,1,.487-.071l8.032-.013,0,.02,0-.021c.857-.094,1.126-.451,1.13-1.5a6.953,6.953,0,0,1,1.86.038,1.506,1.506,0,0,1-.14.252c-1.91,2.263-3.72,4.607-5.562,6.924-.214.27-.351.246-.522-.035-.384-.628-.776-1.252-1.182-1.866a15.357,15.357,0,0,0-1.175-1.768,1.046,1.046,0,0,0-1.434-.11,1.068,1.068,0,0,0-.388,1.358C27.356,43.7,28.49,45.45,29.627,47.2c.555.852,1.394.834,2.048.022,1.568-1.949,3.114-3.917,4.689-5.86a13.97,13.97,0,0,1,1.407-1.695l.071,1.744c0,.1-.01.2-.014.3" transform="translate(-16.763 -24.624)" fill="#fdd201"/>
            <path id="Trazado_819228" data-name="Trazado 819228" d="M36.158,179.15h-.333l-.32,0h-.015l-10.1,0H25.39c-.3-.076-.154-.317-.183-.492a.124.124,0,0,0,.023-.011c-.006-.016-.015-.032-.023-.047q-.006-5.31-.011-10.62c-.012-.344.233-.313.456-.312q3.746,0,7.491.005a2.309,2.309,0,0,0,1.27-.243c.293-.178.261-.532.479-.738l1.385.013a8.1,8.1,0,0,1-1.148,1.375c-.609.768-1.243,1.52-1.847,2.289-.771.983-1.572,1.948-2.267,2.991-.185.279-.337.257-.5-.035-.263-.458-.552-.9-.832-1.349-.445-.711-.882-1.428-1.34-2.13-.4-.613-1.529-.72-1.861-.191a1.3,1.3,0,0,0-.026,1.537c.436.66.827,1.351,1.246,2.023.632,1.014,1.276,2.021,1.908,3.036a1.141,1.141,0,0,0,1.911.156c.857-.96,1.6-2.011,2.444-2.986.4-.46.765-.971,1.133-1.469.512-.692,1.073-1.35,1.613-2.021a3.543,3.543,0,0,1,.992-1.1l.123.349,0,.931a.07.07,0,0,0,0,.076l.007.26a.061.061,0,0,0,0,.07l-.04.239c-.838.249-1.086.551-1.082,1.349.012,2.171-.01,4.342.015,6.513.005.444-.123.6-.547.531h-.016" transform="translate(-16.75 -110.813)" fill="#fdd201"/>
            <path id="Trazado_819229" data-name="Trazado 819229" d="M97.159,34.752q5.656,0,11.313,0a2.294,2.294,0,0,1,1.267.255,1.081,1.081,0,0,1,.452,1.235.99.99,0,0,1-.822.786,3.2,3.2,0,0,1-.746.059q-11.25,0-22.5-.007a1.956,1.956,0,0,1-1.2-.191,1.258,1.258,0,0,1-.5-1.418,1.146,1.146,0,0,1,1.048-.7c1.029-.017,2.059-.017,3.088-.018q4.3,0,8.6,0" transform="translate(-56.087 -23.102)" fill="#010000"/>
            <path id="Trazado_819230" data-name="Trazado 819230" d="M108.659,55.66c-.57.005-1.139.015-1.709.016q-10.559.006-21.118.012a1.367,1.367,0,0,1-1.341-.548,1.13,1.13,0,0,1,.867-1.746c1.1-.1,2.2-.048,3.293-.049q9.85-.011,19.7,0a3.2,3.2,0,0,1,1.1.133.981.981,0,0,1,.712.908c.018.6-.21,1.049-.659,1.16-.189.047-.378.191-.595.1-.094-.131-.178-.139-.25.02" transform="translate(-56.045 -35.454)" fill="#010000"/>
            <path id="Trazado_819231" data-name="Trazado 819231" d="M97.395,100.974q-5.678,0-11.357,0c-.235,0-.471-.03-.706-.047a1.122,1.122,0,0,1-.963-.8,1.057,1.057,0,0,1,.521-1.31,1.754,1.754,0,0,1,.924-.16q8.1,0,16.2.007,3.277,0,6.555-.011a2.929,2.929,0,0,1,.9.113,1.2,1.2,0,0,1,.683,1.4,1.143,1.143,0,0,1-1.065.8H97.395Z" transform="translate(-56.04 -65.582)" fill="#010000"/>
            <path id="Trazado_819232" data-name="Trazado 819232" d="M97.248,119.649q-5.74,0-11.481,0c-.959,0-1.4-.43-1.352-1.31a1.008,1.008,0,0,1,.712-.868,3.125,3.125,0,0,1,1.4-.138q11.084-.012,22.168,0a1.423,1.423,0,0,1,1.381.543,1.143,1.143,0,0,1-.647,1.69,3.479,3.479,0,0,1-.782.08q-5.7.007-11.4,0Z" transform="translate(-56.115 -77.992)" fill="#010000"/>
            <path id="Trazado_819233" data-name="Trazado 819233" d="M39.715,159.9a3.55,3.55,0,0,0-.992,1.1c-.54.672-1.1,1.329-1.613,2.021-.368.5-.736,1.009-1.133,1.469-.841.975-1.587,2.027-2.444,2.986a1.141,1.141,0,0,1-1.911-.156c-.632-1.014-1.275-2.021-1.907-3.036-.419-.672-.81-1.363-1.246-2.023a1.3,1.3,0,0,1,.026-1.537c.332-.529,1.461-.422,1.861.191.458.7.9,1.419,1.34,2.13.28.448.569.891.832,1.349.167.291.319.313.5.035.694-1.043,1.5-2.009,2.266-2.992.6-.769,1.238-1.521,1.847-2.289a8.127,8.127,0,0,0,1.148-1.375c1.11-1.255,2.1-2.608,3.152-3.908a1.2,1.2,0,0,1,1.429-.56,1.105,1.105,0,0,1,.613,1.652c-.836,1.172-1.761,2.275-2.647,3.409-.364.465-.734.926-1.1,1.388l-.025.149" transform="translate(-18.767 -101.876)" fill="#010000"/>
            <path id="Trazado_819234" data-name="Trazado 819234" d="M39.786,31.879a13.965,13.965,0,0,0-1.406,1.7c-1.575,1.943-3.121,3.911-4.689,5.86-.654.812-1.492.831-2.048-.022-1.137-1.745-2.271-3.494-3.283-5.316a1.068,1.068,0,0,1,.388-1.359,1.046,1.046,0,0,1,1.434.11,15.354,15.354,0,0,1,1.175,1.768c.406.614.8,1.238,1.182,1.866.172.281.308.305.522.036,1.842-2.318,3.652-4.662,5.562-6.924a1.472,1.472,0,0,0,.141-.252c.732-.83,1.426-1.691,2.091-2.575.264-.35.526-.7.81-1.036a1.252,1.252,0,0,1,1.553-.218A1.176,1.176,0,0,1,43.5,27.1c-.814,1.157-1.733,2.231-2.607,3.34a10.091,10.091,0,0,0-1.095,1.433l0,0Z" transform="translate(-18.779 -16.841)" fill="#010000"/>
            <path id="Trazado_819235" data-name="Trazado 819235" d="M39.7,95.951a9.671,9.671,0,0,0-1.364,1.612c-1.549,1.911-3.077,3.84-4.616,5.76a1.7,1.7,0,0,1-.726.607,1.078,1.078,0,0,1-1.293-.407c-1.189-1.811-2.364-3.631-3.409-5.53a1.071,1.071,0,0,1,.914-1.455,1.256,1.256,0,0,1,1.261.665c.662,1.092,1.362,2.162,2.044,3.244.205.326.275.328.534,0l2.184-2.739,3.272-4.1a.178.178,0,0,0,.016-.038c.624-.669,1.176-1.4,1.739-2.117.443-.567.884-1.137,1.348-1.686a1.255,1.255,0,0,1,1.636-.22,1.141,1.141,0,0,1,.158,1.6c-.779,1.04-1.6,2.051-2.4,3.075-.38.486-.757.976-1.135,1.464a.3.3,0,0,0-.167.264" transform="translate(-18.743 -59.388)" fill="#010000"/>
            <path id="Trazado_819236" data-name="Trazado 819236" d="M88.165,164.891q-1.418,0-2.836,0a1.37,1.37,0,0,1-1.129-1.148,1.081,1.081,0,0,1,.936-1.136,5.049,5.049,0,0,1,.624-.046c1.628,0,3.256,0,4.884,0a2.8,2.8,0,0,1,.978.131,1.135,1.135,0,0,1-.207,2.158,3.813,3.813,0,0,1-.745.063c-.835.007-1.67,0-2.5,0v-.022" transform="translate(-55.973 -108.065)" fill="#010000"/>
            <path id="Trazado_819237" data-name="Trazado 819237" d="M86.811,183.466c-.528,0-1.059-.03-1.584.009-.457.034-.961-.621-1.021-1.109a1.147,1.147,0,0,1,.8-1.141,13.966,13.966,0,0,1,2.412-.073,4.669,4.669,0,0,1,1.286.069,1.184,1.184,0,0,1,.927,1.192,1.2,1.2,0,0,1-1.188,1.047c-.542.016-1.084,0-1.626,0Z" transform="translate(-55.975 -120.416)" fill="#010000"/>
            <path id="Trazado_819238" data-name="Trazado 819238" d="M62.508,108.548a.3.3,0,0,1,.167-.264c-.015.229.067.465-.052.686-.123-.117-.076-.281-.115-.421" transform="translate(-41.554 -71.985)" fill="#f8f9fb"/>
            <path id="Trazado_819239" data-name="Trazado 819239" d="M62.492,172.787l.025-.148c.269.119.151.315.1.5l-.123-.349" transform="translate(-41.543 -114.767)" fill="#f8f9fb"/>
            <path id="Trazado_819240" data-name="Trazado 819240" d="M156.952,60.04c.071-.159.156-.151.25-.02-.076.092-.159.112-.25.02" transform="translate(-104.339 -39.834)" fill="#61666a"/>
            <path id="Trazado_819241" data-name="Trazado 819241" d="M62.836,50.359c0-.1.01-.2.014-.3.078.09.042.2.052.3l-.034.008Z" transform="translate(-41.772 -33.28)" fill="#f8f9fb"/>
            <path id="Trazado_819242" data-name="Trazado 819242" d="M62.85,114.089l0-.238a.15.15,0,0,1,0,.238" transform="translate(-41.78 -75.686)" fill="#f8f9fb"/>
            <path id="Trazado_819243" data-name="Trazado 819243" d="M62.838,113.014l0-.159c.067.054.064.107,0,.159" transform="translate(-41.773 -75.024)" fill="#f8f9fb"/>
            <path id="Trazado_819244" data-name="Trazado 819244" d="M181.207,85.642c.06.033.063.069,0,.107,0-.036,0-.071,0-.107" transform="translate(-120.463 -56.933)" fill="#61666a"/>
            <path id="Trazado_819245" data-name="Trazado 819245" d="M62.855,177.973a.062.062,0,0,1,0-.07.282.282,0,0,1,.019.049c0,.006-.012.014-.019.021" transform="translate(-41.777 -118.266)" fill="#f8f9fb"/>
            <path id="Trazado_819246" data-name="Trazado 819246" d="M181.182,141.471c.056.033.06.067,0,.1l0-.1" transform="translate(-120.446 -94.047)" fill="#61666a"/>
            <path id="Trazado_819247" data-name="Trazado 819247" d="M181.206,137.478c.06.033.063.069,0,.107,0-.036,0-.071,0-.107" transform="translate(-120.462 -91.393)" fill="#61666a"/>
            <path id="Trazado_819248" data-name="Trazado 819248" d="M181.206,94.613c.06.033.063.069,0,.107,0-.036,0-.071,0-.107" transform="translate(-120.462 -62.897)" fill="#61666a"/>
            <path id="Trazado_819249" data-name="Trazado 819249" d="M181.206,93.617c.06.033.063.069,0,.107,0-.036,0-.071,0-.107" transform="translate(-120.462 -62.235)" fill="#61666a"/>
            <path id="Trazado_819250" data-name="Trazado 819250" d="M181.206,89.629c.06.033.063.069.005.107l-.005-.107" transform="translate(-120.462 -59.584)" fill="#61666a"/>
            <path id="Trazado_819251" data-name="Trazado 819251" d="M62.835,176.975a.07.07,0,0,1,0-.076.3.3,0,0,1,.019.054c0,.006-.014.015-.022.022" transform="translate(-41.765 -117.599)" fill="#f8f9fb"/>
            <path id="Trazado_819252" data-name="Trazado 819252" d="M181.188,88.637c.057.031.065.066.007.1l-.007-.1" transform="translate(-120.45 -58.924)" fill="#61666a"/>
            <path id="Trazado_819253" data-name="Trazado 819253" d="M181.2,86.639c.061.034.063.069,0,.107,0-.036,0-.071,0-.107" transform="translate(-120.461 -57.596)" fill="#61666a"/>
            <path id="Trazado_819254" data-name="Trazado 819254" d="M181.2,23.839c.061.033.063.068,0,.106,0-.035,0-.071,0-.106" transform="translate(-120.46 -15.848)" fill="#61666a"/>
            <path id="Trazado_819255" data-name="Trazado 819255" d="M181.207,84.645c.06.033.063.069,0,.107,0-.036,0-.071,0-.107" transform="translate(-120.463 -56.27)" fill="#61666a"/>
            <path id="Trazado_819256" data-name="Trazado 819256" d="M62.694,44.841l0,0,.054.037-.052-.033" transform="translate(-41.676 -29.807)" fill="#fdd201"/>
            <path id="Trazado_819257" data-name="Trazado 819257" d="M181.207,26.828c.06.033.063.069,0,.107,0-.036,0-.071,0-.107" transform="translate(-120.463 -17.835)" fill="#61666a"/>
            <path id="Trazado_819258" data-name="Trazado 819258" d="M181.205,25.832c.06.033.063.068,0,.107Z" transform="translate(-120.462 -17.173)" fill="#61666a"/>
            <path id="Trazado_819259" data-name="Trazado 819259" d="M181.2,24.836c.06.033.063.068,0,.106,0-.035,0-.071,0-.106" transform="translate(-120.46 -16.51)" fill="#61666a"/>
            <path id="Trazado_819260" data-name="Trazado 819260" d="M181.193,142.465c.059.032.066.066.007.106l-.007-.106" transform="translate(-120.454 -94.708)" fill="#61666a"/>
            <path id="Trazado_819261" data-name="Trazado 819261" d="M108.7,166.821a15.005,15.005,0,0,1,1.487-5.935A15.342,15.342,0,0,1,114,155.869a15.894,15.894,0,0,1,7.507-3.709c.705-.141,1.419-.153,2.125-.249l1.338-.012.245.012h.011a16.048,16.048,0,0,1,12.3,6.654c.151.2.118.31-.085.427-.832.476-1.66.961-2.491,1.439a.476.476,0,0,1-.744-.149,11.816,11.816,0,0,0-3.625-3.173,11.455,11.455,0,0,0-3.8-1.4,12.153,12.153,0,0,0-8.739,1.676,13.025,13.025,0,0,0-3.668,3.558,10.478,10.478,0,0,0-1.581,3.223,12.759,12.759,0,0,0-.447,4.736,12.31,12.31,0,0,0,2.657,6.532,11.561,11.561,0,0,0,5.848,4.031,12.55,12.55,0,0,0,2.533.461,14.657,14.657,0,0,0,2.028.057,10.726,10.726,0,0,0,3.791-.9,12.13,12.13,0,0,0,7.189-8.2,10.986,10.986,0,0,0,.4-3.774,11.457,11.457,0,0,0-1.028-4.224c-.078-.163-.047-.239.107-.327q1.322-.754,2.633-1.526c.26-.153.407-.119.537.179a16.743,16.743,0,0,1,1.207,8.972,15.793,15.793,0,0,1-2.6,6.591,14.691,14.691,0,0,1-3.98,4,16.532,16.532,0,0,1-6.412,2.648,15.58,15.58,0,0,1-3.545.223,8.129,8.129,0,0,1-1.819-.27c-.451-.133-.954-.132-1.423-.257a15.507,15.507,0,0,1-5.5-2.689,15.932,15.932,0,0,1-5.752-8.521,16.77,16.77,0,0,1-.466-2.586,13.051,13.051,0,0,1-.056-2.317.156.156,0,0,0,.021-.187" transform="translate(-72.23 -100.979)" fill="#fc636e"/>
            <path id="Trazado_819262" data-name="Trazado 819262" d="M126.345,179.515a13.64,13.64,0,0,1,.363-2.713,10.288,10.288,0,0,1,2.722-4.378,9.5,9.5,0,0,1,4.714-2.566,10.3,10.3,0,0,1,3.194-.138,9.358,9.358,0,0,1,2.972.761,10.236,10.236,0,0,1,3.671,2.786c.212.256.247.389-.094.574-.872.474-1.72.992-2.576,1.495a.377.377,0,0,1-.545-.053,6.109,6.109,0,0,0-3.242-1.786,5.875,5.875,0,0,0-4.272.6,6.012,6.012,0,0,0-2.512,2.655,6.162,6.162,0,0,0,2.229,8.081,6,6,0,0,0,5.9.363,6.031,6.031,0,0,0,3.467-6.9c-.031-.186-.1-.365-.136-.55a.328.328,0,0,1,.136-.4c.889-.5,1.774-1.008,2.666-1.5.243-.134.407-.194.577.2a8.851,8.851,0,0,1,.553,2.225,8.092,8.092,0,0,1,.069,2.028,10.358,10.358,0,0,1-2.269,5.648,10.178,10.178,0,0,1-5.394,3.32,8.718,8.718,0,0,1-2.377.25,10.05,10.05,0,0,1-9.169-6.355,10.257,10.257,0,0,1-.658-3.392.157.157,0,0,0,.012-.251" transform="translate(-83.984 -112.784)" fill="#f8f9fb"/>
            <path id="Trazado_819263" data-name="Trazado 819263" d="M144.481,191.49a3.815,3.815,0,0,1,3.158-3.789,3.739,3.739,0,0,1,2.266.3,3.363,3.363,0,0,1,.841.424c.2.174.215.273-.043.417-1.1.614-2.2,1.248-3.294,1.877a2.87,2.87,0,0,0-.351.223,1.119,1.119,0,0,0-.489,1.118,1.344,1.344,0,0,0,1.018.99,1.387,1.387,0,0,0,.86-.254c1.084-.621,2.164-1.251,3.252-1.865.168-.095.387-.361.469.137a3.768,3.768,0,0,1-2.333,4.062,3.915,3.915,0,0,1-5.345-2.893,3.281,3.281,0,0,1-.008-.749" transform="translate(-96.035 -124.741)" fill="#fc636e"/>
            <path id="Trazado_819264" data-name="Trazado 819264" d="M218.348,150c.777-.536,1.615-.967,2.431-1.438.237-.137.345-.1.34.2-.014.75.015,1.5-.011,2.251a1.251,1.251,0,0,0,.706,1.214l2.278,1.3c-.466.278-.871.521-1.279.762s-.79.462-1.184.7a.5.5,0,0,1-.546.045c-.879-.5-1.762-1-2.641-1.5-.044-.025-.068-.085-.1-.129l-.038-.08q0-1.548-.009-3.1l.054-.229" transform="translate(-145.118 -98.711)" fill="#fdd201"/>
            <path id="Trazado_819265" data-name="Trazado 819265" d="M154.671,151.782l-1.338.012a3.507,3.507,0,0,1,1.338-.012" transform="translate(-101.933 -100.862)" fill="#61666a"/>
            <path id="Trazado_819266" data-name="Trazado 819266" d="M126.128,199.065a.157.157,0,0,1-.012.251c-.147-.091-.147-.175.012-.251" transform="translate(-83.767 -132.335)" fill="#61666a"/>
            <path id="Trazado_819267" data-name="Trazado 819267" d="M108.705,196.416a.156.156,0,0,1-.021.187.147.147,0,0,1,.021-.187" transform="translate(-72.235 -130.574)" fill="#61666a"/>
            <path id="Trazado_819268" data-name="Trazado 819268" d="M218.312,153l-.054.229a.18.18,0,0,1,.054-.229" transform="translate(-145.082 -101.714)" fill="#61666a"/>
            <path id="Trazado_819269" data-name="Trazado 819269" d="M158.065,151.9h-.011l.006-.018Z" transform="translate(-105.071 -100.968)" fill="#61666a"/>
            <path id="Trazado_819270" data-name="Trazado 819270" d="M218.321,162.924l.038.079-.038-.079" transform="translate(-145.136 -108.309)" fill="#61666a"/>
            <path id="Trazado_819271" data-name="Trazado 819271" d="M25.248,41.9l.01.021-.021-.006.011-.015" transform="translate(-16.777 -27.852)" fill="#61666a"/>
            <path id="Trazado_819272" data-name="Trazado 819272" d="M50.688,41.645l0,.021,0-.02h.005" transform="translate(-33.693 -27.685)" fill="#61666a"/>
            <path id="Trazado_819273" data-name="Trazado 819273" d="M25.2,202.216c.008.016.016.031.023.047a.124.124,0,0,1-.023.011.036.036,0,0,1,0-.059" transform="translate(-16.743 -134.429)" fill="#61666a"/>
            <path id="Trazado_819274" data-name="Trazado 819274" d="M25.776,203.861h.005l0,.02Z" transform="translate(-17.136 -135.523)" fill="#61666a"/>
            <path id="Trazado_819275" data-name="Trazado 819275" d="M55.907,203.868h.015l-.008.023Z" transform="translate(-37.166 -135.527)" fill="#61666a"/>
            <path id="Trazado_819276" data-name="Trazado 819276" d="M56.906,203.863h.013l-.007.022Z" transform="translate(-37.83 -135.524)" fill="#61666a"/>
            <path id="Trazado_819277" data-name="Trazado 819277" d="M57.9,203.859h.016l-.008.022Z" transform="translate(-38.49 -135.522)" fill="#61666a"/>
            <path id="Trazado_819278" data-name="Trazado 819278" d="M25.457,139.914l.021-.01.006.024-.02,0Z" transform="translate(-16.923 -93.006)" fill="#61666a"/>
            <path id="Trazado_819279" data-name="Trazado 819279" d="M25.22,106.478l.019,0H25.22v0" transform="translate(-16.765 -70.784)" fill="#61666a"/>
            <path id="Trazado_819280" data-name="Trazado 819280" d="M25.5,105.661v.017l-.009-.012.009,0" transform="translate(-16.943 -70.242)" fill="#61666a"/>
          </g>
        </g>
      </g>
    </g>
  </g>
</svg>
