<svg xmlns="http://www.w3.org/2000/svg" xmlns:xlink="http://www.w3.org/1999/xlink" width="189" height="189" viewBox="0 0 189 189">
  <defs>
    <clipPath id="clip-path">
      <rect id="Rectángulo_347538" data-name="Rectángulo 347538" width="133.983" height="120.733" fill="none"/>
    </clipPath>
  </defs>
  <g id="Grupo_1017323" data-name="Grupo 1017323" transform="translate(-750 -1051)">
    <g id="Grupo_161157" data-name="Grupo 161157" transform="translate(750 1051)">
      <circle id="Elipse_1146" data-name="Elipse 1146" cx="94.5" cy="94.5" r="94.5" fill="#fff"/>
    </g>
    <g id="Grupo_1017332" data-name="Grupo 1017332" transform="translate(783.4 1072)">
      <g id="Grupo_1017331" data-name="Grupo 1017331" clip-path="url(#clip-path)">
        <path id="Trazado_608839" data-name="Trazado 608839" d="M153.35,59.086s41.1-16.3,66.973,1.857v74.825s-56.3-12.308-65.432-1.384Z" transform="translate(-86.359 -29.487)" fill="#f6f8f9"/>
        <path id="Trazado_608840" data-name="Trazado 608840" d="M73.574,103a119.651,119.651,0,0,1,17.817-3.909,74.918,74.918,0,0,1,37.579,4.968c.6.242,1.2.494,1.808.731.054.021.138-.033.4-.107v-2.25q0-34.595,0-69.189c0-.582.009-1.164,0-1.746-.013-.887.214-1.629,1.246-1.706,1.163-.086,1.49.69,1.537,1.667.024.508.017,1.018.017,1.527q0,42.234,0,84.468c0,3.558-.18,3.724-3.581,2.818a120.842,120.842,0,0,0-38.631-4.023,102.214,102.214,0,0,0-22.064,3.747,10.076,10.076,0,0,1-5.739-.006,107.539,107.539,0,0,0-39.279-3.429,136.484,136.484,0,0,0-21.612,3.87c-2.537.66-3.046.27-3.047-2.288Q.014,74.925,0,31.708a2.757,2.757,0,0,1,1.785-2.874,64.86,64.86,0,0,1,10.166-3.815c1.608-.436,2.312-1.041,2.266-2.92-.159-6.544,0-13.1-.1-19.642-.031-2.087.68-2.622,2.7-2.416,17.247,1.751,32.66,7.4,44.47,20.745a69.205,69.205,0,0,1,4.944,6.361c.837,1.2,1.463,1.587,2.959.936a69.023,69.023,0,0,1,12-3.818c1.115-.258,2.383-.442,2.626,1.032.214,1.3-1.038,1.606-2.024,1.823A49.123,49.123,0,0,0,73.485,29.6c-.761.239-1.512.519-2.284.707-2.292.557-3.034,1.811-3.019,4.312.129,22.6.073,45.206.086,67.809a4.7,4.7,0,0,0,.265,2.47l5.042-1.9m-8.388-1.23c.057-.709.1-.985.1-1.259q0-34.152.032-68.3a5.4,5.4,0,0,0-1.173-3.18C53.261,13.125,37.667,5.457,18.99,3.122c-1.647-.206-2.1.2-2.074,1.884.1,7.2.041,14.4.041,21.6,0,15.93.027,31.86-.039,47.79-.007,1.672.433,2.222,2.12,2.308a49.936,49.936,0,0,1,6.9.934C41.872,80.724,55.2,88.11,65.186,101.765m-2.76,1.839A54.2,54.2,0,0,0,48.392,89.771c-9.226-6.16-19.584-8.981-30.458-10.187-3.7-.41-3.78-.36-3.78-3.94q0-23.135.022-46.271c0-1.484-.125-2.134-1.886-1.509-2.53.9-5.029,1.864-7.544,2.793-1.59.587-1.96,1.468-1.956,3.068q.079,34.485.036,68.97v2.35c19.859-8.8,39.631-8.322,59.6-1.44m38.431,5.131c-6.738-.311-13.978.8-21.147,2.352-3.461.75-6.821,1.957-10.246,2.889-1.418.386-1.333,1.449-1.137,2.418.282,1.393,1.244.44,1.864.318,2.058-.408,4.082-1.007,6.147-1.365a131.483,131.483,0,0,1,30.554-1.782,100.194,100.194,0,0,1,22.5,3.48c1.82.538,1.851-.169,1.819-1.567-.028-1.207-.869-1.361-1.662-1.682a70.9,70.9,0,0,0-28.695-5.06m-68.236-.014a71.525,71.525,0,0,0-28.485,5.164c-1.7.682-1.5,1.915-1.2,2.993.322,1.148,1.378.256,1.993.108a138.876,138.876,0,0,1,25.561-3.8,107.183,107.183,0,0,1,32.974,3.637c.608.162,1.508.831,1.732-.344.161-.843.475-1.945-.765-2.432-.405-.159-.82-.294-1.235-.427a94.635,94.635,0,0,0-30.573-4.9m69.363-3.006a76.079,76.079,0,0,1,27.309,4.843c1.781.648,2.082.322,1.916-1.566-.1-1.086-.89-1.214-1.582-1.524a68.734,68.734,0,0,0-18.754-5.332c-14.166-1.967-27.724.351-40.987,5.29-1.67.622-1.975,1.741-1.506,3.01.508,1.374,1.627.3,2.373.07a102.111,102.111,0,0,1,31.231-4.791m-36.735,3.76c.294-1.205-.508-1.608-1.456-1.982-13.7-5.421-27.832-7.474-42.456-5.172a69.047,69.047,0,0,0-17.238,5.2,2.122,2.122,0,0,0-1.148,3.029c.409,1.1,1.4.128,2.02-.1a78.953,78.953,0,0,1,23.8-4.692,98.322,98.322,0,0,1,34.7,4.957c1.261.412,2.008.392,1.776-1.243" transform="translate(0 0)" fill="#2f3143"/>
        <path id="Trazado_608841" data-name="Trazado 608841" d="M210.149,27.241a4.506,4.506,0,0,1,2.715-5.042,4.609,4.609,0,0,1,5.518,1.284c3.736,4.262,7.423,8.568,11.114,12.869a4.692,4.692,0,0,1,.638,5.666,4.615,4.615,0,0,1-5.486,2.027,1.927,1.927,0,0,0-2.127.472c-1.3,1.162-2.58,2.361-3.977,3.4-1.128.836-1,1.415-.137,2.388,3.477,3.909,6.872,7.89,10.291,11.851a4.612,4.612,0,0,1,.744,5.628A4.373,4.373,0,0,1,224.634,70a5.526,5.526,0,0,1-3.322-2.288c-3.319-3.855-6.663-7.689-9.932-11.586-.786-.937-1.308-1.045-2.188-.143a29.333,29.333,0,0,1-3.14,2.7,3.483,3.483,0,0,0-1.659,3.6c.268,1.958-.878,3.432-2.726,4.276a4.079,4.079,0,0,1-5.01-.845q-6.192-6.887-12.1-14.028c-1.27-1.535-1.039-3.431.007-5.1a3.926,3.926,0,0,1,4.659-1.966c1.581.487,2.473-.1,3.563-1.055,5.33-4.69,10.723-9.307,16.108-13.934.847-.728,1.841-1.339,1.254-2.389m11.059,14.05c-.145-.2-.3-.444-.489-.662-2.6-3.03-5.234-6.039-7.807-9.094-.83-.986-1.37-.311-1.958.194-5.678,4.874-11.339,9.768-17.032,14.624-.72.614-.778,1.048-.151,1.761q3.883,4.422,7.687,8.912c.619.725,1.119.949,1.958.217,5.637-4.921,11.313-9.8,16.971-14.693.373-.323.829-.611.821-1.259M201.461,62.357a1.922,1.922,0,0,0-.487-1.4c-3.752-4.329-7.491-8.668-11.26-12.981a1.586,1.586,0,0,0-2.494-.16,1.65,1.65,0,0,0-.044,2.515c1.117,1.333,2.229,2.671,3.371,3.983q3.927,4.514,7.889,9c.472.532.98,1.1,1.866.7a1.629,1.629,0,0,0,1.16-1.649m13.206-37.716a1.749,1.749,0,0,0-1.253,2.884c1.02,1.4,2.181,2.7,3.317,4.014q3.983,4.595,8.007,9.152c.6.68,1.3,1.229,2.241.47a1.932,1.932,0,0,0,.481-2.54,3.845,3.845,0,0,0-.635-.879q-5.259-6.072-10.537-12.128a2.114,2.114,0,0,0-1.621-.972m.215,26.669a4.738,4.738,0,0,0-1.854,1.709c-.41.65.3,1.027.657,1.438,3.351,3.891,6.721,7.765,10.069,11.658.714.83,1.474,1.532,2.571.763,1.133-.8,1.045-1.766.174-2.77q-5.262-6.063-10.505-12.142c-.274-.316-.54-.707-1.112-.656" transform="translate(-103.445 -12.254)" fill="#2f3143"/>
        <path id="Trazado_608842" data-name="Trazado 608842" d="M161.466,141.151l-5.041,1.9a4.694,4.694,0,0,1-.266-2.47c-.013-22.6.043-45.207-.086-67.809-.014-2.5.727-3.755,3.019-4.312.773-.188,1.523-.468,2.284-.707.028,4.137.077,8.274.079,12.411q.015,30.493.01,60.986" transform="translate(-87.892 -38.155)" fill="#a8badf"/>
        <path id="Trazado_608843" data-name="Trazado 608843" d="M198.6,165.639c-5.454,0-10.91-.068-16.361.035-2.079.039-2.861-.678-2.817-2.774.082-3.936,1.04-5.446,4.839-6.608.814-.249.729-.7.81-1.264.463-3.24,2.116-4.718,5.395-4.736q8.072-.045,16.144,0c3.232.017,4.985,1.5,5.461,4.715.131.882.373,1.129,1.252,1.334,3.459.807,5.458,5.06,4.075,8.369-.45,1.076-1.367.923-2.217.925q-8.29.017-16.58.006m-.031-2.794c4.719,0,9.439.02,14.158-.021.7-.006,1.748.461,1.973-.728a2.582,2.582,0,0,0-.985-2.516,3.645,3.645,0,0,0-2.48-.609q-12.634.015-25.267,0a4.154,4.154,0,0,0-2.5.583,2.3,2.3,0,0,0-.991,2.471c.218,1.219,1.226.8,1.93.8,4.719.035,9.439.018,14.158.018m-.151-6.62c3.053,0,6.105.013,9.158-.011.593,0,1.4.263,1.532-.736a1.746,1.746,0,0,0-1.007-1.987,5.135,5.135,0,0,0-1.919-.229c-5.088-.016-10.176-.01-15.264-.008a12.53,12.53,0,0,0-1.307.03,1.788,1.788,0,0,0-1.65,1.959c-.05,1.332,1.023.961,1.736.969,2.907.033,5.815.014,8.722.013" transform="translate(-101.04 -84.624)" fill="#2f3143"/>
        <path id="Trazado_608844" data-name="Trazado 608844" d="M86.992,105.726C77.009,92.07,63.678,84.684,47.742,81.6a49.926,49.926,0,0,0-6.9-.934c-1.687-.086-2.127-.636-2.12-2.308.066-15.93.04-31.86.04-47.79,0-7.2.055-14.4-.041-21.6C38.7,7.28,39.15,6.877,40.8,7.082c18.677,2.335,34.271,10,45.154,25.9a5.394,5.394,0,0,1,1.173,3.181q-.06,34.152-.032,68.3c0,.275-.042.55-.1,1.259M63.023,61.883c0-1.526-.076-3.058.023-4.578a2.858,2.858,0,0,0-1.489-2.876,38.026,38.026,0,0,0-8.412-4.008c-1.51-.5-2.381.014-2.365,1.746q.046,5.015-.006,10.03c-.011.986.26,1.753,1.22,2.065a42.1,42.1,0,0,1,8.612,4.1c1.4.842,2.339.22,2.4-1.468.062-1.67.014-3.343.015-5.015M53.054,40.76c-1.384-.176-2.092.132-2.224,1.106-.152,1.132.672,1.473,1.584,1.695a52.059,52.059,0,0,1,17.226,8.1A64.311,64.311,0,0,1,77.409,58c.7.666,1.507,1.077,2.292.325.908-.87.408-1.7-.367-2.416-.268-.246-.519-.509-.786-.756a63.452,63.452,0,0,0-18.314-12,44.982,44.982,0,0,0-7.181-2.392m-.912-10.785a1.368,1.368,0,0,0-1.279,1.217c-.2,1.273.781,1.5,1.745,1.761,9.4,2.535,17.369,7.553,24.446,14.114.8.74,1.711,1.761,2.739.526.961-1.154-.085-1.976-.886-2.732A64.529,64.529,0,0,0,63.832,34.2a46.173,46.173,0,0,0-11.69-4.223m10.485-6.9a1.459,1.459,0,0,0-1.637,1.067c-.273,1.1.576,1.5,1.388,1.88A53.6,53.6,0,0,1,77.053,36.4c.845.825,1.779,1.582,2.772.505.964-1.045-.056-1.86-.768-2.556A54.609,54.609,0,0,0,63.864,23.593c-.456-.212-.927-.391-1.236-.521M80.146,67.993a1.762,1.762,0,0,0-.632-1.331c-.727-.7-1.432-1.432-2.186-2.107a43.4,43.4,0,0,0-7.63-5.691c-.759-.425-1.581-.543-2.121.275a1.265,1.265,0,0,0,.325,1.907,52.665,52.665,0,0,1,9.81,7.823,1.535,1.535,0,0,0,1.83.2,1.132,1.132,0,0,0,.6-1.073M78.9,79.953a1.231,1.231,0,0,0,1.148-.853,1.6,1.6,0,0,0-.506-1.772,47.828,47.828,0,0,0-9.848-7.861c-.8-.469-1.563-.6-2.094.23a1.425,1.425,0,0,0,.606,2.2,44.747,44.747,0,0,1,9.169,7.329,1.975,1.975,0,0,0,1.526.731m-25.668-57.5C54.281,22.6,55,22.2,54.948,21.1c-.065-1.476-1.348-1.495-2.373-1.645-.974-.143-1.813.29-1.733,1.373.1,1.4,1.316,1.486,2.389,1.621" transform="translate(-21.806 -3.961)" fill="#f6f8f9"/>
        <path id="Trazado_608845" data-name="Trazado 608845" d="M66.022,139.218c-19.969-6.882-39.741-7.359-59.6,1.44v-2.35q0-34.485-.036-68.97c0-1.6.367-2.48,1.956-3.068,2.515-.929,5.014-1.9,7.543-2.792,1.762-.625,1.89.024,1.887,1.508q-.055,23.135-.023,46.271c0,3.58.084,3.531,3.78,3.94,10.874,1.206,21.232,4.028,30.458,10.187a54.2,54.2,0,0,1,14.034,13.833" transform="translate(-3.597 -35.615)" fill="#a8badf"/>
        <path id="Trazado_608846" data-name="Trazado 608846" d="M188.8,248.835a70.9,70.9,0,0,1,28.695,5.061c.793.321,1.635.475,1.663,1.681.032,1.4,0,2.105-1.819,1.567a100.215,100.215,0,0,0-22.5-3.48,131.5,131.5,0,0,0-30.554,1.782c-2.066.359-4.089.958-6.147,1.365-.62.123-1.582,1.076-1.864-.317-.2-.969-.281-2.032,1.137-2.418,3.424-.932,6.784-2.14,10.246-2.889,7.169-1.553,14.41-2.663,21.147-2.352" transform="translate(-87.94 -140.101)" fill="#5e74a7"/>
        <path id="Trazado_608847" data-name="Trazado 608847" d="M36.142,248.845a94.7,94.7,0,0,1,30.574,4.905c.415.133.83.267,1.235.426,1.241.487.926,1.589.765,2.432-.225,1.175-1.124.506-1.732.344a107.172,107.172,0,0,0-32.975-3.637,138.888,138.888,0,0,0-25.561,3.8c-.616.147-1.671,1.04-1.993-.108-.3-1.078-.5-2.311,1.2-2.993a71.553,71.553,0,0,1,28.484-5.166" transform="translate(-3.522 -140.126)" fill="#5e74a7"/>
        <path id="Trazado_608848" data-name="Trazado 608848" d="M189.876,236.479a102.124,102.124,0,0,0-31.231,4.791c-.746.229-1.864,1.3-2.373-.069-.469-1.269-.164-2.388,1.505-3.01,13.262-4.939,26.821-7.257,40.987-5.29a68.737,68.737,0,0,1,18.754,5.331c.691.309,1.486.438,1.581,1.524.167,1.889-.134,2.214-1.915,1.566a76.09,76.09,0,0,0-27.309-4.842" transform="translate(-87.892 -130.763)" fill="#5e74a7"/>
        <path id="Trazado_608849" data-name="Trazado 608849" d="M68.752,240.175c.232,1.635-.515,1.655-1.776,1.243a98.322,98.322,0,0,0-34.7-4.957,78.953,78.953,0,0,0-23.8,4.692c-.624.226-1.611,1.2-2.02.1A2.122,2.122,0,0,1,7.6,238.222a69.048,69.048,0,0,1,17.238-5.2c14.625-2.3,28.753-.249,42.456,5.172.948.375,1.75.777,1.456,1.982" transform="translate(-3.502 -130.7)" fill="#5e74a7"/>
        <path id="Trazado_608850" data-name="Trazado 608850" d="M233.645,53.239c.008.648-.448.937-.821,1.259-5.658,4.9-11.334,9.772-16.971,14.693-.839.732-1.339.508-1.957-.217q-3.816-4.479-7.688-8.911c-.626-.713-.569-1.148.151-1.762,5.694-4.856,11.355-9.749,17.032-14.624.588-.505,1.127-1.18,1.958-.194,2.574,3.055,5.2,6.064,7.808,9.094.187.218.344.464.488.662" transform="translate(-115.881 -24.203)" fill="#d76e6f"/>
        <path id="Trazado_608851" data-name="Trazado 608851" d="M205.231,95.253a1.628,1.628,0,0,1-1.159,1.652c-.885.406-1.394-.165-1.865-.7q-3.968-4.478-7.889-9c-1.141-1.312-2.254-2.65-3.371-3.983a1.649,1.649,0,0,1,.044-2.515,1.587,1.587,0,0,1,2.494.16c3.77,4.313,7.509,8.652,11.26,12.982a1.911,1.911,0,0,1,.486,1.4" transform="translate(-107.215 -45.153)" fill="#8b4446"/>
        <path id="Trazado_608852" data-name="Trazado 608852" d="M252.471,28.352a2.119,2.119,0,0,1,1.62.973q5.285,6.05,10.537,12.128a3.838,3.838,0,0,1,.634.879,1.931,1.931,0,0,1-.48,2.54c-.938.759-1.639.21-2.24-.47q-4.027-4.556-8.007-9.152c-1.137-1.312-2.3-2.613-3.318-4.014a1.75,1.75,0,0,1,1.254-2.885" transform="translate(-141.247 -15.966)" fill="#8b4446"/>
        <path id="Trazado_608853" data-name="Trazado 608853" d="M252.543,89.4c.572-.052.837.339,1.112.656q5.261,6.064,10.505,12.142c.871,1,.959,1.975-.174,2.77-1.1.769-1.857.067-2.571-.763-3.348-3.893-6.718-7.767-10.069-11.658-.355-.411-1.067-.788-.657-1.438a4.739,4.739,0,0,1,1.854-1.709" transform="translate(-141.105 -50.341)" fill="#8b4446"/>
        <path id="Trazado_608854" data-name="Trazado 608854" d="M202.45,174.063c-4.719,0-9.439.017-14.158-.018-.7-.005-1.713.417-1.93-.8a2.3,2.3,0,0,1,.991-2.471,4.158,4.158,0,0,1,2.5-.583q12.633.016,25.267,0a3.645,3.645,0,0,1,2.48.609,2.581,2.581,0,0,1,.985,2.515c-.225,1.19-1.273.723-1.973.728-4.719.041-9.439.021-14.158.021" transform="translate(-104.921 -95.841)" fill="#8b4446"/>
        <path id="Trazado_608855" data-name="Trazado 608855" d="M209.426,160.069c-2.907,0-5.815.019-8.722-.014-.713-.008-1.785.363-1.736-.969a1.788,1.788,0,0,1,1.65-1.959,12.405,12.405,0,0,1,1.307-.031c5.088,0,10.176-.008,15.264.008a5.117,5.117,0,0,1,1.919.229,1.746,1.746,0,0,1,1.007,1.987c-.134,1-.939.731-1.532.736-3.053.024-6.105.011-9.158.012" transform="translate(-112.047 -88.467)" fill="#d76e6f"/>
        <path id="Trazado_608856" data-name="Trazado 608856" d="M78.559,117.578c0,1.671.048,3.345-.014,5.015-.062,1.688-1,2.31-2.4,1.469a42.148,42.148,0,0,0-8.612-4.1c-.96-.311-1.231-1.079-1.22-2.065q.056-5.015.006-10.03c-.016-1.732.855-2.249,2.365-1.747a38.089,38.089,0,0,1,8.413,4.008A2.859,2.859,0,0,1,78.583,113c-.1,1.52-.023,3.051-.024,4.577m-2.935,2.644c0-2.387-.021-4.484.011-6.58a1.563,1.563,0,0,0-.9-1.584c-1.485-.757-2.961-1.532-4.447-2.29-.389-.2-1.016-.408-1.038.184-.086,2.394-.054,4.793.007,7.189.006.225.49.505.8.646,1.709.771,3.434,1.508,5.566,2.435" transform="translate(-37.342 -59.656)" fill="#2f3143"/>
        <path id="Trazado_608857" data-name="Trazado 608857" d="M68.639,84.176a45,45,0,0,1,7.181,2.392,63.448,63.448,0,0,1,18.313,12c.267.247.519.51.786.756.775.712,1.276,1.546.367,2.416-.785.752-1.591.34-2.292-.325a64.266,64.266,0,0,0-7.769-6.334A52.067,52.067,0,0,0,68,86.977c-.913-.222-1.737-.562-1.584-1.695.131-.974.839-1.282,2.223-1.106" transform="translate(-37.392 -47.377)" fill="#2f3143"/>
        <path id="Trazado_608858" data-name="Trazado 608858" d="M67.759,59.549a46.2,46.2,0,0,1,11.69,4.223A64.538,64.538,0,0,1,94.523,74.435c.8.756,1.847,1.577.886,2.732-1.028,1.235-1.94.215-2.739-.526-7.077-6.562-15.047-11.578-24.446-14.114-.964-.26-1.944-.488-1.745-1.761a1.369,1.369,0,0,1,1.28-1.217" transform="translate(-37.423 -33.535)" fill="#2f3143"/>
        <path id="Trazado_608859" data-name="Trazado 608859" d="M91.266,43.747c.31.13.781.31,1.237.521A54.608,54.608,0,0,1,107.7,55.02c.712.7,1.732,1.511.768,2.556-.993,1.077-1.927.321-2.772-.5A53.6,53.6,0,0,0,91.018,46.694c-.812-.381-1.661-.779-1.388-1.881a1.459,1.459,0,0,1,1.636-1.067" transform="translate(-50.445 -24.636)" fill="#2f3143"/>
        <path id="Trazado_608860" data-name="Trazado 608860" d="M116.972,134.381a1.135,1.135,0,0,1-.6,1.074,1.535,1.535,0,0,1-1.83-.2,52.684,52.684,0,0,0-9.81-7.823,1.265,1.265,0,0,1-.325-1.907c.54-.817,1.362-.7,2.121-.275a43.4,43.4,0,0,1,7.63,5.691c.753.674,1.458,1.4,2.185,2.107a1.765,1.765,0,0,1,.633,1.329" transform="translate(-58.631 -70.35)" fill="#2f3143"/>
        <path id="Trazado_608861" data-name="Trazado 608861" d="M115.736,159.956a1.973,1.973,0,0,1-1.525-.73,44.746,44.746,0,0,0-9.169-7.329,1.425,1.425,0,0,1-.606-2.2c.532-.826,1.293-.7,2.094-.23a47.816,47.816,0,0,1,9.848,7.861,1.6,1.6,0,0,1,.506,1.772,1.231,1.231,0,0,1-1.149.853" transform="translate(-58.645 -83.964)" fill="#2f3143"/>
        <path id="Trazado_608862" data-name="Trazado 608862" d="M68.848,38.433c-1.072-.135-2.286-.221-2.389-1.621-.08-1.083.76-1.516,1.733-1.373,1.025.15,2.307.169,2.373,1.645.048,1.1-.668,1.494-1.717,1.349" transform="translate(-37.423 -19.942)" fill="#2f3143"/>
        <path id="Trazado_608863" data-name="Trazado 608863" d="M79.341,124.9c-2.132-.927-3.857-1.664-5.566-2.435-.313-.141-.8-.421-.8-.646-.061-2.4-.094-4.795-.007-7.189.021-.592.648-.382,1.038-.184,1.485.758,2.962,1.533,4.447,2.29a1.563,1.563,0,0,1,.9,1.584c-.033,2.1-.011,4.192-.011,6.58" transform="translate(-41.06 -64.336)" fill="#a8badf"/>
      </g>
    </g>
  </g>
</svg>
