<svg xmlns="http://www.w3.org/2000/svg" xmlns:xlink="http://www.w3.org/1999/xlink" width="189" height="189" viewBox="0 0 189 189">
  <defs>
    <clipPath id="clip-path">
      <rect id="Rectángulo_347539" data-name="Rectángulo 347539" width="103.067" height="121.431" fill="none"/>
    </clipPath>
  </defs>
  <g id="Grupo_1017324" data-name="Grupo 1017324" transform="translate(-750 -911)">
    <g id="Grupo_161158" data-name="Grupo 161158" transform="translate(750 911)">
      <circle id="Elipse_1142" data-name="Elipse 1142" cx="94.5" cy="94.5" r="94.5" fill="#fff"/>
    </g>
    <g id="Grupo_1017334" data-name="Grupo 1017334" transform="translate(843 673)">
      <g id="Grupo_1017333" data-name="Grupo 1017333" transform="translate(-51 276.673)" clip-path="url(#clip-path)">
        <path id="Trazado_608864" data-name="Trazado 608864" d="M73.211,119.524c.078,1.846,1.4,1.891,2.746,1.891q10.024,0,20.049,0c4.3-.008,6.994-2.588,7.031-6.88.06-6.935,0-13.87.027-20.806A2.385,2.385,0,0,0,101.2,91.06q-.006-2.262-.011-4.525c1.721-.446,1.883-1.741,1.882-3.239q-.028-38.095-.017-76.189c0-4.732-2.354-7.027-7.137-7.027C67.927.079,39.942.19,11.958,0,5.119-.046-.045,4.2,0,11.912.137,35.033.049,58.155.049,81.277c0,9.729-.028,19.458.011,29.187.025,6.293,4.347,10.915,10.346,10.931,18.572.051,37.145.011,55.717.035,1.4,0,2.312-.445,2.542-1.9l4.546,0" transform="translate(0 0)" fill="#f7f9fa"/>
        <path id="Trazado_608865" data-name="Trazado 608865" d="M132.092,92.3q.006,2.262.012,4.525a2.209,2.209,0,0,0-1.885,2.61c.042,1.135.009,2.272.008,3.408,0,3.385-.7,4.168-4.065,4.171q-38.148.039-76.3.032-.012-44.1-.068-88.195c-.01-3.5.125-6.777,2.755-9.42.818-.036,1.636-.1,2.454-.1q31.437-.009,62.875,0c2.651,0,5.306-.087,7.953.02,4.018.163,4.426.727,4.418,4.351-.052,25.126-.022,50.252-.042,75.378,0,1.5.133,2.8,1.879,3.228M86.607,43.59c0-1.453-.011-2.907,0-4.36.024-2.57-.415-5.061,2.409-6.952,2-1.339,2-1.916,4.011-.431a21.771,21.771,0,0,0,8.415,4.141c1.176.249,1.178.777.763,1.73-1.232,2.832-2.386,5.7-3.574,8.55-.455,1.092-.8,2.148-2.245,2.521A2.2,2.2,0,0,0,95,51.253a6.711,6.711,0,0,0,1.649,4.318C99,58.046,101.842,58.7,105.2,58.676a10.256,10.256,0,0,0,6.7-2.568,6.2,6.2,0,0,0,2.056-5.09c0-1.721-1.151-2.206-2.409-2.744-.289-.124-.5-.554-.638-.887q-2.058-4.779-4.074-9.574c-.281-.666-.522-1.245.64-1.378a1.454,1.454,0,0,0,1.183-1.52c.032-.738-.053-1.476-.843-1.726a3.326,3.326,0,0,1-1.878-1.85c-.642-1.1-2.036-1.344-2.631-.191-.9,1.742-2.033,1.1-3.138.714a14.789,14.789,0,0,1-4.1-2.333,11.025,11.025,0,0,0-4.141-2.185c-2.684-.651-4.272-2.646-5.414-5.016-.351-.727-.737-1.354-1.553-1.511-.761-.146-1.662.256-1.713.857-.182,2.128-2.118,2.8-3.159,4.186-.359.48-.5,1.159-1.307,1.226a11.129,11.129,0,0,0-5.92,2.729,14.7,14.7,0,0,1-4.353,2.233c-.847.291-1.387.4-1.991-.588-.926-1.516-2.663-1.221-3.3.461-.2.523-.259.965-.844,1.334a1.627,1.627,0,0,0-.176,2.839,1.293,1.293,0,0,1,.41,1.859c-1.309,3.006-2.555,6.04-3.812,9.068-.272.656-.548,1.252-1.327,1.475-1.739.5-2.132,1.8-1.926,3.409a7.219,7.219,0,0,0,2.607,4.645c2.484,2.195,5.4,2.052,8.382,2.05a8.262,8.262,0,0,0,6.947-3.911c1.846-2.6,1.271-4.769-1.393-6.321a1.536,1.536,0,0,1-.679-.839c-1.4-3.377-2.812-6.751-4.252-10.112-.325-.758-.219-1.154.634-1.354A24.029,24.029,0,0,0,76.848,31.5c1.178-.9,2.369-1.095,3.276.577a5,5,0,0,0,1.752,1.691,1.729,1.729,0,0,1,.971,1.653q-.038,8.056,0,16.114c0,.8-.2,1.142-1.072,1.412a5.051,5.051,0,0,0-3.752,5.61,1.459,1.459,0,0,1-.853,1.9A5.22,5.22,0,0,0,74.6,66.259,5.487,5.487,0,0,0,79.932,70.3c3.1.028,6.192.015,9.289,0a5.657,5.657,0,0,0,5.611-3.654c.791-2.536-.15-4.789-2.751-6.425-.5-.314-.9-.444-.806-1.234.37-3.1-.817-5.083-3.773-6.073-.984-.329-.886-.888-.888-1.556-.01-2.591,0-5.182,0-7.772M84.566,88.9c5.366,0,10.731-.01,16.1.007,1.331,0,2.562-.278,2.528-1.839-.033-1.478-1.233-1.926-2.559-1.926q-15.907-.009-31.815.009c-1.346,0-2.662.366-2.609,2.046.052,1.641,1.387,1.7,2.64,1.7H84.566m.19,3.782c-5.3,0-10.6.01-15.9-.007-1.394,0-2.695.255-2.631,1.94.056,1.49,1.259,1.843,2.593,1.842q15.8-.015,31.606,0c1.388,0,2.723-.338,2.748-1.913.025-1.627-1.321-1.877-2.71-1.87-5.236.025-10.472.01-15.708.01m-.014-14.826q-4.161,0-8.322,0c-2.774,0-5.548,0-8.321.011-1.2.005-1.955.561-1.91,1.82.041,1.152.783,1.645,1.887,1.657q.567.006,1.135.005,15.509,0,31.017,0c.5,0,1.012.016,1.512-.033a1.6,1.6,0,0,0,1.478-1.681,1.566,1.566,0,0,0-1.277-1.657,7.256,7.256,0,0,0-1.69-.117q-7.754-.011-15.508,0" transform="translate(-30.908 -5.766)" fill="#813620"/>
        <path id="Trazado_608866" data-name="Trazado 608866" d="M18.96,101.282q38.148-.011,76.295-.032c3.365,0,4.062-.786,4.065-4.171,0-1.136.034-2.273-.008-3.408a2.209,2.209,0,0,1,1.885-2.61,2.384,2.384,0,0,1,1.868,2.665c-.024,6.935.033,13.871-.027,20.806-.037,4.292-2.734,6.872-7.031,6.88q-10.024.019-20.049,0c-1.349,0-2.668-.044-2.746-1.891a2.306,2.306,0,0,1,2.606-1.64c4.229.062,8.462-.033,12.69.054,1.439.03,2-.29,1.932-1.856-.128-3.152-.129-6.317,0-9.468.064-1.567-.5-1.855-1.93-1.848-11.364.054-22.73.03-34.095.03-6.693,0-13.386.031-20.078-.028-1.231-.011-1.693.3-1.616,1.572.1,1.573.013,3.156.025,4.734.01,1.293-.016,2.577-1.344,3.3a2.872,2.872,0,0,1-3.47-.675c-2.133-1.955-4.075-1.846-6.191.03-1.065.944-2.366,1.47-3.785.444-1.2-.869-.848-2.124-.93-3.289-.14-1.986.885-4.774-.453-5.747-1.372-1-4-.381-6.073-.28-4.062.2-6.8,3.008-6.7,6.7.1,3.53,2.951,6.142,6.972,6.208,5.239.087,10.48.07,15.721.079q19.7.037,39.4.042c1.309,0,2.4.152,2.772,1.635-.231,1.46-1.138,1.906-2.542,1.9-18.572-.024-37.145.016-55.717-.036-6-.016-10.32-4.638-10.346-10.931C.021,100.735.049,91.006.049,81.277.049,58.155.137,35.033,0,11.912-.045,4.2,5.119-.046,11.958,0,39.942.19,67.927.079,95.912.08c4.784,0,7.136,2.3,7.137,7.027q.013,38.095.017,76.189c0,1.5-.161,2.793-1.882,3.24-1.747-.426-1.88-1.728-1.879-3.228.02-25.126-.01-50.252.042-75.378.008-3.625-.4-4.188-4.418-4.351-2.647-.107-5.3-.02-7.953-.02q-31.438,0-62.875,0c-.818,0-1.636.068-2.454.1-2.333-.048-4.669-.034-7-.163-1.385-.077-1.914.341-1.856,1.8.1,2.65.1,5.309-.007,7.959-.047,1.2-.354,2.478-2.05,2.372-1.585-.1-1.675-1.229-1.668-2.446q.023-3.791,0-7.582c-.009-1.8-.326-1.979-1.933-1.057C4.53,6.04,3.789,8.464,3.789,11.279q.005,45.4,0,90.8c0,.4-.192.869.205,1.18a14.223,14.223,0,0,1,3.094-1.423c1.773-.348,2.021-1.315,2.017-2.923q-.075-37.438-.035-74.876c0-.569,0-1.137.009-1.706a1.616,1.616,0,0,1,1.4-1.747,1.78,1.78,0,0,1,2,1.083,5.294,5.294,0,0,1,.332,2.6q0,35.543.024,71.086c0,1.925-.882,4.451.427,5.624,1.269,1.138,3.743.3,5.688.3m9.354,8.387c.364.371.7.6.909-.133,1.07-3.784-.053-5.128-3.947-4.721l-.461.047c-4.409-.6-4.574-.456-4.408,3.887,0,.126.008.252,0,.378-.041,1.008.421,1.052,1.139.593a7.954,7.954,0,0,1,3.561-1.618c1.29.069,2.171.974,3.2,1.566M94.022,111.2h-.013q0,1.326,0,2.653c0,.948-.009,1.9.006,2.842.008.489-.069.989.584,1.237,1.961.746,4.661-.917,4.719-3.009.059-2.146.006-4.3,0-6.443,0-3.991,0-3.958-3.995-3.738-.976.054-1.347.363-1.319,1.341.05,1.7.014,3.411.014,5.116" transform="translate(0 0)" fill="#0c0b0a"/>
        <path id="Trazado_608867" data-name="Trazado 608867" d="M74.881,290.628c-.373-1.482-1.463-1.635-2.772-1.635q-19.7.011-39.4-.042c-5.24-.01-10.481.008-15.721-.079-4.021-.067-6.874-2.678-6.972-6.208-.1-3.694,2.637-6.5,6.7-6.7,2.07-.1,4.7-.719,6.073.28,1.338.973.313,3.762.453,5.747.082,1.165-.272,2.419.93,3.288,1.419,1.026,2.72.5,3.785-.444,2.116-1.876,4.059-1.985,6.191-.03a2.872,2.872,0,0,0,3.47.675c1.328-.724,1.354-2.008,1.344-3.3-.012-1.578.071-3.162-.025-4.734-.077-1.267.384-1.583,1.616-1.572,6.692.059,13.385.028,20.078.028,11.365,0,22.73.024,34.1-.03,1.431-.007,1.993.28,1.929,1.848-.129,3.152-.128,6.316,0,9.468.064,1.565-.493,1.885-1.932,1.856-4.228-.088-8.461.008-12.69-.054a2.306,2.306,0,0,0-2.606,1.64l-4.546,0" transform="translate(-6.216 -171.102)" fill="#e2dac9"/>
        <path id="Trazado_608868" data-name="Trazado 608868" d="M25.088,107c-1.945-.009-4.419.833-5.689-.3-1.308-1.173-.423-3.7-.426-5.624q-.05-35.543-.024-71.085a5.3,5.3,0,0,0-.332-2.6,1.78,1.78,0,0,0-2-1.083,1.616,1.616,0,0,0-1.4,1.747c-.011.568-.009,1.137-.009,1.706q0,37.438.035,74.876c0,1.608-.245,2.575-2.018,2.923a14.246,14.246,0,0,0-3.093,1.423c-.4-.311-.205-.783-.205-1.18q-.01-45.4,0-90.8c0-2.815.741-5.239,3.347-6.734,1.607-.921,1.924-.742,1.933,1.057q.018,3.791,0,7.582c-.008,1.217.083,2.347,1.668,2.446,1.7.106,2-1.169,2.05-2.371.1-2.65.112-5.31.007-7.959-.058-1.457.472-1.875,1.856-1.8,2.328.129,4.664.115,7,.163-2.63,2.644-2.765,5.924-2.755,9.421q.128,44.1.068,88.195" transform="translate(-6.128 -5.716)" fill="#63251a"/>
        <path id="Trazado_608869" data-name="Trazado 608869" d="M95.934,62.4c0,2.591-.005,5.181,0,7.772,0,.668-.1,1.227.888,1.556,2.956.99,4.144,2.972,3.773,6.073-.094.79.307.92.806,1.234,2.6,1.636,3.542,3.889,2.751,6.425a5.658,5.658,0,0,1-5.611,3.655c-3.1.01-6.193.023-9.289,0a5.486,5.486,0,0,1-5.329-4.041,5.22,5.22,0,0,1,2.562-5.807,1.459,1.459,0,0,0,.853-1.9,5.051,5.051,0,0,1,3.752-5.61c.871-.27,1.075-.614,1.072-1.412q-.029-8.057,0-16.114a1.729,1.729,0,0,0-.97-1.653,5,5,0,0,1-1.753-1.691c-.906-1.671-2.1-1.473-3.275-.577a24.031,24.031,0,0,1-9.053,4.565c-.852.2-.959.6-.634,1.354,1.44,3.361,2.848,6.736,4.252,10.112a1.535,1.535,0,0,0,.679.84c2.665,1.552,3.239,3.721,1.393,6.321a8.263,8.263,0,0,1-6.947,3.911c-2.981,0-5.9.145-8.382-2.05a7.219,7.219,0,0,1-2.607-4.645c-.206-1.608.188-2.911,1.926-3.409.779-.223,1.054-.82,1.327-1.476,1.258-3.028,2.5-6.062,3.812-9.068a1.293,1.293,0,0,0-.41-1.859,1.627,1.627,0,0,1,.176-2.838c.584-.369.647-.811.844-1.334.632-1.681,2.37-1.977,3.3-.461.6.989,1.144.879,1.991.588a14.7,14.7,0,0,0,4.353-2.232A11.129,11.129,0,0,1,88.11,45.9c.811-.067.948-.747,1.307-1.226,1.041-1.391,2.977-2.058,3.159-4.187.051-.6.953-1,1.713-.856.816.157,1.2.784,1.553,1.511,1.142,2.37,2.73,4.366,5.414,5.016a11.021,11.021,0,0,1,4.141,2.185,14.782,14.782,0,0,0,4.1,2.333c1.105.386,2.239,1.028,3.138-.714.6-1.153,1.989-.911,2.631.191A3.326,3.326,0,0,0,117.141,52c.79.249.875.987.843,1.725a1.454,1.454,0,0,1-1.183,1.52c-1.162.132-.921.712-.64,1.378q2.023,4.793,4.074,9.574c.143.333.35.762.639.886,1.258.539,2.406,1.023,2.409,2.745a6.205,6.205,0,0,1-2.056,5.09,10.256,10.256,0,0,1-6.7,2.568c-3.358.024-6.2-.63-8.547-3.105a6.714,6.714,0,0,1-1.649-4.318,2.2,2.2,0,0,1,1.385-2.465c1.44-.373,1.79-1.429,2.245-2.521,1.188-2.851,2.342-5.718,3.574-8.55.415-.953.413-1.481-.763-1.73a21.773,21.773,0,0,1-8.415-4.141c-2.006-1.486-2.012-.908-4.011.431-2.824,1.892-2.386,4.383-2.409,6.953-.013,1.453,0,2.907,0,4.36M94.881,49.242c1.048-.274,1.162-1.1.939-1.912A1.681,1.681,0,0,0,93.695,46c-1.713.21-1.784,1.468-1.357,2.61s1.431,1.475,2.543.633M94.13,85.317c1.56.012,3.12,0,4.678.045,1.039.033,1.781-.422,1.886-1.4s-.565-1.552-1.555-1.771a13.241,13.241,0,0,0-5.009.107,10.083,10.083,0,0,0-5.179-.092A1.425,1.425,0,0,0,87.6,83.726a1.515,1.515,0,0,0,1.334,1.765,10.966,10.966,0,0,0,5.193-.175M68.877,70.945c.55,1.884,2.339,2.85,5.213,2.847,3.436,0,5.14-.848,5.716-2.847Zm50.515.116h-11.14c1.476,3.712,10.026,3.738,11.14,0m-25.9,7.46c.778,0,1.218.01,1.657,0,1.17-.031,1.97-.55,1.932-1.8-.034-1.141-.816-1.628-1.892-1.651a20.762,20.762,0,0,0-2.635.035,1.616,1.616,0,0,0-1.574,1.575A1.568,1.568,0,0,0,92.156,78.4a4.5,4.5,0,0,0,1.339.124m20.362-18c-.538,1.248-.912,2.1-1.273,2.957-1.692,4.02-1.693,3.977,2.677,3.721,1.23-.072,1.174-.545.805-1.4-.695-1.616-1.361-3.245-2.21-5.276m-39.405.341A7.846,7.846,0,0,0,73.077,63.5c-.418,1.156-1.742,2.63-1.035,3.38.82.872,2.628.207,4,.28.844.044.951-.341.639-1.051-.728-1.655-1.417-3.326-2.233-5.252" transform="translate(-40.235 -24.576)" fill="#0c0b0a"/>
        <path id="Trazado_608870" data-name="Trazado 608870" d="M111.411,213H95.693c-1.253,0-2.588-.063-2.64-1.7-.053-1.68,1.263-2.043,2.609-2.046q15.908-.032,31.815-.009c1.326,0,2.526.449,2.559,1.926.035,1.561-1.2,1.844-2.528,1.839-5.365-.017-10.731-.007-16.1-.007" transform="translate(-57.752 -129.862)" fill="#0c0b0a"/>
        <path id="Trazado_608871" data-name="Trazado 608871" d="M111.632,229.111c5.236,0,10.472.015,15.708-.01,1.389-.006,2.735.244,2.71,1.871-.025,1.575-1.36,1.914-2.748,1.913q-15.8-.011-31.606,0c-1.334,0-2.537-.352-2.593-1.842-.063-1.685,1.237-1.944,2.631-1.94,5.3.017,10.6.007,15.9.007" transform="translate(-57.784 -142.192)" fill="#0c0b0a"/>
        <path id="Trazado_608872" data-name="Trazado 608872" d="M111.556,190.043q7.754,0,15.508,0a7.256,7.256,0,0,1,1.69.117,1.566,1.566,0,0,1,1.277,1.657,1.6,1.6,0,0,1-1.478,1.681c-.5.049-1.008.033-1.512.033q-15.508,0-31.017,0-.567,0-1.135-.005c-1.1-.011-1.846-.5-1.887-1.657-.045-1.259.714-1.814,1.91-1.82,2.774-.012,5.548-.01,8.321-.011s5.548,0,8.322,0" transform="translate(-57.721 -117.95)" fill="#0c0b0a"/>
        <path id="Trazado_608873" data-name="Trazado 608873" d="M247.825,282.434c0-1.706.036-3.412-.014-5.116-.028-.978.343-1.287,1.319-1.341,4-.22,3.993-.253,3.995,3.738,0,2.147.055,4.3,0,6.443-.057,2.091-2.758,3.754-4.719,3.009-.653-.248-.576-.748-.584-1.237-.015-.947-.005-1.895-.006-2.842q0-1.326,0-2.653Z" transform="translate(-153.803 -171.236)" fill="#63251a"/>
        <path id="Trazado_608874" data-name="Trazado 608874" d="M58.431,279.251a7.96,7.96,0,0,0-3.561,1.618c-.717.459-1.18.415-1.139-.593.005-.126,0-.252,0-.377-.166-4.343,0-4.488,4.407-3.887-.226,1.11-.5,2.224.3,3.24" transform="translate(-33.322 -171.147)" fill="#813620"/>
        <path id="Trazado_608875" data-name="Trazado 608875" d="M65.319,279.594c-.8-1.016-.522-2.13-.3-3.24l.463-.047c.7.591,1.544.25,2.321.336.48.053,1.158-.055,1.136.623-.042,1.3.556,2.691-.419,3.894-1.034-.593-1.915-1.5-3.205-1.566" transform="translate(-40.21 -171.491)" fill="#f08e00"/>
        <path id="Trazado_608876" data-name="Trazado 608876" d="M69.668,281.046c.975-1.2.377-2.592.419-3.894.022-.679-.656-.57-1.136-.623-.777-.086-1.618.255-2.321-.336,3.893-.407,5.016.937,3.947,4.721-.208.734-.546.5-.909.133" transform="translate(-41.354 -171.376)" fill="#813620"/>
        <path id="Trazado_608877" data-name="Trazado 608877" d="M75.5,122.233H86.433c-.576,2-2.28,2.844-5.716,2.847-2.874,0-4.664-.963-5.213-2.847" transform="translate(-46.862 -75.864)" fill="#f08e00"/>
        <path id="Trazado_608878" data-name="Trazado 608878" d="M190.441,122.54c-1.113,3.738-9.663,3.712-11.14,0Z" transform="translate(-111.284 -76.055)" fill="#f08e00"/>
        <path id="Trazado_608879" data-name="Trazado 608879" d="M131.393,154.544a10.965,10.965,0,0,1-5.192.174,1.515,1.515,0,0,1-1.334-1.765,1.425,1.425,0,0,1,1.347-1.525,10.078,10.078,0,0,1,5.179.093,3.241,3.241,0,0,0,0,3.022" transform="translate(-77.498 -93.802)" fill="#63251a"/>
        <path id="Trazado_608880" data-name="Trazado 608880" d="M141.461,154.672a3.241,3.241,0,0,1,0-3.022,13.235,13.235,0,0,1,5.009-.108c.99.219,1.662.781,1.556,1.771s-.847,1.437-1.886,1.4c-1.558-.05-3.119-.033-4.678-.045" transform="translate(-87.566 -93.931)" fill="#813620"/>
        <path id="Trazado_608881" data-name="Trazado 608881" d="M136.276,136.522a4.509,4.509,0,0,1-1.339-.124,1.568,1.568,0,0,1-1.173-1.716,1.616,1.616,0,0,1,1.575-1.575,20.762,20.762,0,0,1,2.635-.035c1.077.023,1.858.51,1.892,1.651.038,1.247-.763,1.765-1.933,1.8-.439.012-.879,0-1.657,0" transform="translate(-83.015 -82.576)" fill="#f08e00"/>
        <path id="Trazado_608882" data-name="Trazado 608882" d="M190.276,94.745c.848,2.031,1.515,3.66,2.21,5.276.368.857.424,1.33-.805,1.4-4.37.256-4.369.3-2.677-3.721.361-.857.735-1.709,1.273-2.957" transform="translate(-116.654 -58.804)" fill="#813620"/>
        <path id="Trazado_608883" data-name="Trazado 608883" d="M85.923,95.645c.816,1.926,1.506,3.6,2.233,5.252.312.71.2,1.1-.639,1.051-1.376-.073-3.184.592-4-.28-.707-.75.617-2.224,1.035-3.38a7.846,7.846,0,0,1,1.375-2.643" transform="translate(-51.706 -59.362)" fill="#813620"/>
        <path id="Trazado_608884" data-name="Trazado 608884" d="M139.533,59.717c-1.112.841-2.115.512-2.543-.633s-.356-2.4,1.357-2.611c-.269,1.324.831,2.148,1.186,3.244" transform="translate(-84.887 -35.05)" fill="#63251a"/>
        <path id="Trazado_608885" data-name="Trazado 608885" d="M142.043,59.634c-.355-1.1-1.455-1.92-1.186-3.244a1.682,1.682,0,0,1,2.125,1.332c.223.81.11,1.638-.939,1.912" transform="translate(-87.398 -34.967)" fill="#813620"/>
      </g>
    </g>
  </g>
</svg>
