<svg xmlns="http://www.w3.org/2000/svg" xmlns:xlink="http://www.w3.org/1999/xlink" width="189" height="189" viewBox="0 0 189 189">
  <defs>
    <clipPath id="clip-path">
      <rect id="Rectángulo_347536" data-name="Rectángulo 347536" width="120" height="119.987" fill="none"/>
    </clipPath>
  </defs>
  <g id="Grupo_161725" data-name="Grupo 161725" transform="translate(-750 -1051)">
    <g id="Grupo_161157" data-name="Grupo 161157" transform="translate(750 1051)">
      <circle id="Elipse_1146" data-name="Elipse 1146" cx="94.5" cy="94.5" r="94.5" fill="#fff"/>
    </g>
    <g id="Grupo_1017328" data-name="Grupo 1017328" transform="translate(793 1085.507)">
      <g id="Grupo_1017327" data-name="Grupo 1017327" clip-path="url(#clip-path)">
        <path id="Trazado_608800" data-name="Trazado 608800" d="M92.536,118.233c-.356,1.39-1.283,1.756-2.657,1.749-9.3-.045-18.6-.021-27.907-.025-4.651,0-7.035-2.82-6.276-7.547-7.067,0-14.13.285-21.158-.093-5.335-.287-9.912.6-13.586,4.719a22.77,22.77,0,0,1-2.9,2.352,1.812,1.812,0,0,1-2.065.379,1.777,1.777,0,0,1-1.013-1.83A35.985,35.985,0,0,1,15,114.195c.174-1.536-.442-1.826-1.86-1.818-6.246.035-10.511-2.838-12.449-8.2a11.69,11.69,0,0,1-.657-4.025q0-34.839-.012-69.677c0-1.379.2-2.5,1.794-2.787a1.9,1.9,0,0,1,1.659,2.295c-.031.5,0,1,0,1.5q0,33.624.006,67.249c.005,6.758,3.692,10.337,10.151,10.045,1.078-.048,1.357-.42,1.385-1.441.044-1.589-1.038-1.236-1.911-1.254-3.78-.076-6.043-1.973-6.79-5.625a18.924,18.924,0,0,1-.142-5.962C6.624,90.523,9,88.173,12.76,88.214c2.1.023,2.259-.8,2.256-2.507Q14.952,45.9,14.986,6.1c0-.5-.012-1,0-1.5.011-.779-.377-1.122-1.143-1.148C8.95,3.287,4.6,5.542,3.737,10.841c-.5,3.047-.214,6.1-.234,9.155-.009,1.315-.39,2.162-1.669,2.534A2.276,2.276,0,0,1,.018,19.9c.2-3.42-.333-6.868.314-10.272A11.763,11.763,0,0,1,11.661.037Q44.818-.045,77.975.028c3.794.006,6.321,2.9,6.331,7.066.022,8.68.006,17.36.006,26.039q0,6.651,0,13.3c0,.667-.08,1.251.751,1.69a5.621,5.621,0,0,1,3,5.949c-.164,1.705.415,2.575,1.949,3.429a13.041,13.041,0,0,1,6.662,9.242c.255,1.332.8,1.539,1.971,1.526,4.683-.054,9.366-.012,14.049-.028,1.311,0,2.48.214,2.461,1.831-.017,1.493-1.169,1.721-2.367,1.782-3.247.164-3.245.166-2.032,3.208,1.2,3,2.4,5.989,3.571,8.994a2.151,2.151,0,0,0,1.624,1.5,5.558,5.558,0,0,1-1.436,10.905q-7.677.132-15.359,0A5.47,5.47,0,0,1,93.764,91.7,5.665,5.665,0,0,1,97.773,85.5c.514-.167,1.05-.086,1.324-.789,1.644-4.212,3.344-8.4,5.13-12.857-5.281,0-10.314,0-15.349,0-1.238,0-.759.939-.762,1.491-.032,6.057-.02,12.114-.02,18.171,0,2.622.042,5.246-.02,7.868-.025,1.048.109,1.526,1.376,1.511,4.909-.058,8.3,2.222,9.93,6.915a1.307,1.307,0,0,0,1.491,1.026,25.171,25.171,0,0,1,3.92.141c2.907.392,4.467,2.492,4.38,5.713-.078,2.88-1.845,4.976-4.565,5.223-1.487.135-2.995.041-4.493.041a1.954,1.954,0,0,1-1.88-1.533c.163-1.456.96-2.028,2.422-1.894a15.929,15.929,0,0,0,3.181-.014,1.971,1.971,0,0,0,1.948-2.269c-.076-1.323-.861-1.848-2.11-1.83-.25,0-.5,0-.749,0L62.083,112.4c-.312,0-.624.013-.936.009a1.767,1.767,0,0,0-2,1.757,2.038,2.038,0,0,0,1.709,2.323,7.1,7.1,0,0,0,1.679.062c9.118,0,18.235.026,27.352-.024,1.365-.007,2.3.3,2.648,1.709m-74.064-72.5c0,13.424.043,26.847-.048,40.27-.013,1.878.553,2.24,2.3,2.217,7.3-.1,14.609-.068,21.913-.022,1.715.011,3.281.022,4.427-1.608a3.136,3.136,0,0,1,1.925-1.048c.987-.162,1.323-.746,1.631-1.534,1.2-3.071,2.428-6.13,3.644-9.194,1.13-2.844,1.13-2.846-1.985-2.979-1.255-.054-2.517-.211-2.469-1.856.048-1.621,1.272-1.742,2.555-1.737,4.62.019,9.242-.06,13.86.048,1.389.032,1.8-.51,2.048-1.712A13.248,13.248,0,0,1,75.045,57.4a2.97,2.97,0,0,0,1.807-3.336c-.224-2.342.437-4.419,2.52-5.645a2.479,2.479,0,0,0,1.284-2.565q-.038-19.1-.017-38.21c0-3.259-.829-4.1-4.081-4.1-18.73-.018-37.46-.008-56.19-.078-1.606-.006-1.935.5-1.928,2,.055,13.423.032,26.847.032,40.271m30.463,56.689c1.811,0,3.628.1,5.43-.019,6.217-.42,12.594,1.221,18.638-1.358,1.262-.539,3.136.712,3.769-.843.5-1.233.106-2.831.106-4.267,0-4.207,0-4.193-4.308-4.144-.863.01-1.385.062-1.76,1.122A4.97,4.97,0,0,1,66,96.436c-5.3.076-10.612.045-15.917,0-1.734-.015-3.475-.8-3.991-2.331-.875-2.589-2.661-2.4-4.65-2.31-1.433.065-2.871.012-4.307.012q-11.894,0-23.786,0c-2.612,0-3.566.993-3.579,3.626-.006,1.061,0,2.123,0,3.184.008,2.975,1.163,4.005,4.143,3.825.787-.048,1.113-.248,1.079-1.076-.054-1.309-.022-2.622-.008-3.933a1.669,1.669,0,0,1,1.837-1.876q4.589-.018,9.178,0a1.647,1.647,0,0,1,1.843,1.851c0,1.124.087,2.256-.02,3.369-.123,1.3.3,1.691,1.634,1.677,6.492-.069,12.986-.031,19.478-.031M76.842,80.031c0-2.247-.057-4.5.024-6.741.04-1.118-.242-1.523-1.436-1.508q-6.646.089-13.294-.023c-1.256-.02-1.312.4-.906,1.389,1.269,3.109,2.514,6.227,3.713,9.364.608,1.59,1.182,3.1,3.189,3.41a2.215,2.215,0,0,1,1.338.955c.836,1.345,2.06,1.4,3.414,1.306a22.318,22.318,0,0,1,2.806-.035c.906.051,1.185-.307,1.168-1.19-.047-2.309-.015-4.619-.015-6.928M82.528,68v-.015c3.18,0,6.361-.035,9.541.018,1.165.019,1.318-.276.955-1.387A11.11,11.11,0,0,0,82.4,58.984a10.877,10.877,0,0,0-10.462,7.541c-.432,1.256-.164,1.508,1.053,1.488,3.179-.051,6.36-.017,9.54-.017M80.3,86.3V98.082c0,2.8,0,2.741,2.748,2.785,1.19.019,1.613-.267,1.605-1.537-.053-8.664-.073-17.33,0-25.995.019-2.156-1.422-1.358-2.42-1.461-1.078-.111-2.028-.192-1.978,1.523.125,4.3.041,8.6.041,12.9M68.984,108.64H95.953c-1.115-2.558-2.813-4.053-5.467-4.081q-8.047-.086-16.1,0c-2.653.032-4.307,1.582-5.406,4.083m-22.046-2.587q-8.605,0-17.211,0c-1.005,0-1.943-.209-1.908,1.43.033,1.556.949,1.3,1.856,1.3q16.93,0,33.86,0a4.015,4.015,0,0,0,1.118-.031c1.116-.338,1.124-1.473,1.212-2.271.079-.726-.869-.4-1.343-.405-5.861-.029-11.723-.019-17.584-.019M18.42,114.337c3.8-2.3,7.166-4.569,5.989-9.622a5.9,5.9,0,0,1-.013-1.305c0-4.579,0-4.547-4.6-4.45-1.02.021-1.415.248-1.4,1.348.055,4.606.023,9.213.023,14.03M106.666,92.95v-.007c2.426,0,4.854-.015,7.28.006,1.377.012,2.413-.551,2.451-1.964.04-1.522-1.008-2.124-2.475-2.12q-7.093.02-14.186-.009c-1.39-.006-2.412.579-2.45,1.97-.042,1.5,1,2.141,2.475,2.129,2.3-.02,4.6-.005,6.907-.005m-48.714,0v-.008q3.655,0,7.308,0c1.392,0,2.372-.6,2.364-2.051s-1-2.026-2.389-2.025c-4.747.006-9.495.01-14.242-.011-1.389-.006-2.424.557-2.463,1.968-.043,1.527,1.02,2.14,2.489,2.129,2.311-.017,4.622,0,6.933,0m48.9-18.109c-1.367,3.434-2.552,6.42-3.745,9.4-.22.55-.514,1.079.5,1.07,2.18-.02,4.361-.015,6.54,0,.817,0,.723-.38.5-.943-1.22-3.025-2.416-6.059-3.793-9.526M58.1,74.928c-1.349,3.374-2.5,6.258-3.656,9.14-.263.656-.44,1.19.631,1.169,2-.038,3.993-.021,5.991-.009.762,0,1.029-.294.735-1.028-1.17-2.927-2.337-5.855-3.7-9.272M82.418,55.465c.951-.109,2.445.618,2.231-1.5-.146-1.448-.3-2.79-2.089-2.962-1.432-.137-2.118,1-2.3,2.952s1.053,1.5,2.158,1.514" transform="translate(0 0)" fill="#100f0c"/>
        <path id="Trazado_608801" data-name="Trazado 608801" d="M4.86,28.264c1.278-.371,1.66-1.218,1.669-2.534.021-3.05-.262-6.108.234-9.154.863-5.3,5.213-7.554,10.1-7.392.766.025,1.154.369,1.143,1.148-.007.5,0,1,0,1.5q0,39.806.03,79.612c0,1.7-.156,2.53-2.256,2.507-3.759-.041-6.136,2.309-6.591,6.274a18.921,18.921,0,0,0,.143,5.961c.746,3.651,3.009,5.549,6.789,5.625.873.018,1.955-.335,1.911,1.254-.028,1.021-.307,1.392-1.385,1.441C10.195,114.8,6.508,111.217,6.5,104.46Q6.479,70.836,6.5,37.211c0-.5-.027-1,0-1.5a1.894,1.894,0,0,0-1.659-2.294l.018-5.154" transform="translate(-3.026 -5.735)" fill="#833c0e"/>
        <path id="Trazado_608802" data-name="Trazado 608802" d="M191.093,305.559c-.345-1.407-1.282-1.716-2.648-1.709-9.117.051-18.235.027-27.352.024a7.1,7.1,0,0,1-1.679-.062,2.037,2.037,0,0,1-1.709-2.323,1.767,1.767,0,0,1,2-1.757c.312,0,.624-.008.936-.008l40.841.011c.25,0,.5.009.749.006,1.249-.017,2.034.508,2.11,1.83a1.97,1.97,0,0,1-1.949,2.268,15.864,15.864,0,0,1-3.18.015c-1.462-.134-2.259.438-2.422,1.894-1.906.148-3.787-.471-5.7-.189" transform="translate(-98.557 -187.326)" fill="#5b89c6"/>
        <path id="Trazado_608803" data-name="Trazado 608803" d="M49.178,51.5c0-13.424.023-26.847-.032-40.271-.006-1.5.323-2.011,1.928-2,18.73.07,37.46.061,56.19.078,3.252,0,4.081.842,4.081,4.1q0,19.1.017,38.211a2.478,2.478,0,0,1-1.285,2.565c-2.084,1.226-2.744,3.3-2.52,5.646a2.971,2.971,0,0,1-1.807,3.336,13.249,13.249,0,0,0-6.772,9.186c-.252,1.2-.659,1.744-2.048,1.711-4.617-.109-9.239-.029-13.859-.048-1.283-.005-2.508.115-2.555,1.736-.048,1.645,1.214,1.8,2.469,1.856,3.115.134,3.116.135,1.986,2.979-1.217,3.064-2.445,6.124-3.645,9.194-.308.788-.644,1.372-1.631,1.534A3.137,3.137,0,0,0,77.77,92.36c-1.147,1.63-2.713,1.619-4.427,1.608-7.3-.046-14.61-.077-21.914.022-1.747.024-2.313-.338-2.3-2.216.09-13.423.048-26.847.048-40.271M80.412,21.147q-8.8,0-17.6,0c-2.078,0-2.689.569-2.7,2.662q-.041,11.329,0,22.659c.006,2.2.6,2.752,2.8,2.753q17.415.01,34.83,0c2.23,0,2.729-.513,2.731-2.757q.009-11.236,0-22.472c0-2.386-.452-2.843-2.829-2.846q-8.614-.012-17.228,0" transform="translate(-30.706 -5.767)" fill="#e27724"/>
        <path id="Trazado_608804" data-name="Trazado 608804" d="M65.213,255.338c-6.493,0-12.986-.038-19.478.031-1.332.014-1.758-.379-1.634-1.677.106-1.114.022-2.246.019-3.369a1.646,1.646,0,0,0-1.843-1.85q-4.588-.017-9.177,0a1.669,1.669,0,0,0-1.838,1.876c-.014,1.311-.047,2.624.008,3.933.034.828-.292,1.029-1.079,1.076-2.98.18-4.136-.851-4.143-3.825q0-1.592,0-3.184c.012-2.633.966-3.622,3.579-3.626q11.893-.019,23.786,0c1.436,0,2.874.052,4.307-.012,1.99-.09,3.775-.279,4.65,2.31.516,1.528,2.257,2.316,3.992,2.331,5.305.047,10.612.077,15.917,0a4.97,4.97,0,0,0,4.808-3.52c.375-1.06.9-1.112,1.76-1.122,4.309-.049,4.31-.063,4.309,4.144,0,1.436.4,3.034-.106,4.267-.633,1.556-2.507.3-3.769.843-6.044,2.579-12.421.939-18.638,1.358-1.8.122-3.62.019-5.43.019" transform="translate(-16.278 -152.913)" fill="#f7f9fa"/>
        <path id="Trazado_608805" data-name="Trazado 608805" d="M178.514,199.627c0,2.31-.031,4.62.015,6.929.018.882-.262,1.24-1.168,1.19a22.318,22.318,0,0,0-2.806.035c-1.353.095-2.578.039-3.414-1.306a2.211,2.211,0,0,0-1.338-.955c-2.007-.31-2.581-1.82-3.188-3.41-1.2-3.137-2.445-6.255-3.713-9.364-.405-.993-.349-1.41.906-1.389q6.646.1,13.294.023c1.195-.016,1.477.389,1.437,1.508-.081,2.245-.024,4.494-.025,6.741" transform="translate(-101.673 -119.596)" fill="#e27724"/>
        <path id="Trazado_608806" data-name="Trazado 608806" d="M202.095,166.3c-3.18,0-6.361-.034-9.54.017-1.217.019-1.485-.233-1.053-1.489a10.877,10.877,0,0,1,10.462-7.541,11.109,11.109,0,0,1,10.628,7.629c.363,1.111.21,1.406-.956,1.386-3.179-.052-6.36-.018-9.54-.018v.015" transform="translate(-119.567 -98.304)" fill="#ffc914"/>
        <path id="Trazado_608807" data-name="Trazado 608807" d="M214.054,205.985c0-4.3.084-8.605-.041-12.9-.05-1.715.9-1.635,1.979-1.523,1,.1,2.439-.695,2.42,1.461-.077,8.664-.057,17.33,0,25.995.007,1.269-.415,1.556-1.605,1.537-2.747-.044-2.748.017-2.748-2.785V205.985" transform="translate(-133.756 -119.684)" fill="#5b89c6"/>
        <path id="Trazado_608808" data-name="Trazado 608808" d="M183.956,282.825c1.1-2.5,2.753-4.05,5.406-4.082q8.046-.1,16.095,0c2.654.028,4.352,1.523,5.467,4.081Z" transform="translate(-114.972 -174.184)" fill="#ffc914"/>
        <path id="Trazado_608809" data-name="Trazado 608809" d="M93.3,282.721c5.862,0,11.723-.01,17.585.019.473,0,1.422-.321,1.342.4-.087.8-.1,1.933-1.212,2.271a4,4,0,0,1-1.118.031q-16.93,0-33.86,0c-.907,0-1.823.256-1.856-1.3-.035-1.638.9-1.431,1.908-1.43q8.606.012,17.211,0" transform="translate(-46.363 -176.668)" fill="#e27724"/>
        <path id="Trazado_608810" data-name="Trazado 608810" d="M49.081,279.225c0-4.817.032-9.424-.023-14.03-.013-1.1.381-1.326,1.4-1.348,4.6-.1,4.6-.129,4.6,4.45a5.9,5.9,0,0,0,.013,1.305c1.178,5.053-2.192,7.327-5.988,9.622" transform="translate(-30.66 -164.888)" fill="#5b89c6"/>
        <path id="Trazado_608811" data-name="Trazado 608811" d="M268.8,241.043c-2.3,0-4.6-.014-6.907.005-1.471.012-2.516-.624-2.475-2.129.039-1.391,1.06-1.977,2.45-1.97q7.093.034,14.187.009c1.467,0,2.515.6,2.475,2.12-.038,1.413-1.073,1.976-2.45,1.964-2.427-.021-4.853-.006-7.28-.006Z" transform="translate(-162.136 -148.092)" fill="#ffc914"/>
        <path id="Trazado_608812" data-name="Trazado 608812" d="M138.831,241.044c-2.311,0-4.623-.012-6.934,0-1.468.01-2.532-.6-2.489-2.13.04-1.411,1.075-1.974,2.463-1.968,4.748.021,9.495.017,14.242.011,1.388,0,2.381.571,2.389,2.025s-.972,2.054-2.364,2.051c-2.436,0-4.872,0-7.308,0Z" transform="translate(-80.879 -148.093)" fill="#ffc914"/>
        <path id="Trazado_608813" data-name="Trazado 608813" d="M278.332,199.576c1.377,3.466,2.573,6.5,3.793,9.526.227.563.321.947-.5.943-2.18-.011-4.361-.017-6.54,0-1.016.009-.722-.519-.5-1.07,1.193-2.983,2.378-5.969,3.745-9.4" transform="translate(-171.481 -124.734)" fill="#f7f9fa"/>
        <path id="Trazado_608814" data-name="Trazado 608814" d="M148.493,199.806c1.364,3.417,2.531,6.345,3.7,9.272.294.734.026,1.032-.736,1.028-2-.012-3.995-.029-5.991.009-1.071.021-.894-.513-.631-1.169,1.157-2.882,2.307-5.767,3.656-9.14" transform="translate(-90.397 -124.878)" fill="#e27724"/>
        <path id="Trazado_608815" data-name="Trazado 608815" d="M216.153,140.444c-1.105-.015-2.338.42-2.158-1.514s.867-3.089,2.3-2.952c1.791.171,1.944,1.514,2.089,2.962.214,2.123-1.28,1.4-2.231,1.5" transform="translate(-133.735 -84.979)" fill="#5b89c6"/>
        <path id="Trazado_608816" data-name="Trazado 608816" d="M98.685,41.009q8.614,0,17.228,0c2.378,0,2.828.46,2.829,2.846q.007,11.236,0,22.472c0,2.244-.5,2.756-2.732,2.757q-17.415.011-34.83,0c-2.2,0-2.789-.554-2.8-2.753q-.033-11.329,0-22.659c.007-2.093.619-2.658,2.7-2.662q8.8-.017,17.6,0m-.117,3.669c-5.055,0-10.111.035-15.165-.027-1.128-.013-1.474.242-1.461,1.427.066,5.991.053,11.983.009,17.974-.007,1.018.213,1.375,1.313,1.371q15.259-.065,30.518.007c1.313.007,1.512-.459,1.5-1.607q-.074-8.8,0-17.6c.012-1.214-.294-1.595-1.554-1.576-5.054.074-10.11.031-15.165.031" transform="translate(-48.979 -25.629)" fill="#100f0c"/>
        <path id="Trazado_608817" data-name="Trazado 608817" d="M104.525,50.746c5.055,0,10.111.043,15.165-.031,1.26-.018,1.567.363,1.554,1.576q-.089,8.8,0,17.6c.01,1.147-.19,1.614-1.5,1.607q-15.259-.088-30.518-.007c-1.1,0-1.32-.353-1.313-1.371.044-5.991.057-11.983-.009-17.974-.013-1.185.334-1.44,1.461-1.427,5.054.062,10.11.027,15.165.027" transform="translate(-54.936 -31.696)" fill="#f7f9fa"/>
      </g>
    </g>
  </g>
</svg>
