<svg xmlns="http://www.w3.org/2000/svg" xmlns:xlink="http://www.w3.org/1999/xlink" width="124.001" height="124" viewBox="0 0 124.001 124">
  <defs>
    <clipPath id="clip-path">
      <rect id="Rect치ngulo_347545" data-name="Rect치ngulo 347545" width="63.269" height="64.273" fill="none"/>
    </clipPath>
  </defs>
  <g id="Grupo_1017338" data-name="Grupo 1017338" transform="translate(-739 -4900.469)">
    <g id="Grupo_1015001" data-name="Grupo 1015001" transform="translate(354.001 2842.469)">
      <path id="Uni칩n_12" data-name="Uni칩n 12" d="M8464.769,11817.939a62.055,62.055,0,1,1,20.7-16.051l8.516,22.111Z" transform="translate(-7991 -9642)" fill="#a3bfe4"/>
      <circle id="Elipse_4842" data-name="Elipse 4842" cx="48" cy="48" r="48" transform="translate(399 2072)" fill="#fffbe5"/>
    </g>
    <g id="Grupo_1017344" data-name="Grupo 1017344" transform="translate(769.366 4928.947)">
      <g id="Grupo_1017343" data-name="Grupo 1017343" clip-path="url(#clip-path)">
        <path id="Trazado_608915" data-name="Trazado 608915" d="M33.739,166.618c.864.179,1.052.778,1.047,1.566-.018,2.983.019,5.966-.026,8.948-.011.751.206,1.007.937.911a5.988,5.988,0,0,1,1.157,0,1.025,1.025,0,0,1,1.071,1.066,17.85,17.85,0,0,1-.042,2.733,5.16,5.16,0,0,1-5.167,4.607q-13.741.046-27.482,0A5.216,5.216,0,0,1,.01,181.216c-.015-.561-.01-1.123,0-1.684.017-1.175.323-1.477,1.5-1.5,1.656-.029,1.656-.029,1.656-1.636q0-9.9,0-19.793c0-1.512.241-1.747,1.78-1.748,2.878,0,5.756.009,8.634-.007.691,0,1.26.118,1.487.868-.029.921-.536,1.261-1.419,1.254-1.734-.015-3.469.014-5.2.025-.736-.011-1.478.03-2.207-.046-.82-.085-.983.247-.98,1.009.029,6.313.038,12.627-.007,18.94-.007.937.242,1.159,1.164,1.155,7.753-.039,15.505-.013,23.258-.033.966,0,2.263.451,2.817-.2.571-.675.165-1.945.146-2.955.011-2.235.038-4.471.025-6.706,0-.8.234-1.364,1.076-1.54M18.987,180.136H15.724c-4.245,0-8.49,0-12.735.02-.307,0-.769-.272-.883.392a3.235,3.235,0,0,0,3.1,3.805c.456.013.916-.036,1.367.012.625.067.885-.109.826-.79-.062-.718.284-1.292,1.057-1.279s1.1.606,1.02,1.316c-.084.753.313.752.864.751q8.631-.019,17.261.007c.667,0,.933-.143.873-.855a1.018,1.018,0,0,1,1.01-1.222.986.986,0,0,1,1.057,1.167c-.1.908.365.961,1.037.9.348-.031.7,0,1.052-.007a3.166,3.166,0,0,0,3.231-3.268c.032-.8-.2-.977-.979-.971-5.3.037-10.6.019-15.893.019" transform="translate(0 -122.202)" fill="#161615"/>
        <path id="Trazado_608916" data-name="Trazado 608916" d="M62.318,115.41a1.229,1.229,0,0,1,1.539.736c1.628,2.852,3.288,5.686,4.916,8.538.562.984.354,1.5-.739,1.919-2.182.841-4.37,1.663-6.556,2.493-2.717,1.017-5.426,2.055-8.157,3.034-.59.212-.711.4-.371.931.434.677.772,1.417,1.22,2.084a3.538,3.538,0,0,1,.105,4.215c-1.823,1.527-3.188,1.526-4.991,0-.641-1.121-1.322-2.223-1.907-3.373-.324-.637-.6-.68-1.193-.315a3.635,3.635,0,0,1-4.155.156,1.826,1.826,0,0,0-2.4,0,2.825,2.825,0,0,1-.474.219,3.221,3.221,0,0,1-2.908-.709c-1.436-1.307-1.454-2.923-.047-4.81.558-.429,1.581-.385,1.489-1.475a4.429,4.429,0,0,1,2.6-4.515,24.161,24.161,0,0,0,6.074-4.09q5.972-4.886,11.942-9.773c1.443-1.182,1.779-1.134,2.7.491.445.789,1.239,1.57.251,2.513a1.136,1.136,0,0,1-1.508-.576c-.293-.665-.6-.455-1-.122q-6.08,5.03-12.178,10.039c-.361.3-.435.514-.169.945.771,1.251,1.461,2.552,2.225,3.808a1.283,1.283,0,0,1-.129,1.794c-.764.35-1.262.043-1.644-.633-.707-1.25-1.449-2.481-2.144-3.738-.242-.437-.46-.514-.9-.243-.951.593-1.939,1.125-2.9,1.7a2.079,2.079,0,0,0-.785,3.13c.581,1.039,1.168,2.075,1.776,3.1a2.122,2.122,0,0,0,3.273.9c1.435-.806,2.853-1.642,4.278-2.466,1.146-.405,2.3-.794,3.436-1.218,4.535-1.692,9.065-3.394,13.667-5.119-1.5-2.586-2.954-5.126-4.45-7.641a1.318,1.318,0,0,1,.209-1.926m-9.484,22.01c-.005-.109.015-.192-.016-.247a33.367,33.367,0,0,0-2.167-3.69c-.367-.489-.915.315-1.4.474-.366.121-.447.359-.228.727.625,1.048,1.211,2.12,1.83,3.172a.99.99,0,0,0,1.263.461,1.02,1.02,0,0,0,.719-.9m-14.466-3.436c.447-.129,1.185-.246,1.163-.734a1.967,1.967,0,0,0-.98-1.593c-.347-.181-1.317.828-1.3,1.289.03.662.421.987,1.113,1.037" transform="translate(-27.744 -86.693)" fill="#161615"/>
        <path id="Trazado_608917" data-name="Trazado 608917" d="M103.817,125.926a1.318,1.318,0,0,0-.209,1.926c1.5,2.515,2.949,5.056,4.45,7.641-4.6,1.724-9.132,3.427-13.666,5.119-1.139.425-2.291.813-3.436,1.218L90,140.08a1.283,1.283,0,0,0,.129-1.794c-.763-1.256-1.453-2.557-2.225-3.808-.266-.431-.192-.649.169-.945q6.1-5.006,12.178-10.039c.4-.332.706-.542,1,.122a1.136,1.136,0,0,0,1.508.576,8.611,8.611,0,0,0,1.062,1.733" transform="translate(-69.243 -97.21)" fill="#bfc71c"/>
        <path id="Trazado_608918" data-name="Trazado 608918" d="M235.712,178.308q0,1.024,0,2.048a1.341,1.341,0,0,0-1.063,1.571c.028.454-.013.912.007,1.367.04.945-.417,1.314-1.34,1.31q-6.05-.026-12.1,0c-.94,0-1.322-.408-1.318-1.336q.026-6.049,0-12.1c0-.935.392-1.329,1.326-1.325q6.05.026,12.1,0c.928,0,1.349.373,1.337,1.314-.024,1.858.013,3.717-.016,5.575a1.383,1.383,0,0,0,1.067,1.575m-8.425-5.292a4.21,4.21,0,1,0,4.2,4.242,4.308,4.308,0,0,0-4.2-4.242" transform="translate(-173.536 -134.033)" fill="#bfc71c"/>
        <path id="Trazado_608919" data-name="Trazado 608919" d="M210.814,11.177c-.8-.159-1.012-.681-1.06-1.447-.229-3.675.979-5.082,4.791-4.932,3.538.139,7.086.025,10.629.031,2.309,0,3.557,1.263,3.56,3.589q.009,5.893,0,11.786c0,2.325-1.253,3.582-3.564,3.586q-5.947.01-11.893,0a3.2,3.2,0,0,1-3.506-3.537c-.008-1.859.013-3.719-.009-5.578-.009-.772.253-1.29,1.052-1.447a1.226,1.226,0,0,1,1.07,1.43c-.02,1.788-.009,3.577-.005,5.365,0,1.384.275,1.657,1.658,1.658q5.524.005,11.048,0c1.928,0,2.1-.184,2.011-2.116q.016-5.674.034-11.348a1.126,1.126,0,0,0-1.286-1.286q-5.675.021-11.349.034c-1.928-.093-2.116.082-2.116,1.968,0,.277-.012.556,0,.832a1.2,1.2,0,0,1-1.065,1.409" transform="translate(-165.509 -3.778)" fill="#161615"/>
        <path id="Trazado_608920" data-name="Trazado 608920" d="M227.831,170.432a1.383,1.383,0,0,1-1.067-1.575c.03-1.858-.008-3.717.016-5.575.012-.942-.409-1.319-1.337-1.314q-6.05.028-12.1,0c-.934,0-1.331.391-1.326,1.326q.027,6.049,0,12.1c0,.928.378,1.339,1.318,1.336q6.05-.026,12.1,0c.923,0,1.38-.366,1.34-1.31-.019-.455.021-.913-.007-1.367a1.341,1.341,0,0,1,1.063-1.571c.8.158,1.017.676,1.065,1.444.228,3.67-.973,5.087-4.789,4.937-3.538-.139-7.086-.024-10.63-.032-2.309,0-3.557-1.264-3.561-3.589q-.009-5.894,0-11.788c0-2.325,1.251-3.58,3.565-3.584q5.947-.009,11.895,0a3.2,3.2,0,0,1,3.5,3.539c.008,1.859-.014,3.719.009,5.578a1.248,1.248,0,0,1-1.058,1.446" transform="translate(-165.654 -126.158)" fill="#161615"/>
        <path id="Trazado_608921" data-name="Trazado 608921" d="M14.777,59.478q0,3.9,0,7.8c0,1.332-.289,1.631-1.582,1.633q-5.795.008-11.589,0c-1.293,0-1.578-.3-1.579-1.634q-.005-7.848,0-15.7c0-1.334.284-1.629,1.58-1.631q5.794-.008,11.589,0c1.294,0,1.578.3,1.58,1.633q.007,3.95,0,7.9M2.135,59.32c0,2.243.02,4.487-.014,6.73-.009.6.157.767.758.762q4.522-.045,9.044,0c.6.006.758-.174.755-.763q-.034-6.625,0-13.249c0-.6-.157-.767-.758-.761q-4.522.046-9.044,0c-.6-.006-.768.164-.759.761.035,2.173.014,4.346.014,6.519" transform="translate(-0.018 -39.411)" fill="#161615"/>
        <path id="Trazado_608922" data-name="Trazado 608922" d="M89.518,0a9.48,9.48,0,1,1-9.523,9.464A9.494,9.494,0,0,1,89.518,0m-.063,16.853A7.366,7.366,0,1,0,82.1,9.5a7.386,7.386,0,0,0,7.353,7.352" transform="translate(-63.129 0)" fill="#161615"/>
        <path id="Trazado_608923" data-name="Trazado 608923" d="M214.882,19.268a1.2,1.2,0,0,0,1.065-1.409c-.013-.277,0-.555,0-.832,0-1.885.188-2.06,2.116-1.968,0,1.369-.024,2.739-.007,4.107a8.178,8.178,0,0,0,3.123,6.59c.1.654-.153,1.444.687,1.808.631.273,1.051-.067,1.417-.53a9.465,9.465,0,0,0,1.5.447,37.954,37.954,0,0,0,5.877.178c.091,1.932-.083,2.116-2.01,2.116q-5.524,0-11.048,0c-1.383,0-1.654-.275-1.658-1.658,0-1.789-.015-3.577.005-5.365a1.226,1.226,0,0,0-1.07-1.43q0-1.026,0-2.052" transform="translate(-169.577 -11.869)" fill="#3daae3"/>
        <path id="Trazado_608924" data-name="Trazado 608924" d="M120.176,211.377a3.538,3.538,0,0,0-.105-4.215c-.448-.667-.786-1.407-1.22-2.085-.341-.532-.22-.72.371-.931,2.731-.979,5.44-2.017,8.157-3.034q0,1.007,0,2.014c-.842.176-1.081.741-1.076,1.54.013,2.235-.014,4.471-.025,6.706l-6.106,0" transform="translate(-93.644 -158.71)" fill="#98d5f3"/>
        <path id="Trazado_608925" data-name="Trazado 608925" d="M50.237,159.2a24.165,24.165,0,0,1-6.074,4.09,4.429,4.429,0,0,0-2.6,4.515c.092,1.09-.931,1.045-1.489,1.475q0-4.518-.008-9.036c1.735-.011,3.469-.04,5.2-.026.883.008,1.39-.333,1.419-1.254,1.162.426,2.376.053,3.553.235" transform="translate(-31.615 -125.451)" fill="#98d5f3"/>
        <path id="Trazado_608926" data-name="Trazado 608926" d="M200.873,138.018c-.87-.006-1.312-.324-1.38-.968a.992.992,0,0,1,.878-1.124c1.775-.367,3.552-.727,5.334-1.059a.976.976,0,0,1,1.209.747.927.927,0,0,1-.622,1.264c-1.865.439-3.749.795-5.419,1.14" transform="translate(-157.426 -106.412)" fill="#161615"/>
        <path id="Trazado_608927" data-name="Trazado 608927" d="M191.234,106.007a1.278,1.278,0,0,1-.577.968q-1.93,1.441-3.853,2.89c-.578.434-1.176.541-1.65-.1s-.178-1.174.4-1.6c1.285-.962,2.565-1.931,3.853-2.89a1.092,1.092,0,0,1,1.263-.185,1.062,1.062,0,0,1,.568.918" transform="translate(-145.928 -82.83)" fill="#161615"/>
        <path id="Trazado_608928" data-name="Trazado 608928" d="M171.03,86.183a1.011,1.011,0,0,1-.844-1.581c1.031-1.491,2.129-2.938,3.25-4.364a.937.937,0,0,1,1.408-.117.95.95,0,0,1,.207,1.4c-1.046,1.44-2.121,2.858-3.2,4.276a1.026,1.026,0,0,1-.825.389" transform="translate(-134.159 -63.021)" fill="#161615"/>
        <path id="Trazado_608929" data-name="Trazado 608929" d="M28.107,164.817q0,4.518.008,9.036c-1.407,1.887-1.388,3.5.048,4.81a3.221,3.221,0,0,0,2.908.709,8.394,8.394,0,0,0,3.344,2.448c2.168,1,4.481.916,6.786.865,1.8,1.53,3.168,1.531,4.991,0l6.106,0c.019,1.01.425,2.279-.146,2.955-.554.655-1.851.2-2.817.2-7.753.02-15.505-.006-23.258.033-.922,0-1.171-.218-1.164-1.155.045-6.313.036-12.627.007-18.94,0-.762.16-1.094.98-1.009.73.076,1.471.035,2.207.046" transform="translate(-19.661 -130.021)" fill="#3daae3"/>
        <path id="Trazado_608930" data-name="Trazado 608930" d="M26.682,274.649c5.3,0,10.6.018,15.893-.019.779-.005,1.011.171.979.971a3.166,3.166,0,0,1-3.231,3.268c-.351.006-.7-.025-1.052.007-.672.061-1.136.008-1.037-.9a.986.986,0,0,0-1.057-1.167,1.018,1.018,0,0,0-1.01,1.222c.06.712-.206.858-.873.855q-8.63-.038-17.261-.007c-.551,0-.947,0-.864-.751.079-.71-.247-1.3-1.02-1.316s-1.12.561-1.057,1.279c.059.681-.2.857-.826.79-.451-.048-.911,0-1.367-.012a3.235,3.235,0,0,1-3.1-3.805c.114-.664.576-.39.883-.392,4.245-.022,8.49-.018,12.735-.02h3.263" transform="translate(-7.695 -216.716)" fill="#bfc71c"/>
        <path id="Trazado_608931" data-name="Trazado 608931" d="M65.618,185.474l.959,1.751c-1.425.823-2.843,1.659-4.278,2.466a2.122,2.122,0,0,1-3.273-.9c-.608-1.023-1.2-2.06-1.776-3.1a2.079,2.079,0,0,1,.786-3.13c.96-.579,1.948-1.111,2.9-1.7.436-.272.654-.195.9.243.695,1.257,1.437,2.488,2.144,3.738.382.675.88.983,1.644.633" transform="translate(-44.863 -142.604)" fill="#e34e42"/>
        <path id="Trazado_608932" data-name="Trazado 608932" d="M64.249,234.875c-2.306.051-4.619.14-6.786-.865a8.4,8.4,0,0,1-3.344-2.448,2.8,2.8,0,0,0,.474-.219,1.826,1.826,0,0,1,2.4,0,3.635,3.635,0,0,0,4.155-.156c.588-.364.869-.322,1.193.315.585,1.15,1.267,2.251,1.907,3.373" transform="translate(-42.708 -182.212)" fill="#98d5f3"/>
        <path id="Trazado_608933" data-name="Trazado 608933" d="M104.281,225.278a1.02,1.02,0,0,1-.719.9.99.99,0,0,1-1.263-.461c-.62-1.052-1.205-2.123-1.83-3.171-.219-.368-.138-.606.228-.727.486-.16,1.034-.964,1.4-.475a33.324,33.324,0,0,1,2.167,3.69c.031.054.011.137.016.247" transform="translate(-79.19 -174.551)" fill="#e34e42"/>
        <path id="Trazado_608934" data-name="Trazado 608934" d="M46.225,215.507c-.692-.051-1.083-.375-1.113-1.037-.021-.462.95-1.47,1.3-1.289a1.967,1.967,0,0,1,.98,1.593c.022.488-.716.6-1.163.734" transform="translate(-35.6 -168.217)" fill="#e34e42"/>
        <path id="Trazado_608935" data-name="Trazado 608935" d="M239.157,184.891a4.21,4.21,0,1,1-4.217,4.229,4.311,4.311,0,0,1,4.217-4.229m1.972,3.719a1.752,1.752,0,0,0-1.728-1.542,2.035,2.035,0,0,0-2.352,2.135A2.135,2.135,0,0,0,239.3,191.2a2.024,2.024,0,0,0,1.828-2.586" transform="translate(-185.406 -145.909)" fill="#161615"/>
        <path id="Trazado_608936" data-name="Trazado 608936" d="M233.03,25.7a8.177,8.177,0,0,1-3.123-6.59c-.017-1.369,0-2.738.007-4.107q5.675-.016,11.349-.034a1.126,1.126,0,0,1,1.286,1.286q-.02,5.674-.034,11.348a37.983,37.983,0,0,1-5.877-.178,9.472,9.472,0,0,1-1.5-.447c.013-.947.048-1.894.03-2.84-.01-.5.073-.8.677-.749.744.062,1.394-.176,1.4-1.033s-.625-1.116-1.378-1.057c-.569.045-.71-.184-.706-.721.008-.9.348-1.4,1.295-1.395.561.005,1.123,0,1.684,0,.686-.005,1.2-.3,1.215-1.021.014-.785-.525-1.084-1.257-1.083-.631,0-1.264-.021-1.894,0a3.1,3.1,0,0,0-3.114,3.168c-.006.781-.148,1.142-1.021,1.067a1.028,1.028,0,1,0,0,2.053c1-.1,1.087.415,1,1.175-.042.382-.028.77-.04,1.155" transform="translate(-181.428 -11.815)" fill="#98d5f3"/>
        <path id="Trazado_608937" data-name="Trazado 608937" d="M9.986,67.167c0-2.173.021-4.347-.014-6.519-.009-.6.159-.767.759-.761q4.522.044,9.044,0c.6-.006.761.166.758.761q-.038,6.625,0,13.249c0,.589-.156.769-.755.763q-4.522-.044-9.044,0c-.6.006-.767-.165-.758-.762.034-2.243.014-4.486.014-6.73m5.283-.945c-.666,0-1.333-.017-2,.005a1.043,1.043,0,0,0-1.14,1c-.024.7.475,1.075,1.156,1.088,1.332.025,2.665.029,4,0a1.014,1.014,0,0,0,1.089-1.047,1.032,1.032,0,0,0-1.105-1.034c-.664-.032-1.332-.007-2-.008m.081,4.209c-.666,0-1.333-.008-2,0-.683.011-1.2.331-1.219,1.031s.491,1.06,1.176,1.07q1.946.028,3.892,0c.685-.011,1.19-.378,1.168-1.077s-.546-1.013-1.23-1.022c-.6-.008-1.193,0-1.789,0m.861-6.324c.35,0,.7.021,1.05,0a1.045,1.045,0,1,0,.03-2.088c-.347-.032-.7-.011-1.05-.011-1.458,0-2.127.334-2.007,1.088.185,1.166,1.139,1.021,1.977,1.015" transform="translate(-7.87 -47.258)" fill="#bfc71c"/>
        <path id="Trazado_608938" data-name="Trazado 608938" d="M97.34,24.794a7.366,7.366,0,1,1,7.381-7.325,7.378,7.378,0,0,1-7.381,7.325m-3.152-7.461H94.2c0,1.015-.027,2.031.007,3.044.038,1.091.693,1.515,1.689,1.041q3.028-1.438,6.007-2.982a1.059,1.059,0,0,0,.03-2.018q-3.018-1.576-6.094-3.04c-.922-.442-1.6-.006-1.645,1.016-.041.978-.009,1.959-.009,2.939" transform="translate(-71.014 -7.94)" fill="#e34e42"/>
        <path id="Trazado_608939" data-name="Trazado 608939" d="M237.1,33.567c.012-.385,0-.773.04-1.155.082-.76,0-1.279-1-1.175a1.028,1.028,0,1,1,0-2.053c.872.075,1.015-.286,1.021-1.067a3.1,3.1,0,0,1,3.114-3.168c.63-.026,1.263,0,1.894,0,.733,0,1.271.3,1.257,1.083-.013.724-.53,1.015-1.215,1.021-.561,0-1.122.007-1.684,0-.947-.009-1.287.5-1.295,1.395,0,.537.137.766.706.721.753-.059,1.387.2,1.378,1.057s-.658,1.1-1.4,1.033c-.6-.051-.687.246-.677.749.018.946-.017,1.893-.03,2.84-.366.463-.786.8-1.417.53-.839-.363-.59-1.154-.686-1.808" transform="translate(-185.495 -19.679)" fill="#161615"/>
        <path id="Trazado_608940" data-name="Trazado 608940" d="M249.008,196.744a2.024,2.024,0,0,1-1.828,2.586,2.135,2.135,0,0,1-2.252-1.994,2.035,2.035,0,0,1,2.352-2.135c-.13.647-.556,1.343.259,1.85a1.078,1.078,0,0,0,1.469-.307" transform="translate(-193.284 -154.043)" fill="#3daae3"/>
        <path id="Trazado_608941" data-name="Trazado 608941" d="M256.973,196.757a1.078,1.078,0,0,1-1.469.307c-.815-.506-.389-1.2-.259-1.85a1.753,1.753,0,0,1,1.728,1.543" transform="translate(-201.25 -154.055)" fill="#98d5f3"/>
        <path id="Trazado_608942" data-name="Trazado 608942" d="M23.344,89.915c.666,0,1.333-.024,2,.008a1.031,1.031,0,0,1,1.105,1.034A1.014,1.014,0,0,1,25.358,92c-1.331.034-2.664.03-4,0-.681-.013-1.181-.383-1.156-1.088a1.043,1.043,0,0,1,1.14-1c.665-.022,1.332-.005,2,0" transform="translate(-15.945 -70.951)" fill="#161615"/>
        <path id="Trazado_608943" data-name="Trazado 608943" d="M23.432,109.9c.6,0,1.193-.005,1.789,0,.683.009,1.208.325,1.23,1.022s-.483,1.066-1.168,1.077q-1.946.032-3.892,0c-.685-.01-1.191-.369-1.176-1.07s.536-1.02,1.219-1.031c.666-.01,1.333,0,2,0" transform="translate(-15.952 -86.725)" fill="#161615"/>
        <path id="Trazado_608944" data-name="Trazado 608944" d="M32.115,72.019c-.839,0-1.792.15-1.977-1.016-.12-.754.549-1.088,2.007-1.088.35,0,.7-.021,1.05.011a1.045,1.045,0,1,1-.03,2.087c-.348.026-.7,0-1.05.006" transform="translate(-23.773 -55.169)" fill="#161615"/>
        <path id="Trazado_608945" data-name="Trazado 608945" d="M109.866,29.1c0-.98-.032-1.961.009-2.939.042-1.022.723-1.457,1.645-1.016q3.071,1.471,6.094,3.041a1.058,1.058,0,0,1-.029,2.018q-2.977,1.543-6.007,2.982c-1,.473-1.652.05-1.689-1.041-.035-1.014-.007-2.03-.007-3.044h-.015m2.144,1.5a15.068,15.068,0,0,0,2.795-1.478l-2.795-1.351Z" transform="translate(-86.692 -19.711)" fill="#161615"/>
        <path id="Trazado_608946" data-name="Trazado 608946" d="M120.079,41.055V38.226l2.795,1.351a15.067,15.067,0,0,1-2.795,1.478" transform="translate(-94.762 -30.167)" fill="#98d5f3"/>
      </g>
    </g>
  </g>
</svg>
