<svg xmlns="http://www.w3.org/2000/svg" xmlns:xlink="http://www.w3.org/1999/xlink" width="124.001" height="124" viewBox="0 0 124.001 124">
  <defs>
    <clipPath id="clip-path">
      <rect id="Rect치ngulo_346168" data-name="Rect치ngulo 346168" width="64.201" height="64.321" fill="none"/>
    </clipPath>
  </defs>
  <g id="Grupo_1015726" data-name="Grupo 1015726" transform="translate(-739 -4900.469)">
    <g id="Grupo_1015001" data-name="Grupo 1015001" transform="translate(354.001 2842.469)">
      <path id="Uni칩n_12" data-name="Uni칩n 12" d="M8464.769,11817.939a62.055,62.055,0,1,1,20.7-16.051l8.516,22.111Z" transform="translate(-7991 -9642)" fill="#a3bfe4"/>
      <circle id="Elipse_4842" data-name="Elipse 4842" cx="48" cy="48" r="48" transform="translate(399 2072)" fill="#fffbe5"/>
    </g>
    <g id="Grupo_1015739" data-name="Grupo 1015739" transform="translate(771.399 4928.8)">
      <g id="Grupo_1015738" data-name="Grupo 1015738" clip-path="url(#clip-path)">
        <path id="Trazado_606574" data-name="Trazado 606574" d="M5.333,64.133c-2.123.089-2.123.089-2.123-2.018q0-13.148.014-26.3a1.72,1.72,0,0,0-.632-1.452A7.5,7.5,0,0,1,0,28.518c0-2.672-.007-5.345,0-8.017a5.315,5.315,0,0,1,5.5-5.525c1.461-.008,2.923-.038,4.382.015.656.024.835-.147.825-.817-.041-2.85-.022-5.7-.016-8.552A5.33,5.33,0,0,1,16.319.006c1.354,0,2.708-.012,4.062,0a2.981,2.981,0,0,1,3.014,2.216,2.888,2.888,0,0,1-1.4,3.456,1.119,1.119,0,0,0-.615,1.185c.024,1.354.012,2.708,0,4.062a4.649,4.649,0,0,1-.343,1.659c-.579,1.493.019,2.388,1.6,2.388,1.318,0,2.637-.007,3.955,0a5.316,5.316,0,0,1,5.477,5.441q.023,4.222,0,8.445a7.185,7.185,0,0,1-2.59,5.619,1.658,1.658,0,0,0-.624,1.444q.025,13.362.011,26.724c0,1.519,0,1.52-1.483,1.511-.213,0-.426-.018-.639-.027-.006-7.089-.029-14.178,0-21.266,0-.906-.169-1.194-1.148-1.186q-9.564.078-19.129,0c-.979-.008-1.152.28-1.148,1.186.032,7.089.01,14.177,0,21.266m-1.007-37.4a5.452,5.452,0,0,1-.959-.009c-1.05-.19-1.419.243-1.228,1.253a1.789,1.789,0,0,1,0,.32,5.7,5.7,0,0,0,4.085,5.7A5.588,5.588,0,0,0,12.825,31c1.846-3.433,3.583-6.929,5.549-10.291a9.027,9.027,0,0,0,.873-4.92c0-.468-.158-.68-.644-.39a3.727,3.727,0,0,1-1.8.589c-.7.013-.809.3-.769.9.048.708,0,1.423.017,2.134a1.49,1.49,0,0,1-.361,1.078q-3.655,4.172-7.313,8.342a1.074,1.074,0,0,1-1.238.376.949.949,0,0,1-.7-1.066c.166-1.006-.368-1.11-1.148-1.016a8.064,8.064,0,0,1-.96.006M5.35,36.008c0,.949.055,1.806-.016,2.653-.066.776.224.927.951.923,5.944-.03,11.888-.017,17.832-.017,2.728,0,2.7,0,2.638-2.746-.015-.7-.3-.767-.826-.647a7.31,7.31,0,0,1-6.177-1.526c-1.344-.982-2.73-1.907-4.071-2.894-.439-.323-.659-.4-.937.183a7.823,7.823,0,0,1-9.394,4.07m24.593-8.155c0-2.186,0-2.186-2.012-2.186h-.214c-1.973,0-1.973,0-2.052,1.909-.046,1.122-.641,1.539-1.686,1.125-1.151-.456-2.269-1-3.423-1.444-.9-.35-1.916-1.3-2.676-.889-.729.393-.972,1.656-1.479,2.507-.271.455-.136.679.253.95,1.661,1.157,3.272,2.387,4.96,3.5a5.01,5.01,0,0,0,5.256.326c2.449-1.219,3.222-3.344,3.071-5.8M23.526,26.2c0-1.523.028-2.875-.01-4.225-.023-.828.571-.617.944-.555.416.069,1.123-.467,1.213.5.148,1.611.168,1.609,1.826,1.609.534,0,1.071-.035,1.6.009.614.052.916-.085.857-.8-.067-.813,0-1.636-.019-2.455a3.141,3.141,0,0,0-3.182-3.168c-1.53-.022-3.062.019-4.592-.017-.582-.013-.879.129-.776.756a4.9,4.9,0,0,1-.876,3.309c-.461.8-.86,1.626-1.308,2.428-.226.4-.308.644.265.864,1.312.5,2.588,1.1,4.057,1.737M8.557,24.963c1.48-1.676,2.763-3.141,4.063-4.591.36-.4.266-.661-.155-.914a3.5,3.5,0,0,1-1.421-1.81.753.753,0,0,0-.86-.544c-1.636.027-3.274-.011-4.91.018A3.124,3.124,0,0,0,2.148,20.23c-.028,1.209.029,2.421-.02,3.629-.026.636.218.776.795.751.923-.042,1.851-.039,2.775,0,.542.023.776-.118.732-.7-.049-.637.006-1.281-.014-1.921-.031-1.012.728-.531,1.144-.57s1.059-.3,1.01.6c-.048.881-.01,1.766-.01,2.949M19.25,8.948V8.841c0-2.42,0-2.42-2.387-2.42a4.211,4.211,0,0,0-4.026,4.362,3.2,3.2,0,0,0,6.406-.024c.032-.6.005-1.207.007-1.811M12.975,5.669c.983-1.65,2.539-1.508,4.081-1.446.782.032,1.568-.014,2.35.014a2.134,2.134,0,0,0,1.121-.268c.409-.223.876-.488.753-1.035s-.58-.747-1.143-.74c-1.246.016-2.493-.006-3.739.007-2.111.023-3.306,1.172-3.422,3.468M13.7,17.695c.5-1.5.3-2.1-.826-2.477a2.5,2.5,0,0,0,.826,2.477" transform="translate(0 0)" fill="#080808"/>
        <path id="Trazado_606575" data-name="Trazado 606575" d="M24.91,217.251c.006-7.089.028-14.178,0-21.266,0-.906.169-1.194,1.148-1.186q9.564.078,19.129,0c.979-.008,1.152.28,1.148,1.186-.032,7.088-.009,14.177,0,21.266l-7.753-.012c.3-.255.193-.562.141-.883-.261-1.645-.5-3.294-.755-4.94q-.627-4.046-1.266-8.09a1.041,1.041,0,0,0-1.046-1.007,1.025,1.025,0,0,0-1.108.93c-.232,1.037-.475,2.072-.717,3.107-.757,3.242-1.525,6.48-2.258,9.727-.085.377-.434.9.249,1.148l-6.906.019" transform="translate(-19.577 -153.118)" fill="#5d7587"/>
        <path id="Trazado_606576" data-name="Trazado 606576" d="M213.415,168.811c-2.352,0-4.7.006-7.056,0-1.142,0-1.465-.319-1.467-1.444q-.011-5.506,0-11.012c0-1.125.324-1.439,1.469-1.44,4.74-.006,9.48.007,14.22-.01.985,0,1.429.4,1.424,1.4q-.026,5.56,0,11.119c0,1-.444,1.408-1.427,1.4-2.387-.024-4.776-.008-7.163-.008m6.437-7.224a3.067,3.067,0,0,0-1.158.765,4.767,4.767,0,0,1-5.915.313c-1.528-1.013-2.757-.315-4.14.361a2.573,2.573,0,0,0-1.629,3.016c.073.528.233.632.708.63,3.813-.014,7.627-.02,11.44,0,.582,0,.718-.191.706-.734-.033-1.422-.011-2.845-.011-4.357m-12.824-.074a3.2,3.2,0,0,0,.512-.219c2.212-1.592,4.435-1.821,6.765-.194a2.123,2.123,0,0,0,2.421-.014A33.716,33.716,0,0,0,219.6,158.9c.519-.428.294-1.08.216-1.6-.071-.477-.593-.234-.9-.236-3.7-.017-7.39,0-11.086-.022-.556,0-.836.079-.808.735.052,1.205.015,2.414.015,3.739" transform="translate(-161.047 -121.758)" fill="#080808"/>
        <path id="Trazado_606577" data-name="Trazado 606577" d="M209.854,19.2c0-1.139.022-2.279-.009-3.418a1.492,1.492,0,0,1,.728-1.422c1.988-1.305,3.961-2.634,5.931-3.966a1.354,1.354,0,0,1,1.673,0c1.971,1.33,3.944,2.658,5.931,3.965a1.517,1.517,0,0,1,.726,1.425q-.035,3.364,0,6.729a1.591,1.591,0,0,1-.772,1.509q-2.943,1.92-5.845,3.9a1.394,1.394,0,0,1-1.756,0q-2.9-1.979-5.846-3.9a1.559,1.559,0,0,1-.771-1.508c.036-1.1.01-2.207.01-3.311m7.467-.815a2.978,2.978,0,0,0,.288-.149q1.9-1.265,3.8-2.533c.423-.281.137-.458-.1-.618-1.207-.808-2.428-1.6-3.625-2.42a.561.561,0,0,0-.749.047q-1.762,1.189-3.545,2.347c-.445.288-.385.5.017.757,1.188.773,2.366,1.561,3.548,2.343.116.077.236.147.362.226M212,17.471c0,1.6,0,3.014,0,4.425a.585.585,0,0,0,.216.565c1.315.871,2.626,1.746,4.051,2.694,0-1.554,0-2.905,0-4.257,0-.278.045-.561-.257-.759-1.294-.849-2.578-1.713-4.009-2.667m6.41,7.711c1.421-.95,2.674-1.8,3.936-2.625a.657.657,0,0,0,.344-.6c-.006-1.436,0-2.871,0-4.359-4.168,2.047-4.291,2.24-4.277,6.606,0,.248,0,.5,0,.982" transform="translate(-164.943 -7.947)" fill="#080808"/>
        <path id="Trazado_606578" data-name="Trazado 606578" d="M161.1,12.662c-.536.59-1.088,1.166-1.6,1.774-.389.46-.668.58-1.162.053-.955-1.018-.995-.983.006-1.984,1.636-1.637,3.308-3.241,4.895-4.924.6-.636.9-.271,1.223.161.29.389,1.284.689.349,1.35a3.414,3.414,0,0,0-1.349,3.433c.1,1.2.013,2.421.023,3.632a1.132,1.132,0,0,1-1.3,1.3q-2.993-.012-5.986,0c-.82,0-1.271-.374-1.272-1.215,0-2.031,0-4.062,0-6.092A1.1,1.1,0,0,1,156.162,8.9a14.1,14.1,0,0,0,1.922-.017c.96-.132,1.169.226,1.157,1.148-.011.846-.246,1.165-1.06,1.006-.959-.187-1.229.216-1.133,1.137a14.682,14.682,0,0,1,0,2.456c-.038.587.184.718.723.7.961-.039,1.925-.049,2.885,0,.593.033.726-.194.69-.726-.04-.591-.009-1.186-.009-1.779l-.241-.164" transform="translate(-121.776 -5.69)" fill="#080808"/>
        <path id="Trazado_606579" data-name="Trazado 606579" d="M161.057,147.561c-.551.624-1.11,1.241-1.65,1.874-.326.383-.563.5-1,.062-1.074-1.067-1.1-1.039,0-2.136,1.613-1.61,3.259-3.189,4.822-4.846.594-.63.9-.285,1.223.155.286.39,1.29.686.355,1.35a3.419,3.419,0,0,0-1.352,3.432c.1,1.2.013,2.421.023,3.632a1.132,1.132,0,0,1-1.294,1.306q-2.993-.011-5.986,0c-.891,0-1.287-.44-1.281-1.318.012-2,.005-3.99,0-5.986a1.1,1.1,0,0,1,1.234-1.253,14.453,14.453,0,0,0,1.922-.016c.951-.128,1.18.212,1.161,1.143-.017.837-.234,1.171-1.057,1.01-.95-.185-1.234.2-1.137,1.133a17.481,17.481,0,0,1,.008,2.563c-.021.484.154.6.609.591,1-.03,2-.046,2.992,0,.586.03.732-.184.695-.723-.042-.591-.01-1.186-.01-1.78l-.271-.2" transform="translate(-121.763 -111.75)" fill="#080808"/>
        <path id="Trazado_606580" data-name="Trazado 606580" d="M55.682,244.856c-.683-.248-.334-.771-.249-1.148.733-3.247,1.5-6.486,2.258-9.727.242-1.035.485-2.07.717-3.107a1.025,1.025,0,0,1,1.108-.93,1.042,1.042,0,0,1,1.046,1.007q.633,4.045,1.266,8.09c.255,1.646.493,3.295.755,4.94.051.321.157.628-.141.883-.624-.077-1.392.453-1.8.041-.343-.343-.235-1.138-.33-1.732q-.412-2.572-.827-5.143c-.044-.273,0-.582-.325-.754-.529,2.237-1.121,4.455-1.554,6.7-.181.94-.443,1.323-1.391.931a1.868,1.868,0,0,0-.529-.055" transform="translate(-43.442 -180.742)" fill="#080808"/>
        <path id="Trazado_606581" data-name="Trazado 606581" d="M231.727,104.872c2.067,0,4.135.047,6.2-.021.925-.03.749.536.7,1.018-.046.453.408,1.17-.664,1.159q-6.253-.062-12.507,0c-1.152.013-.62-.761-.7-1.233-.1-.564-.066-.98.775-.95,2.064.074,4.133.024,6.2.024" transform="translate(-176.621 -82.412)" fill="#080808"/>
        <path id="Trazado_606582" data-name="Trazado 606582" d="M190.681,124.853c1.71,0,3.423.053,5.13-.019,1.13-.047.665.724.726,1.213.067.537.122.987-.757.972q-5.129-.095-10.261-.006c-1.127.018-.664-.725-.725-1.214-.067-.537-.126-1.015.758-.971,1.706.086,3.42.025,5.13.025" transform="translate(-145.219 -98.117)" fill="#080808"/>
        <path id="Trazado_606583" data-name="Trazado 606583" d="M255.211,127c-1.532,0-3.068-.062-4.595.024-.891.05-.9-.394-.832-1.012.058-.518-.32-1.2.776-1.176,3.063.071,6.129.062,9.192.005,1.143-.021.641.745.714,1.224.084.551.1,1.01-.767.96-1.492-.087-2.992-.024-4.488-.024" transform="translate(-196.318 -98.126)" fill="#080808"/>
        <path id="Trazado_606584" data-name="Trazado 606584" d="M255.1,259.8c1.532,0,3.067.055,4.6-.02.926-.045.749.535.7,1.017-.046.453.409,1.176-.664,1.16-3.1-.048-6.2-.052-9.3,0-.923.017-.748-.536-.7-1.018.046-.452-.41-1.2.664-1.158,1.565.06,3.135.015,4.7.015" transform="translate(-196.253 -204.191)" fill="#080808"/>
        <path id="Trazado_606585" data-name="Trazado 606585" d="M229.1,239.835c1.176,0,2.354.043,3.527-.013,1-.048.621.66.621,1.083s.375,1.1-.621,1.085q-3.633-.071-7.268,0c-1,.019-.621-.662-.621-1.085s-.376-1.129.621-1.083c1.244.056,2.493.013,3.74.013" transform="translate(-176.598 -188.505)" fill="#080808"/>
        <path id="Trazado_606586" data-name="Trazado 606586" d="M208.411,261.938c-1,0-2-.046-2.992.012-1.073.063-.614-.706-.662-1.158-.052-.486-.217-1.046.7-1.016,2.029.068,4.062.06,6.091.005,1.073-.029.613.71.662,1.161.052.486.218,1.082-.7,1.012-1.027-.078-2.065-.018-3.1-.018" transform="translate(-160.9 -204.192)" fill="#080808"/>
        <path id="Trazado_606587" data-name="Trazado 606587" d="M200.986,107.091h-.214c-1.3,0-1.741-.609-1.364-1.85.064-.212.157-.288.355-.288.819,0,1.639.01,2.458-.005.348-.006.373.177.408.462.2,1.621.148,1.682-1.643,1.682" transform="translate(-156.639 -82.492)" fill="#080808"/>
        <path id="Trazado_606588" data-name="Trazado 606588" d="M201.343,239.748a3.02,3.02,0,0,1,.427,0c.375.054.973-.2,1.084.144a5.4,5.4,0,0,1,.056,1.793c-.009.221-.25.2-.423.2-.748,0-1.5-.022-2.244.009-.439.018-.507-.166-.532-.559-.1-1.59-.118-1.589,1.632-1.589" transform="translate(-156.95 -188.419)" fill="#080808"/>
        <path id="Trazado_606589" data-name="Trazado 606589" d="M275.954,242.028h-.214c-1.311,0-1.742-.593-1.369-1.846.063-.21.15-.292.351-.292.819,0,1.638,0,2.458,0,.245,0,.352.074.413.346.31,1.388,0,1.795-1.425,1.795h-.214" transform="translate(-215.563 -188.559)" fill="#080808"/>
        <path id="Trazado_606590" data-name="Trazado 606590" d="M185.955,259.694c1.159-.34.866.509.963,1.148.163,1.075-.5.916-1.185,1-1.078.126-.919-.506-1-1.195-.119-1.066.476-1.048,1.219-.95" transform="translate(-145.196 -204.066)" fill="#080808"/>
        <path id="Trazado_606591" data-name="Trazado 606591" d="M12,82.813a8.067,8.067,0,0,0,.96-.006c.779-.094,1.313.01,1.148,1.016a.948.948,0,0,0,.7,1.066,1.074,1.074,0,0,0,1.238-.376q3.657-4.17,7.313-8.342a1.49,1.49,0,0,0,.361-1.078c-.02-.711.031-1.426-.017-2.134-.04-.6.073-.885.769-.9a3.727,3.727,0,0,0,1.8-.589c.486-.291.644-.078.644.39a9.029,9.029,0,0,1-.874,4.92c-1.966,3.363-3.7,6.858-5.549,10.291a5.588,5.588,0,0,1-6.6,3.008,5.7,5.7,0,0,1-4.085-5.7,1.792,1.792,0,0,0,0-.32c-.191-1.009.178-1.443,1.228-1.253a5.472,5.472,0,0,0,.959.009" transform="translate(-7.679 -56.076)" fill="#f8bea6"/>
        <path id="Trazado_606592" data-name="Trazado 606592" d="M24.909,151.742a7.823,7.823,0,0,0,9.394-4.071c.278-.585.5-.506.937-.183,1.341.987,2.727,1.912,4.071,2.894a7.31,7.31,0,0,0,6.177,1.526c.523-.12.811-.051.826.647.06,2.747.09,2.746-2.638,2.746-5.944,0-11.888-.013-17.832.017-.727,0-1.016-.147-.951-.924.072-.846.016-1.7.016-2.652" transform="translate(-19.559 -115.734)" fill="#3d6db3"/>
        <path id="Trazado_606593" data-name="Trazado 606593" d="M89.675,122.146c.151,2.455-.622,4.58-3.071,5.8a5.01,5.01,0,0,1-5.256-.326c-1.688-1.115-3.3-2.344-4.96-3.5-.389-.271-.524-.495-.253-.95.506-.851.749-2.114,1.479-2.507.76-.41,1.774.538,2.676.888,1.154.448,2.272.988,3.423,1.444,1.045.414,1.639,0,1.686-1.125.079-1.909.079-1.909,2.052-1.909h.214c2.012,0,2.012,0,2.012,2.186" transform="translate(-59.733 -94.292)" fill="#f8bea6"/>
        <path id="Trazado_606594" data-name="Trazado 606594" d="M93.448,89.021c-1.469-.636-2.745-1.233-4.057-1.737-.573-.22-.491-.46-.265-.864.448-.8.847-1.633,1.308-2.428a4.9,4.9,0,0,0,.876-3.309c-.1-.626.194-.769.776-.755,1.53.036,3.061-.006,4.592.017a3.14,3.14,0,0,1,3.182,3.168c.018.818-.048,1.642.019,2.455.059.711-.244.848-.857.8-.53-.045-1.067-.009-1.6-.009-1.658,0-1.678,0-1.826-1.609-.089-.97-.8-.434-1.212-.5-.373-.062-.967-.273-.944.555.038,1.35.01,2.7.01,4.224" transform="translate(-69.921 -62.824)" fill="#3d6db3"/>
        <path id="Trazado_606595" data-name="Trazado 606595" d="M16.368,87.794c0-1.183-.038-2.068.01-2.949.049-.9-.6-.639-1.01-.6s-1.175-.441-1.143.57c.02.64-.034,1.284.014,1.92.045.585-.19.726-.732.7-.924-.039-1.851-.041-2.775,0-.577.026-.821-.115-.795-.751.049-1.208-.008-2.419.02-3.628a3.124,3.124,0,0,1,3.126-3.109c1.636-.029,3.274.01,4.91-.018a.753.753,0,0,1,.86.543,3.5,3.5,0,0,0,1.421,1.81c.421.254.515.513.155.914-1.3,1.45-2.583,2.915-4.063,4.591" transform="translate(-7.81 -62.831)" fill="#3d6db3"/>
        <path id="Trazado_606596" data-name="Trazado 606596" d="M66.376,32.537c0,.6.025,1.209-.006,1.811a3.2,3.2,0,0,1-6.406.024A4.21,4.21,0,0,1,63.99,30.01c2.387,0,2.387,0,2.387,2.42,0,.036,0,.071,0,.107" transform="translate(-47.128 -23.589)" fill="#f8bea6"/>
        <path id="Trazado_606597" data-name="Trazado 606597" d="M60.642,13.729c.116-2.3,1.311-3.446,3.422-3.468,1.246-.013,2.493.009,3.739-.007.564-.007,1.02.191,1.143.74s-.344.812-.753,1.035a2.134,2.134,0,0,1-1.121.267c-.782-.028-1.568.018-2.35-.014-1.542-.062-3.1-.2-4.081,1.446" transform="translate(-47.667 -8.06)" fill="#ffb21d"/>
        <path id="Trazado_606598" data-name="Trazado 606598" d="M60.88,73.6a2.5,2.5,0,0,1-.826-2.477c1.123.375,1.321.974.826,2.477" transform="translate(-47.178 -55.906)" fill="#f8bea6"/>
        <path id="Trazado_606599" data-name="Trazado 606599" d="M227.49,186.147c0,1.512-.022,2.935.011,4.357.013.543-.124.738-.706.734-3.813-.025-7.627-.019-11.44,0-.475,0-.634-.1-.708-.63a2.573,2.573,0,0,1,1.629-3.016c1.383-.676,2.611-1.375,4.14-.361a4.767,4.767,0,0,0,5.915-.313,3.066,3.066,0,0,1,1.158-.765" transform="translate(-168.685 -146.317)" fill="#3d6db3"/>
        <path id="Trazado_606600" data-name="Trazado 606600" d="M214.839,169.221c0-1.324.037-2.534-.015-3.739-.028-.656.252-.738.808-.735,3.7.02,7.391,0,11.086.022.31,0,.833-.242.9.236.078.523.3,1.175-.216,1.6a33.715,33.715,0,0,1-2.868,2.186,2.123,2.123,0,0,1-2.421.014c-2.331-1.627-4.553-1.4-6.765.194a3.2,3.2,0,0,1-.512.219" transform="translate(-168.857 -129.466)" fill="#3d6db3"/>
        <path id="Trazado_606601" data-name="Trazado 606601" d="M229.23,27.343c-.126-.078-.246-.149-.362-.225-1.182-.781-2.36-1.57-3.548-2.343-.4-.262-.462-.469-.017-.757q1.785-1.154,3.545-2.347a.561.561,0,0,1,.749-.047c1.2.824,2.417,1.612,3.625,2.42.238.159.524.336.1.618q-1.9,1.266-3.8,2.533a2.98,2.98,0,0,1-.288.148" transform="translate(-176.852 -16.9)" fill="#ffb21d"/>
        <path id="Trazado_606602" data-name="Trazado 606602" d="M219.918,44.513c1.431.954,2.715,1.818,4.009,2.667.3.2.256.481.257.759,0,1.351,0,2.7,0,4.257-1.425-.948-2.737-1.823-4.051-2.694a.584.584,0,0,1-.216-.565c0-1.411,0-2.822,0-4.425" transform="translate(-172.862 -34.989)" fill="#ffb21d"/>
        <path id="Trazado_606603" data-name="Trazado 606603" d="M249.871,52.677c0-.486,0-.734,0-.982-.014-4.366.109-4.559,4.277-6.606,0,1.488,0,2.923,0,4.359a.658.658,0,0,1-.344.6c-1.262.83-2.515,1.675-3.936,2.625" transform="translate(-196.406 -35.441)" fill="#ffb21d"/>
      </g>
    </g>
  </g>
</svg>
