<svg xmlns="http://www.w3.org/2000/svg" xmlns:xlink="http://www.w3.org/1999/xlink" width="190" height="132.481" viewBox="0 0 190 132.481">
  <defs>
    <clipPath id="clip-path">
      <rect id="Rect치ngulo_346158" data-name="Rect치ngulo 346158" width="132.363" height="129.55" fill="none"/>
    </clipPath>
  </defs>
  <g id="Grupo_1071527" data-name="Grupo 1071527" transform="translate(-180 -3593.519)">
    <rect id="Rect치ngulo_377388" data-name="Rect치ngulo 377388" width="190" height="132" transform="translate(180 3594)" fill="#fff"/>
    <g id="Grupo_1071526" data-name="Grupo 1071526" transform="translate(208.638 3593.519)">
      <g id="Grupo_1015723" data-name="Grupo 1015723" clip-path="url(#clip-path)">
        <path id="Trazado_606442" data-name="Trazado 606442" d="M34.146,121.4c-.255-.669-.4-1-.505-1.339-.934-3.152-.413-3.845,2.819-3.871,3.453-.027,2.935.383,2.941-3.032.02-12.519.058-25.038-.042-37.556-.017-2.089.68-2.71,2.612-2.508,1.074.112,2.172-.033,3.254.029,5.013.288,9.889.223,14.1-3.224a9.446,9.446,0,0,1,5-1.938c2.817-.259,4.233-2.2,5.826-4.046.953-1.1.6-1.722-.636-2.25-8.338-3.571-13.35-9.857-15.071-18.738a1.8,1.8,0,0,0-1.47-1.548c-3.693-1.217-5.705-3.793-5.72-7.242s2-6.129,5.636-7.325a1.606,1.606,0,0,0,1.3-1.628c1.36-12.46,9.238-20.9,21.491-22.863A21.945,21.945,0,0,1,87.4,3.718a2.5,2.5,0,0,0,3.014-.465C94.4-.062,98.935-.969,103.774,1.112a12.233,12.233,0,0,1,7.871,10.778c.461,5.428-1.831,9.5-6.36,12.4-.617.4-1.658.365-1.635,1.472.025,1.213,1.109.92,1.764,1.178a7.516,7.516,0,0,1,4.886,7.44,6.929,6.929,0,0,1-5.261,6.863c-2.571.645-1.7,2.811-2.355,4.288-.545,1.23.741,1.394,1.335,1.85,2.12,1.628,4.3,3.183,6.478,4.733,1.637,1.164,2.174,2.548.778,4.191a2.468,2.468,0,0,0-.247,2.792c1.483,4.064,2.964,8.13,4.364,12.223.421,1.229.922,2.021,2.4,1.812,1.156-.163,1.812.407,1.639,1.64-.982,7,1.888,13.152,4.241,19.415,1.212,3.226,1.845,6.407-.293,9.507-.366.531-.73,1.241-1.261,1.452-3.044,1.213-2.852,3.724-2.683,6.263.014.216,0,.434,0,.651,0,4.009,0,4.009,4.024,4.133,2.154.066,2.62.794,1.776,3.641-.405,1.367-.119,1.606,1.151,1.579,2.532-.056,5.066-.031,7.6,0,.6.007,1.46-.2,1.51.766.053,1.044-.838.736-1.423.8a10.257,10.257,0,0,1-1.085.008q-53.624,0-107.248-.032c-.8,0-2.3.656-2.318-.678-.015-1.517,1.565-.811,2.425-.843,2.663-.1,5.332-.037,8.3-.037M90.108,26.431c7.674,1.51,11.059,9.668,6.574,15.729-.608.821-2.025,1.232-1.769,2.482.336,1.64,1.921.791,2.913,1.144,2.731.974,3.162.726,3.661-2.109.994-5.657.373-11.368.522-17.054.013-.514,0-1.1-.789-.869-2.726.81-5.441-.562-8.163-.02l-8.155,0A36.457,36.457,0,0,1,68.959,20.62c-.911-.562-1.364-.863-1.689.582a10.844,10.844,0,0,1-6.128,7.693,2.314,2.314,0,0,0-1.6,2.644c.08.726.016,1.685-1.019,1.5-3.267-.585-3.019,1.492-2.875,3.579.05.721,0,1.448.016,2.171C56.113,56.772,75,67.683,90.336,58.85a5.2,5.2,0,0,0,2.652-3.6c.512-1.958,1.423-3.666.293-5.7A2.032,2.032,0,0,1,93.7,47.5c.582-.727.325-1.289-.12-1.909-.505-.7-1.032-.223-1.533-.039a9.857,9.857,0,0,1-5.127.441,13.283,13.283,0,0,1-5.526-2.832,2.423,2.423,0,0,0,1.077,3.015,3.187,3.187,0,0,1-.739,5.605c-.6.239-1.353.585-1.755-.136-.482-.866.266-1.056.937-1.251a1.583,1.583,0,0,0,1.223-1.6c.014-.8-.323-1.564-1.1-1.665-1.417-.184-1.19-1.137-1.251-2.061-.118-1.79.263-3.587-.322-5.377-2.071-6.342,1.351-12.009,7.947-13.275l2.7.013m-6.156,94.912v.054c10.562,0,21.124-.04,31.685.04,1.75.013,2.17-.536,2.164-2.211q-.091-21.159.011-42.319c.011-1.883-.6-2.22-2.329-2.215q-31.469.1-62.939.022c-1.827,0-2.468.341-2.454,2.34q.142,20.941.009,41.885c-.01,1.865.421,2.47,2.385,2.452,10.489-.1,20.979-.047,31.469-.047M79.315,3.968c-13.122-.2-24.584,10.161-23.641,26.011.043.731.136,1.247,1.052,1.27s1.388-.308,1.268-1.25c-.153-1.2.4-1.784,1.508-2.236a9.655,9.655,0,0,0,6.4-8.731c.143-1.79.64-2.014,2.128-1.007a36.583,36.583,0,0,0,25.351,5.991,10.531,10.531,0,0,1,3.437.147c7.151,1.538,14.36-5.257,13.23-12.348-.737-4.627-3.164-7.93-7.594-9.431A10.593,10.593,0,0,0,90.737,5.26a2.189,2.189,0,0,1-2.891.43,17.891,17.891,0,0,0-8.531-1.722m9.533,40.4a8.3,8.3,0,0,0,8.319-8.207,8.449,8.449,0,0,0-8.326-8.286,8.3,8.3,0,0,0-8.219,8.3,8.007,8.007,0,0,0,8.225,8.193M72.46,65.024c-.563,3.284,2.109,4.793,3.508,6.945.745,1.147,4.274,1.88,5.011.9,2-2.666,5.132-4.793,4.511-8.876-.167-1.1-.4-1.286-1.42-1.07a20.889,20.889,0,0,1-9.2.225c-1.8-.42-3.063-.409-2.408,1.878m34.547,8.06c.578,0,1.159.04,1.732-.008,1.758-.145,4.2.807,5.081-.449.739-1.051-.954-3.105-1.376-4.766-.365-1.436-1.029-1.622-2.332-1.12-3.092,1.19-6.233,2.252-9.347,3.387-.691.252-1.666.264-1.376,1.5a1.687,1.687,0,0,0,1.986,1.482c1.874-.081,3.754-.022,5.631-.021M93.769,59.97a12.329,12.329,0,0,0,3.006,4.686c.723.729,2.086-.388,3.143-.739.205-.068.414-.127.625-.178.912-.219.844-.712.465-1.4a12.917,12.917,0,0,0-3.954-4.526c-1.084-.749-1.046-1.438.106-2.106q1.967-1.138,3.891-2.351a1.168,1.168,0,0,0,.465-1.685c-.359-.639-.98-.493-1.539-.329a8.306,8.306,0,0,0-6.208,8.627m6.094-10.588c3.7.66,4.389,2.369,2.147,5.234-.217.278-.507.4-.24.86,1.841,3.188,5.62,3.434,7.779.571.935-1.24.993-2.034-.393-2.955-2.156-1.432-4.266-2.947-6.283-4.566-1.4-1.126-2.274-.949-3.009.857m-45.8-15.1h-.009c0-1.652-.016-3.305.007-4.957.012-.841-.217-1.182-1.143-.906a6.015,6.015,0,0,0-3.979,5.606A5.933,5.933,0,0,0,52.8,39.684c.916.307,1.324.209,1.278-.879-.064-1.506-.016-3.017-.016-4.526m49.567-.329c0,1.583.04,3.168-.014,4.75-.039,1.144.347,1.369,1.4.967a6.008,6.008,0,0,0-.146-11.227c-1.069-.376-1.258.061-1.242.977.026,1.511.007,3.023,0,4.534M91.772,59.962c-1.332.627-2.49,1.215-3.683,1.721-1.255.532-1.328,1.087-.582,2.29,1.765,2.847,4.537,3.779,7.513,4.477.405.1.861.463,1.2.123.439-.439.055-.945-.181-1.367-1.261-2.26-2.543-4.509-3.815-6.763-.14-.249-.248-.532-.452-.481M119.9,88.638l-.465.039q0,7.441.007,14.882c0,.4-.159,1.009.389,1.077a1.684,1.684,0,0,0,1.1-.561c1.845-1.775,2.811-3.967,2.094-6.465-.872-3.039-2.069-5.986-3.125-8.972M98.939,69l.608-.218c3.6-1.281,7.185-2.577,10.789-3.833,1.08-.376.655-1.027.465-1.722-.229-.843-.616-1.28-1.542-.946-3.592,1.294-7.189,2.575-10.781,3.871-.65.235-.906.663-.559,1.345.276.542.175,1.333,1.02,1.5m-4.994,4.085a22.478,22.478,0,0,0,2.366-.021c.558-.06,1.479.43,1.58-.521a1.569,1.569,0,0,0-1.12-1.66c-1.627-.546-3.243-1.127-4.867-1.681-.993-.339-1.366.132-1.648,1.069-.787,2.616-.691,2.808,1.968,2.814q.861,0,1.722,0m-19.573-.03c-1.2-2.653-3.748-3.975-3.793-6.795a4.219,4.219,0,0,0-.957,6.05c1.053,1.686,2.943.471,4.75.745m12.655-6.8c-.026,2.964-2.773,4.234-3.718,6.867,1.738-.5,3.724,1.086,4.76-.947,1.487-2.917,1.167-4.116-1.043-5.92m22.567-6.36c-.146-.2-.234-.868-.578-.613-1.72,1.275-4.248.018-5.756,1.9-.214.267-.948.12-.693.79.192.5.5.85,1.149.61,1.824-.671,3.664-1.3,5.485-1.974a.524.524,0,0,0,.393-.717M96.145,51.581c1.034-.42,1.017-1.534,1.567-2.258.314-.413,1.175-.894.312-1.58a1.863,1.863,0,0,0-2.205-.159,1.816,1.816,0,0,0-.871,2.377c.235.648.452,1.352,1.2,1.62m7.488,7.251c-1.118-.82-2.2-1.622-3.3-2.417-.679-.494-1.637.16-1.516.339a12.647,12.647,0,0,0,2.556,2.8c.808.634,1.6.09,2.257-.719" transform="translate(-13.242 0)" fill="#0e0e0c"/>
        <path id="Trazado_606443" data-name="Trazado 606443" d="M23.847,118.765c-3.689,0-7.379-.073-11.065.032-1.735.05-2.207-.566-2.17-2.253.105-4.843.021-9.69.048-14.535.007-1.161.085-2.088-1.64-1.794A2.288,2.288,0,0,1,6.46,98.327,2.534,2.534,0,0,1,7.7,95.156c4.942-2.537,9.927-4.991,14.9-7.465a3.134,3.134,0,0,1,2.913.186c4.647,2.318,9.28,4.664,13.932,6.971a2.781,2.781,0,0,1,1.753,3.32,2.385,2.385,0,0,1-2.846,2.055c-1.512-.2-1.238.74-1.239,1.564-.007,4.918-.063,9.837.029,14.753.032,1.7-.513,2.3-2.232,2.255-3.686-.1-7.376-.031-11.065-.031m.086-1.611c3.251,0,6.5-.046,9.752.023,1.249.026,1.8-.241,1.778-1.652-.08-4.983-.063-9.968-.007-14.952A2,2,0,0,0,34.1,98.45c-2.936-1.376-5.847-2.814-8.7-4.361a3.042,3.042,0,0,0-3.217.05c-2.806,1.479-5.636,2.922-8.517,4.246a2.157,2.157,0,0,0-1.424,2.323c.05,4.911.058,9.824,0,14.735-.016,1.306.379,1.769,1.72,1.736,3.321-.081,6.645-.027,9.968-.027M39.7,97.564c-.086-.883-.734-1.117-1.307-1.406-4.447-2.24-8.9-4.466-13.345-6.716a2.3,2.3,0,0,0-2.257-.061c-4.507,2.283-9.029,4.535-13.546,6.8-.731.367-1.574.794-1.107,1.766.52,1.082,1.424.65,2.227.253,2.782-1.377,5.758-2.469,8.3-4.2,3.628-2.47,6.807-2.383,10.411.022a73.978,73.978,0,0,0,8.3,4.206c1.023.508,1.934.688,2.325-.664" transform="translate(-3.573 -49.42)" fill="#0e0e0c"/>
        <path id="Trazado_606444" data-name="Trazado 606444" d="M89.7,295.5H44.347c-.578,0-1.157-.007-1.736-.008-.562,0-1.036-.19-1.07-.808-.036-.646.455-.841,1-.871.505-.027,1.012-.019,1.518-.019q45.569,0,91.138.025c.891,0,2.469-.589,2.5.8.034,1.477-1.562.85-2.433.852q-22.784.059-45.569.029" transform="translate(-23.485 -166.047)" fill="#0e0e0c"/>
        <path id="Trazado_606445" data-name="Trazado 606445" d="M288.585,111.641c0,3.761-.064,7.523.03,11.281.039,1.543-.522,1.973-2,2-5.366.093-5.365.138-5.365-5.14,0-6.436.056-12.873-.037-19.308-.025-1.751.57-2.23,2.251-2.227,5.121.007,5.121-.053,5.121,5.153q0,4.122,0,8.244m-1.579-.26c0-3.329-.1-6.661.037-9.984.074-1.848-1.07-1.5-2.1-1.5s-2.135-.367-2.11,1.471q.137,10.2-.005,20.4c-.028,1.844,1.047,1.509,2.091,1.508s2.184.342,2.124-1.485c-.113-3.47-.033-6.945-.033-10.419" transform="translate(-158.992 -55.545)" fill="#0e0e0c"/>
        <path id="Trazado_606446" data-name="Trazado 606446" d="M266.623,120.859c0,2.895-.053,5.792.023,8.685.036,1.352-.344,1.929-1.8,1.992-5.582.242-5.581.286-5.581-5.363,0-4.705.052-9.41-.029-14.113-.028-1.615.522-2.115,2.132-2.114,5.255,0,5.255-.056,5.255,5.268v5.646m-1.688-.037c0-2.6-.063-5.2.022-7.791.056-1.737-1.128-1.307-2.047-1.32-.94-.012-2.043-.366-2.018,1.35q.113,7.683,0,15.368c-.026,1.619.9,1.492,1.944,1.463s2.214.319,2.133-1.495c-.113-2.52-.028-5.049-.03-7.575" transform="translate(-146.567 -62.161)" fill="#0e0e0c"/>
        <path id="Trazado_606447" data-name="Trazado 606447" d="M264.95,67.838a9.1,9.1,0,0,1-9.065,9.133,9.206,9.206,0,0,1-9.111-9.134,9.088,9.088,0,0,1,18.176,0m-1.56.023a7.567,7.567,0,0,0-7.377-7.543,7.5,7.5,0,1,0-.259,15,7.484,7.484,0,0,0,7.636-7.461" transform="translate(-139.521 -33.22)" fill="#0e0e0c"/>
        <path id="Trazado_606448" data-name="Trazado 606448" d="M237.166,130.045c0-2.026.075-4.055-.024-6.077-.076-1.545.361-2.172,2.049-2.173,5.384,0,5.384-.069,5.384,5.351,0,3.039-.051,6.079.022,9.116.034,1.383-.432,1.909-1.851,1.97-5.582.239-5.581.278-5.581-5.366v-2.822m1.709-.017c0,1.808.041,3.617-.012,5.424-.049,1.673,1.18,1.136,1.969,1.115.77-.02,2.028.629,2.018-1.058-.022-3.616,0-7.232-.01-10.847,0-.482.069-.941-.643-1.15-2.209-.651-3.321.113-3.324,2.4q0,2.061,0,4.122" transform="translate(-134.071 -68.861)" fill="#0e0e0c"/>
        <path id="Trazado_606449" data-name="Trazado 606449" d="M5.6,295.624c-1.44,0-2.881,0-4.321,0-.6,0-1.234-.02-1.273-.8s.548-.906,1.177-.906c3.025,0,6.05,0,9.075.008.6,0,1.239.112,1.18.905-.057.768-.707.787-1.3.787q-2.269,0-4.537,0" transform="translate(0 -166.178)" fill="#0e0e0c"/>
        <path id="Trazado_606450" data-name="Trazado 606450" d="M283.892,295.625h-4.537c-.541,0-1.07-.116-1.129-.74-.073-.778.511-.947,1.137-.949q4.645-.011,9.29,0c.571,0,1.015.224,1.01.854s-.432.84-1.017.837c-1.585-.008-3.169,0-4.753,0" transform="translate(-157.3 -166.184)" fill="#0e0e0c"/>
        <path id="Trazado_606451" data-name="Trazado 606451" d="M3.1,280.927c-1.014-.624-2.872.719-2.872-1.017,0-1.315,1.776-.719,2.72-.684.982.036,2.809-.8,2.786.835-.021,1.473-1.847.176-2.634.866" transform="translate(-0.132 -157.767)" fill="#0e0e0c"/>
        <path id="Trazado_606452" data-name="Trazado 606452" d="M294.483,280.859c-.934-.5-2.82.725-2.805-.893.012-1.426,1.871-.723,2.885-.729.926-.006,2.667-.675,2.631.794-.036,1.44-1.777.408-2.71.828" transform="translate(-164.909 -157.781)" fill="#0e0e0c"/>
        <path id="Trazado_606453" data-name="Trazado 606453" d="M118.642,218.507c-10.49,0-20.98-.053-31.469.047-1.964.019-2.395-.586-2.385-2.451q.113-20.943-.009-41.885c-.013-2,.628-2.345,2.455-2.34q31.469.082,62.939-.022c1.731-.006,2.34.332,2.329,2.215q-.125,21.159-.011,42.319c.007,1.675-.413,2.224-2.163,2.211-10.561-.08-21.123-.04-31.685-.04v-.054m2.455-23.341a6.99,6.99,0,1,0-13.977.178,6.989,6.989,0,1,0,13.977-.178" transform="translate(-47.932 -97.164)" fill="#49b0e4"/>
        <path id="Trazado_606454" data-name="Trazado 606454" d="M121.2,6.184a17.9,17.9,0,0,1,8.531,1.722,2.189,2.189,0,0,0,2.891-.43A10.593,10.593,0,0,1,144.337,4.6c4.43,1.5,6.857,4.8,7.594,9.432,1.13,7.091-6.079,13.886-13.231,12.348a10.528,10.528,0,0,0-3.436-.148,36.581,36.581,0,0,1-25.352-5.991c-1.488-1.006-1.984-.782-2.127,1.007a9.655,9.655,0,0,1-6.4,8.731c-1.107.452-1.661,1.031-1.508,2.237.12.942-.345,1.273-1.268,1.25s-1.009-.538-1.053-1.27C96.617,16.345,108.079,5.987,121.2,6.184" transform="translate(-55.128 -2.216)" fill="#8c8c8c"/>
        <path id="Trazado_606455" data-name="Trazado 606455" d="M129.247,52.636c-6.6,1.267-10.024,6.934-7.953,13.276.584,1.789.2,3.586.322,5.377.061.924-.166,1.877,1.251,2.061.78.1,1.117.862,1.1,1.665a1.583,1.583,0,0,1-1.223,1.6c-.671.2-1.42.386-.938,1.251.4.721,1.156.375,1.755.136a3.186,3.186,0,0,0,.739-5.605,2.424,2.424,0,0,1-1.077-3.015,13.287,13.287,0,0,0,5.526,2.832,9.857,9.857,0,0,0,5.127-.441c.5-.183,1.028-.665,1.533.04.445.62.7,1.182.12,1.909a2.035,2.035,0,0,0-.418,2.054c1.13,2.032.219,3.741-.293,5.7a5.2,5.2,0,0,1-2.652,3.6C116.828,93.9,97.945,82.991,97.5,65.008c-.018-.724.034-1.451-.016-2.171-.144-2.087-.392-4.165,2.875-3.579,1.034.185,1.1-.773,1.019-1.5a2.313,2.313,0,0,1,1.6-2.644,10.845,10.845,0,0,0,6.128-7.693c.326-1.446.778-1.145,1.69-.583a36.45,36.45,0,0,0,15.938,5.115c.756.523,1.8-.014,2.517.683M120.6,84.212a4.785,4.785,0,0,0,3.177-1.16c.386-.349.771-.74.375-1.286-.409-.563-.817-.238-1.3.012-3.134,1.636-4.656,1.02-5.817-2.347-.171-.5-.248-1.091-.894-.98-.782.134-.631.838-.6,1.4a4.958,4.958,0,0,0,5.052,4.363m-6.469-24.79a5.292,5.292,0,0,0-4.32,2c-.336.419-.557.858-.07,1.313a.647.647,0,0,0,.964-.034,4.27,4.27,0,0,1,5.951-.916.723.723,0,0,0,1.1-.254.836.836,0,0,0-.4-1.092,5.779,5.779,0,0,0-3.226-1.017M112.043,66.6c.1.992-.2,2.35,1.489,2.277,1.56-.067,1.462-1.333,1.465-2.42s.063-2.4-1.448-2.446c-1.8-.056-1.392,1.45-1.506,2.589" transform="translate(-55.074 -26.219)" fill="#f59a15"/>
        <path id="Trazado_606456" data-name="Trazado 606456" d="M163.261,80.627a8.007,8.007,0,0,1-8.225-8.193,8.3,8.3,0,0,1,8.219-8.3,8.449,8.449,0,0,1,8.326,8.286,8.3,8.3,0,0,1-8.319,8.207m3.945-9.22a1.09,1.09,0,0,0-.486-.99c-1.97-1.738-6.059-1.141-7.584,1.1-.306.449-.586.846-.058,1.309.436.382.834.183,1.133-.153a4.1,4.1,0,0,1,5.631-.9c.532.3,1.13.329,1.363-.362m-2.057,5.035c-.071-1,.229-2.436-1.514-2.373-1.425.051-1.535,1.239-1.505,2.372s-.088,2.469,1.6,2.456c1.613-.012,1.373-1.3,1.423-2.454" transform="translate(-87.655 -36.26)" fill="#8c8c8c"/>
        <path id="Trazado_606457" data-name="Trazado 606457" d="M179.811,59.037c2.721-.541,5.436.83,8.163.02.784-.233.8.356.789.869-.149,5.686.472,11.4-.522,17.054-.5,2.835-.93,3.082-3.661,2.109-.991-.353-2.577.5-2.912-1.144-.256-1.25,1.161-1.66,1.769-2.482,4.485-6.061,1.1-14.219-6.571-15.728.855-.773,2.049-.112,2.946-.7" transform="translate(-99.996 -33.305)" fill="#f59a15"/>
        <path id="Trazado_606458" data-name="Trazado 606458" d="M136.025,146.773c-.656-2.287.609-2.3,2.408-1.878a20.887,20.887,0,0,0,9.2-.225c1.016-.217,1.254-.029,1.42,1.07.62,4.083-2.513,6.21-4.511,8.877-.736.982-4.265.249-5.011-.9-1.4-2.152-4.072-3.661-3.508-6.946" transform="translate(-76.807 -81.749)" fill="#f59a15"/>
        <path id="Trazado_606459" data-name="Trazado 606459" d="M205.765,159.576c-1.878,0-3.757-.06-5.631.021a1.687,1.687,0,0,1-1.986-1.482c-.291-1.231.685-1.243,1.376-1.5,3.113-1.136,6.255-2.2,9.347-3.388,1.3-.5,1.967-.316,2.332,1.12.422,1.662,2.115,3.715,1.376,4.766-.883,1.256-3.323.3-5.081.449-.574.047-1.155.007-1.732.007" transform="translate(-111.999 -86.493)" fill="#49b0e4"/>
        <path id="Trazado_606460" data-name="Trazado 606460" d="M185.281,126.578a8.305,8.305,0,0,1,6.208-8.627c.56-.164,1.18-.31,1.54.329a1.169,1.169,0,0,1-.466,1.685q-1.923,1.211-3.891,2.351c-1.153.668-1.19,1.356-.106,2.106a12.914,12.914,0,0,1,3.954,4.526c.379.688.448,1.182-.465,1.4-.21.05-.419.11-.625.178-1.057.351-2.42,1.468-3.143.739a12.331,12.331,0,0,1-3.005-4.686" transform="translate(-104.753 -66.608)" fill="#f59a15"/>
        <path id="Trazado_606461" data-name="Trazado 606461" d="M199.3,111.591c.735-1.806,1.607-1.982,3.009-.857,2.017,1.62,4.128,3.134,6.283,4.566,1.386.921,1.328,1.715.393,2.955-2.158,2.863-5.938,2.617-7.779-.571-.266-.461.023-.582.241-.86,2.242-2.865,1.556-4.574-2.147-5.234" transform="translate(-112.683 -62.208)" fill="#f59a15"/>
        <path id="Trazado_606462" data-name="Trazado 606462" d="M87.257,71.124c0,1.509-.048,3.02.016,4.526.046,1.088-.362,1.186-1.278.879a5.935,5.935,0,0,1-3.862-5.662,6.015,6.015,0,0,1,3.979-5.606c.925-.276,1.155.065,1.143.906-.023,1.652-.007,3.3-.007,4.957Z" transform="translate(-46.436 -36.844)" fill="#f59a15"/>
        <path id="Trazado_606463" data-name="Trazado 606463" d="M207.951,70.774c0-1.511.021-3.023-.005-4.534-.016-.916.173-1.352,1.242-.977a6.007,6.007,0,0,1,.146,11.227c-1.051.4-1.438.177-1.4-.967.054-1.582.013-3.166.016-4.75" transform="translate(-117.561 -36.823)" fill="#f59a15"/>
        <path id="Trazado_606464" data-name="Trazado 606464" d="M244.795,203.946c1.056,2.986,2.253,5.933,3.125,8.972.717,2.5-.249,4.69-2.094,6.465a1.683,1.683,0,0,1-1.1.561c-.548-.069-.389-.677-.389-1.077q-.016-7.441-.007-14.882l.465-.039" transform="translate(-138.132 -115.307)" fill="#49b0e4"/>
        <path id="Trazado_606465" data-name="Trazado 606465" d="M195.65,149.871c-.845-.172-.744-.962-1.02-1.5-.346-.681-.091-1.11.559-1.345,3.591-1.3,7.188-2.577,10.781-3.871.926-.334,1.313.1,1.542.946.189.7.615,1.346-.465,1.723-3.6,1.256-7.193,2.552-10.789,3.833l-.609.219" transform="translate(-109.953 -80.871)" fill="#e14a63"/>
        <path id="Trazado_606466" data-name="Trazado 606466" d="M180.327,162.963c-.575,0-1.149,0-1.723,0-2.659-.006-2.755-.2-1.967-2.814.282-.937.655-1.408,1.648-1.069,1.625.555,3.24,1.135,4.867,1.681a1.568,1.568,0,0,1,1.12,1.659c-.1.952-1.022.462-1.58.522a22.47,22.47,0,0,1-2.366.021" transform="translate(-99.624 -89.879)" fill="#49b0e4"/>
        <path id="Trazado_606467" data-name="Trazado 606467" d="M133.348,159.248c-1.808-.274-3.7.941-4.75-.745a4.219,4.219,0,0,1,.957-6.05c.045,2.82,2.594,4.141,3.793,6.795" transform="translate(-72.217 -86.194)" fill="#e14a63"/>
        <path id="Trazado_606468" data-name="Trazado 606468" d="M164.934,152.436c2.21,1.8,2.53,3,1.043,5.919-1.037,2.034-3.023.452-4.76.948.944-2.634,3.692-3.9,3.718-6.867" transform="translate(-91.149 -86.185)" fill="#e14a63"/>
        <path id="Trazado_606469" data-name="Trazado 606469" d="M212.482,136.929a.524.524,0,0,1-.393.717c-1.821.677-3.662,1.3-5.485,1.974-.652.239-.957-.106-1.149-.61-.255-.671.479-.523.693-.79,1.508-1.885,4.036-.628,5.756-1.9.345-.256.433.412.578.613" transform="translate(-116.13 -77.038)" fill="#f59a15"/>
        <path id="Trazado_606470" data-name="Trazado 606470" d="M189,113.109c-.746-.268-.963-.972-1.2-1.62a1.816,1.816,0,0,1,.87-2.377,1.864,1.864,0,0,1,2.206.159c.863.686,0,1.167-.312,1.58-.55.724-.533,1.838-1.567,2.258" transform="translate(-106.096 -61.527)" fill="#e14a63"/>
        <path id="Trazado_606471" data-name="Trazado 606471" d="M201.7,131.985c-.661.81-1.449,1.353-2.257.719a12.646,12.646,0,0,1-2.556-2.8c-.122-.178.836-.832,1.516-.339,1.092.795,2.179,1.6,3.3,2.417" transform="translate(-111.313 -73.153)" fill="#e14a63"/>
        <path id="Trazado_606472" data-name="Trazado 606472" d="M173.03,59.207c-.9.587-2.091-.074-2.946.7l-2.7-.013c-.711-.7-1.758-.16-2.515-.683l8.16,0" transform="translate(-93.214 -33.475)" fill="#8c8c8c"/>
        <path id="Trazado_606473" data-name="Trazado 606473" d="M31.642,125.277c-3.323,0-6.647-.055-9.968.027-1.341.033-1.736-.43-1.72-1.737q.09-7.367,0-14.735a2.157,2.157,0,0,1,1.424-2.323c2.882-1.324,5.711-2.768,8.517-4.246a3.043,3.043,0,0,1,3.217-.05c2.849,1.546,5.76,2.985,8.7,4.361a2,2,0,0,1,1.354,2.124c-.056,4.984-.073,9.969.007,14.952.023,1.411-.529,1.679-1.778,1.652-3.249-.069-6.5-.023-9.752-.023m-.127-4.771c1.084,0,2.175-.073,3.251.018,1.468.124,2.271-.3,2.478-1.918a52.748,52.748,0,0,1,1.2-5.928c.322-1.3-.151-1.815-1.383-1.67-2.187.258-3.623-.109-3.184-2.871a2.062,2.062,0,0,0-1.612-2.3,2.292,2.292,0,0,0-2.559.712c-.717.886-.47,1.942-.444,2.926.028,1.075-.257,1.507-1.442,1.546-3.442.113-3.442.173-2.843,3.506.051.283.152.557.215.838,1.153,5.137,1.153,5.137,6.319,5.137" transform="translate(-11.281 -57.542)" fill="#e14a63"/>
        <path id="Trazado_606474" data-name="Trazado 606474" d="M41.885,99.78c-.39,1.352-1.3,1.172-2.325.664a73.977,73.977,0,0,1-8.3-4.206c-3.6-2.405-6.784-2.492-10.411-.022-2.542,1.73-5.518,2.822-8.3,4.2-.8.4-1.707.83-2.227-.253-.467-.972.376-1.4,1.107-1.766,4.517-2.264,9.039-4.517,13.546-6.8a2.3,2.3,0,0,1,2.257.061c4.443,2.25,8.9,4.475,13.345,6.716.573.289,1.22.523,1.307,1.406" transform="translate(-5.761 -51.636)" fill="#49b0e4"/>
        <path id="Trazado_606475" data-name="Trazado 606475" d="M289.1,113.5c0,3.473-.08,6.949.033,10.419.06,1.828-1.086,1.484-2.124,1.485s-2.119.336-2.091-1.508q.156-10.2.005-20.4c-.025-1.838,1.086-1.471,2.11-1.471s2.178-.352,2.1,1.5c-.133,3.323-.037,6.655-.037,9.984" transform="translate(-161.088 -57.662)" fill="#f59a15"/>
        <path id="Trazado_606476" data-name="Trazado 606476" d="M267.087,123.069c0,2.526-.084,5.055.029,7.575.081,1.814-1.09,1.466-2.132,1.495s-1.97.156-1.944-1.463q.126-7.682,0-15.368c-.025-1.715,1.077-1.362,2.018-1.349.919.012,2.1-.417,2.047,1.32-.085,2.595-.022,5.194-.021,7.791" transform="translate(-148.718 -64.408)" fill="#49b0e4"/>
        <path id="Trazado_606477" data-name="Trazado 606477" d="M265.427,69.89a7.484,7.484,0,0,1-7.636,7.461,7.5,7.5,0,1,1,7.636-7.461m-7.547-6.443c-.426.034-.734.318-.684.685.242,1.8-.651,2.122-2.24,2.094-1.791-.032-1.1,1.5-1.183,2.445-.081.906-.26,1.988,1.235,1.975q2.057-.018,4.116.013c.478.007,1.137-.122,1.17.6.035.748-.621.649-1.1.655-1.372.019-2.745-.007-4.116.03-.561.015-1.277.016-1.254.836.024.843.759.774,1.3.723,1.358-.127,2.271.119,2.037,1.8-.07.5.126,1.089.8,1.034.646-.052.767-.635.7-1.15-.174-1.363.409-1.842,1.72-1.666,2.038.273,1.633-1.2,1.727-2.39.112-1.425-.269-2.187-1.888-2.043-1.29.115-2.6.023-3.9.018-.458,0-.892-.068-.882-.672.01-.622.49-.615.917-.618,1.372-.013,2.745.007,4.116-.017.621-.011,1.473.142,1.519-.768.048-.946-.818-.884-1.432-.843-1.267.086-2.144-.12-1.9-1.71.078-.516-.073-1.03-.777-1.037" transform="translate(-141.558 -35.249)" fill="#f59a15"/>
        <path id="Trazado_606478" data-name="Trazado 606478" d="M241.122,131.969q0-2.061,0-4.122c0-2.282,1.114-3.046,3.324-2.4.711.21.641.668.642,1.15.008,3.616-.011,7.232.011,10.847.01,1.687-1.248,1.037-2.018,1.058-.789.021-2.018.558-1.969-1.115.053-1.807.012-3.616.011-5.424" transform="translate(-136.319 -70.802)" fill="#f59a15"/>
        <path id="Trazado_606479" data-name="Trazado 606479" d="M150.158,216.385a6.989,6.989,0,1,1-13.977.178,6.99,6.99,0,1,1,13.977-.178m-7,5.446a5.433,5.433,0,0,0,5.522-5.447,5.508,5.508,0,0,0-11.014-.03,5.432,5.432,0,0,0,5.492,5.477" transform="translate(-76.994 -118.383)" fill="#0e0e0c"/>
        <path id="Trazado_606480" data-name="Trazado 606480" d="M144.151,125.923a4.958,4.958,0,0,1-5.052-4.363c-.035-.562-.186-1.265.6-1.4.646-.111.723.485.894.98,1.162,3.367,2.683,3.983,5.818,2.347.479-.25.887-.575,1.3-.012.4.547.011.938-.375,1.286a4.786,4.786,0,0,1-3.177,1.16" transform="translate(-78.625 -67.93)" fill="#0e0e0c"/>
        <path id="Trazado_606481" data-name="Trazado 606481" d="M129.8,76.4a5.764,5.764,0,0,1,3.226,1.015.836.836,0,0,1,.4,1.092.722.722,0,0,1-1.1.254,4.27,4.27,0,0,0-5.951.916.647.647,0,0,1-.964.034c-.488-.455-.266-.895.07-1.313a5.285,5.285,0,0,1,4.32-2" transform="translate(-70.747 -43.196)" fill="#0e0e0c"/>
        <path id="Trazado_606482" data-name="Trazado 606482" d="M131.078,89.539c.114-1.139-.294-2.645,1.506-2.589,1.511.047,1.451,1.353,1.448,2.446s.095,2.353-1.465,2.42c-1.691.072-1.391-1.285-1.489-2.277" transform="translate(-74.109 -49.159)" fill="#0e0e0c"/>
        <path id="Trazado_606483" data-name="Trazado 606483" d="M172.079,78.266c-.233.691-.832.658-1.364.362a4.1,4.1,0,0,0-5.631.9c-.3.337-.7.536-1.133.153-.528-.463-.248-.86.058-1.31,1.525-2.239,5.614-2.836,7.584-1.1a1.091,1.091,0,0,1,.486.99" transform="translate(-92.528 -43.119)" fill="#0e0e0c"/>
        <path id="Trazado_606484" data-name="Trazado 606484" d="M174.373,89.363c-.05,1.15.191,2.442-1.423,2.454-1.685.013-1.566-1.309-1.6-2.456s.08-2.321,1.505-2.372c1.743-.063,1.443,1.375,1.514,2.373" transform="translate(-96.878 -49.181)" fill="#0e0e0c"/>
        <path id="Trazado_606485" data-name="Trazado 606485" d="M37.662,125.639c-5.167,0-5.166,0-6.319-5.138-.063-.281-.164-.555-.215-.838-.6-3.332-.6-3.393,2.843-3.505,1.184-.039,1.47-.472,1.442-1.546-.026-.984-.273-2.04.444-2.926a2.293,2.293,0,0,1,2.559-.712,2.063,2.063,0,0,1,1.612,2.3c-.439,2.762,1,3.128,3.184,2.871,1.232-.146,1.7.365,1.383,1.669a52.785,52.785,0,0,0-1.2,5.928c-.207,1.615-1.01,2.043-2.478,1.918-1.077-.091-2.167-.018-3.251-.017m.12-1.634c3.8,0,3.8,0,4.6-3.6a4.2,4.2,0,0,0,.159-.629c.041-.7.769-1.684-.333-1.984-.861-.235-2.057-.528-2.421.986a2.006,2.006,0,0,1-2.135,1.507,2.062,2.062,0,0,1-2.119-1.562c-.349-1.622-1.569-1.063-2.4-.939-1.239.184-.428,1.188-.329,1.735.806,4.495.832,4.49,4.976,4.49m-.9-8.3c.571.852-.5,2.711.725,2.709,1.538,0,.7-1.837.74-2.832.036-.958.6-2.787-.558-2.769-1.543.024-.363,1.861-.907,2.892" transform="translate(-17.429 -62.675)" fill="#0e0e0c"/>
        <path id="Trazado_606486" data-name="Trazado 606486" d="M262.213,64.877c.706.008.857.522.779,1.038-.24,1.59.637,1.8,1.9,1.71.615-.042,1.48-.1,1.432.842-.046.91-.9.757-1.519.768-1.372.024-2.745,0-4.117.017-.428,0-.907,0-.917.618-.01.6.424.67.882.671,1.3.006,2.608.1,3.9-.017,1.619-.144,2,.618,1.888,2.043-.094,1.191.311,2.662-1.727,2.39-1.31-.175-1.894.3-1.719,1.667.066.514-.055,1.1-.7,1.15-.672.054-.868-.532-.8-1.034.233-1.684-.679-1.93-2.037-1.8-.545.051-1.28.12-1.3-.723-.023-.82.693-.821,1.253-.836,1.371-.037,2.744-.011,4.116-.03.483-.007,1.139.093,1.1-.655-.034-.725-.693-.6-1.171-.6q-2.058-.031-4.116-.013c-1.5.013-1.316-1.069-1.235-1.975.085-.945-.608-2.477,1.183-2.445,1.589.028,2.481-.3,2.239-2.094-.049-.366.258-.65.682-.685" transform="translate(-145.894 -36.68)" fill="#0e0e0c"/>
        <path id="Trazado_606487" data-name="Trazado 606487" d="M145.086,223.906a5.432,5.432,0,0,1-5.492-5.477,5.508,5.508,0,0,1,11.014.03,5.433,5.433,0,0,1-5.522,5.447" transform="translate(-78.924 -120.459)" fill="#8c8c8c"/>
        <path id="Trazado_606488" data-name="Trazado 606488" d="M39.9,132.762c-4.144,0-4.17,0-4.976-4.49-.1-.548-.91-1.552.329-1.736.832-.123,2.052-.682,2.4.94a2.063,2.063,0,0,0,2.119,1.562,2.006,2.006,0,0,0,2.135-1.507c.363-1.514,1.56-1.221,2.421-.987,1.1.3.375,1.284.333,1.984a4.145,4.145,0,0,1-.159.629c-.8,3.6-.8,3.6-4.6,3.6" transform="translate(-19.547 -71.432)" fill="#f59a15"/>
        <path id="Trazado_606489" data-name="Trazado 606489" d="M44.759,118.252c.543-1.031-.636-2.868.907-2.892,1.163-.018.594,1.811.558,2.769-.037.995.8,2.829-.74,2.832-1.229,0-.154-1.857-.725-2.709" transform="translate(-25.306 -65.222)" fill="#49b0e4"/>
      </g>
    </g>
  </g>
</svg>
