<svg xmlns="http://www.w3.org/2000/svg" xmlns:xlink="http://www.w3.org/1999/xlink" width="124.001" height="124" viewBox="0 0 124.001 124">
  <defs>
    <clipPath id="clip-path">
      <rect id="Rect치ngulo_346167" data-name="Rect치ngulo 346167" width="70.313" height="70.333" fill="none"/>
    </clipPath>
  </defs>
  <g id="Grupo_1015729" data-name="Grupo 1015729" transform="translate(-739 -4900.469)">
    <g id="Grupo_1015001" data-name="Grupo 1015001" transform="translate(354.001 2842.469)">
      <path id="Uni칩n_12" data-name="Uni칩n 12" d="M8464.769,11817.939a62.055,62.055,0,1,1,20.7-16.051l8.516,22.111Z" transform="translate(-7991 -9642)" fill="#a3bfe4"/>
      <circle id="Elipse_4842" data-name="Elipse 4842" cx="48" cy="48" r="48" transform="translate(399 2072)" fill="#fffbe5"/>
    </g>
    <g id="Grupo_1015737" data-name="Grupo 1015737" transform="translate(768.867 4923)">
      <g id="Grupo_1015736" data-name="Grupo 1015736" clip-path="url(#clip-path)">
        <path id="Trazado_606539" data-name="Trazado 606539" d="M63.212,38.872c-.42-1.123.254-1.32,1.132-1.324,1.561-.008,3.121,0,4.682-.009,1.242-.01,1.558-.377,1.649-1.576.157-2.059.075-3.846-2.079-5.109a7.808,7.808,0,0,1-2.964-4.238,1.011,1.011,0,0,0-1.052-.811,4.64,4.64,0,0,1-2.6-8.352,1.308,1.308,0,0,0,.5-1.192c.047-2.25-.207-4.517.456-6.733a16.668,16.668,0,0,1,1.542-3.5c.536-.941,1.043-1.667,2.187-.786.056.483.84.768.313,1.426-2.3,2.867-2.236,6.272-2.169,9.679.011.564.122.94.781.8A73.6,73.6,0,0,0,74.942,14.8a21.592,21.592,0,0,0,7.173-4.489c1.456-1.307,2.072-1.207,3,.384q1.173,2.018,2.356,4.031c.13.22.216.568.572.445.278-.1.175-.4.183-.615a13.372,13.372,0,0,0-.388-4.276,10.468,10.468,0,0,0-9.541-7.832c-2.846-.211-5.72-.158-8.237,1.473-.781.506-1.335.609-1.948-.113-.763-.963-.245-1.424.622-1.948C71.989-.1,75.56-.213,79.143.186A12.464,12.464,0,0,1,89.317,7.431a2.269,2.269,0,0,0,.881.885,8.1,8.1,0,0,1,3.884,7.154q.008,6.967,0,13.933v1.345a3.378,3.378,0,0,1,3.093.293c.382.261.627.1.948-.06a3.263,3.263,0,0,1,4.844,1.827q2.277,5.476,4.463,10.99a1.02,1.02,0,0,0,1.172.785c1.364-.053,2.731-.027,4.1-.013a3.448,3.448,0,0,1,3.485,2.553,3.319,3.319,0,0,1-1.638,3.979,1.482,1.482,0,0,0-.8,1.377c-.213,2.129-.548,4.246-.736,6.377-.087.984-.513,1.21-1.367.985-.934.018-1.258-.283-1.057-1.329.375-1.943.542-3.926.8-5.891.087-.659.042-1.052-.853-1.049q-12.925.054-25.849,0c-.836,0-.982.306-.891,1.016.553,4.319,1.084,8.641,1.64,12.96a2.423,2.423,0,0,0,2.506,2.42q9.649.044,19.3,0a2.248,2.248,0,0,0,2.391-1.963,7.5,7.5,0,0,0,.184-1.5c.038-.9.332-1.466,1.368-1.24.982.051,1.348.484,1.043,1.487-.19.624-.188,1.3-.332,1.944a4.493,4.493,0,0,1-4.4,3.616c-6.616.028-13.233.009-19.849.01a5.6,5.6,0,0,1-3.085-1.206,5.771,5.771,0,0,1-1.45-2.994c-.568-4.544-1.142-9.088-1.673-13.637a1.564,1.564,0,0,0-.812-1.385,3.385,3.385,0,0,1-1.644-3.98,3.452,3.452,0,0,1,3.476-2.555c1.4-.013,2.8.007,4.2-.011.314,0,.713.168.888-.315a53.484,53.484,0,0,0,2.057-5.413,31.068,31.068,0,0,0,1.946-4.444c.158-.355.036-.487-.3-.551a7.923,7.923,0,0,1-5.311-3.661c-.157-.238-.281-.522-.59-.162-.844.984-2.234,1.539-2.829,2.535-.535.894-.133,2.348-.144,3.555A1.257,1.257,0,0,0,83.8,37.541a30.381,30.381,0,0,0,3.271-.026c1.024-.112,1.295.3,1.2,1.2.027.751-.052,1.4-1.087,1.176-.44-.1-.591.215-.748.542a13.11,13.11,0,0,1-2.087,2.895c-.645.738-1.176.8-1.756-.014-.75-.768-.456-1.341.281-1.929a2.975,2.975,0,0,0,1.012-1.4c-2.9-.41-3.847-1.525-3.849-4.49,0-.637,0-1.274,0-1.986a12.27,12.27,0,0,1-6.947.05c-.259,1.48.251,2.975-.417,4.332a3.655,3.655,0,0,1-3.615,2.031,8.162,8.162,0,0,0,6.417,4.068c.97.1,1.137.489,1.088,1.266.206,1.255-.544,1.29-1.452,1.148a10.666,10.666,0,0,1-8.137-5.395,1.769,1.769,0,0,0-2.181-1.1c-1,.247-1.395-.17-1.577-1.037m22.671-18.78c-.127-1.187.317-2.446-.2-3.57-.569-1.23-1.342-2.365-2-3.557-.257-.465-.459-.491-.862-.131a22.747,22.747,0,0,1-9.17,4.911c-.306.086-.655.1-.668.626a1.592,1.592,0,0,1-1.335,1.565,1.867,1.867,0,0,1-1.927-.795c-.657-.758-1.415.012-2.129.029-.545.013-.437.532-.437.908,0,.859-.023,1.718.008,2.575a9.365,9.365,0,0,0,16.807,5.31c1.806-2.348,2.077-5.051,1.916-7.872M97.6,49.26q7.138,0,14.275,0a6.271,6.271,0,0,0,1.05-.032,1.154,1.154,0,0,0-.006-2.3,4.991,4.991,0,0,0-.933-.03q-14.392,0-28.784,0a4.651,4.651,0,0,0-1.046.056A1.142,1.142,0,0,0,82.16,49.2a4.323,4.323,0,0,0,1.046.055q7.2,0,14.392,0m-6.4-4.7c.636.046,1.168.075,1.447-.672C93.8,40.8,95,37.722,96.2,34.647c.272-.7.317-1.352-.48-1.657-.849-.326-1.163.348-1.42.977-1.294,3.163-2.557,6.339-3.882,9.488-.409.971-.182,1.287.785,1.1m12.544.012c1.463.014,1.465.013.961-1.223q-1.891-4.639-3.784-9.278c-.271-.668-.549-1.411-1.459-1.073-.89.331-.708,1.072-.439,1.768,1.177,3.041,2.368,6.078,3.52,9.129a.979.979,0,0,0,1.2.677M91.731,23.289a14.142,14.142,0,0,1-1.234.81,3.412,3.412,0,0,1-1.3.489c-.8.032-1.315.269-1.437,1.12-.1.672-.651,1.249-.353,2.009a5.954,5.954,0,0,0,3.471,3.554c.616.244.859.141.855-.544-.014-2.41-.005-4.82-.005-7.437m5.856,14.343L94.9,44.567c1.684,0,3.2-.019,4.712.009.6.011.629-.213.438-.688-.8-1.993-1.575-3.993-2.464-6.256M88.233,17.69c0,1.358.019,2.7-.009,4.046-.012.6.213.607.692.441A2.406,2.406,0,0,0,90.563,19.9c-.048-1.168-.861-1.965-2.33-2.211m-23.425,2.1a9.983,9.983,0,0,1-1.078.186c-.99.049-1.437.584-1.212,1.555A2.326,2.326,0,0,0,64.13,23.35c.489.161.709.155.688-.451-.035-1.008-.01-2.019-.01-3.113m25.809-7.493c.452,1.372-.968,3.2,1.051,4.32a5.431,5.431,0,0,0-1.051-4.32" transform="translate(-46.026 0)" fill="#070807"/>
        <path id="Trazado_606540" data-name="Trazado 606540" d="M50.687,165.373c.182.867.582,1.284,1.577,1.037a1.768,1.768,0,0,1,2.181,1.1,10.666,10.666,0,0,0,8.137,5.395c.908.142,1.657.107,1.452-1.148a10.45,10.45,0,0,0,6.03-1.944c.58.813,1.111.752,1.756.014a13.112,13.112,0,0,0,2.087-2.895c.157-.327.308-.638.748-.542,1.035.224,1.114-.424,1.087-1.176l1.34.121a53.424,53.424,0,0,1-2.057,5.413c-.175.483-.574.311-.888.315-1.4.018-2.8,0-4.2.011a3.452,3.452,0,0,0-3.476,2.555,3.385,3.385,0,0,0,1.644,3.98,1.565,1.565,0,0,1,.812,1.385c.532,4.549,1.105,9.093,1.673,13.637a5.773,5.773,0,0,0,1.45,2.994H55.729c0-2.494,0-4.988.014-7.482a2.622,2.622,0,0,0-.452-1.648c-2.244-3.089-2.482-6.251-.4-9.548.662-1.051-.676-1.055-1.027-1.579-.4-.6-.7-.077-.937.263a9.888,9.888,0,0,0-1.749,7.077,3.736,3.736,0,0,1-.165,1.593c-1.052,3.369-2.08,6.745-3.135,10.113-.179.572-.221,1.027.489,1.211l-2.468,0c.911-.393.336-1.1.239-1.586q-1.075-5.369-2.3-10.707a1.463,1.463,0,0,1,.487-1.7,2.588,2.588,0,0,0,.917-2.311,3.184,3.184,0,0,1,1.412-3.2,10.936,10.936,0,0,0,.841-.812,3.693,3.693,0,0,0,1.116-4.423,1.05,1.05,0,0,1-.1-.666c.5-1.408.134-2.87.3-4.3l1.878-.551" transform="translate(-33.501 -126.501)" fill="#77a641"/>
        <path id="Trazado_606541" data-name="Trazado 606541" d="M15.308,120.005c-.169,1.426.2,2.888-.3,4.3a1.051,1.051,0,0,0,.1.666,3.693,3.693,0,0,1-1.115,4.423,10.992,10.992,0,0,1-.842.812,3.183,3.183,0,0,0-1.412,3.2,2.588,2.588,0,0,1-.918,2.311,1.463,1.463,0,0,0-.487,1.7q1.228,5.336,2.3,10.707c.1.487.672,1.193-.239,1.586-.625-.194-1.237.572-1.867.026-.353-1.669-.736-3.332-1.044-5.01-.11-.6-.3-.877-.959-.855-1.4.045-2.807.045-4.208,0-.641-.021-.784.219-.772.808.034,1.675.012,3.352.013,5.028-2.335.129-2.335.129-2.335-2.188q0-5.326-.006-10.652c0-.337.136-.72-.146-1.007C0,134.769.017,133.41.042,132.029c.03-1.638-.135-3.293.038-4.913.32-3-.157-5.979-.053-8.972s.02-6.008.023-9.012c0-2.492,1.4-3.882,3.917-3.887q3.57-.007,7.14,0c2.845,0,4.158,1.3,4.165,4.112q.013,5.324.036,10.649m-8.234-4.837v-4.8c0-2.815,0-2.815-2.871-2.786-1.431.014-1.806.373-1.809,1.786-.007,3.236-.023,6.473.008,9.709.012,1.236-.546,2.933.232,3.579.738.612,2.375.106,3.613.162.687.031.849-.224.84-.869-.034-2.261-.013-4.523-.013-6.784m2.342,14.683c0-1.092,0-2.183,0-3.275a1.273,1.273,0,0,0-1.448-1.427c-1.4,0-2.807-.007-4.21,0a1.235,1.235,0,0,0-1.364,1.386c-.007,2.183,0,4.367,0,6.55a1.272,1.272,0,0,0,1.447,1.428c1.4,0,2.807.01,4.21,0a1.239,1.239,0,0,0,1.365-1.387c.007-1.092,0-2.183,0-3.275m1.171-14.144c0,2.381,0,4.761,0,7.142,0,.406-.157.947.41,1.087a1.55,1.55,0,0,0,1.535-.334,1.689,1.689,0,0,0,.395-1.3q-.009-6.557-.006-13.114a2.208,2.208,0,0,0-.064-.694c-.3-.888-1.035-.967-1.813-.9-.8.071-.437.714-.443,1.087-.036,2.341-.018,4.683-.018,7.025M6.125,141.582l2.554-.134c-.148-.835-.273-1.674-.448-2.5-.437-2.082-.446-2.08-2.621-2.08-2.044,0-2.044,0-2.044,2.067,0,2.607,0,2.607,2.558,2.65m5.728-13.588c.589-.437,1.293-.819,1.091-1.628-.1-.42-.584-.1-.788-.021-.895.35-.138,1.1-.3,1.649" transform="translate(0 -80.583)" fill="#070807"/>
        <path id="Trazado_606542" data-name="Trazado 606542" d="M188.5,231.8c-1.036-.225-1.33.345-1.368,1.24a7.517,7.517,0,0,1-.184,1.5,2.248,2.248,0,0,1-2.391,1.963q-9.649.038-19.3,0a2.423,2.423,0,0,1-2.505-2.42c-.556-4.319-1.087-8.641-1.64-12.96-.091-.711.055-1.02.891-1.016q12.924.047,25.849,0c.895,0,.94.389.853,1.049-.26,1.966-.427,3.948-.8,5.892-.2,1.046.122,1.347,1.056,1.329l-.46,3.429m-21.784-7.026c0-.506.018-1.012-.007-1.516-.015-.31.149-.681-.406-.8-1.469-.32-1.929.014-1.93,1.508a16.926,16.926,0,0,1-.015,1.982c-.113.957.2,1.242,1.189,1.245s1.316-.306,1.177-1.251a8.156,8.156,0,0,1-.009-1.165m4.684.083a8.56,8.56,0,0,1,.011-1.282c.147-.96-.287-1.123-1.16-1.146-.968-.025-1.308.235-1.213,1.22.09.925.013,1.865.024,2.8,0,.289-.078.59.384.706,1.406.354,1.953-.039,1.954-1.481v-.817m4.683-.1v-.817c0-1.521,0-1.488-1.485-1.49-.634,0-.912.145-.871.834a16.733,16.733,0,0,1-.006,2.681c-.1.987.246,1.243,1.213,1.219.874-.022,1.307-.187,1.16-1.146a8.563,8.563,0,0,1-.011-1.282m4.683.013c0-.505.017-1.012-.006-1.516-.014-.312.142-.679-.412-.8-1.479-.315-1.924.009-1.924,1.513a16.676,16.676,0,0,1-.015,1.982c-.116.965.212,1.233,1.195,1.24,1.011.007,1.308-.319,1.172-1.256a8.262,8.262,0,0,1-.01-1.165m4.684,0c0-.505.017-1.012-.006-1.516-.014-.312.142-.679-.412-.8-1.479-.315-1.924.009-1.924,1.513a16.728,16.728,0,0,1-.015,1.982c-.116.965.212,1.233,1.195,1.24,1.011.007,1.308-.319,1.172-1.256a8.294,8.294,0,0,1-.009-1.165m-21.076,7.088c0,.545.031,1.091-.007,1.633-.067.974.655.694,1.113.662s1.272.427,1.241-.652a23.815,23.815,0,0,1,.013-2.8c.084-.945-.18-1.256-1.185-1.253-.988,0-1.329.286-1.185,1.243a8.021,8.021,0,0,1,.01,1.165m4.683-.021a9.867,9.867,0,0,1-.011,1.4c-.136.94.394,1.008,1.1.945.6-.054,1.38.257,1.272-.894a16.161,16.161,0,0,1,0-2.8c.068-.847-.259-1-1.044-1.032-1.05-.048-1.5.245-1.324,1.331a6.491,6.491,0,0,1,.009,1.049m7.025.034c0-.583.007-1.167,0-1.75,0-.258.041-.507-.339-.627-1.3-.408-2,.072-2,1.427,0,.856-.005,1.711,0,2.567,0,.294-.066.587.4.7,1.436.338,1.941-.029,1.942-1.5q0-.408,0-.817m4.684-.007c0-.545-.037-1.092.008-1.633.086-1.042-.677-.726-1.176-.725s-1.238-.325-1.185.721c.055,1.086.008,2.177.015,3.266,0,.3-.062.585.4.69,1.454.329,1.934-.021,1.935-1.5q0-.408,0-.817m4.683-.052c0-.545-.031-1.091.007-1.633.069-.971-.649-.7-1.109-.666s-1.273-.43-1.244.648a24.558,24.558,0,0,1-.013,2.8c-.083.94.17,1.262,1.181,1.256.982-.006,1.334-.276,1.189-1.239a7.95,7.95,0,0,1-.01-1.165" transform="translate(-123.344 -168.528)" fill="#cb3d36"/>
        <path id="Trazado_606543" data-name="Trazado 606543" d="M83.369,11.526c.612.722,1.166.619,1.948.113,2.516-1.631,5.39-1.684,8.236-1.473A10.468,10.468,0,0,1,103.093,18a13.358,13.358,0,0,1,.388,4.276c-.008.217.1.52-.183.615-.356.122-.443-.225-.572-.445q-1.184-2.011-2.356-4.031c-.925-1.592-1.541-1.691-3-.384A21.59,21.59,0,0,1,90.2,22.519a73.6,73.6,0,0,1-9.359,2.346c-.659.141-.769-.235-.781-.8-.067-3.407-.129-6.812,2.169-9.679.528-.659-.256-.943-.313-1.426a4.248,4.248,0,0,1,1.452-1.434" transform="translate(-61.285 -7.717)" fill="#673320"/>
        <path id="Trazado_606544" data-name="Trazado 606544" d="M61.463,227.9c-.709-.184-.668-.639-.489-1.211,1.054-3.368,2.083-6.744,3.135-10.113a3.735,3.735,0,0,0,.165-1.593,9.89,9.89,0,0,1,1.749-7.077c.242-.34.533-.867.937-.263.35.524,1.689.527,1.027,1.579-2.077,3.3-1.839,6.459.4,9.548a2.621,2.621,0,0,1,.452,1.648c-.015,2.494-.011,4.988-.014,7.482-2.4.119-2.4.119-2.4-2.258,0-1.595-.008-3.19,0-4.785a1.5,1.5,0,0,0-.7-1.472c-.747,2.452-1.478,4.867-2.221,7.278-.473,1.533-.482,1.531-2.05,1.236" transform="translate(-46.602 -158.777)" fill="#070807"/>
        <path id="Trazado_606545" data-name="Trazado 606545" d="M15.131,275.9c0-1.676.021-3.352-.013-5.028-.012-.589.131-.829.772-.808q2.1.068,4.208,0c.66-.021.849.254.96.855.307,1.677.691,3.341,1.043,5.01l-6.97-.029" transform="translate(-11.575 -206.786)" fill="#77a641"/>
        <path id="Trazado_606546" data-name="Trazado 606546" d="M108.866,61.224c.161,2.821-.11,5.524-1.916,7.872a9.365,9.365,0,0,1-16.807-5.31c-.032-.857-.01-1.717-.009-2.575,0-.376-.108-.895.438-.908.714-.017,1.472-.787,2.129-.029a1.867,1.867,0,0,0,1.927.795A1.592,1.592,0,0,0,95.964,59.5c.014-.526.362-.54.668-.626a22.741,22.741,0,0,0,9.17-4.911c.4-.36.605-.334.862.131.657,1.191,1.43,2.326,2,3.557.52,1.124.075,2.383.2,3.57M97.151,64.629c-.267.3-1.246-.575-1.121.611a3.53,3.53,0,0,0,6.941.016c.027-.209.141-.451-.143-.608a2.9,2.9,0,0,0-2.363.559c-.586.763-1.442.826-1.888,0-.352-.655-.809-.582-1.427-.573m7.667-7.028a1.754,1.754,0,1,0,1.7,1.829,1.741,1.741,0,0,0-1.7-1.829" transform="translate(-69.009 -41.132)" fill="#f9ba91"/>
        <path id="Trazado_606547" data-name="Trazado 606547" d="M111.809,152.806a10.45,10.45,0,0,1-6.03,1.944c.049-.777-.118-1.166-1.088-1.266a8.162,8.162,0,0,1-6.417-4.068,3.655,3.655,0,0,0,3.615-2.031c.668-1.356.158-2.852.417-4.332a12.271,12.271,0,0,0,6.947-.05c0,.711,0,1.349,0,1.986,0,2.965.953,4.079,3.849,4.49a2.974,2.974,0,0,1-1.012,1.4c-.737.587-1.031,1.161-.281,1.928" transform="translate(-75.246 -109.496)" fill="#f9ba91"/>
        <path id="Trazado_606548" data-name="Trazado 606548" d="M166.588,202.5q-7.2,0-14.392,0a4.336,4.336,0,0,1-1.046-.055,1.142,1.142,0,0,1-.006-2.246,4.664,4.664,0,0,1,1.046-.055q14.392,0,28.784,0a5.012,5.012,0,0,1,.934.03,1.154,1.154,0,0,1,.006,2.3,6.3,6.3,0,0,1-1.05.032q-7.138,0-14.275,0" transform="translate(-115.016 -153.243)" fill="#cb3d36"/>
        <path id="Trazado_606549" data-name="Trazado 606549" d="M161.921,136.354l-1.34-.121c.1-.9-.172-1.308-1.2-1.2a30.441,30.441,0,0,1-3.271.026,1.257,1.257,0,0,1-1.425-1.437c.011-1.207-.39-2.661.144-3.555.6-1,1.985-1.551,2.829-2.535.309-.36.433-.077.59.162a7.925,7.925,0,0,0,5.311,3.661c.341.064.463.2.3.551a31.067,31.067,0,0,1-1.946,4.444" transform="translate(-118.34 -97.522)" fill="#f7f9fa"/>
        <path id="Trazado_606550" data-name="Trazado 606550" d="M189.606,152.09c-.967.183-1.194-.133-.785-1.1,1.326-3.149,2.588-6.326,3.882-9.488.257-.629.571-1.3,1.42-.977.8.305.751.958.48,1.657-1.2,3.075-2.395,6.15-3.55,9.24-.279.746-.811.717-1.447.672" transform="translate(-144.429 -107.531)" fill="#673320"/>
        <path id="Trazado_606551" data-name="Trazado 606551" d="M230.191,152.125a.979.979,0,0,1-1.2-.677c-1.152-3.051-2.342-6.087-3.519-9.129-.269-.7-.452-1.437.439-1.768.91-.338,1.187.405,1.459,1.073q1.886,4.641,3.784,9.278c.5,1.236.5,1.237-.962,1.223" transform="translate(-172.471 -107.554)" fill="#673320"/>
        <path id="Trazado_606552" data-name="Trazado 606552" d="M180.658,99.392c0,2.617-.008,5.027.005,7.437,0,.685-.239.788-.854.544a5.952,5.952,0,0,1-3.471-3.554c-.3-.76.256-1.337.353-2.009.122-.85.637-1.088,1.437-1.12a3.415,3.415,0,0,0,1.3-.489,14.178,14.178,0,0,0,1.234-.81" transform="translate(-134.953 -76.103)" fill="#673320"/>
        <path id="Trazado_606553" data-name="Trazado 606553" d="M211.276,160.607c.889,2.263,1.667,4.263,2.464,6.256.19.476.166.7-.438.688-1.514-.028-3.028-.009-4.712-.009l2.686-6.935" transform="translate(-159.715 -122.975)" fill="#f7f9fa"/>
        <path id="Trazado_606554" data-name="Trazado 606554" d="M180.1,75.5c1.468.246,2.282,1.043,2.33,2.211a2.406,2.406,0,0,1-1.647,2.275c-.478.166-.7.163-.691-.44.028-1.344.009-2.688.009-4.046" transform="translate(-137.894 -57.809)" fill="#f9ba91"/>
        <path id="Trazado_606555" data-name="Trazado 606555" d="M72.489,84.444c0,1.094-.026,2.1.01,3.113.021.606-.2.612-.688.451A2.327,2.327,0,0,1,70.2,86.185c-.225-.971.223-1.506,1.212-1.555a9.916,9.916,0,0,0,1.078-.186" transform="translate(-53.707 -64.658)" fill="#f9ba91"/>
        <path id="Trazado_606556" data-name="Trazado 606556" d="M190.078,52.463a5.431,5.431,0,0,1,1.051,4.32c-2.019-1.124-.6-2.948-1.051-4.32" transform="translate(-145.487 -40.17)" fill="#673320"/>
        <path id="Trazado_606557" data-name="Trazado 606557" d="M14.329,122.813c0,2.262-.021,4.523.013,6.784.01.645-.152.9-.84.869-1.239-.056-2.876.45-3.614-.162-.778-.646-.22-2.343-.232-3.579-.031-3.236-.015-6.472-.008-9.709,0-1.412.379-1.772,1.809-1.786,2.871-.029,2.871-.029,2.871,2.786v4.8" transform="translate(-7.255 -88.227)" fill="#cb3d36"/>
        <path id="Trazado_606558" data-name="Trazado 606558" d="M17.225,194.9c0,1.092.005,2.183,0,3.275a1.239,1.239,0,0,1-1.365,1.387c-1.4.015-2.807,0-4.211,0a1.272,1.272,0,0,1-1.447-1.428c0-2.183-.005-4.367,0-6.55a1.235,1.235,0,0,1,1.364-1.386c1.4-.012,2.807,0,4.211,0a1.272,1.272,0,0,1,1.447,1.427c0,1.092,0,2.183,0,3.275" transform="translate(-7.809 -145.631)" fill="#f9ba91"/>
        <path id="Trazado_606559" data-name="Trazado 606559" d="M44.99,123.338c0-2.342-.018-4.684.018-7.025.006-.373-.362-1.017.443-1.087.778-.068,1.512.011,1.813.9a2.208,2.208,0,0,1,.064.694q.005,6.557.006,13.114a1.69,1.69,0,0,1-.395,1.3,1.551,1.551,0,0,1-1.535.334c-.566-.141-.408-.681-.41-1.087-.009-2.381,0-4.761,0-7.142" transform="translate(-34.402 -88.212)" fill="#cb3d36"/>
        <path id="Trazado_606560" data-name="Trazado 606560" d="M17.781,244.917c-2.558-.043-2.558-.043-2.558-2.65,0-2.067,0-2.067,2.043-2.067,2.176,0,2.185,0,2.622,2.08.174.829.3,1.668.448,2.5l-2.554.134" transform="translate(-11.656 -183.917)" fill="#f9ba91"/>
        <path id="Trazado_606561" data-name="Trazado 606561" d="M50.121,196.33c.165-.551-.592-1.3.3-1.649.2-.08.683-.4.788.021.2.809-.5,1.191-1.091,1.628" transform="translate(-38.268 -148.918)" fill="#f9ba91"/>
        <path id="Trazado_606562" data-name="Trazado 606562" d="M177.333,232.1a8.122,8.122,0,0,0,.009,1.165c.139.945-.175,1.253-1.177,1.251s-1.3-.288-1.189-1.245a16.98,16.98,0,0,0,.015-1.982c0-1.494.46-1.828,1.93-1.508.555.121.391.491.406.8.025.5.007,1.011.007,1.516" transform="translate(-133.959 -175.859)" fill="#070807"/>
        <path id="Trazado_606563" data-name="Trazado 606563" d="M197.329,232.458v.817c0,1.442-.548,1.834-1.954,1.481-.463-.116-.381-.417-.384-.706-.011-.933.066-1.874-.024-2.8-.1-.986.244-1.245,1.213-1.22.873.022,1.307.185,1.16,1.145a8.534,8.534,0,0,0-.011,1.282" transform="translate(-149.272 -176.13)" fill="#070807"/>
        <path id="Trazado_606564" data-name="Trazado 606564" d="M217.316,232.426a8.562,8.562,0,0,0,.011,1.282c.147.96-.285,1.124-1.16,1.146-.967.024-1.312-.233-1.213-1.219a16.761,16.761,0,0,0,.006-2.681c-.042-.689.237-.835.871-.834,1.484,0,1.484-.031,1.485,1.49v.817" transform="translate(-164.575 -176.199)" fill="#070807"/>
        <path id="Trazado_606565" data-name="Trazado 606565" d="M237.3,232.1a8.224,8.224,0,0,0,.009,1.165c.136.937-.161,1.262-1.172,1.256-.982-.006-1.311-.274-1.195-1.24a16.677,16.677,0,0,0,.015-1.982c0-1.5.445-1.828,1.924-1.513.553.118.4.484.412.8.023.5.006,1.011.006,1.516" transform="translate(-179.874 -175.863)" fill="#070807"/>
        <path id="Trazado_606566" data-name="Trazado 606566" d="M257.287,232.1a8.226,8.226,0,0,0,.009,1.165c.136.937-.161,1.262-1.172,1.256-.982-.006-1.311-.274-1.195-1.24a16.674,16.674,0,0,0,.015-1.982c0-1.5.445-1.828,1.924-1.513.553.118.4.484.412.8.023.5.006,1.011.006,1.516" transform="translate(-195.179 -175.863)" fill="#070807"/>
        <path id="Trazado_606567" data-name="Trazado 606567" d="M174.979,262.4a7.983,7.983,0,0,0-.01-1.165c-.144-.957.2-1.239,1.185-1.243,1,0,1.269.307,1.184,1.253a23.814,23.814,0,0,0-.013,2.8c.031,1.079-.774.62-1.241.652s-1.18.312-1.113-.662c.037-.542.007-1.088.006-1.633" transform="translate(-133.948 -199.072)" fill="#070807"/>
        <path id="Trazado_606568" data-name="Trazado 606568" d="M194.946,262.389a6.492,6.492,0,0,0-.009-1.049c-.18-1.086.274-1.379,1.324-1.331.786.036,1.113.185,1.044,1.032a16.162,16.162,0,0,0,0,2.8c.108,1.151-.668.84-1.272.894-.706.063-1.235,0-1.1-.945a9.867,9.867,0,0,0,.011-1.4" transform="translate(-149.231 -199.082)" fill="#070807"/>
        <path id="Trazado_606569" data-name="Trazado 606569" d="M217.425,262.1q0,.408,0,.817c0,1.467-.506,1.833-1.942,1.5-.463-.109-.394-.4-.4-.7-.009-.855,0-1.711,0-2.567,0-1.355.7-1.835,2-1.427.38.119.335.369.339.627.01.583,0,1.167,0,1.75" transform="translate(-164.685 -198.758)" fill="#070807"/>
        <path id="Trazado_606570" data-name="Trazado 606570" d="M237.372,262.441q0,.408,0,.817c0,1.482-.481,1.832-1.935,1.5-.466-.105-.4-.4-.4-.69-.008-1.089.04-2.18-.015-3.266-.053-1.046.687-.719,1.185-.721s1.262-.318,1.176.725c-.045.541-.008,1.088-.008,1.633" transform="translate(-179.948 -199.107)" fill="#070807"/>
        <path id="Trazado_606571" data-name="Trazado 606571" d="M257.3,262.334a7.915,7.915,0,0,0,.01,1.165c.146.963-.206,1.233-1.189,1.239-1.011.007-1.264-.316-1.181-1.256a24.607,24.607,0,0,0,.013-2.8c-.028-1.078.778-.613,1.244-.648s1.178-.305,1.109.666c-.038.542-.007,1.088-.007,1.633" transform="translate(-195.194 -199.052)" fill="#070807"/>
        <path id="Trazado_606572" data-name="Trazado 606572" d="M116.408,100.068c.618-.009,1.075-.082,1.427.573.446.83,1.3.768,1.888,0a2.9,2.9,0,0,1,2.363-.559c.284.157.17.4.143.607a3.53,3.53,0,0,1-6.942-.016c-.125-1.185.854-.314,1.121-.611" transform="translate(-88.266 -76.571)" fill="#070807"/>
        <path id="Trazado_606573" data-name="Trazado 606573" d="M146.942,70.281a1.754,1.754,0,1,1-1.8,1.734,1.747,1.747,0,0,1,1.8-1.734" transform="translate(-111.132 -53.813)" fill="#070807"/>
      </g>
    </g>
  </g>
</svg>
