<svg xmlns="http://www.w3.org/2000/svg" xmlns:xlink="http://www.w3.org/1999/xlink" width="400" height="239.826" viewBox="0 0 400 239.826">
  <defs>
    <clipPath id="clip-path">
      <rect id="Rectángulo_377383" data-name="Rectángulo 377383" width="287.27" height="204.285" fill="none"/>
    </clipPath>
  </defs>
  <g id="Grupo_1071501" data-name="Grupo 1071501" transform="translate(-495 -1465.174)">
    <rect id="Rectángulo_45724" data-name="Rectángulo 45724" width="400" height="61" rx="24" transform="translate(495 1644)" fill="#a3bfe4"/>
    <g id="Grupo_1071503" data-name="Grupo 1071503" transform="translate(551.667 1465.174)">
      <g id="Grupo_1071502" data-name="Grupo 1071502" clip-path="url(#clip-path)">
        <path id="Trazado_608619" data-name="Trazado 608619" d="M90.869,81.422H67.21a4.173,4.173,0,0,1-4.172-4.172V69.373A4.172,4.172,0,0,1,67.21,65.2H90.869a4.172,4.172,0,0,1,4.172,4.171V77.25a4.173,4.173,0,0,1-4.172,4.172" transform="translate(23.196 23.993)" fill="#fff"/>
        <path id="Trazado_608620" data-name="Trazado 608620" d="M121.626,96.125H97.968A4.172,4.172,0,0,1,93.8,91.953V84.076A4.172,4.172,0,0,1,97.968,79.9h23.658a4.172,4.172,0,0,1,4.172,4.172v7.877a4.172,4.172,0,0,1-4.172,4.172" transform="translate(34.514 29.403)" fill="#fff"/>
        <rect id="Rectángulo_377382" data-name="Rectángulo 377382" width="30.939" height="36.173" transform="translate(97.371 38.638)" fill="#fff"/>
        <path id="Trazado_608621" data-name="Trazado 608621" d="M68.686,84.281H64.124a3.943,3.943,0,0,1-3.932-3.932V72.034A3.944,3.944,0,0,1,64.124,68.1H88.263a3.944,3.944,0,0,1,3.932,3.933V80.35a3.943,3.943,0,0,1-3.932,3.932H68.686Z" transform="translate(22.149 25.059)" fill="#1a1a1a"/>
        <path id="Trazado_608622" data-name="Trazado 608622" d="M16.368,101.482S8.093,113.8,4.93,122.956s-7.847,20.525-1.5,25.708,13.179.546,13.179.546.2,6.376,0,11.494-.57,10.215-.57,10.215l51.3.465s-2.145-10.618-2.739-17-.877-10.306-.877-10.306,8.475,1.577,11.052.692,26.491-34.417,26.491-34.417l3-15.878A13.206,13.206,0,0,0,93.82,88.524c-7.509-.6-10.871,1.856-10.871,1.856l-7.795,23.325L67.7,119.486s-3.332-.74-6.533-9.992-7.44-16.67-17.595-18.312-27.2,10.3-27.2,10.3" transform="translate(0.103 32.539)" fill="#33ece0"/>
        <path id="Trazado_608623" data-name="Trazado 608623" d="M36.238,106.984S43.371,103.452,43,97.9c-.431-6.464-5.61-10.168-8.564-10.759l.51-7.026a13.749,13.749,0,0,0,10.037-9.574l1.029,4.733s1.3-1.073,2.368-4.445c1.369-4.334-2.643-7.866-5.568-8.531-4.386-.995-7.945-.364-9.081,1.079l-.788,1.037s-4.795-3.5-12.331-.071c-4.916,2.239-5.126,6.486-5.126,6.486l1.35,14.211s-6.156,0-7,4.908,4.632,8.372,4.632,8.372-6.48,2.16-6.3,7.473c.167,4.869,5.533,6.512,8.484,5.936a6.237,6.237,0,0,0,3.159-1.14A10.771,10.771,0,0,0,30.5,115.314c5.454-.707,6.2-4.555,6.216-5.243a26.557,26.557,0,0,0-.48-3.086" transform="translate(3.006 22.745)" fill="#fff"/>
        <path id="Trazado_608624" data-name="Trazado 608624" d="M163.4,90.078a10.631,10.631,0,0,1,7.486,2.086c3.776,2.737,4.529,7.152,3.808,10.888,0,0,5.038.628,8.286,3.051s5.741,5.391,10.513,16.658,6.881,18.083,8.335,24.349,1.938,11.658,1.078,16.414a19.282,19.282,0,0,1-2.614,7.22H122.177l-.948-56.406s5.494-10.38,20.982-12.451a8.791,8.791,0,0,1,3.631-9.9c5.687-3.863,17.559-1.908,17.559-1.908" transform="translate(44.609 32.964)" fill="#33ece0"/>
        <path id="Trazado_608625" data-name="Trazado 608625" d="M155.929,90.359s3.814,2.193,6.09-1.06a4.158,4.158,0,0,0-1.5-6.354c-1.224-.44-4.226-1.1-5.642,1.321l-.518.521s-1.413-3.789-.436-6.912L153.9,76.9s-5.739.951-7.884,1.108c-1.907.141-3.9-.1-7.819-1.378,0,0-.335,13.516-.183,16.465s1.96,5.367,4.724,5.65v7.037l-2.77.347s3.391,3.789,5.784,3.813,9.568-1.668,11.268-2.388a19.921,19.921,0,0,1,2.4-.9l-1.845-.287-1.14-15.208Z" transform="translate(50.772 28.198)" fill="#fff"/>
        <path id="Trazado_608626" data-name="Trazado 608626" d="M160.889,131.958s-5.688-7.639-7.594-9.28-4.484-3.491-7.55-3.78l-4.577,5-2.462.536,3.974,12.443,3.746-.54s2.194.509,4.113,5.211c0,0,2.985-.979,6.428-4.832a37.878,37.878,0,0,0,3.922-4.754" transform="translate(51.04 43.751)" fill="#fff"/>
        <path id="Trazado_608627" data-name="Trazado 608627" d="M138.109,121.931l2.65-3.48s-3.259.643-3.516,1.414Z" transform="translate(50.502 43.587)" fill="#fff"/>
        <path id="Trazado_608628" data-name="Trazado 608628" d="M80.123,97.552s2.042-4.231,2.111-6.914-1.041-4.088-2.543-4.053a3.286,3.286,0,0,0-3.747-2.372l2.807-8.522s.465-2.7-1.594-2.968-3.2,3.088-3.2,3.088L70.108,87.448s-.51,2.257-2.131,2.257A2.367,2.367,0,0,1,65.559,87.5c-.023-.88-1.224-3.417-3.246-3.107s-1.611,2.093-.6,5.744,1.438,4.788,1.438,4.788a18.309,18.309,0,0,1,9.206-.453,24.344,24.344,0,0,1,7.765,3.082" transform="translate(22.4 26.754)" fill="#fff"/>
        <path id="Trazado_608629" data-name="Trazado 608629" d="M108.355,107.9H142.7l16.232,47.7H123.616a5.918,5.918,0,0,0-.352-3.072c-.64-2.2-14.91-44.627-14.91-44.627" transform="translate(39.872 39.706)" fill="#fff"/>
        <path id="Trazado_608630" data-name="Trazado 608630" d="M143.224,115.334l1.261-1.5,3.072,2.588-1.412,1.369Z" transform="translate(52.703 41.888)" fill="#fff"/>
        <path id="Trazado_608631" data-name="Trazado 608631" d="M145.129,114.931l3.072,2.748-6.6,7.674-2.706.536-.851-2.518Z" transform="translate(50.798 42.291)" fill="#ffce26"/>
        <path id="Trazado_608632" data-name="Trazado 608632" d="M148.309,86.7s-1.884,1.372-1.765,2.813a6.6,6.6,0,0,0,.324,1.885s-4.4.978-4.492-1.029c-.056-1.339,1.2-1.543,1.955-1.543s1.921-.034,1.852-.858.926-3.086,2.126-1.268" transform="translate(52.39 31.648)" fill="#1a1a1a"/>
        <path id="Trazado_608633" data-name="Trazado 608633" d="M162.506,86.431s3.031-4.5,2.806-8.336-2.594-5.863-6.689-6.268c0,0-3.676-4.335-7.246-4.016a13.64,13.64,0,0,0-6.238,2.285s-6.64-1.547-9.529,3.592,1.927,9.484,3.52,10.031l.09-3.9a19.555,19.555,0,0,0,8.748,1.376,67.935,67.935,0,0,0,7.334-1.04s-1.308,4.986.263,7.546a4.8,4.8,0,0,1,3.772-1.927c2.461.005,3.171.661,3.171.661" transform="translate(49.567 24.946)" fill="#1a1a1a"/>
        <path id="Trazado_608634" data-name="Trazado 608634" d="M122.009,41.706V22.218A8.713,8.713,0,0,1,130.7,13.53h63.41a8.712,8.712,0,0,1,8.687,8.688V57.512a8.711,8.711,0,0,1-8.687,8.685H130.7a8.712,8.712,0,0,1-8.687-8.685Z" transform="translate(44.896 4.979)" fill="#fff198"/>
        <path id="Trazado_608635" data-name="Trazado 608635" d="M54.231,107.324l4.73-2.549,62.36-.155a9.872,9.872,0,0,1,7.4,5.867l14.31,43.25s2.468,9.137-7.087,11.472l-3.382-.088Z" transform="translate(19.956 38.498)" fill="#fff"/>
        <path id="Trazado_608636" data-name="Trazado 608636" d="M132.05,164.72H72.524a9.073,9.073,0,0,1-8.637-5.967L49.769,117.982c-1.951-5.636,2.434-11.446,8.637-11.446h59.526a9.075,9.075,0,0,1,8.637,5.968l14.117,40.77c1.952,5.636-2.434,11.446-8.637,11.446" transform="translate(18.141 39.202)" fill="#1a1a1a"/>
        <path id="Trazado_608637" data-name="Trazado 608637" d="M83.812,127.921c1.813,3.141,1.607,6.654-.46,7.847s-5.211-.386-7.025-3.525-1.609-6.654.458-7.847,5.213.384,7.026,3.525" transform="translate(27.632 45.628)" fill="#fff"/>
        <path id="Trazado_608638" data-name="Trazado 608638" d="M27.774,106.537s4.029,28.119,26.111,36.212l-.278-5.338s-18.752-3.172-25.833-30.874" transform="translate(10.22 39.203)" fill="#1a1a1a"/>
        <path id="Trazado_608639" data-name="Trazado 608639" d="M39.54,68.4s1.064,4.907,1.568,9.269c.183.41,3.159.87,3.528,2.1s-1.959,3.587-1.959,3.587,1.089,4.776-1.48,6.7-4.153,1.811-4.153,1.811-1.707-6.725-8.834-7.439c0,0-4.379,1.319-5.517-2.44a3.685,3.685,0,0,1,3.483-5.033,12.5,12.5,0,0,1,2.75.655,59.816,59.816,0,0,0,6.548-4.732C37.255,71.163,39.54,68.4,39.54,68.4" transform="translate(8.264 25.169)" fill="#fff"/>
        <path id="Trazado_608640" data-name="Trazado 608640" d="M148.353,136.3l-1.852-3.14s-2.8,2.813-2.051,4.046,3.9-.907,3.9-.907" transform="translate(53.107 48.998)" fill="#1a1a1a"/>
        <path id="Trazado_608641" data-name="Trazado 608641" d="M155.437,129.4l-2.238-2.938s2.09-1.245,3.264-.216-1.026,3.155-1.026,3.155" transform="translate(56.373 46.306)" fill="#1a1a1a"/>
        <path id="Trazado_608642" data-name="Trazado 608642" d="M142.137,92.768l.285,7.078-2.772.346s-2.884-4.319,2.241-7.424Z" transform="translate(51.09 34.136)" fill="#1a1a1a"/>
        <path id="Trazado_608643" data-name="Trazado 608643" d="M151.9,91.965s6.542.4,6.588,3.725-4.19,5.034-4.19,5.034h-1.844Z" transform="translate(55.894 33.841)" fill="#1a1a1a"/>
        <path id="Trazado_608644" data-name="Trazado 608644" d="M139.6,35.656a6.126,6.126,0,1,1-6.126-6.126,6.125,6.125,0,0,1,6.126,6.126" transform="translate(46.862 10.866)" fill="#fefefe"/>
        <path id="Trazado_608645" data-name="Trazado 608645" d="M85.869,32.849a2.507,2.507,0,1,1-2.507-2.5,2.508,2.508,0,0,1,2.507,2.5" transform="translate(29.752 11.166)" fill="#ffce26"/>
        <path id="Trazado_608646" data-name="Trazado 608646" d="M155.106,79.142c-1.5.57-11.26-.5-15.236-2.011-3.332-1.264-2.715-5.31-2.427-6.592a7.031,7.031,0,0,0-1.833,2.138c-2.891,5.139,1.927,9.486,3.518,10.031l.092-3.9a19.525,19.525,0,0,0,8.747,1.376,71.728,71.728,0,0,0,7.145-1c.088-.06.092-.077-.005-.04" transform="translate(49.568 25.956)" fill="#fff"/>
        <path id="Trazado_608647" data-name="Trazado 608647" d="M150.252,76.728l-.486.715c-.286,1.383-.852,4.937.394,6.967a4.861,4.861,0,0,1,1.3-1.194c-1.248-.755-1.2-6.488-1.2-6.488" transform="translate(54.97 28.234)" fill="#fff"/>
        <path id="Trazado_608648" data-name="Trazado 608648" d="M146.54,99.533c-3.871,0-7.77-1.48-8.518-5.072a31.151,31.151,0,0,1-.243-4.045l-.033-1.187c-.047-1.527.194-11.964.2-12.408.721.126.475,10.878.521,12.386l.031,1.19a31.544,31.544,0,0,0,.228,3.918c.774,3.721,5.5,4.885,9.577,4.387a15.89,15.89,0,0,0,3.352-.711c-.7,1.015-1.817,1.253-3.264,1.43a15.457,15.457,0,0,1-1.855.114" transform="translate(50.685 28.268)" fill="#1a1a1a"/>
        <path id="Trazado_608649" data-name="Trazado 608649" d="M152.566,102.924c-.361-.343-1.157-15.952-1.157-15.952.722-.038,1.518,15.572,1.518,15.572a3.3,3.3,0,0,1-.361.38" transform="translate(55.714 32.003)" fill="#1a1a1a"/>
        <path id="Trazado_608650" data-name="Trazado 608650" d="M154.047,90.068a4.709,4.709,0,0,1-2.876-.982,5.867,5.867,0,0,0,5.423-.661,4.007,4.007,0,1,0-6.291-4.518,1.844,1.844,0,0,1,.743-2.234,4.732,4.732,0,1,1,3,8.4" transform="translate(55.257 29.658)" fill="#1a1a1a"/>
        <path id="Trazado_608651" data-name="Trazado 608651" d="M138.222,80.588c-.32-.529.562-2.346,3.123-1.669a3.234,3.234,0,0,0-2.8,1.465.365.365,0,0,1-.327.2" transform="translate(50.839 28.985)" fill="#1a1a1a"/>
        <path id="Trazado_608652" data-name="Trazado 608652" d="M148.335,80.831c-1.979-2.3-3.644-1.275-3.717-1.23-.367-.622,1.907-2.031,4,.646-.127.558-.207.584-.285.584" transform="translate(53.201 28.949)" fill="#1a1a1a"/>
        <path id="Trazado_608653" data-name="Trazado 608653" d="M145.2,92.191a4.025,4.025,0,0,1-1.179-.175,2.657,2.657,0,0,1-1.787-1.388,1.413,1.413,0,0,1,.192-1.409,2.06,2.06,0,0,1,1.866-.64c.974.12,1.062.052,1.259-.092s.287-.211.458-1.176a2.053,2.053,0,0,1,1.164-1.591,1.412,1.412,0,0,1,1.4.235,2.538,2.538,0,0,1,.729,2.034,4.224,4.224,0,0,1-1.635,3.378,4.154,4.154,0,0,1-2.472.825m-1.227-2.908a1.248,1.248,0,0,0-.979.386.7.7,0,0,0-.079.71,2.014,2.014,0,0,0,1.316.945,3.4,3.4,0,0,0,3.012-.54,3.493,3.493,0,0,0,1.339-2.8,1.911,1.911,0,0,0-.443-1.453.7.7,0,0,0-.7-.135,1.345,1.345,0,0,0-.713,1.045c-.2,1.141-.367,1.353-.743,1.631s-.627.369-1.777.226a2.2,2.2,0,0,0-.23-.012" transform="translate(52.302 31.508)" fill="#1a1a1a"/>
        <path id="Trazado_608654" data-name="Trazado 608654" d="M145.889,91.489c-1.67-2.61.293-4.565,1.52-5.261.239.7-2.544,2.321-1.2,4.722-.194.524-.256.539-.316.539" transform="translate(53.446 31.73)" fill="#1a1a1a"/>
        <path id="Trazado_608655" data-name="Trazado 608655" d="M154.974,87.449c-.161-.038-3.555-1.718-3.555-1.718-.1-.577,2.988-3.732,2.988-3.732.517.506-2.219,3.3-2.219,3.3l2.948,1.46c.1.611-.029.687-.161.687" transform="translate(55.717 30.173)" fill="#1a1a1a"/>
        <path id="Trazado_608656" data-name="Trazado 608656" d="M146.041,81.311c-.29-.04-.48.089-.542,1.131-.07,1.161.235,1.361.5,1.345s.513-.379.483-1.208-.059-1.216-.438-1.268" transform="translate(53.536 29.918)" fill="#1a1a1a"/>
        <path id="Trazado_608657" data-name="Trazado 608657" d="M139.918,81.255c-.29-.051-.486.071-.581,1.111-.108,1.16.19,1.368.451,1.361s.525-.361.524-1.19-.016-1.217-.394-1.282" transform="translate(51.264 29.896)" fill="#1a1a1a"/>
        <path id="Trazado_608658" data-name="Trazado 608658" d="M156.125,85.983c1.525-3.4,4.167-8.7,1.316-12.369a6.135,6.135,0,0,0-2.6-1.934,8.058,8.058,0,0,0-1.562-.39c-1.115-.115-1.226-.126-1.33-.339a1.429,1.429,0,0,1,1.159-.406,9.019,9.019,0,0,1,2,.464,6.832,6.832,0,0,1,2.9,2.16c3.127,4.023.35,9.651-1.583,12.651a.362.362,0,0,1-.3.164" transform="translate(55.913 25.954)" fill="#1a1a1a"/>
        <path id="Trazado_608659" data-name="Trazado 608659" d="M150.167,73.167c.141-.87,1.43-1.844,1.9-2.2.368.629-1.286,1.893-1.715,2.152a.368.368,0,0,1-.186.052" transform="translate(55.257 26.112)" fill="#1a1a1a"/>
        <path id="Trazado_608660" data-name="Trazado 608660" d="M141.519,125.635c-.276-.6,5.97-8.012,5.97-8.012l-2.518-2.12-6.867,8.153c-.554-.466,6.548-8.9,6.548-8.9.509-.042,3.58,2.543,3.58,2.543.044.512-6.436,8.2-6.436,8.2a.357.357,0,0,1-.276.13" transform="translate(50.807 42.228)" fill="#1a1a1a"/>
        <path id="Trazado_608661" data-name="Trazado 608661" d="M146.118,118.346c-.276-.6.751-1.815.751-1.815l-2.518-2.122-1.029,1.22c-.553-.466.71-1.963.71-1.963.509-.044,3.58,2.544,3.58,2.544.044.509-1.217,2.007-1.217,2.007a.36.36,0,0,1-.276.129" transform="translate(52.687 41.826)" fill="#1a1a1a"/>
        <path id="Trazado_608662" data-name="Trazado 608662" d="M139.807,127.4a7.512,7.512,0,0,1,3.178-1.73,5.368,5.368,0,0,1-3.088,1.72.347.347,0,0,1-.09.011" transform="translate(51.445 46.244)" fill="#1a1a1a"/>
        <path id="Trazado_608663" data-name="Trazado 608663" d="M138.527,123.856c1.88-1.034,4.272-1.51,5.6-2.413-1.038,1.58-3.533,2.082-5.543,2.409a.411.411,0,0,1-.059,0" transform="translate(50.974 44.688)" fill="#1a1a1a"/>
        <path id="Trazado_608664" data-name="Trazado 608664" d="M140.766,130.068a21.414,21.414,0,0,1,3.312-1.249c.124.715-1.159,1.038-3.276,1.246l-.036,0" transform="translate(51.798 47.402)" fill="#1a1a1a"/>
        <path id="Trazado_608665" data-name="Trazado 608665" d="M137.294,120.132a6.186,6.186,0,0,1,3.837-1.945c.03.724-1.969.873-3.65,1.893a.359.359,0,0,1-.187.052" transform="translate(50.521 43.49)" fill="#1a1a1a"/>
        <path id="Trazado_608666" data-name="Trazado 608666" d="M159.1,132.316c-.353-.227-7.02-8.806-8.689-10.228a14.255,14.255,0,0,0-6.826-2.881c.246-.7,4.26-.25,7.3,2.331,1.726,1.469,8.231,9.838,8.5,10.194-.129.561-.208.584-.285.584" transform="translate(52.834 43.756)" fill="#1a1a1a"/>
        <path id="Trazado_608667" data-name="Trazado 608667" d="M149.784,137.313c-1.936-2.881-3.724-5.187-4.212-5.211a5.38,5.38,0,0,0-.643.1,14.432,14.432,0,0,1-3.33.3,11.128,11.128,0,0,1,3.2-1.008,5.144,5.144,0,0,1,.774-.111c1.16,0,3.549,3.767,4.521,5.386-.182.532-.246.549-.309.549" transform="translate(52.105 48.344)" fill="#1a1a1a"/>
        <path id="Trazado_608668" data-name="Trazado 608668" d="M177.022,143.686c-4.42-7.373-16.558-14.936-21.464-17.28,5.488,1.822,17.547,9.33,21.778,16.739-.19.527-.253.542-.315.542" transform="translate(57.241 46.514)" fill="#1a1a1a"/>
        <path id="Trazado_608669" data-name="Trazado 608669" d="M164.654,154.069a107.86,107.86,0,0,1-20.35-17.6,166.71,166.71,0,0,0,20.552,16.941c.027.606-.086.662-.2.662" transform="translate(53.1 50.216)" fill="#1a1a1a"/>
        <path id="Trazado_608670" data-name="Trazado 608670" d="M186.594,167.947a33.995,33.995,0,0,0,2.8-11.39c.579-12.579-4.138-24.309-9.447-36.217-.353-.789-.71-1.624-1.078-2.484-2.274-5.3-5.1-11.9-9.77-14.946-3.209-2.094-7.168-2.774-11-3.431l-.848-.146c.126-.714.971-.568.971-.568,3.9.669,7.934,1.362,11.269,3.538,4.849,3.165,7.728,9.877,10.04,15.268.368.858.724,1.689,1.075,2.475,5.343,11.992,10.094,23.81,9.51,36.547a24.592,24.592,0,0,1-3.211,11.178.361.361,0,0,1-.312.178" transform="translate(57.864 36.338)" fill="#1a1a1a"/>
        <path id="Trazado_608671" data-name="Trazado 608671" d="M154.261,98.924c-.788-.067-1.368-.1-2.02-.12a2.14,2.14,0,0,1,2.052-.6c.313.581.156.722-.031.722" transform="translate(56.02 36.124)" fill="#1a1a1a"/>
        <path id="Trazado_608672" data-name="Trazado 608672" d="M159.007,156.062H123.543c0-.725,34.956-.725,34.956-.725l-16.111-46.972H108.159c0-.725,34.488-.725,34.488-.725.342.245,16.7,47.942,16.7,47.942-.115.423-.224.48-.341.48" transform="translate(39.8 39.609)" fill="#1a1a1a"/>
        <path id="Trazado_608673" data-name="Trazado 608673" d="M145.363,140.8a1.254,1.254,0,0,1-.974-.364c-.746-.822-.126-2.487,1.845-4.947-1.342,2.833-1.636,4.1-1.311,4.46.606.67,4.261-.937,8.828-5.074a31.767,31.767,0,0,0,4.848-5.38c1.167-1.728,1.306-2.646,1.068-2.907-.343-.38-1.207-.185-2.635.588.956-1.337,2.387-1.934,3.171-1.074.594.654.256,1.932-1,3.8a32.5,32.5,0,0,1-4.962,5.512c-3.231,2.927-6.948,5.388-8.875,5.388" transform="translate(53.019 46.253)" fill="#1a1a1a"/>
        <path id="Trazado_608674" data-name="Trazado 608674" d="M10.061,147.909a10.439,10.439,0,0,1-8.055-3.792c-6.587-7.436,4.362-31.871,13.836-46.046-10.594,17.152-18.848,39.3-13.294,45.566,5.989,6.763,13.647,1.929,13.968,1.721.342.64-2.672,2.551-6.455,2.551" transform="translate(0 36.088)" fill="#1a1a1a"/>
        <path id="Trazado_608675" data-name="Trazado 608675" d="M32.456,73.228a2.543,2.543,0,0,1,3.581-1.272c-.408.6-2.037-.213-3.317,1.156a.357.357,0,0,1-.264.116" transform="translate(11.943 26.364)" fill="#1a1a1a"/>
        <path id="Trazado_608676" data-name="Trazado 608676" d="M33.932,73.743c.289-.047.483.077.57,1.116.1,1.161-.2,1.368-.464,1.358s-.523-.367-.514-1.2.029-1.217.408-1.278" transform="translate(12.336 27.133)" fill="#1a1a1a"/>
        <path id="Trazado_608677" data-name="Trazado 608677" d="M27.039,83.218a4.305,4.305,0,1,1,3.269-7.108,8.189,8.189,0,0,0-3.81-.737,3.582,3.582,0,1,0,3.008,6.137,1.864,1.864,0,0,1-1.815,1.658,4.4,4.4,0,0,1-.653.051" transform="translate(8.366 27.453)" fill="#1a1a1a"/>
        <path id="Trazado_608678" data-name="Trazado 608678" d="M25.566,80.484c-.243-.631,1.793-2.46,1.793-2.46l-2.542-1.356c.341-.64,3.338.959,3.338.959.071.588-2.347,2.763-2.347,2.763a.366.366,0,0,1-.242.093" transform="translate(9.132 28.156)" fill="#1a1a1a"/>
        <path id="Trazado_608679" data-name="Trazado 608679" d="M33.282,92.143c2.1-1.111,3.633-2.027,4.5-3.443a7.349,7.349,0,0,0,.565-5.321c.9-1.192,2.122-2.813,1.951-3.617-.144-.68-1.948-1.246-3.187-1.434-.313-.4-1.145-8.168-1.709-9.7,1.217,1.211,1.938,7.6,2.094,9.025.923.17,3.246.71,3.51,1.953.272,1.286-1.375,3.187-1.912,3.767a7.853,7.853,0,0,1-.695,5.7,7.05,7.05,0,0,1-5.053,3.062.508.508,0,0,1-.064,0" transform="translate(12.247 25.255)" fill="#1a1a1a"/>
        <path id="Trazado_608680" data-name="Trazado 608680" d="M63.272,95.379a11.149,11.149,0,0,1-1.388-3.591c-.215-.814-.417-1.583-.6-2.088-.428-1.205-1-2.807-.61-4.15a2.3,2.3,0,0,1,1.149-1.439,2.375,2.375,0,0,1,2.291.22,4.37,4.37,0,0,1,1.432,1.658,5.155,5.155,0,0,1,.38,1.134c.245.936.55,2.1,1.394,2.3,1.354.317,2.431-.974,3.179-3.862.372-1.438.7-2.609,1.022-3.691a46.334,46.334,0,0,1,2.71-7.154,4.49,4.49,0,0,1,1.276-1.866,2.105,2.105,0,0,1,1.421-.393A2.3,2.3,0,0,1,78.7,73.4a3.637,3.637,0,0,1,.442,2.952c-.376,1.51-1.959,5.936-2.531,7.52a3.291,3.291,0,0,1,2.052.488,2.94,2.94,0,0,1,1.205,1.964,3.6,3.6,0,0,1,2.079,1.166,3.97,3.97,0,0,1,.761,3.093,17.166,17.166,0,0,0-1.311-2.621A2.964,2.964,0,0,0,79.527,87a4.105,4.105,0,0,0-1.271-2.046,2.933,2.933,0,0,0-2.1-.3c-.406-.538,1.841-6.71,2.285-8.487a2.939,2.939,0,0,0-.326-2.347,1.567,1.567,0,0,0-1.226-.644,1.44,1.44,0,0,0-.947.254,3.4,3.4,0,0,0-.944,1.371,46.492,46.492,0,0,0-2.778,7.274c-.321,1.074-.643,2.238-1.014,3.666-.865,3.345-2.22,4.828-4.048,4.384-1.267-.3-1.647-1.759-1.925-2.821a5.233,5.233,0,0,0-.313-.969,3.739,3.739,0,0,0-1.192-1.4,1.673,1.673,0,0,0-1.581-.178,1.583,1.583,0,0,0-.772.99,6.527,6.527,0,0,0,.584,3.67c.2.57.408,1.352.627,2.181A22.7,22.7,0,0,0,63.6,94.861c-.219.506-.272.518-.326.518" transform="translate(22.279 26.66)" fill="#1a1a1a"/>
        <path id="Trazado_608681" data-name="Trazado 608681" d="M73.079,87.97a13.839,13.839,0,0,0,1.477-5.226c.726.071.75,2.157-1.175,5.063a.36.36,0,0,1-.3.163" transform="translate(26.891 30.448)" fill="#1a1a1a"/>
        <path id="Trazado_608682" data-name="Trazado 608682" d="M70.7,85.755c1.1-3.7,1.268-4.666,1.269-4.677.711.149.554,1.137-.94,4.462a.362.362,0,0,1-.33.215" transform="translate(26.015 29.835)" fill="#1a1a1a"/>
        <path id="Trazado_608683" data-name="Trazado 608683" d="M74.851,93.5a21.384,21.384,0,0,0,1.91-8.249c.726.175.732,4.442-1.6,8.082a.362.362,0,0,1-.305.167" transform="translate(27.543 31.371)" fill="#1a1a1a"/>
        <path id="Trazado_608684" data-name="Trazado 608684" d="M50.371,156.772c-2.052-5.341-3.553-20.609-3.977-27.651,1.145,6.964,2.633,22.142,4.32,27.175-.267.472-.306.476-.343.476" transform="translate(17.072 47.513)" fill="#1a1a1a"/>
        <path id="Trazado_608685" data-name="Trazado 608685" d="M11.9,167.622a.368.368,0,0,1-.36-.4,183.017,183.017,0,0,0,.332-26.349c-.414-6.223-.317-13.555-.238-19.448.03-2.235.057-4.306.056-6.1a61.985,61.985,0,0,1,2.036-16.968,124.8,124.8,0,0,0-1.312,16.968c0,1.793-.026,3.867-.055,6.108-.081,5.878-.176,13.2.235,19.388a183.291,183.291,0,0,1-.335,26.469.362.362,0,0,1-.36.326" transform="translate(4.245 36.195)" fill="#1a1a1a"/>
        <path id="Trazado_608686" data-name="Trazado 608686" d="M55.53,118.92a5.536,5.536,0,0,1-1.951-1.06,13.264,13.264,0,0,1-3.358-5.306c-.4-.955-.782-1.919-1.171-2.884a86.291,86.291,0,0,0-4.108-9.18c-2.843-5.211-6.633-8.331-11.589-9.538,5.336.554,9.28,3.791,12.226,9.191a86.975,86.975,0,0,1,4.145,9.256c.386.963.772,1.923,1.168,2.877a12.451,12.451,0,0,0,3.152,5.03,5.07,5.07,0,0,0,1.6.91c.174.61.033.7-.118.7" transform="translate(12.273 33.468)" fill="#1a1a1a"/>
        <path id="Trazado_608687" data-name="Trazado 608687" d="M55.017,113.53c-.345-.475,6.936-22.708,6.936-22.708.181-.253,2.867-3.286,10.911-2.564,8.937.807,11.488,5.941,11.592,6.159-.969,6.115-1.791,10.979-2.974,16.116.473-5.279,1.294-10.133,2.245-15.754-.367-.837-3.085-5.093-10.927-5.8-7.082-.643-9.814,1.776-10.183,2.144l-7.256,22.156a.361.361,0,0,1-.343.25" transform="translate(20.24 32.436)" fill="#1a1a1a"/>
        <path id="Trazado_608688" data-name="Trazado 608688" d="M61.385,138.609a29.558,29.558,0,0,1-22.022-9.191,40.621,40.621,0,0,1-5.748-7.544,52.308,52.308,0,0,1-3.637-7.376,55.382,55.382,0,0,1-1.908-5.609c-.17-.613-.387-1.42-.554-2.238a3.329,3.329,0,0,1,1.252,2.044,54.5,54.5,0,0,0,1.884,5.535,51.518,51.518,0,0,0,3.587,7.274,39.9,39.9,0,0,0,5.643,7.41,28.933,28.933,0,0,0,22.438,8.96,22.3,22.3,0,0,0,2.39-.172,2.935,2.935,0,0,1-2.371.9q-.478.012-.952.012" transform="translate(10.125 39.244)" fill="#1a1a1a"/>
        <path id="Trazado_608689" data-name="Trazado 608689" d="M139.708,98.713c-.031-.722,2.59-.944,2.59-.944.06.722-2.559.943-2.559.943h-.03" transform="translate(51.409 35.976)" fill="#1a1a1a"/>
        <path id="Trazado_608690" data-name="Trazado 608690" d="M120.844,111.794c4.417-7.7,11.228-11.8,21.132-13.477-9.573,2.35-16.23,6.353-20.832,13.314a.361.361,0,0,1-.3.163" transform="translate(44.467 36.178)" fill="#1a1a1a"/>
        <path id="Trazado_608691" data-name="Trazado 608691" d="M83.211,135.03a5,5,0,0,1-2.226-.577,8.886,8.886,0,0,1-3.568-3.531c-1.91-3.308-1.644-7.051.592-8.341a4.084,4.084,0,0,1,3.951.127,9.514,9.514,0,0,1,4.841,8.386,4.092,4.092,0,0,1-1.865,3.486,3.412,3.412,0,0,1-1.726.45m-3.476-12.172a2.7,2.7,0,0,0-1.364.349c-1.889,1.093-2.037,4.391-.327,7.353a8.164,8.164,0,0,0,3.267,3.246,3.032,3.032,0,0,0,4.767-2.752,8.791,8.791,0,0,0-4.443-7.7,4.262,4.262,0,0,0-1.9-.5" transform="translate(28.018 44.941)" fill="#1a1a1a"/>
        <path id="Trazado_608692" data-name="Trazado 608692" d="M132.776,122.793c-.343-.249-4.145-11.724-4.145-11.724a8.724,8.724,0,0,0-8.294-5.989H60.811a8.82,8.82,0,0,0-1.885.2l-5.148,2.91c-.356-.631,4.84-3.566,4.84-3.566a8.955,8.955,0,0,1,2.193-.269h59.526a9.447,9.447,0,0,1,8.981,6.486l3.8,11.477c-.268.469-.306.475-.343.475" transform="translate(19.783 38.4)" fill="#1a1a1a"/>
        <path id="Trazado_608693" data-name="Trazado 608693" d="M112.748,156.99a12.12,12.12,0,0,0,7.085-4.345,8.641,8.641,0,0,0,1.209-7.863l-5.384-16.253c.687-.228,6.071,16.023,6.071,16.023a9.461,9.461,0,0,1-8.981,12.438" transform="translate(41.488 47.295)" fill="#1a1a1a"/>
        <path id="Trazado_608694" data-name="Trazado 608694" d="M132.147,165.18H72.623a9.419,9.419,0,0,1-8.979-6.211L49.526,118.2a8.676,8.676,0,0,1,1.163-7.966,9.574,9.574,0,0,1,7.815-3.959H118.03a9.425,9.425,0,0,1,8.981,6.211l14.116,40.77a8.692,8.692,0,0,1-1.161,7.968,9.586,9.586,0,0,1-7.818,3.959M58.5,107a8.85,8.85,0,0,0-7.226,3.654,7.962,7.962,0,0,0-1.068,7.31l14.116,40.771a8.7,8.7,0,0,0,8.3,5.725h59.525a8.855,8.855,0,0,0,7.227-3.655,7.97,7.97,0,0,0,1.068-7.31l-14.117-40.77a8.7,8.7,0,0,0-8.3-5.725Z" transform="translate(18.044 39.105)" fill="#1a1a1a"/>
        <path id="Trazado_608695" data-name="Trazado 608695" d="M186.377,145.9c-.038-.722.573-.8,1.607-1.016a3.017,3.017,0,0,1-1.562,1.014l-.045,0m5.721-1.375a11.623,11.623,0,0,1,3.767-2.15,7.211,7.211,0,0,1-3.658,2.131.313.313,0,0,1-.109.019m7.666-3.268a13.01,13.01,0,0,1,3.352-2.828,7.081,7.081,0,0,1-3.179,2.784.379.379,0,0,1-.172.044m6.87-4.692a15.439,15.439,0,0,1,2.75-3.479,6.938,6.938,0,0,1-2.516,3.391.363.363,0,0,1-.234.088m5.684-6.063a18.572,18.572,0,0,1,1.968-4.018,6.928,6.928,0,0,1-1.679,3.873.36.36,0,0,1-.29.145m4.157-7.185a22.161,22.161,0,0,1,1.118-4.362,7.08,7.08,0,0,1-.785,4.145.365.365,0,0,1-.332.218m2.531-7.907a.378.378,0,0,1-.354-.439c.285-1.326.516-2.694.692-4.067a7.319,7.319,0,0,1,.016,4.217.363.363,0,0,1-.354.289m1.055-8.241a.366.366,0,0,1-.363-.38c.047-.934.07-1.907.07-2.888,0-.412,0-.829-.012-1.246a1.186,1.186,0,0,1,.736,1.248c0,.992-.023,1.977-.068,2.922a.365.365,0,0,1-.363.345m-.155-8.321a30.333,30.333,0,0,1-.806-4.454,7.737,7.737,0,0,1,1.167,4.064c-.341.39-.352.39-.361.39m-1.119-8.25c-.625-1.657-.948-3.008-1.312-4.306a7.276,7.276,0,0,1,1.668,3.875c-.309.43-.332.431-.356.431M216.533,82.6c-.829-1.535-1.376-2.807-1.971-4.02a7.082,7.082,0,0,1,2.309,3.531c-.253.482-.3.49-.338.49m-3.662-7.453c-1.041-1.338-1.841-2.469-2.683-3.532a6.94,6.94,0,0,1,2.988,2.978c-.174.536-.241.554-.305.554m-5.167-6.5c-1.226-1.075-2.259-2-3.331-2.848a6.927,6.927,0,0,1,3.587,2.231c-.07.581-.163.617-.256.617M201.2,63.482c-1.345-.776-2.559-1.447-3.8-2.051a7.062,7.062,0,0,1,3.994,1.382c.045.609-.072.669-.191.669m-7.484-3.639c-1.412-.491-2.74-.9-4.072-1.246a7.173,7.173,0,0,1,4.2.544c.163.61.023.7-.123.7m-8.068-2.081a30.867,30.867,0,0,0-4.167-.4c.067-.725,1.666-.72,4.222-.321.275.592.12.72-.055.72" transform="translate(66.779 20.891)" fill="#1a1a1a"/>
        <path id="Trazado_608696" data-name="Trazado 608696" d="M19.618,79.057a26.042,26.042,0,0,1-1.646-4.213,8.909,8.909,0,0,1,1.988,3.735c-.265.472-.3.479-.342.479M17.139,71.1a21.56,21.56,0,0,1-1.357-4.33,9.124,9.124,0,0,1,1.7,3.871c-.285.453-.316.458-.347.458m-1.766-8.137a5.574,5.574,0,0,1-.6-2.079c-.094-.8-.166-1.61-.212-2.4A3.33,3.33,0,0,1,15.5,60.8q.1.876.235,1.747c-.323.416-.341.416-.36.416m-.477-8.3a.364.364,0,0,1-.363-.378,38.709,38.709,0,0,1,.423-4.183,10.716,10.716,0,0,1,.3,4.216.363.363,0,0,1-.363.345M16.2,46.451c-.29-.066-.4-.267-.35-.458a35.23,35.23,0,0,1,1.382-3.975,11.02,11.02,0,0,1-.684,4.17.36.36,0,0,1-.347.264m3.2-7.665a9.86,9.86,0,0,1,2-4.051A11.232,11.232,0,0,1,19.72,38.6a.361.361,0,0,1-.315.182m50.815-.832A8.039,8.039,0,0,0,72.628,34.6a2.98,2.98,0,0,1-2.323,3.345.367.367,0,0,1-.085.01m-3.659-1.439a7.2,7.2,0,0,1-1.892-4.139c.891,1.29,1.421,2.617,2.174,3.55-.123.562-.2.59-.282.59M24.407,32.153a8.878,8.878,0,0,1,2.848-3.446,11.132,11.132,0,0,1-2.588,3.336.358.358,0,0,1-.26.109M72.59,31.034A14.865,14.865,0,0,0,69.7,27.778a4.989,4.989,0,0,1,3.211,2.732c-.215.513-.269.524-.324.524m-7.412-2.487a.372.372,0,0,1-.357-.419,19.229,19.229,0,0,1,.765-3.1,30.04,30.04,0,0,0-2.938-1.413,4.466,4.466,0,0,1,3.183.721,15.586,15.586,0,0,1-.3,3.908.361.361,0,0,1-.357.305m89.171-1.126a21.121,21.121,0,0,1-1.543-2.269,3.05,3.05,0,0,1,1.859,1.733c-.2.523-.256.536-.316.536m-123.48-.492a1.972,1.972,0,0,1,1.105-1.453c.778-.45,1.577-.876,2.373-1.26A4.11,4.11,0,0,1,32.336,26.1q-.648.373-1.272.77a.366.366,0,0,1-.194.056M38.348,23.3a7.608,7.608,0,0,1,3.915-1.881,10.85,10.85,0,0,1-3.795,1.859.34.34,0,0,1-.12.022m20.5-.992a34.338,34.338,0,0,0-4.131-.811,6.822,6.822,0,0,1,4.224.1c.212.6.067.713-.093.713m91.928-.428c-1.111-1.252-1.984-2.335-2.886-3.369a7.366,7.366,0,0,1,3.178,2.791c-.141.554-.216.579-.291.579M46.449,21.431a6.744,6.744,0,0,1,3.907-.944,9.037,9.037,0,0,1-3.866.943h-.041m21.693-.6A9.2,9.2,0,0,1,70.3,16.86a12.142,12.142,0,0,1-1.852,3.793.363.363,0,0,1-.309.172m77.148-5.217c-1.242-1.064-2.278-2-3.331-2.867a7.338,7.338,0,0,1,3.583,2.246c-.063.584-.157.621-.252.621M73.439,14.427a9.036,9.036,0,0,1,2.947-3.353,10.736,10.736,0,0,1-2.7,3.253.365.365,0,0,1-.249.1M138.878,10.3c-1.328-.851-2.5-1.6-3.689-2.3a7.362,7.362,0,0,1,3.9,1.646c.018.6-.094.658-.207.658M80.011,9.32a8.749,8.749,0,0,1,3.421-2.795,10.143,10.143,0,0,1-3.226,2.737.362.362,0,0,1-.2.057M131.7,6.082c-1.4-.636-2.677-1.193-3.948-1.688a7.342,7.342,0,0,1,4.105,1c.105.613-.023.687-.157.687M87.345,5.376a8.42,8.42,0,0,1,3.743-2.26,9.871,9.871,0,0,1-3.6,2.228.371.371,0,0,1-.146.031m36.6-2.315c-1.417-.412-2.763-.762-4.108-1.056a7.414,7.414,0,0,1,4.212.346c.194.609.051.71-.1.71m-28.766-.51A7.971,7.971,0,0,1,99.166.871a9.933,9.933,0,0,1-3.888,1.666.4.4,0,0,1-.1.014M115.815,1.28c-1.4-.194-2.782-.338-4.165-.431a7.47,7.47,0,0,1,4.216-.29c.283.59.129.721-.051.721M103.354.964A7.413,7.413,0,0,1,107.512,0a10.278,10.278,0,0,1-4.119.962l-.038,0" transform="translate(5.348)" fill="#1a1a1a"/>
        <path id="Trazado_608697" data-name="Trazado 608697" d="M276.9,149.529H.3c0-.724,276.6-.724,276.6-.724.362.562.2.724,0,.724" transform="translate(0.109 54.756)" fill="#1a1a1a"/>
        <path id="Trazado_608698" data-name="Trazado 608698" d="M170.142,121.7c-.361-.363-.361-57.5-.361-57.5.724,0,.724,57.139.724,57.139a.362.362,0,0,1-.363.363" transform="translate(62.475 23.622)" fill="#1a1a1a"/>
        <path id="Trazado_608699" data-name="Trazado 608699" d="M122.325,36.455H94.986c0-.724,27.339-.724,27.339-.724.363.561.2.724,0,.724" transform="translate(34.952 13.148)" fill="#1a1a1a"/>
        <path id="Trazado_608700" data-name="Trazado 608700" d="M41.566,52.858C41.2,52.5,41.2,44.78,41.2,44.78a9.059,9.059,0,0,1,9.049-9.049H79.94c0,.724-29.688.724-29.688.724a8.334,8.334,0,0,0-8.324,8.325V52.5a.363.363,0,0,1-.363.363" transform="translate(15.162 13.148)" fill="#1a1a1a"/>
        <path id="Trazado_608701" data-name="Trazado 608701" d="M41.566,109.547c-.363-.363-.363-47.023-.363-47.023.725,0,.725,46.66.725,46.66a.362.362,0,0,1-.363.363" transform="translate(15.162 23.007)" fill="#1a1a1a"/>
        <path id="Trazado_608702" data-name="Trazado 608702" d="M190.248,74.325H126.84a9.059,9.059,0,0,1-9.049-9.049V29.982a9.058,9.058,0,0,1,9.049-9.048h63.408a9.059,9.059,0,0,1,9.051,9.048V65.275a9.06,9.06,0,0,1-9.051,9.049M126.84,21.658a8.335,8.335,0,0,0-8.326,8.324V65.275A8.336,8.336,0,0,0,126.84,73.6h63.408a8.335,8.335,0,0,0,8.325-8.325V29.982a8.334,8.334,0,0,0-8.325-8.324Z" transform="translate(43.344 7.703)" fill="#1a1a1a"/>
        <path id="Trazado_608703" data-name="Trazado 608703" d="M145.612,104.589c-.339-.1-5.38-1.986-6.663-4.951a5.6,5.6,0,0,1,.138-4.189,4.99,4.99,0,0,1,2.856-2.8,10.99,10.99,0,0,0-2.189,3.083,4.906,4.906,0,0,0-.142,3.616c1.086,2.507,5.445,4.274,6.055,4.51,8.747-.636,16.773-3.971,17.2-7.157a2.916,2.916,0,0,0-.558-2.256c-.878-1.13-2.718-1.869-5.466-2.194,3.034-.369,5.037.462,6.037,1.751a3.616,3.616,0,0,1,.7,2.795c-.542,4.066-9.734,7.209-17.942,7.789h-.026" transform="translate(51.003 33.914)" fill="#1a1a1a"/>
        <path id="Trazado_608704" data-name="Trazado 608704" d="M141.608,106.27c-2.932-1.373-4.7-3.161-5.428-5.35a8.4,8.4,0,0,1,.773-6.528,7.457,7.457,0,0,1,3.108-3.282,36.891,36.891,0,0,0-2.466,3.617,7.689,7.689,0,0,0-.728,5.964c.661,2,2.309,3.642,4.9,4.891.105.613-.023.688-.157.688" transform="translate(49.981 33.526)" fill="#1a1a1a"/>
        <path id="Trazado_608705" data-name="Trazado 608705" d="M163.119,103.285c-.279-.057-.4-.252-.352-.447.016-.068,1.588-6.884-3.733-10.554a11.728,11.728,0,0,0-7.211-1.973,8.5,8.5,0,0,1,7.621,1.376c5.736,3.958,4.044,11.249,4.026,11.321a.361.361,0,0,1-.352.276" transform="translate(55.867 33.094)" fill="#1a1a1a"/>
        <path id="Trazado_608706" data-name="Trazado 608706" d="M146.237,105.022c15.767-2.652,17.219-8.477,17.231-8.538.657.4-.766,6.528-17.186,8.533a.263.263,0,0,1-.045,0" transform="translate(53.811 35.504)" fill="#1a1a1a"/>
        <path id="Trazado_608707" data-name="Trazado 608707" d="M141.791,100.328c-.363-.349-.628-7.551-.628-7.551.725-.027.99,7.176.99,7.176a4.224,4.224,0,0,1-.363.375" transform="translate(51.944 34.139)" fill="#1a1a1a"/>
        <path id="Trazado_608708" data-name="Trazado 608708" d="M91.321,81.9H77.4c0-.724,13.918-.724,13.918-.724a3.575,3.575,0,0,0,3.572-3.57V69.288a3.574,3.574,0,0,0-3.572-3.569H67.183a3.573,3.573,0,0,0-3.569,3.569V77.6a3.574,3.574,0,0,0,3.569,3.57h4.561c0,.724-4.561.724-4.561.724A4.3,4.3,0,0,1,62.889,77.6V69.288A4.3,4.3,0,0,1,67.183,65H91.321a4.3,4.3,0,0,1,4.294,4.293V77.6A4.3,4.3,0,0,1,91.321,81.9" transform="translate(23.141 23.916)" fill="#1a1a1a"/>
        <path id="Trazado_608709" data-name="Trazado 608709" d="M122.08,96.615c1.967-.724,3.569-2.324,3.569-4.293V84.005a3.574,3.574,0,0,0-3.569-3.569H97.941a3.574,3.574,0,0,0-3.57,3.569v8.317a3.574,3.574,0,0,0,3.57,3.569h8.967c0,.724-8.967.724-8.967.724a4.3,4.3,0,0,1-4.294-4.293V84.005a4.3,4.3,0,0,1,4.294-4.294H122.08a4.3,4.3,0,0,1,4.294,4.294v8.317a4.3,4.3,0,0,1-4.294,4.293" transform="translate(34.46 29.331)" fill="#1a1a1a"/>
        <path id="Trazado_608710" data-name="Trazado 608710" d="M37.308,81.891a3.949,3.949,0,0,1-3.01-1.629c.646-.343,2.026,1.524,3.994.7-.161.852-.585.929-.985.929" transform="translate(12.621 29.518)" fill="#1a1a1a"/>
        <path id="Trazado_608711" data-name="Trazado 608711" d="M164.451,136.338c-.275-10.429-6.2-20.771-6.264-20.874.688-.26,6.717,10.254,6.625,20.516a.362.362,0,0,1-.361.358" transform="translate(58.209 42.486)" fill="#1a1a1a"/>
        <path id="Trazado_608712" data-name="Trazado 608712" d="M27.573,78.736c.03-.728,2.219-.948,6.171-4.335A15.281,15.281,0,0,0,37.4,68.769c.213-.469.423-.927.637-1.372a1.539,1.539,0,0,1,.022,1.67,16.07,16.07,0,0,1-3.84,5.882c-4.205,3.6-6.524,3.78-6.621,3.785h-.021" transform="translate(10.146 24.8)" fill="#1a1a1a"/>
        <path id="Trazado_608713" data-name="Trazado 608713" d="M15.078,85.569c-.763-1.956-2.72-13.372-1.434-16.6,1.833-4.594,7.983-5.858,9.825-6.137A13.3,13.3,0,0,1,28.13,63a6.361,6.361,0,0,1,2.893,1.118c1.291-1.755,3.776-2.5,5.815-2.592a12.089,12.089,0,0,1,7.031,1.873,6.485,6.485,0,0,1,3.286,5.974,12.187,12.187,0,0,1-2.739,6.564,24.852,24.852,0,0,0,2.016-6.62A5.71,5.71,0,0,0,43.48,64a11.28,11.28,0,0,0-6.607-1.756c-2.067.1-4.622.892-5.6,2.833a6.844,6.844,0,0,0-3.245-1.365,12.473,12.473,0,0,0-4.454-.166c-1.746.264-7.572,1.453-9.261,5.691-1.148,2.878.572,13.673,1.112,15.881-.293.445-.324.449-.352.449" transform="translate(4.864 22.633)" fill="#1a1a1a"/>
        <path id="Trazado_608714" data-name="Trazado 608714" d="M28.934,109.52a11.659,11.659,0,0,1-9.165-4.658,8.666,8.666,0,0,1-6.283.886,7.534,7.534,0,0,1-5.031-3.989c-1.43-3.124,0-6.683,3.4-8.461.245-.127,1.357-.767,2.026-1.153-.35-.226-.782-.512-.953-.629a7.411,7.411,0,0,1-1.466-1.331,7.856,7.856,0,0,1-1.746-4.5A7.138,7.138,0,0,1,10.958,80.9a6.359,6.359,0,0,1,6.12-2.315c-2.391.434-4.38,1.172-5.538,2.744a6.414,6.414,0,0,0-1.107,4.305,7.126,7.126,0,0,0,1.58,4.083,6.645,6.645,0,0,0,1.321,1.2c.3.209,1.43.94,1.43.941-.1.668-2.212,1.886-2.579,2.079-3.093,1.62-4.357,4.71-3.074,7.517a6.8,6.8,0,0,0,4.546,3.587,7.927,7.927,0,0,0,6.005-.963c3.376,3.852,7.349,5.4,11.67,4.446a7.189,7.189,0,0,0,4.431-2.677,4.033,4.033,0,0,0,.677-2.138,13.139,13.139,0,0,0-.487-2.544,15.207,15.207,0,0,0,5.509-5.1c1.332-2.373,1.383-5.072.155-8.253-1.072-2.773-3.848-5.934-7.079-6.6,3.631.011,6.61,3.382,7.754,6.339,1.312,3.394,1.248,6.3-.2,8.869a10.692,10.692,0,0,1-5.428,4.61,14.243,14.243,0,0,1,.5,2.7,4.746,4.746,0,0,1-.8,2.517,7.681,7.681,0,0,1-4.88,2.985,11.754,11.754,0,0,1-2.555.286" transform="translate(2.908 28.894)" fill="#1a1a1a"/>
        <path id="Trazado_608715" data-name="Trazado 608715" d="M139.289,83.618c-.246-.085-7.03-4.011-3.99-10.269a7.236,7.236,0,0,1,5.092-4.092,11.741,11.741,0,0,1,9.264,2.417c-2.376-1.023-5.9-2.409-9.111-1.711a6.469,6.469,0,0,0-4.6,3.7c-2.746,5.654,3.263,9.13,3.518,9.276.071.61-.052.677-.178.677" transform="translate(49.498 25.411)" fill="#1a1a1a"/>
        <path id="Trazado_608716" data-name="Trazado 608716" d="M155.731,72.26c-2.657-2.674-5.141-3.986-7.647-4.012a8.281,8.281,0,0,0-5.481,2.2c-.423-.6,1.867-2.922,5.4-2.922,2.791.026,5.453,1.413,7.99,4.126-.088.577-.176.61-.265.61" transform="translate(52.455 24.847)" fill="#1a1a1a"/>
        <path id="Trazado_608717" data-name="Trazado 608717" d="M141.73,89.755a2.392,2.392,0,0,1-1.886-.591,1.116,1.116,0,0,1,.018-1.245c.936-1.807,2.368-7.93,2.384-7.993.644.42-.765,6.44-1.743,8.327.178.829,1.5.843,2.58.658-.085.748-.7.844-1.353.844" transform="translate(51.394 29.411)" fill="#1a1a1a"/>
        <path id="Trazado_608718" data-name="Trazado 608718" d="M155.166,85.331c-1.722-2.875-1.215-6.414-.937-7.8-10.346,2.575-17.232-.889-17.648-1.36.713-.386,7.465,3.339,18.039.512.393.631-.746,5.033.866,8.122-.205.517-.264.531-.32.531" transform="translate(50.258 28.017)" fill="#1a1a1a"/>
        <path id="Trazado_608719" data-name="Trazado 608719" d="M131.971,41.014a6.488,6.488,0,1,1,6.488-6.488,6.5,6.5,0,0,1-6.488,6.488m0-12.253a5.764,5.764,0,1,0,5.765,5.765,5.771,5.771,0,0,0-5.765-5.765" transform="translate(46.174 10.317)" fill="#1a1a1a"/>
        <path id="Trazado_608720" data-name="Trazado 608720" d="M180.063,31.5H141.07c0-.724,38.993-.724,38.993-.724.363.561.2.724,0,.724" transform="translate(51.91 11.325)" fill="#1a1a1a"/>
        <path id="Trazado_608721" data-name="Trazado 608721" d="M178.287,43.308H145.9c0-.724,32.392-.724,32.392-.724.363.562.2.724,0,.724" transform="translate(53.685 15.67)" fill="#1a1a1a"/>
        <path id="Trazado_608722" data-name="Trazado 608722" d="M142.789,43.308H125.747c0-.724,17.042-.724,17.042-.724.363.562.2.724,0,.724" transform="translate(46.272 15.67)" fill="#1a1a1a"/>
        <path id="Trazado_608723" data-name="Trazado 608723" d="M102.332,64.935H71.391C71.03,64.572,71.03,28.4,71.03,28.4c.361-.363,31.3-.363,31.3-.363.361.363.361,36.534.361,36.534a.362.362,0,0,1-.361.363m-30.578-.724h30.216V28.76H71.754Z" transform="translate(26.137 10.317)" fill="#1a1a1a"/>
        <path id="Trazado_608724" data-name="Trazado 608724" d="M92.765,38.946H76.881c0-.724,15.884-.724,15.884-.724.363.561.2.724,0,.724" transform="translate(28.29 14.065)" fill="#1a1a1a"/>
        <path id="Trazado_608725" data-name="Trazado 608725" d="M92.765,43.032H76.881c0-.724,15.884-.724,15.884-.724.363.561.2.724,0,.724" transform="translate(28.29 15.568)" fill="#1a1a1a"/>
        <path id="Trazado_608726" data-name="Trazado 608726" d="M92.765,47.118H76.881c0-.725,15.884-.725,15.884-.725.363.562.2.725,0,.725" transform="translate(28.29 17.071)" fill="#1a1a1a"/>
        <path id="Trazado_608727" data-name="Trazado 608727" d="M131.307,87.892c-.363-.363-.363-16.26-.363-16.26H92.411c0-.724,38.9-.724,38.9-.724.363.361.363,16.621.363,16.621a.363.363,0,0,1-.363.363" transform="translate(34.005 26.093)" fill="#1a1a1a"/>
        <path id="Trazado_608728" data-name="Trazado 608728" d="M83.46,35.815a2.868,2.868,0,1,1,2.869-2.869,2.872,2.872,0,0,1-2.869,2.869m0-5.012A2.144,2.144,0,1,0,85.6,32.946,2.146,2.146,0,0,0,83.46,30.8" transform="translate(29.655 11.068)" fill="#1a1a1a"/>
        <path id="Trazado_608729" data-name="Trazado 608729" d="M90.252,74.813a2.869,2.869,0,1,1,2.867-2.869,2.873,2.873,0,0,1-2.867,2.869m0-5.014A2.144,2.144,0,1,0,92.4,71.945,2.146,2.146,0,0,0,90.252,69.8" transform="translate(32.155 25.418)" fill="#1a1a1a"/>
        <path id="Trazado_608730" data-name="Trazado 608730" d="M121.616,89.648a2.869,2.869,0,1,1,2.867-2.869,2.874,2.874,0,0,1-2.867,2.869m0-5.014a2.145,2.145,0,1,0,2.144,2.145,2.148,2.148,0,0,0-2.144-2.145" transform="translate(43.695 30.877)" fill="#1a1a1a"/>
      </g>
    </g>
  </g>
</svg>
