<svg xmlns="http://www.w3.org/2000/svg" xmlns:xlink="http://www.w3.org/1999/xlink" width="1030" height="475.466" viewBox="0 0 1030 475.466">
  <defs>
    <linearGradient id="linear-gradient" x1="0.031" y1="0.952" x2="0.988" y2="0.021" gradientUnits="objectBoundingBox">
      <stop offset="0" stop-color="#e3ecf7"/>
      <stop offset="1" stop-color="#e4fdfb"/>
    </linearGradient>
    <clipPath id="clip-path">
      <rect id="Rectángulo_377421" data-name="Rectángulo 377421" width="122.106" height="122.336" fill="none"/>
    </clipPath>
  </defs>
  <g id="Grupo_1072979" data-name="Grupo 1072979" transform="translate(-285 -4627)">
    <path id="Trazado_601687" data-name="Trazado 601687" d="M0,0H1030V475.466H0Z" transform="translate(285 4627)" fill="url(#linear-gradient)"/>
    <g id="Grupo_1071472" data-name="Grupo 1071472" transform="translate(25 2984)">
      <path id="Trazado_601694" data-name="Trazado 601694" d="M280.052,0l-133.5,133.5,8.88,9.011,125.13,125.13A196.423,196.423,0,0,0,280.052,0" transform="translate(640.167 1748.132)" fill="#95fff8"/>
      <path id="Trazado_608438" data-name="Trazado 608438" d="M280.052,0l-133.5,133.5,8.88,9.011,125.13,125.13A196.423,196.423,0,0,0,280.052,0" transform="translate(909.944 2015.774) rotate(180)" fill="#8ad6d1"/>
      <path id="Trazado_608439" data-name="Trazado 608439" d="M280.052,0l-133.5,133.5,8.88,9.011,125.13,125.13A196.423,196.423,0,0,0,280.052,0" transform="translate(908.821 1746.206) rotate(90)" fill="#33ece0"/>
      <path id="Trazado_608440" data-name="Trazado 608440" d="M280.052,0l-133.5,133.5,8.88,9.011,125.13,125.13A196.423,196.423,0,0,0,280.052,0" transform="translate(640.179 2017.502) rotate(-90)" fill="#33ece0"/>
    </g>
    <rect id="Rectángulo_345407" data-name="Rectángulo 345407" width="392.892" height="330.56" transform="translate(582.22 4732.132)" fill="none"/>
    <rect id="Rectángulo_345397" data-name="Rectángulo 345397" width="194" height="33" rx="16.5" transform="translate(705 4654)" fill="#4d596b"/>
    <rect id="Rectángulo_347475" data-name="Rectángulo 347475" width="194" height="33" rx="16.5" transform="translate(913 4772)" fill="#4d596b"/>
    <rect id="Rectángulo_347476" data-name="Rectángulo 347476" width="194" height="33" rx="16.5" transform="translate(913 4940)" fill="#4d596b"/>
    <rect id="Rectángulo_347477" data-name="Rectángulo 347477" width="194" height="33" rx="16.5" transform="translate(705 5043)" fill="#4d596b"/>
    <rect id="Rectángulo_347478" data-name="Rectángulo 347478" width="194" height="33" rx="16.5" transform="translate(493 4940)" fill="#4d596b"/>
    <rect id="Rectángulo_347479" data-name="Rectángulo 347479" width="194" height="33" rx="16.5" transform="translate(493 4772)" fill="#4d596b"/>
    <path id="Trazado_819283" data-name="Trazado 819283" d="M1.4,0V-12.086H5.354a4.587,4.587,0,0,1,2.959.813,2.932,2.932,0,0,1,.992,2.407,2.455,2.455,0,0,1-.481,1.5A3.121,3.121,0,0,1,7.512-6.358,2.8,2.8,0,0,1,9.06-5.317a2.99,2.99,0,0,1,.569,1.83A3.232,3.232,0,0,1,8.575-.93,4.36,4.36,0,0,1,5.595,0ZM3-5.653V-1.3H5.628A2.534,2.534,0,0,0,7.384-1.88a2.026,2.026,0,0,0,.643-1.59q0-2.183-2.374-2.183ZM3-6.931H5.4a2.523,2.523,0,0,0,1.673-.524A1.757,1.757,0,0,0,7.7-8.878a1.728,1.728,0,0,0-.581-1.452,2.853,2.853,0,0,0-1.768-.453H3ZM13.414,0H11.878V-8.981h1.536Zm-1.66-11.364a.917.917,0,0,1,.228-.631.857.857,0,0,1,.677-.257.87.87,0,0,1,.681.257.907.907,0,0,1,.232.631.877.877,0,0,1-.232.623.886.886,0,0,1-.681.249.872.872,0,0,1-.677-.249A.886.886,0,0,1,11.754-11.364Zm3.71,6.79a5.3,5.3,0,0,1,.519-2.374,3.87,3.87,0,0,1,1.444-1.627,3.932,3.932,0,0,1,2.113-.573,3.788,3.788,0,0,1,2.968,1.27A4.886,4.886,0,0,1,23.641-4.5v.108a5.351,5.351,0,0,1-.5,2.353A3.813,3.813,0,0,1,21.7-.415a3.977,3.977,0,0,1-2.146.581A3.778,3.778,0,0,1,16.6-1.1a4.861,4.861,0,0,1-1.133-3.362Zm1.544.183a3.842,3.842,0,0,0,.693,2.4,2.218,2.218,0,0,0,1.855.9A2.2,2.2,0,0,0,21.416-2,4.2,4.2,0,0,0,22.1-4.574a3.836,3.836,0,0,0-.7-2.395,2.23,2.23,0,0,0-1.864-.917,2.205,2.205,0,0,0-1.834.9A4.17,4.17,0,0,0,17.008-4.391ZM25.2-4.565a5.279,5.279,0,0,1,.971-3.341,3.106,3.106,0,0,1,2.573-1.241,3.09,3.09,0,0,1,2.565,1.162l.075-1h1.4V-.216a3.654,3.654,0,0,1-1.033,2.748,3.814,3.814,0,0,1-2.777,1,4.619,4.619,0,0,1-1.9-.415,3.272,3.272,0,0,1-1.419-1.137l.8-.921a3,3,0,0,0,2.416,1.22,2.353,2.353,0,0,0,1.747-.631,2.411,2.411,0,0,0,.627-1.776V-.9A3.156,3.156,0,0,1,28.729.166,3.068,3.068,0,0,1,26.177-1.1,5.55,5.55,0,0,1,25.2-4.565Zm1.544.174A4.027,4.027,0,0,0,27.368-2a2.023,2.023,0,0,0,1.743.867,2.249,2.249,0,0,0,2.133-1.32v-4.1a2.276,2.276,0,0,0-2.117-1.287,2.041,2.041,0,0,0-1.751.872A4.386,4.386,0,0,0,26.745-4.391ZM39.445-7.6a4.6,4.6,0,0,0-.755-.058,2.024,2.024,0,0,0-2.05,1.287V0H35.1V-8.981H36.6l.025,1.038a2.391,2.391,0,0,1,2.142-1.2,1.569,1.569,0,0,1,.681.116ZM46.069,0a3.226,3.226,0,0,1-.216-.946A3.426,3.426,0,0,1,43.3.166a3.17,3.17,0,0,1-2.179-.751,2.43,2.43,0,0,1-.851-1.905,2.539,2.539,0,0,1,1.067-2.179,5.029,5.029,0,0,1,3-.776h1.494v-.706a1.725,1.725,0,0,0-.481-1.282,1.935,1.935,0,0,0-1.419-.477A2.239,2.239,0,0,0,42.55-7.5a1.223,1.223,0,0,0-.556,1H40.45a2.119,2.119,0,0,1,.477-1.3,3.258,3.258,0,0,1,1.295-.992,4.356,4.356,0,0,1,1.8-.365,3.551,3.551,0,0,1,2.432.776,2.8,2.8,0,0,1,.913,2.137V-2.1A5.054,5.054,0,0,0,47.68-.133V0ZM43.521-1.17a2.7,2.7,0,0,0,1.37-.374,2.259,2.259,0,0,0,.938-.971V-4.358h-1.2q-2.822,0-2.822,1.652a1.4,1.4,0,0,0,.481,1.129A1.85,1.85,0,0,0,43.521-1.17ZM44.94-12.75H46.8l-2.225,2.44-1.237,0ZM50.286,0V-7.794H48.867V-8.981h1.419v-.764a3.12,3.12,0,0,1,.859-2.341,3.332,3.332,0,0,1,2.428-.838,7.311,7.311,0,0,1,2.349.506l-.257,1.295a5.321,5.321,0,0,0-1.976-.415,1.933,1.933,0,0,0-1.424.444,1.831,1.831,0,0,0-.436,1.332v.78h1.834v1.187H51.83V0Zm6.4,0H55.142V-8.981h1.544Zm6.1-1.087a2.212,2.212,0,0,0,1.436-.5A1.752,1.752,0,0,0,64.9-2.831h1.453a2.785,2.785,0,0,1-.531,1.469A3.5,3.5,0,0,1,64.518-.249a3.772,3.772,0,0,1-1.731.415,3.7,3.7,0,0,1-2.918-1.224,4.877,4.877,0,0,1-1.083-3.349v-.257A5.407,5.407,0,0,1,59.268-7,3.667,3.667,0,0,1,60.65-8.583a3.926,3.926,0,0,1,2.129-.564,3.6,3.6,0,0,1,2.511.9,3.234,3.234,0,0,1,1.067,2.349H64.9a2.116,2.116,0,0,0-.66-1.432,2.053,2.053,0,0,0-1.465-.56,2.149,2.149,0,0,0-1.814.843,3.957,3.957,0,0,0-.643,2.436v.291a3.878,3.878,0,0,0,.639,2.391A2.16,2.16,0,0,0,62.787-1.087ZM73.628,0a3.226,3.226,0,0,1-.216-.946A3.426,3.426,0,0,1,70.855.166a3.17,3.17,0,0,1-2.179-.751,2.43,2.43,0,0,1-.851-1.905,2.539,2.539,0,0,1,1.067-2.179,5.029,5.029,0,0,1,3-.776h1.494v-.706a1.725,1.725,0,0,0-.481-1.282,1.935,1.935,0,0,0-1.419-.477,2.239,2.239,0,0,0-1.378.415,1.223,1.223,0,0,0-.556,1H68.008a2.119,2.119,0,0,1,.477-1.3,3.258,3.258,0,0,1,1.295-.992,4.356,4.356,0,0,1,1.8-.365,3.551,3.551,0,0,1,2.432.776,2.8,2.8,0,0,1,.913,2.137V-2.1a5.054,5.054,0,0,0,.315,1.967V0ZM71.08-1.17a2.7,2.7,0,0,0,1.37-.374,2.259,2.259,0,0,0,.938-.971V-4.358h-1.2q-2.822,0-2.822,1.652a1.4,1.4,0,0,0,.481,1.129A1.85,1.85,0,0,0,71.08-1.17Z" transform="translate(764 4677)" fill="#fff"/>
    <path id="Trazado_819284" data-name="Trazado 819284" d="M8.068-5.337H3V0H1.4V-12.086H8.89v1.3H3v4.142H8.068Zm1.909.764A5.3,5.3,0,0,1,10.5-6.948a3.87,3.87,0,0,1,1.444-1.627,3.932,3.932,0,0,1,2.113-.573,3.788,3.788,0,0,1,2.968,1.27A4.886,4.886,0,0,1,18.154-4.5v.108a5.351,5.351,0,0,1-.5,2.353A3.813,3.813,0,0,1,16.216-.415,3.977,3.977,0,0,1,14.07.166,3.778,3.778,0,0,1,11.111-1.1,4.861,4.861,0,0,1,9.978-4.466Zm1.544.183a3.842,3.842,0,0,0,.693,2.4,2.218,2.218,0,0,0,1.855.9A2.2,2.2,0,0,0,15.929-2a4.2,4.2,0,0,0,.689-2.569,3.836,3.836,0,0,0-.7-2.395,2.23,2.23,0,0,0-1.864-.917,2.205,2.205,0,0,0-1.834.9A4.17,4.17,0,0,0,11.521-4.391ZM24.421-7.6a4.6,4.6,0,0,0-.755-.058,2.024,2.024,0,0,0-2.05,1.287V0H20.08V-8.981h1.494L21.6-7.944a2.391,2.391,0,0,1,2.142-1.2,1.569,1.569,0,0,1,.681.116Zm2.855-1.378.042,1a3.317,3.317,0,0,1,2.665-1.162A2.568,2.568,0,0,1,32.547-7.7a3.4,3.4,0,0,1,1.166-1.046,3.445,3.445,0,0,1,1.7-.4q2.955,0,3,3.129V0H36.88V-5.927a2.062,2.062,0,0,0-.44-1.44,1.937,1.937,0,0,0-1.478-.477,2.036,2.036,0,0,0-1.419.51,2.071,2.071,0,0,0-.656,1.374V0H31.344V-5.885a1.713,1.713,0,0,0-1.917-1.959,2.055,2.055,0,0,0-2.067,1.287V0H25.824V-8.981ZM46.277,0a3.226,3.226,0,0,1-.216-.946A3.426,3.426,0,0,1,43.5.166a3.17,3.17,0,0,1-2.179-.751,2.43,2.43,0,0,1-.851-1.905,2.539,2.539,0,0,1,1.067-2.179,5.029,5.029,0,0,1,3-.776h1.494v-.706a1.725,1.725,0,0,0-.481-1.282,1.935,1.935,0,0,0-1.419-.477,2.239,2.239,0,0,0-1.378.415,1.223,1.223,0,0,0-.556,1H40.657a2.119,2.119,0,0,1,.477-1.3,3.258,3.258,0,0,1,1.295-.992,4.356,4.356,0,0,1,1.8-.365,3.551,3.551,0,0,1,2.432.776,2.8,2.8,0,0,1,.913,2.137V-2.1a5.054,5.054,0,0,0,.315,1.967V0ZM43.729-1.17a2.7,2.7,0,0,0,1.37-.374,2.259,2.259,0,0,0,.938-.971V-4.358h-1.2q-2.822,0-2.822,1.652a1.4,1.4,0,0,0,.481,1.129A1.85,1.85,0,0,0,43.729-1.17ZM51.647,0H50.112V-12.75h1.536Zm4.125,0H54.237V-8.981h1.536Zm-1.66-11.364a.917.917,0,0,1,.228-.631.857.857,0,0,1,.677-.257.87.87,0,0,1,.681.257.907.907,0,0,1,.232.631.877.877,0,0,1-.232.623.886.886,0,0,1-.681.249.872.872,0,0,1-.677-.249A.886.886,0,0,1,54.113-11.364Zm9.347,8.981a1.13,1.13,0,0,0-.469-.967,4.514,4.514,0,0,0-1.635-.594,7.731,7.731,0,0,1-1.851-.6,2.633,2.633,0,0,1-1.013-.83,1.986,1.986,0,0,1-.328-1.146A2.33,2.33,0,0,1,59.1-8.384a3.647,3.647,0,0,1,2.386-.764,3.753,3.753,0,0,1,2.478.789,2.5,2.5,0,0,1,.95,2.017H63.368a1.386,1.386,0,0,0-.535-1.087,2.006,2.006,0,0,0-1.349-.457,2.1,2.1,0,0,0-1.312.365,1.15,1.15,0,0,0-.473.955.932.932,0,0,0,.44.838,5.413,5.413,0,0,0,1.59.54,8.283,8.283,0,0,1,1.864.614,2.718,2.718,0,0,1,1.058.859A2.112,2.112,0,0,1,65-2.49a2.3,2.3,0,0,1-.963,1.93,4.039,4.039,0,0,1-2.5.726,4.523,4.523,0,0,1-1.909-.382,3.105,3.105,0,0,1-1.3-1.067,2.571,2.571,0,0,1-.469-1.482h1.536A1.59,1.59,0,0,0,60.01-1.54a2.4,2.4,0,0,0,1.523.452,2.476,2.476,0,0,0,1.4-.353A1.084,1.084,0,0,0,63.459-2.382Zm5.62-8.774v2.175h1.677v1.187H69.079v5.577a1.247,1.247,0,0,0,.224.81.943.943,0,0,0,.764.27,3.718,3.718,0,0,0,.73-.1V0a4.478,4.478,0,0,1-1.179.165,1.912,1.912,0,0,1-1.552-.623,2.675,2.675,0,0,1-.523-1.768v-5.57H65.908V-8.981h1.635v-2.175ZM78.094,0a3.226,3.226,0,0,1-.216-.946A3.426,3.426,0,0,1,75.321.166a3.17,3.17,0,0,1-2.179-.751,2.43,2.43,0,0,1-.851-1.905,2.539,2.539,0,0,1,1.067-2.179,5.029,5.029,0,0,1,3-.776h1.494v-.706a1.725,1.725,0,0,0-.481-1.282,1.935,1.935,0,0,0-1.419-.477,2.239,2.239,0,0,0-1.378.415,1.223,1.223,0,0,0-.556,1H72.474a2.119,2.119,0,0,1,.477-1.3,3.258,3.258,0,0,1,1.295-.992,4.356,4.356,0,0,1,1.8-.365,3.551,3.551,0,0,1,2.432.776,2.8,2.8,0,0,1,.913,2.137V-2.1A5.054,5.054,0,0,0,79.7-.133V0ZM75.545-1.17a2.7,2.7,0,0,0,1.37-.374,2.259,2.259,0,0,0,.938-.971V-4.358h-1.2q-2.822,0-2.822,1.652a1.4,1.4,0,0,0,.481,1.129A1.85,1.85,0,0,0,75.545-1.17Z" transform="translate(970 4794)" fill="#fff"/>
    <path id="Trazado_819285" data-name="Trazado 819285" d="M3.113,0H1.519V-12.086H3.113ZM9.388-1.087a2.212,2.212,0,0,0,1.436-.5A1.752,1.752,0,0,0,11.5-2.831h1.453a2.785,2.785,0,0,1-.531,1.469A3.5,3.5,0,0,1,11.119-.249,3.772,3.772,0,0,1,9.388.166,3.7,3.7,0,0,1,6.47-1.058,4.877,4.877,0,0,1,5.387-4.408v-.257A5.407,5.407,0,0,1,5.869-7,3.667,3.667,0,0,1,7.251-8.583,3.926,3.926,0,0,1,9.38-9.147a3.6,3.6,0,0,1,2.511.9,3.234,3.234,0,0,1,1.067,2.349H11.5a2.116,2.116,0,0,0-.66-1.432,2.053,2.053,0,0,0-1.465-.56,2.149,2.149,0,0,0-1.814.843,3.957,3.957,0,0,0-.643,2.436v.291a3.878,3.878,0,0,0,.639,2.391A2.16,2.16,0,0,0,9.388-1.087Zm4.889-3.486A5.3,5.3,0,0,1,14.8-6.948,3.87,3.87,0,0,1,16.24-8.575a3.932,3.932,0,0,1,2.113-.573,3.788,3.788,0,0,1,2.968,1.27A4.886,4.886,0,0,1,22.454-4.5v.108a5.351,5.351,0,0,1-.5,2.353A3.813,3.813,0,0,1,20.515-.415,3.977,3.977,0,0,1,18.37.166,3.778,3.778,0,0,1,15.41-1.1a4.861,4.861,0,0,1-1.133-3.362Zm1.544.183a3.842,3.842,0,0,0,.693,2.4,2.218,2.218,0,0,0,1.855.9A2.2,2.2,0,0,0,20.229-2a4.2,4.2,0,0,0,.689-2.569,3.836,3.836,0,0,0-.7-2.395,2.23,2.23,0,0,0-1.864-.917,2.205,2.205,0,0,0-1.834.9A4.17,4.17,0,0,0,15.821-4.391Zm10.011-4.59.05,1.129a3.273,3.273,0,0,1,2.689-1.295q2.847,0,2.872,3.212V0H29.908V-5.943a2.068,2.068,0,0,0-.444-1.436,1.78,1.78,0,0,0-1.357-.465,2.216,2.216,0,0,0-1.312.4,2.706,2.706,0,0,0-.88,1.046V0H24.379V-8.981Zm7.521,4.408a5.3,5.3,0,0,1,.519-2.374,3.87,3.87,0,0,1,1.444-1.627,3.932,3.932,0,0,1,2.113-.573A3.788,3.788,0,0,1,40.4-7.877,4.886,4.886,0,0,1,41.529-4.5v.108a5.351,5.351,0,0,1-.5,2.353A3.813,3.813,0,0,1,39.591-.415a3.977,3.977,0,0,1-2.146.581A3.778,3.778,0,0,1,34.486-1.1a4.861,4.861,0,0,1-1.133-3.362Zm1.544.183a3.842,3.842,0,0,0,.693,2.4,2.218,2.218,0,0,0,1.855.9A2.2,2.2,0,0,0,39.3-2a4.2,4.2,0,0,0,.689-2.569,3.836,3.836,0,0,0-.7-2.395,2.23,2.23,0,0,0-1.864-.917,2.205,2.205,0,0,0-1.834.9A4.17,4.17,0,0,0,34.9-4.391ZM45.123,0H43.587V-12.75h1.536Zm2.05-4.574a5.3,5.3,0,0,1,.519-2.374,3.87,3.87,0,0,1,1.444-1.627,3.932,3.932,0,0,1,2.113-.573,3.788,3.788,0,0,1,2.968,1.27A4.886,4.886,0,0,1,55.35-4.5v.108a5.351,5.351,0,0,1-.5,2.353A3.813,3.813,0,0,1,53.411-.415a3.977,3.977,0,0,1-2.146.581A3.778,3.778,0,0,1,48.306-1.1a4.861,4.861,0,0,1-1.133-3.362Zm1.544.183a3.842,3.842,0,0,0,.693,2.4,2.218,2.218,0,0,0,1.855.9A2.2,2.2,0,0,0,53.125-2a4.2,4.2,0,0,0,.689-2.569,3.836,3.836,0,0,0-.7-2.395,2.23,2.23,0,0,0-1.864-.917,2.205,2.205,0,0,0-1.834.9A4.17,4.17,0,0,0,48.717-4.391Zm3.229-8.359h1.859l-2.225,2.44-1.237,0ZM56.91-4.565a5.279,5.279,0,0,1,.971-3.341,3.106,3.106,0,0,1,2.573-1.241A3.09,3.09,0,0,1,63.02-7.985l.075-1h1.4V-.216a3.654,3.654,0,0,1-1.033,2.748,3.814,3.814,0,0,1-2.777,1,4.619,4.619,0,0,1-1.9-.415,3.272,3.272,0,0,1-1.419-1.137l.8-.921a3,3,0,0,0,2.416,1.22,2.353,2.353,0,0,0,1.747-.631,2.411,2.411,0,0,0,.627-1.776V-.9A3.156,3.156,0,0,1,60.438.166,3.068,3.068,0,0,1,57.885-1.1,5.55,5.55,0,0,1,56.91-4.565Zm1.544.174A4.027,4.027,0,0,0,59.077-2a2.023,2.023,0,0,0,1.743.867,2.249,2.249,0,0,0,2.133-1.32v-4.1a2.276,2.276,0,0,0-2.117-1.287,2.041,2.041,0,0,0-1.751.872A4.386,4.386,0,0,0,58.454-4.391ZM68.481,0H66.946V-8.981h1.536Zm-1.66-11.364a.917.917,0,0,1,.228-.631.857.857,0,0,1,.677-.257.87.87,0,0,1,.681.257.907.907,0,0,1,.232.631.877.877,0,0,1-.232.623.886.886,0,0,1-.681.249.872.872,0,0,1-.677-.249A.886.886,0,0,1,66.821-11.364Zm7.72,10.276a2.212,2.212,0,0,0,1.436-.5,1.752,1.752,0,0,0,.681-1.245H78.11a2.785,2.785,0,0,1-.531,1.469A3.5,3.5,0,0,1,76.272-.249a3.772,3.772,0,0,1-1.731.415,3.7,3.7,0,0,1-2.918-1.224A4.877,4.877,0,0,1,70.54-4.408v-.257A5.407,5.407,0,0,1,71.021-7,3.667,3.667,0,0,1,72.4-8.583a3.926,3.926,0,0,1,2.129-.564,3.6,3.6,0,0,1,2.511.9A3.234,3.234,0,0,1,78.11-5.894H76.658A2.116,2.116,0,0,0,76-7.325a2.053,2.053,0,0,0-1.465-.56,2.149,2.149,0,0,0-1.814.843,3.957,3.957,0,0,0-.643,2.436v.291a3.878,3.878,0,0,0,.639,2.391A2.16,2.16,0,0,0,74.541-1.087ZM85.382,0a3.226,3.226,0,0,1-.216-.946A3.426,3.426,0,0,1,82.609.166,3.17,3.17,0,0,1,80.43-.585,2.43,2.43,0,0,1,79.58-2.49a2.539,2.539,0,0,1,1.067-2.179,5.029,5.029,0,0,1,3-.776h1.494v-.706a1.725,1.725,0,0,0-.481-1.282,1.935,1.935,0,0,0-1.419-.477,2.239,2.239,0,0,0-1.378.415,1.223,1.223,0,0,0-.556,1H79.762a2.119,2.119,0,0,1,.477-1.3,3.258,3.258,0,0,1,1.295-.992,4.356,4.356,0,0,1,1.8-.365,3.551,3.551,0,0,1,2.432.776,2.8,2.8,0,0,1,.913,2.137V-2.1a5.054,5.054,0,0,0,.315,1.967V0ZM82.833-1.17a2.7,2.7,0,0,0,1.37-.374,2.259,2.259,0,0,0,.938-.971V-4.358h-1.2q-2.822,0-2.822,1.652A1.4,1.4,0,0,0,81.6-1.577,1.85,1.85,0,0,0,82.833-1.17Z" transform="translate(966 4962)" fill="#fff"/>
    <path id="Trazado_819286" data-name="Trazado 819286" d="M4.964-5.387A7.494,7.494,0,0,1,1.98-6.836a2.768,2.768,0,0,1-.934-2.121,2.923,2.923,0,0,1,1.141-2.362,4.536,4.536,0,0,1,2.968-.934,4.951,4.951,0,0,1,2.22.481,3.651,3.651,0,0,1,1.511,1.328,3.4,3.4,0,0,1,.535,1.851h-1.6a2.21,2.21,0,0,0-.7-1.729,2.835,2.835,0,0,0-1.967-.629,2.9,2.9,0,0,0-1.839.52,1.734,1.734,0,0,0-.66,1.443,1.56,1.56,0,0,0,.627,1.252A6.147,6.147,0,0,0,5.416-6.8a9.9,9.9,0,0,1,2.357.935A3.577,3.577,0,0,1,9.035-4.673a3.04,3.04,0,0,1,.411,1.6A2.824,2.824,0,0,1,8.3-.718,4.884,4.884,0,0,1,5.238.166,5.681,5.681,0,0,1,2.914-.311,3.911,3.911,0,0,1,1.249-1.619,3.191,3.191,0,0,1,.664-3.5h1.6a2.082,2.082,0,0,0,.809,1.731,3.408,3.408,0,0,0,2.162.635,3.133,3.133,0,0,0,1.934-.515,1.672,1.672,0,0,0,.672-1.4,1.641,1.641,0,0,0-.623-1.374A7.178,7.178,0,0,0,4.964-5.387Zm5.877.813a5.3,5.3,0,0,1,.519-2.374A3.87,3.87,0,0,1,12.8-8.575a3.932,3.932,0,0,1,2.113-.573,3.788,3.788,0,0,1,2.968,1.27A4.886,4.886,0,0,1,19.017-4.5v.108a5.351,5.351,0,0,1-.5,2.353A3.813,3.813,0,0,1,17.079-.415a3.977,3.977,0,0,1-2.146.581A3.778,3.778,0,0,1,11.974-1.1a4.861,4.861,0,0,1-1.133-3.362Zm1.544.183a3.842,3.842,0,0,0,.693,2.4,2.218,2.218,0,0,0,1.855.9A2.2,2.2,0,0,0,16.792-2a4.2,4.2,0,0,0,.689-2.569,3.836,3.836,0,0,0-.7-2.395,2.23,2.23,0,0,0-1.864-.917,2.205,2.205,0,0,0-1.834.9A4.17,4.17,0,0,0,12.385-4.391Zm12.161,3.3a2.212,2.212,0,0,0,1.436-.5,1.752,1.752,0,0,0,.681-1.245h1.453a2.785,2.785,0,0,1-.531,1.469A3.5,3.5,0,0,1,26.276-.249a3.772,3.772,0,0,1-1.731.415,3.7,3.7,0,0,1-2.918-1.224,4.877,4.877,0,0,1-1.083-3.349v-.257A5.407,5.407,0,0,1,21.026-7a3.667,3.667,0,0,1,1.382-1.585,3.926,3.926,0,0,1,2.129-.564,3.6,3.6,0,0,1,2.511.9,3.234,3.234,0,0,1,1.067,2.349H26.662A2.116,2.116,0,0,0,26-7.325a2.053,2.053,0,0,0-1.465-.56,2.149,2.149,0,0,0-1.814.843,3.957,3.957,0,0,0-.643,2.436v.291a3.878,3.878,0,0,0,.639,2.391A2.16,2.16,0,0,0,24.545-1.087ZM31.51,0H29.974V-8.981H31.51ZM29.85-11.364a.917.917,0,0,1,.228-.631.857.857,0,0,1,.677-.257.87.87,0,0,1,.681.257.907.907,0,0,1,.232.631.877.877,0,0,1-.232.623.886.886,0,0,1-.681.249.872.872,0,0,1-.677-.249A.886.886,0,0,1,29.85-11.364Zm3.71,6.79a5.3,5.3,0,0,1,.519-2.374,3.87,3.87,0,0,1,1.444-1.627,3.932,3.932,0,0,1,2.113-.573A3.788,3.788,0,0,1,40.6-7.877,4.886,4.886,0,0,1,41.736-4.5v.108a5.351,5.351,0,0,1-.5,2.353A3.813,3.813,0,0,1,39.8-.415a3.977,3.977,0,0,1-2.146.581A3.778,3.778,0,0,1,34.693-1.1,4.861,4.861,0,0,1,33.56-4.466Zm1.544.183a3.842,3.842,0,0,0,.693,2.4,2.218,2.218,0,0,0,1.855.9A2.2,2.2,0,0,0,39.512-2,4.2,4.2,0,0,0,40.2-4.574a3.836,3.836,0,0,0-.7-2.395,2.23,2.23,0,0,0-1.864-.917,2.205,2.205,0,0,0-1.834.9A4.17,4.17,0,0,0,35.1-4.391ZM45.331,0H43.795V-12.75h1.536Zm2.05-4.574A5.3,5.3,0,0,1,47.9-6.948a3.87,3.87,0,0,1,1.444-1.627,3.932,3.932,0,0,1,2.113-.573,3.788,3.788,0,0,1,2.968,1.27A4.886,4.886,0,0,1,55.557-4.5v.108a5.351,5.351,0,0,1-.5,2.353A3.813,3.813,0,0,1,53.619-.415a3.977,3.977,0,0,1-2.146.581A3.778,3.778,0,0,1,48.514-1.1a4.861,4.861,0,0,1-1.133-3.362Zm1.544.183a3.842,3.842,0,0,0,.693,2.4,2.218,2.218,0,0,0,1.855.9A2.2,2.2,0,0,0,53.333-2a4.2,4.2,0,0,0,.689-2.569,3.836,3.836,0,0,0-.7-2.395,2.23,2.23,0,0,0-1.864-.917,2.205,2.205,0,0,0-1.834.9A4.17,4.17,0,0,0,48.925-4.391Zm3.229-8.359h1.859l-2.225,2.44-1.237,0Zm4.964,8.185a5.279,5.279,0,0,1,.971-3.341,3.106,3.106,0,0,1,2.573-1.241,3.09,3.09,0,0,1,2.565,1.162l.075-1h1.4V-.216a3.654,3.654,0,0,1-1.033,2.748,3.814,3.814,0,0,1-2.777,1,4.619,4.619,0,0,1-1.9-.415,3.272,3.272,0,0,1-1.419-1.137l.8-.921a3,3,0,0,0,2.416,1.22,2.353,2.353,0,0,0,1.747-.631,2.411,2.411,0,0,0,.627-1.776V-.9A3.156,3.156,0,0,1,60.646.166,3.068,3.068,0,0,1,58.093-1.1,5.55,5.55,0,0,1,57.118-4.565Zm1.544.174A4.027,4.027,0,0,0,59.284-2a2.023,2.023,0,0,0,1.743.867,2.249,2.249,0,0,0,2.133-1.32v-4.1a2.276,2.276,0,0,0-2.117-1.287,2.041,2.041,0,0,0-1.751.872A4.386,4.386,0,0,0,58.662-4.391ZM68.689,0H67.153V-8.981h1.536Zm-1.66-11.364a.917.917,0,0,1,.228-.631.857.857,0,0,1,.677-.257.87.87,0,0,1,.681.257.907.907,0,0,1,.232.631.877.877,0,0,1-.232.623.886.886,0,0,1-.681.249.872.872,0,0,1-.677-.249A.886.886,0,0,1,67.029-11.364Zm7.72,10.276a2.212,2.212,0,0,0,1.436-.5,1.752,1.752,0,0,0,.681-1.245h1.453a2.785,2.785,0,0,1-.531,1.469A3.5,3.5,0,0,1,76.479-.249a3.772,3.772,0,0,1-1.731.415,3.7,3.7,0,0,1-2.918-1.224,4.877,4.877,0,0,1-1.083-3.349v-.257A5.407,5.407,0,0,1,71.229-7a3.667,3.667,0,0,1,1.382-1.585,3.926,3.926,0,0,1,2.129-.564,3.6,3.6,0,0,1,2.511.9,3.234,3.234,0,0,1,1.067,2.349H76.865a2.116,2.116,0,0,0-.66-1.432,2.053,2.053,0,0,0-1.465-.56,2.149,2.149,0,0,0-1.814.843,3.957,3.957,0,0,0-.643,2.436v.291a3.878,3.878,0,0,0,.639,2.391A2.16,2.16,0,0,0,74.749-1.087ZM85.589,0a3.226,3.226,0,0,1-.216-.946A3.426,3.426,0,0,1,82.817.166a3.17,3.17,0,0,1-2.179-.751,2.43,2.43,0,0,1-.851-1.905,2.539,2.539,0,0,1,1.067-2.179,5.029,5.029,0,0,1,3-.776h1.494v-.706a1.725,1.725,0,0,0-.481-1.282,1.935,1.935,0,0,0-1.419-.477A2.239,2.239,0,0,0,82.07-7.5a1.223,1.223,0,0,0-.556,1H79.97a2.119,2.119,0,0,1,.477-1.3,3.258,3.258,0,0,1,1.295-.992,4.356,4.356,0,0,1,1.8-.365,3.551,3.551,0,0,1,2.432.776,2.8,2.8,0,0,1,.913,2.137V-2.1A5.054,5.054,0,0,0,87.2-.133V0ZM83.041-1.17a2.7,2.7,0,0,0,1.37-.374,2.259,2.259,0,0,0,.938-.971V-4.358h-1.2q-2.822,0-2.822,1.652A1.4,1.4,0,0,0,81.8-1.577,1.85,1.85,0,0,0,83.041-1.17Z" transform="translate(758 5066)" fill="#fff"/>
    <path id="Trazado_819287" data-name="Trazado 819287" d="M3-4.731V0H1.4V-12.086H5.86a4.478,4.478,0,0,1,3.109,1.013,3.433,3.433,0,0,1,1.125,2.681,3.388,3.388,0,0,1-1.1,2.71,4.678,4.678,0,0,1-3.15.95Zm0-1.3H5.86a2.863,2.863,0,0,0,1.959-.6A2.2,2.2,0,0,0,8.5-8.38a2.277,2.277,0,0,0-.681-1.73,2.682,2.682,0,0,0-1.868-.674H3Zm14.12,3.652a1.131,1.131,0,0,0-.469-.967,4.514,4.514,0,0,0-1.635-.594,7.731,7.731,0,0,1-1.851-.6,2.633,2.633,0,0,1-1.013-.83,1.986,1.986,0,0,1-.328-1.146,2.33,2.33,0,0,1,.934-1.868,3.647,3.647,0,0,1,2.386-.764,3.753,3.753,0,0,1,2.478.789,2.5,2.5,0,0,1,.95,2.017H17.025a1.386,1.386,0,0,0-.535-1.087,2.006,2.006,0,0,0-1.349-.457,2.1,2.1,0,0,0-1.312.365,1.15,1.15,0,0,0-.473.955.932.932,0,0,0,.44.838,5.413,5.413,0,0,0,1.59.54,8.283,8.283,0,0,1,1.864.614,2.718,2.718,0,0,1,1.058.859,2.112,2.112,0,0,1,.344,1.224,2.3,2.3,0,0,1-.963,1.93,4.039,4.039,0,0,1-2.5.726,4.523,4.523,0,0,1-1.909-.382,3.105,3.105,0,0,1-1.3-1.067,2.571,2.571,0,0,1-.469-1.482h1.536a1.59,1.59,0,0,0,.618,1.224,2.4,2.4,0,0,0,1.523.452,2.476,2.476,0,0,0,1.4-.353A1.084,1.084,0,0,0,17.116-2.382ZM22.321,0H20.785V-8.981h1.536Zm-1.66-11.364a.917.917,0,0,1,.228-.631.857.857,0,0,1,.677-.257.87.87,0,0,1,.681.257.907.907,0,0,1,.232.631.877.877,0,0,1-.232.623.886.886,0,0,1-.681.249.872.872,0,0,1-.677-.249A.886.886,0,0,1,20.661-11.364ZM28.38-1.087a2.212,2.212,0,0,0,1.436-.5A1.752,1.752,0,0,0,30.5-2.831H31.95a2.785,2.785,0,0,1-.531,1.469A3.5,3.5,0,0,1,30.111-.249,3.772,3.772,0,0,1,28.38.166a3.7,3.7,0,0,1-2.918-1.224,4.877,4.877,0,0,1-1.083-3.349v-.257A5.407,5.407,0,0,1,24.861-7a3.667,3.667,0,0,1,1.382-1.585,3.926,3.926,0,0,1,2.129-.564,3.6,3.6,0,0,1,2.511.9A3.234,3.234,0,0,1,31.95-5.894H30.5a2.116,2.116,0,0,0-.66-1.432,2.053,2.053,0,0,0-1.465-.56,2.149,2.149,0,0,0-1.814.843,3.957,3.957,0,0,0-.643,2.436v.291a3.878,3.878,0,0,0,.639,2.391A2.16,2.16,0,0,0,28.38-1.087ZM33.27-4.574a5.3,5.3,0,0,1,.519-2.374,3.87,3.87,0,0,1,1.444-1.627,3.932,3.932,0,0,1,2.113-.573,3.788,3.788,0,0,1,2.968,1.27A4.886,4.886,0,0,1,41.446-4.5v.108a5.351,5.351,0,0,1-.5,2.353A3.813,3.813,0,0,1,39.508-.415a3.977,3.977,0,0,1-2.146.581A3.778,3.778,0,0,1,34.4-1.1,4.861,4.861,0,0,1,33.27-4.466Zm1.544.183a3.842,3.842,0,0,0,.693,2.4,2.218,2.218,0,0,0,1.855.9A2.2,2.2,0,0,0,39.221-2a4.2,4.2,0,0,0,.689-2.569,3.836,3.836,0,0,0-.7-2.395,2.23,2.23,0,0,0-1.864-.917,2.205,2.205,0,0,0-1.834.9A4.17,4.17,0,0,0,34.813-4.391ZM45.04,0H43.5V-12.75H45.04Zm2.05-4.574a5.3,5.3,0,0,1,.519-2.374,3.87,3.87,0,0,1,1.444-1.627,3.932,3.932,0,0,1,2.113-.573,3.788,3.788,0,0,1,2.968,1.27A4.886,4.886,0,0,1,55.267-4.5v.108a5.351,5.351,0,0,1-.5,2.353A3.813,3.813,0,0,1,53.328-.415a3.977,3.977,0,0,1-2.146.581A3.778,3.778,0,0,1,48.223-1.1,4.861,4.861,0,0,1,47.09-4.466Zm1.544.183a3.842,3.842,0,0,0,.693,2.4,2.218,2.218,0,0,0,1.855.9A2.2,2.2,0,0,0,53.042-2a4.2,4.2,0,0,0,.689-2.569,3.836,3.836,0,0,0-.7-2.395,2.23,2.23,0,0,0-1.864-.917,2.205,2.205,0,0,0-1.834.9A4.17,4.17,0,0,0,48.634-4.391Zm3.229-8.359h1.859L51.5-10.31l-1.237,0Zm4.964,8.185A5.279,5.279,0,0,1,57.8-7.906a3.106,3.106,0,0,1,2.573-1.241,3.09,3.09,0,0,1,2.565,1.162l.075-1h1.4V-.216a3.654,3.654,0,0,1-1.033,2.748,3.814,3.814,0,0,1-2.777,1,4.619,4.619,0,0,1-1.9-.415,3.272,3.272,0,0,1-1.419-1.137l.8-.921A3,3,0,0,0,60.5,2.283a2.353,2.353,0,0,0,1.747-.631A2.411,2.411,0,0,0,62.87-.125V-.9A3.156,3.156,0,0,1,60.355.166,3.068,3.068,0,0,1,57.8-1.1,5.55,5.55,0,0,1,56.827-4.565Zm1.544.174A4.027,4.027,0,0,0,58.994-2a2.023,2.023,0,0,0,1.743.867,2.249,2.249,0,0,0,2.133-1.32v-4.1a2.276,2.276,0,0,0-2.117-1.287A2.041,2.041,0,0,0,59-6.973,4.386,4.386,0,0,0,58.371-4.391ZM68.4,0H66.863V-8.981H68.4Zm-1.66-11.364a.917.917,0,0,1,.228-.631.857.857,0,0,1,.677-.257.87.87,0,0,1,.681.257.907.907,0,0,1,.232.631.877.877,0,0,1-.232.623.886.886,0,0,1-.681.249.872.872,0,0,1-.677-.249A.886.886,0,0,1,66.738-11.364Zm7.72,10.276a2.212,2.212,0,0,0,1.436-.5,1.752,1.752,0,0,0,.681-1.245h1.453A2.785,2.785,0,0,1,77.5-1.361,3.5,3.5,0,0,1,76.189-.249a3.772,3.772,0,0,1-1.731.415A3.7,3.7,0,0,1,71.54-1.058a4.877,4.877,0,0,1-1.083-3.349v-.257A5.407,5.407,0,0,1,70.938-7a3.667,3.667,0,0,1,1.382-1.585,3.926,3.926,0,0,1,2.129-.564,3.6,3.6,0,0,1,2.511.9,3.234,3.234,0,0,1,1.067,2.349H76.575a2.116,2.116,0,0,0-.66-1.432,2.053,2.053,0,0,0-1.465-.56,2.149,2.149,0,0,0-1.814.843,3.957,3.957,0,0,0-.643,2.436v.291a3.878,3.878,0,0,0,.639,2.391A2.16,2.16,0,0,0,74.458-1.087ZM85.3,0a3.226,3.226,0,0,1-.216-.946A3.426,3.426,0,0,1,82.526.166a3.17,3.17,0,0,1-2.179-.751A2.43,2.43,0,0,1,79.5-2.49a2.539,2.539,0,0,1,1.067-2.179,5.029,5.029,0,0,1,3-.776h1.494v-.706a1.725,1.725,0,0,0-.481-1.282,1.935,1.935,0,0,0-1.419-.477,2.239,2.239,0,0,0-1.378.415,1.223,1.223,0,0,0-.556,1H79.679a2.119,2.119,0,0,1,.477-1.3,3.258,3.258,0,0,1,1.295-.992,4.356,4.356,0,0,1,1.8-.365,3.551,3.551,0,0,1,2.432.776,2.8,2.8,0,0,1,.913,2.137V-2.1a5.054,5.054,0,0,0,.315,1.967V0ZM82.75-1.17a2.7,2.7,0,0,0,1.37-.374,2.259,2.259,0,0,0,.938-.971V-4.358h-1.2q-2.822,0-2.822,1.652a1.4,1.4,0,0,0,.481,1.129A1.85,1.85,0,0,0,82.75-1.17Z" transform="translate(546 4962)" fill="#fff"/>
    <path id="Trazado_819288" data-name="Trazado 819288" d="M8.234-5.586H3V-1.3H9.081V0H1.4V-12.086H9v1.3H3V-6.89H8.234Zm7.819,3.2a1.131,1.131,0,0,0-.469-.967,4.514,4.514,0,0,0-1.635-.594,7.731,7.731,0,0,1-1.851-.6,2.633,2.633,0,0,1-1.013-.83,1.986,1.986,0,0,1-.328-1.146,2.33,2.33,0,0,1,.934-1.868,3.647,3.647,0,0,1,2.386-.764,3.753,3.753,0,0,1,2.478.789,2.5,2.5,0,0,1,.95,2.017H15.962a1.386,1.386,0,0,0-.535-1.087,2.006,2.006,0,0,0-1.349-.457,2.1,2.1,0,0,0-1.312.365,1.15,1.15,0,0,0-.473.955.932.932,0,0,0,.44.838,5.413,5.413,0,0,0,1.59.54,8.283,8.283,0,0,1,1.864.614,2.718,2.718,0,0,1,1.058.859,2.112,2.112,0,0,1,.344,1.224,2.3,2.3,0,0,1-.963,1.93,4.039,4.039,0,0,1-2.5.726,4.523,4.523,0,0,1-1.909-.382,3.105,3.105,0,0,1-1.3-1.067,2.571,2.571,0,0,1-.469-1.482h1.536A1.59,1.59,0,0,0,12.6-1.54a2.4,2.4,0,0,0,1.523.452,2.476,2.476,0,0,0,1.4-.353A1.084,1.084,0,0,0,16.054-2.382Zm5.62-8.774v2.175H23.35v1.187H21.673v5.577a1.247,1.247,0,0,0,.224.81.943.943,0,0,0,.764.27,3.718,3.718,0,0,0,.73-.1V0a4.478,4.478,0,0,1-1.179.165,1.912,1.912,0,0,1-1.552-.623,2.675,2.675,0,0,1-.523-1.768v-5.57H18.5V-8.981h1.635v-2.175ZM29.484-7.6a4.6,4.6,0,0,0-.755-.058,2.024,2.024,0,0,0-2.05,1.287V0H25.143V-8.981h1.494l.025,1.038a2.391,2.391,0,0,1,2.142-1.2,1.569,1.569,0,0,1,.681.116ZM36.44-.888A3.262,3.262,0,0,1,33.809.166a2.792,2.792,0,0,1-2.187-.834,3.611,3.611,0,0,1-.76-2.469V-8.981H32.4v5.8q0,2.042,1.66,2.042A2.3,2.3,0,0,0,36.4-2.449V-8.981h1.536V0H36.474Zm7.429-.2a2.212,2.212,0,0,0,1.436-.5,1.752,1.752,0,0,0,.681-1.245h1.453a2.785,2.785,0,0,1-.531,1.469A3.5,3.5,0,0,1,45.6-.249,3.772,3.772,0,0,1,43.87.166a3.7,3.7,0,0,1-2.918-1.224,4.877,4.877,0,0,1-1.083-3.349v-.257A5.407,5.407,0,0,1,40.35-7a3.667,3.667,0,0,1,1.382-1.585,3.926,3.926,0,0,1,2.129-.564,3.6,3.6,0,0,1,2.511.9,3.234,3.234,0,0,1,1.067,2.349H45.986a2.116,2.116,0,0,0-.66-1.432,2.053,2.053,0,0,0-1.465-.56,2.149,2.149,0,0,0-1.814.843A3.957,3.957,0,0,0,41.4-4.607v.291a3.878,3.878,0,0,0,.639,2.391A2.16,2.16,0,0,0,43.87-1.087Zm7.379-10.069v2.175h1.677v1.187H51.249v5.577a1.247,1.247,0,0,0,.224.81.943.943,0,0,0,.764.27,3.718,3.718,0,0,0,.73-.1V0a4.478,4.478,0,0,1-1.179.165,1.912,1.912,0,0,1-1.552-.623,2.675,2.675,0,0,1-.523-1.768v-5.57H48.078V-8.981h1.635v-2.175ZM60.264-.888A3.262,3.262,0,0,1,57.632.166a2.792,2.792,0,0,1-2.187-.834,3.611,3.611,0,0,1-.76-2.469V-8.981h1.536v5.8q0,2.042,1.66,2.042a2.3,2.3,0,0,0,2.341-1.312V-8.981h1.536V0H60.3ZM68.432-7.6a4.6,4.6,0,0,0-.755-.058,2.024,2.024,0,0,0-2.05,1.287V0H64.09V-8.981h1.494l.025,1.038a2.391,2.391,0,0,1,2.142-1.2,1.569,1.569,0,0,1,.681.116ZM75.056,0a3.226,3.226,0,0,1-.216-.946A3.426,3.426,0,0,1,72.283.166,3.17,3.17,0,0,1,70.1-.585a2.43,2.43,0,0,1-.851-1.905A2.539,2.539,0,0,1,70.32-4.669a5.029,5.029,0,0,1,3-.776h1.494v-.706a1.725,1.725,0,0,0-.481-1.282,1.935,1.935,0,0,0-1.419-.477,2.239,2.239,0,0,0-1.378.415,1.223,1.223,0,0,0-.556,1H69.436a2.119,2.119,0,0,1,.477-1.3,3.258,3.258,0,0,1,1.295-.992,4.356,4.356,0,0,1,1.8-.365,3.551,3.551,0,0,1,2.432.776,2.8,2.8,0,0,1,.913,2.137V-2.1a5.054,5.054,0,0,0,.315,1.967V0ZM72.507-1.17a2.7,2.7,0,0,0,1.37-.374,2.259,2.259,0,0,0,.938-.971V-4.358h-1.2q-2.822,0-2.822,1.652a1.4,1.4,0,0,0,.481,1.129A1.85,1.85,0,0,0,72.507-1.17ZM80.426,0H78.891V-12.75h1.536Zm4.125,0H83.016V-8.981h1.536Zm-1.66-11.364a.917.917,0,0,1,.228-.631.857.857,0,0,1,.677-.257.87.87,0,0,1,.681.257.907.907,0,0,1,.232.631.877.877,0,0,1-.232.623.886.886,0,0,1-.681.249.872.872,0,0,1-.677-.249A.886.886,0,0,1,82.892-11.364Zm9.347,8.981a1.131,1.131,0,0,0-.469-.967,4.514,4.514,0,0,0-1.635-.594,7.731,7.731,0,0,1-1.851-.6,2.633,2.633,0,0,1-1.013-.83,1.986,1.986,0,0,1-.328-1.146,2.33,2.33,0,0,1,.934-1.868,3.647,3.647,0,0,1,2.386-.764,3.753,3.753,0,0,1,2.478.789,2.5,2.5,0,0,1,.95,2.017H92.147a1.386,1.386,0,0,0-.535-1.087,2.006,2.006,0,0,0-1.349-.457,2.1,2.1,0,0,0-1.312.365,1.15,1.15,0,0,0-.473.955.932.932,0,0,0,.44.838,5.413,5.413,0,0,0,1.59.54,8.283,8.283,0,0,1,1.864.614,2.718,2.718,0,0,1,1.058.859,2.112,2.112,0,0,1,.344,1.224,2.3,2.3,0,0,1-.963,1.93,4.039,4.039,0,0,1-2.5.726A4.523,4.523,0,0,1,88.4-.216a3.105,3.105,0,0,1-1.3-1.067,2.571,2.571,0,0,1-.469-1.482h1.536a1.59,1.59,0,0,0,.618,1.224,2.4,2.4,0,0,0,1.523.452,2.476,2.476,0,0,0,1.4-.353A1.084,1.084,0,0,0,92.238-2.382Zm5.62-8.774v2.175h1.677v1.187H97.858v5.577a1.247,1.247,0,0,0,.224.81.943.943,0,0,0,.764.27,3.718,3.718,0,0,0,.73-.1V0A4.478,4.478,0,0,1,98.4.166a1.912,1.912,0,0,1-1.552-.623,2.675,2.675,0,0,1-.523-1.768v-5.57H94.687V-8.981h1.635v-2.175ZM106.873,0a3.226,3.226,0,0,1-.216-.946A3.426,3.426,0,0,1,104.1.166a3.17,3.17,0,0,1-2.179-.751,2.43,2.43,0,0,1-.851-1.905,2.539,2.539,0,0,1,1.067-2.179,5.029,5.029,0,0,1,3-.776h1.494v-.706a1.725,1.725,0,0,0-.481-1.282,1.935,1.935,0,0,0-1.419-.477,2.239,2.239,0,0,0-1.378.415,1.223,1.223,0,0,0-.556,1h-1.544a2.119,2.119,0,0,1,.477-1.3,3.258,3.258,0,0,1,1.295-.992,4.356,4.356,0,0,1,1.8-.365,3.551,3.551,0,0,1,2.432.776,2.8,2.8,0,0,1,.913,2.137V-2.1a5.054,5.054,0,0,0,.315,1.967V0Zm-2.548-1.17a2.7,2.7,0,0,0,1.37-.374,2.259,2.259,0,0,0,.938-.971V-4.358h-1.2q-2.822,0-2.822,1.652a1.4,1.4,0,0,0,.481,1.129A1.85,1.85,0,0,0,104.324-1.17Z" transform="translate(536 4794)" fill="#fff"/>
    <circle id="Elipse_5615" data-name="Elipse 5615" cx="7" cy="7" r="7" transform="translate(923 4950)" fill="#fff198"/>
    <circle id="Elipse_5852" data-name="Elipse 5852" cx="7" cy="7" r="7" transform="translate(923 4782)" fill="#fff198"/>
    <circle id="Elipse_5862" data-name="Elipse 5862" cx="71" cy="71" r="71" transform="translate(729 4795)" fill="#fff198"/>
    <circle id="Elipse_5853" data-name="Elipse 5853" cx="7" cy="7" r="7" transform="translate(660 4782)" fill="#fff198"/>
    <circle id="Elipse_5855" data-name="Elipse 5855" cx="7" cy="7" r="7" transform="translate(715 4664)" fill="#fff198"/>
    <circle id="Elipse_5856" data-name="Elipse 5856" cx="7" cy="7" r="7" transform="translate(715 5053)" fill="#fff198"/>
    <circle id="Elipse_5854" data-name="Elipse 5854" cx="7" cy="7" r="7" transform="translate(660 4946)" fill="#fff198"/>
    <path id="Trazado_819289" data-name="Trazado 819289" d="M-17.169-10.661h-3.92V0h-2.637V-10.661h-3.867V-12.8h10.424ZM-12.239.176a4.668,4.668,0,0,1-3.406-1.283,4.561,4.561,0,0,1-1.314-3.419v-.246A5.745,5.745,0,0,1-16.4-7.334a4.064,4.064,0,0,1,1.569-1.74,4.4,4.4,0,0,1,2.316-.611,3.947,3.947,0,0,1,3.072,1.23A5,5,0,0,1-8.328-4.966v1.037h-6.056a2.36,2.36,0,0,0,.743,1.494,2.245,2.245,0,0,0,1.569.563A2.742,2.742,0,0,0-9.778-2.936l1.248,1.4A3.813,3.813,0,0,1-10.077-.277,5.075,5.075,0,0,1-12.239.176Zm-.29-7.813a1.587,1.587,0,0,0-1.226.512,2.651,2.651,0,0,0-.6,1.466h3.533v-.2a1.891,1.891,0,0,0-.457-1.311A1.638,1.638,0,0,0-12.529-7.638Zm5.247,2.795a5.64,5.64,0,0,1,.545-2.522A3.989,3.989,0,0,1-5.168-9.079a4.577,4.577,0,0,1,2.377-.606A4.33,4.33,0,0,1,.352-8.508a4.727,4.727,0,0,1,1.358,3.2l.018.65A4.97,4.97,0,0,1,.505-1.147,4.247,4.247,0,0,1-2.773.176,4.268,4.268,0,0,1-6.056-1.143,5.058,5.058,0,0,1-7.282-4.729Zm2.54.18a3.555,3.555,0,0,0,.51,2.073,1.682,1.682,0,0,0,1.459.717,1.686,1.686,0,0,0,1.441-.709A3.89,3.89,0,0,0-.813-4.847a3.519,3.519,0,0,0-.519-2.06,1.686,1.686,0,0,0-1.459-.731,1.658,1.658,0,0,0-1.441.726A3.955,3.955,0,0,0-4.742-4.662ZM8.635-7.128a6.9,6.9,0,0,0-.914-.07,1.86,1.86,0,0,0-1.89.976V0H3.292V-9.51h2.4l.07,1.134a2.354,2.354,0,0,1,2.118-1.31,2.662,2.662,0,0,1,.791.114ZM12.6,0h-2.54V-9.51H12.6Zm-.747-13.368h2.769l-2.435,2.725H10.121ZM20.3,0a2.821,2.821,0,0,1-.255-.853,3.073,3.073,0,0,1-2.4,1.028,3.376,3.376,0,0,1-2.316-.809,2.6,2.6,0,0,1-.918-2.039,2.687,2.687,0,0,1,1.121-2.32,5.529,5.529,0,0,1,3.239-.817h1.169v-.545A1.567,1.567,0,0,0,19.6-7.409a1.331,1.331,0,0,0-1.068-.4,1.513,1.513,0,0,0-1.006.308,1.045,1.045,0,0,0-.365.844h-2.54a2.551,2.551,0,0,1,.51-1.529,3.37,3.37,0,0,1,1.441-1.1,5.253,5.253,0,0,1,2.092-.4,4.15,4.15,0,0,1,2.791.883,3.09,3.09,0,0,1,1.033,2.483V-2.2a4.546,4.546,0,0,0,.378,2.048V0ZM18.2-1.767a2.188,2.188,0,0,0,1.037-.25,1.645,1.645,0,0,0,.7-.672V-4.324h-.949q-1.907,0-2.03,1.318l-.009.149a1.017,1.017,0,0,0,.334.782A1.3,1.3,0,0,0,18.2-1.767ZM-30.217,15.175a5.731,5.731,0,0,1,1-3.542,3.237,3.237,0,0,1,2.729-1.318A2.913,2.913,0,0,1-24.2,11.352V6.5h2.549V20h-2.294l-.123-1.011a2.989,2.989,0,0,1-2.443,1.187A3.228,3.228,0,0,1-29.2,18.853,5.916,5.916,0,0,1-30.217,15.175Zm2.54.189a3.754,3.754,0,0,0,.466,2.051,1.517,1.517,0,0,0,1.354.713,1.7,1.7,0,0,0,1.661-.995V13.375a1.675,1.675,0,0,0-1.644-.995Q-27.677,12.38-27.677,15.364ZM-15.3,20.176a4.668,4.668,0,0,1-3.406-1.283,4.561,4.561,0,0,1-1.314-3.419v-.246a5.745,5.745,0,0,1,.554-2.562,4.064,4.064,0,0,1,1.569-1.74,4.4,4.4,0,0,1,2.316-.611,3.947,3.947,0,0,1,3.072,1.23,5,5,0,0,1,1.121,3.489v1.037h-6.056a2.36,2.36,0,0,0,.743,1.494,2.245,2.245,0,0,0,1.569.563,2.742,2.742,0,0,0,2.294-1.063l1.248,1.4a3.813,3.813,0,0,1-1.547,1.261A5.075,5.075,0,0,1-15.3,20.176Zm-.29-7.813a1.587,1.587,0,0,0-1.226.512,2.651,2.651,0,0,0-.6,1.466h3.533v-.2a1.891,1.891,0,0,0-.457-1.311A1.638,1.638,0,0,0-15.592,12.362ZM-7.269,20H-9.817V6.5h2.549ZM4.816,20a2.821,2.821,0,0,1-.255-.853,3.073,3.073,0,0,1-2.4,1.028,3.376,3.376,0,0,1-2.316-.809,2.6,2.6,0,0,1-.918-2.039,2.687,2.687,0,0,1,1.121-2.32,5.529,5.529,0,0,1,3.239-.817H4.456v-.545a1.567,1.567,0,0,0-.338-1.055,1.331,1.331,0,0,0-1.068-.4,1.513,1.513,0,0,0-1.006.308,1.045,1.045,0,0,0-.365.844H-.861a2.551,2.551,0,0,1,.51-1.529,3.37,3.37,0,0,1,1.441-1.1,5.253,5.253,0,0,1,2.092-.4,4.15,4.15,0,0,1,2.791.883A3.09,3.09,0,0,1,7,13.681V17.8a4.546,4.546,0,0,0,.378,2.048V20Zm-2.1-1.767a2.188,2.188,0,0,0,1.037-.25,1.645,1.645,0,0,0,.7-.672V15.676H3.507q-1.907,0-2.03,1.318l-.009.149a1.017,1.017,0,0,0,.334.782A1.3,1.3,0,0,0,2.716,18.233ZM14.3,12.872a6.9,6.9,0,0,0-.914-.07,1.86,1.86,0,0,0-1.89.976V20H8.956V10.49h2.4l.07,1.134a2.354,2.354,0,0,1,2.118-1.31,2.662,2.662,0,0,1,.791.114ZM19,8.152V10.49h1.626v1.863H19V17.1a1.133,1.133,0,0,0,.2.756,1.015,1.015,0,0,0,.773.229,4.051,4.051,0,0,0,.747-.062v1.925a5.229,5.229,0,0,1-1.538.229,2.425,2.425,0,0,1-2.725-2.7V12.354H15.073V10.49h1.389V8.152ZM26.42,20.176a4.668,4.668,0,0,1-3.406-1.283A4.561,4.561,0,0,1,21.7,15.474v-.246a5.745,5.745,0,0,1,.554-2.562,4.064,4.064,0,0,1,1.569-1.74,4.4,4.4,0,0,1,2.316-.611,3.947,3.947,0,0,1,3.072,1.23,5,5,0,0,1,1.121,3.489v1.037H24.275a2.36,2.36,0,0,0,.743,1.494,2.245,2.245,0,0,0,1.569.563,2.742,2.742,0,0,0,2.294-1.063l1.248,1.4a3.813,3.813,0,0,1-1.547,1.261A5.075,5.075,0,0,1,26.42,20.176Zm-.29-7.813a1.587,1.587,0,0,0-1.226.512,2.651,2.651,0,0,0-.6,1.466h3.533v-.2a1.891,1.891,0,0,0-.457-1.311A1.638,1.638,0,0,0,26.13,12.362Z" transform="translate(800 4904.854)" fill="#12263f"/>
    <g id="Grupo_1071547" data-name="Grupo 1071547" transform="translate(738.947 4763.333)">
      <g id="Grupo_1071546" data-name="Grupo 1071546" clip-path="url(#clip-path)">
        <path id="Trazado_609075" data-name="Trazado 609075" d="M113.2,49.221a1.185,1.185,0,0,1,1.628-.643,47.445,47.445,0,0,1,5.783,2.4,8.833,8.833,0,0,1,1.114.74c.388.261.364.668.365,1.059q.005,4.662,0,9.325,0,35.218.009,70.437a9.894,9.894,0,0,1-.152,1.406c-.056.4-.937.815-1.484.67-1.926-.511-3.852-1.016-5.81-1.4-1.877-.366-3.722-.887-5.633-1.093-.958-.1-1.892-.428-2.85-.538-1.435-.166-2.847-.472-4.293-.6-1.394-.123-2.8-.2-4.187-.449a1.521,1.521,0,0,0-.248-.014c-2.974-.039-5.942-.326-8.92-.209-1.833.072-3.672.08-5.5.247-1.723.156-3.449.328-5.168.528-2.156.25-4.3.549-6.434.929q-2.655.472-5.27,1.16-2.464.65-4.929,1.3a2.236,2.236,0,0,1-1.264-.148c-1.839-.588-3.722-1.013-5.594-1.461-1.74-.417-3.522-.658-5.285-.981-1.36-.249-2.713-.533-4.079-.744-1.215-.188-2.452-.231-3.667-.4-1.384-.192-2.774-.244-4.158-.315a68.125,68.125,0,0,0-7.7-.067c-.945.058-1.889.033-2.838.137-1.529.168-3.081.126-4.611.287-1.623.171-3.246.356-4.865.58-1.92.266-3.835.554-5.741.9-3.121.57-6.191,1.361-9.265,2.141a1.654,1.654,0,0,1-1.446,0,1.277,1.277,0,0,1-.594-.967,30.523,30.523,0,0,1-.09-3.477Q.023,92.886.028,55.8c0-1.015.063-2.036-.02-3.045-.095-1.155.737-1.478,1.506-1.841a52.721,52.721,0,0,1,5.6-2.313c1.422-.48,2.829-1.006,4.281-1.389.039-.01.081-.012.12-.024,1.261-.372,1.312-.442,1.312-1.764q0-9.419,0-18.837a3.65,3.65,0,0,1,.224-1.556.648.648,0,0,1,.647-.451,19.429,19.429,0,0,1,3.909.327c1.179.206,2.372.339,3.556.523a77.212,77.212,0,0,1,7.619,1.655c1.441.375,2.875.8,4.278,1.274a22.067,22.067,0,0,1,3.657,1.46,1.643,1.643,0,0,0,.8.251c.414,0,.67.354,1,.534a16.289,16.289,0,0,0,2.6,1.273,11.212,11.212,0,0,1,1.7.992c1.252.652,2.366,1.522,3.6,2.2.518.285.92.823,1.453,1.123a37.2,37.2,0,0,1,3.878,3.09c1.11.836,1.962,2.007,3,2.955a49.749,49.749,0,0,1,3.274,3.829c.526.59.917,1.347,1.454,1.935.7.763,1.059,1.721,1.7,2.5.142.174.243.382.543.207a20.7,20.7,0,0,1,3.619-1.5c2.234-.787,4.52-1.4,6.814-1.979,2.63-.667,5.288-1.193,7.963-1.654,2.381-.41,4.769-.685,7.176-.885,1.42-.118,2.837-.16,4.257-.213a1.5,1.5,0,0,1,1.592,1.237c-.247,1.192-.488,1.369-1.688,1.409-1.563.052-3.126.091-4.689.18-1.68.1-3.341.312-5,.55-2.392.345-4.766.808-7.117,1.375a75.344,75.344,0,0,0-7.505,2.087,1.7,1.7,0,0,0-.417.076c-1.1.41-2.166.9-3.237,1.372-1.584.7-1.291.347-1.292,1.889Q62.187,84.331,62.2,114q0,2.858-.019,5.716c0,.309-.03.545.42.381,1.474-.537,2.957-1.048,4.437-1.568l.366-.1a90.334,90.334,0,0,1,9.663-2.557c1.923-.379,3.862-.667,5.809-.929,2.279-.307,4.564-.426,6.85-.578a48.021,48.021,0,0,1,6.935.134c.625.049,1.255.131,1.878.185,1.079.092,2.131.358,3.21.424.834.051,1.639.288,2.485.335a10.016,10.016,0,0,1,1.555.4c1.624.4,3.263.732,4.884,1.139.788.2,1.534.549,2.3.812,1.172.4,2.348.8,3.508,1.235.843.317,1.688.629,2.523.965.412.165.488.024.484-.371-.015-1.657,0-3.315,0-4.972q0-30.422.008-60.844a.7.7,0,0,0-.408-.744,32.315,32.315,0,0,0-4.513-1.869,1.626,1.626,0,0,1-1.369-1.974M15.448,60.711h.026q0,1.056,0,2.113.012,15.384.008,30.768c0,.578.256.731.7.742a48.893,48.893,0,0,1,6.24.8,59.558,59.558,0,0,1,8.493,2.01,65.954,65.954,0,0,1,7.517,2.872c.529.238.959.74,1.478.849a11.528,11.528,0,0,1,3.1,1.647c1.041.569,2.04,1.251,3.045,1.9a46.609,46.609,0,0,1,6.587,5.194,54.331,54.331,0,0,1,6.025,6.8c.195.256.376.743.66.632.321-.124.241-.628.241-.988q0-8.485,0-16.969,0-22.843,0-45.686a1.6,1.6,0,0,0-.144-.965c-.655-.982-1.288-1.978-1.955-2.953a53.854,53.854,0,0,0-6.8-7.613,38.782,38.782,0,0,0-3.782-3.19,53.66,53.66,0,0,0-13.417-7.425c-1.744-.674-3.534-1.211-5.326-1.744a53.245,53.245,0,0,0-6.292-1.453c-1.941-.329-3.9-.571-5.846-.855-.4-.058-.575.022-.574.505q.023,16.5.012,33.006m42.03,58.772.082-.144c-.194-.261-.382-.527-.583-.783s-.425-.495-.625-.752a60.109,60.109,0,0,0-7.5-7.873,48.48,48.48,0,0,0-8.664-5.86c-.718-.407-1.462-.771-2.206-1.128A59.989,59.989,0,0,0,23.706,98.3a62.815,62.815,0,0,0-7.071-1.113c-.853-.072-1.692-.3-2.539-.457a1.406,1.406,0,0,1-1.168-1.052,4.16,4.16,0,0,1-.09-1.345q-.01-22.066-.006-44.131c0-.705-.012-.731-.664-.48-.943.363-1.91.659-2.86,1-.841.3-1.713.535-2.548.864-.888.35-1.766.729-2.645,1.1-1.466.621-1.465.623-1.476,2.221,0,.145,0,.29,0,.435q0,31.545,0,63.09c0,.31-.008.622,0,.932.024.605.141.695.7.483.838-.316,1.661-.671,2.5-.99a73.951,73.951,0,0,1,15.137-3.9,75.875,75.875,0,0,1,10.085-.679c1.423-.029,2.846.095,4.268.188a42.173,42.173,0,0,1,4.238.44c2.7.455,5.4.912,8.066,1.568.972.239,1.963.454,2.927.7a21.6,21.6,0,0,1,2.416.766c.948.366,1.948.607,2.9.993.524.213,1.069.374,1.6.559M62.2,130.089c0,.249.017.5,0,.746-.04.478.087.616.6.459a70.214,70.214,0,0,1,16.54-2.9,8.69,8.69,0,0,0,1.577-.069,12.922,12.922,0,0,1,3.294-.362,136.722,136.722,0,0,1,21.244.795,87.579,87.579,0,0,1,12.854,2.588c1.248.37,1.265.346,1.18-.949-.061-.932-.181-1.664-1.321-2.085a70.712,70.712,0,0,0-9.566-2.969,64.2,64.2,0,0,0-10.457-1.575c-1.013-.048-2.035.022-3.034-.105a54.352,54.352,0,0,0-6.1-.058c-1.312-.02-2.625.226-3.94.314a76.616,76.616,0,0,0-9.375,1.306A86.1,86.1,0,0,0,63.3,128.511c-1.282.451-1.075.111-1.1,1.577m-2.639.194c.011-.705.2-1.446-.8-1.728-1.491-.419-2.946-.961-4.435-1.387a109.492,109.492,0,0,0-13.256-2.805,73.152,73.152,0,0,0-7.629-.727,73.4,73.4,0,0,0-15.025.781,65.969,65.969,0,0,0-15.185,4.231.773.773,0,0,0-.572.838,10.336,10.336,0,0,1-.015,1.428c-.045.54.11.687.663.549,1.822-.455,3.646-.91,5.486-1.283,4.087-.826,8.2-1.461,12.349-1.941,3.063-.354,6.133-.368,9.2-.545a43.243,43.243,0,0,1,5.265.064c1.73.111,3.468.133,5.2.265a89.021,89.021,0,0,1,9.436,1.339c2.719.5,5.419,1.116,8.082,1.881,1.243.357,1.247.343,1.241-.96m.005-5.666a3.726,3.726,0,0,1,.005-.62.883.883,0,0,0-.709-1.095c-.7-.242-1.376-.56-2.07-.825a76.648,76.648,0,0,0-14.73-4.022A69.642,69.642,0,0,0,32.35,117a68.606,68.606,0,0,0-14.064,1.1,68.551,68.551,0,0,0-13.962,4.261,2.3,2.3,0,0,0-1.688,2.775c.092.727.031.742.745.519.059-.018.114-.049.171-.072a66.447,66.447,0,0,1,10.8-3.21,61.7,61.7,0,0,1,10.114-1.364,95.283,95.283,0,0,1,12.018.168c2.039.167,4.072.378,6.088.688a94.482,94.482,0,0,1,15.644,3.745c1.357.454,1.357.456,1.357-.991m32.271-3.688a71.217,71.217,0,0,1,8.611.374c2.542.317,5.074.68,7.579,1.211a64.549,64.549,0,0,1,10.9,3.313c.408.166.574.121.56-.349-.019-.621-.013-1.243-.006-1.865a.624.624,0,0,0-.418-.675c-2.085-.856-4.146-1.769-6.28-2.5a65.751,65.751,0,0,0-10.389-2.583,48,48,0,0,0-6.085-.709,75.025,75.025,0,0,0-10.483.185c-2.487.246-4.964.553-7.42,1.014a76.043,76.043,0,0,0-14.167,4.026c-2.428.968-2.015.344-2.046,2.956-.006.53.115.639.629.464A95.678,95.678,0,0,1,76,122.357c3.129-.591,6.291-.9,9.447-1.263,2.121-.243,4.26-.132,6.391-.165" transform="translate(0 -12.311)" fill="#1d1d1b"/>
        <path id="Trazado_609076" data-name="Trazado 609076" d="M134.548,72.548a75.342,75.342,0,0,1,7.505-2.087c2.351-.567,4.725-1.031,7.117-1.375,1.657-.239,3.318-.455,5-.55,1.563-.088,3.126-.128,4.689-.18,1.2-.04,1.441-.217,1.688-1.409a19.53,19.53,0,0,0,3.41.257,4.139,4.139,0,0,0,.9-.132,43.261,43.261,0,0,0,.883,5.6.882.882,0,0,1-.245.939,5.508,5.508,0,0,0-1.583,4.7c.183,1.641.44,3.245-.308,4.835a3.423,3.423,0,0,0,1.87,4.253,5.593,5.593,0,0,0,2.728.077,10.053,10.053,0,0,0,4.492-1.68,7.114,7.114,0,0,0,2.729-3.672,14.9,14.9,0,0,0,.68-3.676,9.087,9.087,0,0,0-.615-4.092,2.305,2.305,0,0,1-.23-1.522,18.948,18.948,0,0,0,.7-3.639,8.893,8.893,0,0,1,2.226.61,21.607,21.607,0,0,0,2.41.65,1.626,1.626,0,0,0,1.369,1.974,32.335,32.335,0,0,1,4.512,1.869.7.7,0,0,1,.408.744q-.013,30.421-.008,60.844c0,1.657-.013,3.314,0,4.972,0,.4-.073.536-.484.371-.835-.336-1.681-.648-2.523-.965-1.161-.437-2.336-.832-3.508-1.235-.767-.263-1.513-.615-2.3-.812-1.621-.407-3.261-.741-4.884-1.139a10.02,10.02,0,0,0-1.555-.4c-.846-.046-1.651-.284-2.485-.335-1.079-.066-2.131-.332-3.21-.424-.623-.053-1.254-.136-1.878-.185a48.012,48.012,0,0,0-6.934-.134c-2.286.152-4.571.271-6.85.578-1.946.262-3.886.55-5.809.929a90.3,90.3,0,0,0-9.662,2.557c0-.232.022-.472-.251-.586q-.006-27.851-.01-55.7,0-5.409.013-10.817m39.017,54.583.131-.074,1.112-.677.134-.088c.448-.34.919-.653,1.339-1.026a13.891,13.891,0,0,0,4.626-10.33,18.954,18.954,0,0,0-.366-4.338,12.957,12.957,0,0,0-1.583-4.474,11.352,11.352,0,0,0-7.482-5.078,22.894,22.894,0,0,1-6.255-2.273,11.646,11.646,0,0,1-4.5-4.309,27.219,27.219,0,0,1-1.716-3.614c-.42-1.04-.851-2.087-1.334-3.107a10.072,10.072,0,0,0-1.652-2.518,7.335,7.335,0,0,0-3.682-2.114,8.394,8.394,0,0,0-2.781-.307,7.317,7.317,0,0,0-2.975.975,11.168,11.168,0,0,0-3.518,3.083,18.7,18.7,0,0,0-2.617,4.768c-.364,1.05-.852,2.047-1.127,3.138a35.335,35.335,0,0,0-1.087,6.354,24.585,24.585,0,0,0,1.208,9.388,25.82,25.82,0,0,0,3.612,7.076A27.387,27.387,0,0,0,162,128.964a21.252,21.252,0,0,0,5.483.054,16.82,16.82,0,0,0,6.08-1.887" transform="translate(-67.393 -33.536)" fill="#fefeff"/>
        <path id="Trazado_609077" data-name="Trazado 609077" d="M204.906,35.648a18.939,18.939,0,0,1-.7,3.639,2.3,2.3,0,0,0,.23,1.522,9.1,9.1,0,0,1,.615,4.093,14.878,14.878,0,0,1-.68,3.676,7.113,7.113,0,0,1-2.729,3.672,10.054,10.054,0,0,1-4.492,1.681,5.6,5.6,0,0,1-2.728-.077,3.423,3.423,0,0,1-1.87-4.253c.748-1.591.491-3.194.308-4.835a5.507,5.507,0,0,1,1.582-4.7.881.881,0,0,0,.245-.939,43.242,43.242,0,0,1-.883-5.595,10.52,10.52,0,0,1-.206-2.25,105,105,0,0,1-.136-10.6,26.412,26.412,0,0,1,.36-3.888,17.694,17.694,0,0,0,.24-2.305c.049-1.432.454-2.807.619-4.217.189-1.61.578-3.179.9-4.762.225-1.106.5-2.2.806-3.293A3.023,3.023,0,0,1,198.926.1a3.7,3.7,0,0,1,4.525,3.479,48.72,48.72,0,0,0,.777,5.381c.211,1.137.255,2.311.406,3.465.181,1.374.334,2.753.486,4.131.06.55.088,1.108.113,1.656.081,1.85.264,3.693.309,5.547.027,1.11.138,2.228.077,3.335a63.952,63.952,0,0,1-.463,6.5c-.107.677-.162,1.368-.248,2.053m-9.288,10.7c-.146.491.082.97.044,1.461a7.42,7.42,0,0,1-.651,2.612c-.287.615.029.993.7,1a6.765,6.765,0,0,0,3.9-.977,4.484,4.484,0,0,0,2.154-2.6,4.057,4.057,0,0,0,.616-2.229c.076-.971-.023-1.948.075-2.924.068-.673-.417-.962-1.093-.966a12.662,12.662,0,0,1-4.057-.173.868.868,0,0,0-1.224.522c-.105.2-.171.421-.267.627a6.349,6.349,0,0,0-.2,3.641m.455-21.16c-.013,1.878.089,3.964.227,6.049.144,2.165.4,4.318.657,6.47a1.493,1.493,0,0,0,1.648,1.426c.642.012,1.285.017,1.925-.006a1.522,1.522,0,0,0,1.6-1.278c.118-.754.189-1.516.273-2.275.217-1.949.271-3.91.4-5.865a91.636,91.636,0,0,0-.2-10.908c-.137-2.571-.354-5.142-.679-7.7-.312-2.457-.609-4.914-1.1-7.342-.16-.784-.523-1.164-1.064-1.174s-.863.332-1.061,1.108A79.333,79.333,0,0,0,196.7,14.394a90.874,90.874,0,0,0-.627,10.791" transform="translate(-96.339 0)" fill="#1d1d1b"/>
        <path id="Trazado_609078" data-name="Trazado 609078" d="M30.94,63.328q0-16.5-.012-33.006c0-.483.177-.563.574-.505,1.948.283,3.9.526,5.846.855a53.246,53.246,0,0,1,6.292,1.453c1.792.533,3.582,1.069,5.326,1.744a53.66,53.66,0,0,1,13.417,7.425,38.843,38.843,0,0,1,3.782,3.19,53.851,53.851,0,0,1,6.8,7.613c.667.976,1.3,1.971,1.955,2.953a1.6,1.6,0,0,1,.145.965q0,22.843,0,45.686,0,8.484,0,16.969c0,.36.08.864-.241.988-.283.11-.465-.377-.659-.632a54.334,54.334,0,0,0-6.025-6.8,46.576,46.576,0,0,0-6.586-5.194c-1.006-.649-2-1.33-3.045-1.9a11.514,11.514,0,0,0-3.1-1.647c-.519-.109-.949-.611-1.478-.849a65.989,65.989,0,0,0-7.517-2.872,59.616,59.616,0,0,0-8.494-2.01,48.882,48.882,0,0,0-6.24-.8c-.448-.011-.7-.164-.7-.742Q31,80.825,30.967,65.441q0-1.056,0-2.113H30.94m21.626-9.146a17.851,17.851,0,0,1-2.268-1c-1.092-.458-2.211-.828-3.322-1.224-.83-.3-1.716-.447-2.526-.785A3,3,0,0,0,42.841,51a.929.929,0,0,0-.836.957c-.054.932.309,1.38,1.333,1.6A33.617,33.617,0,0,1,49.7,55.629,56.72,56.72,0,0,1,66.054,66.574a3.514,3.514,0,0,0,.876.684,1.156,1.156,0,0,0,1.684-1.015c.063-.744-.431-1.129-.871-1.55a59.017,59.017,0,0,0-7.265-5.908,46.127,46.127,0,0,0-7.791-4.5l-.12-.1m.5,25.728h-.006q0-2.331,0-4.661a1.8,1.8,0,0,0-.782-1.636,30.272,30.272,0,0,0-8.821-4.193A1.132,1.132,0,0,0,42.1,70a1.958,1.958,0,0,0-.19,1.181q-.019,4.534-.038,9.068c0,.7.094,1.366.821,1.7a5.8,5.8,0,0,0,.841.354A27.58,27.58,0,0,1,49.2,84.824c.669.368,1.289.826,1.962,1.187a1.193,1.193,0,0,0,1.748-.6,3.774,3.774,0,0,0,.164-1.022c-.016-1.492-.006-2.983-.006-4.475m15.522-4.047c.121-.668-.374-1.015-.767-1.393a58.887,58.887,0,0,0-7.962-6.423,49.1,49.1,0,0,0-16.179-7.358,1.382,1.382,0,0,0-1.683.75,1.326,1.326,0,0,0,1.1,1.713,42.5,42.5,0,0,1,4.638,1.38A55.422,55.422,0,0,1,64.9,75.194c.634.562,1.3,1.092,1.9,1.685.449.441.818.238,1.229-.008a.921.921,0,0,0,.555-1.008m.016-19.424c.119-.248-.1-.5-.282-.738a21.849,21.849,0,0,0-3.174-3.107,49.05,49.05,0,0,0-7.646-5.545,24.635,24.635,0,0,0-4.64-2.331A1.214,1.214,0,0,0,51.2,45.91c0,.775.62,1.019,1.172,1.268A46.428,46.428,0,0,1,63.621,54.6c1.006.871,1.95,1.813,2.926,2.719a1.041,1.041,0,0,0,1.3.233c.353-.217.792-.46.761-1.112m-.016,29.079c.124-.45-.158-.758-.451-1.06a46.8,46.8,0,0,0-5.872-5.151,28.345,28.345,0,0,0-3.316-2.173,1.226,1.226,0,0,0-1.81.435c-.439.74-.275,1.274.649,1.8a38.7,38.7,0,0,1,7.175,5.492,17.253,17.253,0,0,0,1.874,1.715,1.108,1.108,0,0,0,1.258-.061.857.857,0,0,0,.493-1m0,9.653c.116-.475-.221-.79-.517-1.1a42.055,42.055,0,0,0-3.26-3.059,36.335,36.335,0,0,0-5.847-4.179,1.231,1.231,0,0,0-1.941.7c-.235.551.023,1.073.791,1.522a42.042,42.042,0,0,1,8.205,6.493,8.793,8.793,0,0,0,.848.718c.443.337.821.148,1.192-.046a.91.91,0,0,0,.528-1.053M42.924,41.279a1.254,1.254,0,0,0-.2,2.366,6.448,6.448,0,0,0,1.413.374,1.156,1.156,0,0,0,1.477-.851,1.17,1.17,0,0,0-.7-1.533,6.9,6.9,0,0,0-1.994-.355" transform="translate(-15.493 -14.929)" fill="#fefeff"/>
        <path id="Trazado_609079" data-name="Trazado 609079" d="M60.12,144.573c-.535-.185-1.08-.346-1.6-.559-.949-.386-1.948-.627-2.9-.993a21.6,21.6,0,0,0-2.416-.766c-.963-.245-1.954-.46-2.926-.7-2.664-.655-5.366-1.113-8.066-1.568a42.023,42.023,0,0,0-4.237-.44c-1.423-.093-2.846-.217-4.269-.188a75.873,75.873,0,0,0-10.085.679,73.953,73.953,0,0,0-15.138,3.9c-.837.319-1.66.674-2.5.99-.561.212-.677.122-.7-.483-.013-.31,0-.621,0-.932V80.43c0-.145,0-.29,0-.435.011-1.6.01-1.6,1.475-2.221.879-.373,1.757-.752,2.645-1.1.835-.329,1.708-.564,2.548-.864.95-.339,1.917-.635,2.86-1,.652-.251.664-.225.664.48q0,22.066.006,44.132a4.158,4.158,0,0,0,.09,1.344,1.407,1.407,0,0,0,1.168,1.053c.847.151,1.686.385,2.539.456a62.817,62.817,0,0,1,7.071,1.113,59.984,59.984,0,0,1,14.274,4.647c.745.357,1.488.721,2.206,1.128a48.542,48.542,0,0,1,8.664,5.86,60.073,60.073,0,0,1,7.5,7.873c.2.258.423.5.625.753s.389.521.583.783l-.082.143" transform="translate(-2.643 -37.402)" fill="#b9c6e5"/>
        <path id="Trazado_609080" data-name="Trazado 609080" d="M129.567,78.17q-.007,5.409-.013,10.817,0,27.851.01,55.7c-.193.2-.087.457-.116.688-1.48.521-2.963,1.031-4.437,1.568-.45.164-.422-.072-.42-.381q.019-2.858.019-5.716,0-29.669.01-59.339c0-1.543-.292-1.186,1.292-1.889,1.072-.476,2.138-.963,3.237-1.372a1.688,1.688,0,0,1,.417-.076" transform="translate(-62.411 -39.158)" fill="#b9c6e5"/>
        <path id="Trazado_609081" data-name="Trazado 609081" d="M124.63,229.424c.024-1.466-.182-1.126,1.1-1.578a86.178,86.178,0,0,1,12.386-3.283,76.633,76.633,0,0,1,9.375-1.306c1.316-.088,2.629-.335,3.94-.314a54.483,54.483,0,0,1,6.1.058c1,.128,2.021.058,3.034.106a64.135,64.135,0,0,1,10.457,1.575,70.688,70.688,0,0,1,9.566,2.969c1.14.421,1.259,1.152,1.321,2.085.085,1.295.068,1.319-1.179.949a87.585,87.585,0,0,0-12.854-2.589,136.717,136.717,0,0,0-21.244-.794,12.924,12.924,0,0,0-3.294.361,8.593,8.593,0,0,1-1.577.069,70.26,70.26,0,0,0-16.54,2.9c-.509.158-.636.019-.6-.459.02-.247,0-.5,0-.745" transform="translate(-62.426 -111.647)" fill="#7887b6"/>
        <path id="Trazado_609082" data-name="Trazado 609082" d="M62.211,229.617c.005,1.3,0,1.317-1.242.96-2.662-.765-5.363-1.377-8.081-1.881a89.026,89.026,0,0,0-9.436-1.338c-1.733-.132-3.47-.154-5.2-.265a43.225,43.225,0,0,0-5.264-.064c-3.066.178-6.136.191-9.2.545-4.147.48-8.262,1.115-12.349,1.941-1.84.372-3.665.827-5.486,1.283-.552.138-.709-.009-.662-.549A10.335,10.335,0,0,0,5.3,228.82a.773.773,0,0,1,.573-.838,65.936,65.936,0,0,1,15.184-4.232,73.406,73.406,0,0,1,15.025-.781,73.189,73.189,0,0,1,7.63.727A109.526,109.526,0,0,1,56.972,226.5c1.488.427,2.944.968,4.435,1.387,1,.282.814,1.023.8,1.728" transform="translate(-2.646 -111.646)" fill="#7887b6"/>
        <path id="Trazado_609083" data-name="Trazado 609083" d="M62.179,217.36c0,1.446,0,1.445-1.357.991A94.527,94.527,0,0,0,45.179,214.6c-2.015-.31-4.048-.521-6.088-.688a95.283,95.283,0,0,0-12.018-.168,61.7,61.7,0,0,0-10.114,1.364,66.447,66.447,0,0,0-10.8,3.21c-.057.023-.113.054-.172.072-.713.223-.652.208-.744-.519A2.3,2.3,0,0,1,6.933,215.1,68.541,68.541,0,0,1,20.9,210.84a68.607,68.607,0,0,1,14.064-1.1,69.563,69.563,0,0,1,9.716,1.059,76.6,76.6,0,0,1,14.73,4.022c.694.264,1.368.583,2.07.825a.883.883,0,0,1,.709,1.095,3.726,3.726,0,0,0-.005.62" transform="translate(-2.609 -105.055)" fill="#7887b6"/>
        <path id="Trazado_609084" data-name="Trazado 609084" d="M154.261,213.743c-2.131.034-4.27-.076-6.391.166-3.156.36-6.318.673-9.446,1.264a95.666,95.666,0,0,0-13.179,3.431c-.514.176-.635.067-.629-.464.031-2.612-.382-1.988,2.047-2.956a76.028,76.028,0,0,1,14.166-4.026c2.456-.461,4.933-.768,7.42-1.015a75.1,75.1,0,0,1,10.483-.185,48,48,0,0,1,6.085.709,65.743,65.743,0,0,1,10.389,2.583c2.134.735,4.2,1.648,6.281,2.5a.624.624,0,0,1,.418.675c-.007.622-.012,1.244.006,1.865.014.47-.152.515-.56.349a64.539,64.539,0,0,0-10.9-3.313c-2.5-.531-5.037-.894-7.579-1.211a71.422,71.422,0,0,0-8.611-.375" transform="translate(-62.42 -105.127)" fill="#7887b6"/>
        <path id="Trazado_609085" data-name="Trazado 609085" d="M134.32,212.145c.029-.231-.077-.485.116-.688.273.114.253.354.251.586l-.367.1" transform="translate(-67.284 -105.926)" fill="#f8f9fb"/>
        <path id="Trazado_609086" data-name="Trazado 609086" d="M178.47,142.273l-1.113.677c-.089-.056-.105.017-.131.074a16.823,16.823,0,0,1-6.08,1.887,21.255,21.255,0,0,1-5.483-.054,27.388,27.388,0,0,1-18.949-11.381A25.847,25.847,0,0,1,143.1,126.4a24.6,24.6,0,0,1-1.208-9.388,35.383,35.383,0,0,1,1.088-6.354c.275-1.091.763-2.088,1.127-3.138a18.7,18.7,0,0,1,2.618-4.768,11.163,11.163,0,0,1,3.518-3.083,7.312,7.312,0,0,1,2.975-.975A8.39,8.39,0,0,1,156,99a7.33,7.33,0,0,1,3.682,2.114,10.059,10.059,0,0,1,1.653,2.518c.483,1.021.915,2.067,1.334,3.107a27.276,27.276,0,0,0,1.716,3.614,11.651,11.651,0,0,0,4.5,4.309,22.893,22.893,0,0,0,6.255,2.273,11.352,11.352,0,0,1,7.482,5.078,12.968,12.968,0,0,1,1.583,4.474,18.956,18.956,0,0,1,.366,4.338,13.891,13.891,0,0,1-4.627,10.33c-.419.372-.891.685-1.339,1.026-.086-.034-.112.023-.133.088m-11.369.02a17.832,17.832,0,0,0,7.832-1.054,11.053,11.053,0,0,0,5.2-4.268,13.128,13.128,0,0,0,1.75-7.979,23.26,23.26,0,0,0-.392-2.672,7.331,7.331,0,0,0-1.517-3.543,10.035,10.035,0,0,0-5.776-3.384,20.668,20.668,0,0,1-7.2-2.92,17.646,17.646,0,0,1-7.286-10.1,7.586,7.586,0,0,0-1.707-3.253,5.341,5.341,0,0,0-6.526-1.065,9.24,9.24,0,0,0-3.4,3.458A24.778,24.778,0,0,0,145,113.63a20.469,20.469,0,0,0-.454,6.924,26.028,26.028,0,0,0,.972,4.845,24.741,24.741,0,0,0,8.936,12.237,25.611,25.611,0,0,0,7.946,3.886,17.024,17.024,0,0,0,4.7.771" transform="translate(-71.053 -49.43)" fill="#3c3c4f"/>
        <path id="Trazado_609087" data-name="Trazado 609087" d="M215.235,185.936c.021-.064.047-.122.134-.087l-.134.087" transform="translate(-107.819 -93.093)" fill="#f8f9fb"/>
        <path id="Trazado_609088" data-name="Trazado 609088" d="M212.743,187.445c.025-.057.042-.13.131-.074l-.131.074" transform="translate(-106.571 -93.851)" fill="#f8f9fb"/>
        <path id="Trazado_609089" data-name="Trazado 609089" d="M199.843,27.775a90.88,90.88,0,0,1,.627-10.791,79.337,79.337,0,0,1,1.993-10.706c.2-.777.527-1.117,1.061-1.108s.9.39,1.064,1.174c.5,2.428.792,4.885,1.1,7.342.325,2.561.542,5.132.679,7.7a91.636,91.636,0,0,1,.2,10.908c-.128,1.955-.182,3.916-.4,5.865-.084.759-.156,1.521-.273,2.275a1.522,1.522,0,0,1-1.6,1.278c-.641.023-1.284.018-1.925.006a1.493,1.493,0,0,1-1.648-1.426c-.261-2.151-.513-4.3-.657-6.47-.138-2.085-.24-4.171-.227-6.049" transform="translate(-100.108 -2.59)" fill="#7887b6"/>
        <path id="Trazado_609090" data-name="Trazado 609090" d="M204.363,92.025a4.484,4.484,0,0,1-2.154,2.6,6.765,6.765,0,0,1-3.9.976c-.674-.008-.99-.386-.7-1a7.415,7.415,0,0,0,.651-2.611c.038-.491-.19-.97-.044-1.461a5.121,5.121,0,0,0,3-1.823c.635-.712,1.073-.7,1.452.175a7.226,7.226,0,0,1,.548,1.768c.109.732.353,1.258,1.143,1.382" transform="translate(-98.937 -44.177)" fill="#fff198"/>
        <path id="Trazado_609091" data-name="Trazado 609091" d="M204.909,89.475c-.791-.124-1.034-.65-1.143-1.382a7.227,7.227,0,0,0-.548-1.768c-.379-.879-.816-.887-1.452-.175a5.121,5.121,0,0,1-3,1.823,6.35,6.35,0,0,1,.2-3.642c.1-.206.162-.426.267-.627a.868.868,0,0,1,1.224-.522,12.676,12.676,0,0,0,4.057.173c.676,0,1.161.293,1.093.966-.1.976,0,1.952-.075,2.923a4.06,4.06,0,0,1-.617,2.23" transform="translate(-99.483 -41.627)" fill="#b9c6e5"/>
        <path id="Trazado_609092" data-name="Trazado 609092" d="M64.057,119.622c0,1.491-.009,2.983.006,4.475a3.773,3.773,0,0,1-.164,1.022,1.194,1.194,0,0,1-1.748.6c-.673-.361-1.293-.819-1.962-1.187a27.576,27.576,0,0,0-5.666-2.521,5.8,5.8,0,0,1-.841-.354c-.728-.335-.824-1-.821-1.7q.018-4.533.038-9.068a1.954,1.954,0,0,1,.19-1.181,1.132,1.132,0,0,1,1.359-.579,30.272,30.272,0,0,1,8.821,4.193,1.8,1.8,0,0,1,.782,1.636q0,2.33,0,4.661Zm-8.321-7.356c-.1-.109-.192-.159-.227.048-.008,2.275-.012,4.551-.03,6.827a.6.6,0,0,0,.45.646A32.844,32.844,0,0,1,61,122.1c.34.186.473.123.47-.286q-.028-3.074-.025-6.148a.734.734,0,0,0-.41-.7,42.029,42.029,0,0,0-5.3-2.7" transform="translate(-26.48 -54.641)" fill="#1d1d1b"/>
        <path id="Trazado_609093" data-name="Trazado 609093" d="M79.654,106.819a.922.922,0,0,1-.555,1.009c-.41.247-.78.449-1.229.008-.6-.593-1.269-1.123-1.9-1.685A55.426,55.426,0,0,0,58.8,95.488a42.542,42.542,0,0,0-4.638-1.38,1.325,1.325,0,0,1-1.1-1.712,1.382,1.382,0,0,1,1.683-.751A49.105,49.105,0,0,1,70.926,99a58.926,58.926,0,0,1,7.962,6.423c.393.379.887.725.767,1.393" transform="translate(-26.556 -45.885)" fill="#1d1d1b"/>
        <path id="Trazado_609094" data-name="Trazado 609094" d="M63.8,75.525a46.138,46.138,0,0,1,7.79,4.5,59.112,59.112,0,0,1,7.265,5.908c.441.421.935.805.871,1.55A1.156,1.156,0,0,1,78.044,88.5a3.482,3.482,0,0,1-.876-.684A56.729,56.729,0,0,0,60.81,76.867a33.586,33.586,0,0,0-6.359-2.072c-1.024-.222-1.387-.67-1.333-1.6a.93.93,0,0,1,.836-.957,3.008,3.008,0,0,1,1.61.172c.81.338,1.7.49,2.526.785,1.111.4,2.23.766,3.322,1.224a17.957,17.957,0,0,0,2.268,1c0,.078.033.124.12.1" transform="translate(-26.606 -36.167)" fill="#1d1d1b"/>
        <path id="Trazado_609095" data-name="Trazado 609095" d="M88.956,71.333c.031.652-.408.9-.761,1.112a1.041,1.041,0,0,1-1.3-.233c-.975-.907-1.92-1.848-2.925-2.719a46.44,46.44,0,0,0-11.25-7.421c-.551-.249-1.168-.493-1.172-1.268a1.214,1.214,0,0,1,1.667-1.193,24.636,24.636,0,0,1,4.64,2.331A49.027,49.027,0,0,1,85.5,67.488,21.878,21.878,0,0,1,88.674,70.6c.18.237.4.49.282.738" transform="translate(-35.84 -29.824)" fill="#1d1d1b"/>
        <path id="Trazado_609096" data-name="Trazado 609096" d="M94.674,132.806a.856.856,0,0,1-.493,1,1.108,1.108,0,0,1-1.258.061,17.3,17.3,0,0,1-1.874-1.715,38.724,38.724,0,0,0-7.175-5.492c-.925-.528-1.088-1.061-.649-1.8a1.225,1.225,0,0,1,1.81-.435,28.345,28.345,0,0,1,3.316,2.173,46.75,46.75,0,0,1,5.871,5.151c.293.3.575.609.451,1.06" transform="translate(-41.574 -62.217)" fill="#1d1d1b"/>
        <path id="Trazado_609097" data-name="Trazado 609097" d="M94.7,152.175a.91.91,0,0,1-.528,1.053c-.371.195-.75.384-1.193.046a8.853,8.853,0,0,1-.848-.718,42.039,42.039,0,0,0-8.2-6.493c-.767-.448-1.026-.971-.791-1.522a1.231,1.231,0,0,1,1.942-.705,36.414,36.414,0,0,1,5.847,4.18,41.957,41.957,0,0,1,3.259,3.059c.3.31.633.625.517,1.1" transform="translate(-41.604 -71.932)" fill="#1d1d1b"/>
        <path id="Trazado_609098" data-name="Trazado 609098" d="M54.013,52.8a6.9,6.9,0,0,1,1.994.355,1.17,1.17,0,0,1,.7,1.533,1.156,1.156,0,0,1-1.477.851,6.449,6.449,0,0,1-1.413-.374,1.254,1.254,0,0,1,.2-2.366" transform="translate(-26.581 -26.449)" fill="#1d1d1b"/>
        <path id="Trazado_609099" data-name="Trazado 609099" d="M74.407,78.759c-.087.019-.118-.027-.12-.1l.12.1" transform="translate(-37.213 -39.401)" fill="#f8f9fb"/>
        <path id="Trazado_609100" data-name="Trazado 609100" d="M169.686,145.012a17.026,17.026,0,0,1-4.7-.771,25.623,25.623,0,0,1-7.945-3.886,24.74,24.74,0,0,1-8.936-12.238,26.056,26.056,0,0,1-.972-4.844,20.5,20.5,0,0,1,.454-6.924,24.8,24.8,0,0,1,3.078-8.118,9.238,9.238,0,0,1,3.4-3.458,5.341,5.341,0,0,1,6.525,1.064,7.588,7.588,0,0,1,1.708,3.254,17.648,17.648,0,0,0,7.285,10.1,20.683,20.683,0,0,0,7.2,2.92,10.033,10.033,0,0,1,5.776,3.384,7.331,7.331,0,0,1,1.517,3.542,23.169,23.169,0,0,1,.392,2.673,13.132,13.132,0,0,1-1.749,7.979,11.057,11.057,0,0,1-5.2,4.268,17.829,17.829,0,0,1-7.832,1.054m4.365-4.748a5.078,5.078,0,0,0,5.029-4.928,5.2,5.2,0,0,0-4.973-5.144,5.1,5.1,0,0,0-5.172,5.024,5.016,5.016,0,0,0,5.117,5.049m-14.228-15.039c-2.313-.316-4.638,2.057-4.615,4.422a4.541,4.541,0,0,0,9.081.067c.025-2.538-2.274-4.735-4.466-4.489m-8.1-8.25a3.375,3.375,0,0,0,3.3,3.4,3.464,3.464,0,0,0,3.419-3.171,3.416,3.416,0,0,0-3.366-3.42,3.292,3.292,0,0,0-3.353,3.191" transform="translate(-73.638 -52.149)" fill="#c8cdec"/>
        <path id="Trazado_609101" data-name="Trazado 609101" d="M58.364,115.467a42.029,42.029,0,0,1,5.3,2.7.734.734,0,0,1,.41.7q0,3.074.025,6.148c0,.41-.13.472-.47.286a32.845,32.845,0,0,0-5.069-2.311.6.6,0,0,1-.45-.646c.018-2.276.022-4.551.03-6.827l.227-.048" transform="translate(-29.108 -57.842)" fill="#b9c6e5"/>
        <path id="Trazado_609102" data-name="Trazado 609102" d="M58.394,115.372l-.227.048c.035-.207.125-.158.227-.048" transform="translate(-29.138 -57.747)" fill="#7887b6"/>
        <path id="Trazado_609103" data-name="Trazado 609103" d="M196.067,166.452a5.016,5.016,0,0,1-5.117-5.049,5.1,5.1,0,0,1,5.172-5.024,5.2,5.2,0,0,1,4.973,5.144,5.078,5.078,0,0,1-5.029,4.928" transform="translate(-95.654 -78.336)" fill="#33ece0"/>
        <path id="Trazado_609104" data-name="Trazado 609104" d="M168.061,146.4c2.192-.246,4.491,1.951,4.466,4.489a4.54,4.54,0,0,1-9.08-.067c-.023-2.365,2.3-4.738,4.614-4.422" transform="translate(-81.876 -73.323)" fill="#752121"/>
        <path id="Trazado_609105" data-name="Trazado 609105" d="M156.469,126.695a3.292,3.292,0,0,1,3.353-3.191,3.416,3.416,0,0,1,3.366,3.42,3.464,3.464,0,0,1-3.419,3.171,3.375,3.375,0,0,1-3.3-3.4" transform="translate(-78.381 -61.868)" fill="#fff198"/>
      </g>
    </g>
  </g>
</svg>
