<svg id="Grupo_1015270" data-name="Grupo 1015270" xmlns="http://www.w3.org/2000/svg" xmlns:xlink="http://www.w3.org/1999/xlink" width="196.684" height="141.621" viewBox="0 0 196.684 141.621">
  <defs>
    <clipPath id="clip-path">
      <rect id="Rectángulo_345822" data-name="Rectángulo 345822" width="196.684" height="141.621" fill="none"/>
    </clipPath>
  </defs>
  <g id="Grupo_1015269" data-name="Grupo 1015269" clip-path="url(#clip-path)">
    <path id="Trazado_605761" data-name="Trazado 605761" d="M21.37,93.468h-9a5.432,5.432,0,0,1-5.416-5.416v-6.67a5.432,5.432,0,0,1,5.416-5.416h9a5.432,5.432,0,0,1,5.417,5.416v6.67a5.432,5.432,0,0,1-5.417,5.416" fill="#1a1a1a"/>
    <path id="Trazado_605762" data-name="Trazado 605762" d="M101.807,60.629H30.022a7.589,7.589,0,0,1-7.567-7.566V7.878A7.589,7.589,0,0,1,30.022.312h71.785a7.589,7.589,0,0,1,7.567,7.566V53.063a7.589,7.589,0,0,1-7.567,7.566" fill="#fff"/>
    <path id="Trazado_605763" data-name="Trazado 605763" d="M189.117,114.269H133.762A7.589,7.589,0,0,1,126.2,106.7V65.1a7.589,7.589,0,0,1,7.566-7.567h55.355a7.59,7.59,0,0,1,7.567,7.567v41.6a7.589,7.589,0,0,1-7.567,7.566" fill="#fff198"/>
    <path id="Trazado_605764" data-name="Trazado 605764" d="M188.23,100.863s-.629-.275-5.934-3.027-7.979-3.536-9.944-3.733a15.215,15.215,0,0,0-6.326,1.022,56.228,56.228,0,0,1-9.2,2.948,13.474,13.474,0,0,1-6.208-1.14c-1.14-.472-9.6-5.631-9.6-5.631s-1.867,20.56-2.579,27.206h42.394a7.49,7.49,0,0,0,7.468-7.467v-9.962c-.05-.135-.079-.216-.079-.216" fill="#1a1a1a"/>
    <path id="Trazado_605765" data-name="Trazado 605765" d="M90.375,71.1a60.718,60.718,0,0,0-11.316,3.437c-4.662,2.137-8.854,4.612-8.854,4.612s4.41-11.1,5.256-13.4a35.017,35.017,0,0,1,2.526-5.05s-2.165-2.792-2.2-4.161a18.969,18.969,0,0,1-7.427-2.689s-2.166-.909-2.561-1.784c0,0-4.427-3.293-4.121-6.211a88.431,88.431,0,0,0-6.791,14.776c-3.687,9.853-5.844,13.843-4.148,24.66A17.264,17.264,0,0,0,63.689,99.473c1.948.461,5.41,1.434,8.924.77a35.661,35.661,0,0,0,6.78-2.1l-1.019,7.894L74.567,141.1h50.451l-1.963-19.732s2.034,5.124,5.3,7.072a11.33,11.33,0,0,0,11.236.163,11.987,11.987,0,0,0,5.969-8.932,37.338,37.338,0,0,0-1-12.543c-1.231-5.471-5.129-22.167-5.129-22.167l-11.573-5.536s-4.052-6.1-10.278-7.522l-6.227-1.418Z" fill="#33ece0"/>
    <path id="Trazado_605766" data-name="Trazado 605766" d="M139.293,85.379a11.531,11.531,0,0,0-1.385-6.573c-1.789-2.787-3.153-4.293-3.611-5.109s-.255-4.413-.573-5.785-.749-3.467-3.185-3.061-3.108,3.6-2.725,5.674,1.868,6.948,1.785,7.619-3.966,3.111-6.037,3.885-6.029,2.177-7.057,3.765-.675,3.677,1.315,3.871c0,0-2.56,1.339-2.039,3.228a2.108,2.108,0,0,0,2.282,1.649,2.667,2.667,0,0,0,2.395,3.13c2.829.351,8.219-1.594,10.081-2.6s5.13-2.709,6.544-4.773a13.22,13.22,0,0,0,2.21-4.923" fill="#fff"/>
    <path id="Trazado_605767" data-name="Trazado 605767" d="M91.755,52.969s-4.269-.814-4.391,2.918,3.69,3.7,4.82,2.936c0,0-.074,8.734,8.588,8.6s8.9-7.359,8.9-7.359V58.985s3.921,1.217,4.614-1.359.252-3.6-.748-4.159-3.548-.386-3.548-.386v-.893a23.206,23.206,0,0,0-7.67-5.1,31.121,31.121,0,0,0-7.089-2.157s-1.892,4.809-3.2,5.84Z" fill="#fff"/>
    <path id="Trazado_605768" data-name="Trazado 605768" d="M94.792,64.039v2.437L90.374,71.1l3.1,17.054L101.005,77.3l7.555,10.847,3.021-17.409-4.353-4.382.031-2.1Z" fill="#fff"/>
    <path id="Trazado_605769" data-name="Trazado 605769" d="M175.827,76.094a6.224,6.224,0,1,1-6.224-6.225,6.225,6.225,0,0,1,6.224,6.225" fill="#fff"/>
    <path id="Trazado_605770" data-name="Trazado 605770" d="M101.307,137.418H22.043a7.589,7.589,0,0,1-7.566-7.566V115.861a7.589,7.589,0,0,1,7.566-7.567h79.264a7.588,7.588,0,0,1,7.566,7.567v13.991a7.588,7.588,0,0,1-7.566,7.566" fill="#fff"/>
    <path id="Trazado_605771" data-name="Trazado 605771" d="M33.06,122.857a5.014,5.014,0,1,1-5.014-5.014,5.013,5.013,0,0,1,5.014,5.014" fill="#1a1a1a"/>
    <path id="Trazado_605772" data-name="Trazado 605772" d="M100.752.312H31.077a8.647,8.647,0,0,0-8.622,8.621v5.809h86.918V8.933A8.647,8.647,0,0,0,100.752.312" fill="#1a1a1a"/>
    <path id="Trazado_605773" data-name="Trazado 605773" d="M90.63,52.486a46.665,46.665,0,0,1-.666-5.254c.048-1.172.9-4.413,1.845-4.886a5.981,5.981,0,0,1,1.268-.53,8.569,8.569,0,0,1,7.162-3.489c5.011-.028,8.673,1.954,10.163,4.608s1.184,6.706,1.179,7.9a6.863,6.863,0,0,1-.279,2l-1.314.078-.1-.729s-4.216-4.13-8.9-5.611a52.791,52.791,0,0,0-5.761-1.642s-1.49,4.365-3.2,5.839l-.07,2.143Z" fill="#ffce26"/>
    <path id="Trazado_605774" data-name="Trazado 605774" d="M77.283,51.282a13.346,13.346,0,0,1,4.291,3.576c1.3,2.018,1.638,6.749-.975,6.933s-3.782-2.847-4.111-3.725a3.314,3.314,0,0,0-2.474-2.638c-2.031-.686-6.558-1.333-7.38-2.683S64.449,50.59,64.512,46.2c0,0-1.41-4.543.683-6.469s4.479-1.866,8.753-1.749,7.345-2.011,9.3-2.84,5.015-2.452,6.714-1.545.471,3.268.471,3.268a3.526,3.526,0,0,1,1.974,1.765c.461,1.238-1.278,3.621-1.278,3.621s1.005.269,1.269,1.949-2.177,3.227-4.331,3.811a75.686,75.686,0,0,1-8.58,1.348c-1.12.088-2.91.836-2.206,1.921" fill="#fff"/>
    <path id="Trazado_605775" data-name="Trazado 605775" d="M19.283,79a.858.858,0,0,0-1.617,0l-3.411,5.843c-.444.76-.086,1.383.793,1.383H21.9c.88,0,1.237-.623.793-1.382Z" transform="translate(100.914 65.579) rotate(90)" fill="#33ece0"/>
    <path id="Trazado_605776" data-name="Trazado 605776" d="M102.756,7.663A3.063,3.063,0,1,1,99.693,4.6a3.062,3.062,0,0,1,3.063,3.063" fill="#fff198"/>
    <path id="Trazado_605777" data-name="Trazado 605777" d="M121.983,12.928a3.16,3.16,0,1,1-3.161-3.161,3.161,3.161,0,0,1,3.161,3.161" fill="#33ece0"/>
    <path id="Trazado_605778" data-name="Trazado 605778" d="M193.416,40.344a3.16,3.16,0,1,1-3.161-3.161,3.162,3.162,0,0,1,3.161,3.161" fill="#33ece0"/>
    <path id="Trazado_605779" data-name="Trazado 605779" d="M92.383,7.663A3.063,3.063,0,1,1,89.321,4.6a3.061,3.061,0,0,1,3.062,3.063" fill="#ccc"/>
    <path id="Trazado_605780" data-name="Trazado 605780" d="M82.037,7.663A3.063,3.063,0,1,1,78.974,4.6a3.062,3.062,0,0,1,3.063,3.063" fill="#fff"/>
    <path id="Trazado_605781" data-name="Trazado 605781" d="M63.865,43.848s-1.922.348-2.19,2.005,2.694,5.284,3.453,5.666h.533s-1.491-3.359-1-5.187Z" fill="#1a1a1a"/>
    <path id="Trazado_605782" data-name="Trazado 605782" d="M70.219,54.645a10.673,10.673,0,0,1,3.3.585,12.449,12.449,0,0,1,1.918.949,8.9,8.9,0,0,1-5.214-1.534" fill="#1a1a1a"/>
    <path id="Trazado_605783" data-name="Trazado 605783" d="M78.6,49.54s-1.6.513-1.454,1.409a41.207,41.207,0,0,1,3.331,2.457c.531.56.914.941.914.941A6.511,6.511,0,0,0,78.6,49.54" fill="#1a1a1a"/>
    <path id="Trazado_605784" data-name="Trazado 605784" d="M157.689,26.566a3.22,3.22,0,1,1-3.221-3.22,3.22,3.22,0,0,1,3.221,3.22" fill="#1a1a1a"/>
    <path id="Trazado_605785" data-name="Trazado 605785" d="M109.988,52.918l1.314-.079a6.87,6.87,0,0,0,.28-2c0-1.2.31-5.249-1.18-7.9-1.254-2.234-4.051-3.987-7.893-4.47,2.588,1.12,5.344,2.875,4.779,5.137-.825,3.3-12.419,1.1-12.419,1.1l.294.417c.065-.183,1.146-.022,5.827,1.459s8.9,5.611,8.9,5.611Z" fill="#fff"/>
    <path id="Trazado_605786" data-name="Trazado 605786" d="M188.309,101.331c-.142-.034-10.972-5.568-10.972-5.568a14.231,14.231,0,0,0-9.656-.71l-8.118,2.754a13.639,13.639,0,0,1-9.993-1.053l-8.7-5.185a.311.311,0,1,1,.317-.534l8.7,5.185a12.946,12.946,0,0,0,9.476,1l8.118-2.753a14.957,14.957,0,0,1,10.138.746l10.83,5.534a.31.31,0,0,1-.141.587" fill="#1a1a1a"/>
    <path id="Trazado_605787" data-name="Trazado 605787" d="M167.667,84.387a6.536,6.536,0,1,1,6.532-6.535,6.543,6.543,0,0,1-6.532,6.535m0-12.449a5.913,5.913,0,1,0,5.91,5.914,5.922,5.922,0,0,0-5.91-5.914" fill="#1a1a1a"/>
    <path id="Trazado_605788" data-name="Trazado 605788" d="M108.561,88.461C108.306,88.328,101,77.847,101,77.847L93.728,88.328c-.561-.119-3.828-17.174-3.828-17.174.085-.278,4.672-4.9,4.672-4.9.49.064,6.432,10.419,6.432,10.419L106.989,66.2c.492-.064,4.813,4.318,4.813,4.318.085.271-2.934,17.681-2.934,17.681-.262.256-.285.258-.307.258M90.542,71.2l3.1,16.166,7-10.078-5.913-10.3Zm10.831,6.087,7.01,10.065,2.864-16.506-3.921-3.976Z" fill="#1a1a1a"/>
    <path id="Trazado_605789" data-name="Trazado 605789" d="M102.817,62.545a6.538,6.538,0,0,1-1.36-.141.311.311,0,0,1,.142-.6,4.787,4.787,0,0,0,3.277-.413,2.42,2.42,0,0,0,.981-1.775.306.306,0,0,1,.348-.269.31.31,0,0,1,.27.347,3.018,3.018,0,0,1-1.246,2.21,4.263,4.263,0,0,1-2.412.646" fill="#1a1a1a"/>
    <path id="Trazado_605790" data-name="Trazado 605790" d="M70.107,100.705a25.29,25.29,0,0,1-7.065-1.088c-7.8-2.21-12.524-8.9-13.3-18.833-.552-7.076,2.066-14.014,4.7-19.865,1-2.233,1.736-4.067,2.445-5.84a66.229,66.229,0,0,1,4.761-10.067.312.312,0,0,1,.538.315,65.561,65.561,0,0,0-4.721,9.983c-.712,1.779-1.446,3.619-2.457,5.864-2.6,5.781-5.189,12.626-4.648,19.561.753,9.656,5.316,16.15,12.848,18.283a23.377,23.377,0,0,0,16.018-.764.311.311,0,0,1,.222.582,26.046,26.046,0,0,1-9.344,1.869" fill="#1a1a1a"/>
    <path id="Trazado_605791" data-name="Trazado 605791" d="M69.225,83.834a.319.319,0,0,1-.307-.356,40.154,40.154,0,0,1,3.154-10.19c.129-.294.232-.526.3-.692l2.612-6.506a49.907,49.907,0,0,1,2.44-4.989l.294-.549a.311.311,0,0,1,.549.292l-.294.55a49.2,49.2,0,0,0-2.411,4.928l-2.612,6.507c-.068.169-.174.409-.306.709a39.034,39.034,0,0,0-3.109,10.03.312.312,0,0,1-.308.266" fill="#1a1a1a"/>
    <path id="Trazado_605792" data-name="Trazado 605792" d="M1.425,29.167A1.356,1.356,0,1,0,.07,27.812a1.355,1.355,0,0,0,1.355,1.355" fill="#1a1a1a"/>
    <path id="Trazado_605793" data-name="Trazado 605793" d="M11.958,29.237a1.426,1.426,0,1,0-1.425-1.425,1.425,1.425,0,0,0,1.425,1.425" fill="#1a1a1a"/>
    <path id="Trazado_605794" data-name="Trazado 605794" d="M22.49,29.132a1.321,1.321,0,1,0-1.32-1.32,1.32,1.32,0,0,0,1.32,1.32" fill="#1a1a1a"/>
    <path id="Trazado_605795" data-name="Trazado 605795" d="M1.425,39.77A1.426,1.426,0,1,0,0,38.345,1.426,1.426,0,0,0,1.425,39.77" fill="#1a1a1a"/>
    <path id="Trazado_605796" data-name="Trazado 605796" d="M11.958,39.84a1.5,1.5,0,1,0-1.495-1.495,1.5,1.5,0,0,0,1.495,1.495" fill="#1a1a1a"/>
    <path id="Trazado_605797" data-name="Trazado 605797" d="M22.49,39.735a1.391,1.391,0,1,0-1.39-1.39,1.39,1.39,0,0,0,1.39,1.39" fill="#1a1a1a"/>
    <path id="Trazado_605798" data-name="Trazado 605798" d="M1.425,50.2A1.32,1.32,0,1,0,.1,48.877a1.321,1.321,0,0,0,1.32,1.32" fill="#1a1a1a"/>
    <path id="Trazado_605799" data-name="Trazado 605799" d="M11.958,50.267a1.39,1.39,0,1,0-1.39-1.39,1.39,1.39,0,0,0,1.39,1.39" fill="#1a1a1a"/>
    <path id="Trazado_605800" data-name="Trazado 605800" d="M22.49,50.174a1.3,1.3,0,1,0-1.3-1.3,1.3,1.3,0,0,0,1.3,1.3" fill="#1a1a1a"/>
    <path id="Trazado_605801" data-name="Trazado 605801" d="M183.52,141.621H23.611a.311.311,0,0,1,0-.622H183.52a.311.311,0,0,1,0,.622" fill="#1a1a1a"/>
    <path id="Trazado_605802" data-name="Trazado 605802" d="M96.62,53c.248-.039.415.067.487.962.079,1-.18,1.174-.4,1.165s-.449-.316-.438-1.03.029-1.046.354-1.1" fill="#1a1a1a"/>
    <path id="Trazado_605803" data-name="Trazado 605803" d="M90.553,59.535a3.657,3.657,0,0,1-2.665-1.2,3.552,3.552,0,0,1,.315-5.016,3.562,3.562,0,0,1,3.665-.636.311.311,0,1,1-.229.578,2.939,2.939,0,0,0-.9-.2,2.931,2.931,0,0,0-.367,5.851,3.023,3.023,0,0,0,1.533-.323.311.311,0,1,1,.286.552,3.551,3.551,0,0,1-1.635.4" fill="#1a1a1a"/>
    <path id="Trazado_605804" data-name="Trazado 605804" d="M89.839,57.937c-.352-.257-.326-.453-.19-.557l1.862-1.439L89.426,54.4a.311.311,0,0,1,.37-.5l2.416,1.789c.005.5-2.183,2.185-2.183,2.185a.308.308,0,0,1-.19.065" fill="#1a1a1a"/>
    <path id="Trazado_605805" data-name="Trazado 605805" d="M111.489,59.535a3.552,3.552,0,0,1-1.636-.4.312.312,0,0,1-.133-.42.316.316,0,0,1,.421-.132,2.931,2.931,0,0,0,4.274-2.786,2.959,2.959,0,0,0-3.109-2.742,2.9,2.9,0,0,0-.962.227.311.311,0,0,1-.244-.573,3.5,3.5,0,0,1,1.167-.274,3.552,3.552,0,1,1,.445,7.091c-.075.005-.149.008-.223.008" fill="#1a1a1a"/>
    <path id="Trazado_605806" data-name="Trazado 605806" d="M112.2,57.937c-.19-.065-2.378-1.754-2.378-1.754.005-.5,2.422-2.285,2.422-2.285a.314.314,0,0,1,.435.065.31.31,0,0,1-.065.435l-2.086,1.544,1.862,1.438a.311.311,0,0,1-.19.557" fill="#1a1a1a"/>
    <path id="Trazado_605807" data-name="Trazado 605807" d="M133.709,130.272c-3.916,0-8.151-1.947-10.942-8.787a.311.311,0,0,1,.576-.236c2.881,7.061,7.623,9.7,14.1,7.841,10.9-3.127,7.9-16.949,6.913-21.491-1.439-6.636-5.336-23.073-5.375-23.239a.31.31,0,0,1,.232-.374.313.313,0,0,1,.374.231c.039.164,3.936,16.609,5.377,23.251,1.016,4.682,4.106,18.933-7.348,22.22a14.266,14.266,0,0,1-3.9.584" fill="#1a1a1a"/>
    <path id="Trazado_605808" data-name="Trazado 605808" d="M101.622,67.73h-1.244a8.545,8.545,0,0,1-5.585-1.852c-1.369-1.174-2.275-3.059-2.77-5.762a80.6,80.6,0,0,1-.37-9.284.311.311,0,0,1,.622.01A80.851,80.851,0,0,0,92.635,60c.468,2.558,1.306,4.324,2.562,5.4a7.929,7.929,0,0,0,5.181,1.7h1.244a7.927,7.927,0,0,0,5.18-1.7c1.256-1.077,2.093-2.843,2.562-5.4a59.486,59.486,0,0,0,.313-7.812.311.311,0,0,1,.306-.316.292.292,0,0,1,.316.307,60.2,60.2,0,0,1-.322,7.933c-.5,2.7-1.4,4.588-2.771,5.762a8.543,8.543,0,0,1-5.584,1.852" fill="#1a1a1a"/>
    <path id="Trazado_605809" data-name="Trazado 605809" d="M94.793,66.787a.312.312,0,0,1-.312-.313l.011-1.009a.311.311,0,0,1,.621.007L95.1,66.48a.31.31,0,0,1-.311.307" fill="#1a1a1a"/>
    <path id="Trazado_605810" data-name="Trazado 605810" d="M107.228,66.669a.312.312,0,0,1-.311-.322l.032-.89a.29.29,0,0,1,.322-.3.312.312,0,0,1,.3.323l-.031.89a.31.31,0,0,1-.311.3" fill="#1a1a1a"/>
    <path id="Trazado_605811" data-name="Trazado 605811" d="M111.286,53.056a.321.321,0,0,1-.308-.359,17.62,17.62,0,0,0-.7-9.227c-1.535-4.368-7.949-5.323-12.017-4.614a7.982,7.982,0,0,0-4.806,3.051,4.554,4.554,0,0,0-1.675.854.311.311,0,0,1-.411-.467,3.8,3.8,0,0,1,1.644-.838,8.515,8.515,0,0,1,5.141-3.213c4.278-.751,11.055.309,12.712,5.021a18.221,18.221,0,0,1,.726,9.529.311.311,0,0,1-.307.263" fill="#1a1a1a"/>
    <path id="Trazado_605812" data-name="Trazado 605812" d="M90.689,53.049a13.369,13.369,0,0,1-1.036-5.709.311.311,0,0,1,.622,0,22.021,22.021,0,0,0,.714,5.31.312.312,0,0,1-.216.384.3.3,0,0,1-.084.011" fill="#1a1a1a"/>
    <path id="Trazado_605813" data-name="Trazado 605813" d="M74.566,141.41a.318.318,0,0,1-.309-.343l.582-5.567a.294.294,0,0,1,.342-.276.31.31,0,0,1,.277.341l-.582,5.567a.312.312,0,0,1-.31.278" fill="#1a1a1a"/>
    <path id="Trazado_605814" data-name="Trazado 605814" d="M78.373,106.346a.319.319,0,0,1-.309-.351L80.1,90.209a.312.312,0,0,1,.618.079l-2.039,15.787a.311.311,0,0,1-.308.271" fill="#1a1a1a"/>
    <path id="Trazado_605815" data-name="Trazado 605815" d="M125.018,141.41a.312.312,0,0,1-.31-.282c-2.12-22.48-3.727-35.859-4.7-43.126a.31.31,0,0,1,.267-.35.306.306,0,0,1,.35.267c.975,7.272,2.582,20.661,4.7,43.151a.312.312,0,0,1-.281.339h-.029" fill="#1a1a1a"/>
    <path id="Trazado_605816" data-name="Trazado 605816" d="M94.47,52.046c-.268-.077-.351-.255-.292-.417.557-1.535,2.687-1.979,3.951-1.7a.311.311,0,0,1,.235.372.3.3,0,0,1-.371.235c-1.04-.229-2.816.158-3.231,1.3a.31.31,0,0,1-.292.2" fill="#1a1a1a"/>
    <path id="Trazado_605817" data-name="Trazado 605817" d="M106.982,52.046a3.383,3.383,0,0,0-3.523-1.506.311.311,0,0,1-.136-.607c1.265-.284,3.394.161,3.951,1.7a.311.311,0,0,1-.186.4.283.283,0,0,1-.106.019" fill="#1a1a1a"/>
    <path id="Trazado_605818" data-name="Trazado 605818" d="M94.318,43.695a11.5,11.5,0,0,1-1.255-1.546.311.311,0,1,1,.508-.359l1,1.415a.312.312,0,0,1-.076.434.306.306,0,0,1-.179.056" fill="#1a1a1a"/>
    <path id="Trazado_605819" data-name="Trazado 605819" d="M128.174,79.735c-5.989-6.985-12.013-8.3-16.62-8.684a.312.312,0,0,1-.283-.337.3.3,0,0,1,.335-.284c4.727.392,10.909,1.744,16.807,8.794a.313.313,0,0,1-.039.439.308.308,0,0,1-.2.072" fill="#1a1a1a"/>
    <path id="Trazado_605821" data-name="Trazado 605821" d="M118.854,94.9a4.573,4.573,0,0,1-2.291-.5,2.213,2.213,0,0,1-1.083-1.432c-.51-2.084,2.082-3.515,2.192-3.575a.311.311,0,1,1,.3.547c-.023.013-2.281,1.264-1.885,2.88a1.594,1.594,0,0,0,.792,1.043c1.028.6,2.914.556,5.308-.124a75.394,75.394,0,0,0,9.365-3.966.311.311,0,0,1,.279.557,74.615,74.615,0,0,1-9.474,4.009,13.139,13.139,0,0,1-3.5.56" fill="#1a1a1a"/>
    <path id="Trazado_605822" data-name="Trazado 605822" d="M121.239,97.988a3.859,3.859,0,0,1-2.446-.628c-1.8-1.515-.863-2.961-.855-2.976a.312.312,0,0,1,.52.344c-.035.054-.614,1.019.737,2.156,1.427,1.2,7.015.081,11.725-2.348a20.429,20.429,0,0,0,6.234-4.783,8.5,8.5,0,0,0,1.683-7.036,13.736,13.736,0,0,0-3.112-6.685c-.152-.179-.305-.349-.457-.516a4.86,4.86,0,0,1-1.591-2.927c-.044-.544-.061-1.151-.078-1.779-.068-2.417-.143-5.156-1.8-5.564a2.644,2.644,0,0,0-2.661.628c-1.208,1.23-1.418,3.742-.577,6.893.29,1.085.608,2.162.928,3.238l.354,1.2a1.6,1.6,0,0,1,.045,1.054,1.558,1.558,0,0,1-.492.6,22.1,22.1,0,0,1-6.986,3.944c-3.482,1.207-5.535,2.525-6.1,3.917a2.139,2.139,0,0,0,.111,1.85,1.471,1.471,0,0,0,.942.671c2.1.661,7.374-.317,13.01-3.42a.312.312,0,1,1,.3.546c-5.165,2.841-10.839,4.3-13.5,3.468a2.061,2.061,0,0,1-1.314-.987,2.769,2.769,0,0,1-.13-2.363c.648-1.587,2.767-2.983,6.475-4.27A21.479,21.479,0,0,0,129,78.381a1.029,1.029,0,0,0,.313-.352,1.089,1.089,0,0,0-.065-.649l-.353-1.2c-.321-1.083-.642-2.165-.932-3.255-.9-3.369-.631-6.1.733-7.49a3.282,3.282,0,0,1,3.255-.8c2.115.522,2.2,3.511,2.272,6.15.017.618.033,1.214.077,1.747a4.318,4.318,0,0,0,1.433,2.56c.155.172.312.346.468.528a14.361,14.361,0,0,1,3.252,6.989,9.11,9.11,0,0,1-1.825,7.541,21.027,21.027,0,0,1-6.42,4.933c-3.24,1.67-7.271,2.9-9.967,2.9" fill="#1a1a1a"/>
    <path id="Trazado_605823" data-name="Trazado 605823" d="M92.222,60.94H82.181a.311.311,0,0,1,0-.622H92.222a.311.311,0,0,1,0,.622" fill="#1a1a1a"/>
    <path id="Trazado_605824" data-name="Trazado 605824" d="M109.373,38.267a.311.311,0,0,1-.311-.311V8.934a8.321,8.321,0,0,0-8.31-8.312H31.077a8.321,8.321,0,0,0-8.311,8.312V22.458a.311.311,0,1,1-.621,0V8.934A8.942,8.942,0,0,1,31.077,0h69.675a8.943,8.943,0,0,1,8.932,8.934V37.956a.31.31,0,0,1-.311.311" fill="#1a1a1a"/>
    <path id="Trazado_605825" data-name="Trazado 605825" d="M46.454,60.94H31.077a8.943,8.943,0,0,1-8.933-8.933.311.311,0,0,1,.622,0,8.32,8.32,0,0,0,8.311,8.311H46.454a.311.311,0,1,1,0,.622" fill="#1a1a1a"/>
    <path id="Trazado_605826" data-name="Trazado 605826" d="M180.841,118.819h-34.8a.311.311,0,1,1,0-.622h34.8A7.165,7.165,0,0,0,188,111.041V84.984a.311.311,0,1,1,.622,0v26.057a7.787,7.787,0,0,1-7.778,7.778" fill="#1a1a1a"/>
    <path id="Trazado_605827" data-name="Trazado 605827" d="M188.309,72.4a.309.309,0,0,1-.311-.311V69.34a7.165,7.165,0,0,0-7.156-7.156H125.054A7.165,7.165,0,0,0,117.9,69.34V71.9a.311.311,0,1,1-.621,0V69.34a7.786,7.786,0,0,1,7.777-7.778h55.788a7.787,7.787,0,0,1,7.778,7.778v2.752a.31.31,0,0,1-.311.311" fill="#1a1a1a"/>
    <path id="Trazado_605828" data-name="Trazado 605828" d="M99.336,135.966H19.873a7.787,7.787,0,0,1-7.778-7.778V113.876a7.787,7.787,0,0,1,7.778-7.779H44.491a.311.311,0,0,1,0,.622H19.873a7.166,7.166,0,0,0-7.157,7.157v14.312a7.165,7.165,0,0,0,7.157,7.155H99.336a7.164,7.164,0,0,0,7.156-7.155V113.876a7.165,7.165,0,0,0-7.156-7.157H67.419a.311.311,0,0,1,0-.622H99.336a7.787,7.787,0,0,1,7.778,7.779v14.312a7.787,7.787,0,0,1-7.778,7.778" fill="#1a1a1a"/>
    <path id="Trazado_605829" data-name="Trazado 605829" d="M64.517,46.4c-.364-.4-1.987-5.087,1.113-7.514,1.721-1.347,3.814-1.287,6.032-1.229a17.737,17.737,0,0,0,5.836-.53,45,45,0,0,0,4.937-1.963c3.388-1.5,6.315-2.8,7.952-1.683a2.272,2.272,0,0,1,.684,2.649C90.234,39,86.081,42.2,78.94,42.421a.315.315,0,0,1-.32-.3.31.31,0,0,1,.3-.32c7.862-.248,11-3.929,11.552-5.842A1.665,1.665,0,0,0,90.036,34c-1.347-.92-4.263.369-7.35,1.737a45.236,45.236,0,0,1-5.008,1.991,18.255,18.255,0,0,1-6.034.555c-2.191-.058-4.084-.112-5.631,1.1-2.745,2.149-1.219,6.563-1.2,6.608a.311.311,0,0,1-.19.4.3.3,0,0,1-.1.018" fill="#1a1a1a"/>
    <path id="Trazado_605830" data-name="Trazado 605830" d="M81.179,45.242q-1.01,0-2.059-.079a.311.311,0,0,1-.286-.334.293.293,0,0,1,.333-.286c6.3.478,11.816-1.37,12.85-4.3a2.243,2.243,0,0,0-.033-2.023,2.385,2.385,0,0,0-1.673-.851.312.312,0,0,1-.293-.329.32.32,0,0,1,.329-.293A3.005,3.005,0,0,1,92.5,37.875a2.818,2.818,0,0,1,.1,2.575c-1.023,2.9-5.676,4.791-11.424,4.792" fill="#1a1a1a"/>
    <path id="Trazado_605831" data-name="Trazado 605831" d="M71.633,49.394a.311.311,0,0,1-.016-.622c5.5-.293,6.174-5.667,6.18-5.721a.323.323,0,0,1,.344-.275.314.314,0,0,1,.275.345c-.006.059-.743,5.952-6.767,6.273Z" fill="#1a1a1a"/>
    <path id="Trazado_605832" data-name="Trazado 605832" d="M80.045,62.184a2.279,2.279,0,0,1-.729-.121c-1.856-.624-3.027-3.53-3.444-4.75-.339-.992-1.779-1.535-2.64-1.859a19.126,19.126,0,0,0-2.665-.72c-.54-.119-1.082-.239-1.618-.384a5.764,5.764,0,0,1-3.808-3.139,10.335,10.335,0,0,1-.935-5.138.322.322,0,0,1,.329-.293.312.312,0,0,1,.293.328,9.7,9.7,0,0,0,.872,4.829,5.1,5.1,0,0,0,3.413,2.813c.526.143,1.057.26,1.587.376a19.73,19.73,0,0,1,2.751.745c.963.363,2.576.97,3.01,2.24.3.884,1.416,3.811,3.053,4.363a1.855,1.855,0,0,0,1.687-.312A2.938,2.938,0,0,0,82.449,58.8a7,7,0,0,0-2.413-5.247,16.72,16.72,0,0,0-2.686-1.861,1.037,1.037,0,0,1-.576-.6.923.923,0,0,1,.059-.567,2.006,2.006,0,0,1,1.315-1.2,5.173,5.173,0,0,1,1.277-.175,37.7,37.7,0,0,0,6.287-.826,15.129,15.129,0,0,0,4.865-1.8A3.2,3.2,0,0,0,92,44.991a2.03,2.03,0,0,0-1.217-2.45.312.312,0,0,1-.168-.407.316.316,0,0,1,.407-.168,2.623,2.623,0,0,1,1.573,3.205,3.746,3.746,0,0,1-1.68,1.874,15.713,15.713,0,0,1-5.065,1.888,38.443,38.443,0,0,1-6.334.837,4.814,4.814,0,0,0-1.185.151,1.373,1.373,0,0,0-.917.83c1.108.863,2.152,1.587,3.025,2.325a7.673,7.673,0,0,1,2.633,5.757,3.51,3.51,0,0,1-1.523,2.845,2.676,2.676,0,0,1-1.5.506" fill="#1a1a1a"/>
    <path id="Trazado_605833" data-name="Trazado 605833" d="M23.89,92.5h-9A5.735,5.735,0,0,1,9.165,86.77V80.1a5.734,5.734,0,0,1,5.728-5.727h9A5.734,5.734,0,0,1,29.618,80.1V86.77A5.735,5.735,0,0,1,23.89,92.5m-9-17.5a5.111,5.111,0,0,0-5.106,5.1V86.77a5.11,5.11,0,0,0,5.106,5.105h9A5.109,5.109,0,0,0,29,86.77V80.1A5.11,5.11,0,0,0,23.89,75Z" fill="#1a1a1a"/>
    <path id="Trazado_605834" data-name="Trazado 605834" d="M159.057,33.8H150.02a2.643,2.643,0,0,1-2.641-2.64V22.118a2.644,2.644,0,0,1,2.641-2.641h9.037a2.644,2.644,0,0,1,2.641,2.641v9.038a2.643,2.643,0,0,1-2.641,2.64M150.02,20.1A2.021,2.021,0,0,0,148,22.118v9.038a2.021,2.021,0,0,0,2.019,2.019h9.037a2.022,2.022,0,0,0,2.019-2.019V22.118a2.022,2.022,0,0,0-2.019-2.019Z" fill="#1a1a1a"/>
    <path id="Trazado_605835" data-name="Trazado 605835" d="M153.152,19.754c-1.966-5.014-4.81-8.335-8.747-10.082-5.5-2.443-13-1.684-22.3,2.256a.311.311,0,0,1-.241-.574c9.46-4.009,17.129-4.766,22.8-2.252,4.043,1.794,7.082,5.335,8.788,10.239a.31.31,0,0,1-.192.4.3.3,0,0,1-.1.017" fill="#1a1a1a"/>
    <path id="Trazado_605836" data-name="Trazado 605836" d="M118.822,16.4a3.471,3.471,0,1,1,3.471-3.471,3.476,3.476,0,0,1-3.471,3.471m0-6.321a2.85,2.85,0,1,0,2.85,2.85,2.853,2.853,0,0,0-2.85-2.85" fill="#1a1a1a"/>
    <path id="Trazado_605837" data-name="Trazado 605837" d="M154.539,30.1a3.472,3.472,0,1,1,3.471-3.471,3.475,3.475,0,0,1-3.471,3.471m0-6.321a2.85,2.85,0,1,0,2.849,2.85,2.853,2.853,0,0,0-2.849-2.85" fill="#1a1a1a"/>
    <path id="Trazado_605838" data-name="Trazado 605838" d="M171.835,45.62a18.11,18.11,0,0,1-7.422-1.452c-4.045-1.8-7.085-5.345-8.79-10.257a.311.311,0,0,1,.588-.2c1.67,4.814,4.514,8.143,8.454,9.893,5.5,2.444,13.007,1.688,22.308-2.253a.309.309,0,0,1,.407.165.313.313,0,0,1-.165.409c-5.821,2.464-10.964,3.7-15.38,3.7" fill="#1a1a1a"/>
    <path id="Trazado_605839" data-name="Trazado 605839" d="M190.255,43.816a3.472,3.472,0,1,1,3.472-3.472,3.475,3.475,0,0,1-3.472,3.472m0-6.321a2.85,2.85,0,1,0,2.85,2.849,2.853,2.853,0,0,0-2.85-2.849" fill="#1a1a1a"/>
    <path id="Trazado_605840" data-name="Trazado 605840" d="M87.427,117.4H41.736a.311.311,0,1,1,0-.622H87.427a.311.311,0,0,1,0,.622" fill="#1a1a1a"/>
    <path id="Trazado_605841" data-name="Trazado 605841" d="M87.427,125.106H41.736a.311.311,0,1,1,0-.622H87.427a.311.311,0,0,1,0,.622" fill="#1a1a1a"/>
    <path id="Trazado_605842" data-name="Trazado 605842" d="M25.846,126.356a5.325,5.325,0,1,1,5.324-5.325,5.331,5.331,0,0,1-5.324,5.325m0-10.027a4.7,4.7,0,1,0,4.7,4.7,4.709,4.709,0,0,0-4.7-4.7" fill="#1a1a1a"/>
    <path id="Trazado_605843" data-name="Trazado 605843" d="M104.589,15.053H27.175a.311.311,0,0,1,0-.622h77.414a.311.311,0,1,1,0,.622" fill="#1a1a1a"/>
    <path id="Trazado_605844" data-name="Trazado 605844" d="M99.667,11.038a3.375,3.375,0,1,1,3.374-3.374,3.379,3.379,0,0,1-3.374,3.374m0-6.126a2.751,2.751,0,1,0,2.752,2.752,2.755,2.755,0,0,0-2.752-2.752" fill="#1a1a1a"/>
    <path id="Trazado_605845" data-name="Trazado 605845" d="M92.383,7.663A3.063,3.063,0,1,1,89.321,4.6a3.061,3.061,0,0,1,3.062,3.063" fill="#fff"/>
    <path id="Trazado_605846" data-name="Trazado 605846" d="M89.321,11.038a3.375,3.375,0,1,1,3.373-3.374,3.378,3.378,0,0,1-3.373,3.374m0-6.126a2.751,2.751,0,1,0,2.751,2.752,2.755,2.755,0,0,0-2.751-2.752" fill="#1a1a1a"/>
    <path id="Trazado_605847" data-name="Trazado 605847" d="M78.975,11.038a3.375,3.375,0,1,1,3.373-3.374,3.379,3.379,0,0,1-3.373,3.374m0-6.126a2.752,2.752,0,1,0,2.753,2.752,2.755,2.755,0,0,0-2.753-2.752" fill="#1a1a1a"/>
    <path id="Trazado_605848" data-name="Trazado 605848" d="M70.264,79.255c-.354-.29-.311-.482-.166-.574a66.457,66.457,0,0,1,20.05-7.891.311.311,0,0,1,.117.61A65.755,65.755,0,0,0,70.43,79.207a.3.3,0,0,1-.166.048" fill="#1a1a1a"/>
    <path id="Trazado_605849" data-name="Trazado 605849" d="M115.093,87.919h-3.24a.311.311,0,0,1,0-.622h3.24a.311.311,0,0,1,0,.622m-6.479,0h-3.239a.311.311,0,1,1,0-.622h3.239a.311.311,0,1,1,0,.622m-6.479,0H98.9a.311.311,0,1,1,0-.622h3.239a.311.311,0,0,1,0,.622m-6.48,0h-3.24a.311.311,0,0,1,0-.622h3.24a.311.311,0,1,1,0,.622m-6.479,0h-3.24a.311.311,0,0,1,0-.622h3.24a.311.311,0,0,1,0,.622m-6.479,0H79.458a.311.311,0,0,1,0-.622H82.7a.311.311,0,1,1,0,.622m-6.479,0H72.977a.311.311,0,0,1,0-.622h3.241a.311.311,0,0,1,0,.622m-5.453-1.026a.31.31,0,0,1-.311-.311v-3.24a.311.311,0,1,1,.622,0v3.24a.311.311,0,0,1-.311.311m0-6.48a.31.31,0,0,1-.311-.311V76.863a.311.311,0,0,1,.622,0V80.1a.311.311,0,0,1-.311.311m0-6.479a.31.31,0,0,1-.311-.311v-3.24a.311.311,0,1,1,.622,0v3.24a.311.311,0,0,1-.311.311m0-6.48a.31.31,0,0,1-.311-.31V63.9a.311.311,0,1,1,.622,0v3.24a.311.311,0,0,1-.311.31m59.773-5.327a.311.311,0,0,1-.311-.311v-3.24a.311.311,0,1,1,.622,0v3.24a.311.311,0,0,1-.311.311M70.765,60.975a.31.31,0,0,1-.311-.311v-3.24a.311.311,0,1,1,.622,0v3.24a.311.311,0,0,1-.311.311m59.773-5.328a.31.31,0,0,1-.311-.311V52.1a.311.311,0,1,1,.622,0v3.239a.31.31,0,0,1-.311.311M70.765,54.5a.31.31,0,0,1-.311-.311v-3.24a.311.311,0,1,1,.622,0v3.24a.311.311,0,0,1-.311.311m59.773-5.328a.311.311,0,0,1-.311-.311v-3.24a.311.311,0,1,1,.622,0v3.24a.311.311,0,0,1-.311.311M70.765,48.017a.311.311,0,0,1-.311-.312V44.466a.311.311,0,1,1,.622,0v3.239a.312.312,0,0,1-.311.312m59.773-5.328a.311.311,0,0,1-.311-.311V41.223h-1.463a.311.311,0,1,1,0-.622h1.774a.311.311,0,0,1,.311.311v1.466a.311.311,0,0,1-.311.311M70.765,41.537a.31.31,0,0,1-.311-.311c0-.486.138-.625.311-.625H73.69a.311.311,0,0,1,0,.622l-2.614,0a.311.311,0,0,1-.311.311m54.759-.314h-3.239a.311.311,0,1,1,0-.622h3.239a.311.311,0,1,1,0,.622m-6.478,0h-3.24a.311.311,0,0,1,0-.622h3.24a.311.311,0,1,1,0,.622m-6.48,0h-3.24a.311.311,0,0,1,0-.622h3.24a.311.311,0,0,1,0,.622m-6.48,0h-3.239a.311.311,0,0,1,0-.622h3.239a.311.311,0,1,1,0,.622m-6.478,0h-3.24a.311.311,0,0,1,0-.622h3.24a.311.311,0,0,1,0,.622m-6.48,0h-3.24a.311.311,0,0,1,0-.622h3.24a.311.311,0,1,1,0,.622m-6.48,0H83.409a.311.311,0,0,1,0-.622h3.239a.311.311,0,0,1,0,.622m-6.479,0h-3.24a.311.311,0,1,1,0-.622h3.24a.311.311,0,1,1,0,.622" fill="#1a1a1a"/>
    <path id="Trazado_605850" data-name="Trazado 605850" d="M109.988,52.5a29.415,29.415,0,0,0-14.549-7.22c-.329.932-1.574,4.215-3.263,5.786a.314.314,0,0,1-.44-.016.31.31,0,0,1,.017-.44c1.822-1.694,3.168-5.731,3.181-5.771.41-.2,8.462.76,15.267,7.122a.314.314,0,0,1,.014.441.311.311,0,0,1-.227.1" fill="#1a1a1a"/>
    <path id="Trazado_605851" data-name="Trazado 605851" d="M100.74,59.7a3.682,3.682,0,0,1-2.684-1.229.982.982,0,0,1-.211-.95,7.378,7.378,0,0,1,.637-1.2,11.345,11.345,0,0,0,1.874-5.277.294.294,0,0,1,.336-.284.313.313,0,0,1,.284.337,12.046,12.046,0,0,1-1.961,5.546,6.986,6.986,0,0,0-.584,1.087,2.783,2.783,0,0,0,2.45,1.342.291.291,0,0,1,.33.29.309.309,0,0,1-.289.33c-.062,0-.121.007-.182.007" fill="#1a1a1a"/>
    <path id="Trazado_605852" data-name="Trazado 605852" d="M100.975,103.02a.31.31,0,0,1-.311-.311V79.955a.311.311,0,1,1,.622,0v22.754a.309.309,0,0,1-.311.311" fill="#1a1a1a"/>
    <path id="Trazado_605853" data-name="Trazado 605853" d="M66.054,52.573c-3.735-2.734-5.393-5.671-4.41-7.548A2.883,2.883,0,0,1,64.029,43.5a.309.309,0,0,1,.355.26.313.313,0,0,1-.259.356,2.3,2.3,0,0,0-1.931,1.2c-.821,1.566.805,4.26,4.047,6.7a.311.311,0,0,1-.187.559" fill="#1a1a1a"/>
    <path id="Trazado_605854" data-name="Trazado 605854" d="M75.73,56.848a19.883,19.883,0,0,1-6.594-2.282q-.224-.117-.444-.238a.311.311,0,1,1,.3-.545q.215.118.432.231a19.327,19.327,0,0,0,6.348,2.215.311.311,0,0,1-.042.619" fill="#1a1a1a"/>
    <path id="Trazado_605855" data-name="Trazado 605855" d="M81.215,54.658a.318.318,0,0,1-.31-.345c.138-1.246-.765-2.86-2.544-4.544a.312.312,0,0,1,.429-.452c1.922,1.822,2.894,3.62,2.734,5.064a.312.312,0,0,1-.309.277" fill="#1a1a1a"/>
    <path id="Trazado_605856" data-name="Trazado 605856" d="M103.918,62.086c-.371-.541-.92-3.173.518-3.536a1.217,1.217,0,0,1,1.215.257,2.52,2.52,0,0,1,.362,2.232.312.312,0,0,1-.607-.141,1.985,1.985,0,0,0-.192-1.646c-.05-.052-.206-.207-.626-.1-.672.169-.537,1.794-.366,2.553a.313.313,0,0,1-.236.372.4.4,0,0,1-.068.007" fill="#1a1a1a"/>
    <path id="Trazado_605857" data-name="Trazado 605857" d="M45.546,48.14a.311.311,0,0,1-.311-.311V18.6a.311.311,0,1,1,.622,0V47.829a.31.31,0,0,1-.311.311" fill="#1a1a1a"/>
    <path id="Trazado_605858" data-name="Trazado 605858" d="M106.416,55.443c-.074-.009-2.534-.615-2.534-.615-.1-.558,2.095-2.086,2.095-2.086a.315.315,0,0,1,.434.078.311.311,0,0,1-.079.433L104.7,54.389l1.791.441a.311.311,0,0,1-.075.613" fill="#1a1a1a"/>
  </g>
</svg>
