<svg xmlns="http://www.w3.org/2000/svg" xmlns:xlink="http://www.w3.org/1999/xlink" width="124.001" height="124" viewBox="0 0 124.001 124">
  <defs>
    <clipPath id="clip-path">
      <rect id="Rect치ngulo_346069" data-name="Rect치ngulo 346069" width="65.28" height="65.333" fill="none"/>
    </clipPath>
  </defs>
  <g id="Grupo_1015563" data-name="Grupo 1015563" transform="translate(-5787 6645.521)">
    <g id="Grupo_1015007" data-name="Grupo 1015007" transform="translate(5402.001 -8703.521)">
      <path id="Uni칩n_12" data-name="Uni칩n 12" d="M8464.769,11817.939a62.055,62.055,0,1,1,20.7-16.051l8.516,22.111Z" transform="translate(-7991 -9642)" fill="#a3bfe4"/>
      <circle id="Elipse_4842" data-name="Elipse 4842" cx="48" cy="48" r="48" transform="translate(399 2072)" fill="#e3ecf7"/>
    </g>
    <g id="Grupo_1015580" data-name="Grupo 1015580" transform="translate(5816.36 -6616.188)">
      <g id="Grupo_1015579" data-name="Grupo 1015579" clip-path="url(#clip-path)">
        <path id="Trazado_606311" data-name="Trazado 606311" d="M51.014,49.238c.027-.477.027-.477-.4-.27a18.759,18.759,0,0,1-4.142,1.512,19.3,19.3,0,0,1-2.564.361c-2.177.181-4.356.01-6.532.086-.031-.024-.046-.009-.052.023a1.989,1.989,0,0,0-.039.629q-.01,4.321-.013,8.641a5.121,5.121,0,0,1-.98,3.259,4.442,4.442,0,0,1-2.864,1.745,4.14,4.14,0,0,1-2.98-.517,5.352,5.352,0,0,1-1.828-1.829,4.563,4.563,0,0,1-.6-2.376q-.017-4.639,0-9.278c0-.236-.043-.307-.291-.306-1.775.007-3.551-.009-5.326,0a7.761,7.761,0,0,0-3.793,1.027,8.455,8.455,0,0,0-2.62,2.284,8.694,8.694,0,0,0-1.46,2.994c-.088.313-.085.631-.174.943-.155.546-.348.744-.9.774a.915.915,0,0,1-.955-1.085,6.4,6.4,0,0,1,.155-.9,10.3,10.3,0,0,1,1.339-3.148,10.635,10.635,0,0,1,2.846-2.963,10.5,10.5,0,0,1,6.138-1.854q9.551.008,19.1,0a18.835,18.835,0,0,0,3.523-.269,16.337,16.337,0,0,0,5.187-2c.1-.06.2-.119.216-.253a.131.131,0,0,0,0-.143,10.179,10.179,0,0,0-.429-3.3A9.307,9.307,0,0,0,49.7,41.1c-.106-.176-.172-.235-.37-.064a7.935,7.935,0,0,1-1.245.922,13.711,13.711,0,0,1-1.453.77,9.28,9.28,0,0,1-3.517.818c-6.281.031-12.563.014-18.844.014-1.12,0-2.238.019-3.357.116a14.587,14.587,0,0,0-3.141.65,14.44,14.44,0,0,0-5.055,2.774A16.148,16.148,0,0,0,9.8,50.24a15.367,15.367,0,0,0-2.672,6.651,4.082,4.082,0,0,1-.04.662,2.77,2.77,0,0,0-.128.791c-.035.794-.019,1.591,0,2.387A2.651,2.651,0,0,0,9.25,63.368a2.547,2.547,0,0,0,2.62-1.089,1.186,1.186,0,0,1,1.315-.592c.216.191.461.336.537.667a.865.865,0,0,1-.107.682,4.623,4.623,0,0,1-3.578,2.221A4.068,4.068,0,0,1,6.828,64.3a4.549,4.549,0,0,1-1.762-3.523c-.014-.816-.082-1.637-.023-2.448a18.8,18.8,0,0,1,.588-3.55,18.189,18.189,0,0,1,2.727-5.761,17.131,17.131,0,0,1,2.263-2.6A16.782,16.782,0,0,1,14.9,43.415a17.283,17.283,0,0,1,4.256-1.4,21.341,21.341,0,0,1,4.13-.375c1.456.012,2.913-.008,4.369,0,.287,0,.365-.094.365-.365q0-1.9.035-3.792c0-.232-.086-.253-.276-.253-1.977,0-3.954.008-5.931-.006a14.185,14.185,0,0,1-3.5-.534,19,19,0,0,1-5.032-2.143,12.6,12.6,0,0,1-2.281-1.687,23.393,23.393,0,0,1-3.006-3.39,14.562,14.562,0,0,1-.891-1.544,20.942,20.942,0,0,1-1.4-3.372A12.355,12.355,0,0,1,5.3,22.528q-.139-.988-.263-1.979a2.545,2.545,0,0,1,.013-.409.786.786,0,0,0-.03-.558c.068-.794.019-1.59.027-2.384,0-.2-.134-.169-.262-.178a9.135,9.135,0,0,1-1.737-.182,4,4,0,0,1-2.8-2.52,4.108,4.108,0,0,1-.116-2.412,2.951,2.951,0,0,1,.5-1.011C1.818,9.053,2.984,7.2,4.141,5.331Q5.241,3.557,6.4,1.817A3.729,3.729,0,0,1,9.642,0,3.876,3.876,0,0,1,13,1.859c.419.631.812,1.279,1.217,1.919.934,1.475,1.886,2.938,2.8,4.428.624,1.021,1.335,1.99,1.9,3.048a3.693,3.693,0,0,1-.325,4.034,3.876,3.876,0,0,1-3.365,1.671,2.12,2.12,0,0,0-.873.062A.133.133,0,0,0,14.322,17s-.015.013-.014.014c.015.024.028.022.039-.006-.094.844-.021,1.691-.046,2.536,0,.105-.008.21-.013.316-.007-.006-.015-.018-.02-.016-.03.009-.029.021,0,.027,0,0,.013-.012.019-.018a8.022,8.022,0,0,0,1.341,4.287,8.438,8.438,0,0,0,3.407,3.019,4.539,4.539,0,0,0,1.319.46c.256.036.487.211.758.244a10.952,10.952,0,0,0,1.427.1c1.689-.017,3.378-.01,5.067.008.319,0,.418-.048.416-.406-.018-3.3-.008-6.6-.006-9.907,0-.085-.006-.17-.009-.254.121-.082.169-.167.006-.256-.089-.317-.365-.274-.571-.241a3.646,3.646,0,0,1-3.181-1.022,4.02,4.02,0,0,1-1.3-3.451,3.584,3.584,0,0,1,.591-1.505c.565-.933,1.176-1.837,1.76-2.758,1.024-1.615,2.037-3.237,3.066-4.849a12.363,12.363,0,0,1,1.51-2.183A3.63,3.63,0,0,1,32.23.047,3.971,3.971,0,0,1,34.7.619a6.434,6.434,0,0,1,1.956,2.317q1.2,1.908,2.4,3.821c.465.739.915,1.489,1.4,2.213a1,1,0,0,1-.215,1.437.942.942,0,0,1-1.348-.43c-.8-1.25-1.593-2.507-2.387-3.762-.7-1.1-1.423-2.189-2.083-3.314a2.118,2.118,0,0,0-3.441-.137c-.456.73-.926,1.451-1.39,2.176-.51.8-1.023,1.595-1.53,2.4-.573.9-1.145,1.808-1.708,2.718-.408.658-.87,1.283-1.225,1.973A1.977,1.977,0,0,0,25.48,14.5a1.933,1.933,0,0,0,1.46.55q5.659-.012,11.317,0a2.021,2.021,0,0,0,2.04-1.329.983.983,0,0,1,1.031-.724.918.918,0,0,1,.775,1.19,3.623,3.623,0,0,1-2.4,2.525,5.63,5.63,0,0,1-2.018.251c-.123,0-.253-.034-.365.054a.16.16,0,0,0-.024,0s0,.01,0,.016L37.315,17c-.011.221-.033.442-.033.663q0,4.955.01,9.91c0,.118-.087.247.023.358.012.045.031.06.067.019,1.679,0,3.357-.018,5.036.012a19.009,19.009,0,0,1,5.374.826,19.7,19.7,0,0,1,2.924,1.179c.116.058.3.243.3-.1Q51,24.055,51,18.241a.4.4,0,0,0-.009-.063.411.411,0,0,0,0-.333c0-.138,0-.276,0-.414,0-.41,0-.389-.43-.415a6.353,6.353,0,0,1-1.764-.2,4.2,4.2,0,0,1-2.868-4.129,4.021,4.021,0,0,1,.417-1.347,14.714,14.714,0,0,1,1.008-1.651c.659-1.117,1.4-2.18,2.064-3.3.592-1,1.243-1.956,1.876-2.927.4-.612.739-1.26,1.18-1.845A3.727,3.727,0,0,1,54.894.065a4.061,4.061,0,0,1,4.3,2.17c.824,1.377,1.712,2.716,2.57,4.073q1.009,1.6,2.013,3.2c.359.573.748,1.131,1.058,1.73a3.77,3.77,0,0,1,.418,2.2,3.949,3.949,0,0,1-.948,2.16A3.746,3.746,0,0,1,62.351,16.8a7.107,7.107,0,0,1-1.877.153c-.18,0-.265.029-.264.239q.018,3.378.021,6.756.006,4.639.005,9.279a16.839,16.839,0,0,1-.521,4.124,10.711,10.711,0,0,1-.5,1.7,1.177,1.177,0,0,0,.065.917,18.01,18.01,0,0,1,.758,3.179,19.772,19.772,0,0,1,.2,3.019q-.011,7.126,0,14.252a4.964,4.964,0,0,1-.779,2.794,4.522,4.522,0,0,1-2.994,2.018,4.138,4.138,0,0,1-3.343-.651,5.092,5.092,0,0,1-2.078-3.115A6.159,6.159,0,0,1,51,60.2q0-5.451.01-10.9a.036.036,0,0,0,.007-.056m-13.7-7.616c.084.008.168.023.252.024q2.071,0,4.143,0a12.454,12.454,0,0,0,2.539-.185A8.38,8.38,0,0,0,48.1,39.629c.151-.13.2-.2.007-.37A8.23,8.23,0,0,0,42.8,37.247c-1.253-.029-2.507-.005-3.76-.005-.52,0-1.041,0-1.561,0-.142,0-.263,0-.215.2a.034.034,0,0,0,0,.054l.018,4.016c-.024.047-.054.1.03.115m-7.381,11.5c0,.7-.008,1.4-.007,2.1q0,2.749.015,5.5l.01.089a2.674,2.674,0,0,0,2.33,2.572,2.629,2.629,0,0,0,2.4-.907,2.956,2.956,0,0,0,.724-2.141c-.02-1.658,0-3.315-.007-4.973,0-.956-.01-1.912-.015-2.868,0-.435,0-.87.012-1.3.007-.2-.068-.26-.257-.26q-2.485,0-4.969-.016c-.178,0-.25.071-.246.245.009.424.013.848.019,1.272,0,.041,0,.082,0,.124,0,.021,0,.042,0,.063q0,.225,0,.45a.048.048,0,0,0,0,.057M52.908,31.144l-.015.016.018.014a.365.365,0,0,0,.2.273c.375.254.706.564,1.051.852a15.565,15.565,0,0,1,3.3,3.833,1.8,1.8,0,0,0,.5.651c.032-.1.064-.183.081-.265a17.285,17.285,0,0,0,.314-3.453c.029-4.122.015-8.243.013-12.365a8.719,8.719,0,0,1-.043-.906c.092-.866.006-1.732.042-2.6.008-.184-.071-.238-.246-.237q-2.566.01-5.132.011c-.026-.018-.041-.012-.043.02a1.041,1.041,0,0,0-.036.409q0,3.472,0,6.943,0,2.6.015,5.192l-.018.014.017.015q-.007.79-.014,1.58M35.336,19.64c.017-.024.05-.048.05-.071,0-.806,0-1.612,0-2.418,0-.162-.092-.189-.226-.189q-2.514,0-5.029,0c-.174,0-.217.08-.216.233.008.837.013,1.675.019,2.512-.006.116-.016.233-.016.349q0,5.907,0,11.813,0,4.123.01,8.246-.011.619-.022,1.239c0,.215.1.3.314.294q2.436-.009,4.871,0c.219,0,.31-.073.3-.292-.013-.434-.017-.869-.024-1.3.005-.127.016-.254.016-.381,0-2.113.012-4.226,0-6.339-.027-4.562.072-9.124-.053-13.686m5.028,10.223c-.777,0-1.755.01-2.733-.007-.264,0-.343.055-.34.329.013,1.594.016,3.188,0,4.782,0,.3.074.366.367.37,1.867.021,3.735-.079,5.6.053a10.379,10.379,0,0,1,2.9.6,9.762,9.762,0,0,1,2.807,1.572,10.3,10.3,0,0,1,2.517,2.9,9.833,9.833,0,0,1,1.407,5.334q-.009,7.221,0,14.442a4.486,4.486,0,0,0,.054.975A2.72,2.72,0,0,0,58,61.976a3.108,3.108,0,0,0,.369-1.6q-.013-6.9-.005-13.8c0-.876-.042-1.75-.122-2.623a14.548,14.548,0,0,0-1.08-4.368A15.345,15.345,0,0,0,55.323,36.3a15.959,15.959,0,0,0-1.389-1.653,16.616,16.616,0,0,0-3.757-2.841,15.792,15.792,0,0,0-6.681-1.9c-.976-.07-1.954-.059-3.132-.047m-15.8,5.466v0c1.031,0,2.063-.011,3.093.007.285.005.362-.079.359-.356q-.021-2.391-.009-4.782c0-.271-.09-.337-.35-.336-1.637.008-3.273,0-4.91,0a9.7,9.7,0,0,1-2.442-.252,10.281,10.281,0,0,1-6.849-5.508,9.48,9.48,0,0,1-1.041-4.432c.006-.8-.006-1.594,0-2.391,0-.2-.038-.314-.279-.313q-2.471.011-4.943,0c-.2,0-.254.064-.253.258.008.893.03,1.786-.006,2.678a13.65,13.65,0,0,0,.229,2.544,12.1,12.1,0,0,0,.8,2.787,16.073,16.073,0,0,0,3.441,5.359,15.854,15.854,0,0,0,7.757,4.378,13.411,13.411,0,0,0,2.375.353c1.007.052,2.019.013,3.028.013M9.633,15.046q2.918,0,5.835,0a1.95,1.95,0,0,0,1.093-.329,2.186,2.186,0,0,0,.468-3q-2.789-4.378-5.545-8.777A2.059,2.059,0,0,0,9.692,1.912,2.023,2.023,0,0,0,7.874,2.956Q7.028,4.286,6.189,5.62,4.2,8.771,2.213,11.922A1.918,1.918,0,0,0,1.9,13.031a2.014,2.014,0,0,0,2.021,2.015H9.633m45.892,0h5.452a4.638,4.638,0,0,0,.819-.056A1.924,1.924,0,0,0,63.384,13a2.78,2.78,0,0,0-.5-1.43q-1.94-3.046-3.862-6.1c-.533-.843-1.081-1.676-1.6-2.529a2.094,2.094,0,0,0-3.572-.028c-.379.614-.768,1.221-1.153,1.831q-2.274,3.607-4.546,7.215a1.853,1.853,0,0,0-.252,1.537,2.006,2.006,0,0,0,1.946,1.551c1.892.006,3.784,0,5.676,0" transform="translate(0 -0.001)" fill="#060607"/>
        <path id="Trazado_606312" data-name="Trazado 606312" d="M33.344,180.637a1.186,1.186,0,0,0-1.315.592,2.547,2.547,0,0,1-2.62,1.089,2.65,2.65,0,0,1-2.294-2.637c-.018-.8-.035-1.593,0-2.387a2.753,2.753,0,0,1,.128-.791,4.114,4.114,0,0,0,.04-.662,15.367,15.367,0,0,1,2.672-6.651,16.141,16.141,0,0,1,2.919-3.145,14.436,14.436,0,0,1,5.055-2.774,14.583,14.583,0,0,1,3.141-.65c1.119-.1,2.236-.116,3.356-.116,6.282,0,12.563.018,18.844-.014a9.287,9.287,0,0,0,3.517-.818,13.7,13.7,0,0,0,1.453-.77,7.966,7.966,0,0,0,1.245-.922c.2-.171.263-.112.37.064a9.31,9.31,0,0,1,.877,1.935,10.185,10.185,0,0,1,.429,3.3c-.055.047-.04.1,0,.144-.013.135-.112.194-.215.253a16.341,16.341,0,0,1-5.187,2,18.86,18.86,0,0,1-3.523.269q-9.551,0-19.1,0A10.5,10.5,0,0,0,37,169.794a10.64,10.64,0,0,0-2.846,2.963,10.305,10.305,0,0,0-1.339,3.148,6.365,6.365,0,0,0-.155.9.915.915,0,0,0,.955,1.085,8.816,8.816,0,0,0-.13,2.169,1.53,1.53,0,0,1-.138.58" transform="translate(-20.16 -118.95)" fill="#92d3f6"/>
        <path id="Trazado_606313" data-name="Trazado 606313" d="M113.553,18.649a.984.984,0,0,0-1.031.724,2.02,2.02,0,0,1-2.04,1.33q-5.659-.007-11.317,0a1.932,1.932,0,0,1-1.459-.55,1.978,1.978,0,0,1-.344-2.474c.355-.69.818-1.315,1.225-1.972.563-.91,1.136-1.814,1.708-2.718.507-.8,1.02-1.6,1.53-2.4.464-.725.934-1.446,1.39-2.176a2.119,2.119,0,0,1,3.441.137c.66,1.125,1.385,2.211,2.083,3.314.794,1.255,1.585,2.512,2.387,3.762a.942.942,0,0,0,1.348.43c.264.5.629.937.854,1.458a2.526,2.526,0,0,1,.226,1.128" transform="translate(-72.225 -5.656)" fill="#e0728c"/>
        <path id="Trazado_606314" data-name="Trazado 606314" d="M19.382,76.494a.786.786,0,0,1,.03.558.49.49,0,0,1-.03-.558" transform="translate(-14.367 -56.911)" fill="#86b968"/>
        <path id="Trazado_606315" data-name="Trazado 606315" d="M198.867,69.709a.411.411,0,0,1,0,.333c-.133-.113-.144-.223,0-.333" transform="translate(-147.876 -51.863)" fill="#86b968"/>
        <path id="Trazado_606316" data-name="Trazado 606316" d="M109.345,66.979c.162.089.115.174-.006.256a.325.325,0,0,1,.006-.256" transform="translate(-81.331 -49.832)" fill="#86b968"/>
        <path id="Trazado_606317" data-name="Trazado 606317" d="M145.832,109.14c-.036.041-.055.026-.067-.018l.067.018" transform="translate(-108.449 -81.187)" fill="#86b968"/>
        <path id="Trazado_606318" data-name="Trazado 606318" d="M55.693,77.535c-.006.006-.014.019-.019.018-.031-.007-.031-.018,0-.027,0,0,.013.01.02.016v-.007" transform="translate(-41.404 -57.679)" fill="#86b968"/>
        <path id="Trazado_606319" data-name="Trazado 606319" d="M199.2,192.333a.036.036,0,0,1-.007.056.3.3,0,0,1-.017-.042s.016-.009.024-.013" transform="translate(-148.188 -143.095)" fill="#86b968"/>
        <path id="Trazado_606320" data-name="Trazado 606320" d="M145.8,198.923c.007-.032.021-.047.052-.023l-.052.023" transform="translate(-108.472 -147.973)" fill="#86b968"/>
        <path id="Trazado_606321" data-name="Trazado 606321" d="M148.733,116.621c1.178-.012,2.157-.023,3.132.047a15.8,15.8,0,0,1,6.681,1.9,16.627,16.627,0,0,1,3.757,2.841,15.987,15.987,0,0,1,1.388,1.653,15.369,15.369,0,0,1,1.841,3.282,14.557,14.557,0,0,1,1.08,4.368c.079.873.122,1.747.122,2.623q0,6.9.005,13.8a3.108,3.108,0,0,1-.369,1.6,2.72,2.72,0,0,1-5.061-.764,4.489,4.489,0,0,1-.054-.976q0-7.221,0-14.442a10.8,10.8,0,0,0-.39-3.013,10.913,10.913,0,0,0-1.017-2.321,10.288,10.288,0,0,0-2.517-2.9,9.756,9.756,0,0,0-2.807-1.572,10.359,10.359,0,0,0-2.9-.6c-1.867-.132-3.735-.033-5.6-.054-.293,0-.37-.068-.367-.37.018-1.594.016-3.188,0-4.782,0-.273.077-.334.34-.329.977.017,1.955.007,2.733.007" transform="translate(-108.369 -86.759)" fill="#86b968"/>
        <path id="Trazado_606322" data-name="Trazado 606322" d="M44.713,84.611c-1.01,0-2.021.04-3.028-.013a13.44,13.44,0,0,1-2.375-.353,15.855,15.855,0,0,1-7.757-4.378,16.073,16.073,0,0,1-3.441-5.359,12.1,12.1,0,0,1-.8-2.787,13.65,13.65,0,0,1-.229-2.544c.036-.891.014-1.785.006-2.678,0-.194.057-.259.253-.258q2.471.009,4.943,0c.241,0,.28.112.279.313,0,.8.008,1.594,0,2.391a9.478,9.478,0,0,0,1.041,4.432,10.281,10.281,0,0,0,6.849,5.507,9.694,9.694,0,0,0,2.442.252c1.637,0,3.273.012,4.91,0,.261,0,.352.065.35.336q-.012,2.391.009,4.782c0,.277-.074.361-.359.356-1.031-.018-2.062-.007-3.093-.007Z" transform="translate(-20.144 -49.283)" fill="#86b968"/>
        <path id="Trazado_606323" data-name="Trazado 606323" d="M15.166,20.6H9.459a2.014,2.014,0,0,1-2.021-2.015,1.921,1.921,0,0,1,.309-1.108q1.986-3.152,3.976-6.3.841-1.333,1.685-2.664a2.022,2.022,0,0,1,1.817-1.043,2.058,2.058,0,0,1,1.793,1.021q2.766,4.393,5.545,8.777a2.185,2.185,0,0,1-.467,3A1.951,1.951,0,0,1,21,20.6q-2.918.006-5.835,0" transform="translate(-5.533 -5.555)" fill="#86b968"/>
        <path id="Trazado_606324" data-name="Trazado 606324" d="M194.541,20.633c-1.892,0-3.784,0-5.676,0a2.007,2.007,0,0,1-1.946-1.551,1.854,1.854,0,0,1,.252-1.537q2.266-3.612,4.546-7.215c.385-.61.774-1.217,1.153-1.831a2.094,2.094,0,0,1,3.572.028c.517.852,1.065,1.686,1.6,2.529q1.93,3.052,3.862,6.1a2.782,2.782,0,0,1,.5,1.43,1.925,1.925,0,0,1-1.588,1.989,4.614,4.614,0,0,1-.819.056h-5.452" transform="translate(-139.016 -5.588)" fill="#92d3f6"/>
        <path id="Trazado_606325" data-name="Trazado 606325" d="M116.884,97.178q0-4.123-.01-8.246,0-5.906,0-11.813c0-.116.01-.233.016-.349a.481.481,0,0,1,.336-.063h5.065c.125,4.562.026,9.124.053,13.686.013,2.113,0,4.226,0,6.339,0,.127-.01.254-.016.381a3.106,3.106,0,0,1-.836.062c-1.535.012-3.071,0-4.606,0" transform="translate(-86.952 -57.068)" fill="#e0728c"/>
        <path id="Trazado_606326" data-name="Trazado 606326" d="M206.67,78.827q-.008-2.6-.015-5.192,0-3.471,0-6.943a1.039,1.039,0,0,1,.036-.408c.028.023.04.009.043-.021q2.566,0,5.132-.011c.175,0,.253.053.246.237-.035.865.05,1.731-.042,2.6a8.645,8.645,0,0,0,.043.905c0,4.122.016,8.244-.013,12.365a17.27,17.27,0,0,1-.314,3.453c-.017.082-.049.161-.081.265a1.8,1.8,0,0,1-.5-.651,15.57,15.57,0,0,0-3.3-3.833,13.523,13.523,0,0,0-1.051-.852.365.365,0,0,1-.2-.273l.017-.017-.019-.013.014-1.58.015-.014-.014-.015" transform="translate(-153.747 -49.291)" fill="#92d3f6"/>
        <path id="Trazado_606327" data-name="Trazado 606327" d="M116.9,213.061q-.008-2.75-.015-5.5c0-.7,0-1.4.007-2.1.007-.005.02-.013.019-.016a.266.266,0,0,0-.02-.041q0-.225,0-.45c.007-.006.021-.013.02-.017a.263.263,0,0,0-.018-.046c0-.041,0-.082,0-.124q2.5,0,5-.006a1.291,1.291,0,0,1,.435.069c.005.956.013,1.912.015,2.868,0,1.658-.013,3.315.007,4.973a2.957,2.957,0,0,1-.724,2.141,2.629,2.629,0,0,1-2.4.907,2.673,2.673,0,0,1-2.33-2.572l-.01-.089" transform="translate(-86.96 -152.344)" fill="#e0728c"/>
        <path id="Trazado_606328" data-name="Trazado 606328" d="M122.279,68.92h-5.065a.481.481,0,0,0-.336.063c-.006-.837-.01-1.675-.019-2.512,0-.153.042-.233.216-.233q2.515.007,5.029,0c.134,0,.227.027.226.189,0,.806,0,1.612,0,2.418,0,.024-.033.048-.05.071" transform="translate(-86.943 -49.281)" fill="#d1445a"/>
        <path id="Trazado_606329" data-name="Trazado 606329" d="M116.857,156.491c1.535,0,3.071.009,4.606,0a3.106,3.106,0,0,0,.836-.062c.007.435.011.87.024,1.3.007.219-.083.293-.3.292q-2.436-.009-4.871,0c-.214,0-.318-.079-.314-.294q.012-.62.022-1.239" transform="translate(-86.925 -116.381)" fill="#d1445a"/>
        <path id="Trazado_606330" data-name="Trazado 606330" d="M122.321,200.441a1.291,1.291,0,0,0-.435-.069q-2.5.006-5,.006c-.006-.424-.01-.848-.019-1.272,0-.174.068-.246.246-.245q2.484.013,4.968.016c.188,0,.264.062.257.26-.015.434-.009.869-.012,1.3" transform="translate(-86.945 -147.952)" fill="#d1445a"/>
        <path id="Trazado_606331" data-name="Trazado 606331" d="M199.128,181.122c-.039-.048-.053-.1,0-.144a.131.131,0,0,1,0,.144" transform="translate(-148.125 -134.647)" fill="#86b968"/>
        <path id="Trazado_606332" data-name="Trazado 606332" d="M145.554,162.136l.03.115c-.084-.019-.054-.068-.03-.115" transform="translate(-108.273 -120.629)" fill="#86b968"/>
        <path id="Trazado_606333" data-name="Trazado 606333" d="M206.677,115.372l.014.015-.015.014-.017-.015Z" transform="translate(-153.754 -85.836)" fill="#86b968"/>
        <path id="Trazado_606334" data-name="Trazado 606334" d="M145.519,146.238a.429.429,0,0,1,.022.041.173.173,0,0,1-.022.013.034.034,0,0,1,0-.054" transform="translate(-108.256 -108.801)" fill="#86b968"/>
        <path id="Trazado_606335" data-name="Trazado 606335" d="M206.846,66.266c0,.029-.015.043-.043.021,0-.033.017-.039.043-.021" transform="translate(-153.861 -49.294)" fill="#86b968"/>
        <path id="Trazado_606336" data-name="Trazado 606336" d="M145.684,66.421l-.027.022c0-.006,0-.016,0-.016a.16.16,0,0,1,.024,0l0-.01" transform="translate(-108.369 -49.417)" fill="#86b968"/>
        <path id="Trazado_606337" data-name="Trazado 606337" d="M55.932,66.424c-.01.028-.024.03-.039.006,0,0,.012-.015.014-.014a.132.132,0,0,1,.023.018l0-.009" transform="translate(-41.584 -49.413)" fill="#86b968"/>
        <path id="Trazado_606338" data-name="Trazado 606338" d="M116.926,205.269a.263.263,0,0,1,.018.046s-.013.012-.02.017c0-.021,0-.042,0-.063" transform="translate(-86.991 -152.72)" fill="#d1445a"/>
        <path id="Trazado_606339" data-name="Trazado 606339" d="M116.882,207.273a.263.263,0,0,1,.02.041s-.012.011-.019.016a.048.048,0,0,1,0-.057" transform="translate(-86.953 -154.211)" fill="#d1445a"/>
        <path id="Trazado_606340" data-name="Trazado 606340" d="M116.942,237.174l.01.089c0-.03-.007-.059-.01-.089" transform="translate(-87.005 -176.457)" fill="#d1445a"/>
        <path id="Trazado_606341" data-name="Trazado 606341" d="M206.628,121.655l.02.013-.017.017-.018-.014Z" transform="translate(-153.719 -90.511)" fill="#86b968"/>
      </g>
    </g>
  </g>
</svg>
