<svg xmlns="http://www.w3.org/2000/svg" xmlns:xlink="http://www.w3.org/1999/xlink" width="142" height="142" viewBox="0 0 142 142">
  <defs>
    <clipPath id="clip-path">
      <rect id="Rectángulo_345907" data-name="Rectángulo 345907" width="114.824" height="106.222" fill="none"/>
    </clipPath>
    <clipPath id="clip-path-3">
      <rect id="Rectángulo_345824" data-name="Rectángulo 345824" width="59.103" height="59.104" fill="none"/>
    </clipPath>
    <clipPath id="clip-path-4">
      <rect id="Rectángulo_345825" data-name="Rectángulo 345825" width="43.703" height="43.717" fill="none"/>
    </clipPath>
    <clipPath id="clip-path-5">
      <rect id="Rectángulo_345826" data-name="Rectángulo 345826" width="28.302" height="28.301" fill="none"/>
    </clipPath>
    <clipPath id="clip-path-6">
      <rect id="Rectángulo_345828" data-name="Rectángulo 345828" width="3.643" height="3.753" fill="none"/>
    </clipPath>
    <clipPath id="clip-path-7">
      <rect id="Rectángulo_345829" data-name="Rectángulo 345829" width="3.659" height="3.766" fill="none"/>
    </clipPath>
    <clipPath id="clip-path-8">
      <rect id="Rectángulo_345849" data-name="Rectángulo 345849" width="1.597" height="23.936" fill="none"/>
    </clipPath>
    <clipPath id="clip-path-9">
      <rect id="Rectángulo_345863" data-name="Rectángulo 345863" width="13.608" height="29.758" fill="none"/>
    </clipPath>
    <clipPath id="clip-path-10">
      <rect id="Rectángulo_345865" data-name="Rectángulo 345865" width="17.664" height="1.717" fill="none"/>
    </clipPath>
    <clipPath id="clip-path-11">
      <rect id="Rectángulo_345867" data-name="Rectángulo 345867" width="20.203" height="1.716" fill="none"/>
    </clipPath>
    <clipPath id="clip-path-12">
      <rect id="Rectángulo_345869" data-name="Rectángulo 345869" width="20.203" height="1.717" fill="none"/>
    </clipPath>
    <clipPath id="clip-path-13">
      <rect id="Rectángulo_345871" data-name="Rectángulo 345871" width="17.718" height="1.717" fill="none"/>
    </clipPath>
    <clipPath id="clip-path-14">
      <rect id="Rectángulo_345874" data-name="Rectángulo 345874" width="8.251" height="8.25" fill="none"/>
    </clipPath>
    <clipPath id="clip-path-15">
      <rect id="Rectángulo_345876" data-name="Rectángulo 345876" width="3.9" height="3.9" fill="none"/>
    </clipPath>
    <clipPath id="clip-path-17">
      <rect id="Rectángulo_345905" data-name="Rectángulo 345905" width="7.108" height="7.108" fill="none"/>
    </clipPath>
  </defs>
  <g id="Grupo_1071525" data-name="Grupo 1071525" transform="translate(-420 -699)">
    <g id="Grupo_1071523" data-name="Grupo 1071523" transform="translate(-608.999 -6323)">
      <g id="Grupo_1015037" data-name="Grupo 1015037" transform="translate(1028.999 7022)">
        <g id="Grupo_159183" data-name="Grupo 159183" transform="translate(0 0)">
          <g id="Grupo_1015569" data-name="Grupo 1015569">
            <g id="Grupo_1015568" data-name="Grupo 1015568">
              <path id="Unión_12" data-name="Unión 12" d="M101.655,135.059a71.06,71.06,0,1,1,23.7-18.381L135.108,142Z" fill="#a3bfe4"/>
              <path id="Trazado_606158" data-name="Trazado 606158" d="M55.281,0A55.281,55.281,0,1,1,0,55.281,55.281,55.281,0,0,1,55.281,0Z" transform="translate(15.831 15.83)" fill="#e3ecf7"/>
            </g>
          </g>
        </g>
      </g>
    </g>
    <g id="Grupo_1071524" data-name="Grupo 1071524" transform="translate(440.957 720)">
      <g id="Grupo_1015322" data-name="Grupo 1015322" transform="translate(-7.869 -7.279)" clip-path="url(#clip-path)">
        <g id="Grupo_1015321" data-name="Grupo 1015321">
          <g id="Grupo_1015320" data-name="Grupo 1015320" clip-path="url(#clip-path)">
            <g id="Grupo_1015277" data-name="Grupo 1015277" transform="translate(22.291)" opacity="0.22">
              <g id="Grupo_1015276" data-name="Grupo 1015276">
                <g id="Grupo_1015275" data-name="Grupo 1015275" clip-path="url(#clip-path-3)">
                  <path id="Trazado_605859" data-name="Trazado 605859" d="M80.719,8.658a29.536,29.536,0,1,0,8.659,20.962v-.069A29.47,29.47,0,0,0,80.719,8.658M78,47.713v.013a25.681,25.681,0,0,1-36.336,0v-.013A25.685,25.685,0,0,1,34.65,34.718a24.856,24.856,0,0,1-.53-5.167,25.556,25.556,0,0,1,7.544-18.16v-.015a25.684,25.684,0,0,1,36.336,0l.148-.148h.015L78,11.391a25.272,25.272,0,0,1,4.432,5.926,25.436,25.436,0,0,1,3.1,12.234A25.6,25.6,0,0,1,78,47.713" transform="translate(-30.275)" fill="#fff"/>
                </g>
              </g>
            </g>
            <g id="Grupo_1015280" data-name="Grupo 1015280" transform="translate(29.998 7.693)" opacity="0.35">
              <g id="Grupo_1015279" data-name="Grupo 1015279">
                <g id="Grupo_1015278" data-name="Grupo 1015278" clip-path="url(#clip-path-4)">
                  <path id="Trazado_605860" data-name="Trazado 605860" d="M78.041,16.865l-.054.054v-.014l.054-.04a21.84,21.84,0,1,0,6.4,15.456v-.015a21.779,21.779,0,0,0-6.4-15.442M75.309,45.031a18.087,18.087,0,0,1-5.724,3.86,17.756,17.756,0,0,1-7,1.427A17.988,17.988,0,1,1,80.229,28.677a18.884,18.884,0,0,1,.368,3.629,17.949,17.949,0,0,1-5.288,12.724" transform="translate(-40.741 -10.448)" fill="#fff"/>
                </g>
              </g>
            </g>
            <g id="Grupo_1015283" data-name="Grupo 1015283" transform="translate(37.691 15.402)" opacity="0.57">
              <g id="Grupo_1015282" data-name="Grupo 1015282">
                <g id="Grupo_1015281" data-name="Grupo 1015281" clip-path="url(#clip-path-5)">
                  <path id="Trazado_605861" data-name="Trazado 605861" d="M79.207,32.214a14.154,14.154,0,0,0-23.872-7.149,14.2,14.2,0,0,0-3.031,4.5,14.232,14.232,0,0,0-.83,8.361,14.154,14.154,0,0,0,23.871,7.149,14.134,14.134,0,0,0,4.146-9.991,14.277,14.277,0,0,0-.285-2.869m-6.784,9.923a10,10,0,0,1-16.869-5.056,9.84,9.84,0,0,1-.2-2.012A10,10,0,0,1,72.422,28a10.169,10.169,0,0,1,2.719,5.056,9.827,9.827,0,0,1,.2,2.012,9.963,9.963,0,0,1-2.923,7.068" transform="translate(-51.189 -20.918)" fill="#fff"/>
                </g>
              </g>
            </g>
            <path id="Trazado_605862" data-name="Trazado 605862" d="M80.974,93.8V93.8L74.509,65.973a1.438,1.438,0,0,0-.043-.2l-2.347-10.12-1.945-8.35L69.8,45.652,66.4,31.019a8.625,8.625,0,0,0-4.335,0L58.675,45.643,58.3,47.3l-1.944,8.356L54,65.78,51.268,77.591a.823.823,0,0,0-.048.225L47.532,93.685l-.058.25a.148.148,0,0,0-.011.068L47,95.956H81.475ZM54.066,80.778l7.02,4.307-9.306,5.568ZM61.05,50.66l.442.35-.64.521Zm6.365.009.2.861-.64-.511ZM64.141,69.356,58.847,66.12l5.39-3.713L69.6,66.1ZM71.65,68.9l1.356,5.879-5.533-3.386Zm-4.365-8.59,2.041-1.417.781,3.358Zm.265-4.385L64.237,58.21l-3.316-2.286,3.316-2.687Zm-8.409,2.967L61.2,60.3l-2.833,1.95Zm-2.32,10.033,3.972,2.428-5.267,3.14Zm-.555,9.151,7.856-4.687,8.17,4.989-7.859,4.7Zm18.212,3.013,2.209,9.506L67.75,85.119ZM64.237,36.967l2.313,9.961-2.313,1.867-2.312-1.873ZM55.412,92.5l9-5.39,8.777,5.39Z" transform="translate(-12.395 -8.107)" fill="#634755"/>
            <path id="Trazado_605863" data-name="Trazado 605863" d="M74.981,37.59a7.139,7.139,0,0,1-5.094,6.824,7.158,7.158,0,0,1-2.026.291A7.1,7.1,0,0,1,63.2,42.961,7.122,7.122,0,0,1,66.042,30.7a7.28,7.28,0,0,1,3.634,0,7.13,7.13,0,0,1,5.3,6.89" transform="translate(-16.018 -8.035)" fill="#ffb133"/>
            <rect id="Rectángulo_345827" data-name="Rectángulo 345827" width="41.801" height="7.378" transform="translate(30.944 87.849)" fill="#e6f5f9"/>
            <g id="Grupo_1015286" data-name="Grupo 1015286" transform="translate(53.661 34.899)" style="mix-blend-mode: multiply;isolation: isolate">
              <g id="Grupo_1015285" data-name="Grupo 1015285">
                <g id="Grupo_1015284" data-name="Grupo 1015284" clip-path="url(#clip-path-6)">
                  <path id="Trazado_605864" data-name="Trazado 605864" d="M76.521,49.628a8.918,8.918,0,0,1-2.841,1.427,3.494,3.494,0,0,1-.353.1l-.448-1.985a1.209,1.209,0,0,0,.218-.054,7.194,7.194,0,0,0,2.637-1.455A2.488,2.488,0,0,0,76,47.4Z" transform="translate(-72.879 -47.397)" fill="#f1cbc8"/>
                </g>
              </g>
            </g>
            <g id="Grupo_1015289" data-name="Grupo 1015289" transform="translate(46.386 34.885)" style="mix-blend-mode: multiply;isolation: isolate">
              <g id="Grupo_1015288" data-name="Grupo 1015288">
                <g id="Grupo_1015287" data-name="Grupo 1015287" clip-path="url(#clip-path-7)">
                  <path id="Trazado_605865" data-name="Trazado 605865" d="M66.658,49.161,66.2,51.145c-.122-.028-.231-.054-.356-.095A9.322,9.322,0,0,1,63,49.623l.517-2.244c.1.1.192.191.285.272a7.048,7.048,0,0,0,2.64,1.44c.066.028.135.041.217.069" transform="translate(-62.999 -47.379)" fill="#f1cbc8"/>
                </g>
              </g>
            </g>
            <path id="Trazado_605895" data-name="Trazado 605895" d="M0,0H46.9V34.289H0Z" transform="translate(27.599 71.933)" fill="#ffb133"/>
            <path id="Rectángulo_345831" data-name="Rectángulo 345831" d="M4.723,0H27.586A4.724,4.724,0,0,1,32.31,4.724V22.829a4.724,4.724,0,0,1-4.724,4.724H4.723A4.723,4.723,0,0,1,0,22.83V4.723A4.723,4.723,0,0,1,4.723,0Z" transform="translate(31.229 75.301)" fill="#634755"/>
            <path id="Rectángulo_345832" data-name="Rectángulo 345832" d="M2.014,0H26.308a2.015,2.015,0,0,1,2.015,2.015V21.549a2.016,2.016,0,0,1-2.016,2.016H2.014A2.014,2.014,0,0,1,0,21.551V2.014A2.014,2.014,0,0,1,2.014,0Z" transform="translate(33.223 77.295)" fill="#7dc3ca"/>
            <path id="Trazado_605866" data-name="Trazado 605866" d="M52.036,105.629v.093a6.353,6.353,0,0,0-5.545,5.543H46.4a6.327,6.327,0,0,0-5.543-5.531v-.116a6.328,6.328,0,0,0,5.543-5.532h.092a6.354,6.354,0,0,0,5.545,5.544" transform="translate(-10.774 -26.392)" fill="#fff"/>
            <path id="Trazado_605867" data-name="Trazado 605867" d="M61.884,111.261v.06a4.106,4.106,0,0,0-3.584,3.585h-.061a4.092,4.092,0,0,0-3.583-3.578v-.074a4.091,4.091,0,0,0,3.583-3.577H58.3a4.106,4.106,0,0,0,3.584,3.584" transform="translate(-14.413 -28.394)" fill="#fff"/>
            <rect id="Rectángulo_345833" data-name="Rectángulo 345833" width="6.946" height="10.323" transform="translate(65.802 74.987)" fill="#fff"/>
            <rect id="Rectángulo_345834" data-name="Rectángulo 345834" width="4.971" height="0.669" transform="translate(66.789 76.139)" fill="#7a5767"/>
            <rect id="Rectángulo_345835" data-name="Rectángulo 345835" width="4.971" height="0.669" transform="translate(66.789 77.413)" fill="#7a5767"/>
            <rect id="Rectángulo_345836" data-name="Rectángulo 345836" width="4.971" height="0.669" transform="translate(66.789 78.688)" fill="#7a5767"/>
            <rect id="Rectángulo_345837" data-name="Rectángulo 345837" width="4.971" height="0.669" transform="translate(66.789 79.961)" fill="#7a5767"/>
            <rect id="Rectángulo_345838" data-name="Rectángulo 345838" width="4.971" height="0.669" transform="translate(66.789 81.236)" fill="#7a5767"/>
            <rect id="Rectángulo_345839" data-name="Rectángulo 345839" width="4.971" height="0.669" transform="translate(66.789 82.511)" fill="#7a5767"/>
            <rect id="Rectángulo_345840" data-name="Rectángulo 345840" width="4.971" height="0.669" transform="translate(66.789 83.785)" fill="#7a5767"/>
            <path id="Trazado_605868" data-name="Trazado 605868" d="M95.094,132.814a2.889,2.889,0,1,1-4.086,0,2.89,2.89,0,0,1,4.086,0" transform="translate(-23.776 -34.8)" fill="#d0e2e2"/>
            <rect id="Rectángulo_345841" data-name="Rectángulo 345841" width="4.589" height="1.943" transform="matrix(0.707, -0.707, 0.707, 0.707, 66.991, 101.018)" fill="#aac5c9"/>
            <rect id="Rectángulo_345842" data-name="Rectángulo 345842" width="3.599" height="1.061" transform="matrix(0.707, -0.707, 0.707, 0.707, 67.654, 100.979)" fill="#d0e2e2"/>
            <path id="Trazado_605869" data-name="Trazado 605869" d="M92.4,128.768a1.121,1.121,0,1,1-1.121-1.12,1.12,1.12,0,0,1,1.121,1.12" transform="translate(-23.775 -33.661)" fill="#966b7f"/>
            <path id="Trazado_605870" data-name="Trazado 605870" d="M97.077,128.768a1.121,1.121,0,1,1-1.12-1.12,1.12,1.12,0,0,1,1.12,1.12" transform="translate(-25.008 -33.661)" fill="#966b7f"/>
            <path id="Trazado_605871" data-name="Trazado 605871" d="M92.4,124.83a1.121,1.121,0,1,1-1.121-1.12,1.121,1.121,0,0,1,1.121,1.12" transform="translate(-23.775 -32.622)" fill="#966b7f"/>
            <path id="Trazado_605872" data-name="Trazado 605872" d="M97.077,124.83a1.121,1.121,0,1,1-1.12-1.12,1.12,1.12,0,0,1,1.12,1.12" transform="translate(-25.008 -32.622)" fill="#966b7f"/>
            <path id="Trazado_605873" data-name="Trazado 605873" d="M92.4,120.892a1.121,1.121,0,1,1-1.121-1.121,1.12,1.12,0,0,1,1.121,1.121" transform="translate(-23.775 -31.584)" fill="#966b7f"/>
            <path id="Trazado_605874" data-name="Trazado 605874" d="M97.077,120.892a1.121,1.121,0,1,1-1.12-1.121,1.12,1.12,0,0,1,1.12,1.121" transform="translate(-25.008 -31.584)" fill="#966b7f"/>
            <rect id="Rectángulo_345843" data-name="Rectángulo 345843" width="0.415" height="0.892" transform="translate(67.297 88.416)" fill="#c6d0d1"/>
            <rect id="Rectángulo_345844" data-name="Rectángulo 345844" width="0.413" height="0.892" transform="translate(70.743 95.107)" fill="#c6d0d1"/>
            <rect id="Rectángulo_345845" data-name="Rectángulo 345845" width="0.892" height="0.414" transform="translate(70.058 89.102)" fill="#c6d0d1"/>
            <rect id="Rectángulo_345846" data-name="Rectángulo 345846" width="0.893" height="0.414" transform="translate(67.505 94.9)" fill="#c6d0d1"/>
            <path id="Trazado_605875" data-name="Trazado 605875" d="M91.066,125.946l-.291-.293.63-.63.294.292Z" transform="translate(-23.937 -32.968)" fill="#c6d0d1"/>
            <path id="Trazado_605876" data-name="Trazado 605876" d="M97.1,125.653l-.292.293-.631-.631.294-.292Z" transform="translate(-25.361 -32.968)" fill="#c6d0d1"/>
            <rect id="Rectángulo_345847" data-name="Rectángulo 345847" width="28.116" height="26.201" transform="translate(2.294 40.066)" fill="#98a9b3"/>
            <rect id="Rectángulo_345848" data-name="Rectángulo 345848" width="27.218" height="29.758" transform="translate(0 34.244)" fill="#fafafa"/>
            <path id="Trazado_605877" data-name="Trazado 605877" d="M36.966,78.351V54.415h3.193Z" transform="translate(-9.748 -14.349)" fill="#d8e2e2"/>
            <g id="Grupo_1015292" data-name="Grupo 1015292" transform="translate(27.218 40.066)" style="mix-blend-mode: multiply;isolation: isolate">
              <g id="Grupo_1015291" data-name="Grupo 1015291">
                <g id="Grupo_1015290" data-name="Grupo 1015290" clip-path="url(#clip-path-8)">
                  <path id="Trazado_605878" data-name="Trazado 605878" d="M36.966,54.415h1.6l-1.6,23.936Z" transform="translate(-36.966 -54.415)" fill="#d9d9d9"/>
                </g>
              </g>
            </g>
            <rect id="Rectángulo_345850" data-name="Rectángulo 345850" width="23.145" height="0.679" transform="translate(2.037 37.931)" fill="#9dd5d4"/>
            <path id="Trazado_605879" data-name="Trazado 605879" d="M4.111,54.118l.831,2.788V54.118h.625v4.149H4.895L4.034,55.61v2.657H3.41V54.118Z" transform="translate(-0.899 -14.271)" fill="#54b5c3"/>
            <path id="Trazado_605880" data-name="Trazado 605880" d="M7.1,58.267V54.118h1.78v.629H7.723v1.131h.844v.63H7.723v1.131H8.877v.629Z" transform="translate(-1.871 -14.271)" fill="#54b5c3"/>
            <path id="Trazado_605881" data-name="Trazado 605881" d="M12.668,54.123h.657l-.648,4.145h-.6l-.357-2.28-.332,2.28h-.6L10.1,54.123h.654l.329,2.22.3-2.22h.656l.328,2.218Z" transform="translate(-2.663 -14.272)" fill="#54b5c3"/>
            <path id="Trazado_605882" data-name="Trazado 605882" d="M16.975,57.216a1.174,1.174,0,0,1-.225.741.817.817,0,0,1-.429.295,1.182,1.182,0,0,1-.348.046.988.988,0,0,1-.61-.182,1.015,1.015,0,0,1-.319-.406,1.656,1.656,0,0,1-.137-.587l.595-.043a.915.915,0,0,0,.192.526.319.319,0,0,0,.258.116.385.385,0,0,0,.327-.2.5.5,0,0,0,.063-.275.763.763,0,0,0-.235-.513l-.555-.526a2.356,2.356,0,0,1-.44-.54,1.243,1.243,0,0,1-.139-.582,1.014,1.014,0,0,1,.38-.858.95.95,0,0,1,.584-.175,1.059,1.059,0,0,1,.571.149.875.875,0,0,1,.3.324,1.221,1.221,0,0,1,.135.479l-.6.11a.721.721,0,0,0-.149-.4.3.3,0,0,0-.246-.1.285.285,0,0,0-.261.152.592.592,0,0,0-.074.3.915.915,0,0,0,.245.579,2.207,2.207,0,0,0,.278.264c.145.121.242.207.288.255a2.1,2.1,0,0,1,.357.457,1.766,1.766,0,0,1,.1.194,1.174,1.174,0,0,1,.092.4" transform="translate(-3.931 -14.253)" fill="#54b5c3"/>
            <rect id="Rectángulo_345851" data-name="Rectángulo 345851" width="13.682" height="0.923" transform="translate(2.037 45.16)" fill="#afb4bb"/>
            <rect id="Rectángulo_345852" data-name="Rectángulo 345852" width="13.682" height="0.923" transform="translate(2.037 46.858)" fill="#afb4bb"/>
            <rect id="Rectángulo_345853" data-name="Rectángulo 345853" width="13.682" height="0.921" transform="translate(2.037 48.558)" fill="#afb4bb"/>
            <rect id="Rectángulo_345854" data-name="Rectángulo 345854" width="23.304" height="0.922" transform="translate(2.037 50.255)" fill="#afb4bb"/>
            <rect id="Rectángulo_345855" data-name="Rectángulo 345855" width="23.304" height="0.923" transform="translate(2.037 51.953)" fill="#afb4bb"/>
            <rect id="Rectángulo_345856" data-name="Rectángulo 345856" width="8.216" height="0.921" transform="translate(2.037 55.35)" fill="#afb4bb"/>
            <rect id="Rectángulo_345857" data-name="Rectángulo 345857" width="23.304" height="0.921" transform="translate(2.037 57.049)" fill="#afb4bb"/>
            <rect id="Rectángulo_345858" data-name="Rectángulo 345858" width="17.726" height="0.923" transform="translate(7.616 58.746)" fill="#afb4bb"/>
            <rect id="Rectángulo_345859" data-name="Rectángulo 345859" width="17.726" height="0.922" transform="translate(7.616 60.444)" fill="#afb4bb"/>
            <rect id="Rectángulo_345860" data-name="Rectángulo 345860" width="8.441" height="4.279" transform="translate(16.9 45.16)" fill="#f4a11a"/>
            <rect id="Rectángulo_345861" data-name="Rectángulo 345861" width="4.383" height="2.62" transform="translate(2.037 58.746)" fill="#f4a11a"/>
            <g id="Grupo_1015295" data-name="Grupo 1015295" transform="translate(0 34.244)" style="mix-blend-mode: multiply;isolation: isolate">
              <g id="Grupo_1015294" data-name="Grupo 1015294">
                <g id="Grupo_1015293" data-name="Grupo 1015293" clip-path="url(#clip-path-9)">
                  <rect id="Rectángulo_345862" data-name="Rectángulo 345862" width="13.608" height="29.758" fill="#e0e3e3"/>
                </g>
              </g>
            </g>
            <path id="Trazado_605883" data-name="Trazado 605883" d="M140.678,56.059V82.736a.769.769,0,0,1-.773.772H98.818a.772.772,0,0,1-.773-.772V56.059a.776.776,0,0,1,.773-.774h41.087a.772.772,0,0,1,.773.774" transform="translate(-25.854 -14.579)" fill="#ffb133"/>
            <g id="Grupo_1015298" data-name="Grupo 1015298" transform="translate(93.543 54.545)" style="mix-blend-mode: multiply;isolation: isolate">
              <g id="Grupo_1015297" data-name="Grupo 1015297">
                <g id="Grupo_1015296" data-name="Grupo 1015296" clip-path="url(#clip-path-10)">
                  <rect id="Rectángulo_345864" data-name="Rectángulo 345864" width="17.664" height="1.717" transform="translate(0 0)" fill="#d4aaa6"/>
                </g>
              </g>
            </g>
            <g id="Grupo_1015301" data-name="Grupo 1015301" transform="translate(92.183 57.379)" style="mix-blend-mode: multiply;isolation: isolate">
              <g id="Grupo_1015300" data-name="Grupo 1015300">
                <g id="Grupo_1015299" data-name="Grupo 1015299" clip-path="url(#clip-path-11)">
                  <rect id="Rectángulo_345866" data-name="Rectángulo 345866" width="20.203" height="1.716" transform="translate(0 -0.001)" fill="#d4aaa6"/>
                </g>
              </g>
            </g>
            <g id="Grupo_1015304" data-name="Grupo 1015304" transform="translate(92.183 60.212)" style="mix-blend-mode: multiply;isolation: isolate">
              <g id="Grupo_1015303" data-name="Grupo 1015303">
                <g id="Grupo_1015302" data-name="Grupo 1015302" clip-path="url(#clip-path-12)">
                  <rect id="Rectángulo_345868" data-name="Rectángulo 345868" width="20.203" height="1.717" transform="translate(0 0)" fill="#d4aaa6"/>
                </g>
              </g>
            </g>
            <g id="Grupo_1015307" data-name="Grupo 1015307" transform="translate(93.489 63.045)" style="mix-blend-mode: multiply;isolation: isolate">
              <g id="Grupo_1015306" data-name="Grupo 1015306">
                <g id="Grupo_1015305" data-name="Grupo 1015305" clip-path="url(#clip-path-13)">
                  <rect id="Rectángulo_345870" data-name="Rectángulo 345870" width="17.718" height="1.718" transform="translate(0 0)" fill="#d4aaa6"/>
                </g>
              </g>
            </g>
            <path id="Trazado_605884" data-name="Trazado 605884" d="M112.458,79.221a4.833,4.833,0,1,1-4.832-4.832,4.832,4.832,0,0,1,4.832,4.832" transform="translate(-27.106 -19.616)" fill="#634755"/>
            <rect id="Rectángulo_345872" data-name="Rectángulo 345872" width="37.794" height="7.733" transform="translate(74.591 43.077)" fill="#fff"/>
            <rect id="Rectángulo_345873" data-name="Rectángulo 345873" width="1.386" height="0.844" transform="matrix(0.708, -0.707, 0.707, 0.708, 82.003, 57.518)" fill="#f2f2f2"/>
            <g id="Grupo_1015310" data-name="Grupo 1015310" transform="translate(77.102 56.188)" style="mix-blend-mode: multiply;isolation: isolate">
              <g id="Grupo_1015309" data-name="Grupo 1015309">
                <g id="Grupo_1015308" data-name="Grupo 1015308" clip-path="url(#clip-path-14)">
                  <path id="Trazado_605885" data-name="Trazado 605885" d="M111.551,83.146a4.833,4.833,0,0,1-6.836,0l6.836-6.834a4.833,4.833,0,0,1,0,6.834" transform="translate(-104.715 -76.312)" fill="#d9d9d9"/>
                </g>
              </g>
            </g>
            <path id="Trazado_605886" data-name="Trazado 605886" d="M121.608,76.365a2.285,2.285,0,1,1-2.285-2.285,2.285,2.285,0,0,1,2.285,2.285" transform="translate(-30.863 -19.535)" fill="#634755"/>
            <path id="Trazado_605887" data-name="Trazado 605887" d="M121.18,76.605a1.616,1.616,0,1,1-1.615-1.616,1.615,1.615,0,0,1,1.615,1.616" transform="translate(-31.103 -19.775)" fill="#876174"/>
            <rect id="Rectángulo_345875" data-name="Rectángulo 345875" width="0.655" height="0.398" transform="translate(88.792 56.212) rotate(-44.851)" fill="#f2f2f2"/>
            <g id="Grupo_1015313" data-name="Grupo 1015313" transform="translate(86.844 55.214)" style="mix-blend-mode: multiply;isolation: isolate">
              <g id="Grupo_1015312" data-name="Grupo 1015312">
                <g id="Grupo_1015311" data-name="Grupo 1015311" clip-path="url(#clip-path-15)">
                  <path id="Trazado_605888" data-name="Trazado 605888" d="M121.179,78.219a2.284,2.284,0,0,1-3.232,0l3.232-3.23a2.283,2.283,0,0,1,0,3.23" transform="translate(-117.947 -74.989)" fill="#d9d9d9"/>
                </g>
              </g>
            </g>
            <path id="Trazado_605889" data-name="Trazado 605889" d="M121.608,84.035a2.285,2.285,0,1,1-2.285-2.285,2.285,2.285,0,0,1,2.285,2.285" transform="translate(-30.863 -21.557)" fill="#634755"/>
            <path id="Trazado_605890" data-name="Trazado 605890" d="M121.18,84.275a1.616,1.616,0,1,1-1.615-1.615,1.616,1.616,0,0,1,1.615,1.615" transform="translate(-31.103 -21.797)" fill="#876174"/>
            <rect id="Rectángulo_345877" data-name="Rectángulo 345877" width="0.655" height="0.398" transform="translate(88.792 61.861) rotate(-44.925)" fill="#f2f2f2"/>
            <g id="Grupo_1015316" data-name="Grupo 1015316" transform="translate(86.844 60.863)" style="mix-blend-mode: multiply;isolation: isolate">
              <g id="Grupo_1015315" data-name="Grupo 1015315">
                <g id="Grupo_1015314" data-name="Grupo 1015314" clip-path="url(#clip-path-15)">
                  <path id="Trazado_605891" data-name="Trazado 605891" d="M121.179,85.892a2.286,2.286,0,0,1-3.232,0l3.232-3.232a2.285,2.285,0,0,1,0,3.232" transform="translate(-117.947 -82.66)" fill="#d9d9d9"/>
                </g>
              </g>
            </g>
            <rect id="Rectángulo_345879" data-name="Rectángulo 345879" width="0.879" height="2.273" transform="translate(76.161 44.671)" fill="#966b73"/>
            <rect id="Rectángulo_345880" data-name="Rectángulo 345880" width="0.879" height="1.547" transform="translate(77.856 44.671)" fill="#966b73"/>
            <rect id="Rectángulo_345881" data-name="Rectángulo 345881" width="0.878" height="1.547" transform="translate(79.551 44.671)" fill="#966b73"/>
            <rect id="Rectángulo_345882" data-name="Rectángulo 345882" width="0.878" height="1.547" transform="translate(81.245 44.671)" fill="#966b73"/>
            <rect id="Rectángulo_345883" data-name="Rectángulo 345883" width="0.88" height="2.273" transform="translate(82.937 44.671)" fill="#966b73"/>
            <rect id="Rectángulo_345884" data-name="Rectángulo 345884" width="0.878" height="1.547" transform="translate(84.633 44.671)" fill="#966b73"/>
            <rect id="Rectángulo_345885" data-name="Rectángulo 345885" width="0.878" height="1.547" transform="translate(86.328 44.671)" fill="#966b73"/>
            <rect id="Rectángulo_345886" data-name="Rectángulo 345886" width="0.879" height="1.547" transform="translate(88.021 44.671)" fill="#966b73"/>
            <rect id="Rectángulo_345887" data-name="Rectángulo 345887" width="0.879" height="2.273" transform="translate(89.716 44.671)" fill="#966b73"/>
            <rect id="Rectángulo_345888" data-name="Rectángulo 345888" width="0.88" height="1.547" transform="translate(91.408 44.671)" fill="#966b73"/>
            <rect id="Rectángulo_345889" data-name="Rectángulo 345889" width="0.879" height="1.547" transform="translate(93.104 44.671)" fill="#966b73"/>
            <rect id="Rectángulo_345890" data-name="Rectángulo 345890" width="0.88" height="1.547" transform="translate(94.798 44.671)" fill="#966b73"/>
            <rect id="Rectángulo_345891" data-name="Rectángulo 345891" width="0.88" height="2.273" transform="translate(96.493 44.671)" fill="#966b73"/>
            <rect id="Rectángulo_345892" data-name="Rectángulo 345892" width="0.879" height="1.547" transform="translate(98.187 44.671)" fill="#966b73"/>
            <rect id="Rectángulo_345893" data-name="Rectángulo 345893" width="0.879" height="1.547" transform="translate(99.881 44.671)" fill="#966b73"/>
            <rect id="Rectángulo_345894" data-name="Rectángulo 345894" width="0.879" height="1.547" transform="translate(101.575 44.671)" fill="#966b73"/>
            <rect id="Rectángulo_345895" data-name="Rectángulo 345895" width="0.88" height="2.273" transform="translate(103.269 44.671)" fill="#966b73"/>
            <rect id="Rectángulo_345896" data-name="Rectángulo 345896" width="0.878" height="2.273" transform="translate(109.936 44.671)" fill="#966b73"/>
            <rect id="Rectángulo_345897" data-name="Rectángulo 345897" width="0.88" height="1.547" transform="translate(104.963 44.671)" fill="#966b73"/>
            <rect id="Rectángulo_345898" data-name="Rectángulo 345898" width="0.878" height="1.547" transform="translate(106.659 44.671)" fill="#966b73"/>
            <rect id="Rectángulo_345899" data-name="Rectángulo 345899" width="0.878" height="1.547" transform="translate(108.353 44.671)" fill="#966b73"/>
            <rect id="Rectángulo_345900" data-name="Rectángulo 345900" width="1.23" height="7.733" transform="translate(100.321 43.077)" fill="#7dc3ca"/>
            <rect id="Rectángulo_345901" data-name="Rectángulo 345901" width="1.249" height="11.24" transform="matrix(0.2, -0.98, 0.98, 0.2, 92.668, 37.704)" fill="#d0e2e2"/>
            <rect id="Rectángulo_345902" data-name="Rectángulo 345902" width="1.009" height="9.084" transform="translate(83.793 35.766) rotate(-78.469)" fill="#d0e2e2"/>
            <rect id="Rectángulo_345903" data-name="Rectángulo 345903" width="0.753" height="6.776" transform="matrix(0.2, -0.98, 0.98, 0.2, 77.181, 34.284)" fill="#d0e2e2"/>
            <rect id="Rectángulo_345904" data-name="Rectángulo 345904" width="1.457" height="1.552" transform="translate(75.592 34.316) rotate(-78.48)" fill="#d0e2e2"/>
            <path id="Trazado_605892" data-name="Trazado 605892" d="M145.786,54.15h-6.345a3.173,3.173,0,0,1,6.345,0" transform="translate(-36.771 -13.443)" fill="#d0e2e2"/>
            <g id="Grupo_1015319" data-name="Grupo 1015319" transform="translate(76.329 11.32)" opacity="0.65">
              <g id="Grupo_1015318" data-name="Grupo 1015318">
                <g id="Grupo_1015317" data-name="Grupo 1015317" clip-path="url(#clip-path-17)">
                  <path id="Trazado_605893" data-name="Trazado 605893" d="M110.774,18.9v.059a4.037,4.037,0,0,0-3.523,3.525h-.06a4.024,4.024,0,0,0-3.525-3.517v-.074a4.024,4.024,0,0,0,3.525-3.517h.06a4.037,4.037,0,0,0,3.523,3.525" transform="translate(-103.666 -15.374)" fill="#fff"/>
                </g>
              </g>
            </g>
            <path id="Trazado_605894" data-name="Trazado 605894" d="M123.207,30.876v.088a6.059,6.059,0,0,0-5.287,5.287h-.088a6.037,6.037,0,0,0-5.285-5.276v-.11a6.036,6.036,0,0,0,5.285-5.275h.088a6.058,6.058,0,0,0,5.287,5.286" transform="translate(-29.679 -6.748)" fill="#fff"/>
          </g>
        </g>
      </g>
    </g>
  </g>
</svg>
