<svg xmlns="http://www.w3.org/2000/svg" xmlns:xlink="http://www.w3.org/1999/xlink" width="124.001" height="124" viewBox="0 0 124.001 124">
  <defs>
    <clipPath id="clip-path">
      <rect id="Rect치ngulo_346066" data-name="Rect치ngulo 346066" width="73.2" height="74.698" fill="none"/>
    </clipPath>
  </defs>
  <g id="Grupo_1015562" data-name="Grupo 1015562" transform="translate(-1090 -4900.469)">
    <g id="Grupo_1015098" data-name="Grupo 1015098">
      <g id="Grupo_1015002" data-name="Grupo 1015002" transform="translate(705.001 2842.469)">
        <path id="Uni칩n_12" data-name="Uni칩n 12" d="M8464.769,11817.939a62.055,62.055,0,1,1,20.7-16.051l8.516,22.111Z" transform="translate(-7991 -9642)" fill="#a3bfe4"/>
        <circle id="Elipse_4842" data-name="Elipse 4842" cx="48" cy="48" r="48" transform="translate(399 2072)" fill="#e3ecf7"/>
      </g>
      <g id="Grupo_1015575" data-name="Grupo 1015575" transform="translate(1117.028 4924.12)">
        <g id="Grupo_1015574" data-name="Grupo 1015574" clip-path="url(#clip-path)">
          <path id="Trazado_606230" data-name="Trazado 606230" d="M43.227,56.936c.01.824.01.821-.808.821q-6.538,0-13.076.007c-.656,0-.7.006-.694.654.008.835-.094,1.659-.162,2.485s-.106,1.652-.149,2.479c-.051.987-.2,1.969-.269,2.955-.03.445-.043.892-.08,1.338-.088,1.075-.152,2.152-.223,3.228-.064.968-.062,1.941-.211,2.9-.046.292.122.738-.092.848-.191.1-.57-.007-.866-.008-2.93,0-5.861,0-8.791-.009-.228,0-.442.111-.691.021-.153-.056-.163-.1-.177-.235-.1-.954-.218-1.907-.335-2.9a3.335,3.335,0,0,0-.514,1.01c-.242.653-.622,1.244-.823,1.914-.046.154-.167.2-.335.2q-5.757-.009-11.515-.007a1.038,1.038,0,0,1-.123-.016c.3-1.14.58-2.278.893-3.408.428-1.543.924-3.069,1.308-4.622.556-2.242,1.272-4.438,1.809-6.687.233-.979.549-1.949.859-2.913.067-.208.043-.319-.125-.418a6.972,6.972,0,0,1-2.651-3.127,11.455,11.455,0,0,1-.63-2.317c-.3-1.19-.539-2.4-.822-3.591-.361-1.528-.69-3.063-1.072-4.587a10.989,10.989,0,0,1-.416-3.548A9.766,9.766,0,0,1,2.807,37.7a6.963,6.963,0,0,1,.741-1.69.4.4,0,0,0-.042-.541,4.334,4.334,0,0,1-1.022-2.339,2.365,2.365,0,0,1,0-1.059c.065-.2-.091-.278-.241-.382A5.094,5.094,0,0,1,.1,28.555a4.594,4.594,0,0,1,.875-3.67A7.747,7.747,0,0,1,2.346,23.5a3.246,3.246,0,0,0,1.23-2.3c.141-2.521.008-5.045.073-7.567a12.658,12.658,0,0,1,.508-3.044,14.239,14.239,0,0,1,3.126-5.7,14.806,14.806,0,0,1,4.972-3.675A15.369,15.369,0,0,1,16.022.133a12.463,12.463,0,0,1,3.493-.02A17.4,17.4,0,0,1,22.424.7a12.486,12.486,0,0,1,3.208,1.471,14.322,14.322,0,0,1,4.805,5.022,11.836,11.836,0,0,1,1.051,2.231,14.768,14.768,0,0,1,.77,3.01,20.956,20.956,0,0,1,.161,2.448c0,2.041-.032,4.083.009,6.124a3.316,3.316,0,0,0,1.4,2.621,5.179,5.179,0,0,1,2.115,3.257,4.383,4.383,0,0,1-1.023,3.791,5.073,5.073,0,0,1-1.181,1.05.327.327,0,0,0-.168.333,4.442,4.442,0,0,1-.923,3.266c-.239.3.063.79.491.806.447.017.9-.01,1.343-.01,2.8,0,5.593.007,8.39,0,.289,0,.372.093.371.38-.014,2.042.024,4.084-.036,6.124-.019.633.051,1.012.673,1.333a3.2,3.2,0,0,1,1.613,2.061,3.433,3.433,0,0,1,.145.918,25.678,25.678,0,0,1-.035,2.876,3.255,3.255,0,0,1-1.064,2.1,3.109,3.109,0,0,1-1,.671.455.455,0,0,0-.324.51c.017,1.227.008,2.454.008,3.682-.055.021-.154.039-.156.064-.008.105.1.066.157.1M27.636,15.674q-.006,1.092-.012,2.184c0,.093-.025.21.13.2a4,4,0,0,0,1.466-.1c.586-.251.778-.514.733-1.336a1.122,1.122,0,0,0-.856-.9,5.661,5.661,0,0,0-1.251-.079c-.078-.05-.152-.08-.21.027M33.777,40.93l2.015.018c.083.012.171.055.238-.037.006-.715.006-1.43.022-2.145.005-.235-.1-.284-.307-.28-.6.01-1.209.014-1.812,0-.246-.005-.313.1-.309.324.009.594,0,1.188,0,1.783,0,.118-.021.249.114.321l.011.022Zm-5.94,14.438a.062.062,0,0,0,.091-.027,1.018,1.018,0,0,0,.864-1.033c.034-.025.056-.05.011-.085.034-.436,0-.872,0-1.308a1.161,1.161,0,0,0-1.2-1.089.913.913,0,0,1-.761-.308c-.173-.166-.335-.344-.5-.52a1.3,1.3,0,0,0-1.688-.092,2.466,2.466,0,0,0-.625,1.5c.01.921.038,1.844-.032,2.764-.014.185.045.229.213.228,1.208-.013,2.415-.02,3.623-.028M31.248,43.3c-.008-1.481-.023-2.962-.018-4.442,0-.258-.071-.341-.325-.337-.617.009-1.234,0-1.851-.016-.2-.006-.241.071-.241.255,0,3.535.042,7.07-.029,10.6a.277.277,0,0,0,.193.3,3.463,3.463,0,0,1,2.155,2.766,7.461,7.461,0,0,1-.038,2.593c-.066.327-.031.38.284.379,3.026-.009,6.053,0,9.079-.006.108,0,.216-.014.324-.022.064-.127.223-.235.081-.4-.068-.507-.012-1.017-.031-1.525-.008-.226.006-.407-.343-.475a2.423,2.423,0,0,1-1.234-.6,2.62,2.62,0,0,1-.848-2.125c.057-.931-.023-1.869.005-2.8a10.856,10.856,0,0,1,.085-2.25,2.333,2.333,0,0,1,2.031-1.812c.246-.042.325-.111.322-.356q-.021-2.113-.015-4.227c0-.23-.071-.287-.293-.283-.592.012-1.187.017-1.778-.016-.3-.017-.363.073-.363.358,0,1.365-.028,2.73-.015,4.094,0,.332-.143.413-.406.417s-.555-.016-.833-.017q-2.9-.007-5.809-.009a.063.063,0,0,0-.089-.042M20.263,50.572l-.015-.012-.016.011-6.349-.013-.06.014c-.194.034-.306.188-.438.308-.551.5-1.02,1.089-1.6,1.568-.142.118-.224.09-.323-.029a19.024,19.024,0,0,0-1.337-1.381c-.117-.116-.126-.192,0-.308.543-.518,1.077-1.044,1.618-1.564a.479.479,0,0,0,.1-.5c-.476-1.924-.947-3.85-1.446-5.768a5.576,5.576,0,0,0-.8-1.876A5.428,5.428,0,0,0,8.13,39.68c-.113-.076-.289-.132-.147-.324a9.675,9.675,0,0,0,.781-1.469c.213-.422.237-.432.64-.182a7.062,7.062,0,0,1,3.285,4.623c.416,1.825.9,3.635,1.349,5.453.074.3.225.389.533.386,1.913-.015,3.826-.012,5.738,0a3.586,3.586,0,0,1,2.421.864c.183.159.284.148.474-.009a3.117,3.117,0,0,1,2.754-.773c.437.095.5.031.5-.415,0-.085,0-.17,0-.255,0-3.694,0-7.388-.007-11.082,0-.307.083-.391.382-.38.762.028,1.525.024,2.287.031.247,0,.494,0,.8,0a1.781,1.781,0,0,0-.138-.212,9.244,9.244,0,0,0-4.5-2.635c-.2-.05-.314-.035-.359.2a5.46,5.46,0,0,1-.214.68q-1.258,3.8-2.518,7.6c-.04.12-.028.3-.169.334-.178.038-.211-.167-.292-.275q-1.754-2.344-3.5-4.7c-.187-.253-.287-.154-.423.029q-1.784,2.412-3.574,4.82c-.042.057-.071.14-.155.138-.112,0-.115-.111-.144-.184-.083-.215-.163-.431-.235-.649Q12.486,37.6,11.27,33.907c-.063-.19-.155-.275-.377-.2-.744.269-1.508.489-2.242.784a5.976,5.976,0,0,0-3.739,6.7c.189,1.178.5,2.344.785,3.509.478,1.961.926,3.929,1.367,5.9a7.506,7.506,0,0,0,.957,2.778,4.34,4.34,0,0,0,3.614,2c3.2.031,6.392.009,9.589.009a1.266,1.266,0,0,0,.253,0c.159-.033.32-.07.206-.305a.647.647,0,0,1-.023-.251c-.033-.98.027-1.961-.06-2.943-.1-1.139-.507-1.2-1.337-1.322M10.024,72.246h0c1.09,0,2.18-.015,3.269.01a.491.491,0,0,0,.54-.352c1.161-2.653,2.311-5.312,3.509-7.948a6.234,6.234,0,0,0,.691-3.325c0-.036,0-.074,0-.109-.031-.237.067-.319.307-.313.582.013,1.165.018,1.746,0,.27-.01.362.064.354.342-.02.643-.014,1.288-.008,1.932a1.856,1.856,0,0,1-.181.773c-.53,1.209-1.112,2.394-1.6,3.621a2.053,2.053,0,0,0-.067,1.139,20.818,20.818,0,0,1,.321,3.152,4.556,4.556,0,0,0,.1.83c.036.179.169.252.371.252q2.851-.008,5.7.006c.146,0,.186-.041.228-.194a8.913,8.913,0,0,0,.118-1.579c.113-1.305.221-2.613.292-3.921.067-1.228.186-2.452.25-3.68.023-.445.009-.9.067-1.336.144-1.111.158-2.232.286-3.343.035-.3-.047-.413-.387-.411q-6.992.027-13.985.023a3.474,3.474,0,0,1-1.175-.112c-.263-.092-.354,0-.449.235-.259.64-.318,1.33-.54,1.982-.323.952-.533,1.942-.8,2.915-.219.81-.435,1.622-.671,2.426-.179.609-.31,1.232-.5,1.833-.21.656-.38,1.326-.574,1.984-.273.926-.518,1.864-.789,2.792-.083.282-.058.393.269.389,1.1-.014,2.2-.005,3.305-.005M6.118,13.1c-.029.216,0,.34.285.252a3.6,3.6,0,0,1,1.079-.11c.618.006,1.235,0,1.853,0a11.209,11.209,0,0,0,6.352-1.957,12.616,12.616,0,0,0,2.1-1.9c.2-.212.321-.213.512-.013.268.28.563.533.84.8a9.88,9.88,0,0,0,5.144,2.818,16.406,16.406,0,0,0,2.923.252,13.071,13.071,0,0,1,2.355.081c.4.076.432.046.376-.344a11.976,11.976,0,0,0-2.913-6.433A11.519,11.519,0,0,0,15.691,2.658,11.4,11.4,0,0,0,7.462,8.821,11.481,11.481,0,0,0,6.118,13.1M25.227,18.47q0-1.311,0-2.623c0-.161-.025-.237-.23-.269a13.616,13.616,0,0,1-2.254-.467,12.885,12.885,0,0,1-4.426-2.441c-.252-.219-.372-.165-.585.018a12.128,12.128,0,0,1-3.191,1.958,14.439,14.439,0,0,1-3.459.927c-.2.032-.25.089-.249.286.008,1.737,0,3.474.01,5.21a3.971,3.971,0,0,0,.078.93,5.84,5.84,0,0,0,3.092,4.135,2.744,2.744,0,0,1,1.62,2.741c-.006.51.011,1.021-.005,1.53a.936.936,0,0,0,.3.746c.643.622,1.242,1.289,1.924,1.872.159.136.226.129.367-.015.633-.651,1.263-1.308,1.933-1.919a.844.844,0,0,0,.3-.723c-.014-.583-.013-1.166-.007-1.749a3.2,3.2,0,0,1,.111-.891,2.6,2.6,0,0,1,1.387-1.547,6.059,6.059,0,0,0,3.281-5.488c.029-.739,0-1.481,0-2.222M13.241,29.452h0c0-.194-.009-.389,0-.583a.549.549,0,0,0-.292-.587,11.868,11.868,0,0,1-1.234-.793,8.11,8.11,0,0,1-2.545-3.272,8.239,8.239,0,0,1-.725-3.5c.006-.205-.056-.28-.269-.26a6.06,6.06,0,0,1-1.866-.147c-.319-.071-.348.054-.34.3A6.2,6.2,0,0,1,5.861,22.1a5.994,5.994,0,0,1-2.42,3.609,2.524,2.524,0,0,0-.833,2.815,2.6,2.6,0,0,0,1.618,1.54,4.607,4.607,0,0,0,.943.189c.3.06.377.211.236.489-.12.237-.229.481-.328.728a2.673,2.673,0,0,0-.031,2.051c.1.24.206.386.5.13A7.086,7.086,0,0,1,7.75,32.256c1.609-.586,3.229-1.149,4.881-1.61.6-.169.6-.17.611-.793,0-.134,0-.267,0-.4m9.584-.264c0,1.112-.008,1.141.926,1.292a13.288,13.288,0,0,1,6.97,3.069c.223.2.275-.009.318-.141a2.4,2.4,0,0,0,.105-1.325,5.321,5.321,0,0,0-.468-1.409c-.133-.231-.072-.347.183-.411.375-.095.75-.194,1.113-.325a2.393,2.393,0,0,0,.758-4.092A8.238,8.238,0,0,1,31,23.952a6.312,6.312,0,0,1-.981-3.368c0-.125.1-.361-.211-.269a5.245,5.245,0,0,1-1.831.148c-.307-.018-.36.094-.356.368a8.467,8.467,0,0,1-.771,3.585,7.728,7.728,0,0,1-3.3,3.557c-.554.321-.9.66-.718,1.215m18,18.984h.012c0,.436-.021.874.006,1.309.023.365-.2.873.082,1.057s.751.074,1.134.038a1.136,1.136,0,0,0,1.124-1,15.228,15.228,0,0,0,.036-2.494c-.027-.823-.363-1.163-1.047-1.282a7.79,7.79,0,0,0-1.192-.028c-.157,0-.159.091-.158.216.006.727,0,1.455,0,2.182M14.879,37.179c.493-.73,1.007-1.365,1.511-2.01.1-.13.01-.227-.076-.314-.663-.671-1.324-1.344-1.993-2.009a.709.709,0,0,0-.863.012.171.171,0,0,0-.037.223c.409.956.681,1.958,1,2.944.121.372.287.729.457,1.153m6.339,0c.094-.264.167-.454.23-.648q.542-1.652,1.079-3.3c.058-.179.2-.413-.013-.526a.568.568,0,0,0-.679.064c-.706.7-1.4,1.406-2.1,2.111-.08.081-.141.16-.048.281.5.653.994,1.309,1.534,2.023M8.44,16.883c0-.315-.013-.632,0-.946.013-.232-.084-.3-.295-.29-.326.011-.653,0-.979.013a1.277,1.277,0,0,0-1.2,1.2,1.292,1.292,0,0,0,1.246,1.194c.326,0,.653,0,.979.011.186.009.256-.041.246-.239-.017-.314,0-.631,0-.946" transform="translate(0 0)" fill="#060607"/>
          <path id="Trazado_606231" data-name="Trazado 606231" d="M178.14,209.225a9.619,9.619,0,0,1-.69-19.187,9.575,9.575,0,0,1,10.509,9.61,9.581,9.581,0,0,1-9.818,9.577m-6.941-9.684a7.174,7.174,0,1,0,6.644-7.141,7.2,7.2,0,0,0-6.644,7.141" transform="translate(-119.556 -134.585)" fill="#060607"/>
          <path id="Trazado_606232" data-name="Trazado 606232" d="M168.739,26.232a9.664,9.664,0,0,1,9.7-9.709,9.463,9.463,0,0,1,9.375,8.4,9.6,9.6,0,0,1-8.992,10.818,9.661,9.661,0,0,1-10.087-9.506m2.422-.078a7.175,7.175,0,1,0,6.256-7.168,7.182,7.182,0,0,0-6.256,7.168" transform="translate(-119.518 -11.703)" fill="#060607"/>
          <path id="Trazado_606233" data-name="Trazado 606233" d="M194.647,122.453a9.6,9.6,0,0,1-.263-19.2,9.6,9.6,0,1,1,.263,19.2m.628-16.789a8.052,8.052,0,0,0-1.223.036,6.354,6.354,0,0,0-3.1,1.062,7.082,7.082,0,0,0-3.306,6.8,6.675,6.675,0,0,0,1.385,3.588,6.933,6.933,0,0,0,7.178,2.771,7.067,7.067,0,0,0,5.757-6.392,6.973,6.973,0,0,0-1.3-4.852,6.832,6.832,0,0,0-5.31-2.974c-.015-.033-.028-.069-.076-.042" transform="translate(-131.182 -73.136)" fill="#060607"/>
          <path id="Trazado_606234" data-name="Trazado 606234" d="M168.349,82.5l.264.006c.154.229.391.069.582.126.146,2.418.037,4.838.07,7.257.009.655.006,1.311.02,1.966,0,.22-.06.287-.292.285q-2.1-.021-4.207,0c-.235,0-.307-.042-.307-.3a9.136,9.136,0,0,0-.061-1.842c-.058-.285.173-.273.344-.276.592-.011,1.186-.022,1.777,0,.262.009.355-.046.353-.33-.012-2.172,0-4.345-.014-6.517,0-.292.079-.393.36-.374.216.015.435,0,.653,0a.264.264,0,0,0,.459,0" transform="translate(-116.451 -58.429)" fill="#060607"/>
          <path id="Trazado_606235" data-name="Trazado 606235" d="M169.312,161.636q0,2.186,0,4.372c0,.492,0,.492-.468.493-.52,0-1.042-.019-1.561.007-.3.015-.358-.094-.357-.372.008-2.174-.006-4.348,0-6.521,0-.3-.058-.4-.378-.377-.578.032-1.161,0-1.741,0-.209,0-.285-.051-.29-.287a10.616,10.616,0,0,0-.054-1.912c-.036-.179.163-.171.292-.172q1.289-.009,2.577-.011c.557,0,1.114.019,1.67,0,.258-.007.324.075.322.329-.012,1.482-.006,2.963-.006,4.445h-.009" transform="translate(-116.489 -111.103)" fill="#060607"/>
          <path id="Trazado_606236" data-name="Trazado 606236" d="M159.742,134.4c-1,0-2.007-.006-3.01,0-.228,0-.306-.055-.3-.3.02-.643.015-1.287,0-1.93,0-.21.059-.253.263-.252,1.5.008,3-.012,4.5.009a5.382,5.382,0,0,1,1.032.053c.145.03.2.048.2.209-.01.643-.005,1.287,0,1.93,0,.2-.081.261-.29.257-.8-.016-1.6-.006-2.395-.006v.026" transform="translate(-110.802 -93.444)" fill="#060607"/>
          <path id="Trazado_606237" data-name="Trazado 606237" d="M179.4,82.542c-.191-.057-.428.1-.582-.126.2.021.445-.182.582.126" transform="translate(-126.661 -58.342)" fill="#515965"/>
          <path id="Trazado_606238" data-name="Trazado 606238" d="M176.8,82.432a.264.264,0,0,1-.459,0,.89.89,0,0,1,.459,0" transform="translate(-124.906 -58.365)" fill="#515965"/>
          <path id="Trazado_606239" data-name="Trazado 606239" d="M147.809,194.8c-.055-.032-.164.007-.156-.1,0-.025.1-.043.156-.064v.162" transform="translate(-104.583 -137.86)" fill="#515965"/>
          <path id="Trazado_606240" data-name="Trazado 606240" d="M25.6,131.358l6.349.013c0,.02.009.039.014.058l.016-.057c.831.125,1.237.183,1.337,1.322.086.982.027,1.962.06,2.942a.648.648,0,0,0,.023.251c.115.235-.047.272-.205.305a1.272,1.272,0,0,1-.254,0c-3.2,0-6.392.022-9.588-.009a4.339,4.339,0,0,1-3.614-2,7.51,7.51,0,0,1-.957-2.778c-.441-1.97-.889-3.938-1.367-5.9-.284-1.164-.6-2.331-.785-3.509a5.976,5.976,0,0,1,3.739-6.7c.733-.294,1.5-.514,2.242-.783.221-.08.313,0,.376.2Q24.2,118.4,25.422,122.1c.072.218.152.435.235.649.028.074.032.181.144.184.084,0,.113-.081.155-.138q1.788-2.41,3.574-4.82c.136-.184.236-.283.423-.029q1.737,2.358,3.5,4.7c.081.108.114.313.293.274.141-.03.129-.214.169-.334q1.262-3.8,2.518-7.6a5.515,5.515,0,0,0,.214-.68c.045-.239.157-.254.358-.2a9.244,9.244,0,0,1,4.5,2.635,1.9,1.9,0,0,1,.138.211c-.3,0-.55,0-.8,0-.762-.007-1.525,0-2.287-.031-.3-.011-.383.073-.382.38q.016,5.541.007,11.082c0,.085,0,.17,0,.255,0,.446-.063.51-.5.415a3.115,3.115,0,0,0-2.753.772c-.19.157-.291.168-.474.009a3.589,3.589,0,0,0-2.421-.864c-1.913-.008-3.826-.01-5.738,0-.308,0-.46-.088-.533-.387-.447-1.819-.933-3.628-1.349-5.453a7.064,7.064,0,0,0-3.286-4.623c-.4-.25-.426-.239-.639.182a9.651,9.651,0,0,1-.781,1.469c-.142.192.034.248.147.324a5.423,5.423,0,0,1,1.469,1.338,5.576,5.576,0,0,1,.8,1.876c.5,1.919.969,3.844,1.446,5.768a.48.48,0,0,1-.1.5c-.541.519-1.076,1.046-1.618,1.564-.122.116-.113.191,0,.307a19.151,19.151,0,0,1,1.337,1.381c.1.12.181.148.322.029.576-.479,1.045-1.066,1.6-1.568.132-.12.244-.275.438-.308l.033.008Z" transform="translate(-11.718 -80.799)" fill="#33ece0"/>
          <path id="Trazado_606241" data-name="Trazado 606241" d="M25.587,212.257c-1.1,0-2.2-.008-3.305.005-.327,0-.351-.107-.269-.389.272-.928.517-1.866.789-2.792.194-.658.364-1.328.574-1.984.192-.6.324-1.224.5-1.833.237-.805.452-1.616.671-2.426.263-.973.473-1.963.8-2.915.221-.653.28-1.343.54-1.982.095-.234.186-.327.449-.234a3.488,3.488,0,0,0,1.175.112q6.992-.007,13.985-.023c.34,0,.422.109.387.411-.128,1.111-.142,2.232-.286,3.343-.057.441-.043.891-.067,1.336-.064,1.228-.184,2.452-.25,3.68-.071,1.308-.178,2.616-.292,3.921a8.882,8.882,0,0,1-.119,1.579c-.041.153-.081.195-.228.194q-2.851-.01-5.7-.006c-.2,0-.335-.073-.371-.252a4.527,4.527,0,0,1-.1-.83,20.852,20.852,0,0,0-.321-3.152,2.054,2.054,0,0,1,.067-1.14c.49-1.227,1.071-2.412,1.6-3.621a1.853,1.853,0,0,0,.181-.773c-.006-.644-.011-1.288.008-1.932.008-.278-.083-.352-.354-.342-.582.022-1.165.017-1.747,0-.239-.006-.338.076-.306.313,0,.036,0,.073,0,.109a6.237,6.237,0,0,1-.69,3.325c-1.2,2.636-2.348,5.295-3.509,7.948a.491.491,0,0,1-.54.352c-1.089-.025-2.179-.01-3.269-.01h0" transform="translate(-15.564 -140.011)" fill="#ca8c56"/>
          <path id="Trazado_606242" data-name="Trazado 606242" d="M20.952,18.959A11.474,11.474,0,0,1,22.3,14.681a11.4,11.4,0,0,1,8.229-6.162,11.518,11.518,0,0,1,11.332,3.892,11.973,11.973,0,0,1,2.913,6.433c.055.389.023.419-.376.344a13.072,13.072,0,0,0-2.355-.081,16.4,16.4,0,0,1-2.923-.252,9.881,9.881,0,0,1-5.144-2.818c-.277-.272-.572-.524-.84-.8-.192-.2-.313-.2-.512.013a12.639,12.639,0,0,1-2.1,1.9A11.209,11.209,0,0,1,24.168,19.1c-.618,0-1.235.006-1.853,0a3.6,3.6,0,0,0-1.079.11c-.29.088-.314-.036-.285-.252" transform="translate(-14.834 -5.86)" fill="#515965"/>
          <path id="Trazado_606243" data-name="Trazado 606243" d="M51.534,48.891c0,.741.025,1.483,0,2.222A6.059,6.059,0,0,1,48.248,56.6a2.6,2.6,0,0,0-1.387,1.547,3.2,3.2,0,0,0-.112.891c-.006.583-.007,1.166.007,1.749a.845.845,0,0,1-.3.723c-.67.611-1.3,1.268-1.933,1.919-.14.144-.207.151-.367.015-.682-.583-1.281-1.25-1.924-1.872a.935.935,0,0,1-.3-.746c.016-.51,0-1.02.006-1.53a2.745,2.745,0,0,0-1.62-2.741,5.839,5.839,0,0,1-3.093-4.135,3.986,3.986,0,0,1-.078-.93c-.008-1.737,0-3.474-.01-5.21,0-.2.045-.254.249-.286a14.435,14.435,0,0,0,3.459-.927,12.12,12.12,0,0,0,3.191-1.958c.214-.183.334-.237.585-.018a12.887,12.887,0,0,0,4.426,2.441A13.612,13.612,0,0,0,51.3,46c.2.032.23.108.23.27q0,1.311,0,2.623M44.2,55.7a4.935,4.935,0,0,0,2.036-.42,5.074,5.074,0,0,0,2.651-2.43c.095-.179,0-.282-.171-.364-.487-.236-.973-.475-1.446-.737-.375-.207-.419-.214-.632.179a2.728,2.728,0,0,1-3.4,1.129,2.56,2.56,0,0,1-1.262-1.2c-.114-.246-.233-.282-.466-.15-.389.22-.8.408-1.192.613-.663.343-.669.349-.258.966A5.065,5.065,0,0,0,44.2,55.7" transform="translate(-26.306 -30.42)" fill="#fcd0a3"/>
          <path id="Trazado_606244" data-name="Trazado 606244" d="M110.673,148.847c-.108.008-.216.022-.324.022-3.026,0-6.052,0-9.079.006-.315,0-.35-.052-.284-.379a7.462,7.462,0,0,0,.038-2.593,3.462,3.462,0,0,0-2.155-2.766.277.277,0,0,1-.193-.3c.071-3.535.025-7.07.029-10.6,0-.184.039-.261.241-.255.617.018,1.234.025,1.851.016.255,0,.326.079.325.337,0,1.481.01,2.962.018,4.442,0,.068.043.063.089.042q2.9,0,5.809.009c.278,0,.556.021.833.017s.409-.085.406-.417c-.013-1.365.019-2.729.015-4.094,0-.285.063-.375.363-.358.591.034,1.185.029,1.778.017.222,0,.293.053.293.283q-.007,2.113.015,4.227c0,.245-.076.314-.322.356a2.333,2.333,0,0,0-2.031,1.812,10.855,10.855,0,0,0-.085,2.25c-.028.933.052,1.872-.005,2.8a2.62,2.62,0,0,0,.848,2.125,2.426,2.426,0,0,0,1.234.6c.35.068.335.249.343.475.018.508-.038,1.018.03,1.525-.143.111-.056.268-.081.4" transform="translate(-69.893 -93.475)" fill="#f6f8fa"/>
          <path id="Trazado_606245" data-name="Trazado 606245" d="M19.257,78.73c0,.134,0,.267,0,.4-.007.623-.007.625-.61.793-1.652.461-3.272,1.023-4.881,1.61a7.091,7.091,0,0,0-2.209,1.393c-.289.255-.4.11-.5-.13a2.673,2.673,0,0,1,.031-2.051c.1-.247.207-.491.328-.728.141-.278.066-.43-.236-.489a4.628,4.628,0,0,1-.943-.189A2.6,2.6,0,0,1,8.624,77.8a2.524,2.524,0,0,1,.833-2.815,5.993,5.993,0,0,0,2.421-3.609,6.189,6.189,0,0,0,.108-1.479c-.008-.25.02-.375.34-.3a6.051,6.051,0,0,0,1.866.147c.213-.019.275.055.269.26a8.238,8.238,0,0,0,.725,3.5,8.113,8.113,0,0,0,2.545,3.272,11.862,11.862,0,0,0,1.234.793.549.549,0,0,1,.293.587c-.012.194,0,.389,0,.583h0" transform="translate(-6.016 -49.277)" fill="#515965"/>
          <path id="Trazado_606246" data-name="Trazado 606246" d="M78.135,78.467c-.177-.555.165-.894.718-1.215a7.724,7.724,0,0,0,3.3-3.557,8.462,8.462,0,0,0,.771-3.585c0-.274.049-.386.356-.368a5.253,5.253,0,0,0,1.831-.148c.309-.092.211.144.211.269a6.313,6.313,0,0,0,.981,3.368,8.243,8.243,0,0,0,1.734,1.9,2.393,2.393,0,0,1-.759,4.092c-.363.131-.738.23-1.113.325-.255.064-.315.18-.183.411a5.32,5.32,0,0,1,.468,1.409,2.4,2.4,0,0,1-.105,1.324c-.043.132-.1.34-.318.141a13.285,13.285,0,0,0-6.97-3.069c-.934-.152-.929-.181-.926-1.292" transform="translate(-55.31 -49.278)" fill="#515965"/>
          <path id="Trazado_606247" data-name="Trazado 606247" d="M87.065,177.268A1.018,1.018,0,0,1,86.2,178.3a.06.06,0,0,0-.091.027c-1.208.009-2.415.016-3.623.028-.169,0-.228-.042-.214-.227.07-.92.042-1.842.032-2.764a2.468,2.468,0,0,1,.625-1.5,1.3,1.3,0,0,1,1.688.092c.163.176.326.354.5.52a.913.913,0,0,0,.761.308,1.161,1.161,0,0,1,1.2,1.089c0,.435.037.872,0,1.308l-.011.085" transform="translate(-58.273 -122.96)" fill="#ffe492"/>
          <path id="Trazado_606248" data-name="Trazado 606248" d="M139.855,159.3c0-.728,0-1.455,0-2.182,0-.125,0-.218.158-.215a7.754,7.754,0,0,1,1.192.028c.683.118,1.02.458,1.046,1.281a15.172,15.172,0,0,1-.036,2.494,1.136,1.136,0,0,1-1.124,1c-.383.036-.863.141-1.134-.038s-.059-.692-.082-1.057c-.027-.435-.006-.873-.006-1.309h-.012" transform="translate(-99.029 -111.128)" fill="#ffe492"/>
          <path id="Trazado_606249" data-name="Trazado 606249" d="M47.4,116.594c-.169-.424-.336-.781-.457-1.153-.321-.986-.593-1.989-1-2.944a.171.171,0,0,1,.036-.223.709.709,0,0,1,.864-.012c.669.665,1.33,1.338,1.993,2.009.086.088.178.184.077.314-.5.644-1.017,1.28-1.511,2.01" transform="translate(-32.525 -79.415)" fill="#33ece0"/>
          <path id="Trazado_606250" data-name="Trazado 606250" d="M68.9,116.392c-.541-.714-1.035-1.37-1.535-2.023-.093-.122-.032-.2.049-.281.7-.7,1.4-1.413,2.1-2.111a.568.568,0,0,1,.679-.064c.209.113.072.348.014.526q-.536,1.653-1.079,3.3c-.064.194-.136.384-.23.648" transform="translate(-47.68 -79.209)" fill="#33ece0"/>
          <path id="Trazado_606251" data-name="Trazado 606251" d="M117.434,134.4l-2.014-.018-.012-.021-.024.007c-.134-.072-.113-.2-.114-.321,0-.594,0-1.189,0-1.783,0-.227.062-.33.309-.324.6.013,1.209.008,1.813,0,.206,0,.312.045.307.28-.016.715-.016,1.43-.022,2.145-.081,0-.167-.026-.238.037" transform="translate(-81.643 -93.452)" fill="#ca8c56"/>
          <path id="Trazado_606252" data-name="Trazado 606252" d="M22.943,54.875c0,.315-.012.632,0,.946.011.2-.06.248-.246.239-.326-.016-.653-.007-.979-.011a1.292,1.292,0,0,1-1.246-1.194,1.277,1.277,0,0,1,1.2-1.2c.326-.016.653,0,.979-.013.211-.008.308.058.295.29-.018.314,0,.631,0,.946" transform="translate(-14.504 -37.992)" fill="#fcd0a3"/>
          <path id="Trazado_606253" data-name="Trazado 606253" d="M94.919,53.643a5.7,5.7,0,0,1,1.251.079,1.123,1.123,0,0,1,.856.9c.045.822-.146,1.085-.733,1.335a4,4,0,0,1-1.466.1c-.154.006-.13-.111-.13-.2q0-1.092.012-2.184l.21-.027" transform="translate(-67.073 -37.995)" fill="#fcd0a3"/>
          <path id="Trazado_606254" data-name="Trazado 606254" d="M139.793,188.847c.025-.135-.062-.292.081-.4.141.169-.018.276-.081.4" transform="translate(-99.013 -133.475)" fill="#acc868"/>
          <path id="Trazado_606255" data-name="Trazado 606255" d="M122.7,140.277c.071-.063.157-.036.238-.037-.067.092-.155.049-.238.037" transform="translate(-86.909 -99.329)" fill="#515965"/>
          <path id="Trazado_606256" data-name="Trazado 606256" d="M94.951,53.533l-.21.027c.057-.106.132-.076.21-.027" transform="translate(-67.105 -37.886)" fill="#515965"/>
          <path id="Trazado_606257" data-name="Trazado 606257" d="M69.392,173.342l-.017.057-.013-.058.016-.011.015.012" transform="translate(-49.129 -122.77)" fill="#515965"/>
          <path id="Trazado_606258" data-name="Trazado 606258" d="M47.451,173.324l-.027.021-.033-.008.06-.014" transform="translate(-33.567 -122.766)" fill="#515965"/>
          <path id="Trazado_606259" data-name="Trazado 606259" d="M95.43,189.722a.06.06,0,0,1,.091-.027.062.062,0,0,1-.091.027" transform="translate(-67.593 -134.354)" fill="#ca8c56"/>
          <path id="Trazado_606260" data-name="Trazado 606260" d="M107.214,148.469c-.046.021-.085.026-.089-.042a.062.062,0,0,1,.089.042" transform="translate(-75.877 -105.127)" fill="#515965"/>
          <path id="Trazado_606261" data-name="Trazado 606261" d="M115.673,140.251l.024-.007.012.022-.024.008Z" transform="translate(-81.932 -99.335)" fill="#515965"/>
          <path id="Trazado_606262" data-name="Trazado 606262" d="M98.7,185.972l.011-.085c.044.035.023.061-.011.085" transform="translate(-69.913 -131.664)" fill="#515965"/>
          <path id="Trazado_606263" data-name="Trazado 606263" d="M177.036,205.324A7.176,7.176,0,1,1,184.2,212.6a7.129,7.129,0,0,1-7.166-7.277m11.572-1.522a.8.8,0,0,0-.091-.131q-.654-.658-1.312-1.312a.293.293,0,0,0-.471.014c-1.164,1.167-2.338,2.325-3.485,3.509-.2.2-.279.188-.445.012-.358-.379-.727-.748-1.095-1.117-.171-.171-.316-.241-.52.006-.293.354-.638.664-.963.99-.433.434-.436.436-.019.859.867.878,1.741,1.749,2.605,2.631.164.167.273.174.444,0q2.6-2.626,5.207-5.239c.058-.058.141-.1.144-.222" transform="translate(-125.393 -140.367)" fill="#fff198"/>
          <path id="Trazado_606264" data-name="Trazado 606264" d="M177.036,32.042a7.178,7.178,0,1,1,7.64,7.193,7.141,7.141,0,0,1-7.64-7.193M188.6,30.51a.326.326,0,0,0-.138-.231c-.409-.414-.828-.819-1.228-1.24-.2-.208-.332-.192-.532.013-1.135,1.162-2.286,2.309-3.426,3.466-.181.184-.312.206-.5,0-.355-.38-.75-.723-1.1-1.107-.169-.185-.261-.176-.424,0a15.822,15.822,0,0,1-1.259,1.259c-.212.18-.167.249-.018.4.927.935,1.859,1.864,2.767,2.817.214.225.318.228.532.011,1.711-1.735,3.435-3.458,5.154-5.186.067-.067.125-.143.176-.2" transform="translate(-125.393 -17.592)" fill="#fff198"/>
          <path id="Trazado_606265" data-name="Trazado 606265" d="M201.192,111.53a6.833,6.833,0,0,1,5.31,2.975,6.971,6.971,0,0,1,1.3,4.852,7.066,7.066,0,0,1-5.757,6.391,6.932,6.932,0,0,1-7.178-2.771,6.673,6.673,0,0,1-1.385-3.588,7.081,7.081,0,0,1,3.306-6.8,6.354,6.354,0,0,1,3.1-1.062,8.057,8.057,0,0,1,1.223-.036l.076.041m3.843,5.582c-.045-.052-.1-.118-.154-.177-.357-.362-.718-.721-1.075-1.084-.4-.409-.476-.412-.853,0-1.064,1.177-2.239,2.244-3.326,3.4-.147.156-.247.125-.38-.022-.317-.35-.649-.686-.975-1.028s-.424-.352-.76-.022c-.415.408-.81.836-1.22,1.25-.082.083-.153.1-.02.234q1.5,1.457,2.967,2.941c.147.147.235.178.4.01q2.63-2.664,5.275-5.313c.05-.05.118-.089.119-.194" transform="translate(-137.023 -78.96)" fill="#fff198"/>
          <path id="Trazado_606266" data-name="Trazado 606266" d="M219.8,111.533l-.076-.042c.048-.027.061.009.076.042" transform="translate(-155.63 -78.963)" fill="#acc868"/>
          <path id="Trazado_606267" data-name="Trazado 606267" d="M50.613,76.745a5.065,5.065,0,0,1-4.141-2.416c-.411-.618-.406-.623.258-.966.4-.205.8-.394,1.192-.613.233-.132.352-.1.466.15a2.56,2.56,0,0,0,1.262,1.2,2.728,2.728,0,0,0,3.4-1.129c.214-.394.258-.386.632-.179.473.262.959.5,1.446.737.169.082.266.185.171.364a5.074,5.074,0,0,1-2.651,2.43,4.935,4.935,0,0,1-2.036.42" transform="translate(-32.717 -51.46)" fill="#060607"/>
          <path id="Trazado_606268" data-name="Trazado 606268" d="M195.564,213.687c0,.122-.086.164-.144.222q-2.6,2.619-5.207,5.239c-.171.172-.28.166-.444,0-.864-.881-1.738-1.753-2.605-2.631-.418-.423-.414-.425.019-.859.325-.326.67-.637.963-.99.2-.247.349-.177.52-.006.368.369.737.738,1.095,1.117.166.176.248.192.445-.012,1.146-1.184,2.321-2.341,3.485-3.509a.293.293,0,0,1,.471-.014q.657.655,1.312,1.312a.8.8,0,0,1,.091.131" transform="translate(-132.349 -150.253)" fill="#060607"/>
          <path id="Trazado_606269" data-name="Trazado 606269" d="M195.422,40.352c-.051.058-.109.134-.176.2-1.719,1.728-3.443,3.451-5.154,5.186-.214.218-.319.214-.532-.011-.908-.953-1.84-1.882-2.767-2.817-.15-.151-.194-.219.018-.4a15.819,15.819,0,0,0,1.259-1.259c.163-.173.254-.183.424,0,.351.383.746.727,1.1,1.107.19.2.321.181.5,0,1.14-1.157,2.291-2.3,3.426-3.466.2-.2.334-.221.532-.013.4.422.82.826,1.228,1.24a.326.326,0,0,1,.138.231" transform="translate(-132.217 -27.434)" fill="#060607"/>
          <path id="Trazado_606270" data-name="Trazado 606270" d="M211.7,126.983c0,.1-.069.144-.119.194q-2.639,2.655-5.275,5.313c-.166.168-.254.137-.4-.01q-1.475-1.48-2.967-2.941c-.133-.129-.062-.151.02-.234.41-.414.8-.842,1.22-1.25.337-.331.437-.318.76.022s.658.678.975,1.028c.133.147.232.178.38.022,1.087-1.155,2.262-2.222,3.326-3.4.376-.416.45-.413.853,0,.357.363.717.722,1.075,1.084.058.059.11.125.154.177" transform="translate(-143.691 -88.832)" fill="#060607"/>
        </g>
      </g>
    </g>
  </g>
</svg>
