<svg xmlns="http://www.w3.org/2000/svg" xmlns:xlink="http://www.w3.org/1999/xlink" width="295" height="183" viewBox="0 0 295 183">
  <defs>
    <clipPath id="clip-path">
      <rect id="Rect치ngulo_347442" data-name="Rect치ngulo 347442" width="195.623" height="176.389" fill="none"/>
    </clipPath>
  </defs>
  <g id="Grupo_1071441" data-name="Grupo 1071441" transform="translate(-495 -1457)">
    <rect id="Rect치ngulo_45724" data-name="Rect치ngulo 45724" width="295" height="45" rx="22.5" transform="translate(495 1595)" fill="#a3bfe4"/>
    <g id="Grupo_1071440" data-name="Grupo 1071440" transform="translate(548 1457)">
      <g id="Grupo_1071439" data-name="Grupo 1071439" clip-path="url(#clip-path)">
        <path id="Trazado_608346" data-name="Trazado 608346" d="M91.662,135.634s3.186-5.4,1.538-10.719-3.473-6.343-5.156-7.221-5.864-2.979-6.318-5.84,2.825-5.176,5.973-7.035,8.481-1.989,12.185-2.253,11.206-.755,17.624-2.894,21.231-8.759,25.931-16.082,4.165-7.245,5.7-12.455,2.886-10.608,2.912-14.978c.037-6.516-1.7-14.307-13.39-26.12s-31.759-14.1-36.82-14.744A146.493,146.493,0,0,0,79,13.256c-12.068-.132-16.986-.056-27.522.4S10.073,17.491,10.344,32.88,11.213,52.5,11.893,56.6s1.45,9.088,3.982,13.916,17.947,21.768,30.29,27.6,17.064,11.632,18.723,13.457,2.627,5.372,7.925,8.134,11.921,3.5,14.652,7.422a11.505,11.505,0,0,1,1.627,8.505Z" fill="#fffbe5"/>
        <path id="Trazado_608347" data-name="Trazado 608347" d="M131.614,86.4s-2.056-1.553-3.693-8.694l-.474,4.831-14.878,1.157s-1.171-4.612.31-6.954,5.695-5.93,13.421-6a47.082,47.082,0,0,1,4.656.82s-1.464-5.41-.666-7.653,1.571-3.684,5.54-2.355c3.906,1.307,3.818,4.545,2.947,6.607a16.327,16.327,0,0,1-3.814,4.758s2.78.684,2.825,2.761.512,10.051,1.755,13.569c1.119,3.161,2.524,5.668,5.971,5.7,3.353.032,8.6.54,9.626,4.721.814,3.3-.43,4.8,2.682,6.737,2.49,1.551,3.056,2.706,2.986,8.439a41.559,41.559,0,0,0-2.694-4.67c-.959-1.213-4.7-4.111-6.021-4.408a21.636,21.636,0,0,0-3.639.609c-2.986.632-6.962,1.738-11.907.27s-5.576-4.057-5.837-5.78a13.655,13.655,0,0,1,1.591-8.183s2.868,0,2.917-4.459c0,0,.311-2.765-2.22-2.765-.492,0-1.384.942-1.384.942" fill="#fff"/>
        <path id="Trazado_608348" data-name="Trazado 608348" d="M162.153,115.056s6.228,13.282,8.5,21.224,4.967,17.992,4.261,24.072-2.052,11.86-12.729,11.939l1.162,3.8H120.822l.133-4.918s-1.254,3.894-7.477,1.923-19.092-18.768-19.092-18.768l1.085-.822.243.505h10.871l-4.8-7.345.758-.3s.1,1.071,1.585,1.659a30.564,30.564,0,0,0,5.1-.418s3.321,2.363,8.152,6.1l2.549-7.024-5.431-3.915s-.521-9.924-.469-11.868a24.6,24.6,0,0,1,2.493-10.591c2.41-5.374,6.434-11.887,7.167-12.3l2.746-3.6a14.559,14.559,0,0,0-.8,5.611s-.232,4.661-.068,8.142.865,9.577.865,9.577a51.482,51.482,0,0,1,3.8-9.339c2.293-4.094,3.191-5.58,3.191-5.58s3.922-1.878,5.044-5.483c0,0,2.681.705,7.92-.254s7.44-2.683,11.592,1.66a28.712,28.712,0,0,1,4.18,6.316" fill="#33ece0"/>
        <path id="Trazado_608349" data-name="Trazado 608349" d="M132.509,85.688s-1.117-1.629-3.238-7.77l-.477,4.831L113.916,83.9s-1.171-4.611.31-6.953,5.695-5.93,13.422-6c0,0,3.652.488,4.653.82,0,0-1.463-5.409-.664-7.654s1.569-3.683,5.54-2.353c3.9,1.306,3.817,4.544,2.947,6.606a16.325,16.325,0,0,1-3.816,4.757s2.782.684,2.827,2.762.512,10.051,1.755,13.569c1.119,3.161,2.524,5.668,5.969,5.7,3.354.033,8.6.54,9.628,4.722.814,3.3-.431,4.8,2.682,6.737,2.489,1.551,3.056,2.706,2.984,8.439a41.345,41.345,0,0,0-2.693-4.67c-.956-1.214-3.345-3.7-6.022-4.408a11.288,11.288,0,0,0-4.147.371c-2.986.63-6.452,1.975-11.4.507s-5.576-4.055-5.834-5.779a13.656,13.656,0,0,1,1.589-8.184s2.87,0,2.919-4.458c0,0-.3-3.159-2.826-3.159a3.341,3.341,0,0,0-1.231.413" fill="#1a1a1a"/>
        <path id="Trazado_608350" data-name="Trazado 608350" d="M169.184,127.457s-7.45,5.106-8.37,11.891,1.5,7.419,0,9.928-3.847,12.081,1.369,19.176c5.093,6.927,11.268,5.632,11.268,5.632l19.1-37.144Z" fill="#f5f5f5"/>
        <path id="Trazado_608351" data-name="Trazado 608351" d="M125.97,100.4l.976,2.64-.454,1.211a15.465,15.465,0,0,1-1.4,3.929s-2.9,1.1-4.222-1.545a10.9,10.9,0,0,1-.91-5.647,9.944,9.944,0,0,0,4.218-.272,11.839,11.839,0,0,1,1.789-.316" fill="#1a1a1a"/>
        <path id="Trazado_608352" data-name="Trazado 608352" d="M129.226,78.426c.016-.046.263,6.5,2.189,7.845.2.128,1.781-1.851,3.817-.554s1.386,4.206.9,5.33a2.987,2.987,0,0,1-3.888,1.684,18.567,18.567,0,0,0-1.662,5.444c-.136,2.28-.163,4.02,1.022,5.695,0,0-.088,2.32-1.884,2.6a2.057,2.057,0,0,1-2.245-1.628l-1.509-4.285s-4,.928-5.589.67a5.035,5.035,0,0,1-3.816-3.375,27.468,27.468,0,0,1-1.642-7.065c-.3-3.419-.726-7.041-.726-7.041l14.528-1.1a31.779,31.779,0,0,1,.5-4.213" fill="#fff"/>
        <path id="Trazado_608353" data-name="Trazado 608353" d="M119.921,146.682l-2.549,7.024s-1.755-.616-3.555-1.329a17.072,17.072,0,0,1-5.4-4.14c.674.777,2.132,3.232,1.5,3.756-.979.805-2.956-.322-4.315-2.056s-1.473-1.908-1.473-1.908-1.742-.872-1.813-2.257.36-1.655,1.117-2.388a14.228,14.228,0,0,1,1.831-1.437,49.64,49.64,0,0,1-5.983-1.517c-2.512-.878-2.743-1.81-2.431-2.416s.8-.747,2.795-.511,10.329,2.35,10.376,2.366c1.07.366,9.9,6.813,9.9,6.813" fill="#fff"/>
        <path id="Trazado_608354" data-name="Trazado 608354" d="M183.765,154.308c-.553-1.269-1.307-2.282-1.091-3.63.3-1.861,2.481-3.123,3.509-4.685a5.572,5.572,0,0,0,.672-5.541,13.028,13.028,0,0,0-2.923-3.733,6.233,6.233,0,0,1-1.9-2.524,4.9,4.9,0,0,1-.056-1.863c.369-3.433,4.118-11.308-1.107-13.167-2.811-1-4.652,3.752-5.015,5.376-.724,3.229.354,6.743-1.866,9.646-1.148,1.505-2.956,2.484-4.455,3.719a9.752,9.752,0,0,0-3.744,6.671c-.144,2.29,1.744,4.1,1.64,6.322-.085,1.821-1.66,3.022-2.585,4.509-2.744,4.407.882,9.694,5.418,11.785a10.064,10.064,0,0,0,3.257.989Z" fill="#ffce26"/>
        <path id="Trazado_608355" data-name="Trazado 608355" d="M193.014,145.1a3.415,3.415,0,0,0-4.224,1.243,14.871,14.871,0,0,0-1.785,3.98,6.364,6.364,0,0,1-2.635,3.705c-1.415.766-3.127.758-4.546,1.538a13.353,13.353,0,0,0-4.67,4.172,10.646,10.646,0,0,0-1.373,9.318,8.928,8.928,0,0,0,9.295,5.732,9.387,9.387,0,0,0,6.946-5.632,15.484,15.484,0,0,0,.727-9.166c-.552-2.859,1.452-4.317,3.043-6.391a6.95,6.95,0,0,0,1.544-5.488,4.142,4.142,0,0,0-2.322-3.011" fill="#ffce26"/>
        <path id="Trazado_608356" data-name="Trazado 608356" d="M44.441,145.011a3.418,3.418,0,0,0-1.118,4.26,14.913,14.913,0,0,0,2.486,3.583,6.353,6.353,0,0,1,1.812,4.169c-.074,1.607-.965,3.069-1.032,4.688a13.349,13.349,0,0,0,1.162,6.153,10.65,10.65,0,0,0,7.271,5.989,8.925,8.925,0,0,0,9.707-5A9.391,9.391,0,0,0,63.495,160a15.484,15.484,0,0,0-7.473-5.355c-2.735-1.006-2.947-3.475-3.9-5.909a6.952,6.952,0,0,0-3.9-4.155,4.141,4.141,0,0,0-3.778.433" fill="#fff"/>
        <path id="Trazado_608357" data-name="Trazado 608357" d="M106.585,154.011H95.715l-11.57-18H94.866Z" fill="#fff"/>
        <path id="Trazado_608358" data-name="Trazado 608358" d="M86.132,139.221l2.417,3.716s3.769-.432,4.727-.463,3.306.127,3.536.83-.43,1.465-1.25,1.706c0,0,2.308-.31,2.8.508s-1.069,1.936-2.506,2.255c0,0,2.832-.689,3.278.4s-3.078,3.14-5.664,3.555-2.845.229-4.07-.5-2.881-4.019-3.225-4.82-.047-7.181-.047-7.181" fill="#fff"/>
        <path id="Trazado_608359" data-name="Trazado 608359" d="M44.247,3.263a16.617,16.617,0,0,1,5.145,4.408A48.878,48.878,0,0,1,56.88,21.1c1.665,4.5,2.827,9-.428,13.068a26.958,26.958,0,0,1-5.307,4.655q-8.36,6.132-16.722,12.262c-4.481,3.287-9.875,7.334-15.727,5.891C12.954,55.562,8.982,50.162,6.2,45.3c-.91-1.594-1.735-3.237-2.5-4.909a15.188,15.188,0,0,1-1.676-6.31,12.1,12.1,0,0,1,2.165-6.415c2.773-4.241,6.863-7.49,10.721-10.684,2.913-2.412,5.8-4.927,8.863-7.149,2.806-2.036,5.315-4.452,8.445-6.041A14.005,14.005,0,0,1,41.786,2.32a11.137,11.137,0,0,1,2.461.943" fill="#fff"/>
        <path id="Trazado_608360" data-name="Trazado 608360" d="M22.733,22.618a1.615,1.615,0,0,0-.987.81c-.524,1.3,1.627,2.913,2.333,3.734a21.621,21.621,0,0,1,2.875,4.018c.743,1.433,1.177,3.01,2.017,4.414a2.81,2.81,0,0,0,.891,1.018c.775.469,1.424-.031,1.878-.661a38.168,38.168,0,0,0,3.826-6.584c.865-1.9,2.13-4.031,1.789-6.207A3.247,3.247,0,0,0,36.1,21a4.755,4.755,0,0,0-3.133-.567,37.162,37.162,0,0,0-6.048,1c-.994.244-1.982.518-2.96.814-.348.1-.812.2-1.231.369" fill="#33ece0"/>
        <path id="Trazado_608361" data-name="Trazado 608361" d="M62.773,39.435c.068-.218.137-.437.2-.657.773-.323,1.532-.679,2.319-.963,3.8-1.378,7.268-.9,10.277,1.942,1.128,1.063,2.225,2.159,3.354,3.22a8.856,8.856,0,0,0,5.861,2.514c1.215.045,2.436-.047,3.652-.11a9.459,9.459,0,0,1,4.832.8,4.913,4.913,0,0,1,1.95,1.6.637.637,0,0,1,.086.636c-.419,1.146-.791,2.31-1.237,3.444-.568,1.44-1.109,2.9-1.812,4.275a7.29,7.29,0,0,1-5.282,4.1,10.6,10.6,0,0,1-4.2-.025c-2-.421-3.994-.887-5.962-1.441A40.746,40.746,0,0,1,67.2,54.86a14.639,14.639,0,0,1-4.378-3.666,6.642,6.642,0,0,1-1.406-5.434c.277-1.486.616-2.96.931-4.438.135-.63.284-1.258.425-1.887" fill="#fff"/>
        <path id="Trazado_608362" data-name="Trazado 608362" d="M97.411,42.913c-.135.324-.268.651-.386.939A11.758,11.758,0,0,0,95.8,42.663a7.456,7.456,0,0,0-4.625-1.384c-1.257.018-2.513.1-3.769.147a9.175,9.175,0,0,1-6.852-2.518c-1.131-1.059-2.228-2.154-3.356-3.219-3-2.835-6.462-3.346-10.273-1.978-.762.273-1.5.617-2.286.941a41.1,41.1,0,0,1,2.877-7.929,13.417,13.417,0,0,1,2.737-3.866,4.889,4.889,0,0,1,3.112-1.348,35.509,35.509,0,0,1,8.571.513c1.823.328,3.627.775,5.441,1.165,1.635.448,2.973.86,4.309,1.273q.9.356,1.8.714a17.35,17.35,0,0,1,3.738,1.954,6.114,6.114,0,0,1,2.746,5.8A23.513,23.513,0,0,1,99.5,35.59c-.151.744-.345,1.48-.521,2.218q-.788,2.555-1.573,5.1M90.887,29.845a3.289,3.289,0,0,0-4.081,2.026,3.324,3.324,0,1,0,6.343,1.962,3.31,3.31,0,0,0-2.262-3.988" fill="#1a1a1a"/>
        <path id="Trazado_608363" data-name="Trazado 608363" d="M54.152,82.265q-.239-1.047-.474-2.094c-.1-.273-.209-.545-.31-.819a26.579,26.579,0,0,0-6.233-9.676,17.762,17.762,0,0,0-14.657-5.312c-.864.073-1.725.2-2.586.305-.455.1-.913.205-1.366.308l-1.814.585a25.535,25.535,0,0,0-13,9.383,16.4,16.4,0,0,0-3.372,9.835c0,.817.087,1.636.134,2.454l.534,2.368c.1.272.215.545.314.819a25.157,25.157,0,0,0,5.467,8.7,17.361,17.361,0,0,0,13.282,5.852c.942-.013,1.887-.134,2.829-.205l2.55-.575a28.5,28.5,0,0,0,7.437-3.594,33.665,33.665,0,0,0,7.9-6.827,14.545,14.545,0,0,0,3.48-9c.013-.832-.077-1.668-.12-2.5" fill="#1a1a1a"/>
        <path id="Trazado_608364" data-name="Trazado 608364" d="M37.9,77.024a6.237,6.237,0,0,0-2.145-3.817,4.67,4.67,0,0,0-5.679-.228,11.41,11.41,0,0,0-3.7,4.249.575.575,0,0,1-.636.379A5.771,5.771,0,0,0,22,78.522a4.508,4.508,0,0,0-.665,6.938,13.586,13.586,0,0,0,3.057,2.282,43.853,43.853,0,0,0,8.219,3.4,10.383,10.383,0,0,0,1.973.319,1.983,1.983,0,0,0,2.088-1.188,8.831,8.831,0,0,0,.674-1.734A32.248,32.248,0,0,0,38.066,77.8a6.482,6.482,0,0,0-.17-.774" fill="#fff"/>
        <path id="Trazado_608365" data-name="Trazado 608365" d="M110.611,46.345a15.519,15.519,0,0,1-4.465-8.526,15.814,15.814,0,0,1-.07-4.41c.849-6.867,4.353-13.7,9.961-17.861a18.224,18.224,0,0,1,8.013-3.337,27.015,27.015,0,0,1,16.837,2.707c6.106,3.233,11.277,8.771,11.823,15.931a17.926,17.926,0,0,1-.023,2.967,25.275,25.275,0,0,1-2.734,9.257,25.02,25.02,0,0,1-6.044,7.958,19.511,19.511,0,0,1-15.161,4.159,30.818,30.818,0,0,1-9.471-2.941,31.275,31.275,0,0,1-8.666-5.9" fill="#fff"/>
        <path id="Trazado_608366" data-name="Trazado 608366" d="M137.79,44.943c-1.434,1.227-3.225,2.112-4.928,1.17-2.163-1.2-4.333-2.4-6.4-3.746-2.214-1.443-4.315-3.06-6.466-4.6-1.647-1.336-2.134-2.836-1.292-4.728.5-1.131.889-2.313,1.316-3.475a4.419,4.419,0,0,1,3.632-2.961,28.153,28.153,0,0,0,6.991-2.04,9.147,9.147,0,0,0,3.9-3.584,30.029,30.029,0,0,1,1.879-2.585,1.778,1.778,0,0,1,1.692-.715c.935.126,1.559.7,1.443,1.62-.2,1.58-.512,3.151-.856,4.709-.263,1.186-.69,2.336-.968,3.519-.268,1.14-.007,1.476,1.013,2.043a45.459,45.459,0,0,1,3.928,2.388,2.661,2.661,0,0,1,.969,3.441,26.724,26.724,0,0,1-4.1,7.734,14.649,14.649,0,0,1-1.747,1.81" fill="#33ece0"/>
        <path id="Trazado_608367" data-name="Trazado 608367" d="M107.383,153.3l-.8.706-11.719-18-10.653-.074,1.135-.488H95.7Z" fill="#fff"/>
        <path id="Trazado_608368" data-name="Trazado 608368" d="M91.715,35.352a3.325,3.325,0,1,1-1.093-4.575,3.325,3.325,0,0,1,1.093,4.575" fill="#fff"/>
        <path id="Trazado_608369" data-name="Trazado 608369" d="M108.83,88.747c-1.318-.433-2.578-.913-3.876-1.253a8.718,8.718,0,0,0-5.262.636c-2.875,1.059-5.731,2.192-8.529,3.441a76.6,76.6,0,0,1-11.646,4.224c-1.971.521-3.92,1.16-5.92,1.526a6.671,6.671,0,0,1-6.632-2.6,14.41,14.41,0,0,1-3.049-11.695,4.8,4.8,0,0,1,2.281-3.4,63.1,63.1,0,0,1,9.19-4.454A141.832,141.832,0,0,1,90.43,69.7a37.611,37.611,0,0,1,8.262-1.763,6.643,6.643,0,0,1,5.572,2.371c1.79,1.965,2.456,4.429,3.094,6.91a62.1,62.1,0,0,1,1.488,11.43c0,.072-.024.146-.016.1" fill="#fff"/>
        <path id="Trazado_608370" data-name="Trazado 608370" d="M86.374,83.1a2.3,2.3,0,0,1-3.27.2,2.057,2.057,0,0,1,.026-3,2.28,2.28,0,0,1,3.136-.16,2.07,2.07,0,0,1,.108,2.961" fill="#fff"/>
        <path id="Trazado_608371" data-name="Trazado 608371" d="M95.663,74.792a2.1,2.1,0,0,1,.344,2.867,2.36,2.36,0,0,1-3.392.384,2.164,2.164,0,0,1-.2-2.845,2.322,2.322,0,0,1,3.251-.406" fill="#fff"/>
        <path id="Trazado_608372" data-name="Trazado 608372" d="M70.88,82.707a2.316,2.316,0,0,1,3.27-.234,2.151,2.151,0,0,1,.166,2.851,2.317,2.317,0,0,1-3.352.291,2.033,2.033,0,0,1-.084-2.908" fill="#fff"/>
        <path id="Trazado_608373" data-name="Trazado 608373" d="M19.429,55.865a10.528,10.528,0,0,1-2.535-.307C10.715,54.036,6.7,48.084,4.213,43.74c-.867-1.517-1.688-3.13-2.511-4.932A15.572,15.572,0,0,1,0,32.371a12.43,12.43,0,0,1,2.213-6.577c2.625-4.015,6.4-7.135,10.059-10.153l.722-.6c.632-.524,1.261-1.051,1.893-1.579l1.062-.888a.3.3,0,1,1,.383.457l-1.061.888c-.632.529-1.264,1.058-1.9,1.581l-.722.6c-3.621,2.99-7.364,6.081-9.938,10.021A11.811,11.811,0,0,0,.6,32.377a15.008,15.008,0,0,0,1.647,6.184c.815,1.784,1.628,3.382,2.486,4.883,2.43,4.249,6.349,10.067,12.307,11.535,5.626,1.387,10.97-2.536,15.267-5.686L49.238,36.874a26.829,26.829,0,0,0,5.251-4.6c3.223-4.023,1.955-8.518.382-12.778A48.287,48.287,0,0,0,47.43,6.149a16.216,16.216,0,0,0-5.052-4.33A10.929,10.929,0,0,0,39.984.9,13.683,13.683,0,0,0,30.627,2.35a31.031,31.031,0,0,0-5.139,3.481.3.3,0,1,1-.37-.467,31.554,31.554,0,0,1,5.24-3.545,14.259,14.259,0,0,1,9.769-1.5,11.55,11.55,0,0,1,2.527.967,16.8,16.8,0,0,1,5.24,4.486,48.814,48.814,0,0,1,7.535,13.512c1.633,4.42,2.942,9.092-.475,13.359a27.217,27.217,0,0,1-5.362,4.708L32.657,49.773c-3.76,2.757-8.305,6.092-13.228,6.092" fill="#1a1a1a"/>
        <path id="Trazado_608374" data-name="Trazado 608374" d="M28.069,37.184a1.466,1.466,0,0,1-.763-.227,3.107,3.107,0,0,1-.991-1.122,17.988,17.988,0,0,1-1.178-2.515c-.26-.639-.53-1.3-.849-1.915a21.382,21.382,0,0,0-2.836-3.959c-.147-.17-.355-.372-.587-.6-.964-.941-2.283-2.232-1.8-3.44a1.874,1.874,0,0,1,1.153-.978,8.4,8.4,0,0,1,.888-.273c1.421-.421,2.394-.689,3.344-.921a37.229,37.229,0,0,1,6.093-1.009c.276-.021.555-.034.836-.034a4.139,4.139,0,0,1,2.494.654A3.545,3.545,0,0,1,35.249,23.2c.3,1.934-.6,3.824-1.4,5.492-.144.3-.285.6-.416.885a38.862,38.862,0,0,1-3.854,6.635,1.941,1.941,0,0,1-1.514.969m3.314-16.4c-.265,0-.531.014-.791.033a36.714,36.714,0,0,0-6,.995c-.939.228-1.9.494-2.946.809-.647.178-.938.255-1.209.361a1.328,1.328,0,0,0-.818.644c-.339.839.865,2.015,1.659,2.792.248.242.467.457.622.638a21.826,21.826,0,0,1,2.914,4.073c.333.64.608,1.314.873,1.964a17.673,17.673,0,0,0,1.135,2.434,2.586,2.586,0,0,0,.789.918c.6.363,1.163-.135,1.485-.58a38.34,38.34,0,0,0,3.8-6.534c.133-.293.275-.592.421-.894.795-1.668,1.618-3.392,1.346-5.143a2.961,2.961,0,0,0-1.13-1.965,3.592,3.592,0,0,0-2.149-.545" fill="#1a1a1a"/>
        <path id="Trazado_608375" data-name="Trazado 608375" d="M84.239,58.661a10.64,10.64,0,0,1-2.2-.229c-2.319-.489-4.22-.948-5.981-1.446a40.52,40.52,0,0,1-9.682-3.936,14.727,14.727,0,0,1-4.465-3.742,6.943,6.943,0,0,1-1.461-5.67c.2-1.082.435-2.158.67-3.235l.26-1.209c.088-.408.18-.813.274-1.221l.362-1.348a4.619,4.619,0,0,1,.91-.505c.516-.224,1.05-.456,1.591-.652C68.57,34,72.136,34.679,75.1,37.474q.809.764,1.606,1.543c.58.562,1.159,1.124,1.749,1.676a8.552,8.552,0,0,0,5.668,2.433c.982.036,1.987-.019,2.96-.073l.665-.036q.445-.022.888-.023a8.838,8.838,0,0,1,4.092.854,5.16,5.16,0,0,1,2.064,1.7.933.933,0,0,1,.119.9c-.162.442-.314.884-.469,1.326-.248.713-.5,1.426-.771,2.127l-.259.66A39.284,39.284,0,0,1,91.843,54.2a7.565,7.565,0,0,1-5.491,4.255,11.316,11.316,0,0,1-2.113.2M62.54,36.934l-.162.523-.146.65c-.093.4-.186.806-.272,1.212L61.7,40.53c-.232,1.071-.465,2.142-.667,3.217a6.386,6.386,0,0,0,1.351,5.2,14.153,14.153,0,0,0,4.293,3.589,39.972,39.972,0,0,0,9.542,3.878c1.749.493,3.637.949,5.942,1.437a10.326,10.326,0,0,0,4.082.022,7,7,0,0,0,5.074-3.939c.587-1.152,1.072-2.39,1.539-3.588l.26-.661c.273-.693.518-1.4.763-2.1.154-.446.31-.891.473-1.334a3.721,3.721,0,0,0-1.891-1.867,8.28,8.28,0,0,0-3.825-.789c-.285,0-.571.008-.858.022l-.663.036c-.985.055-2.008.114-3.015.073a9.143,9.143,0,0,1-6.054-2.594c-.591-.555-1.173-1.12-1.755-1.683-.532-.515-1.063-1.031-1.6-1.538q-4.2-3.957-9.972-1.879c-.523.189-1.048.417-1.556.639-.206.089-.412.179-.62.267" fill="#1a1a1a"/>
        <path id="Trazado_608376" data-name="Trazado 608376" d="M95.609,43.281a2.449,2.449,0,0,1-.581-.473,6.245,6.245,0,0,0-.818-.772A7.134,7.134,0,0,0,89.9,40.707c-.892.013-1.645.048-2.4.084-.5.024-1,.047-1.5.064a9.481,9.481,0,0,1-7.066-2.6c-.606-.568-1.2-1.146-1.8-1.724-.518-.5-1.036-1-1.559-1.5a9.068,9.068,0,0,0-9.967-1.914c-.509.182-1,.394-1.521.618-.249.106-.5.213-.753.318a23.885,23.885,0,0,1,2.5-8.341,13.941,13.941,0,0,1,2.8-3.949,5.177,5.177,0,0,1,3.3-1.427,35.725,35.725,0,0,1,8.643.52c1.246.223,2.5.506,3.716.779.578.131,1.156.261,1.736.386.269.03,4.333,1.278,4.333,1.278l1.823.724a17.768,17.768,0,0,1,3.8,1.989,6.4,6.4,0,0,1,2.868,6.068,18.643,18.643,0,0,1-.368,2.2l-.1.5c-.106.517-.232,1.031-.357,1.545l-.166.683-1.58,5.121-.4.967c-.235.181-.254.183-.274.183M89.9,40.111a7.722,7.722,0,0,1,4.659,1.443,6.66,6.66,0,0,1,.9.846c.044.049.258-.469.258-.469l1.566-5.078.16-.667c.125-.507.249-1.013.353-1.523l.1-.5a18.194,18.194,0,0,0,.359-2.131A5.843,5.843,0,0,0,95.638,26.5a17.31,17.31,0,0,0-3.675-1.919l-1.8-.715-3.988-1.228c-.854-.154-1.435-.285-2.014-.415-1.207-.273-2.457-.555-3.691-.777a35.457,35.457,0,0,0-8.5-.51,4.6,4.6,0,0,0-2.929,1.27,13.069,13.069,0,0,0-2.673,3.783,41.424,41.424,0,0,0-2.729,7.3c.745-.322,1.245-.537,1.771-.725A9.656,9.656,0,0,1,75.989,34.6c.527.5,1.044,1,1.564,1.5.594.575,1.188,1.151,1.792,1.717a8.915,8.915,0,0,0,6.638,2.436c.5-.017.995-.04,1.492-.064.761-.036,1.521-.071,2.281-.083Zm-1.448-4.353a3.416,3.416,0,0,1-1.094-.174,3.754,3.754,0,0,1-2.111-1.891,3.552,3.552,0,0,1-.138-2.789,3.67,3.67,0,0,1,3.375-2.394,3.264,3.264,0,0,1,1.086.184,3.369,3.369,0,0,1,2.048,1.593,3.7,3.7,0,0,1,.4,2.755,3.644,3.644,0,0,1-3.568,2.716m.032-6.652A3.062,3.062,0,0,0,85.672,31.1a2.961,2.961,0,0,0,.113,2.33,3.2,3.2,0,0,0,1.766,1.587,2.829,2.829,0,0,0,.9.144,3.057,3.057,0,0,0,2.994-2.274,3.1,3.1,0,0,0-.343-2.3A2.8,2.8,0,0,0,89.4,29.264a2.739,2.739,0,0,0-.911-.158" fill="#1a1a1a"/>
        <path id="Trazado_608377" data-name="Trazado 608377" d="M29.814,103.241a17.718,17.718,0,0,1-13.237-5.946,25.554,25.554,0,0,1-5.531-8.8c-.071-.195-.147-.388-.222-.58-.09-.234-.638-2.645-.638-2.645-.021-.3-.04-.556-.059-.811-.04-.558-.082-1.135-.082-1.709a16.753,16.753,0,0,1,3.431-10.011,25.9,25.9,0,0,1,13.143-9.489l1.816-.585,1.389-.316c.3-.037.57-.072.839-.107.6-.077,1.192-.153,1.79-.2a18.116,18.116,0,0,1,14.893,5.4,26.955,26.955,0,0,1,6.3,9.783l.31.817.484,2.133c.022.309.04.567.057.825.041.571.081,1.161.073,1.747a14.76,14.76,0,0,1-3.546,9.184,34.273,34.273,0,0,1-7.968,6.888,26.627,26.627,0,0,1-7.228,3.494c-.245.121-2.86.718-2.86.718-.34.029-.637.056-.934.084-.64.058-1.3.119-1.958.127Zm4.462-40.682c-.58,0-1.177.026-1.775.076s-1.174.125-1.761.2c-.271.035-.543.071-.814.1l-1.334.3-1.788.578a25.332,25.332,0,0,0-12.848,9.274,16.165,16.165,0,0,0-3.314,9.661c0,.55.04,1.117.08,1.665.019.256.037.514.052.77.041.156.6,2.511.6,2.511.077.2.155.393.227.592a24.959,24.959,0,0,0,5.4,8.593,17.144,17.144,0,0,0,12.8,5.76c.89-.009,1.54-.07,2.168-.127.3-.029.6-.056.9-.078l2.525-.588a27.632,27.632,0,0,0,7.319-3.531,33.657,33.657,0,0,0,7.833-6.765,14.189,14.189,0,0,0,3.416-8.821c.01-.561-.031-1.138-.07-1.7-.019-.262-.037-.523-.05-.785l-.466-2.045-.3-.78a26.373,26.373,0,0,0-6.165-9.567,17.371,17.371,0,0,0-12.648-5.3" fill="#1a1a1a"/>
        <path id="Trazado_608378" data-name="Trazado 608378" d="M36.642,91.3a11.326,11.326,0,0,1-2.289-.341,43.516,43.516,0,0,1-8.276-3.424A13.7,13.7,0,0,1,22.955,85.2a4.5,4.5,0,0,1-1.424-3.689,5.066,5.066,0,0,1,2.127-3.71,6.043,6.043,0,0,1,3.921-.966c.188,0,.24-.008.354-.222a11.653,11.653,0,0,1,3.8-4.357,5.044,5.044,0,0,1,6.03.242,6.473,6.473,0,0,1,2.252,3.99,5.681,5.681,0,0,1,.175.805,32.675,32.675,0,0,1-.725,10.843,9.189,9.189,0,0,1-.695,1.793A2.249,2.249,0,0,1,36.642,91.3m-9.6-13.884a5.255,5.255,0,0,0-3.045.882,4.521,4.521,0,0,0-1.868,3.268,3.865,3.865,0,0,0,1.243,3.208A13.185,13.185,0,0,0,26.353,87a43.051,43.051,0,0,0,8.165,3.379,10.245,10.245,0,0,0,1.918.309,1.673,1.673,0,0,0,1.795-1.021A8.682,8.682,0,0,0,38.881,88a32.027,32.027,0,0,0,.713-10.646,3.469,3.469,0,0,0-.1-.484,6.251,6.251,0,0,0-2.1-3.9,4.438,4.438,0,0,0-5.327-.214,11.04,11.04,0,0,0-3.6,4.141.869.869,0,0,1-.821.54c-.267-.014-.434-.021-.6-.021" fill="#1a1a1a"/>
        <path id="Trazado_608379" data-name="Trazado 608379" d="M190.495,90.63c-.211-.087-3.491-3.367-3.491-3.367a.3.3,0,0,1,0-.421.3.3,0,0,1,.423,0l3.279,3.279a.3.3,0,0,1-.211.509" fill="#1a1a1a"/>
        <path id="Trazado_608380" data-name="Trazado 608380" d="M187.215,90.63c-.328-.2-.328-.392-.211-.509l3.28-3.279a.3.3,0,0,1,.422,0,.3.3,0,0,1,0,.421l-3.279,3.28a.3.3,0,0,1-.212.087" fill="#1a1a1a"/>
        <path id="Trazado_608381" data-name="Trazado 608381" d="M194.387,85.321a1.235,1.235,0,1,1,1.236-1.235,1.237,1.237,0,0,1-1.236,1.235m0-1.874a.639.639,0,1,0,.638.639.639.639,0,0,0-.638-.639" fill="#1a1a1a"/>
        <path id="Trazado_608382" data-name="Trazado 608382" d="M17.511,131.342a1.234,1.234,0,1,1,1.236-1.235,1.236,1.236,0,0,1-1.236,1.235m0-1.873a.639.639,0,1,0,.638.638.638.638,0,0,0-.638-.638" fill="#1a1a1a"/>
        <path id="Trazado_608383" data-name="Trazado 608383" d="M123.075,97.061a2.64,2.64,0,0,1-2.542-1.435,1.164,1.164,0,0,1,.162-1.05,1.631,1.631,0,0,1,1.618-.5,4.082,4.082,0,0,0,.708.1c.475-.205.551-.252.743-1.022a1.534,1.534,0,0,1,1.364-1.28,1.2,1.2,0,0,1,.792.318,2.061,2.061,0,0,1,.483,1.69,3.436,3.436,0,0,1-1.507,2.645,3.336,3.336,0,0,1-1.821.543m-1.155-2.43a.928.928,0,0,0-.747.3.578.578,0,0,0-.069.526,2.136,2.136,0,0,0,1.971,1,2.745,2.745,0,0,0,1.5-.448,2.825,2.825,0,0,0,1.233-2.189,1.547,1.547,0,0,0-.28-1.2c-.447-.39-1.018-.015-1.185.658-.216.869-.349,1.064-.692,1.281-.279.178-.477.275-1.451.088a1.505,1.505,0,0,0-.279-.027" fill="#1a1a1a"/>
        <path id="Trazado_608384" data-name="Trazado 608384" d="M169.184,131.107c-2.886-6.553-8.344-18.2-9.291-19.594a13.639,13.639,0,0,0-4.628-4.452c-2.077-1.309-4.206-.808-6.9-.177a22.879,22.879,0,0,1-12.2.213A7.49,7.49,0,0,1,130.846,103c-1.937-4.378,1.012-10.164,1.139-10.408a.3.3,0,1,1,.529.274c-.029.057-2.944,5.779-1.122,9.895a6.926,6.926,0,0,0,4.922,3.756,22.4,22.4,0,0,0,11.914-.216c2.832-.666,5.067-1.19,7.354.252a14.344,14.344,0,0,1,4.8,4.623c.959,1.414,6.452,13.125,9.073,19.517a.3.3,0,0,1-.162.389.334.334,0,0,1-.114.022" fill="#1a1a1a"/>
        <path id="Trazado_608385" data-name="Trazado 608385" d="M160.343,172.626c-19.68,0-44.449-14.073-44.727-14.233-.133-.36,4.733-13.769,4.733-13.769a.3.3,0,0,1,.355-.187l39.106,9.824a.3.3,0,0,1-.146.578l-38.845-9.759L116.131,158c2.816,1.571,31.994,17.492,51.082,13.348a.3.3,0,0,1,.126.584,33.148,33.148,0,0,1-7,.694" fill="#1a1a1a"/>
        <path id="Trazado_608386" data-name="Trazado 608386" d="M133.352,93.189a4.666,4.666,0,0,1-1.519-.275.3.3,0,1,1,.2-.564,3.017,3.017,0,0,0,2.847-.222,3.955,3.955,0,0,0,1.439-3.1c0-.8-.172-3.4-2.57-3.456a2.9,2.9,0,0,0-2.28,1.58.3.3,0,0,1-.534-.268,3.454,3.454,0,0,1,2.765-1.909c2.4.057,3.225,2.132,3.216,4.056a4.531,4.531,0,0,1-1.69,3.58,3.173,3.173,0,0,1-1.869.576" fill="#1a1a1a"/>
        <path id="Trazado_608387" data-name="Trazado 608387" d="M134.216,91.248c-.138-.033-2.493-1.262-2.493-1.262-.083-.465,2.443-3.254,2.443-3.254a.3.3,0,0,1,.443.4l-2.268,2.5,2.012,1.05a.3.3,0,0,1-.137.562" fill="#1a1a1a"/>
        <path id="Trazado_608388" data-name="Trazado 608388" d="M121.309,101.59a6.269,6.269,0,0,1-1.135-.1,5.032,5.032,0,0,1-3.7-3.128,27.3,27.3,0,0,1-2-8.839c-.173-1.533-.595-5.558-.577-5.684a.294.294,0,0,1,.339-.252.3.3,0,0,1,.252.34c.01.094.3,3.024.532,5.123.374,3.341.713,6.376,1.988,9.055a4.472,4.472,0,0,0,3.268,2.8,7.965,7.965,0,0,0,3.106-.165,34.138,34.138,0,0,0,3.762-1,.3.3,0,0,1,.192.565,34.762,34.762,0,0,1-3.827,1.019,10.577,10.577,0,0,1-2.205.266" fill="#1a1a1a"/>
        <path id="Trazado_608389" data-name="Trazado 608389" d="M120.3,93.525c-.676-.066-2.812-.331-3.192-1.033a.577.577,0,0,1,0-.553,18.2,18.2,0,0,0,2.262-6.5.3.3,0,1,1,.594.031c0,.1-.154,2.583-2.327,6.744a5.718,5.718,0,0,0,2.692.715.3.3,0,0,1-.029.594" fill="#1a1a1a"/>
        <path id="Trazado_608390" data-name="Trazado 608390" d="M114.335,85.809c-.29-.123-.339-.3-.26-.443.033-.055.8-1.327,3.16-.972a.3.3,0,0,1,.252.338.306.306,0,0,1-.34.251c-1.94-.287-2.531.641-2.554.679a.3.3,0,0,1-.258.147" fill="#1a1a1a"/>
        <path id="Trazado_608391" data-name="Trazado 608391" d="M125.514,85.367a3.94,3.94,0,0,0-3.895-.98.3.3,0,0,1-.354-.228.3.3,0,0,1,.228-.355c2.949-.64,4.21,1.017,4.261,1.089a.3.3,0,0,1-.063.417.308.308,0,0,1-.177.057" fill="#1a1a1a"/>
        <path id="Trazado_608392" data-name="Trazado 608392" d="M123.605,88.605a.418.418,0,0,0,.395-.437L123.94,87a.417.417,0,0,0-.832.042l.061,1.17a.418.418,0,0,0,.436.4" fill="#1a1a1a"/>
        <path id="Trazado_608393" data-name="Trazado 608393" d="M116.553,89.162a.417.417,0,0,0,.395-.436l-.06-1.17a.417.417,0,1,0-.832.042l.061,1.169a.415.415,0,0,0,.436.4" fill="#1a1a1a"/>
        <path id="Trazado_608394" data-name="Trazado 608394" d="M162.153,115.354a.3.3,0,0,1-.3-.321c.443-5.894-1.257-7.086-2.9-8.238a4.749,4.749,0,0,1-2.48-4.665c.087-6.061-4.8-6.374-10.454-6.737-6.363-.409-7.124-13.82-7.16-19.567a1.965,1.965,0,0,0-.108-.642c-.3-.83-1.073-1.156-1.894-1.5-6.963-2.929-13.123-3.214-18.353-.865-2.778,1.25-6.088,3.387-6.078,6.469a32.731,32.731,0,0,0,.146,4.518c-.081.412-.265.466-.408.392-.173-.091-.322-.168-.335-4.908-.007-2.693,2.216-5.118,6.432-7.015,5.383-2.422,11.705-2.137,18.791.846a3.479,3.479,0,0,1,2.261,1.865,2.586,2.586,0,0,1,.143.838c.026,4.354.576,18.589,6.548,18.973,5.512.353,11.159.715,11.066,7.343a4.171,4.171,0,0,0,2.225,4.17c1.7,1.189,3.621,2.538,3.151,8.77a.3.3,0,0,1-.3.276" fill="#1a1a1a"/>
        <path id="Trazado_608395" data-name="Trazado 608395" d="M132.416,113.115c-2.6-.245-3.515-2.173-3.888-3.893-.29,1.281-.811,2.521-1.744,2.6a1.089,1.089,0,0,1-.989-.467c-.9-1.2-.565-4.754.776-8.265a.306.306,0,0,1,.386-.172.3.3,0,0,1,.173.385c-1.382,3.614-1.522,6.809-.858,7.694a.5.5,0,0,0,.463.23c.919-.073,1.456-2.817,1.546-4.751a.3.3,0,1,1,.6.013c-.006.186-.188,5.67,3.214,6.017,3.681.016,6.215-5.277,6.241-5.332a.294.294,0,0,1,.4-.142.3.3,0,0,1,.143.4c-.114.239-2.726,5.689-6.454,5.689" fill="#1a1a1a"/>
        <path id="Trazado_608396" data-name="Trazado 608396" d="M155.91,153.887c-.319-.317-3.928-11.446-9.912-27a.3.3,0,1,1,.555-.214c5.991,15.568,9.605,26.71,9.641,26.822a.3.3,0,0,1-.193.375.275.275,0,0,1-.091.014" fill="#1a1a1a"/>
        <path id="Trazado_608397" data-name="Trazado 608397" d="M120.828,176.125a.3.3,0,0,1-.3-.306l.4-14.75a.279.279,0,0,1,.306-.29.3.3,0,0,1,.291.306l-.4,14.75a.3.3,0,0,1-.3.29" fill="#1a1a1a"/>
        <path id="Trazado_608398" data-name="Trazado 608398" d="M163.278,176.173a27.629,27.629,0,0,1-1.382-3.8.3.3,0,0,1,.572-.173l1.1,3.585a.3.3,0,0,1-.2.371.272.272,0,0,1-.088.013" fill="#1a1a1a"/>
        <path id="Trazado_608399" data-name="Trazado 608399" d="M120.142,146.373c-.3-.2-5.52-7.785-4.673-15.281.808-7.174,5.788-21.94,10.748-26.858a.3.3,0,0,1,.42.424c-4.715,4.675-9.774,19.38-10.577,26.5-.822,7.268,4.275,14.672,4.327,14.746a.3.3,0,0,1-.245.468" fill="#1a1a1a"/>
        <path id="Trazado_608400" data-name="Trazado 608400" d="M106.55,154.309h-10.8a26.556,26.556,0,0,1-1.832-2.567.3.3,0,1,1,.5-.325l1.494,2.3H106L94.7,136.307H84.59l4.209,6.468a.3.3,0,0,1-.5.324l-4.507-6.927c.25-.461,11.073-.461,11.073-.461.25.136,11.935,18.138,11.935,18.138-.041.4-.142.46-.25.46" fill="#1a1a1a"/>
        <path id="Trazado_608401" data-name="Trazado 608401" d="M106.55,154.309c-.339-.267-.3-.453-.167-.545l.591-.4L95.535,135.746H85.408l-1.248.537a.294.294,0,0,1-.393-.157.3.3,0,0,1,.156-.391l1.305-.561c.119-.025,10.469-.025,10.469-.025.251.136,11.936,18.136,11.936,18.136a.3.3,0,0,1-.083.409l-.833.564a.3.3,0,0,1-.167.051" fill="#1a1a1a"/>
        <path id="Trazado_608402" data-name="Trazado 608402" d="M116.193,173.915c-.3,0-.618-.01-.946-.033-6.381-.415-20.5-18.6-21.1-19.372.077-.434,1.191-1.141,1.191-1.141a.3.3,0,1,1,.318.5l-.836.53c1.775,2.257,14.744,18.512,20.462,18.885,2.28.143,3.933-.257,4.779-1.176a2.414,2.414,0,0,0,.635-1.867.3.3,0,0,1,.248-.338.288.288,0,0,1,.339.248,3,3,0,0,1-.774,2.351c-.856.937-2.305,1.409-4.319,1.409" fill="#1a1a1a"/>
        <path id="Trazado_608403" data-name="Trazado 608403" d="M114.49,143.063a.3.3,0,0,1-.3-.272c0-.023-.185-2.28-.476-12.04-.29-9.86,9.8-23.044,10.229-23.6a.3.3,0,1,1,.471.363c-.1.135-10.388,13.574-10.1,23.219.287,9.73.471,11.986.472,12.007a.3.3,0,0,1-.273.322h-.024" fill="#1a1a1a"/>
        <path id="Trazado_608404" data-name="Trazado 608404" d="M81.685,176.222c-22.594-.05-38.676-.1-38.676-.1a.3.3,0,1,1,0-.6s16.08.046,38.674.1a.3.3,0,1,1,0,.6" fill="#1a1a1a"/>
        <path id="Trazado_608405" data-name="Trazado 608405" d="M166.359,176.222a.3.3,0,0,1,0-.6l19.873-.1a.3.3,0,1,1,0,.6l-19.873.1Z" fill="#1a1a1a"/>
        <path id="Trazado_608406" data-name="Trazado 608406" d="M171.174,164.641a10.361,10.361,0,0,1-3.384-1.014,11.675,11.675,0,0,1-6.23-6.736,6.542,6.542,0,0,1,.684-5.478,14.278,14.278,0,0,1,.993-1.343,5.389,5.389,0,0,0,1.547-3.023,6.7,6.7,0,0,0-.79-2.952,7.275,7.275,0,0,1-.849-3.375A10,10,0,0,1,167,133.84c.276-.228.56-.446.851-.659a.294.294,0,0,1,.417.062.3.3,0,0,1-.064.417c-.281.208-.558.42-.824.639a9.414,9.414,0,0,0-3.637,6.459,6.74,6.74,0,0,0,.8,3.1,7.224,7.224,0,0,1,.838,3.216,5.9,5.9,0,0,1-1.677,3.369,13.4,13.4,0,0,0-.952,1.285,5.965,5.965,0,0,0-.62,4.991,11.068,11.068,0,0,0,5.91,6.366,9.826,9.826,0,0,0,3.166.962.3.3,0,0,1-.032.594" fill="#1a1a1a"/>
        <path id="Trazado_608407" data-name="Trazado 608407" d="M171.174,164.641a10.361,10.361,0,0,1-3.384-1.014,11.675,11.675,0,0,1-6.23-6.736,6.542,6.542,0,0,1,.684-5.478,14.278,14.278,0,0,1,.993-1.343,5.389,5.389,0,0,0,1.547-3.023,6.7,6.7,0,0,0-.79-2.952,7.275,7.275,0,0,1-.849-3.375A10,10,0,0,1,167,133.84c.276-.228.56-.446.851-.659a.294.294,0,0,1,.417.062.3.3,0,0,1-.064.417c-.281.208-.558.42-.824.639a9.414,9.414,0,0,0-3.637,6.459,6.74,6.74,0,0,0,.8,3.1,7.224,7.224,0,0,1,.838,3.216,5.9,5.9,0,0,1-1.677,3.369,13.4,13.4,0,0,0-.952,1.285,5.965,5.965,0,0,0-.62,4.991,11.068,11.068,0,0,0,5.91,6.366,9.826,9.826,0,0,0,3.166.962.3.3,0,0,1-.032.594" fill="#1a1a1a"/>
        <path id="Trazado_608408" data-name="Trazado 608408" d="M181.88,152.617a3.987,3.987,0,0,1-.654-.984,4.765,4.765,0,0,1-.731-2.991,6.305,6.305,0,0,1,2.135-3.2,10.986,10.986,0,0,0,1.419-1.6,5.329,5.329,0,0,0,.649-5.253,12.714,12.714,0,0,0-2.859-3.644,6.458,6.458,0,0,1-1.979-2.656,5.134,5.134,0,0,1-.065-1.977,23.8,23.8,0,0,1,.655-3.009c.977-3.791,2.194-8.508-1.566-9.845a1.889,1.889,0,0,0-1.627.143c-1.612.889-2.715,3.764-3,5.019a17.943,17.943,0,0,0-.31,3.429,14.517,14.517,0,0,1-.562,4.371.3.3,0,0,1-.38.185.3.3,0,0,1-.186-.378,13.832,13.832,0,0,0,.532-4.193,18.407,18.407,0,0,1,.324-3.546c.239-1.065,1.357-4.343,3.29-5.409a2.494,2.494,0,0,1,2.117-.183c4.271,1.521,2.924,6.743,1.94,10.556a23.582,23.582,0,0,0-.636,2.924,4.565,4.565,0,0,0,.045,1.749,5.726,5.726,0,0,0,1.719,2.294,13.623,13.623,0,0,1,3.087,3.922,5.822,5.822,0,0,1-.695,5.828,11.486,11.486,0,0,1-1.5,1.7,5.923,5.923,0,0,0-1.969,2.869,4.277,4.277,0,0,0,.678,2.633c.133.268.268.543.392.83a.3.3,0,0,1-.153.393.292.292,0,0,1-.119.025" fill="#1a1a1a"/>
        <path id="Trazado_608409" data-name="Trazado 608409" d="M180.133,173.171a9.282,9.282,0,0,1-8.517-6,10.975,10.975,0,0,1,1.408-9.584,13.635,13.635,0,0,1,4.773-4.269,9.524,9.524,0,0,1,2.364-.806,8.979,8.979,0,0,0,2.184-.732,6.089,6.089,0,0,0,2.495-3.545c.087-.234.169-.469.252-.705a12.057,12.057,0,0,1,1.575-3.352,3.848,3.848,0,0,1,3.088-1.656,3.7,3.7,0,0,1,1.495.319,4.469,4.469,0,0,1,2.494,3.224,7.2,7.2,0,0,1-1.6,5.73c-.323.42-.661.814-.992,1.2-1.293,1.506-2.41,2.808-2,4.953a15.724,15.724,0,0,1-.746,9.343,9.6,9.6,0,0,1-7.177,5.806,8.037,8.037,0,0,1-1.1.076m9.622-30.055a3.263,3.263,0,0,0-2.611,1.419,11.644,11.644,0,0,0-1.491,3.19c-.083.238-.166.477-.251.712a6.621,6.621,0,0,1-2.774,3.866,9.559,9.559,0,0,1-2.326.787,8.858,8.858,0,0,0-2.219.75,13.062,13.062,0,0,0-4.566,4.078,10.379,10.379,0,0,0-1.34,9.053,8.67,8.67,0,0,0,7.956,5.6,7.29,7.29,0,0,0,1.017-.071,9.116,9.116,0,0,0,6.715-5.456,15.155,15.155,0,0,0,.708-8.989c-.469-2.428.793-3.9,2.127-5.453.324-.379.655-.765.971-1.177a6.611,6.611,0,0,0,1.489-5.245,3.872,3.872,0,0,0-2.15-2.8,3.11,3.11,0,0,0-1.255-.269" fill="#1a1a1a"/>
        <path id="Trazado_608410" data-name="Trazado 608410" d="M56.655,172.685a8.426,8.426,0,0,1-1.693-.17,10.978,10.978,0,0,1-7.481-6.156,13.672,13.672,0,0,1-1.189-6.291,9.456,9.456,0,0,1,.531-2.441,9.055,9.055,0,0,0,.5-2.247,6.083,6.083,0,0,0-1.747-3.969c-.154-.191-.312-.381-.469-.572a12.093,12.093,0,0,1-2.061-3.088,3.737,3.737,0,0,1,1.222-4.614,4.456,4.456,0,0,1,4.049-.471,7.2,7.2,0,0,1,4.08,4.328c.194.492.356.987.515,1.469a7.037,7.037,0,0,0,2.025,3.623.3.3,0,0,1-.368.471,7.473,7.473,0,0,1-2.223-3.907c-.155-.473-.316-.956-.5-1.438a6.617,6.617,0,0,0-3.723-3.984,3.88,3.88,0,0,0-3.507.4,3.122,3.122,0,0,0-1.013,3.905,11.588,11.588,0,0,0,1.968,2.93c.158.193.318.384.474.577a6.606,6.606,0,0,1,1.877,4.371,9.619,9.619,0,0,1-.528,2.4,9.007,9.007,0,0,0-.5,2.286,13.085,13.085,0,0,0,1.137,6.016,10.367,10.367,0,0,0,7.059,5.823,8.584,8.584,0,0,0,9.373-4.824,9.129,9.129,0,0,0-1.2-8.568,12.311,12.311,0,0,0-2.309-2.461.3.3,0,0,1,.377-.461,12.861,12.861,0,0,1,2.419,2.578A9.607,9.607,0,0,1,65,167.341a9.206,9.206,0,0,1-8.349,5.344" fill="#1a1a1a"/>
        <path id="Trazado_608411" data-name="Trazado 608411" d="M63.42,175.942c-4.573-7.919-17.241-30.134-17.368-30.357a.3.3,0,1,1,.517-.3c.128.223,12.8,22.441,17.113,30.21a.3.3,0,0,1-.117.405.3.3,0,0,1-.145.038" fill="#1a1a1a"/>
        <path id="Trazado_608412" data-name="Trazado 608412" d="M168.485,176.252a.31.31,0,0,1-.294-.353l9.929-53.355a.3.3,0,1,1,.586.108l-9.929,53.357a.3.3,0,0,1-.292.243" fill="#1a1a1a"/>
        <path id="Trazado_608413" data-name="Trazado 608413" d="M174.665,176.389c-.284-.111-.341-.291-.263-.436l15.373-29.147a.3.3,0,1,1,.526.279L174.928,176.23a.294.294,0,0,1-.263.159" fill="#1a1a1a"/>
        <path id="Trazado_608414" data-name="Trazado 608414" d="M129.226,106.842a1.647,1.647,0,0,1-.768-.186,3.69,3.69,0,0,1-1.446-2.309c-.479-1.531-1.31-3.663-1.319-3.684a.3.3,0,1,1,.555-.217c.009.022.846,2.173,1.281,3.555.205.695.519,1.77,1.2,2.126a1.211,1.211,0,0,0,1,.028,2.469,2.469,0,0,0,1.586-2.358.3.3,0,0,1,.286-.309.322.322,0,0,1,.308.286,3.08,3.08,0,0,1-1.989,2.946,2.165,2.165,0,0,1-.693.122" fill="#1a1a1a"/>
        <path id="Trazado_608415" data-name="Trazado 608415" d="M122.1,108.874a3.388,3.388,0,0,1-1.988-.614c-1.64-1.161-2.352-3.838-2.114-7.956a.3.3,0,0,1,.3-.28.3.3,0,0,1,.3.314c-.222,3.84.422,6.409,1.859,7.432a3.244,3.244,0,0,0,2.873.289.3.3,0,0,1,.229.55,4.079,4.079,0,0,1-1.454.265" fill="#1a1a1a"/>
        <path id="Trazado_608416" data-name="Trazado 608416" d="M91.662,135.746c-.292-.122-.341-.305-.258-.447a15.505,15.505,0,0,0,1.229-11.572,9.754,9.754,0,0,0-5.059-6.126c-4.04-1.979-6.122-4.114-6.185-6.347s1.912-4.495,5.871-6.723c3.283-1.846,7.531-2.122,12.448-2.44a74.6,74.6,0,0,0,15.977-2.32.3.3,0,0,1,.367.208.3.3,0,0,1-.208.367,75.052,75.052,0,0,1-16.1,2.339c-4.847.314-9.031.587-12.195,2.367-3.753,2.109-5.625,4.19-5.568,6.185s2.025,3.955,5.852,5.828a10.341,10.341,0,0,1,5.367,6.488A16.147,16.147,0,0,1,91.92,135.6a.3.3,0,0,1-.258.149" fill="#1a1a1a"/>
        <path id="Trazado_608417" data-name="Trazado 608417" d="M142.178,85.367c-.313-.167-.337-.354-.235-.483,5.327-6.724,6.426-11.627,8.1-19.046.19-.858.392-1.749.606-2.681a31.345,31.345,0,0,0,.706-13.255.3.3,0,0,1,.235-.348.292.292,0,0,1,.351.234,31.938,31.938,0,0,1-.711,13.5c-.215.93-.414,1.82-.607,2.676-1.684,7.5-2.8,12.455-8.209,19.286a.294.294,0,0,1-.233.113" fill="#1a1a1a"/>
        <path id="Trazado_608418" data-name="Trazado 608418" d="M115.063,17.814a178.231,178.231,0,0,0-20.814-3.36c-1.878-.223-3.758-.447-5.664-.693a.3.3,0,0,1-.256-.334.3.3,0,0,1,.334-.257c1.9.246,3.78.469,5.655.692a176.441,176.441,0,0,1,20.813,3.364.3.3,0,0,1-.068.588" fill="#1a1a1a"/>
        <path id="Trazado_608419" data-name="Trazado 608419" d="M131.614,86.7c-1.5-.766-2.147-3.536-2.448-5.765-.064,1-.07,1.749-.07,1.762a.3.3,0,0,1-.276.295L112.463,84.2a.3.3,0,0,1-.319-.275.3.3,0,0,1,.274-.32L128.5,82.415a32.9,32.9,0,0,1,.4-4.549.281.281,0,0,1,.317-.244.3.3,0,0,1,.275.287c.059,1.984.582,7.328,2.256,8.228a.3.3,0,0,1-.141.56" fill="#1a1a1a"/>
        <path id="Trazado_608420" data-name="Trazado 608420" d="M136.317,73.434c-.333-.223-.322-.412-.2-.521.048-.042,4.8-4.3,4.218-7.7-.227-1.326-1.267-2.371-3.088-3.109-2.566-1.037-4.537-1.029-5.7.022-1.548,1.4-1.683,4.645-.382,9.15a.3.3,0,1,1-.572.165c-1.388-4.8-1.2-8.178.555-9.758,1.345-1.216,3.532-1.261,6.324-.131,2.027.82,3.187,2.018,3.452,3.561.64,3.723-4.2,8.06-4.409,8.243a.3.3,0,0,1-.2.074" fill="#1a1a1a"/>
        <path id="Trazado_608421" data-name="Trazado 608421" d="M126.426,128.262a.3.3,0,0,1-.3-.258c-.012-.1-1.358-10.266-.67-17.451a.3.3,0,1,1,.6.057,87.342,87.342,0,0,0,.477,15.717c1.31-4.481,4.257-9.8,6.631-13.667a.3.3,0,1,1,.507.312c-2.634,4.289-5.979,10.38-6.951,15.053a.3.3,0,0,1-.293.237" fill="#1a1a1a"/>
        <path id="Trazado_608422" data-name="Trazado 608422" d="M117.371,154a19.787,19.787,0,0,1-7.254-3.533,1.91,1.91,0,0,1,.141,1.54c-.2.367-.607.521-1.216.47-2.593-.231-4.728-3.556-5.144-4.245-.329-.108-.409-.279-.353-.434a.3.3,0,0,1,.383-.178c.44.235,2.647,4.038,5.166,4.263.245.022.547.012.64-.159.234-.433-.4-1.641-1.112-2.7a5.832,5.832,0,0,1-.671-.918.3.3,0,0,1,.1-.392.305.305,0,0,1,.4.062c.112.142.346.442.611.827,1.012,1.177,3.472,3.409,8.394,4.809a.3.3,0,0,1-.081.585" fill="#1a1a1a"/>
        <path id="Trazado_608423" data-name="Trazado 608423" d="M102.533,146.276a1.817,1.817,0,0,1-.435-1.609c.2-.945,1.548-2.016,2.377-2.6-.633-.128-1.75-.372-3.65-.835a8.123,8.123,0,0,1-2.231-.832.3.3,0,0,1-.1-.41.3.3,0,0,1,.41-.1,7.785,7.785,0,0,0,2.058.759c3.479.847,4.32.956,4.328.957-.577.979-2.426,2.284-2.613,3.176a1.5,1.5,0,0,0,.1,1.025.3.3,0,0,1-.087.412.286.286,0,0,1-.163.049" fill="#1a1a1a"/>
        <path id="Trazado_608424" data-name="Trazado 608424" d="M119.733,146.863c-2.476-1.791-8.734-6.36-10.1-6.714l-.612-.16a93.521,93.521,0,0,0-10.588-2.346,1.386,1.386,0,0,0-1.042.183.3.3,0,1,1-.428-.413,1.851,1.851,0,0,1,1.526-.364,94.152,94.152,0,0,1,10.684,2.364l.609.159c1.762.456,9.791,6.5,10.132,6.756a.3.3,0,0,1,.058.416.294.294,0,0,1-.238.119" fill="#1a1a1a"/>
        <path id="Trazado_608425" data-name="Trazado 608425" d="M104.087,148.268c-.308-.249-1.237-2.187-.2-3.157a14.867,14.867,0,0,1,2.809-1.8.3.3,0,0,1,.4.134.3.3,0,0,1-.134.4,14.82,14.82,0,0,0-2.666,1.707c-.7.662.056,2.278.064,2.294a.3.3,0,0,1-.136.4.313.313,0,0,1-.132.03" fill="#1a1a1a"/>
        <path id="Trazado_608426" data-name="Trazado 608426" d="M134.494,56.62a22.225,22.225,0,0,1-2.857-.188,31.082,31.082,0,0,1-9.562-2.969,31.14,31.14,0,0,1-8.749-5.962,15.871,15.871,0,0,1-4.547-8.69,16.069,16.069,0,0,1-.071-4.492,26.788,26.788,0,0,1,10.079-18.064,18.437,18.437,0,0,1,8.145-3.392,29,29,0,0,1,4.427-.342,26.64,26.64,0,0,1,12.6,3.08c7.118,3.768,11.485,9.663,11.981,16.172a18.224,18.224,0,0,1-.023,3.016,25.454,25.454,0,0,1-2.766,9.367,25.243,25.243,0,0,1-6.12,8.051,19.364,19.364,0,0,1-12.532,4.413m-3.135-43.5a28.47,28.47,0,0,0-4.337.336,17.82,17.82,0,0,0-7.88,3.281A26.175,26.175,0,0,0,109.3,34.392a15.523,15.523,0,0,0,.069,4.325,15.276,15.276,0,0,0,4.383,8.366,30.6,30.6,0,0,0,8.584,5.844,30.494,30.494,0,0,0,9.38,2.914,21.55,21.55,0,0,0,2.779.182,18.775,18.775,0,0,0,12.152-4.275,24.707,24.707,0,0,0,5.97-7.863,24.9,24.9,0,0,0,2.7-9.149,17.587,17.587,0,0,0,.023-2.918c-.481-6.3-4.731-12.019-11.665-15.689a26.035,26.035,0,0,0-12.316-3.012" fill="#1a1a1a"/>
        <path id="Trazado_608427" data-name="Trazado 608427" d="M134.8,49.067a3.383,3.383,0,0,1-1.65-.432c-2.211-1.225-4.378-2.426-6.421-3.756-1.547-1.008-3.059-2.116-4.522-3.187-.652-.476-1.3-.952-1.956-1.421-1.82-1.476-2.251-3.157-1.393-5.092.364-.823.675-1.69.975-2.53.113-.31.223-.619.336-.926a4.723,4.723,0,0,1,3.86-3.151,28.249,28.249,0,0,0,6.916-2.017,8.768,8.768,0,0,0,3.775-3.474,30.783,30.783,0,0,1,1.9-2.611,2.081,2.081,0,0,1,1.965-.825,1.726,1.726,0,0,1,1.7,1.953c-.177,1.381-.451,2.885-.862,4.737-.14.635-.328,1.266-.511,1.878-.161.538-.326,1.094-.457,1.644-.231,1-.056,1.2.869,1.713a44.868,44.868,0,0,1,3.953,2.407,2.934,2.934,0,0,1,1.078,3.787,27.416,27.416,0,0,1-4.151,7.821,14.9,14.9,0,0,1-1.784,1.846,5.748,5.748,0,0,1-3.616,1.636M120.6,39.782c.661.474,1.314.951,1.967,1.429,1.456,1.067,2.961,2.169,4.493,3.168,2.026,1.319,4.184,2.515,6.272,3.671,1.432.8,2.987.4,4.7-1.072a14.464,14.464,0,0,0,1.71-1.771,26.909,26.909,0,0,0,4.054-7.65,2.372,2.372,0,0,0-.86-3.092,44.68,44.68,0,0,0-3.9-2.374c-1.121-.621-1.463-1.073-1.161-2.37.135-.568.3-1.132.466-1.679.18-.6.365-1.221.5-1.836.4-1.834.677-3.32.852-4.683.127-1-.787-1.234-1.185-1.287a1.483,1.483,0,0,0-1.419.6,29.329,29.329,0,0,0-1.862,2.56,9.47,9.47,0,0,1-4.029,3.7,28.837,28.837,0,0,1-7.062,2.063,4.113,4.113,0,0,0-3.4,2.77c-.112.306-.223.614-.333.921-.3.85-.618,1.729-.992,2.571a3.261,3.261,0,0,0,1.111,4.292c-.1.311.079.069.079.069" fill="#1a1a1a"/>
        <path id="Trazado_608428" data-name="Trazado 608428" d="M70.556,96.043A7.072,7.072,0,0,1,65,93.207a14.712,14.712,0,0,1-3.115-11.928A5.1,5.1,0,0,1,64.3,77.671a57.354,57.354,0,0,1,8.409-4.126l.825-.351a142.4,142.4,0,0,1,15.074-5.479,37.9,37.9,0,0,1,8.329-1.775,6.918,6.918,0,0,1,5.812,2.467c1.887,2.073,2.562,4.711,3.16,7.038a62.483,62.483,0,0,1,1.5,11.484,2.27,2.27,0,0,1-1.629-.011c-.9-.309-1.753-.6-2.635-.832a5.545,5.545,0,0,0-1.433-.181,10.72,10.72,0,0,0-3.652.809c-3.131,1.15-5.913,2.274-8.509,3.432a76.6,76.6,0,0,1-11.692,4.24c-.6.157-1.186.325-1.778.492-1.354.384-2.754.781-4.163,1.038a7.538,7.538,0,0,1-1.358.127M97.442,66.518c-.152,0-.31.006-.467.015a37.532,37.532,0,0,0-8.2,1.754,141.65,141.65,0,0,0-15.011,5.456l-.827.35a57.078,57.078,0,0,0-8.322,4.081,4.516,4.516,0,0,0-2.146,3.194,14.131,14.131,0,0,0,2.985,11.463,6.423,6.423,0,0,0,6.35,2.5c1.38-.253,2.767-.645,4.107-1.025.6-.169,1.191-.338,1.789-.5A76.238,76.238,0,0,0,89.3,89.6c2.608-1.164,5.4-2.292,8.548-3.448a11.246,11.246,0,0,1,3.857-.846,6.256,6.256,0,0,1,1.586.2c.9.237,1.8.546,2.675.846.272.092.544.187.819.278a60.132,60.132,0,0,0-1.458-11.04c-.58-2.26-1.236-4.822-3.024-6.785a6.338,6.338,0,0,0-4.864-2.29" fill="#1a1a1a"/>
        <path id="Trazado_608429" data-name="Trazado 608429" d="M83.772,83.4a2.412,2.412,0,0,1-1.688-.675A2.353,2.353,0,0,1,82.1,79.3a2.628,2.628,0,0,1,1.9-.8,2.394,2.394,0,0,1,2.429,2.322,2.342,2.342,0,0,1-.654,1.693,2.8,2.8,0,0,1-2,.884M84,79.1a2.037,2.037,0,0,0-1.47.618,1.759,1.759,0,0,0-.033,2.581,2.056,2.056,0,0,0,2.845-.192,1.75,1.75,0,0,0,.492-1.264A1.8,1.8,0,0,0,84,79.1" fill="#1a1a1a"/>
        <path id="Trazado_608430" data-name="Trazado 608430" d="M95.688,79.008a2.577,2.577,0,0,1-1.682-.62,2.468,2.468,0,0,1-.244-3.26,2.691,2.691,0,0,1,2.1-1.006,2.473,2.473,0,0,1,1.575.557,2.392,2.392,0,0,1,.386,3.285,2.748,2.748,0,0,1-2.132,1.044m.171-4.291a2.128,2.128,0,0,0-1.634.787,1.865,1.865,0,0,0,.164,2.428,2.108,2.108,0,0,0,2.967-.343,1.807,1.807,0,0,0-.3-2.45,1.847,1.847,0,0,0-1.195-.422" fill="#1a1a1a"/>
        <path id="Trazado_608431" data-name="Trazado 608431" d="M72.037,87.733a2.483,2.483,0,0,1-1.69-.667,2.342,2.342,0,0,1-.1-3.327,2.735,2.735,0,0,1,2.012-.9,2.467,2.467,0,0,1,1.681.649,2.435,2.435,0,0,1,.184,3.268,2.824,2.824,0,0,1-2.086.979m.221-4.3a2.142,2.142,0,0,0-1.571.706,1.733,1.733,0,0,0,.065,2.49,2.063,2.063,0,0,0,2.926-.273,1.785,1.785,0,0,0-1.42-2.923" fill="#1a1a1a"/>
        <path id="Trazado_608432" data-name="Trazado 608432" d="M88.624,13.764c-.179-.011-16.306-1.022-34.433-.226a.3.3,0,0,1-.31-.285.3.3,0,0,1,.285-.311c18.153-.8,34.316.214,34.478.227a.3.3,0,0,1-.02.6" fill="#1a1a1a"/>
        <path id="Trazado_608433" data-name="Trazado 608433" d="M15.475,69.684a38.159,38.159,0,0,1-3.816-12.831c-.153-1.012-.316-2.066-.517-3.206a.3.3,0,0,1,.587-.1c.2,1.145.364,2.2.52,3.22a41.142,41.142,0,0,0,3.5,12.5.3.3,0,0,1-.272.422" fill="#1a1a1a"/>
        <path id="Trazado_608434" data-name="Trazado 608434" d="M89.107,135.671c-.258-.077-.336-.249-.279-.4.071-.193,1.711-4.764-2.689-9.087-1.917-1.885-4.689-2.885-7.624-3.942-4.069-1.468-8.276-2.986-11.1-7.014-3.905-5.568-8.209-10.693-21.379-17.029a.3.3,0,0,1,.259-.538C58.383,103.476,63.215,108.2,67.9,114.884c2.718,3.874,6.836,5.359,10.817,6.795,3,1.08,5.829,2.1,7.84,4.078,4.686,4.6,2.848,9.671,2.828,9.722a.3.3,0,0,1-.279.192" fill="#1a1a1a"/>
        <path id="Trazado_608435" data-name="Trazado 608435" d="M91.813,152.208a4.672,4.672,0,0,1-.619-.037c-2.7-.345-4.473-3.981-5.142-5.349-.688-1.375-.195-6.878-.136-7.5a.275.275,0,0,1,.325-.269.3.3,0,0,1,.269.325c-.215,2.29-.42,6.187-.064,6.893.772,1.58,2.445,5.007,4.823,5.311,2.175.273,6.144-1.242,7.31-2.522.172-.189.365-.461.313-.693a3.522,3.522,0,0,0-2.818-.236c-.277.073-.429-.022-.472-.181a.3.3,0,0,1,.207-.364c1.494-.415,2.207-1.122,2.3-1.661a.531.531,0,0,0-.246-.568,3.462,3.462,0,0,0-2.445.037.3.3,0,0,1-.2-.562c.524-.2,1.579-.766,1.5-1.278-.072-.472-1.672-1.145-5.2-.649a21.983,21.983,0,0,1-3.818.354.3.3,0,0,1-.27-.325.281.281,0,0,1,.324-.269,23.257,23.257,0,0,0,3.679-.351c3.856-.54,5.726.188,5.876,1.15a1.252,1.252,0,0,1-.46,1.079,2.316,2.316,0,0,1,1.348.322,1.128,1.128,0,0,1,.5,1.162,2.165,2.165,0,0,1-.867,1.272,2.329,2.329,0,0,1,1.137.258,1.045,1.045,0,0,1,.5.679,1.38,1.38,0,0,1-.455,1.225c-1.294,1.42-4.886,2.749-7.2,2.749" fill="#1a1a1a"/>
        <path id="Trazado_608436" data-name="Trazado 608436" d="M88.9,146.707c-.321-.412-.211-.565-.049-.592,2.476-.412,6.37-1.287,6.409-1.3a.3.3,0,0,1,.13.581c-.039.01-3.949.888-6.441,1.3a.271.271,0,0,1-.049,0" fill="#1a1a1a"/>
        <path id="Trazado_608437" data-name="Trazado 608437" d="M89.819,149.362c-.321-.412-.211-.565-.049-.592,2.476-.412,6.37-1.286,6.409-1.294a.3.3,0,0,1,.13.581c-.039.009-3.948.887-6.441,1.3a.271.271,0,0,1-.049,0" fill="#1a1a1a"/>
      </g>
    </g>
  </g>
</svg>
