<svg xmlns="http://www.w3.org/2000/svg" xmlns:xlink="http://www.w3.org/1999/xlink" width="146" height="146" viewBox="0 0 146 146">
  <defs>
    <clipPath id="clip-path">
      <rect id="Rectángulo_346178" data-name="Rectángulo 346178" width="111.084" height="109.597" fill="none"/>
    </clipPath>
  </defs>
  <g id="Grupo_1072983" data-name="Grupo 1072983" transform="translate(-307 -3502)">
    <circle id="Elipse_4744" data-name="Elipse 4744" cx="73" cy="73" r="73" transform="translate(307 3502)" fill="#fff198"/>
    <g id="Grupo_1016984" data-name="Grupo 1016984" transform="translate(324.458 3520.201)">
      <g id="Grupo_1016983" data-name="Grupo 1016983" clip-path="url(#clip-path)">
        <path id="Trazado_608404" data-name="Trazado 608404" d="M62.392,149.137a7.574,7.574,0,0,1-4.422-1.734c-.732-.625-1.153-.759-1.968.015-4.77,4.525-11.164,2.868-13.2-3.414-.259-.8-.522-.858-1.262-.881a7.612,7.612,0,0,1-7.727-6.742c-.142-.869-.414-1.03-1.227-1.17a7.587,7.587,0,0,1-6.562-7.685c-.022-.815-.172-1.1-1.049-1.34a7.6,7.6,0,0,1-4.355-11.931,1.118,1.118,0,0,0,0-1.6c-2.944-3.918-5.6-8.088-8.843-11.737-2.661-3-5.988-5.4-9.049-8.038C-.8,89.843-.8,89.767,2.12,86.166q9.1-11.229,18.149-22.5c1.755-2.181,2.277-2.293,4.6-.832a43.081,43.081,0,0,1,3.638,2.335c5.251,4.091,11.38,6.041,17.707,7.694a10.256,10.256,0,0,0,6.653-.649c6.781-2.659,13.856-2.629,20.943-2.341a9.584,9.584,0,0,0,6.266-1.84C82.8,66.1,85.68,64.4,88.5,62.613c1.841-1.162,2.58-1.033,3.93.715q8.939,11.571,17.856,23.16c1.159,1.507,1.072,2.415-.411,3.713-3.084,2.7-6.2,5.368-9.309,8.034a5.093,5.093,0,0,0-1.356,1.742c-1.976,4.214-3.968,8.422-6.009,12.605a2.284,2.284,0,0,0-.054,2.217,7.561,7.561,0,0,1-6.129,10.756c-.709.087-.909.25-1.023.979-.6,3.879-2.648,6.068-6.5,6.851-1,.2-1.257.583-1.407,1.505a7.251,7.251,0,0,1-6.615,6.255c-1.035.1-.987.577-1.1,1.289a7.882,7.882,0,0,1-7.981,6.7M42.4,76.317c-2.006-.582-3.926-1.147-5.852-1.693-.572-.162-.8.307-1.087.663q-9.4,11.451-18.815,22.886a1.157,1.157,0,0,0-.07,1.733q3.573,4.679,7.012,9.46c.56.776.918.794,1.737.282A7.53,7.53,0,0,1,36.776,113.8a1.214,1.214,0,0,0,1.437,1.032c4.671-.022,7.265,2.073,8.245,6.663.134.625.205.917.945,1.093,4.847,1.153,6.613,3.382,6.757,8.351.017.584-.039,1,.755,1.279,4.823,1.663,6.562,5.163,5.113,10.206a1.166,1.166,0,0,0,.5,1.44,3.372,3.372,0,0,0,4.566-.156,3.28,3.28,0,0,0,.063-4.538c-1.524-1.658-3.158-3.215-4.728-4.831-1.328-1.368-1.487-2.617-.5-3.614,1.013-1.021,2.234-.872,3.592.478,1.6,1.589,3.129,3.251,4.782,4.781a3.215,3.215,0,0,0,4.651-.14,3.27,3.27,0,0,0-.025-4.54c-.339-.393-.718-.752-1.084-1.122-2.72-2.756-5.46-5.492-8.153-8.274-1.243-1.284-1.2-2.7.027-3.559s2.266-.38,3.21.58q4.315,4.391,8.655,8.758c1.672,1.671,3.63,1.826,5.052.468,1.464-1.4,1.321-3.409-.4-5.162q-5.225-5.318-10.472-10.614c-1.1-1.111-2.205-2.21-3.264-3.356a2,2,0,0,1-.237-2.558,2.1,2.1,0,0,1,2.391-.983,3.3,3.3,0,0,1,1.663,1.184q6.521,6.6,13.043,13.2c1.772,1.783,3.695,1.906,5.169.4,1.4-1.431,1.263-3.334-.432-5.033Q75.79,102.9,63.471,90.575a2.882,2.882,0,0,0-1.948-.964c-2.363-.14-4.729-.255-7.083-.488a2.036,2.036,0,0,0-2.3,1.262c-1.513,2.849-3.082,5.673-4.76,8.428a7.589,7.589,0,0,1-9.952,2.961c-4.117-1.993-5.513-6.8-3.155-11.031,2.661-4.775,5.368-9.525,8.132-14.425m47.02,34c1.844-3.878,3.561-7.579,5.372-11.234a1.711,1.711,0,0,0-.212-2.137q-8.6-10.857-17.119-21.771a2.28,2.28,0,0,0-2.043-.961c-4.043.048-8.088.031-12.132.012a8.826,8.826,0,0,0-2.551.33q-6.863,2-13.738,3.967a2,2,0,0,0-1.342.965c-2.583,4.625-5.2,9.234-7.794,13.85a2.9,2.9,0,0,0-.158,2.65,3.211,3.211,0,0,0,2.87,2.157A3.17,3.17,0,0,0,43.7,96.39c1.912-3.351,3.836-6.7,5.7-10.076a2.867,2.867,0,0,1,3.07-1.7,65.213,65.213,0,0,0,7.087.4c3.659-.069,6.277,1.458,8.8,4.108,6.8,7.156,13.9,14.029,21.072,21.2M31.872,72.7c-.037-.417-.412-.526-.682-.7-2.42-1.55-4.867-3.058-7.266-4.64-.595-.392-.836-.252-1.226.243-1.567,1.995-3.181,3.953-4.778,5.924L5.83,88.446c-.37.457-.714.83-.026,1.395,2.184,1.794,4.33,3.636,6.453,5.5.537.472.835.393,1.248-.113Q22.42,84.3,31.354,73.393c.183-.224.347-.462.518-.7m74.04,15.377c-.3-.471-.467-.775-.675-1.046q-7.41-9.655-14.818-19.312c-.491-.642-.834-.659-1.5-.216-2.247,1.49-4.543,2.907-6.838,4.323-.815.5-1.112.843-.344,1.8q7.936,9.912,15.711,19.953c.541.695.833.923,1.576.261,2.023-1.8,4.111-3.532,6.179-5.283a7.759,7.759,0,0,1,.71-.482m-63.89,34.414a3.067,3.067,0,0,0-1.932-3.1,2.981,2.981,0,0,0-3.505.643c-1.711,1.628-3.376,3.305-5.025,5-1.524,1.564-1.584,3.543-.207,4.909a3.392,3.392,0,0,0,4.8-.182c1.624-1.552,3.192-3.164,4.775-4.759a3.1,3.1,0,0,0,1.089-2.5m7.92,7.726a3.565,3.565,0,0,0-2.116-2.984,3.119,3.119,0,0,0-3.519.676c-1.743,1.684-3.469,3.389-5.146,5.14a3.261,3.261,0,0,0-.1,4.654,3.189,3.189,0,0,0,4.651.1c1.778-1.646,3.456-3.4,5.157-5.129a4.364,4.364,0,0,0,1.079-2.459m2.8,6.131a1.881,1.881,0,0,0-1.345.352,17.423,17.423,0,0,0-4,4,3.2,3.2,0,0,0,.748,4.058,3.1,3.1,0,0,0,4.109.134,26.427,26.427,0,0,0,3.267-3.3,2.968,2.968,0,0,0,.32-3.537,3.108,3.108,0,0,0-3.1-1.7m-29.173-17.67a3.077,3.077,0,0,0,1.785,3.017A3.042,3.042,0,0,0,28.9,121.3a29.982,29.982,0,0,0,3.04-3.05,3.307,3.307,0,0,0-.165-4.521,3.08,3.08,0,0,0-4.474-.07c-1.036.907-1.988,1.915-2.938,2.916a2.667,2.667,0,0,0-.8,2.1" transform="translate(0 -40.388)" fill="#0c0b0a"/>
        <path id="Trazado_608405" data-name="Trazado 608405" d="M96.265,34.876a2.142,2.142,0,0,1-3.23,1.809,5.414,5.414,0,0,1-1.048-.891q-6.866-6.855-13.72-13.72c-.082-.082-.17-.157-.249-.241-1.167-1.254-1.294-2.594-.25-3.482,1.2-1.022,2.31-.684,3.345.355q6.482,6.508,12.983,13c.49.49.976.985,1.474,1.467a2.164,2.164,0,0,1,.7,1.707" transform="translate(-50.313 -11.579)" fill="#0e0e0f"/>
        <path id="Trazado_608406" data-name="Trazado 608406" d="M187.636,34.809a2.365,2.365,0,0,1,.85-1.818q7.178-7.161,14.346-14.331c1.193-1.186,2.37-1.256,3.344-.311.944.916.918,2.238-.2,3.369q-7.195,7.259-14.451,14.458a2.093,2.093,0,0,1-2.5.637,2.15,2.15,0,0,1-1.383-2" transform="translate(-122.511 -11.556)" fill="#0e0e0f"/>
        <path id="Trazado_608407" data-name="Trazado 608407" d="M153.929,33.43c0-1.963.008-3.926,0-5.89a2.108,2.108,0,1,1,4.214-.05c0,4.042.017,8.084,0,12.126-.007,1.416-.977,2.509-2.161,2.357a2.09,2.09,0,0,1-2.057-2.307c.036-2.078.009-4.158.01-6.236" transform="translate(-100.497 -16.54)" fill="#0c0b0a"/>
        <path id="Trazado_608408" data-name="Trazado 608408" d="M156.038,0c1.295.186,2.144.775,2.123,2.223a2.021,2.021,0,0,1-2.172,2.129,1.956,1.956,0,0,1-2.041-2.088C153.917.822,154.734.2,156.038,0" transform="translate(-100.516)" fill="#0e0e0f"/>
        <path id="Trazado_608409" data-name="Trazado 608409" d="M72.914,100.274c-2.765,4.9-5.471,9.65-8.132,14.425-2.357,4.229-.961,9.039,3.156,11.031a7.589,7.589,0,0,0,9.952-2.961c1.678-2.754,3.247-5.579,4.759-8.428a2.037,2.037,0,0,1,2.3-1.262c2.354.233,4.721.349,7.083.488a2.88,2.88,0,0,1,1.948.964q12.3,12.339,24.626,24.655c1.7,1.7,1.835,3.6.432,5.033-1.474,1.5-3.4,1.38-5.169-.4q-6.54-6.58-13.043-13.2a3.305,3.305,0,0,0-1.663-1.184,2.1,2.1,0,0,0-2.391.983,2,2,0,0,0,.237,2.558c1.059,1.146,2.168,2.245,3.264,3.356q5.234,5.308,10.472,10.614c1.722,1.752,1.864,3.764.4,5.162-1.422,1.358-3.381,1.2-5.052-.468q-4.353-4.353-8.655-8.758c-.944-.961-1.967-1.452-3.21-.58s-1.27,2.275-.027,3.559c2.693,2.782,5.433,5.518,8.153,8.274.365.37.744.73,1.083,1.123a3.27,3.27,0,0,1,.025,4.54,3.215,3.215,0,0,1-4.651.14c-1.653-1.53-3.183-3.192-4.782-4.781-1.358-1.349-2.579-1.5-3.592-.478-.989,1-.83,2.246.5,3.614,1.569,1.617,3.2,3.173,4.728,4.831a3.279,3.279,0,0,1-.063,4.538,3.373,3.373,0,0,1-4.566.156,1.167,1.167,0,0,1-.5-1.441c1.449-5.043-.29-8.543-5.113-10.206-.794-.274-.738-.695-.755-1.279-.145-4.969-1.91-7.2-6.758-8.351-.74-.176-.811-.468-.945-1.093-.98-4.59-3.574-6.685-8.245-6.663a1.214,1.214,0,0,1-1.437-1.032,7.53,7.53,0,0,0-11.451-4.149c-.819.512-1.177.494-1.736-.282q-3.444-4.775-7.012-9.46a1.157,1.157,0,0,1,.07-1.733Q56.588,110.7,65.975,99.244c.292-.355.515-.825,1.087-.663,1.926.545,3.846,1.111,5.852,1.693" transform="translate(-30.513 -64.345)" fill="#fab989"/>
        <path id="Trazado_608410" data-name="Trazado 608410" d="M159.89,133.577c-7.171-7.175-14.27-14.047-21.072-21.2-2.519-2.65-5.137-4.177-8.8-4.108a65.04,65.04,0,0,1-7.087-.4,2.867,2.867,0,0,0-3.07,1.7c-1.859,3.38-3.784,6.725-5.7,10.076a3.171,3.171,0,0,1-3.127,1.76,3.213,3.213,0,0,1-2.871-2.157,2.9,2.9,0,0,1,.158-2.65c2.6-4.617,5.212-9.225,7.795-13.851a2,2,0,0,1,1.342-.965q6.873-1.972,13.738-3.967a8.805,8.805,0,0,1,2.551-.33c4.044.019,8.089.035,12.132-.012a2.279,2.279,0,0,1,2.043.961q8.527,10.911,17.119,21.771a1.711,1.711,0,0,1,.211,2.137c-1.811,3.655-3.528,7.356-5.372,11.234" transform="translate(-70.468 -63.643)" fill="#fab989"/>
        <path id="Trazado_608411" data-name="Trazado 608411" d="M42.048,82.621c-.172.233-.336.471-.519.694Q32.6,94.233,23.681,105.153c-.413.506-.711.586-1.248.113-2.123-1.867-4.269-3.709-6.453-5.5-.688-.565-.344-.937.026-1.395L28.1,83.447c1.6-1.971,3.211-3.929,4.779-5.924.389-.5.631-.635,1.225-.243,2.4,1.582,4.846,3.09,7.266,4.64.27.173.645.283.683.7" transform="translate(-10.175 -50.31)" fill="#456cb2"/>
        <path id="Trazado_608412" data-name="Trazado 608412" d="M258.835,98.121a7.712,7.712,0,0,0-.711.482c-2.068,1.751-4.156,3.481-6.179,5.283-.743.662-1.035.434-1.576-.261q-7.8-10.02-15.711-19.953c-.768-.96-.471-1.3.344-1.8,2.295-1.416,4.591-2.833,6.838-4.323.669-.443,1.012-.427,1.5.216q7.388,9.672,14.818,19.311c.208.271.373.575.675,1.046" transform="translate(-152.923 -50.435)" fill="#456cb2"/>
        <path id="Trazado_608413" data-name="Trazado 608413" d="M99.146,230.124a3.1,3.1,0,0,1-1.089,2.5c-1.583,1.6-3.151,3.207-4.775,4.759a3.392,3.392,0,0,1-4.8.182c-1.377-1.366-1.317-3.345.207-4.909,1.648-1.692,3.314-3.369,5.025-5a2.981,2.981,0,0,1,3.506-.643,3.067,3.067,0,0,1,1.932,3.1" transform="translate(-57.124 -148.024)" fill="#f7b788"/>
        <path id="Trazado_608414" data-name="Trazado 608414" d="M121.672,252.692a4.363,4.363,0,0,1-1.079,2.459c-1.7,1.728-3.378,3.484-5.157,5.129a3.189,3.189,0,0,1-4.651-.1,3.261,3.261,0,0,1,.1-4.654c1.677-1.75,3.4-3.455,5.146-5.139a3.119,3.119,0,0,1,3.519-.676,3.566,3.566,0,0,1,2.116,2.985" transform="translate(-71.731 -162.866)" fill="#f7b788"/>
        <path id="Trazado_608415" data-name="Trazado 608415" d="M141.069,276.442a3.107,3.107,0,0,1,3.1,1.7,2.968,2.968,0,0,1-.32,3.537,26.426,26.426,0,0,1-3.267,3.3,3.1,3.1,0,0,1-4.108-.134,3.2,3.2,0,0,1-.748-4.058,17.423,17.423,0,0,1,4-4,1.88,1.88,0,0,1,1.345-.352" transform="translate(-88.326 -180.485)" fill="#f7b788"/>
        <path id="Trazado_608416" data-name="Trazado 608416" d="M67.886,214.381a2.667,2.667,0,0,1,.8-2.1c.95-1,1.9-2.009,2.938-2.916a3.08,3.08,0,0,1,4.475.07,3.307,3.307,0,0,1,.165,4.521,29.984,29.984,0,0,1-3.04,3.05,3.043,3.043,0,0,1-3.547.391,3.077,3.077,0,0,1-1.785-3.017" transform="translate(-44.317 -136.094)" fill="#f7b788"/>
      </g>
    </g>
  </g>
</svg>
