<svg xmlns="http://www.w3.org/2000/svg" xmlns:xlink="http://www.w3.org/1999/xlink" width="124.001" height="124" viewBox="0 0 124.001 124">
  <defs>
    <clipPath id="clip-path">
      <rect id="Rect치ngulo_346065" data-name="Rect치ngulo 346065" width="66.894" height="73.354" fill="none"/>
    </clipPath>
  </defs>
  <g id="Grupo_1015561" data-name="Grupo 1015561" transform="translate(-739 -4900.469)">
    <g id="Grupo_1015001" data-name="Grupo 1015001" transform="translate(354.001 2842.469)">
      <path id="Uni칩n_12" data-name="Uni칩n 12" d="M8464.769,11817.939a62.055,62.055,0,1,1,20.7-16.051l8.516,22.111Z" transform="translate(-7991 -9642)" fill="#a3bfe4"/>
      <circle id="Elipse_4842" data-name="Elipse 4842" cx="48" cy="48" r="48" transform="translate(399 2072)" fill="#fffbe5"/>
    </g>
    <g id="Grupo_1015573" data-name="Grupo 1015573" transform="translate(766.828 4928.115)">
      <g id="Grupo_1015572" data-name="Grupo 1015572" clip-path="url(#clip-path)">
        <path id="Trazado_606197" data-name="Trazado 606197" d="M59.178,4.453a1.136,1.136,0,0,1,1.6.735,8.548,8.548,0,0,1,.695,4.14,14.116,14.116,0,0,1-.385,2.127,4.242,4.242,0,0,1-.2.526h1.575a7.446,7.446,0,0,1,2.124.211,3.143,3.143,0,0,1,2.246,2.567,4.988,4.988,0,0,1,.06,1.135q.01,19.21.011,38.42a3.035,3.035,0,0,1-1.469,2.782,1.527,1.527,0,0,1-.764.18q-3.946.023-7.894.013a.986.986,0,0,1-1.024-.959c-.009-.079-.061-.124-.086-.188A1.28,1.28,0,0,1,56,55.486a1.415,1.415,0,0,1,1.142-.326c1.643-.009,3.287,0,4.93,0q1.072,0,2.143,0c.193,0,.379-.022.466-.237.116-.044.2-.1.048-.2q0-15.908,0-31.816c0-.179-.01-.357-.015-.536q0-.134,0-.268c.08-.326-.035-.438-.379-.436-2.107.013-4.214,0-6.321,0q-8.3,0-16.605,0a.736.736,0,0,0-.721.321,8.743,8.743,0,0,1-1.952,2.033,9.538,9.538,0,0,1-2.959,1.454,9.027,9.027,0,0,1-3.258.285,7.79,7.79,0,0,1-2.467-.65,8.348,8.348,0,0,1-3.832-3.146.618.618,0,0,0-.578-.315q-11.48.018-22.961.023c-.161,0-.333-.052-.485.05l.014-.009a.512.512,0,0,0-.052.346Q2.154,38.2,2.153,54.339c0,.8-.162.83.839.83l18.034-.011c.333,0,.666.009,1,.013.013.042.031.041.052.005.178-.06.122-.2.122-.331q0-3.082.006-6.164c0-2.365-.006-4.73,0-7.1,0-.267-.062-.345-.339-.338-.749.019-1.5-.007-2.249,0a6.4,6.4,0,0,1-2.589-.53,6.548,6.548,0,0,1-4-5.385,5.886,5.886,0,0,1,.475-3.206,6.634,6.634,0,0,1,5.844-4.084c1.558-.051,3.117-.05,4.676-.017.127,0,.237-.064.4.013a1.349,1.349,0,0,1,.806,1,1.1,1.1,0,0,1-.622.959,1.76,1.76,0,0,1-.724.135c-1.309,0-2.619.013-3.929,0a6.126,6.126,0,0,0-1.621.191,4.3,4.3,0,0,0-2.956,2.685,4.541,4.541,0,0,0-.226,1.774,4.309,4.309,0,0,0,4.055,4.288c1.008.069,2.022.051,3.033.077.192,0,.272-.085.363-.254a3.507,3.507,0,0,1,4.162-1.956A3.111,3.111,0,0,1,28.9,38.612a.855.855,0,0,0,.975.538,10.738,10.738,0,0,1,1.178-.019q6.947,0,13.893.014c.208,0,.38-.029.467-.235a7.907,7.907,0,0,1,.8-1.436,9.292,9.292,0,0,1,3.051-2.794,9.2,9.2,0,0,1,2.147-.858c.149-.041.358-.066.26-.32a5.872,5.872,0,0,0-.921-1.767,4.508,4.508,0,0,0-3.592-1.6q-8.447-.019-16.894-.008c-.118,0-.235.03-.35.039-.946.076-1.736-.165-1.823-1.192.281-.789.591-.979,1.463-.977,3.5.006,7-.016,10.5.014,2.7.024,5.4-.143,8.093.1a5.9,5.9,0,0,1,2.966,1.118,6.632,6.632,0,0,1,2.632,4.135c.027.13.024.27.215.262a5.034,5.034,0,0,1,1.11.139,8.181,8.181,0,0,1,5.414,3.359A8.806,8.806,0,0,1,56.08,50.8a10.887,10.887,0,0,1-2.047.414,8.117,8.117,0,0,1-1.886-.069,11.214,11.214,0,0,1-1.9-.553,6.925,6.925,0,0,1-1.987-1.081,8.5,8.5,0,0,1-1.774-1.765,10.979,10.979,0,0,1-1.538-3.1,9.067,9.067,0,0,1-.283-2.927,1.3,1.3,0,0,1,.063-.374c.011-.094-.026-.131-.12-.1l-.167-.017c-.017-.023-.033-.062-.052-.064-.057-.007-.073.033-.065.084q-6.251,0-12.5,0c-.7,0-1.4-.015-2.107-.027-.148,0-.274-.026-.272.2.009,1.431,0,2.861,0,4.324a3.715,3.715,0,0,1,1.165-.3,3.429,3.429,0,0,1,2.585.85c.159.137.269.157.464-.01a3.334,3.334,0,0,1,3.224-.7,3.912,3.912,0,0,1,1.5.78c.1.084.16.108.265,0a2.936,2.936,0,0,1,1.12-.689,3.475,3.475,0,0,1,3.257.381,3.754,3.754,0,0,1,1.64,3.23c.025,1.361.005,2.722.03,4.083a11.7,11.7,0,0,0,.007,1.759.115.115,0,0,0,.17.039c2.211-.059,4.421-.019,6.632-.023a2.7,2.7,0,0,1,.353.044,1.035,1.035,0,0,1,.9.933c.085.849-.512,1.166-1.22,1.164-2.167-.005-4.334,0-6.5-.021-.3,0-.377.079-.368.375a23.082,23.082,0,0,1,0,2.328A5.376,5.376,0,0,1,43.24,63.5a5.2,5.2,0,0,1-2.792,1.521.355.355,0,0,0-.335.4c.016.205.069.436.424.412a1.809,1.809,0,0,1,1.833,1.107,1.746,1.746,0,0,1,.15.784c0,1.219-.037,2.439.013,3.655a1.959,1.959,0,0,1-1.956,1.977q-7.144-.025-14.289,0a1.876,1.876,0,0,1-1.928-1.943c.042-1.289-.019-2.581.034-3.869a1.738,1.738,0,0,1,1.676-1.728c.147-.016.384.079.366-.2-.014-.221.161-.488-.252-.62a5.179,5.179,0,0,1-2.6-1.59,5.408,5.408,0,0,1-1.373-3.43c0-.788-.011-1.577,0-2.365,0-.227-.051-.315-.3-.315q-9.483.006-18.967,0a2.972,2.972,0,0,1-1.873-.494A2.3,2.3,0,0,1,.011,54.92Q0,35.138,0,15.355a3.283,3.283,0,0,1,1-2.437,3.144,3.144,0,0,1,2.266-.928q11.163-.006,22.326-.007c.143,0,.286,0,.428.005a.309.309,0,0,0,.292-.16,8.679,8.679,0,0,1,3.471-2.871A9.1,9.1,0,0,1,32.473,8.2a7.224,7.224,0,0,1,2.5.1,9.438,9.438,0,0,1,2.627.876,8.608,8.608,0,0,1,2.982,2.636.346.346,0,0,0,.322.162h3.647a11.068,11.068,0,0,1-.466-1.536,5.62,5.62,0,0,1-.109-.753,5.608,5.608,0,0,1-.05-2.121A11.314,11.314,0,0,1,44.974,4.6,8.669,8.669,0,0,1,49.047.76,7.27,7.27,0,0,1,52.269,0a11.3,11.3,0,0,1,2.557.219,9.076,9.076,0,0,1,1.881.695,1.057,1.057,0,0,1,.437,1.375c-.018.054-.036.109-.054.163l-.162.138a.972.972,0,0,1-1.181.224,6.737,6.737,0,0,0-9.015,3.007,5.791,5.791,0,0,0-.675,2.93,6.5,6.5,0,0,0,4.162,6.216,6.61,6.61,0,0,0,3.546.389,6.68,6.68,0,0,0,5.61-6.692,6.025,6.025,0,0,0-.509-2.48,1.306,1.306,0,0,1,.312-1.73M30.633,65.777q3.578.021,7.155.044a.443.443,0,0,0,.325-.1l.021-.005-.013-.016c.02-.571-.047-1.144.026-1.714a.991.991,0,0,1,.822-.895,9.126,9.126,0,0,0,1.433-.262A3.082,3.082,0,0,0,42.531,59.8c.036-2.436.018-4.873.02-7.309,0-1.122.011-2.246-.018-3.367a1.47,1.47,0,0,0-.885-1.392,1.441,1.441,0,0,0-2.055,1.317,1.076,1.076,0,0,1-.613.965.935.935,0,0,1-1-.05,1.266,1.266,0,0,1-.534-1.023,1.5,1.5,0,0,0-2.983.276,1.122,1.122,0,0,1-1.073.907c-.443-.011-1.038-.537-1-.981a1.252,1.252,0,0,0-.169-.671,1.472,1.472,0,0,0-2.66-.034,2.4,2.4,0,0,0-.188.846,1.067,1.067,0,0,1-1.473.732,1.222,1.222,0,0,1-.612-1.163q.006-2.795,0-5.59c0-.932.01-1.864-.008-2.795a1.471,1.471,0,0,0-1.126-1.451,1.427,1.427,0,0,0-1.649.76,2.092,2.092,0,0,0-.153,1.188q-.011,9.335,0,18.669a3.439,3.439,0,0,0,.035.892,3.177,3.177,0,0,0,2.934,2.5A1.115,1.115,0,0,1,28.539,64.1c.05.478.032.948.038,1.422,0,.221.075.309.294.277a2.33,2.33,0,0,1,.25-.011h.009l1.416-.007c.009.029.013.079.027.082.063.013.071-.03.06-.081M26.8,16.869a6.629,6.629,0,1,0,7.1-6.545,6.625,6.625,0,0,0-7.1,6.545m33.3,25.66a6.641,6.641,0,1,0-6.622,6.551A6.626,6.626,0,0,0,60.1,42.529M53.3,19.514v.007h3.321l7.678,0c.231,0,.453.029.449-.331-.014-1.254,0-2.508-.01-3.762a1.3,1.3,0,0,0-1.284-1.276c-1.143-.009-2.285,0-3.428-.013a.694.694,0,0,0-.584.276,8.717,8.717,0,0,1-1.633,1.537,8.4,8.4,0,0,1-6.983,1.441,8.49,8.49,0,0,1-4.822-3,.54.54,0,0,0-.414-.248c-1.19,0-2.381,0-3.571,0-.176,0-.249.082-.19.247a11.042,11.042,0,0,1,.363,1.923,9.735,9.735,0,0,1-.233,2.8c-.048.4-.132.4.307.4H53.3M25.092,14.219a.759.759,0,0,0-.4-.061q-5.909-.006-11.818-.015c-.292,0-.295.147-.294.358,0,1.492,0,2.985,0,4.478,0,.6-.124.541.555.542q5.713.006,11.425,0c.1,0,.19,0,.285-.008.114-.008.19-.061.143-.184a7.2,7.2,0,0,1-.268-1.444,8.234,8.234,0,0,1,.365-3.669M33.447,67.95v.019c-2.179,0-4.358,0-6.537-.006-.292,0-.39.074-.381.38.022.8.019,1.6,0,2.4-.007.315.069.44.415.439q6.538-.014,13.076,0c.274,0,.359-.111.347-.356s-.023-.483-.029-.725a11.459,11.459,0,0,1,.021-1.851c.031-.228-.061-.31-.3-.309-2.2.009-4.406.005-6.609.005M6.273,19.527v0c1.25,0,2.5-.009,3.749.006.318,0,.447-.078.43-.42-.026-.548-.006-1.1-.006-1.647q0-1.486,0-2.973c0-.2-.036-.29-.292-.365-.293-.086-.522.038-.78.033-.821-.017-1.642-.007-2.463-.007q-1.749,0-3.5,0c-.849,0-1.259.355-1.264,1.238-.007,1.254,0,2.507-.01,3.761,0,.293.083.391.386.387,1.249-.016,2.5-.007,3.748-.007" transform="translate(0 0)" fill="#060607"/>
        <path id="Trazado_606198" data-name="Trazado 606198" d="M7.531,75.558c.153-.1.324-.05.485-.05Q19.5,75.5,30.977,75.485a.618.618,0,0,1,.578.315,8.346,8.346,0,0,0,3.832,3.146,7.794,7.794,0,0,0,2.467.651,9.025,9.025,0,0,0,3.257-.285,9.531,9.531,0,0,0,2.959-1.454,8.74,8.74,0,0,0,1.952-2.034.736.736,0,0,1,.721-.321q8.3,0,16.605,0c2.107,0,4.214.008,6.321,0,.344,0,.459.11.379.436-.185.089-.184.178,0,.269.005.179.015.357.015.536q0,15.908,0,31.815c-.079.053-.062.128-.048.2-.087.215-.273.236-.466.237q-1.072,0-2.143,0c-1.644,0-3.287-.007-4.93,0a1.416,1.416,0,0,0-1.142.326,1.284,1.284,0,0,0-.346.654,9.943,9.943,0,0,1-2.514.01,3.867,3.867,0,0,0-.392-.01,1.036,1.036,0,0,0-.9-.934,2.691,2.691,0,0,0-.353-.043c-2.211,0-4.421-.036-6.631.023-.025-.151-.116-.015-.171-.039a11.733,11.733,0,0,1-.007-1.759c-.025-1.361-.005-2.722-.03-4.083a3.752,3.752,0,0,0-1.64-3.23,3.475,3.475,0,0,0-3.257-.381,2.937,2.937,0,0,0-1.12.689c-.1.1-.165.08-.265,0a3.914,3.914,0,0,0-1.5-.779,3.333,3.333,0,0,0-3.224.7c-.2.167-.305.147-.464.01a3.431,3.431,0,0,0-2.585-.85,3.716,3.716,0,0,0-1.166.3c0-1.463,0-2.893,0-4.324,0-.23.124-.207.272-.2.7.012,1.4.027,2.107.027q6.251,0,12.5,0c.05.055.091.064.117-.02l.167.018c-.015.1.054.1.12.1a1.294,1.294,0,0,0-.063.373,9.059,9.059,0,0,0,.283,2.927,10.98,10.98,0,0,0,1.539,3.1,8.495,8.495,0,0,0,1.774,1.765,6.922,6.922,0,0,0,1.987,1.081,11.226,11.226,0,0,0,1.9.553,8.117,8.117,0,0,0,1.886.069,10.892,10.892,0,0,0,2.047-.414,8.784,8.784,0,0,0,4.4-13.675A8.182,8.182,0,0,0,60.4,87.608a5.015,5.015,0,0,0-1.11-.139c-.191.008-.188-.132-.215-.262a6.632,6.632,0,0,0-2.632-4.135,5.9,5.9,0,0,0-2.966-1.118c-2.694-.245-5.4-.079-8.093-.1-3.5-.03-7-.008-10.5-.014-.871,0-1.181.188-1.463.977-.04.023-.08.067-.12.067-.911,0-1.823,0-2.735-.006a1.349,1.349,0,0,0-.806-1c-.159-.076-.27-.01-.4-.013-1.558-.033-3.118-.034-4.676.017a6.633,6.633,0,0,0-5.844,4.084,5.89,5.89,0,0,0-.476,3.206,6.548,6.548,0,0,0,4,5.385,6.4,6.4,0,0,0,2.589.53c.75,0,1.5.024,2.249,0,.277-.007.34.071.339.337-.009,2.365,0,4.73,0,7.1q0,3.082-.006,6.164c0,.126.056.271-.121.33a.03.03,0,0,0-.052-.005c-.333,0-.666-.013-1-.013l-18.035.011c-1,0-.839-.028-.839-.83q0-16.14.008-32.281a.51.51,0,0,1,.052-.346l-.014.009m5.248,31.408a3.228,3.228,0,0,0,3.38-3.213,3.119,3.119,0,0,0-3.529-3.18,3.341,3.341,0,0,0-2.9,2.917,3.4,3.4,0,0,0,3.049,3.476m8.124-6.38a3.1,3.1,0,0,0-3.19,3.1,3.2,3.2,0,1,0,6.391-.063,3.045,3.045,0,0,0-3.2-3.039" transform="translate(-5.331 -53.837)" fill="#e2f1fc"/>
        <path id="Trazado_606199" data-name="Trazado 606199" d="M173.715,9.7a1.305,1.305,0,0,0-.312,1.73,6.025,6.025,0,0,1,.509,2.48A6.68,6.68,0,0,1,168.3,20.6a6.705,6.705,0,0,1-6.823-3.179A6.684,6.684,0,0,1,160.595,14a5.791,5.791,0,0,1,.675-2.93,6.737,6.737,0,0,1,9.015-3.007.972.972,0,0,0,1.181-.224l.162-.138a5.481,5.481,0,0,1,1.42,1.218c.238.246.446.521.667.783m-5.777,2.08h.786c.274,0,.548.007.821,0a1.063,1.063,0,0,0,1.016-.784,1.03,1.03,0,0,0-.546-1.233,2.259,2.259,0,0,0-1.079-.125c-.668.053-.709.055-.648-.645a1.035,1.035,0,0,0-1.537-.9,1.159,1.159,0,0,0-.545,1.227c.011.184.012.28-.227.332a2.844,2.844,0,0,0-1.106.432,2.721,2.721,0,0,0-.865,3.62,2.634,2.634,0,0,0,1.8,1.33,12.651,12.651,0,0,0,2.03.058,1.61,1.61,0,0,1,.527.07.474.474,0,0,1,.34.453c.022.428-.151.609-.623.624-1.08.035-2.162-.065-3.24.059a1.066,1.066,0,0,0-.927,1,1.035,1.035,0,0,0,.934,1.076c.225.018.452.005.678.005.64,0,.64,0,.679.651a1.116,1.116,0,0,0,1.073,1.069,1.028,1.028,0,0,0,.995-1.113c0-.119.006-.239.007-.358,0-.151.047-.23.221-.253a2.717,2.717,0,0,0,.044-5.38,18.955,18.955,0,0,0-2.13-.063c-.419-.013-.661-.217-.657-.577a.569.569,0,0,1,.64-.569c.512-.007,1.024,0,1.535,0" transform="translate(-114.537 -5.246)" fill="#ffc600"/>
        <path id="Trazado_606200" data-name="Trazado 606200" d="M98.654,162.628a.442.442,0,0,1-.325.1q-3.577-.025-7.155-.044c-.029-.04-.058-.04-.087,0l-1.416.007c0-.03-.008-.029-.009,0a2.259,2.259,0,0,0-.25.011c-.219.032-.291-.056-.294-.277-.006-.473.011-.944-.038-1.422a1.115,1.115,0,0,0-1.213-1.074,3.177,3.177,0,0,1-2.934-2.5,3.439,3.439,0,0,1-.035-.892q0-9.335,0-18.669a2.092,2.092,0,0,1,.153-1.188,1.427,1.427,0,0,1,1.649-.76,1.471,1.471,0,0,1,1.126,1.451c.018.931.008,1.863.008,2.795q0,2.795,0,5.59a1.223,1.223,0,0,0,.612,1.163,1.066,1.066,0,0,0,1.473-.732,2.4,2.4,0,0,1,.188-.846,1.472,1.472,0,0,1,2.66.034,1.252,1.252,0,0,1,.169.671c-.039.444.556.969,1,.981a1.123,1.123,0,0,0,1.073-.907,1.5,1.5,0,0,1,2.983-.275,1.266,1.266,0,0,0,.534,1.023.935.935,0,0,0,1,.05,1.076,1.076,0,0,0,.613-.965,1.441,1.441,0,0,1,2.055-1.317,1.471,1.471,0,0,1,.885,1.392c.029,1.122.019,2.245.018,3.367,0,2.436.016,4.873-.02,7.309a3.083,3.083,0,0,1-2.129,3.027A9.125,9.125,0,0,1,99.51,160a.992.992,0,0,0-.822.9c-.073.57-.006,1.143-.025,1.714l-.019,0Z" transform="translate(-60.541 -96.913)" fill="#ffddb4"/>
        <path id="Trazado_606201" data-name="Trazado 606201" d="M62.92,101.1c.911,0,1.823.007,2.735.006.04,0,.08-.044.12-.067.088,1.027.877,1.268,1.824,1.192.115-.009.231-.039.35-.039q8.447,0,16.893.008a4.507,4.507,0,0,1,3.592,1.6,5.873,5.873,0,0,1,.921,1.766c.1.254-.112.279-.26.321a9.186,9.186,0,0,0-2.147.857,9.29,9.29,0,0,0-3.051,2.794,7.934,7.934,0,0,0-.8,1.436c-.087.206-.259.236-.467.235q-6.947-.012-13.893-.014a10.669,10.669,0,0,0-1.178.019.856.856,0,0,1-.974-.538A3.111,3.111,0,0,0,64.456,109a3.507,3.507,0,0,0-4.161,1.956c-.091.169-.171.259-.363.254-1.011-.026-2.025-.008-3.033-.077a4.309,4.309,0,0,1-4.055-4.288,4.539,4.539,0,0,1,.226-1.774,4.3,4.3,0,0,1,2.956-2.685,6.137,6.137,0,0,1,1.621-.191c1.31.01,2.62,0,3.929,0a1.758,1.758,0,0,0,.724-.135,1.1,1.1,0,0,0,.622-.959m8.219,6.675v0h9c.857,0,1.714.007,2.572-.007a1.066,1.066,0,0,0,1.036-.57,1.086,1.086,0,0,0-1.113-1.569q-11.485,0-22.97,0a1.308,1.308,0,0,0-1.01.417,1.139,1.139,0,0,0,.355,1.61,1.817,1.817,0,0,0,.767.125q5.68,0,11.36,0" transform="translate(-37.688 -72.062)" fill="#33ece0"/>
        <path id="Trazado_606202" data-name="Trazado 606202" d="M93.435,42.5a6.633,6.633,0,1,1,6.594,6.79,6.647,6.647,0,0,1-6.594-6.79m7.344-2.119c.344,0,.594,0,.843,0s.524,0,.785-.024a1.038,1.038,0,0,0,1.035-1.011,1.056,1.056,0,0,0-.937-1.109,4.522,4.522,0,0,0-1.032-.017c-.231.026-.341-.042-.321-.284a1.923,1.923,0,0,0,0-.251,1.056,1.056,0,0,0-.67-1.068,1.083,1.083,0,0,0-1.322.447,1.258,1.258,0,0,0-.147.818c.016.237-.03.356-.306.4a2.484,2.484,0,0,0-1.41.741,2.739,2.739,0,0,0-.768,2.706,2.637,2.637,0,0,0,1.679,1.771,4.345,4.345,0,0,0,1.606.186c.4.023.811-.006,1.213.028a.49.49,0,0,1,.5.53.47.47,0,0,1-.433.53,8.122,8.122,0,0,1-1.056.09c-.761-.021-1.524,0-2.285-.005a1.081,1.081,0,0,0-1.036,1.192,1.115,1.115,0,0,0,1.066.948c.262,0,.526.023.785,0,.34-.032.484.081.441.438a1.089,1.089,0,0,0,.557,1.113,1.048,1.048,0,0,0,1.381-.311,1.512,1.512,0,0,0,.2-.917c-.037-.251.071-.344.322-.389a2.651,2.651,0,0,0,1.887-1.411,2.733,2.733,0,0,0-2.316-3.975c-.617.024-1.238,0-1.856-.023a.588.588,0,0,1-.612-.554c.007-.335.183-.489.586-.547.567-.082,1.137-.008,1.611-.037" transform="translate(-66.636 -25.628)" fill="#ffc600"/>
        <path id="Trazado_606203" data-name="Trazado 606203" d="M176.537,131.375a6.641,6.641,0,0,1-13.282-.127,6.642,6.642,0,1,1,13.282.127m-7.648.938,0,.014.005-.013.348.013,0,.013.007-.013.319,0h0l.343,0,.888.011c.467.078.554.187.529.666-.015.284-.229.446-.609.458-.083,0-.167-.006-.25,0a30.3,30.3,0,0,0-3.033.049,1.018,1.018,0,0,0-.9,1.074,1.072,1.072,0,0,0,.957,1.012c.213.018.428.02.642.02.663,0,.663,0,.684.667a1.143,1.143,0,0,0,.993,1.029,1.056,1.056,0,0,0,1.152-1.15c0-.271-.093-.544.355-.625a2.525,2.525,0,0,0,2.1-1.926,2.7,2.7,0,0,0-2.23-3.411c-.724-.081-1.452-.007-2.177-.048a.509.509,0,0,1-.551-.507.524.524,0,0,1,.453-.62A1.808,1.808,0,0,1,169.3,129c.976,0,1.953.007,2.929,0a1.049,1.049,0,0,0,1.018-.884,1.027,1.027,0,0,0-.681-1.145,2.124,2.124,0,0,0-.908-.107c-.758,0-.677.059-.691-.657a1.027,1.027,0,0,0-.7-.979,1.1,1.1,0,0,0-1.235.41,1.346,1.346,0,0,0-.211.937c.014.222-.074.318-.291.348a2.517,2.517,0,0,0-1.555.874,2.612,2.612,0,0,0-.559,2.636,2.693,2.693,0,0,0,2.47,1.88" transform="translate(-116.435 -88.846)" fill="#ffc600"/>
        <path id="Trazado_606204" data-name="Trazado 606204" d="M157.289,54.672H146.254c-.438,0-.354.006-.307-.4a9.726,9.726,0,0,0,.233-2.8,11.067,11.067,0,0,0-.363-1.923c-.059-.165.014-.247.19-.247,1.19,0,2.381,0,3.571,0a.539.539,0,0,1,.414.248,8.49,8.49,0,0,0,4.823,3,8.4,8.4,0,0,0,6.983-1.441,8.7,8.7,0,0,0,1.633-1.537.7.7,0,0,1,.583-.277c1.143.011,2.285,0,3.428.013a1.3,1.3,0,0,1,1.284,1.276c.013,1.254,0,2.508.01,3.762,0,.36-.218.331-.449.331l-7.678,0h-3.321Z" transform="translate(-103.984 -35.158)" fill="#33ece0"/>
        <path id="Trazado_606205" data-name="Trazado 606205" d="M56.369,49.391A8.239,8.239,0,0,0,56,53.06a7.2,7.2,0,0,0,.268,1.444c.046.123-.03.177-.143.184-.095.006-.19.008-.285.008q-5.712,0-11.425,0c-.679,0-.553.054-.556-.542-.007-1.492,0-2.985,0-4.477,0-.211,0-.359.294-.358q5.909.018,11.818.015a.762.762,0,0,1,.4.061" transform="translate(-31.277 -35.172)" fill="#33ece0"/>
        <path id="Trazado_606206" data-name="Trazado 606206" d="M99.42,236.924c2.2,0,4.406,0,6.609-.005.241,0,.333.081.3.309a11.458,11.458,0,0,0-.021,1.851c.007.242.017.484.029.725s-.073.357-.347.356q-6.538-.014-13.076,0c-.346,0-.422-.124-.415-.439.018-.8.021-1.6,0-2.4-.009-.306.089-.381.381-.38,2.179.011,4.358.006,6.537.006Z" transform="translate(-65.973 -168.974)" fill="#ffc600"/>
        <path id="Trazado_606207" data-name="Trazado 606207" d="M11.59,54.575c-1.25,0-2.5-.009-3.748.007-.3,0-.389-.094-.386-.387.013-1.253,0-2.507.01-3.761.005-.883.415-1.239,1.264-1.238q1.749,0,3.5,0c.821,0,1.642-.01,2.463.007.258.005.487-.119.78-.033.256.075.292.161.292.365q0,1.486,0,2.973c0,.549-.02,1.1.006,1.647.016.342-.112.424-.43.42-1.25-.015-2.5-.006-3.749-.006Z" transform="translate(-5.318 -35.048)" fill="#33ece0"/>
        <path id="Trazado_606208" data-name="Trazado 606208" d="M225.316,77.323c-.183-.09-.184-.18,0-.268,0,.089,0,.179,0,.268" transform="translate(-160.6 -54.957)" fill="#ffddb4"/>
        <path id="Trazado_606209" data-name="Trazado 606209" d="M225.522,191c-.014-.075-.031-.15.048-.2.147.107.069.159-.048.2" transform="translate(-160.836 -136.079)" fill="#ffddb4"/>
        <path id="Trazado_606210" data-name="Trazado 606210" d="M155.653,143.913c-.066,0-.134,0-.12-.1.094-.031.13.006.12.1" transform="translate(-110.927 -102.562)" fill="#49a773"/>
        <path id="Trazado_606211" data-name="Trazado 606211" d="M154.659,143.617c-.026.084-.067.076-.117.02-.008-.051.008-.091.065-.084.02,0,.035.042.052.064" transform="translate(-110.22 -102.383)" fill="#49a773"/>
        <path id="Trazado_606212" data-name="Trazado 606212" d="M155.863,192.212c.054.024.145-.112.171.039a.116.116,0,0,1-.171-.039" transform="translate(-111.163 -137.064)" fill="#49a773"/>
        <path id="Trazado_606213" data-name="Trazado 606213" d="M106.512,229.283c.029-.039.059-.04.087,0,.011.051,0,.094-.061.081-.014,0-.018-.053-.027-.082" transform="translate(-75.966 -163.506)" fill="#49a773"/>
        <path id="Trazado_606214" data-name="Trazado 606214" d="M7.67,75.72l.014-.009-.014.009" transform="translate(-5.47 -53.998)" fill="#ffddb4"/>
        <path id="Trazado_606215" data-name="Trazado 606215" d="M76.8,192.346a.03.03,0,0,1,.052.005c-.022.036-.039.037-.052-.005" transform="translate(-54.774 -137.174)" fill="#49a773"/>
        <path id="Trazado_606216" data-name="Trazado 606216" d="M132.87,229.091l-.01-.019.019,0,.012.016Z" transform="translate(-94.757 -163.375)" fill="#49a773"/>
        <path id="Trazado_606217" data-name="Trazado 606217" d="M101.541,229.326c0-.029,0-.031.009,0h-.009" transform="translate(-72.42 -163.542)" fill="#49a773"/>
        <path id="Trazado_606218" data-name="Trazado 606218" d="M18.386,169.342a3.4,3.4,0,0,1-3.049-3.476,3.341,3.341,0,0,1,2.9-2.917,3.119,3.119,0,0,1,3.529,3.18,3.228,3.228,0,0,1-3.38,3.213m1.2-3.214a1.039,1.039,0,0,0-1.007-1.094,1.052,1.052,0,0,0-1.067,1.018,1.1,1.1,0,0,0,1.054,1.142,1.009,1.009,0,0,0,1.019-1.066" transform="translate(-10.938 -116.212)" fill="#060607"/>
        <path id="Trazado_606219" data-name="Trazado 606219" d="M46.365,163a3.045,3.045,0,0,1,3.2,3.039,3.2,3.2,0,1,1-6.391.063,3.1,3.1,0,0,1,3.19-3.1m1.014,3.34c.059-.77-.274-1.223-.928-1.266a1.06,1.06,0,0,0-1.145.986,1.1,1.1,0,0,0,.957,1.169.97.97,0,0,0,1.116-.889" transform="translate(-30.793 -116.252)" fill="#060607"/>
        <path id="Trazado_606220" data-name="Trazado 606220" d="M175.5,13.309c-.512,0-1.024-.005-1.535,0a.569.569,0,0,0-.64.569c0,.36.238.565.657.577a18.955,18.955,0,0,1,2.13.063,2.717,2.717,0,0,1-.044,5.38c-.174.023-.221.1-.221.253,0,.119-.007.239-.007.358a1.028,1.028,0,0,1-.995,1.112,1.116,1.116,0,0,1-1.073-1.069c-.039-.65-.039-.65-.679-.651-.226,0-.454.013-.678-.005a1.035,1.035,0,0,1-.934-1.076,1.066,1.066,0,0,1,.927-1c1.078-.124,2.16-.024,3.24-.059.472-.015.646-.2.623-.624a.474.474,0,0,0-.34-.453,1.61,1.61,0,0,0-.527-.07,12.651,12.651,0,0,1-2.03-.058,2.633,2.633,0,0,1-1.8-1.33,2.721,2.721,0,0,1,.865-3.62,2.844,2.844,0,0,1,1.106-.432c.239-.052.239-.149.227-.332a1.159,1.159,0,0,1,.545-1.227,1.036,1.036,0,0,1,1.537.9c-.062.7-.021.7.648.645a2.259,2.259,0,0,1,1.079.125,1.03,1.03,0,0,1,.546,1.233,1.063,1.063,0,0,1-1.016.784c-.274.008-.547,0-.821,0H175.5" transform="translate(-122.1 -6.775)" fill="#060607"/>
        <path id="Trazado_606221" data-name="Trazado 606221" d="M85.116,119.18q-5.68,0-11.36,0a1.817,1.817,0,0,1-.767-.125,1.139,1.139,0,0,1-.355-1.61,1.308,1.308,0,0,1,1.01-.417q11.485,0,22.97,0a1.086,1.086,0,0,1,1.113,1.569,1.066,1.066,0,0,1-1.036.57c-.857.014-1.715.007-2.572.007h-9Z" transform="translate(-51.665 -83.467)" fill="#060607"/>
        <path id="Trazado_606222" data-name="Trazado 606222" d="M108.264,41.911c-.474.029-1.043-.045-1.611.037-.4.058-.579.212-.586.547a.588.588,0,0,0,.612.554c.618.026,1.239.047,1.856.023a2.733,2.733,0,0,1,2.316,3.975,2.651,2.651,0,0,1-1.887,1.411c-.252.045-.36.139-.322.389a1.512,1.512,0,0,1-.2.917,1.048,1.048,0,0,1-1.381.311,1.089,1.089,0,0,1-.557-1.113c.042-.357-.1-.469-.441-.438-.26.024-.523,0-.785,0a1.115,1.115,0,0,1-1.066-.948,1.081,1.081,0,0,1,1.036-1.192c.762.009,1.524-.015,2.285.005a8.122,8.122,0,0,0,1.056-.09.47.47,0,0,0,.433-.53.49.49,0,0,0-.5-.53c-.4-.034-.81,0-1.213-.028a4.345,4.345,0,0,1-1.606-.186,2.637,2.637,0,0,1-1.679-1.771,2.739,2.739,0,0,1,.768-2.706,2.484,2.484,0,0,1,1.41-.741c.276-.043.322-.162.306-.4a1.258,1.258,0,0,1,.147-.818,1.083,1.083,0,0,1,1.322-.447,1.056,1.056,0,0,1,.67,1.068,1.924,1.924,0,0,1,0,.251c-.02.242.09.31.321.284a4.522,4.522,0,0,1,1.032.017,1.056,1.056,0,0,1,.937,1.109,1.038,1.038,0,0,1-1.035,1.011c-.261.02-.523.02-.785.024s-.5,0-.843,0" transform="translate(-74.121 -27.161)" fill="#060607"/>
        <path id="Trazado_606223" data-name="Trazado 606223" d="M177.428,133.838l-.343,0h0l-.319,0h-.01l-.348-.013h-.007a2.693,2.693,0,0,1-2.47-1.88,2.613,2.613,0,0,1,.559-2.636,2.518,2.518,0,0,1,1.555-.874c.217-.03.3-.126.29-.348a1.348,1.348,0,0,1,.212-.937,1.1,1.1,0,0,1,1.235-.41,1.028,1.028,0,0,1,.7.98c.014.716-.067.658.691.657a2.125,2.125,0,0,1,.908.106,1.027,1.027,0,0,1,.681,1.145,1.048,1.048,0,0,1-1.018.884c-.976.011-1.953,0-2.929,0a1.806,1.806,0,0,0-.391.025.524.524,0,0,0-.453.62.51.51,0,0,0,.551.507c.725.041,1.453-.034,2.177.048a2.7,2.7,0,0,1,2.23,3.411,2.525,2.525,0,0,1-2.1,1.926c-.448.081-.355.355-.355.626a1.056,1.056,0,0,1-1.152,1.15,1.143,1.143,0,0,1-.993-1.029c-.02-.669-.02-.667-.684-.667-.214,0-.429,0-.642-.02a1.073,1.073,0,0,1-.957-1.012,1.019,1.019,0,0,1,.9-1.074c1.007-.12,2.022-.031,3.033-.05.083,0,.167.008.25,0,.38-.013.594-.175.609-.458.025-.48-.061-.588-.528-.666a3.076,3.076,0,0,0-.889-.011" transform="translate(-123.952 -90.347)" fill="#060607"/>
        <path id="Trazado_606224" data-name="Trazado 606224" d="M186.466,151.58a3.076,3.076,0,0,1,.889.011l-.889-.011" transform="translate(-132.99 -108.09)" fill="#49a773"/>
        <path id="Trazado_606225" data-name="Trazado 606225" d="M184.136,151.616h.01l-.007.012Z" transform="translate(-131.328 -108.135)" fill="#49a773"/>
        <path id="Trazado_606226" data-name="Trazado 606226" d="M182.9,151.566h.007l-.005.013Z" transform="translate(-130.445 -108.099)" fill="#49a773"/>
        <path id="Trazado_606227" data-name="Trazado 606227" d="M185.274,151.632h0" transform="translate(-132.137 -108.146)" fill="#49a773"/>
        <path id="Trazado_606228" data-name="Trazado 606228" d="M25.015,171.331A1.009,1.009,0,0,1,24,172.4a1.1,1.1,0,0,1-1.054-1.142,1.052,1.052,0,0,1,1.067-1.018,1.039,1.039,0,0,1,1.007,1.094" transform="translate(-16.362 -121.416)" fill="#49a773"/>
        <path id="Trazado_606229" data-name="Trazado 606229" d="M52.672,171.5a.97.97,0,0,1-1.116.889,1.1,1.1,0,0,1-.957-1.169,1.06,1.06,0,0,1,1.145-.986c.654.042.987.5.928,1.266" transform="translate(-36.086 -121.414)" fill="#49a773"/>
      </g>
    </g>
  </g>
</svg>
