<svg id="Grupo_1015480" data-name="Grupo 1015480" xmlns="http://www.w3.org/2000/svg" xmlns:xlink="http://www.w3.org/1999/xlink" width="255.333" height="192.188" viewBox="0 0 255.333 192.188">
  <defs>
    <clipPath id="clip-path">
      <rect id="Rectángulo_346045" data-name="Rectángulo 346045" width="255.333" height="192.188" fill="none"/>
    </clipPath>
    <clipPath id="clip-path-3">
      <rect id="Rectángulo_346001" data-name="Rectángulo 346001" width="10.697" height="10.698" fill="none"/>
    </clipPath>
    <clipPath id="clip-path-4">
      <rect id="Rectángulo_346003" data-name="Rectángulo 346003" width="10.697" height="10.697" fill="none"/>
    </clipPath>
    <clipPath id="clip-path-5">
      <rect id="Rectángulo_346005" data-name="Rectángulo 346005" width="10.696" height="10.698" fill="none"/>
    </clipPath>
    <clipPath id="clip-path-6">
      <rect id="Rectángulo_346007" data-name="Rectángulo 346007" width="10.696" height="10.696" fill="none"/>
    </clipPath>
    <clipPath id="clip-path-8">
      <rect id="Rectángulo_346012" data-name="Rectángulo 346012" width="10.696" height="10.699" fill="none"/>
    </clipPath>
    <clipPath id="clip-path-9">
      <rect id="Rectángulo_346013" data-name="Rectángulo 346013" width="11.66" height="11.66" fill="none"/>
    </clipPath>
    <clipPath id="clip-path-10">
      <rect id="Rectángulo_346015" data-name="Rectángulo 346015" width="10.698" height="10.697" fill="none"/>
    </clipPath>
    <clipPath id="clip-path-11">
      <rect id="Rectángulo_346017" data-name="Rectángulo 346017" width="10.698" height="10.698" fill="none"/>
    </clipPath>
    <clipPath id="clip-path-12">
      <rect id="Rectángulo_346019" data-name="Rectángulo 346019" width="10.697" height="10.697" fill="#e4fdfb"/>
    </clipPath>
    <clipPath id="clip-path-14">
      <rect id="Rectángulo_346023" data-name="Rectángulo 346023" width="10.696" height="10.697" fill="none"/>
    </clipPath>
    <clipPath id="clip-path-17">
      <rect id="Rectángulo_346029" data-name="Rectángulo 346029" width="10.697" height="10.696" fill="none"/>
    </clipPath>
  </defs>
  <g id="Grupo_1015479" data-name="Grupo 1015479" clip-path="url(#clip-path)">
    <g id="Grupo_1015478" data-name="Grupo 1015478">
      <g id="Grupo_1015477" data-name="Grupo 1015477" clip-path="url(#clip-path)">
        <path id="Trazado_606054" data-name="Trazado 606054" d="M219.445,51.952A43.848,43.848,0,1,1,175.6,8.1a43.848,43.848,0,0,1,43.847,43.847" transform="translate(25.162 1.548)" fill="#fff"/>
        <rect id="Rectángulo_345999" data-name="Rectángulo 345999" width="150.183" height="112.471" transform="translate(27.581 54.927)" fill="#fff"/>
        <g id="Grupo_1015413" data-name="Grupo 1015413" transform="translate(163.05 89.869)" opacity="0.24">
          <g id="Grupo_1015412" data-name="Grupo 1015412">
            <g id="Grupo_1015411" data-name="Grupo 1015411" clip-path="url(#clip-path-3)">
              <rect id="Rectángulo_346000" data-name="Rectángulo 346000" width="10.697" height="10.697" transform="translate(0 0.001)" fill="#ffce26"/>
            </g>
          </g>
        </g>
        <g id="Grupo_1015416" data-name="Grupo 1015416" transform="translate(76.147 71.445)" opacity="0.24">
          <g id="Grupo_1015415" data-name="Grupo 1015415">
            <g id="Grupo_1015414" data-name="Grupo 1015414" clip-path="url(#clip-path-4)">
              <rect id="Rectángulo_346002" data-name="Rectángulo 346002" width="10.696" height="10.697" transform="translate(0.001 0)" fill="#ffce26"/>
            </g>
          </g>
        </g>
        <g id="Grupo_1015419" data-name="Grupo 1015419" transform="translate(99.919 68.325)" opacity="0.24">
          <g id="Grupo_1015418" data-name="Grupo 1015418">
            <g id="Grupo_1015417" data-name="Grupo 1015417" clip-path="url(#clip-path-5)">
              <rect id="Rectángulo_346004" data-name="Rectángulo 346004" width="10.696" height="10.697" transform="translate(0)" fill="#ffce26"/>
            </g>
          </g>
        </g>
        <g id="Grupo_1015422" data-name="Grupo 1015422" transform="translate(78.916 93.846)" opacity="0.24">
          <g id="Grupo_1015421" data-name="Grupo 1015421">
            <g id="Grupo_1015420" data-name="Grupo 1015420" clip-path="url(#clip-path-6)">
              <rect id="Rectángulo_346006" data-name="Rectángulo 346006" width="10.696" height="10.696" transform="translate(0 -0.001)" fill="#ffce26"/>
            </g>
          </g>
        </g>
        <rect id="Rectángulo_346008" data-name="Rectángulo 346008" width="10.696" height="10.697" transform="translate(98.512 92.279)" fill="#f4d4d7"/>
        <g id="Grupo_1015425" data-name="Grupo 1015425" transform="translate(76.147 117.276)" opacity="0.24">
          <g id="Grupo_1015424" data-name="Grupo 1015424">
            <g id="Grupo_1015423" data-name="Grupo 1015423" clip-path="url(#clip-path-3)">
              <rect id="Rectángulo_346009" data-name="Rectángulo 346009" width="10.696" height="10.697" transform="translate(0.001 0.001)" fill="#ffce26"/>
            </g>
          </g>
        </g>
        <g id="Grupo_1015428" data-name="Grupo 1015428" transform="translate(100.812 115.915)" opacity="0.24">
          <g id="Grupo_1015427" data-name="Grupo 1015427">
            <g id="Grupo_1015426" data-name="Grupo 1015426" clip-path="url(#clip-path-8)">
              <rect id="Rectángulo_346011" data-name="Rectángulo 346011" width="10.696" height="10.699" transform="translate(0 0)" fill="#ffce26"/>
            </g>
          </g>
        </g>
        <g id="Grupo_1015431" data-name="Grupo 1015431" transform="translate(194.93 47.67)" opacity="0.24">
          <g id="Grupo_1015430" data-name="Grupo 1015430">
            <g id="Grupo_1015429" data-name="Grupo 1015429" clip-path="url(#clip-path-9)">
              <path id="Trazado_606055" data-name="Trazado 606055" d="M175.331,45.856a5.83,5.83,0,1,1-5.83-5.83,5.829,5.829,0,0,1,5.83,5.83" transform="translate(-163.671 -40.026)" fill="#ffce26"/>
            </g>
          </g>
        </g>
        <path id="Trazado_606056" data-name="Trazado 606056" d="M57.865,40.6s.012-3.785.012-3.821c0-1.81.578-5.187,1.941-5.187.338,0,1.323,1.206,1.751,4.193.052.367.089.734.118,1.1.287,3.581-.526,6.911-1.881,7.291a1.294,1.294,0,0,0-.908,1.6,1.323,1.323,0,0,0,1.271.941c3.649-.973,4.426-5.962,4.171-9.835-.033-.509-.083-1-.149-1.458C63.6,31.342,62.012,29,59.818,29c-4.46,0-4.59,6.983-4.59,7.78,0,.035.012,3.821.012,3.821Z" transform="translate(10.548 5.538)" fill="#1a1a1a"/>
        <path id="Trazado_606057" data-name="Trazado 606057" d="M77.5,40.6s.011-3.785.011-3.821c0-1.81.576-5.187,1.941-5.187.338,0,1.323,1.206,1.75,4.193.055.367.092.734.12,1.1.286,3.581-.526,6.911-1.881,7.291a1.292,1.292,0,0,0-.908,1.6,1.322,1.322,0,0,0,1.271.941c3.649-.973,4.426-5.962,4.171-9.835-.033-.509-.085-1-.15-1.458C83.242,31.342,81.65,29,79.455,29c-4.46,0-4.589,6.983-4.589,7.78,0,.035.011,3.821.011,3.821Z" transform="translate(14.298 5.538)" fill="#1a1a1a"/>
        <path id="Trazado_606058" data-name="Trazado 606058" d="M97.068,40.6s.011-3.785.011-3.821c0-1.81.578-5.187,1.943-5.187.336,0,1.32,1.206,1.75,4.193.051.367.089.734.118,1.1.287,3.581-.526,6.911-1.881,7.291a1.294,1.294,0,0,0-.908,1.6,1.322,1.322,0,0,0,1.271.941c3.649-.973,4.426-5.962,4.171-9.835-.033-.509-.083-1-.15-1.458-.586-4.083-2.18-6.425-4.371-6.425-4.464,0-4.59,6.983-4.59,7.78,0,.035.011,3.821.011,3.821Z" transform="translate(18.035 5.538)" fill="#1a1a1a"/>
        <path id="Trazado_606059" data-name="Trazado 606059" d="M116.66,40.6s.012-3.785.012-3.821c0-1.81.576-5.187,1.941-5.187.338,0,1.322,1.206,1.75,4.193.052.367.09.734.119,1.1.287,3.581-.526,6.911-1.881,7.291a1.292,1.292,0,0,0-.908,1.6,1.321,1.321,0,0,0,1.271.941c3.649-.973,4.426-5.962,4.171-9.835-.033-.509-.083-1-.151-1.458C122.4,31.342,120.8,29,118.613,29c-4.461,0-4.59,6.983-4.59,7.78,0,.035.011,3.821.011,3.821Z" transform="translate(21.777 5.538)" fill="#1a1a1a"/>
        <path id="Trazado_606060" data-name="Trazado 606060" d="M136.343,40.6s.011-3.785.011-3.821c0-1.81.578-5.187,1.943-5.187.337,0,1.321,1.206,1.75,4.193.054.367.089.734.119,1.1.287,3.581-.528,6.911-1.881,7.291a1.3,1.3,0,0,0-.91,1.6,1.326,1.326,0,0,0,1.273.941c3.649-.973,4.425-5.962,4.17-9.835-.033-.509-.082-1-.149-1.458C142.082,31.342,140.489,29,138.3,29c-4.461,0-4.59,6.983-4.59,7.78,0,.035.01,3.821.01,3.821Z" transform="translate(25.536 5.538)" fill="#1a1a1a"/>
        <path id="Trazado_606061" data-name="Trazado 606061" d="M38.092,40.6s.011-3.785.011-3.821c0-1.81.578-5.187,1.944-5.187.336,0,1.321,1.206,1.75,4.193.051.367.089.734.118,1.1.286,3.581-.526,6.911-1.881,7.291a1.291,1.291,0,0,0-.908,1.6,1.323,1.323,0,0,0,1.272.941c3.647-.973,4.425-5.962,4.17-9.835-.033-.509-.083-1-.151-1.458C43.832,31.342,42.239,29,40.046,29c-4.463,0-4.591,6.983-4.591,7.78,0,.035.012,3.821.012,3.821Z" transform="translate(6.771 5.538)" fill="#1a1a1a"/>
        <path id="Trazado_606062" data-name="Trazado 606062" d="M142.861,56.229s-3.728,14.442-2.782,20.115,2.278,7.357,4.352,9.754l.166,1.727s.869,5.552,7.5,5.775a15.47,15.47,0,0,0,12.618-5.775s.33-7.35,1.748-11.968c0,0,2.518,1.927,4.585.445a6.25,6.25,0,0,0,2.983-4.915c.1-1.8-.622-5.535-3.244-6.06a6.105,6.105,0,0,0-4.706,1.22l.381-3.855s-.317-5.763-10.818-7.447c-9.515-1.527-12.789.985-12.789.985" transform="translate(26.724 10.457)" fill="#fff"/>
        <path id="Trazado_606063" data-name="Trazado 606063" d="M138.584,60.513s3.125-2.964,9.59-3.733,9.989.749,11.981,1.64,6.019,2.938,6.647,6.153l-.381,3.855A5.3,5.3,0,0,1,170,66.965a2.837,2.837,0,0,1,2.886,1.464l4.47-10.581-2.982,2.371L174.13,53.8l-1.686,2.05s-4.529-10.141-15.123-10.88-16.615,4.384-19.15,7.986l5.854-1.408s-5.084,7.749-5.44,8.968" transform="translate(26.389 8.575)" fill="#ffce26"/>
        <path id="Trazado_606064" data-name="Trazado 606064" d="M150.223,88.3s-12.253,2.277-20.59,3.565S113.07,93.2,102.85,87.441C93.421,82.136,89.743,71.25,89.743,71.25L70.752,75.707s4.859,14.016,12.284,23.455,15.918,16.587,27.879,17.977,15.812,1.372,17.686,1.109l-5.089,59.536,69.566.424,1.392-52.339s9.622,4.847,12.869,22.942,3.2,29.4,3.2,29.4H231.1a98.2,98.2,0,0,0-2.239-41.381c-6.117-22.822-16.8-33.769-27.706-40.938s-17.014-6.461-17.014-6.461l-6.207-4.754L156.187,146.5l1.453-63.549Z" transform="translate(13.513 13.608)" fill="#1a1a1a"/>
        <path id="Trazado_606065" data-name="Trazado 606065" d="M143.979,81.422s-.428,6.336,7.632,7.085A13.626,13.626,0,0,0,163.8,83.1l-21.309,61.454Z" transform="translate(27.213 15.551)" fill="#fff"/>
        <path id="Trazado_606066" data-name="Trazado 606066" d="M152.256,88.844l-3.324,4.606,1,4.7-5.05,22.718-.353,14.915,7.055-19.917,2.507-16.854,2.115-3.48Z" transform="translate(27.604 16.968)" fill="#33ece0"/>
        <path id="Trazado_606067" data-name="Trazado 606067" d="M21.99,38.757,18,151.528H5.016V145.6H0Z" transform="translate(0 7.402)" fill="#33ece0"/>
        <path id="Trazado_606068" data-name="Trazado 606068" d="M155.539,72.01s-1.885.964-1.729,2.714a4.884,4.884,0,0,0-1.081,1.037c-.563.716-1.539,1.84-2.551.827s.044-2.674.659-3.381,2.9-2.1,4.7-1.2" transform="translate(28.601 13.697)" fill="#1a1a1a"/>
        <g id="Grupo_1015434" data-name="Grupo 1015434" transform="translate(36.874 71.751)" opacity="0.24">
          <g id="Grupo_1015433" data-name="Grupo 1015433">
            <g id="Grupo_1015432" data-name="Grupo 1015432" clip-path="url(#clip-path-10)">
              <rect id="Rectángulo_346014" data-name="Rectángulo 346014" width="10.697" height="10.697" transform="translate(0)" fill="#ffce26"/>
            </g>
          </g>
        </g>
        <g id="Grupo_1015437" data-name="Grupo 1015437" transform="translate(54.901 70.025)" opacity="0.24">
          <g id="Grupo_1015436" data-name="Grupo 1015436">
            <g id="Grupo_1015435" data-name="Grupo 1015435" clip-path="url(#clip-path-11)">
              <rect id="Rectángulo_346016" data-name="Rectángulo 346016" width="10.697" height="10.697" transform="translate(0 0)" fill="#ffce26"/>
            </g>
          </g>
        </g>
        <g id="Grupo_1015440" data-name="Grupo 1015440" transform="translate(120.963 71.656)" opacity="0.24">
          <g id="Grupo_1015439" data-name="Grupo 1015439">
            <g id="Grupo_1015438" data-name="Grupo 1015438" clip-path="url(#clip-path-12)">
              <rect id="Rectángulo_346018" data-name="Rectángulo 346018" width="10.696" height="10.697" transform="translate(0.001 -0.001)" fill="#e4fdfb"/>
            </g>
          </g>
        </g>
        <g id="Grupo_1015443" data-name="Grupo 1015443" transform="translate(138.937 68.325)" opacity="0.24">
          <g id="Grupo_1015442" data-name="Grupo 1015442">
            <g id="Grupo_1015441" data-name="Grupo 1015441" clip-path="url(#clip-path-3)">
              <rect id="Rectángulo_346020" data-name="Rectángulo 346020" width="10.696" height="10.697" transform="translate(0.001)" fill="#ffce26"/>
            </g>
          </g>
        </g>
        <g id="Grupo_1015446" data-name="Grupo 1015446" transform="translate(33.105 91.206)" opacity="0.24">
          <g id="Grupo_1015445" data-name="Grupo 1015445">
            <g id="Grupo_1015444" data-name="Grupo 1015444" clip-path="url(#clip-path-14)">
              <rect id="Rectángulo_346022" data-name="Rectángulo 346022" width="10.696" height="10.697" transform="translate(0 0)" fill="#ffce26"/>
            </g>
          </g>
        </g>
        <g id="Grupo_1015449" data-name="Grupo 1015449" transform="translate(59.328 89.869)" opacity="0.24">
          <g id="Grupo_1015448" data-name="Grupo 1015448">
            <g id="Grupo_1015447" data-name="Grupo 1015447" clip-path="url(#clip-path-3)">
              <rect id="Rectángulo_346024" data-name="Rectángulo 346024" width="10.696" height="10.697" transform="translate(0 0.001)" fill="#ffce26"/>
            </g>
          </g>
        </g>
        <g id="Grupo_1015452" data-name="Grupo 1015452" transform="translate(122.185 91.383)" opacity="0.24">
          <g id="Grupo_1015451" data-name="Grupo 1015451">
            <g id="Grupo_1015450" data-name="Grupo 1015450" clip-path="url(#clip-path-4)">
              <rect id="Rectángulo_346026" data-name="Rectángulo 346026" width="10.696" height="10.697" transform="translate(0.001 -0.001)" fill="#ffce26"/>
            </g>
          </g>
        </g>
        <g id="Grupo_1015455" data-name="Grupo 1015455" transform="translate(138.937 93.846)" opacity="0.24">
          <g id="Grupo_1015454" data-name="Grupo 1015454">
            <g id="Grupo_1015453" data-name="Grupo 1015453" clip-path="url(#clip-path-17)">
              <rect id="Rectángulo_346028" data-name="Rectángulo 346028" width="10.696" height="10.696" transform="translate(0.001 -0.001)" fill="#ffce26"/>
            </g>
          </g>
        </g>
        <g id="Grupo_1015458" data-name="Grupo 1015458" transform="translate(38.453 117.276)" opacity="0.24">
          <g id="Grupo_1015457" data-name="Grupo 1015457">
            <g id="Grupo_1015456" data-name="Grupo 1015456" clip-path="url(#clip-path-3)">
              <rect id="Rectángulo_346030" data-name="Rectángulo 346030" width="10.696" height="10.697" transform="translate(0.001 0.001)" fill="#ffce26"/>
            </g>
          </g>
        </g>
        <g id="Grupo_1015461" data-name="Grupo 1015461" transform="translate(60.25 114.909)" opacity="0.24">
          <g id="Grupo_1015460" data-name="Grupo 1015460">
            <g id="Grupo_1015459" data-name="Grupo 1015459" clip-path="url(#clip-path-10)">
              <rect id="Rectángulo_346032" data-name="Rectángulo 346032" width="10.697" height="10.697" transform="translate(0.001 -0.001)" fill="#ffce26"/>
            </g>
          </g>
        </g>
        <g id="Grupo_1015464" data-name="Grupo 1015464" transform="translate(36.968 139.477)" opacity="0.24">
          <g id="Grupo_1015463" data-name="Grupo 1015463">
            <g id="Grupo_1015462" data-name="Grupo 1015462" clip-path="url(#clip-path-3)">
              <rect id="Rectángulo_346034" data-name="Rectángulo 346034" width="10.697" height="10.697" transform="translate(0 0.001)" fill="#ffce26"/>
            </g>
          </g>
        </g>
        <g id="Grupo_1015467" data-name="Grupo 1015467" transform="translate(54.901 136.049)" opacity="0.24">
          <g id="Grupo_1015466" data-name="Grupo 1015466">
            <g id="Grupo_1015465" data-name="Grupo 1015465" clip-path="url(#clip-path-11)">
              <rect id="Rectángulo_346036" data-name="Rectángulo 346036" width="10.697" height="10.697" transform="translate(0 0.001)" fill="#ffce26"/>
            </g>
          </g>
        </g>
        <g id="Grupo_1015470" data-name="Grupo 1015470" transform="translate(74.933 139.477)" opacity="0.24">
          <g id="Grupo_1015469" data-name="Grupo 1015469">
            <g id="Grupo_1015468" data-name="Grupo 1015468" clip-path="url(#clip-path-5)">
              <rect id="Rectángulo_346038" data-name="Rectángulo 346038" width="10.696" height="10.697" transform="translate(-0.001 0.001)" fill="#ffce26"/>
            </g>
          </g>
        </g>
        <g id="Grupo_1015473" data-name="Grupo 1015473" transform="translate(96.025 135.156)" opacity="0.24">
          <g id="Grupo_1015472" data-name="Grupo 1015472">
            <g id="Grupo_1015471" data-name="Grupo 1015471" clip-path="url(#clip-path-3)">
              <rect id="Rectángulo_346040" data-name="Rectángulo 346040" width="10.696" height="10.697" transform="translate(0.001 0)" fill="#ffce26"/>
            </g>
          </g>
        </g>
        <g id="Grupo_1015476" data-name="Grupo 1015476" transform="translate(122.185 138.343)" opacity="0.24">
          <g id="Grupo_1015475" data-name="Grupo 1015475">
            <g id="Grupo_1015474" data-name="Grupo 1015474" clip-path="url(#clip-path-3)">
              <rect id="Rectángulo_346042" data-name="Rectángulo 346042" width="10.696" height="10.697" transform="translate(0.001 0.001)" fill="#ffce26"/>
            </g>
          </g>
        </g>
        <path id="Trazado_606069" data-name="Trazado 606069" d="M104.868,65.45l-3.448-3.32-.971.318-.277.977,3.95,4.051.746.33.792-.485,8.367-8.287V57.72l-1.351-.164Z" transform="translate(19.132 10.992)" fill="#3a3a3a"/>
        <path id="Trazado_606070" data-name="Trazado 606070" d="M74.042,78.43l-3.29-13.564s-.021-2.659,1.645-2.933,2.9.1,3.661,1.629.763,1.866.763,1.529-.675-3.432,1.519-4.221,3.151.113,3.432,1.407l.429-.542s-3.043-7.22,1.276-8.769c0,0,1.391-.424,2.686,3.4A40.763,40.763,0,0,1,87.8,62.334a6.879,6.879,0,0,0,1.744.9,3.443,3.443,0,0,1,2.195,2.926c0,1.408-1.989,8.586-1.989,8.586Z" transform="translate(13.513 10.113)" fill="#fff"/>
        <path id="Trazado_606071" data-name="Trazado 606071" d="M110.546,19.175c-.263-.108-4.4-4.241-4.4-4.241a.374.374,0,0,1,0-.528.378.378,0,0,1,.528,0l4.13,4.133a.372.372,0,0,1-.262.636" transform="translate(20.253 2.731)" fill="#1a1a1a"/>
        <path id="Trazado_606072" data-name="Trazado 606072" d="M106.411,19.175c-.409-.255-.409-.491-.263-.636l4.132-4.133a.373.373,0,0,1,.526.528l-4.132,4.133a.376.376,0,0,1-.263.108" transform="translate(20.256 2.731)" fill="#1a1a1a"/>
        <path id="Trazado_606073" data-name="Trazado 606073" d="M114.19,13.274a1.552,1.552,0,1,1,1.552-1.552,1.555,1.555,0,0,1-1.552,1.552m0-2.361a.809.809,0,1,0,.808.809.81.81,0,0,0-.808-.809" transform="translate(21.512 1.942)" fill="#1a1a1a"/>
        <path id="Trazado_606074" data-name="Trazado 606074" d="M204.64,87.548a1.552,1.552,0,1,1,1.552-1.553,1.554,1.554,0,0,1-1.552,1.553m0-2.361a.809.809,0,1,0,.809.807.81.81,0,0,0-.809-.807" transform="translate(38.787 16.128)" fill="#1a1a1a"/>
        <path id="Trazado_606075" data-name="Trazado 606075" d="M86.24,63.019a.372.372,0,0,1-.366-.3c-.909-4.611-2.53-9.5-3.648-9.321a2.3,2.3,0,0,0-1.753,1.125c-1.342,2.293.438,7.089.455,7.136a.372.372,0,1,1-.7.262c-.079-.21-1.92-5.178-.4-7.774a3.037,3.037,0,0,1,2.284-1.486c2.265-.311,4.016,7.5,4.49,9.913a.372.372,0,0,1-.293.437.364.364,0,0,1-.071.007" transform="translate(15.132 10.056)" fill="#1a1a1a"/>
        <path id="Trazado_606076" data-name="Trazado 606076" d="M152.887,89.023a12.653,12.653,0,0,1-1.495-.088c-8.075-.946-8-7.4-8-7.464a.37.37,0,0,1,.372-.362.374.374,0,0,1,.372.381c0,.238-.043,5.842,7.341,6.706,7.514.891,12.227-5.557,12.273-5.623a.373.373,0,1,1,.606.434c-.046.063-4.392,6.016-11.472,6.016" transform="translate(27.387 15.491)" fill="#1a1a1a"/>
        <path id="Trazado_606077" data-name="Trazado 606077" d="M151.064,77.423a1.522,1.522,0,0,1-1.349-.83,2.77,2.77,0,0,1,.139-2.355,4.632,4.632,0,0,1,3.1-2.709,4.522,4.522,0,0,1,4.328,1.251,2.655,2.655,0,0,1,.841,1.819,1.565,1.565,0,0,1-1.654,1.533,2.564,2.564,0,0,1-1.279-.362,2.918,2.918,0,0,0-1.111-.491c-.5.1-.619.13-1.217,1.042a2.25,2.25,0,0,1-1.8,1.1m2.982-5.28a4.083,4.083,0,0,0-.922.108,3.893,3.893,0,0,0-2.588,2.284,2.137,2.137,0,0,0-.175,1.689c.41.722,1.355.487,1.877-.311.694-1.064.947-1.208,1.442-1.323.443-.11.8-.093,1.882.532a1.832,1.832,0,0,0,.905.263.83.83,0,0,0,.911-.827,2,2,0,0,0-.637-1.268,3.743,3.743,0,0,0-2.7-1.148" transform="translate(28.555 13.637)" fill="#1a1a1a"/>
        <path id="Trazado_606078" data-name="Trazado 606078" d="M153.222,75.071a.373.373,0,0,1-.373-.351,2.522,2.522,0,0,1,2.26-2.875.359.359,0,0,1,.4.339.372.372,0,0,1-.339.4,1.779,1.779,0,0,0-1.578,2.093.371.371,0,0,1-.351.392Z" transform="translate(29.191 13.721)" fill="#1a1a1a"/>
        <path id="Trazado_606079" data-name="Trazado 606079" d="M150.9,87.988c-3.927-.13-6.868-1.594-8.754-4.351-5.894-8.612.375-26.773.644-27.543a.366.366,0,0,1,.476-.226.372.372,0,0,1,.227.474c-.065.183-6.416,18.575-.734,26.876,1.744,2.549,4.486,3.9,8.151,4.026a.372.372,0,0,1-.012.744" transform="translate(26.667 10.666)" fill="#1a1a1a"/>
        <path id="Trazado_606080" data-name="Trazado 606080" d="M165.06,75.6a4.741,4.741,0,0,1-3.424-1.627.371.371,0,0,1,.559-.49,3.834,3.834,0,0,0,2.542,1.357c2.411.231,4.612-2.054,4.891-5.077s-1.459-5.663-3.877-5.886a4.4,4.4,0,0,0-4.145,2.559.372.372,0,0,1-.655-.353,5.114,5.114,0,0,1,4.869-2.95c2.824.262,4.866,3.267,4.55,6.7-.3,3.27-2.644,5.768-5.309,5.768" transform="translate(30.731 12.054)" fill="#1a1a1a"/>
        <path id="Trazado_606081" data-name="Trazado 606081" d="M160.811,84.872a.374.374,0,0,1-.37-.333c-.413-3.924,1.671-11.772,1.759-12.1a.372.372,0,1,1,.719.193c-.02.079-2.137,8.046-1.738,11.834a.373.373,0,0,1-.331.409.231.231,0,0,1-.039,0" transform="translate(30.632 13.781)" fill="#1a1a1a"/>
        <path id="Trazado_606082" data-name="Trazado 606082" d="M166.5,68.951a.381.381,0,0,1-.369-.418l.478-3.784c-.114-.5-1.422-5.074-10.639-7.2a21.016,21.016,0,0,0-17.018,3.394.372.372,0,0,1-.555-.478l4.938-8.264-5.275,1.488c-.269-.836,3.666-7.956,16.44-9.015,11.279-.935,16.843,8.251,18.059,10.569l1.427-1.679c.656.248.563,6.11.563,6.11l2.814-2.238c.572.443-4.233,11.076-4.233,11.076a.372.372,0,0,1-.679-.306l4.171-9.23L174.4,60.749c-.6-.3-.516-5.908-.516-5.908l-1.121,1.318c-.675-.208-5.862-11.768-18.2-10.742-9.8.813-14.279,5.394-15.722,7.279l5.193-1.464c.422.55-4.139,8.181-4.139,8.181a22,22,0,0,1,16.243-2.587c10.244,2.362,11.182,7.628,11.217,7.85,0,.1-.484,3.949-.484,3.949a.371.371,0,0,1-.369.325" transform="translate(26.365 8.52)" fill="#1a1a1a"/>
        <path id="Trazado_606083" data-name="Trazado 606083" d="M115.111,171.1a.378.378,0,0,1-.37-.4l5.09-59.96a.357.357,0,0,1,.4-.339.372.372,0,0,1,.339.4l-5.089,59.96a.373.373,0,0,1-.372.341" transform="translate(21.914 21.085)" fill="#1a1a1a"/>
        <path id="Trazado_606084" data-name="Trazado 606084" d="M190.977,169.823a.372.372,0,0,1-.372-.355c-1.75-37.807-8.349-47.449-15.338-51.715l-1.376,51.137a.421.421,0,0,1-.382.362.372.372,0,0,1-.362-.382L174.54,117.1c9.075,4.556,15.1,15.371,16.808,52.332a.373.373,0,0,1-.354.389Z" transform="translate(33.069 22.365)" fill="#1a1a1a"/>
        <path id="Trazado_606085" data-name="Trazado 606085" d="M212.974,175.726a.386.386,0,0,1-.366-.441c3.1-16.743-.357-37.648-4.888-49.986-12.866-35.046-41.456-38.326-41.744-38.356a.37.37,0,0,1-.331-.407.347.347,0,0,1,.406-.332c.293.029,29.344,3.362,42.368,38.838,4.564,12.43,8.05,33.5,4.92,50.38a.371.371,0,0,1-.366.3" transform="translate(31.636 16.463)" fill="#1a1a1a"/>
        <path id="Trazado_606086" data-name="Trazado 606086" d="M123.615,118.957a67.117,67.117,0,0,1-16.863-2.365c-25.778-6.7-36.2-40.378-36.3-40.719.272-.468,19.264-4.926,19.264-4.926a.371.371,0,0,1,.43.223c9.8,24.147,33.911,21.485,41.064,20.1,13.614-2.642,18.975-3.28,19.028-3.286a.367.367,0,0,1,.412.326.372.372,0,0,1-.326.413c-.052.006-5.4.643-18.974,3.275-7.265,1.411-31.68,4.1-41.773-20.256L71.287,76.038c1.223,3.719,11.75,33.617,35.652,39.836,11.931,3.1,20.106,2.555,24.862,1.552a.363.363,0,0,1,.442.287.372.372,0,0,1-.287.441,40.449,40.449,0,0,1-8.341.8" transform="translate(13.455 13.548)" fill="#1a1a1a"/>
        <path id="Trazado_606087" data-name="Trazado 606087" d="M142.449,145.211c-.338-.132-.412-.322-.351-.5l21.858-62.3c.578-.171,6.786,4.583,6.786,4.583.13.193,4.915,16.509,4.915,16.509-.336.478-10.871,1.066-10.871,1.066l2.251,8.388c-.064.323-24.293,32.1-24.293,32.1a.37.37,0,0,1-.3.147M164.49,83.15l-20.91,59.593,22.691-29.763-2.322-8.654c.338-.468,10.863-1.058,10.863-1.058l-4.62-15.75Z" transform="translate(27.135 15.74)" fill="#1a1a1a"/>
        <path id="Trazado_606088" data-name="Trazado 606088" d="M144.351,145.516c-.362-.286-8.285-33.48-8.285-33.48.018-.229,3.376-8.317,3.376-8.317l-7.316-2.8c-.207-.5,6.036-14.6,6.036-14.6.123-.151,7.539-5.5,7.539-5.5.59.311-.979,64.335-.979,64.335a.371.371,0,0,1-.333.361.2.2,0,0,1-.038,0m-7.533-33.533,7.23,30.293,1.48-60.415L138.8,86.712l-6.043,13.65,7.308,2.8c.21.491-3.249,8.822-3.249,8.822" transform="translate(25.234 15.435)" fill="#1a1a1a"/>
        <path id="Trazado_606089" data-name="Trazado 606089" d="M165.258,71.54c-.275-.121-2.564-2.644-2.564-2.644.075-.565,3.549-2.787,3.549-2.787a.372.372,0,1,1,.4.626l-3.1,1.987,1.992,2.195a.373.373,0,0,1-.026.526.367.367,0,0,1-.25.1" transform="translate(31.072 12.615)" fill="#1a1a1a"/>
        <path id="Trazado_606090" data-name="Trazado 606090" d="M148.239,72.425a.57.57,0,0,1-.493-.231c-.362-.517-.174-2.264,1.923-9.111.133-.436.224-.727.239-.8a.344.344,0,0,1,.369-.339.4.4,0,0,1,.368.4,4.478,4.478,0,0,1-.264.952c-1.809,5.9-2.133,7.845-2.046,8.377a9.339,9.339,0,0,0,2.742-.984.373.373,0,0,1,.347.66,9.362,9.362,0,0,1-3.185,1.071" transform="translate(28.189 11.83)" fill="#1a1a1a"/>
        <path id="Trazado_606091" data-name="Trazado 606091" d="M155.151,68.332a1.228,1.228,0,0,1-.509-.113c-1.716-.78-.711-4.216-.592-4.606a.373.373,0,0,1,.712.22c-.255.824-.765,3.275.188,3.709,1.112-.316,1.838-1.916,2.131-2.851a.367.367,0,0,1,.466-.244.373.373,0,0,1,.244.466c-.088.281-.891,2.755-2.121,3.3a1.271,1.271,0,0,1-.519.114" transform="translate(29.345 12.099)" fill="#1a1a1a"/>
        <path id="Trazado_606092" data-name="Trazado 606092" d="M144.894,66.727a1.222,1.222,0,0,1-.509-.112c-1.716-.779-.712-4.216-.593-4.606a.378.378,0,0,1,.466-.247.373.373,0,0,1,.247.466c-.254.824-.763,3.276.189,3.709,1.11-.314,1.835-1.915,2.129-2.851a.372.372,0,1,1,.709.224c-.087.279-.891,2.754-2.12,3.3a1.268,1.268,0,0,1-.518.113" transform="translate(27.386 11.793)" fill="#1a1a1a"/>
        <path id="Trazado_606093" data-name="Trazado 606093" d="M158.085,99.024c-.32-.183-6.683-10.945-6.683-10.945L144.066,98a.372.372,0,0,1-.6-.442l7.67-10.37c.619.032,7.269,11.279,7.269,11.279a.371.371,0,0,1-.131.509.364.364,0,0,1-.189.052" transform="translate(27.386 16.651)" fill="#1a1a1a"/>
        <path id="Trazado_606094" data-name="Trazado 606094" d="M151.684,98.669c-.054,0-4.288-.617-4.288-.617a44.732,44.732,0,0,1-1.39-5.357.372.372,0,0,1,.728-.156l1.025,4.814,3.728.538,2.981-5.126a.372.372,0,0,1,.643.375l-3.106,5.344a.373.373,0,0,1-.322.185" transform="translate(27.884 17.617)" fill="#1a1a1a"/>
        <path id="Trazado_606095" data-name="Trazado 606095" d="M147.8,124.252a.382.382,0,0,1-.369-.423l3.606-26.494a.373.373,0,1,1,.738.1l-3.608,26.493a.372.372,0,0,1-.368.322" transform="translate(28.157 18.528)" fill="#1a1a1a"/>
        <path id="Trazado_606096" data-name="Trazado 606096" d="M142.908,120.285c-.282-.054-.409-.254-.363-.454l5.2-23.041a.372.372,0,1,1,.725.164L143.271,120a.374.374,0,0,1-.363.289" transform="translate(27.222 18.43)" fill="#1a1a1a"/>
        <path id="Trazado_606097" data-name="Trazado 606097" d="M88.076,73.779c-.3-.068-.413-.273-.358-.47l1.348-4.872c1.055-3.313.83-4.96-.805-5.891-.923-.53-6.034-2.683-7.582-1.524-.438.328-.553.956-.338,1.873a6.232,6.232,0,0,0,5.37,5.1.372.372,0,0,1,.344.4.38.38,0,0,1-.4.344,7.076,7.076,0,0,1-6.044-5.676,2.365,2.365,0,0,1,.619-2.64c2.176-1.616,8.337,1.442,8.4,1.474,2.456,1.4,2,4.071,1.149,6.749l-1.345,4.858a.37.37,0,0,1-.358.273" transform="translate(15.182 11.45)" fill="#1a1a1a"/>
        <path id="Trazado_606098" data-name="Trazado 606098" d="M73.943,77.032c-.373-.318-1.817-5.339-2.733-9.511-.911-4.151-1.46-6.656,1.484-7.4,1.873-.472,3.392.629,4.273,3.106.316.886,1.276,3.918.32,5.716a2.414,2.414,0,0,1-1.6,1.239,4.361,4.361,0,0,1-3.117-.113c.823,3.344,1.717,6.449,1.728,6.489a.374.374,0,0,1-.254.462.344.344,0,0,1-.1.013M72.228,68.64c.018.065.45,1.548,3.276.819a1.667,1.667,0,0,0,1.125-.867c.646-1.215.235-3.44-.364-5.115-.52-1.461-1.532-3.1-3.388-2.636-2.072.525-1.927,2.021-.94,6.519.091.413.186.836.287,1.261Z" transform="translate(13.461 11.462)" fill="#1a1a1a"/>
        <path id="Trazado_606099" data-name="Trazado 606099" d="M79.689,69.236c-2.841,0-3.388-2.506-3.729-4.062-.074-.344-.144-.665-.229-.93a4.461,4.461,0,0,1,.015-3.567,3.283,3.283,0,0,1,2.191-1.519,2.738,2.738,0,0,1,2.313.262A2.7,2.7,0,0,1,81.3,61.2a.372.372,0,0,1-.74.087,1.964,1.964,0,0,0-.73-1.253,2.05,2.05,0,0,0-1.7-.151A2.587,2.587,0,0,0,76.4,61.035a3.8,3.8,0,0,0,.043,2.983c.089.285.166.626.248,1,.4,1.835.859,3.918,3.868,3.4a2.109,2.109,0,0,0,1.67-1.677.372.372,0,0,1,.734.123,2.846,2.846,0,0,1-2.277,2.289,5.871,5.871,0,0,1-.994.09" transform="translate(14.395 11.273)" fill="#1a1a1a"/>
        <path id="Trazado_606100" data-name="Trazado 606100" d="M157.7,63.045a12.6,12.6,0,0,0-1.912-2.1.372.372,0,0,1,.333-.665,7.315,7.315,0,0,1,1.9,2.2.373.373,0,0,1-.125.512.392.392,0,0,1-.193.052" transform="translate(29.714 11.506)" fill="#1a1a1a"/>
        <path id="Trazado_606101" data-name="Trazado 606101" d="M145.315,60.051c-.423-.414-.336-.632-.148-.713a7.755,7.755,0,0,1,2.825-.684.372.372,0,1,1-.117.735,6.476,6.476,0,0,0-2.414.631.352.352,0,0,1-.147.031" transform="translate(27.695 11.2)" fill="#1a1a1a"/>
        <path id="Trazado_606102" data-name="Trazado 606102" d="M188.015,105.841c-.406-.5-.279-.693-.076-.736a52.769,52.769,0,1,0-62.281-64.379.371.371,0,1,1-.721-.18,53.544,53.544,0,1,1,63.156,65.285.287.287,0,0,1-.077.01" transform="translate(23.859)" fill="#1a1a1a"/>
        <path id="Trazado_606103" data-name="Trazado 606103" d="M173.526,87.7c-.5,0-.986-.015-1.473-.038-.694-.026-1.42-.076-2.154-.146a.372.372,0,1,1,.071-.741q1.05.1,2.114.144c.478.023.954.036,1.434.036a36.173,36.173,0,0,0,36.155-36.118c0-.556-.017-1.1-.04-1.647-.051-.937-.087-1.44-.137-1.939-.068-.672-.135-1.17-.206-1.665l-.081-.524c-.066-.4-.136-.8-.213-1.2-.04-.2-.08-.4-.124-.6-.082-.382-.168-.76-.262-1.139-.057-.226-.114-.45-.175-.676-.075-.274-.154-.547-.233-.818-.116-.394-.238-.781-.366-1.167-.073-.22-.146-.441-.223-.659q-.152-.422-.31-.84c-.407-1.028-.644-1.584-.9-2.133s-.4-.854-.56-1.167c-.443-.868-.793-1.51-1.154-2.122a36.163,36.163,0,0,0-61.411-1.493.372.372,0,1,1-.622-.41,36.906,36.906,0,0,1,62.672,1.527c.367.621.725,1.276,1.068,1.945.273.541.43.862.581,1.187.358.785.6,1.353.83,1.928.294.756.4,1.042.5,1.329.08.224.155.448.23.673.13.4.254.79.372,1.191.082.275.162.555.237.835.063.231.124.459.181.693.094.382.183.771.268,1.16q.064.3.125.611.12.611.218,1.224l.082.536c.074.5.142,1.012.2,1.526.065.68.1,1.2.133,1.71.046,1,.063,1.555.063,2.116A36.92,36.92,0,0,1,173.526,87.7" transform="translate(27.234 2.668)" fill="#1a1a1a"/>
        <path id="Trazado_606104" data-name="Trazado 606104" d="M169.25,49.868a4.264,4.264,0,1,1,4.267-4.264,4.271,4.271,0,0,1-4.267,4.264m0-7.784a3.521,3.521,0,1,0,3.523,3.521,3.526,3.526,0,0,0-3.523-3.521" transform="translate(31.51 7.896)" fill="#1a1a1a"/>
        <path id="Trazado_606105" data-name="Trazado 606105" d="M164.442,50.525c-.4-.219-.418-.454-.285-.612l2-2.372a.372.372,0,0,1,.569.48l-2,2.374a.375.375,0,0,1-.285.131" transform="translate(31.338 9.054)" fill="#1a1a1a"/>
        <path id="Trazado_606106" data-name="Trazado 606106" d="M169.7,45.919c-.287-.058-.41-.26-.362-.459l6.15-25.606a.365.365,0,0,1,.449-.274.371.371,0,0,1,.274.448l-6.149,25.606a.374.374,0,0,1-.362.285" transform="translate(32.339 3.737)" fill="#1a1a1a"/>
        <path id="Trazado_606107" data-name="Trazado 606107" d="M168.626,25.506a.371.371,0,0,1-.372-.372V16.742a.372.372,0,0,1,.744,0v8.393a.372.372,0,0,1-.373.372" transform="translate(32.134 3.126)" fill="#1a1a1a"/>
        <path id="Trazado_606108" data-name="Trazado 606108" d="M198.212,45.353h-8.393a.372.372,0,1,1,0-.743h8.393a.372.372,0,0,1,0,.743" transform="translate(36.182 8.52)" fill="#1a1a1a"/>
        <path id="Trazado_606109" data-name="Trazado 606109" d="M110.546,19.175c-.263-.108-4.4-4.241-4.4-4.241a.374.374,0,0,1,0-.528.378.378,0,0,1,.528,0l4.13,4.133a.372.372,0,0,1-.262.636" transform="translate(20.253 2.731)" fill="#1a1a1a"/>
        <path id="Trazado_606110" data-name="Trazado 606110" d="M106.411,19.175c-.409-.255-.409-.491-.263-.636l4.132-4.133a.373.373,0,0,1,.526.528l-4.132,4.133a.376.376,0,0,1-.263.108" transform="translate(20.256 2.731)" fill="#1a1a1a"/>
        <path id="Trazado_606111" data-name="Trazado 606111" d="M114.19,13.274a1.552,1.552,0,1,1,1.552-1.552,1.555,1.555,0,0,1-1.552,1.552m0-2.361a.809.809,0,1,0,.808.809.81.81,0,0,0-.808-.809" transform="translate(21.512 1.942)" fill="#1a1a1a"/>
        <path id="Trazado_606112" data-name="Trazado 606112" d="M8.708,142.07H3.347c-.368-.436,17.637-103.28,17.637-103.28a.386.386,0,0,1,.431-.3.374.374,0,0,1,.3.431L3.789,141.327H8.708a.372.372,0,1,1,0,.743" transform="translate(0.638 7.35)" fill="#1a1a1a"/>
        <path id="Trazado_606113" data-name="Trazado 606113" d="M20.547,148H7.558C7.189,147.588,20.177,38.81,20.177,38.81a.383.383,0,0,1,.416-.325.375.375,0,0,1,.325.414L7.979,147.26H20.547a.372.372,0,1,1,0,.743" transform="translate(1.442 7.35)" fill="#1a1a1a"/>
        <path id="Trazado_606114" data-name="Trazado 606114" d="M130.817,167.893H18.523a.372.372,0,0,1-.372-.373V38.855a.372.372,0,0,1,.372-.373H45.073a.372.372,0,1,1,0,.744H18.894V167.149H130.817a.372.372,0,0,1,0,.744" transform="translate(3.467 7.35)" fill="#1a1a1a"/>
        <path id="Trazado_606115" data-name="Trazado 606115" d="M63.835,39.227H43.13a.372.372,0,0,1,0-.744H63.835a.372.372,0,0,1,0,.744" transform="translate(8.166 7.35)" fill="#1a1a1a"/>
        <path id="Trazado_606116" data-name="Trazado 606116" d="M83.409,39.227H62.827a.372.372,0,0,1,0-.744H83.409a.372.372,0,1,1,0,.744" transform="translate(11.928 7.35)" fill="#1a1a1a"/>
        <path id="Trazado_606117" data-name="Trazado 606117" d="M103.134,39.227H82.3a.372.372,0,1,1,0-.744h20.836a.372.372,0,0,1,0,.744" transform="translate(15.647 7.35)" fill="#1a1a1a"/>
        <path id="Trazado_606118" data-name="Trazado 606118" d="M122.7,39.227H102.021a.372.372,0,0,1,0-.744H122.7a.372.372,0,1,1,0,.744" transform="translate(19.414 7.35)" fill="#1a1a1a"/>
        <path id="Trazado_606119" data-name="Trazado 606119" d="M142.409,39.227H121.573a.372.372,0,0,1,0-.744h20.836a.372.372,0,1,1,0,.744" transform="translate(23.148 7.35)" fill="#1a1a1a"/>
        <path id="Trazado_606120" data-name="Trazado 606120" d="M160.131,44.275a.372.372,0,0,1-.373-.373V39.226h-18.5a.372.372,0,0,1,0-.744h18.874a.372.372,0,0,1,.372.373V43.9a.371.371,0,0,1-.372.373" transform="translate(26.907 7.35)" fill="#1a1a1a"/>
        <path id="Trazado_606121" data-name="Trazado 606121" d="M131.965,159.021H23.218a.372.372,0,0,1-.372-.372V46.179a.372.372,0,0,1,.372-.373h139.1a.372.372,0,0,1,0,.744H23.59V158.277H131.965a.372.372,0,1,1,0,.744" transform="translate(4.363 8.748)" fill="#1a1a1a"/>
        <path id="Trazado_606122" data-name="Trazado 606122" d="M40.435,47.175a1.671,1.671,0,0,1-.459-3.276c.979-.281,1.867-3.191,1.576-6.915-.029-.357-.063-.717-.114-1.077-.4-2.85-1.26-3.818-1.413-3.891-.779.011-1.463,2.649-1.467,4.834,0,.036-.011,3.827-.011,3.827l-.743,0,.011-3.825c0-1.443.425-5.567,2.277-5.567.711,0,1.685,1.691,2.083,4.52.054.375.088.75.119,1.123.263,3.359-.388,7.195-2.114,7.688a.926.926,0,0,0,.511,1.781c2.948-.844,3.708-5.6,3.462-9.415-.033-.5-.081-.981-.144-1.434-.544-3.885-1.973-6.113-3.917-6.113-4.014,0-4.13,6.658-4.13,7.417l.011,3.825-.743,0s-.011-3.792-.011-3.828c0-.835.136-8.162,4.874-8.162,2.355,0,4.052,2.462,4.654,6.755.067.467.116.968.15,1.488.275,4.288-.63,9.212-4,10.179a1.7,1.7,0,0,1-.462.066" transform="translate(6.726 5.479)" fill="#1a1a1a"/>
        <path id="Trazado_606123" data-name="Trazado 606123" d="M60.134,47.175a1.672,1.672,0,0,1-1.459-2.482,1.655,1.655,0,0,1,1-.794c.979-.28,1.869-3.189,1.578-6.915-.029-.357-.064-.717-.116-1.077-.4-2.852-1.26-3.818-1.414-3.89-.777.01-1.461,2.648-1.466,4.833,0,.036-.012,3.818-.012,3.818l-.743,0,.011-3.817c0-1.443.429-5.567,2.276-5.567.713,0,1.688,1.691,2.087,4.52.052.375.088.75.118,1.123.262,3.36-.389,7.195-2.114,7.688a.92.92,0,0,0-.553.441.909.909,0,0,0-.081.7.941.941,0,0,0,1.146.636c2.948-.844,3.708-5.6,3.461-9.415-.032-.5-.081-.983-.144-1.434-.545-3.885-1.975-6.113-3.92-6.113-4.012,0-4.129,6.658-4.129,7.417l.012,3.817-.744,0s-.011-3.784-.011-3.819c0-.835.137-8.162,4.872-8.162,2.356,0,4.054,2.462,4.658,6.755.064.468.114.969.148,1.489.277,4.285-.628,9.211-4,10.178a1.692,1.692,0,0,1-.462.066" transform="translate(10.488 5.479)" fill="#1a1a1a"/>
        <path id="Trazado_606124" data-name="Trazado 606124" d="M79.727,47.175a1.671,1.671,0,0,1-1.46-2.482,1.656,1.656,0,0,1,1-.794c.979-.281,1.869-3.191,1.577-6.915-.029-.358-.064-.717-.116-1.077-.4-2.851-1.259-3.818-1.413-3.891-.777.011-1.461,2.649-1.467,4.834,0,.036-.011,3.836-.011,3.836h-.743l.011-3.836c0-1.443.428-5.567,2.276-5.567.712,0,1.688,1.691,2.085,4.52.054.375.089.752.118,1.124.263,3.357-.387,7.194-2.113,7.687a.919.919,0,0,0-.554.441.9.9,0,0,0-.08.7.938.938,0,0,0,1.143.636c2.948-.844,3.709-5.6,3.463-9.415-.032-.5-.081-.983-.144-1.434-.545-3.885-1.975-6.113-3.92-6.113-4.012,0-4.128,6.658-4.128,7.417l.012,3.809H74.52s-.011-3.774-.011-3.81c0-.835.137-8.162,4.872-8.162,2.356,0,4.054,2.462,4.658,6.755.064.468.116.969.148,1.489.275,4.286-.63,9.211-4,10.178a1.677,1.677,0,0,1-.461.066" transform="translate(14.23 5.479)" fill="#1a1a1a"/>
        <path id="Trazado_606125" data-name="Trazado 606125" d="M99.41,47.175a1.671,1.671,0,0,1-.459-3.276c.979-.28,1.866-3.189,1.576-6.915-.03-.356-.062-.716-.113-1.077-.4-2.85-1.262-3.818-1.415-3.891-.777.011-1.46,2.649-1.466,4.834,0,.036-.011,3.845-.011,3.845l-.743,0,.011-3.843c0-1.443.428-5.567,2.275-5.567.713,0,1.689,1.691,2.085,4.52.055.374.088.749.119,1.122.262,3.36-.389,7.2-2.114,7.689a.925.925,0,0,0-.632,1.145.939.939,0,0,0,1.145.636c2.947-.844,3.706-5.6,3.461-9.415-.032-.5-.08-.981-.144-1.434-.544-3.885-1.973-6.113-3.92-6.113-4.012,0-4.128,6.658-4.128,7.417l.011,3.877-.744,0s-.01-3.843-.01-3.879c0-.835.136-8.162,4.871-8.162,2.357,0,4.054,2.462,4.657,6.755.067.467.117.969.15,1.489.275,4.286-.63,9.211-4,10.178a1.7,1.7,0,0,1-.463.066" transform="translate(17.99 5.479)" fill="#1a1a1a"/>
        <path id="Trazado_606126" data-name="Trazado 606126" d="M119,47.175a1.671,1.671,0,0,1-.459-3.276c.98-.281,1.867-3.191,1.574-6.915-.027-.358-.062-.717-.113-1.077-.4-2.85-1.261-3.818-1.414-3.891-.778.011-1.463,2.649-1.466,4.834,0,.036-.011,3.878-.011,3.878l-.743,0,.01-3.877c0-1.443.425-5.567,2.277-5.567.711,0,1.686,1.691,2.084,4.52.054.375.089.752.118,1.124.264,3.357-.386,7.194-2.113,7.687a.926.926,0,0,0-.634,1.145.94.94,0,0,0,1.143.636c2.949-.844,3.71-5.6,3.463-9.415-.032-.5-.081-.983-.144-1.434-.544-3.885-1.973-6.113-3.918-6.113-4.012,0-4.129,6.658-4.129,7.417l.01,3.877-.743,0-.01-3.879c0-.835.136-8.162,4.872-8.162,2.356,0,4.053,2.462,4.656,6.755.065.468.117.969.15,1.489.275,4.286-.631,9.212-4,10.178a1.684,1.684,0,0,1-.461.066" transform="translate(21.732 5.479)" fill="#1a1a1a"/>
        <path id="Trazado_606127" data-name="Trazado 606127" d="M138.687,47.175a1.67,1.67,0,0,1-.459-3.276c.978-.281,1.866-3.191,1.574-6.915-.029-.358-.063-.717-.114-1.077-.4-2.85-1.26-3.818-1.414-3.891-.777.011-1.46,2.649-1.466,4.834,0,.036,0,3.73-.012,3.8a.385.385,0,0,1-.413.328.373.373,0,0,1-.329-.387c0-.187.01-3.705.01-3.743,0-1.443.429-5.567,2.277-5.567.711,0,1.686,1.691,2.085,4.52.054.375.089.752.118,1.124.263,3.357-.388,7.194-2.113,7.687a.928.928,0,0,0-.635,1.145.942.942,0,0,0,1.146.636c2.948-.844,3.708-5.6,3.462-9.415-.033-.5-.081-.981-.145-1.434-.544-3.885-1.973-6.113-3.918-6.113-4.012,0-4.129,6.658-4.129,7.417,0,.625,0,3.623,0,3.749a.374.374,0,0,1-.353.381.368.368,0,0,1-.391-.341c0-.023,0-.048,0-3.708,0-.917.137-8.244,4.874-8.244,2.357,0,4.054,2.462,4.657,6.755.067.467.116.968.149,1.488.275,4.288-.63,9.212-4,10.179a1.69,1.69,0,0,1-.461.066" transform="translate(25.49 5.479)" fill="#1a1a1a"/>
        <path id="Trazado_606128" data-name="Trazado 606128" d="M40.607,69.89H30.122a.37.37,0,0,1-.37-.372V59.035a.37.37,0,0,1,.37-.372H40.607a.371.371,0,0,1,.373.372V69.519a.371.371,0,0,1-.373.372M30.5,69.147h9.741V59.406H30.5Z" transform="translate(5.682 11.204)" fill="#1a1a1a"/>
        <path id="Trazado_606129" data-name="Trazado 606129" d="M58.349,69.89H47.865a.371.371,0,0,1-.372-.372V59.035a.371.371,0,0,1,.372-.372H58.349a.372.372,0,0,1,.373.372V69.519a.372.372,0,0,1-.373.372m-10.111-.743h9.74V59.406h-9.74Z" transform="translate(9.071 11.204)" fill="#1a1a1a"/>
        <path id="Trazado_606130" data-name="Trazado 606130" d="M73.033,69.89H65.4a.371.371,0,0,1-.372-.372V59.035a.371.371,0,0,1,.372-.372H75.89a.371.371,0,0,1,.372.372v1.851a.372.372,0,0,1-.744,0V59.406h-9.74v9.741h7.256a.372.372,0,0,1,0,.743" transform="translate(12.42 11.204)" fill="#1a1a1a"/>
        <path id="Trazado_606131" data-name="Trazado 606131" d="M93.279,69.89H88.294a.372.372,0,0,1,0-.743h4.613V59.406h-8.2a.372.372,0,1,1,0-.743h8.573a.371.371,0,0,1,.372.372V69.519a.371.371,0,0,1-.372.372" transform="translate(16.106 11.204)" fill="#1a1a1a"/>
        <path id="Trazado_606132" data-name="Trazado 606132" d="M129.025,69.89H118.54a.371.371,0,0,1-.372-.372V59.035a.371.371,0,0,1,.372-.372h10.485a.371.371,0,0,1,.372.372V69.519a.371.371,0,0,1-.372.372m-10.113-.743h9.74V59.406h-9.74Z" transform="translate(22.569 11.204)" fill="#1a1a1a"/>
        <path id="Trazado_606133" data-name="Trazado 606133" d="M40.607,107.52H30.122a.371.371,0,0,1-.37-.373V96.663a.371.371,0,0,1,.37-.372H40.607a.372.372,0,0,1,.373.372v10.484a.372.372,0,0,1-.373.373M30.5,106.776h9.741V97.035H30.5Z" transform="translate(5.682 18.39)" fill="#1a1a1a"/>
        <path id="Trazado_606134" data-name="Trazado 606134" d="M58.349,107.52H47.865a.372.372,0,0,1-.372-.373V96.663a.372.372,0,0,1,.372-.372H58.349a.372.372,0,0,1,.373.372v10.484a.373.373,0,0,1-.373.373m-10.111-.743h9.74V97.035h-9.74Z" transform="translate(9.071 18.39)" fill="#1a1a1a"/>
        <path id="Trazado_606135" data-name="Trazado 606135" d="M75.889,107.52H65.4a.372.372,0,0,1-.372-.373V96.663a.371.371,0,0,1,.372-.372H75.889a.371.371,0,0,1,.372.372v10.484a.372.372,0,0,1-.372.373m-10.113-.743h9.741V97.035H65.776Z" transform="translate(12.42 18.39)" fill="#1a1a1a"/>
        <path id="Trazado_606136" data-name="Trazado 606136" d="M93.586,107.422H83.1a.372.372,0,0,1-.372-.373V97.175a.372.372,0,1,1,.744,0v9.5H93.586a.372.372,0,0,1,0,.743" transform="translate(15.8 18.488)" fill="#1a1a1a"/>
        <path id="Trazado_606137" data-name="Trazado 606137" d="M91.9,105.935a.373.373,0,0,1-.373-.373v-.605a.372.372,0,0,1,.744,0v.605a.372.372,0,0,1-.372.373" transform="translate(17.481 19.975)" fill="#1a1a1a"/>
        <path id="Trazado_606138" data-name="Trazado 606138" d="M40.607,126.594H30.122a.371.371,0,0,1-.37-.373V115.737a.371.371,0,0,1,.37-.372H40.607a.372.372,0,0,1,.373.372v10.484a.371.371,0,0,1-.373.373M30.5,125.85h9.741v-9.741H30.5Z" transform="translate(5.682 22.033)" fill="#1a1a1a"/>
        <path id="Trazado_606139" data-name="Trazado 606139" d="M58.349,126.594H47.865a.372.372,0,0,1-.372-.373V115.737a.372.372,0,0,1,.372-.372H58.349a.372.372,0,0,1,.373.372v10.484a.372.372,0,0,1-.373.373m-10.111-.743h9.74v-9.741h-9.74Z" transform="translate(9.071 22.033)" fill="#1a1a1a"/>
        <path id="Trazado_606140" data-name="Trazado 606140" d="M75.889,126.594H65.4a.371.371,0,0,1-.372-.373V115.737a.371.371,0,0,1,.372-.372H75.889a.371.371,0,0,1,.372.372v10.484a.371.371,0,0,1-.372.373m-10.113-.743h9.741v-9.741H65.776Z" transform="translate(12.42 22.033)" fill="#1a1a1a"/>
        <path id="Trazado_606141" data-name="Trazado 606141" d="M93.586,126.594H83.1a.371.371,0,0,1-.37-.373V115.737a.371.371,0,0,1,.37-.372H93.586a.371.371,0,0,1,.372.372v10.484a.371.371,0,0,1-.372.373m-10.113-.743h9.741v-9.741H83.473Z" transform="translate(15.8 22.033)" fill="#1a1a1a"/>
        <path id="Trazado_606142" data-name="Trazado 606142" d="M111.3,126.594H100.821a.371.371,0,0,1-.372-.373V115.737a.371.371,0,0,1,.372-.372H111.3a.371.371,0,0,1,.372.372v10.484a.371.371,0,0,1-.372.373m-10.113-.743h9.741v-9.741h-9.741Z" transform="translate(19.184 22.033)" fill="#1a1a1a"/>
        <path id="Trazado_606143" data-name="Trazado 606143" d="M40.607,88.559H30.122a.37.37,0,0,1-.37-.372V77.7a.37.37,0,0,1,.37-.372H40.607a.371.371,0,0,1,.373.372V88.188a.371.371,0,0,1-.373.372M30.5,87.816h9.741V78.075H30.5Z" transform="translate(5.682 14.769)" fill="#1a1a1a"/>
        <path id="Trazado_606144" data-name="Trazado 606144" d="M58.349,88.559H47.865a.371.371,0,0,1-.372-.372V77.7a.371.371,0,0,1,.372-.372H58.349a.372.372,0,0,1,.373.372V88.188a.372.372,0,0,1-.373.372m-10.111-.743h9.74V78.075h-9.74Z" transform="translate(9.071 14.769)" fill="#1a1a1a"/>
        <path id="Trazado_606145" data-name="Trazado 606145" d="M75.889,88.559H65.4a.371.371,0,0,1-.372-.372V77.7a.371.371,0,0,1,.372-.37h7.548a.372.372,0,1,1,0,.743H65.776v9.741h9.74V84.487a.372.372,0,0,1,.744,0v3.7a.371.371,0,0,1-.372.372" transform="translate(12.42 14.769)" fill="#1a1a1a"/>
        <path id="Trazado_606146" data-name="Trazado 606146" d="M111.227,69.469H100.741a.371.371,0,0,1-.372-.372V63.6a.372.372,0,1,1,.743,0v5.128h9.742V61.238a.372.372,0,0,1,.744,0V69.1a.371.371,0,0,1-.372.372" transform="translate(19.169 11.625)" fill="#1a1a1a"/>
        <path id="Trazado_606147" data-name="Trazado 606147" d="M100.741,62.289a.371.371,0,0,1-.372-.372V59.035a.372.372,0,0,1,.372-.373h10.247a.372.372,0,0,1,0,.744h-9.876v2.511a.371.371,0,0,1-.372.372" transform="translate(19.169 11.204)" fill="#1a1a1a"/>
        <path id="Trazado_606148" data-name="Trazado 606148" d="M111.227,88.559H100.741a.371.371,0,0,1-.372-.372V77.7a.371.371,0,0,1,.372-.372h10.487a.371.371,0,0,1,.372.372V88.188a.371.371,0,0,1-.372.372m-10.115-.743h9.742V78.075h-9.742Z" transform="translate(19.169 14.769)" fill="#1a1a1a"/>
        <path id="Trazado_606149" data-name="Trazado 606149" d="M128.764,88.559H118.28a.371.371,0,0,1-.372-.372V77.7a.371.371,0,0,1,.372-.372h10.484a.372.372,0,0,1,.373.372V88.188a.372.372,0,0,1-.373.372m-10.112-.743h9.741V78.075h-9.741Z" transform="translate(22.519 14.769)" fill="#1a1a1a"/>
        <path id="Trazado_606150" data-name="Trazado 606150" d="M129.025,69.89H118.54a.371.371,0,0,1-.372-.372V59.035a.371.371,0,0,1,.372-.372h10.485a.371.371,0,0,1,.372.372V69.519a.371.371,0,0,1-.372.372m-10.113-.743h9.74V59.406h-9.74Z" transform="translate(22.569 11.204)" fill="#1a1a1a"/>
        <path id="Trazado_606151" data-name="Trazado 606151" d="M92.35,80.82a.373.373,0,0,1-.373-.373V78.075H90.2a.372.372,0,0,1,0-.743H92.35a.37.37,0,0,1,.372.37v2.745a.372.372,0,0,1-.372.373" transform="translate(17.156 14.769)" fill="#1a1a1a"/>
        <path id="Trazado_606152" data-name="Trazado 606152" d="M135.854,87.549a.371.371,0,0,1-.372-.372V77.7a.37.37,0,0,1,.372-.37h6.475a.372.372,0,1,1,0,.743h-6.1v9.1a.372.372,0,0,1-.373.372" transform="translate(25.875 14.769)" fill="#1a1a1a"/>
        <path id="Trazado_606153" data-name="Trazado 606153" d="M113.9,57.843a.988.988,0,0,0-1.393,0l-7.594,7.595-3.056-3.057a.986.986,0,0,0-1.395,1.393l3.747,3.747a.988.988,0,0,0,1.24.125c.182-.138,8.451-8.41,8.451-8.41a.986.986,0,0,0,0-1.393" transform="translate(19.132 10.992)" fill="#33ece0"/>
        <path id="Trazado_606154" data-name="Trazado 606154" d="M104.938,68.061a1.2,1.2,0,0,1-.85-.351l-3.748-3.747a1.213,1.213,0,0,1,0-1.706,1.24,1.24,0,0,1,1.706,0l2.9,2.9,7.439-7.439a1.237,1.237,0,0,1,1.7,0,1.2,1.2,0,0,1,0,1.7l-8.27,8.271a1.441,1.441,0,0,1-.881.366m-3.746-5.716a.759.759,0,0,0-.542.223.769.769,0,0,0,0,1.084L104.4,67.4a.785.785,0,0,0,.965.1c.148-.112,8.417-8.382,8.417-8.382a.766.766,0,0,0,0-1.083.783.783,0,0,0-1.083,0L105.1,65.625a33.111,33.111,0,0,1-3.367-3.057.757.757,0,0,0-.542-.223" transform="translate(19.097 10.959)" fill="#ffce26"/>
        <path id="Trazado_606155" data-name="Trazado 606155" d="M243.475,161.488H60.513a.372.372,0,0,1,0-.743H243.475a.372.372,0,0,1,0,.743" transform="translate(11.487 30.7)" fill="#1a1a1a"/>
      </g>
    </g>
  </g>
</svg>
