<svg xmlns="http://www.w3.org/2000/svg" xmlns:xlink="http://www.w3.org/1999/xlink" width="124.001" height="124" viewBox="0 0 124.001 124">
  <defs>
    <clipPath id="clip-path">
      <rect id="Rect치ngulo_346070" data-name="Rect치ngulo 346070" width="72.667" height="72.821" fill="none"/>
    </clipPath>
  </defs>
  <g id="Grupo_1015566" data-name="Grupo 1015566" transform="translate(-5436 6645.521)">
    <g id="Grupo_1015005" data-name="Grupo 1015005" transform="translate(5051.001 -8703.521)">
      <path id="Uni칩n_12" data-name="Uni칩n 12" d="M8464.769,11817.939a62.055,62.055,0,1,1,20.7-16.051l8.516,22.111Z" transform="translate(-7991 -9642)" fill="#a3bfe4"/>
      <circle id="Elipse_4842" data-name="Elipse 4842" cx="48" cy="48" r="48" transform="translate(399 2072)" fill="#fffbe5"/>
    </g>
    <g id="Grupo_1015582" data-name="Grupo 1015582" transform="translate(5455 -6619.931)">
      <g id="Grupo_1015581" data-name="Grupo 1015581" clip-path="url(#clip-path)">
        <path id="Trazado_606342" data-name="Trazado 606342" d="M9.653,46.108a14.34,14.34,0,0,1-2.074-.236,9.646,9.646,0,0,1-7.17-6.816,9.879,9.879,0,0,1-.393-3.271,9.5,9.5,0,0,1,.468-2.326,10.352,10.352,0,0,1,2.062-3.6A8.478,8.478,0,0,1,4.3,28.366a9.438,9.438,0,0,1,3.9-1.52,16.129,16.129,0,0,1,2.42-.169q2.856,0,5.712.024a3.042,3.042,0,0,0,1.172-.329c2.4-.982,4.79-1.99,7.181-2.993q2.555-1.072,5.107-2.151c.527-.221.522-.218.524-.791a9.353,9.353,0,0,1,.073-1.9,4.718,4.718,0,0,1,1.766-2.946,4.644,4.644,0,0,1,4.4-.8,4.807,4.807,0,0,1,3.27,3.6,6.042,6.042,0,0,1,.151,1.641q.006,7.472.011,14.944c-.008.067-.06.146.05.18,1.157.051,2.314.03,3.471.015.042.006.07,0,.065-.055.009-.248.025-.5.026-.743q.007-10.016.015-20.033a7.227,7.227,0,0,1,.106-1.905,3.7,3.7,0,0,1,2.865-2.662,25.446,25.446,0,0,1,4.028-.091c.2,0,.31.008.361-.276a11.09,11.09,0,0,1,5.411-7.98A10.1,10.1,0,0,1,60.1.115,11.193,11.193,0,0,1,62.975.073a10.607,10.607,0,0,1,7.442,4.213,10.2,10.2,0,0,1,1.989,4.4,10.671,10.671,0,0,1,.261,2.253,10.946,10.946,0,0,1-8.545,10.6,9.631,9.631,0,0,1-3.211.255,10.735,10.735,0,0,1-8.468-5.335,11.3,11.3,0,0,1-1.466-4.143c-.028-.181-.1-.21-.247-.209-1.147.009-2.294,0-3.441.025a1.214,1.214,0,0,0-1.236,1.22c-.053.652-.024,1.3-.024,1.956q0,9.465.009,18.93c0,.294.026.588.04.882,0,.044.018.059.059.051l4.753,0c.042.006.06-.013.056-.054a11.286,11.286,0,0,1,3.264-6.521,10.813,10.813,0,0,1,6.059-3,9.631,9.631,0,0,1,2.843-.017,10.822,10.822,0,0,1,6.944,3.762,10.656,10.656,0,0,1,1.926,3.345,11.4,11.4,0,0,1,.637,3.141,10.339,10.339,0,0,1-.449,3.737,10.711,10.711,0,0,1-4.349,5.895,10.013,10.013,0,0,1-1.866,1.017,10.548,10.548,0,0,1-5.379.8,10.892,10.892,0,0,1-7-3.729,11.489,11.489,0,0,1-2.245-4.069,12.235,12.235,0,0,1-.352-1.681c-.028-.162-.089-.188-.228-.187q-2.253.008-4.506.008c-.153,0-.226.029-.226.22q.012,10.533.013,21.067a2.19,2.19,0,0,0,.313,1.39,1.029,1.029,0,0,0,.878.4c1.146.019,2.293.008,3.439.022.2,0,.263-.027.314-.249a15.512,15.512,0,0,1,.547-2.2A12.287,12.287,0,0,1,53.7,54.608a10.511,10.511,0,0,1,3.739-2.695,10.831,10.831,0,0,1,3.834-.886,10.607,10.607,0,0,1,3.226.33,10.171,10.171,0,0,1,4.544,2.455,10.833,10.833,0,0,1,2.9,4.272,9.813,9.813,0,0,1,.632,2.332,12.242,12.242,0,0,1-.157,3.606A11.577,11.577,0,0,1,70.342,68.6a9.441,9.441,0,0,1-2.256,2.144c-.31.215-.639.4-.945.619-.053-.023-.064.007-.065.051L67,71.445c-.052-.034-.062.01-.077.042a6.155,6.155,0,0,1-2.144.893,12.407,12.407,0,0,1-2.22.409,10.547,10.547,0,0,1-6.127-1.4,10.846,10.846,0,0,1-5.042-6.263c-.193-.582-.263-1.188-.412-1.777-.046-.181-.088-.235-.26-.232-1.075.018-2.151.057-3.225.035a3.764,3.764,0,0,1-3.818-3.032,7.215,7.215,0,0,1-.077-1.687q.013-10.249.007-20.5c0-.249-.052-.329-.309-.325q-1.49.02-2.98,0c-.258,0-.34.057-.34.335.008,4.946,0,9.893.007,14.839a6.459,6.459,0,0,1-.177,1.707,4.839,4.839,0,0,1-.979,1.994,5.321,5.321,0,0,1-1.728,1.33,4.5,4.5,0,0,1-2.986.338,4.894,4.894,0,0,1-3.38-2.782,5.559,5.559,0,0,1-.411-2.848.9.9,0,0,0-.706-1.067c-1.288-.484-2.544-1.053-3.814-1.585q-2.127-.89-4.255-1.775-1.481-.618-2.963-1.235c-.118-.049-.246-.073-.408-.12v.349c0,1.91,0,3.82,0,5.729a6.139,6.139,0,0,1-.321,2.127,4.661,4.661,0,0,1-3.311,3.121,4.6,4.6,0,0,1-4.088-.794,4.915,4.915,0,0,1-1.907-3.087,12.383,12.383,0,0,1-.073-2.124c0-.028,0-.056,0-.084a1.213,1.213,0,0,0,0-.486.237.237,0,0,0,0-.226c.01-.423.022-.847.029-1.27a1.266,1.266,0,0,1,1.15-1.438,1.21,1.21,0,0,1,1.219,1.292c.019.937,0,1.874.021,2.811a4.064,4.064,0,0,0,.316,1.858,2.238,2.238,0,0,0,2.834,1.157,2.392,2.392,0,0,0,1.7-2.509c.031-2.122.013-4.245.016-6.368,0-.7,0-.7-.681-.7l-5.425.009M30.259,23.621c-.4.17-.716.3-1.031.435Q23.854,26.3,18.479,28.543c-.21.087-.312.158-.312.413q.015,7.383,0,14.767a.445.445,0,0,0,.312.481c1.408.578,2.817,1.155,4.219,1.749,2.14.908,4.307,1.752,6.424,2.713.372.169.748.329,1.136.5Zm2.467,12.628h-.015q0,2.046,0,4.091c0,4.352,0,8.7.021,13.056a2.32,2.32,0,0,0,1.335,2.148,2.092,2.092,0,0,0,2.355-.171A2.319,2.319,0,0,0,37.5,53.445c0-.332,0-.664,0-1q0-16.382.008-32.764a3.517,3.517,0,0,0-.078-.838,2.3,2.3,0,0,0-3.173-1.664,2.242,2.242,0,0,0-1.529,2.239q-.01,8.414,0,16.827M15.759,36.4h0q0-3.469,0-6.938c0-.208.009-.368-.281-.366-2.128.019-4.258-.094-6.383.044a7.068,7.068,0,0,0-6.545,6.181,7,7,0,0,0,1.141,5.111A6.791,6.791,0,0,0,9.02,43.653c2.158.159,4.326.031,6.489.041.282,0,.251-.176.25-.358q0-3.469,0-6.938m54.5.559c-.007-3.994-1.9-6.967-5-8.339a8.262,8.262,0,0,0-7.482.255,7.942,7.942,0,0,0-3.8,4.205,8.911,8.911,0,0,0-.645,4.243A8.357,8.357,0,0,0,56.183,42.8c.365.331.355.333.622-.06a5.953,5.953,0,0,1,7.154-2.256,6.023,6.023,0,0,1,2.852,2.358c.1.148.157.347.413.12a8.349,8.349,0,0,0,3.033-6m0-26.128a7.848,7.848,0,0,0-.266-2.111,8.408,8.408,0,0,0-9.549-6.245,8.02,8.02,0,0,0-6.47,5.14,8.557,8.557,0,0,0-.646,4.174,8.36,8.36,0,0,0,2.918,5.556c.261.229.365.205.545-.083a5.992,5.992,0,0,1,6.19-2.584,5.9,5.9,0,0,1,3.788,2.6c.174.265.29.294.538.072a8.443,8.443,0,0,0,2.952-6.52M61.738,53.4a8.377,8.377,0,0,0-5.056,1.676A8.532,8.532,0,0,0,53.5,63.8a7.906,7.906,0,0,0,2.605,4.422c.452.42.441.433.786-.088a5.946,5.946,0,0,1,9.862.14c.148.222.274.36.547.111A8.517,8.517,0,0,0,61.738,53.4m-.182-10.879a3.038,3.038,0,0,0-2.715,1.408c-.282.351-.294.363.14.5a8.422,8.422,0,0,0,3.23.447,9.793,9.793,0,0,0,2.353-.43c.391-.128.412-.169.166-.489a3.549,3.549,0,0,0-3.174-1.438M58.581,69.758a.984.984,0,0,0,.227.149,11.455,11.455,0,0,0,2.31.5,7.953,7.953,0,0,0,3.37-.419c.4-.14.427-.236.135-.57a3.666,3.666,0,0,0-3.279-1.355,3.487,3.487,0,0,0-1.615.536,5.431,5.431,0,0,0-1.147,1.163M61.822,19.4a9.4,9.4,0,0,0,2.84-.512c.22-.076.212-.15.1-.321A3.837,3.837,0,0,0,60.78,17.1a3.7,3.7,0,0,0-2.043,1.48c-.146.2-.079.241.1.3a9.875,9.875,0,0,0,2.988.522" transform="translate(-0.001 0)" fill="#040405"/>
        <path id="Trazado_606343" data-name="Trazado 606343" d="M33.9,161.9l5.425-.009c.683,0,.682,0,.681.7,0,2.123.015,4.246-.016,6.368a2.392,2.392,0,0,1-1.7,2.509,2.238,2.238,0,0,1-2.834-1.157,4.064,4.064,0,0,1-.316-1.858c-.022-.937,0-1.874-.021-2.811a1.21,1.21,0,0,0-1.219-1.292c.137-.252,0-.5,0-.757,0-.564,0-1.129-.006-1.694" transform="translate(-24.245 -115.793)" fill="#ced4dc"/>
        <path id="Trazado_606344" data-name="Trazado 606344" d="M29.485,180.04a.237.237,0,0,1,0,.226q-.224-.113,0-.226" transform="translate(-21.008 -128.773)" fill="#ced4dc"/>
        <path id="Trazado_606345" data-name="Trazado 606345" d="M140.43,123c-.11-.034-.058-.113-.05-.18a.193.193,0,0,1,.05.18" transform="translate(-100.393 -87.85)" fill="#ced4dc"/>
        <path id="Trazado_606346" data-name="Trazado 606346" d="M29.58,182.539v.084l-.073-.042.073-.042" transform="translate(-21.105 -130.561)" fill="#ced4dc"/>
        <path id="Trazado_606347" data-name="Trazado 606347" d="M161.872,123.367c-.041.008-.063-.007-.059-.051l.059.051" transform="translate(-115.737 -88.202)" fill="#ced4dc"/>
        <path id="Trazado_606348" data-name="Trazado 606348" d="M178.77,123.315c0,.042-.014.06-.056.054l.056-.054" transform="translate(-127.825 -88.201)" fill="#ced4dc"/>
        <path id="Trazado_606349" data-name="Trazado 606349" d="M152.859,123.317c.005.05-.023.061-.065.054l.065-.054" transform="translate(-109.286 -88.202)" fill="#ced4dc"/>
        <path id="Trazado_606350" data-name="Trazado 606350" d="M235.557,250.657c0-.044.012-.074.065-.051l-.065.051" transform="translate(-168.482 -179.24)" fill="#ebeef0"/>
        <path id="Trazado_606351" data-name="Trazado 606351" d="M235.013,250.915c.015-.033.025-.076.077-.042l-.077.042" transform="translate(-168.093 -179.427)" fill="#ebeef0"/>
        <path id="Trazado_606352" data-name="Trazado 606352" d="M75.889,82.954V108.5c-.388-.17-.763-.331-1.136-.5-2.118-.961-4.285-1.8-6.425-2.713-1.4-.595-2.81-1.171-4.218-1.749a.444.444,0,0,1-.312-.481q.012-7.383,0-14.767c0-.256.1-.327.312-.414q5.379-2.233,10.749-4.486c.315-.132.629-.265,1.031-.435" transform="translate(-45.631 -59.333)" fill="#ced4dc"/>
        <path id="Trazado_606353" data-name="Trazado 606353" d="M114.885,78.965q0-8.413,0-16.827a2.242,2.242,0,0,1,1.529-2.239,2.3,2.3,0,0,1,3.173,1.664,3.532,3.532,0,0,1,.078.838q0,16.382-.008,32.764c0,.332.009.664,0,1a2.318,2.318,0,0,1-1.083,1.927,2.093,2.093,0,0,1-2.355.172,2.321,2.321,0,0,1-1.335-2.148c-.017-4.352-.016-8.7-.021-13.056q0-2.046,0-4.091h.015" transform="translate(-82.161 -42.716)" fill="#faa758"/>
        <path id="Trazado_606354" data-name="Trazado 606354" d="M21.933,109.415q0,3.469,0,6.938c0,.182.032.359-.25.358-2.164-.01-4.331.117-6.489-.041a6.791,6.791,0,0,1-5.328-3.222,7,7,0,0,1-1.141-5.111,7.068,7.068,0,0,1,6.545-6.181c2.124-.138,4.255-.025,6.383-.044.29,0,.281.158.281.366q-.006,3.469,0,6.938Z" transform="translate(-6.175 -73.016)" fill="#faa758"/>
        <path id="Trazado_606355" data-name="Trazado 606355" d="M204.105,106.9a8.348,8.348,0,0,1-3.033,6c-.256.226-.317.028-.413-.12a6.025,6.025,0,0,0-2.852-2.358,5.953,5.953,0,0,0-7.154,2.256c-.267.393-.257.391-.622.06a8.357,8.357,0,0,1-2.852-5.477,8.908,8.908,0,0,1,.645-4.243,7.943,7.943,0,0,1,3.8-4.205,8.263,8.263,0,0,1,7.483-.255c3.1,1.372,4.995,4.345,5,8.339m-4.89-3a3.6,3.6,0,0,0-7.205-.009,3.6,3.6,0,1,0,7.205.009" transform="translate(-133.849 -69.942)" fill="#209fd2"/>
        <path id="Trazado_606356" data-name="Trazado 606356" d="M204.1,16.75a8.444,8.444,0,0,1-2.952,6.521c-.248.221-.364.192-.538-.072a5.9,5.9,0,0,0-3.788-2.6,5.992,5.992,0,0,0-6.19,2.584c-.18.288-.284.312-.545.083a8.36,8.36,0,0,1-2.918-5.556,8.557,8.557,0,0,1,.646-4.174,8.02,8.02,0,0,1,6.47-5.14,8.409,8.409,0,0,1,9.549,6.246,7.847,7.847,0,0,1,.266,2.11m-8.465-5.977a3.6,3.6,0,1,0,3.572,3.669,3.579,3.579,0,0,0-3.572-3.669" transform="translate(-133.84 -5.92)" fill="#209fd2"/>
        <path id="Trazado_606357" data-name="Trazado 606357" d="M195.672,187.523a8.517,8.517,0,0,1,5.562,14.978c-.273.248-.4.111-.547-.111a5.946,5.946,0,0,0-9.862-.14c-.346.521-.334.509-.786.089a7.906,7.906,0,0,1-2.605-4.422,8.532,8.532,0,0,1,3.182-8.717,8.38,8.38,0,0,1,5.056-1.676m3.628,6.089a3.6,3.6,0,0,0-7.208-.042,3.6,3.6,0,1,0,7.208.042" transform="translate(-133.934 -134.12)" fill="#209fd2"/>
        <path id="Trazado_606358" data-name="Trazado 606358" d="M208.849,149.323a3.55,3.55,0,0,1,3.174,1.438c.246.32.225.362-.166.489a9.78,9.78,0,0,1-2.353.43,8.414,8.414,0,0,1-3.23-.447c-.434-.14-.422-.151-.14-.5a3.041,3.041,0,0,1,2.715-1.408" transform="translate(-147.293 -106.799)" fill="#ebeef0"/>
        <path id="Trazado_606359" data-name="Trazado 606359" d="M205.725,240.66a5.434,5.434,0,0,1,1.147-1.163,3.487,3.487,0,0,1,1.615-.536,3.667,3.667,0,0,1,3.279,1.355c.292.334.27.43-.135.57a7.957,7.957,0,0,1-3.37.419,11.461,11.461,0,0,1-2.31-.5.985.985,0,0,1-.227-.149" transform="translate(-147.144 -170.901)" fill="#ebeef0"/>
        <path id="Trazado_606360" data-name="Trazado 606360" d="M209.158,62.052a9.875,9.875,0,0,1-2.988-.522c-.175-.058-.242-.1-.1-.3a3.7,3.7,0,0,1,2.043-1.48,3.837,3.837,0,0,1,3.977,1.468c.116.171.124.245-.1.321a9.4,9.4,0,0,1-2.84.512" transform="translate(-147.336 -42.656)" fill="#ebeef0"/>
        <path id="Trazado_606361" data-name="Trazado 606361" d="M211.455,110.2a3.6,3.6,0,1,1-3.608-3.608,3.592,3.592,0,0,1,3.608,3.608m-4.764-.064a1.266,1.266,0,0,0,1.149,1.292,1.237,1.237,0,0,0,1.208-1.189,1.117,1.117,0,0,0-1.257-1.206,1.014,1.014,0,0,0-1.1,1.1" transform="translate(-146.089 -76.238)" fill="#2a2a2a"/>
        <path id="Trazado_606362" data-name="Trazado 606362" d="M207.881,17.043a3.6,3.6,0,1,1-3.633,3.594,3.577,3.577,0,0,1,3.633-3.594m-.058,4.781a1.183,1.183,0,0,0,1.222-1.158,1.213,1.213,0,0,0-1.2-1.194,1.17,1.17,0,0,0-1.154,1.19,1.185,1.185,0,0,0,1.134,1.162" transform="translate(-146.088 -12.19)" fill="#2a2a2a"/>
        <path id="Trazado_606363" data-name="Trazado 606363" d="M211.447,199.917a3.6,3.6,0,1,1-7.209-.042,3.6,3.6,0,0,1,7.209.042m-3.649,1.171a1.208,1.208,0,0,0,1.24-1.143,1.175,1.175,0,0,0-1.163-1.2,1.161,1.161,0,0,0-1.191,1.135,1.209,1.209,0,0,0,1.114,1.211" transform="translate(-146.081 -140.425)" fill="#2a2a2a"/>
        <path id="Trazado_606364" data-name="Trazado 606364" d="M212.823,116.263a1.014,1.014,0,0,1,1.1-1.1,1.117,1.117,0,0,1,1.257,1.206,1.237,1.237,0,0,1-1.208,1.189,1.266,1.266,0,0,1-1.149-1.292" transform="translate(-152.221 -82.367)" fill="#ebeef0"/>
        <path id="Trazado_606365" data-name="Trazado 606365" d="M213.959,27.925a1.185,1.185,0,0,1-1.134-1.162,1.17,1.17,0,0,1,1.154-1.19,1.213,1.213,0,0,1,1.2,1.194,1.183,1.183,0,0,1-1.222,1.158" transform="translate(-152.223 -18.291)" fill="#ebeef0"/>
        <path id="Trazado_606366" data-name="Trazado 606366" d="M213.938,207.141a1.209,1.209,0,0,1-1.114-1.211,1.161,1.161,0,0,1,1.191-1.135,1.175,1.175,0,0,1,1.163,1.2,1.208,1.208,0,0,1-1.24,1.143" transform="translate(-152.222 -146.479)" fill="#ebeef0"/>
      </g>
    </g>
  </g>
</svg>
