<svg xmlns="http://www.w3.org/2000/svg" xmlns:xlink="http://www.w3.org/1999/xlink" width="269" height="158.616" viewBox="0 0 269 158.616">
  <defs>
    <clipPath id="clip-path">
      <rect id="Rectángulo_377369" data-name="Rectángulo 377369" width="239.188" height="138.116" fill="none"/>
    </clipPath>
  </defs>
  <g id="Grupo_1071482" data-name="Grupo 1071482" transform="translate(-495 -1465.384)">
    <rect id="Rectángulo_45724" data-name="Rectángulo 45724" width="269" height="41" rx="20.5" transform="translate(495 1583)" fill="#a3bfe4"/>
    <g id="Grupo_1071483" data-name="Grupo 1071483" transform="translate(509.906 1465.384)">
      <g id="Grupo_1071483-2" data-name="Grupo 1071483" clip-path="url(#clip-path)">
        <path id="Trazado_608441" data-name="Trazado 608441" d="M80.229,82.85H29.483A4.987,4.987,0,0,1,24.5,77.863V27.116a4.988,4.988,0,0,1,4.988-4.988H80.229a4.988,4.988,0,0,1,4.988,4.988V77.863a4.987,4.987,0,0,1-4.988,4.987" fill="#fff"/>
        <path id="Trazado_608442" data-name="Trazado 608442" d="M199.932,40.06A33.715,33.715,0,1,1,166.217,6.346,33.714,33.714,0,0,1,199.932,40.06" fill="#33ece0"/>
        <path id="Trazado_608443" data-name="Trazado 608443" d="M71.259,82.92H29.586s-6.775.774-6.829.794,2.482-22.03,2.482-22.03l.408-1.281,6.671-6.557a8.889,8.889,0,0,1,5.212-2.031c3.422-.288,6.467,1.79,9.107,3.363S53.048,60.331,58.65,59.7s7.24-3.17,12.342-3.2S85.2,62.337,85.2,62.337V78.466s-.6,3.88-4.229,4.384a60.627,60.627,0,0,1-9.714.07" fill="#fff198"/>
        <path id="Trazado_608444" data-name="Trazado 608444" d="M163.254,104.157s4.09-7.11,14.952-7.676l13.293.087s8.919.843,11.528,6.063,6.23,13.245,7.6,17.909,2.66,12.627-.327,17.2h-56.08a12.766,12.766,0,0,1-5.373-6.882,51.211,51.211,0,0,1-2.393-8.887Z" fill="#33ece0"/>
        <path id="Trazado_608445" data-name="Trazado 608445" d="M28.569,82.751,26.162,80.8V79.18a3.134,3.134,0,0,0,3.091-1.963,7.855,7.855,0,0,0,0-5.028,1.511,1.511,0,0,0,.855.111c.579-.052.494-.879.494-.879l-1.349-4.682s-.845-.622-1.376.04l-.3-.871A8.8,8.8,0,0,1,25.385,69c-1.224.847-2.415,1.664-2.446,2.087a2.513,2.513,0,0,0-3.066,2.542s.386,2.265,1.934,2.028l1.547-.236a9.041,9.041,0,0,1,1.983,1.847,4.41,4.41,0,0,1,.254,4.459c-.973,1.549-1.282,1.983-1.282,1.983a7.854,7.854,0,0,1,4.26-.963" fill="#fff"/>
        <path id="Trazado_608446" data-name="Trazado 608446" d="M49.381,74.975l.117-1.356s-1.769-2.7-1.382-4.82,1.973-3.574,3.665-3.24c.275.089-.324,2.218-.324,2.218a3.9,3.9,0,0,0,1.646.52l1.068-3.137a25.088,25.088,0,0,1,4.315,2.459c.907.882,1.02,2.281.285,4.4a18.016,18.016,0,0,0-.893,3.626s-6.809-1.167-8.5-.675" fill="#fff"/>
        <path id="Trazado_608447" data-name="Trazado 608447" d="M84.506,84.928l-.241-4.1s-1.593,1.813-2.658,1.914-1.37.162-2.125-.745a15.54,15.54,0,0,1-2.354-4c-.74-1.787-1.577-3.453-2.5-3.029a1.692,1.692,0,0,0-.9,1.509s-.843-.439-1.29-.116a2.672,2.672,0,0,0-.635,1.353,1.354,1.354,0,0,0-1.3.953c-.248.96.558,4.159,2.023,6.709s2.332,3.811,2.332,3.811.745-2.4,4.3-3.371a16.264,16.264,0,0,1,5.344-.784Z" fill="#fff"/>
        <path id="Trazado_608448" data-name="Trazado 608448" d="M114.607,75.832s2.766.987,3.5-.921-.334-3.235-1.361-3.35a5.368,5.368,0,0,0-2.269.423A13.843,13.843,0,0,1,110.223,69c-1.649-1.862-1.677-2.805-1.677-2.805l-.718,5.791-2.37,1.037s.692,1.874,1.384,2.037c0,0-1.05,3.235,1.359,4.318s2.422.938,2.422.938l-.18,2.036,4.113-.951a5.669,5.669,0,0,1,.051-5.567" fill="#fff"/>
        <path id="Trazado_608449" data-name="Trazado 608449" d="M190.889,121.273s-3.585-4.678-4.767-5.914-4.227-1.976-4.227-1.976l-2.509,2.714-1.819.572,2.506,7.5,2.626-.432,2.226,3.1s5.353-3.578,5.964-5.562" fill="#fff"/>
        <path id="Trazado_608450" data-name="Trazado 608450" d="M177.051,115.166l1.646-1.954a13.839,13.839,0,0,0-2.133.535c.038.11.487,1.3.487,1.3Z" fill="#fff"/>
        <path id="Trazado_608451" data-name="Trazado 608451" d="M188.568,93.85l-.319-6.42s2.98.8,3.678-1.6a2.47,2.47,0,0,0-2.782-3.211,4.606,4.606,0,0,0-2.121,1.26,7.564,7.564,0,0,1-.391-4.685,17.154,17.154,0,0,1-5.429.437c-2.4-.325-3.9-.6-3.9-.6l-.08,9.887s.069,2.917,2.7,3.226l.107,1.931-1.622,2.4.114,9.254-.445,7.477h.618l3.321-3.941,1.631,1.373-1.658,2.568,1.158.342,2.312-6.545.588.324,4.975-10.852Z" fill="#fff"/>
        <path id="Trazado_608452" data-name="Trazado 608452" d="M40.642,41.553s1.559-3.456,5.579,0,3.411,5.387,7.436,5.046,5.249-3.872,9.172-2.568,3.434,1.793,4.846,4.671,3.4,1.428,3.4,1.428,3.623,4.119,5.461,3a3.1,3.1,0,0,1-3.049,1.524c-1.972-.359-31.135-9.249-31.135-9.249a3.832,3.832,0,0,1-1.71-3.854" fill="#fff198"/>
        <path id="Trazado_608453" data-name="Trazado 608453" d="M114.556,81.4s-8.185,1.145-10.21,5.179-2.148,3.506-3.17,8.1-1.416,7.191-4.152,6.855S93.1,98.5,92.449,97.052,87,85.856,87,85.856a10.616,10.616,0,0,0-7.223-.195,8.921,8.921,0,0,0-5.3,4.188s2.813,8.46,4.374,12.077,6.713,13.351,15.666,14.906l4.4-.232s-.86,6.149-1.345,10.105-2.2,11.054-2.2,11.054l33.077.141-.728-7.042s-.748-9.509-.543-14.317.153-16.447.153-16.447l8.145,6.507s-2.6-7.217-3.849-9.243l-11.243-13.9s-4.168.326-5.832-2.064" fill="#1a1a1a"/>
        <path id="Trazado_608454" data-name="Trazado 608454" d="M114.615,75.677s-1.56,3.061-.257,5.532,5.676,2.255,5.676,2.255.407-3.138,4.616-3.945c0,0,1.238-6.8,1.352-9.984s.135-5.17-1.456-6.157-4.439-2.4-7.436-1.736c0,0-4.662-1.268-6.668-.694a5.473,5.473,0,0,0-2.479,1.135s-1.674,4.6-.071,6.907l.72-2.65s2.529,4.857,5.591,5.451l.546.088a2.258,2.258,0,0,1,3.492,1.1s.226,3.381-1.978,3.1Z" fill="#fff198"/>
        <path id="Trazado_608455" data-name="Trazado 608455" d="M121.762,84.884a8.038,8.038,0,0,1,.592,3.75c-.325,2.963-2.7,4.362-1.424,6.589s3.665,4.59,7.766,3.368,4.826-3.166,5.306-5.67a8.82,8.82,0,0,0-2.613-7.335c-1.85-1.851-4.984-4.8-4.984-4.8s-4.137,2.826-4.643,4.094" fill="#fff198"/>
        <path id="Trazado_608456" data-name="Trazado 608456" d="M111.806,80.368l-1.183,1.4V80.189Z" fill="#ccc"/>
        <path id="Trazado_608457" data-name="Trazado 608457" d="M120.034,83.463l1.657,1.372a13.217,13.217,0,0,1,2.448-2.422c1.014-.606,2.358-1.448,2.358-1.448l-2.009-1.395s-4.372.716-4.454,3.893" fill="#fff"/>
        <path id="Trazado_608458" data-name="Trazado 608458" d="M127.335,100.094,142.249,112.4s.946,1.281.178,2.294-12.854,15.688-12.854,15.688a2.8,2.8,0,0,1-1.607.462,100.446,100.446,0,0,1-.844-13.925c.165-4.628.213-16.826.213-16.826" fill="#fff"/>
        <path id="Trazado_608459" data-name="Trazado 608459" d="M47.77,75.141s7.033-.851,11.636,1.183c0,0-.226,12.174-1.437,18.2s-3.023,13.8-9.745,14.146-9.972-1.393-9.972-1.393l3.335,30.478H8.781s1.936-12.389,2.087-16.505a76.793,76.793,0,0,0-.727-13.273c-.728-6.369-1.247-11.365-.289-15.769s2.505-6.292,2.505-6.292a25.656,25.656,0,0,0,6.72-.087c3.361-.55,4.664-1.71,4.664-1.71a4.664,4.664,0,0,1,1.834-.9,6.906,6.906,0,0,1,4.012-.376c1.772.437,5.581,2.8,8.962,5.244s5.873,4.118,5.873,4.118Z" fill="#1a1a1a"/>
        <path id="Trazado_608460" data-name="Trazado 608460" d="M148.248,113.485l-3.188-9.035,28.257-.021,9.777,28.279-28.57.076Z" fill="#fff"/>
        <path id="Trazado_608461" data-name="Trazado 608461" d="M177.051,115.166l4.1-4.874,1.937,1.4-3.591,4.57-1.791.222Z" fill="#1a1a1a"/>
        <path id="Trazado_608462" data-name="Trazado 608462" d="M179.587,104.258l.33,2.968-1.731,3.257-.1,2.537s.53.153.621.058,3.306-3.808,3.306-3.808l.941.618-.594-2.556,1.94-2.457-2.314-3.95Z" fill="#1a1a1a"/>
        <path id="Trazado_608463" data-name="Trazado 608463" d="M177.143,81.316s-2.462-1.193-2.574-3.392a4.921,4.921,0,0,1,4.23-5.4c3.207-.45,5.856-.92,9.611,1.709,0,0,3.339-.022,4.076,2.62s-1.611,6.112-1.611,6.112a3.21,3.21,0,0,0-1.729-.485,4.022,4.022,0,0,0-2.241,1.4,7.851,7.851,0,0,1-.172-4.573,15.2,15.2,0,0,1-5.7.435c-2.878-.408-3.762-.547-3.762-.547Z" fill="#1a1a1a"/>
        <path id="Trazado_608464" data-name="Trazado 608464" d="M184.316,87.116a2.217,2.217,0,0,0-.992,2.444,1.132,1.132,0,0,1-1.235.53c-.789-.231-1.562-.611-1.346-1.195s.857-.574,1.346-.6.638.1.759-.377.013-1.329.748-1.323.72.521.72.521" fill="#1a1a1a"/>
        <path id="Trazado_608465" data-name="Trazado 608465" d="M182.7,102.142l-1.833,2.531v2.75l-2.281,5.4H178.1l-.019-1.986,1.838-3.609-.33-2.968,2.4-3.333Z" fill="#fff"/>
        <path id="Trazado_608466" data-name="Trazado 608466" d="M182.555,127.666s3.416,7.538,7.6,10.075l4.195.16s-9.725-7.735-11.794-10.235" fill="#1a1a1a"/>
        <path id="Trazado_608467" data-name="Trazado 608467" d="M181.3,110.126l1.626,1.445.92-.978-1.825-1.323Z" fill="#fff"/>
        <path id="Trazado_608468" data-name="Trazado 608468" d="M140.5,44.1l3.764-1.04c.681-.188,1.364-.37,2.043-.564a.37.37,0,0,1,.468.157,43.478,43.478,0,0,0,8.135,8.189,3.453,3.453,0,0,0,3.157.655,10.794,10.794,0,0,0,3.224-1.473,40.961,40.961,0,0,0,6.71-5.564A123.52,123.52,0,0,0,178.54,32.507a.527.527,0,0,1,.664-.224c2.038.584,4.084,1.141,6.127,1.708A114.648,114.648,0,0,1,172.2,53.679a48.041,48.041,0,0,1-8.427,8.3,25.873,25.873,0,0,1-3.272,2,8.123,8.123,0,0,1-7.478.1,15.781,15.781,0,0,1-6.027-5.022,34.133,34.133,0,0,1-5.1-10.185c-.512-1.555-.918-3.144-1.389-4.776" fill="#fff"/>
        <path id="Trazado_608469" data-name="Trazado 608469" d="M23.49,75.4s2.547,1.927,2.672,3.259a5.7,5.7,0,0,1-2.2,5.3,12.863,12.863,0,0,1-7.072,2.065c-2.607.108-6.96-.017-7.54-1.829s-.743-3.481.262-4.357A7.77,7.77,0,0,0,11.46,74.2c-.136-2.335-1.549-5.158-.666-8.405s2.421-4.745,4.368-4.979a12.3,12.3,0,0,1,5.377.29l.492-.033a5.927,5.927,0,0,1,5.16-.264s2.378,2.229,1.319,4.837-1.9,3.367-2.771,3.938a16.5,16.5,0,0,0-1.767,1.39s-3.024-.316-3.1,2.215A2.412,2.412,0,0,0,23.49,75.4" fill="#fff198"/>
        <path id="Trazado_608470" data-name="Trazado 608470" d="M27.51,65.649c1.059-2.607-1.319-4.837-1.319-4.837a5.868,5.868,0,0,0-4.152-.173,3.293,3.293,0,0,1,3.608,3.023c.478,3.453-2.4,6.948-2.4,6.948.535-.324,1.017-.71,1.5-1.023.869-.571,1.711-1.332,2.77-3.938" fill="#fff"/>
        <path id="Trazado_608471" data-name="Trazado 608471" d="M26.162,78.657c-.118-1.253-2.381-3.034-2.645-3.238a2.8,2.8,0,0,1-1.078.277c-.006,0,4.718,4.257,1,8.584.176-.106.352-.21.525-.328a5.7,5.7,0,0,0,2.2-5.3" fill="#fff"/>
        <path id="Trazado_608472" data-name="Trazado 608472" d="M24.119,96.843s9.408,12.79,14.39,15.321l-.256-4.883s-11.5-6.943-14.134-10.438" fill="#1a1a1a"/>
        <path id="Trazado_608473" data-name="Trazado 608473" d="M82.691,34.636a5.209,5.209,0,1,1-5.209-5.208,5.209,5.209,0,0,1,5.209,5.208" fill="#1a1a1a"/>
        <path id="Trazado_608474" data-name="Trazado 608474" d="M155.262,106.761l-1.992-5.808h8.815l1.991,5.808-9.3.112Z" fill="#1a1a1a"/>
        <path id="Trazado_608475" data-name="Trazado 608475" d="M147.213,110.9l1.139,2.85a13.689,13.689,0,0,0,3.261.153c1.728-.139,3.491-.274,3.649,1.432s-.537,1.588-.537,1.588,1.242.589,1.131,1.7-.594,1.384-.594,1.384a1.487,1.487,0,0,1,1.013,1.252c.163,1.039-1.43,2.75-4.4,2.58s-4.642-.24-5.224-1.459a11.486,11.486,0,0,1-1.568-4.983c-.111-2.349-.5-3.57,2.128-6.494" fill="#fff"/>
        <path id="Trazado_608476" data-name="Trazado 608476" d="M177.051,75.914c.163-1.821,1.961-3.082,2.681-3.518l-.934.13a4.923,4.923,0,0,0-4.23,5.4c.112,2.2,2.574,3.393,2.574,3.393l.124-2.119s.884.139,3.763.546a12.034,12.034,0,0,0,2,.105c-.04-.01-6.185-1.66-5.981-3.934" fill="#fff"/>
        <path id="Trazado_608477" data-name="Trazado 608477" d="M108.613,66.341s2.529,4.856,5.59,5.449c-.931-.88-5.166-4.867-4.727-7.811.5-3.332,7.815-2.241,7.815-2.241-.18-.1-4.843-1.364-6.848-.79a5.482,5.482,0,0,0-2.479,1.134s-1.675,4.6-.071,6.908Z" fill="#fff"/>
        <path id="Trazado_608478" data-name="Trazado 608478" d="M117.517,83.165c-4.112-.937-2.116-7.047-2.116-7.047-.068-.263-.786-.44-.786-.44s-1.561,3.061-.257,5.532c.715,1.355,2.352,1.9,3.685,2.119a3.443,3.443,0,0,0-.526-.164" fill="#fff"/>
        <rect id="Rectángulo_377367" data-name="Rectángulo 377367" width="9.532" height="9.531" transform="translate(92.38 56.033)" fill="#1a1a1a"/>
        <path id="Trazado_608479" data-name="Trazado 608479" d="M89.7,114.9a7.69,7.69,0,0,1,6.793-3.626,7.838,7.838,0,0,1,6.793,3.815,12.761,12.761,0,0,1-6.607,1.631A14.666,14.666,0,0,1,89.7,114.9" fill="#33ece0"/>
        <path id="Trazado_608480" data-name="Trazado 608480" d="M43.7,108.58s.55-4.941,4.413-6.5a11.168,11.168,0,0,1,7.671,0,6.979,6.979,0,0,1-4.243,5.5,19.7,19.7,0,0,1-7.841,1" fill="#33ece0"/>
        <path id="Trazado_608481" data-name="Trazado 608481" d="M68,53.265,53.657,59.7,51.21,67.619s1.008,1.1,1.893.677l2.3-7.319,15.563-6.848Z" fill="#1a1a1a"/>
        <path id="Trazado_608482" data-name="Trazado 608482" d="M39.607,107.653l-1.1,3.891.271,4.128,2.444-7.452Z" fill="#1a1a1a"/>
        <path id="Trazado_608483" data-name="Trazado 608483" d="M74.891,48.6s-1.425.278-1.5,1.218-.052,1.918.572,1.849,1.592-.789,1.577-1.532a3.118,3.118,0,0,0-.645-1.535" fill="#1a1a1a"/>
        <rect id="Rectángulo_377368" data-name="Rectángulo 377368" width="7.138" height="7.138" transform="translate(71.289 112.918)" fill="#1a1a1a"/>
        <path id="Trazado_608484" data-name="Trazado 608484" d="M214.486,128.541a1.985,1.985,0,0,1,1.33-.632,1.676,1.676,0,0,1-1.3.631h-.028m3.781-.734a6.763,6.763,0,0,1,2.283-1.165,4.27,4.27,0,0,1-2.227,1.158.21.21,0,0,1-.056.007m4.633-1.713a7.4,7.4,0,0,1,2.061-1.578,4.252,4.252,0,0,1-1.968,1.556.219.219,0,0,1-.093.022m4.222-2.562a8.273,8.273,0,0,1,1.764-1.946,4.257,4.257,0,0,1-1.636,1.9.211.211,0,0,1-.128.044m3.664-3.314a9.124,9.124,0,0,1,1.423-2.238,4.354,4.354,0,0,1-1.265,2.17.219.219,0,0,1-.158.068m3.02-3.913a10.129,10.129,0,0,1,1.067-2.448,4.376,4.376,0,0,1-.886,2.349.213.213,0,0,1-.181.1m2.34-4.354a11.414,11.414,0,0,1,.714-2.586,4.433,4.433,0,0,1-.517,2.458.216.216,0,0,1-.2.128m1.664-4.657a12.884,12.884,0,0,1,.37-2.664,4.476,4.476,0,0,1-.163,2.506.215.215,0,0,1-.207.158m.995-4.844a17.7,17.7,0,0,1-.016-2.688,4.3,4.3,0,0,1,.229,2.5.215.215,0,0,1-.213.187m.168-4.941a20.664,20.664,0,0,1-.446-2.65,4.419,4.419,0,0,1,.66,2.423c-.205.227-.21.227-.214.227m-.654-4.9a26.593,26.593,0,0,1-.8-2.559,4.421,4.421,0,0,1,1.015,2.3c-.181.259-.2.261-.21.261m-1.37-4.755c-.488-.913-.8-1.676-1.143-2.409a4.337,4.337,0,0,1,1.344,2.12c-.151.285-.176.289-.2.289m-2.081-4.484c-.6-.835-1.046-1.531-1.506-2.176a4.175,4.175,0,0,1,1.693,1.853c-.114.314-.15.323-.187.323m-11.029-3.945c.591-.64,1.248-1.052,1.939-1.677a2.959,2.959,0,0,1-1.87,1.666.237.237,0,0,1-.069.011m8.149-.07c-.721-.692-1.314-1.26-1.92-1.76a3.881,3.881,0,0,1,2.08,1.4c-.056.341-.109.359-.16.359m-10.555-.034a2.626,2.626,0,0,1-1.687-2.048,5.089,5.089,0,0,0,1.778,1.639c.066.364-.011.409-.091.409M227.6,76.3a3.805,3.805,0,0,0-1.754-1.044,2.4,2.4,0,0,1,1.893.3,17.788,17.788,0,0,0,1.073-1.614,2.658,2.658,0,0,1-.687,1.815c-.4.52-.462.548-.525.548m-6.49-.872a2.616,2.616,0,0,1,2.3-1.02c-.8.43-1.6.634-2.192.989a.211.211,0,0,1-.11.031m9-3.377a15.1,15.1,0,0,1,.6-2.608,4.046,4.046,0,0,1-.4,2.476.216.216,0,0,1-.2.132M231.42,67.3a20.7,20.7,0,0,1,0-2.685,4.1,4.1,0,0,1,.216,2.5.215.215,0,0,1-.213.185m.134-4.937c-.285-1-.4-1.817-.567-2.619a4.159,4.159,0,0,1,.782,2.385c-.2.234-.209.234-.215.234m-.984-4.839a11.975,11.975,0,0,1-.741-1.619c-.111-.277-.228-.547-.349-.813a.874.874,0,0,1,.748.652c.2.485.379.989.546,1.5-.16.279-.183.282-.2.282m-2.04-4.5c-.6-.806-1.071-1.484-1.568-2.123a4.067,4.067,0,0,1,1.752,1.8c-.109.316-.146.326-.184.326m-3.035-3.894c-.726-.636-1.343-1.179-1.986-1.678a4.056,4.056,0,0,1,2.137,1.311c-.041.347-.1.367-.151.367m-3.9-3.021c-.806-.442-1.539-.816-2.287-1.144a4.1,4.1,0,0,1,2.4.743c.035.363-.036.4-.11.4m-21.662-1.792a5.085,5.085,0,0,1,2.4-.866,5.246,5.246,0,0,1-2.358.862.21.21,0,0,1-.041,0m17.141-.188a24.35,24.35,0,0,0-2.442-.591,4.165,4.165,0,0,1,2.5.17c.116.36.03.421-.062.421m-12.258-.617a4.84,4.84,0,0,1,2.443-.688,5.446,5.446,0,0,1-2.416.686l-.027,0m7.4-.293c-.474-.038-.947-.061-1.424-.072-.228,0-.457-.007-.687-.007a.648.648,0,0,1,.7-.423c.484.011.966.035,1.429.072.189.345.1.43-.016.43" fill="#1a1a1a"/>
        <path id="Trazado_608485" data-name="Trazado 608485" d="M135.479,106.978a70.117,70.117,0,0,0-4.182-9.521,33.5,33.5,0,0,1,4.388,9.243c-.164.275-.185.278-.206.278" fill="#1a1a1a"/>
        <path id="Trazado_608486" data-name="Trazado 608486" d="M110.639,69.751a1.677,1.677,0,0,0-1.927-.375c.243-.617,1.293-.834,2.084.013-.052.343-.1.362-.157.362" fill="#1a1a1a"/>
        <path id="Trazado_608487" data-name="Trazado 608487" d="M109.53,70.514c-.172-.028-.287.045-.338.664-.058.689.12.811.275.806s.311-.218.305-.711-.017-.723-.242-.759" fill="#1a1a1a"/>
        <path id="Trazado_608488" data-name="Trazado 608488" d="M115.983,76.333a2.814,2.814,0,0,1-1.764-.7,6.588,6.588,0,0,1,1.44.248,2.127,2.127,0,1,0-1.293-3.487,1.646,1.646,0,0,1,2-1.144,2.558,2.558,0,0,1-.384,5.086" fill="#1a1a1a"/>
        <path id="Trazado_608489" data-name="Trazado 608489" d="M116.4,75.126c-.144-.055-1.581-1.347-1.581-1.347.043-.35,1.823-1.3,1.823-1.3.2.38-1.307,1.186-1.307,1.186l1.208,1.086c-.025.351-.084.375-.143.375" fill="#1a1a1a"/>
        <path id="Trazado_608490" data-name="Trazado 608490" d="M111.711,80.528c-.025,0-1.767-.2-1.767-.2a4.192,4.192,0,0,1-3.015-1.819,4.67,4.67,0,0,1-.414-3.387c-.319-.345-1.3-1.474-1.135-2.237.116-.149,2.08-1.114,2.08-1.114a47.663,47.663,0,0,1,.846-5.557c.068,1.058-.426,5.673-.431,5.72a20.291,20.291,0,0,1-2.084,1.136,3.847,3.847,0,0,0,1.117,1.841c.046.229-.464,1.988.389,3.376a3.78,3.78,0,0,0,2.709,1.616l1.729.2c.177.347.084.428-.024.428" fill="#1a1a1a"/>
        <path id="Trazado_608491" data-name="Trazado 608491" d="M95.376,137.975c.792-3.257,3.086-17.394,3.326-21.388.187,4.037-2.119,18.248-3.123,21.241a.214.214,0,0,1-.2.147" fill="#1a1a1a"/>
        <path id="Trazado_608492" data-name="Trazado 608492" d="M128.453,137.975c-.231-.326-1.98-14.154-1.441-22.23.244-3.677.186-8.022.14-11.514-.018-1.332-.034-2.564-.033-3.63q0-.751-.019-1.462a1.868,1.868,0,0,1,.449,1.462c0,1.064.016,2.3.033,3.624.047,3.5.1,7.855-.141,11.55-.536,8.033,1.208,21.819,1.225,21.957-.2.242-.205.243-.213.243" fill="#1a1a1a"/>
        <path id="Trazado_608493" data-name="Trazado 608493" d="M96.482,117.047a15.114,15.114,0,0,1-11.106-4.938,39.1,39.1,0,0,1-7.989-13.1c-1.129-2.915-2.024-5.7-3.062-8.928-.011-.429,1.053-3.666,6.238-4.9,4.671-1.107,6.506.448,6.582.515.051.066,4.293,8.626,4.293,8.626.243.489.474,1.014.7,1.52.835,1.887,1.7,3.838,3.417,4.936a2.9,2.9,0,0,0,2.1.509,2.794,2.794,0,0,0,1.7-1.306,11.336,11.336,0,0,0,1.244-3.735c.085-.405.17-.808.265-1.2a47.352,47.352,0,0,1,1.522-5.264,11.393,11.393,0,0,1,5.437-6.434,23.072,23.072,0,0,1,6.692-2.159,57.769,57.769,0,0,0-6.5,2.543,10.97,10.97,0,0,0-5.227,6.2,46.824,46.824,0,0,0-1.508,5.218c-.094.387-.177.785-.261,1.186a11.588,11.588,0,0,1-1.3,3.875,3.17,3.17,0,0,1-1.977,1.5,3.3,3.3,0,0,1-2.419-.568c-1.827-1.168-2.718-3.179-3.579-5.124-.228-.514-.452-1.021-.69-1.5L86.833,86c-.246-.182-2.053-1.374-6.171-.4-4.55,1.082-5.786,3.815-5.958,4.256,1.066,3.313,1.959,6.093,3.086,9a38.661,38.661,0,0,0,7.9,12.96,14.69,14.69,0,0,0,11.651,4.781,17.356,17.356,0,0,0,12.6-7.17,23.7,23.7,0,0,0,2.689-4.835,30.743,30.743,0,0,0,1.491-4.581,32.378,32.378,0,0,0,.636-3.413c.052-.4.108-.868.135-1.333a1.651,1.651,0,0,1,.292,1.387,32.423,32.423,0,0,1-.646,3.46,31.113,31.113,0,0,1-1.512,4.646,24.024,24.024,0,0,1-2.738,4.923,17.8,17.8,0,0,1-12.918,7.345c-.295.017-.589.025-.88.025" fill="#1a1a1a"/>
        <path id="Trazado_608494" data-name="Trazado 608494" d="M107.355,76.771a1.938,1.938,0,0,1-.75-.155,2.712,2.712,0,0,0,2.188-1.065c.07.64-.6,1.22-1.438,1.22" fill="#1a1a1a"/>
        <path id="Trazado_608495" data-name="Trazado 608495" d="M114.607,72.094c-.069,0-1.447-.108-3.944-2.249a9.565,9.565,0,0,1-2.283-3.5c-.123-.273-.246-.543-.372-.8a.873.873,0,0,1,.764.625,9.063,9.063,0,0,0,2.17,3.346c2.366,2.029,3.667,2.147,3.68,2.147.192.342.1.43-.015.43" fill="#1a1a1a"/>
        <path id="Trazado_608496" data-name="Trazado 608496" d="M124.651,79.734c.078-1.438,1.654-12.846.968-14.569-1-2.517-4.463-3.223-5.5-3.38a7.577,7.577,0,0,0-2.618.092,10.524,10.524,0,0,1-2.183-.347,30.222,30.222,0,0,0-3.1-.519,6.637,6.637,0,0,0-3.925,1.044,3.352,3.352,0,0,0-.731,2.147c-.209,1.883.029,4.181.48,4.637-.917-.317-1.115-2.823-.908-4.685.1-.916.345-2.088.927-2.461a7.163,7.163,0,0,1,4.177-1.113,30.846,30.846,0,0,1,3.158.527c.871.172,1.855.345,2.02.349a7.8,7.8,0,0,1,2.764-.1c1.093.166,4.748.917,5.835,3.646.764,1.915-.884,13.441-1.16,14.564a.214.214,0,0,1-.208.164" fill="#1a1a1a"/>
        <path id="Trazado_608497" data-name="Trazado 608497" d="M182.153,92.682c-2.3,0-4.614-.879-5.057-3.011a18,18,0,0,1-.146-2.406l-.019-.7c-.028-.907.115-7.106.12-7.369.429.074.281,6.462.31,7.357l.019.7a18.743,18.743,0,0,0,.136,2.33c.46,2.209,3.266,2.9,5.688,2.605a9.418,9.418,0,0,0,1.992-.421,2.47,2.47,0,0,1-1.94.848,9.162,9.162,0,0,1-1.1.067" fill="#1a1a1a"/>
        <path id="Trazado_608498" data-name="Trazado 608498" d="M188.568,94.065c-.215-.205-.534-6.625-.534-6.625.431-.022.749,6.4.749,6.4a2.071,2.071,0,0,1-.215.226" fill="#1a1a1a"/>
        <path id="Trazado_608499" data-name="Trazado 608499" d="M189.331,87.885a2.786,2.786,0,0,1-1.709-.582,3.482,3.482,0,0,0,3.221-.393,2.38,2.38,0,1,0-3.737-2.683,1.1,1.1,0,0,1,.442-1.328,2.811,2.811,0,1,1,1.783,4.986" fill="#1a1a1a"/>
        <path id="Trazado_608500" data-name="Trazado 608500" d="M177.306,81.858c-.191-.318.325-1.4,1.855-.994a1.948,1.948,0,0,0-1.66.869.217.217,0,0,1-.2.125" fill="#1a1a1a"/>
        <path id="Trazado_608501" data-name="Trazado 608501" d="M184.716,81.978c-1.175-1.37-2.166-.758-2.208-.731-.217-.372,1.132-1.207,2.378.383-.077.333-.124.348-.17.348" fill="#1a1a1a"/>
        <path id="Trazado_608502" data-name="Trazado 608502" d="M182.322,90.246a2.4,2.4,0,0,1-.7-.1,1.582,1.582,0,0,1-1.062-.824.837.837,0,0,1,.114-.838,1.207,1.207,0,0,1,1.109-.38c.577.073.632.033.747-.054s.171-.125.273-.7a1.213,1.213,0,0,1,.691-.946.829.829,0,0,1,.834.14,1.5,1.5,0,0,1,.433,1.206,2.505,2.505,0,0,1-.971,2.008,2.468,2.468,0,0,1-1.467.49m-1.359-1.076a1.2,1.2,0,0,0,.781.561,2.02,2.02,0,0,0,1.79-.321,2.077,2.077,0,0,0,.8-1.665,1.136,1.136,0,0,0-.263-.861.412.412,0,0,0-.418-.081.8.8,0,0,0-.424.621c-.121.677-.217.8-.44.968s-.375.219-1.057.135a.816.816,0,0,0-.717.22.412.412,0,0,0-.048.423" fill="#1a1a1a"/>
        <path id="Trazado_608503" data-name="Trazado 608503" d="M183.409,89.961a2.136,2.136,0,0,1,.9-3.125c.141.413-1.513,1.379-.716,2.806-.116.31-.152.319-.187.319" fill="#1a1a1a"/>
        <path id="Trazado_608504" data-name="Trazado 608504" d="M190.154,86.636c-.1-.023-2.111-1.021-2.111-1.021-.059-.342,1.774-2.216,1.774-2.216.307.3-1.319,1.962-1.319,1.962l1.751.868c.06.363-.016.407-.095.407" fill="#1a1a1a"/>
        <path id="Trazado_608505" data-name="Trazado 608505" d="M183.553,82.838c-.173-.023-.286.053-.323.672-.04.69.141.808.3.8s.3-.225.287-.718-.035-.722-.26-.753" fill="#1a1a1a"/>
        <path id="Trazado_608506" data-name="Trazado 608506" d="M178.564,82.792c-.171-.029-.287.043-.344.66-.064.689.113.813.267.809s.313-.215.312-.707-.01-.724-.235-.762" fill="#1a1a1a"/>
        <path id="Trazado_608507" data-name="Trazado 608507" d="M190.954,83.26c.9-2.016,2.476-5.169.782-7.349a3.637,3.637,0,0,0-1.545-1.148,4.748,4.748,0,0,0-.929-.232c-.662-.068-.729-.075-.791-.2a3.381,3.381,0,0,1,1.879.037,4.055,4.055,0,0,1,1.724,1.283c1.858,2.389.209,5.734-.939,7.514a.214.214,0,0,1-.181.1" fill="#1a1a1a"/>
        <path id="Trazado_608508" data-name="Trazado 608508" d="M187.024,75.741c.061-.5.951-1.217,1.506-1.672.128.451-1.141,1.488-1.394,1.641a.218.218,0,0,1-.112.031" fill="#1a1a1a"/>
        <path id="Trazado_608509" data-name="Trazado 608509" d="M179.244,116.48c-.165-.354,3.547-4.758,3.547-4.758l-1.5-1.261-4.079,4.843c-.329-.277,3.888-5.284,3.888-5.284a11.534,11.534,0,0,1,2.128,1.511,61.368,61.368,0,0,1-3.823,4.872.215.215,0,0,1-.165.077" fill="#1a1a1a"/>
        <path id="Trazado_608510" data-name="Trazado 608510" d="M183.093,111.912c-.165-.354.447-1.079.447-1.079l-1.5-1.26-.611.726c-.33-.278.419-1.168.419-1.168a11.557,11.557,0,0,1,2.129,1.511c.026.3-.723,1.193-.723,1.193a.22.22,0,0,1-.165.077" fill="#1a1a1a"/>
        <path id="Trazado_608511" data-name="Trazado 608511" d="M178.607,119.916a4.478,4.478,0,0,1,1.887-1.028,3.177,3.177,0,0,1-1.833,1.021.249.249,0,0,1-.054.007" fill="#1a1a1a"/>
        <path id="Trazado_608512" data-name="Trazado 608512" d="M177.567,116.885c1.115-.614,2.538-.9,3.327-1.434-.618.939-2.1,1.237-3.292,1.431l-.035,0" fill="#1a1a1a"/>
        <path id="Trazado_608513" data-name="Trazado 608513" d="M179.385,122.187a12.618,12.618,0,0,1,1.968-.742c.073.425-.69.616-1.947.742Z" fill="#1a1a1a"/>
        <path id="Trazado_608514" data-name="Trazado 608514" d="M176.564,113.961a3.664,3.664,0,0,1,2.279-1.155c.017.428-1.169.517-2.167,1.123a.21.21,0,0,1-.112.032" fill="#1a1a1a"/>
        <path id="Trazado_608515" data-name="Trazado 608515" d="M190.889,121.357c-.21-.135-4.171-5.232-5.162-6.075a8.438,8.438,0,0,0-4.055-1.713c.146-.417,2.531-.148,4.333,1.385,1.026.872,4.889,5.844,5.053,6.056-.077.332-.123.347-.169.347" fill="#1a1a1a"/>
        <path id="Trazado_608516" data-name="Trazado 608516" d="M184.924,127.05c-1.15-1.711-2.211-3.08-2.5-3.1a10.908,10.908,0,0,1-2.361.235,7,7,0,0,1,1.9-.6,2.992,2.992,0,0,1,.456-.065c.69,0,2.108,2.238,2.687,3.2-.108.316-.147.325-.185.325" fill="#1a1a1a"/>
        <path id="Trazado_608517" data-name="Trazado 608517" d="M204.156,129.748c-2.625-4.377-9.835-8.87-12.749-10.264,3.259,1.083,10.424,5.543,12.936,9.943-.114.313-.15.321-.187.321" fill="#1a1a1a"/>
        <path id="Trazado_608518" data-name="Trazado 608518" d="M194.349,138.116a64.066,64.066,0,0,1-12.088-10.457,99,99,0,0,0,12.209,10.063c.016.361-.052.394-.121.394" fill="#1a1a1a"/>
        <path id="Trazado_608519" data-name="Trazado 608519" d="M210.212,138.116a20.2,20.2,0,0,0,1.662-6.765c.344-7.473-2.459-14.441-5.613-21.514-.208-.469-.421-.964-.64-1.476-1.351-3.15-3.032-7.07-5.8-8.879-2.067-1.349-6.524-2.389-8.831-2.789.719-.312,6.449.721,9.067,2.428,2.879,1.881,4.588,5.867,5.962,9.07.219.51.43,1,.638,1.471,3.176,7.122,6,14.143,5.65,21.708a14.579,14.579,0,0,1-1.908,6.64.212.212,0,0,1-.184.106" fill="#1a1a1a"/>
        <path id="Trazado_608520" data-name="Trazado 608520" d="M183.094,133H154.776c0-.43,28.016-.43,28.016-.43l-9.57-27.905h-9.86c0-.43,10.014-.43,10.014-.43.2.145,9.921,28.48,9.921,28.48-.069.252-.133.285-.2.285" fill="#1a1a1a"/>
        <path id="Trazado_608521" data-name="Trazado 608521" d="M154.524,104.665h-9.465c0-.431,9.465-.431,9.465-.431.215.334.119.431,0,.431" fill="#1a1a1a"/>
        <path id="Trazado_608522" data-name="Trazado 608522" d="M182.842,127.877a.742.742,0,0,1-.579-.217c-.442-.488-.073-1.477,1.1-2.939-.8,1.685-.971,2.436-.777,2.651.362.4,2.529-.556,5.243-3.015s3.876-4.525,3.515-4.923c-.205-.225-.717-.109-1.566.351.565-.8,1.416-1.156,1.885-.639.756.835-1.211,3.414-3.545,5.529-1.92,1.74-4.128,3.2-5.272,3.2" fill="#1a1a1a"/>
        <path id="Trazado_608523" data-name="Trazado 608523" d="M163.253,104.579c2.038-3.688,5.783-7.625,15.141-8.313-9.14,1.1-12.8,4.947-14.962,8.217a.212.212,0,0,1-.179.1" fill="#1a1a1a"/>
        <path id="Trazado_608524" data-name="Trazado 608524" d="M180.139,94.136a7.976,7.976,0,0,1-.429-1.96c.427-.052.643,1.719.643,1.719-.2.24-.205.241-.214.241" fill="#1a1a1a"/>
        <path id="Trazado_608525" data-name="Trazado 608525" d="M197.263,122.991c-.164-6.192-3.685-12.339-3.721-12.4.408-.154,3.988,6.091,3.936,12.185a.215.215,0,0,1-.215.214" fill="#1a1a1a"/>
        <path id="Trazado_608526" data-name="Trazado 608526" d="M177.143,81.531c-.147-.05-4.177-2.382-2.372-6.1a6.649,6.649,0,0,1,4.469-3.257,11.53,11.53,0,0,1,9.37,1.885,13.248,13.248,0,0,0-9.263-1.468,6.223,6.223,0,0,0-4.189,3.028c-1.631,3.358,1.938,5.423,2.091,5.509.042.363-.032.4-.106.4" fill="#1a1a1a"/>
        <path id="Trazado_608527" data-name="Trazado 608527" d="M187.024,84.1a6.756,6.756,0,0,1-.556-4.636c-6.13,1.529-10.233-.528-10.484-.806.421-.231,4.439,1.981,10.716.3.191.545-.416,3.04.515,4.824-.123.307-.157.315-.191.315" fill="#1a1a1a"/>
        <path id="Trazado_608528" data-name="Trazado 608528" d="M216.2,138.116H0c0-.43,216.2-.43,216.2-.43.215.334.119.43,0,.43" fill="#1a1a1a"/>
        <path id="Trazado_608529" data-name="Trazado 608529" d="M71.033,52.063a4.913,4.913,0,0,1,.056-2.947A6.636,6.636,0,0,1,72.6,46.451c-.319.953-.807,1.816-1.1,2.79a6.349,6.349,0,0,0-.253,2.581c-.2.24-.206.241-.214.241" fill="#1a1a1a"/>
        <path id="Trazado_608530" data-name="Trazado 608530" d="M73.687,55.069a2.474,2.474,0,0,1-.73-.109A2.8,2.8,0,0,1,71.3,53.5a8.907,8.907,0,0,0,1.779,1.045,2.655,2.655,0,0,0,2.428-.643,5.936,5.936,0,0,0,1.84-2.887c.739-2.436.03-4.818-1.582-5.309a2.428,2.428,0,0,0-1.965.32,1.747,1.747,0,0,1,2.09-.731c1.839.56,2.677,3.182,1.868,5.846a6.356,6.356,0,0,1-1.981,3.1,3.363,3.363,0,0,1-2.093.828" fill="#1a1a1a"/>
        <path id="Trazado_608531" data-name="Trazado 608531" d="M74.183,51.911a1.562,1.562,0,0,1-1-2.159,2.258,2.258,0,0,1,.7-1.1,1.144,1.144,0,0,1,1.068-.264c.7.212,1.012,1.143.716,2.117a1.767,1.767,0,0,1-1.486,1.4m.488-3.132a.834.834,0,0,0-.515.211,1.815,1.815,0,0,0-.564.887c-.218.719-.021,1.443.429,1.58s1.018-.353,1.237-1.074.022-1.443-.43-1.581a.558.558,0,0,0-.157-.023" fill="#1a1a1a"/>
        <path id="Trazado_608532" data-name="Trazado 608532" d="M42.668,45.746a3.043,3.043,0,0,1-2.008-2.179,6.364,6.364,0,0,1,.077-3.675c.809-2.663,2.962-4.373,4.805-3.816-1.745-.083-3.653,1.5-4.394,3.941a5.938,5.938,0,0,0-.077,3.422,2.646,2.646,0,0,0,1.659,1.887c.116.36.03.42-.062.42" fill="#1a1a1a"/>
        <path id="Trazado_608533" data-name="Trazado 608533" d="M75.831,45.72c-.062-.01-7.423-2.247-7.423-2.247.125-.411,7.485,1.826,7.485,1.826.116.36.03.421-.062.421" fill="#1a1a1a"/>
        <path id="Trazado_608534" data-name="Trazado 608534" d="M62.829,41.769c-.062-.009-17.411-5.282-17.411-5.282.124-.411,17.473,4.862,17.473,4.862.116.36.031.42-.062.42" fill="#1a1a1a"/>
        <path id="Trazado_608535" data-name="Trazado 608535" d="M72.695,54.871c-.062-.009-30.089-9.134-30.089-9.134.125-.411,30.151,8.714,30.151,8.714.116.36.03.42-.062.42" fill="#1a1a1a"/>
        <path id="Trazado_608536" data-name="Trazado 608536" d="M53.863,59.919c-.086-.412,14.476-6.758,14.476-6.758.172.394-14.39,6.74-14.39,6.74a.225.225,0,0,1-.086.018" fill="#1a1a1a"/>
        <path id="Trazado_608537" data-name="Trazado 608537" d="M53.1,68.512c-.206-.276,1.969-7.609,1.969-7.609.12-.137,15.805-6.97,15.805-6.97.172.393-15.421,7.188-15.421,7.188L53.31,68.357a.218.218,0,0,1-.207.155" fill="#1a1a1a"/>
        <path id="Trazado_608538" data-name="Trazado 608538" d="M38.966,116.185c-.206-.276,2.051-7.888,2.051-7.888.413.122-1.844,7.733-1.844,7.733a.218.218,0,0,1-.207.155" fill="#1a1a1a"/>
        <path id="Trazado_608539" data-name="Trazado 608539" d="M38.622,111.381c-.206-.275.779-3.635.779-3.635.412.12-.572,3.48-.572,3.48a.217.217,0,0,1-.207.155" fill="#1a1a1a"/>
        <path id="Trazado_608540" data-name="Trazado 608540" d="M49.264,75.058c-.207-.275.028-1.075.028-1.075.413.12.178.92.178.92a.215.215,0,0,1-.206.155" fill="#1a1a1a"/>
        <path id="Trazado_608541" data-name="Trazado 608541" d="M51.457,67.834c-.205-.278,2.2-8.193,2.2-8.193.411.125-1.994,8.04-1.994,8.04a.215.215,0,0,1-.206.153" fill="#1a1a1a"/>
        <path id="Trazado_608542" data-name="Trazado 608542" d="M26.162,79.395a5.931,5.931,0,0,0,2.76-1.831,5.067,5.067,0,0,0,.366-3.758l-1.92-7.846c.417-.1,2.335,7.734,2.335,7.734a5.412,5.412,0,0,1-.425,4.11,3.945,3.945,0,0,1-3.1,1.591Z" fill="#1a1a1a"/>
        <path id="Trazado_608543" data-name="Trazado 608543" d="M29.731,72.593a.928.928,0,0,1-.892-.677c1.475.1,1.629-.172,1.556-.437l-1.261-4.493a.5.5,0,0,0-.614-.345c-.7-.167-.514-.3-.3-.362a.987.987,0,0,1,1.327.59l1.261,4.494a.931.931,0,0,1-.644,1.145,1.544,1.544,0,0,1-.434.085" fill="#1a1a1a"/>
        <path id="Trazado_608544" data-name="Trazado 608544" d="M15.123,86.33a18.838,18.838,0,0,1-2.8-.2A4.381,4.381,0,0,1,9.165,84.3a4.536,4.536,0,0,1-.2-3.584,6.1,6.1,0,0,1,.9-1.649,6.713,6.713,0,0,0,.75-1.272c.854-2.1.42-4.808.071-6.984-1.31-8.249,2.975-9.939,4.875-10.3a11.487,11.487,0,0,1,5.2.445c3.855-1.572,5.7-.234,5.723-.221a4.328,4.328,0,0,1,1.137,2.032,5.369,5.369,0,0,1-.576,4.69,7.917,7.917,0,0,1-1.373,1.589,8.107,8.107,0,0,1-1.066.773,8.053,8.053,0,0,0-.964.694,2.455,2.455,0,0,0-.425.5.59.59,0,0,1,.139-.821,8.478,8.478,0,0,1,1.017-.734,7.754,7.754,0,0,0,1.012-.731,7.48,7.48,0,0,0,1.3-1.5,4.94,4.94,0,0,0,.529-4.32,4.371,4.371,0,0,0-.983-1.823c-.017-.012-1.765-1.2-5.379.3a12.845,12.845,0,0,0-5.212-.45c-1.776.338-5.781,1.934-4.587,9.443.415,2.6.86,5.372-.04,7.582a7.261,7.261,0,0,1-.793,1.355,5.7,5.7,0,0,0-.84,1.53,4.286,4.286,0,0,0,.159,3.239,3.974,3.974,0,0,0,2.854,1.629,22.08,22.08,0,0,0,5.949-.016,10.626,10.626,0,0,0,5.027-1.532,6.3,6.3,0,0,0,2.369-3.5,3.768,3.768,0,0,0-.51-3.28,7.694,7.694,0,0,0-1.1-1.048c-.257-.216-.525-.438-.77-.679A1.174,1.174,0,0,1,24.4,76a8.1,8.1,0,0,1,1.162,1.109,4.184,4.184,0,0,1,.592,3.655,6.721,6.721,0,0,1-2.533,3.743,10.294,10.294,0,0,1-4.851,1.565,28.881,28.881,0,0,1-3.644.258" fill="#1a1a1a"/>
        <path id="Trazado_608545" data-name="Trazado 608545" d="M110.441,7.03a3.515,3.515,0,1,1,3.393-2.591,3.525,3.525,0,0,1-3.393,2.591m0-6.6a3.085,3.085,0,0,0-2.672,4.617A3.084,3.084,0,1,0,111.251.539a3.05,3.05,0,0,0-.813-.109" fill="#1a1a1a"/>
        <path id="Trazado_608546" data-name="Trazado 608546" d="M46.338,109a22.068,22.068,0,0,1-5.294-.693c-6.8-1.761-12.449-6.7-17.077-11.307,4.89,4.258,10.482,9.156,17.184,10.892,1.576.409,7,1.574,10.711-.589,2.715-1.583,3.935-4.812,4.849-8.065a59.352,59.352,0,0,0,1.774-10.126c.375-3.647.592-7.548.7-12.637a20.023,20.023,0,0,0-5.343-1.163,30.9,30.9,0,0,0-5.9.026c-.4,1.687-4.24,17.93-3.834,24.339-.86-6.769,3.407-24.4,3.45-24.582.253-.176,2.2-.5,6.313-.211a20.3,20.3,0,0,1,5.613,1.246,117.817,117.817,0,0,1-.576,13.026,59.807,59.807,0,0,1-1.788,10.2c-.938,3.339-2.2,6.659-5.047,8.32A11.454,11.454,0,0,1,46.338,109" fill="#1a1a1a"/>
        <path id="Trazado_608547" data-name="Trazado 608547" d="M44.394,92.427C42,90.874,40.056,89.456,38.34,88.206c-6.129-4.468-9.2-6.71-14.124-4.206,4.961-3.006,8.306-.568,14.378,3.858,1.712,1.249,3.652,2.662,5.92,4.175.017.36-.051.394-.12.394" fill="#1a1a1a"/>
        <path id="Trazado_608548" data-name="Trazado 608548" d="M22.214,75.876a2.557,2.557,0,1,1,1.454-4.662,6.3,6.3,0,0,1-1.454-.021,2.17,2.17,0,0,0-1.509.627,2.128,2.128,0,1,0,3.321,2.617,1.644,1.644,0,0,1-1.8,1.439Z" fill="#1a1a1a"/>
        <path id="Trazado_608549" data-name="Trazado 608549" d="M21.633,74.745c-.129-.386,1.237-1.417,1.237-1.417l-1.363-.886c.234-.361,1.854.692,1.854.692.012.352-1.6,1.567-1.6,1.567a.214.214,0,0,1-.129.044" fill="#1a1a1a"/>
        <path id="Trazado_608550" data-name="Trazado 608550" d="M41.587,137.975c-.644-1.46-3.55-26.908-3.55-30.694.43,3.7,3.372,29.271,3.753,30.411-.158.279-.18.283-.2.283" fill="#1a1a1a"/>
        <path id="Trazado_608551" data-name="Trazado 608551" d="M8.781,137.975c-.183-.413,2.695-16.338,1.877-24.337-.155-1.5-.373-3.074-.6-4.737-1.06-7.578-2.26-16.165,2.123-23.1-3.936,7.028-2.747,15.532-1.7,23.036.233,1.667.452,3.242.607,4.752.826,8.061-2.062,24.045-2.092,24.205a.216.216,0,0,1-.212.177" fill="#1a1a1a"/>
        <path id="Trazado_608552" data-name="Trazado 608552" d="M164.317,78.366a33.929,33.929,0,1,1,22.292-8.35,35.509,35.509,0,0,0,11.208-25.58,33.463,33.463,0,1,0-26.563,32.781,18.116,18.116,0,0,1-6.937,1.149" fill="#1a1a1a"/>
        <path id="Trazado_608553" data-name="Trazado 608553" d="M44.1,83.135H33.457c0-.429,10.646-.429,10.646-.429.215.334.119.429,0,.429" fill="#1a1a1a"/>
        <path id="Trazado_608554" data-name="Trazado 608554" d="M71.259,83.135H60.79c0-.429,10.469-.429,10.469-.429.215.334.119.429,0,.429" fill="#1a1a1a"/>
        <path id="Trazado_608555" data-name="Trazado 608555" d="M80.974,83.065a5.881,5.881,0,0,0,4.1-5.3V27.288a4.951,4.951,0,0,0-4.945-4.945H64.841c0-.43,15.286-.43,15.286-.43A5.382,5.382,0,0,1,85.5,27.288V77.761a5.428,5.428,0,0,1-4.493,5.3l-.036,0" fill="#1a1a1a"/>
        <path id="Trazado_608556" data-name="Trazado 608556" d="M24.5,57.291c-.215-.214-.215-30-.215-30a5.381,5.381,0,0,1,5.375-5.375H44.394c0,.431-14.739.431-14.739.431a4.949,4.949,0,0,0-4.945,4.944V57.077a.214.214,0,0,1-.215.214" fill="#1a1a1a"/>
        <path id="Trazado_608557" data-name="Trazado 608557" d="M93.258,126.769H65.06a5.433,5.433,0,0,1-5.477-5.377V104.347c.433,0,.433,17.045.433,17.045a5,5,0,0,0,5.044,4.943h28.2c.216.337.119.434,0,.434" fill="#1a1a1a"/>
        <path id="Trazado_608558" data-name="Trazado 608558" d="M145.806,126.769H135.459c0-.434,10.347-.434,10.347-.434.217.337.12.434,0,.434" fill="#1a1a1a"/>
        <path id="Trazado_608559" data-name="Trazado 608559" d="M165.167,100.267c-.217-.216-.217-20.257-.217-20.257.433,0,.433,20.041.433,20.041a.216.216,0,0,1-.216.216" fill="#1a1a1a"/>
        <path id="Trazado_608560" data-name="Trazado 608560" d="M128.343,48.374H87.825c0-.43,40.518-.43,40.518-.43.215.333.119.43,0,.43" fill="#1a1a1a"/>
        <path id="Trazado_608561" data-name="Trazado 608561" d="M49.582,75.058a5.842,5.842,0,0,0-.416-1.684c-1.844-2.923-1.413-5.417-.4-6.777a3,3,0,0,1,3.24-1.2,3.92,3.92,0,0,0-2.9,1.462c-.932,1.245-1.312,3.55.415,6.29A2.924,2.924,0,0,1,49.8,74.85a.215.215,0,0,1-.215.208" fill="#1a1a1a"/>
        <path id="Trazado_608562" data-name="Trazado 608562" d="M28.569,82.966a22.261,22.261,0,0,0-2.635-2.041c.075-.441.382-.479,2.778,1.666-.025.351-.084.375-.143.375" fill="#1a1a1a"/>
        <path id="Trazado_608563" data-name="Trazado 608563" d="M52.934,68.518a3.164,3.164,0,0,1-.7-.079,2.175,2.175,0,0,1-1.479-1.1c.409-.143.726.489,1.572.677a2.3,2.3,0,0,0,1.439-.089c.182.39-.2.588-.828.588" fill="#1a1a1a"/>
        <path id="Trazado_608564" data-name="Trazado 608564" d="M154.776,133c-.2-.146-3.261-9.062-3.261-9.062.408-.14,3.465,8.777,3.465,8.777-.158.281-.181.285-.2.285" fill="#1a1a1a"/>
        <path id="Trazado_608565" data-name="Trazado 608565" d="M148.248,113.961c-.2-.145-3.392-9.441-3.392-9.441.406-.14,3.6,9.156,3.6,9.156-.158.281-.181.285-.2.285" fill="#1a1a1a"/>
        <path id="Trazado_608566" data-name="Trazado 608566" d="M150.933,124.079c-1.862,0-3.341-.423-4.039-1.209a7.342,7.342,0,0,1-1.428-2.721,15.438,15.438,0,0,1-.692-5.453c.111-2.021,2.207-3.883,2.3-3.961.263.341-1.767,2.145-1.868,3.986a15,15,0,0,0,.673,5.3,6.923,6.923,0,0,0,1.34,2.566c.738.834,2.949,1.414,6.235.831.982-.175,2.726-1.039,2.5-2.334a1.163,1.163,0,0,0-.667-.862.843.843,0,0,1,1.09.788c.264,1.54-1.545,2.6-2.851,2.831a14.958,14.958,0,0,1-2.593.241" fill="#1a1a1a"/>
        <path id="Trazado_608567" data-name="Trazado 608567" d="M151.861,117.605a27.841,27.841,0,0,1-3.915-.219c.5-.293,4.613-.1,5.528-.293.554-.108,1.151-.225,1.34-.574a1.731,1.731,0,0,0,.11-1.5,1.852,1.852,0,0,0-.979-.916,2.311,2.311,0,0,0-1.268-.077c-4.775.421-5.644-.511-5.73-.618.359-.246,1.217.587,5.344.228a3.326,3.326,0,0,1,1.835.077,2.26,2.26,0,0,1,1.192,1.136,2.155,2.155,0,0,1-.126,1.877c-.285.527-1,.667-1.476.761a10.151,10.151,0,0,1-1.855.12" fill="#1a1a1a"/>
        <path id="Trazado_608568" data-name="Trazado 608568" d="M150.682,120.974c-1.441,0-2.585-.089-2.605-.09.069-.426,3.5-.159,5.948-.561a1.689,1.689,0,0,0,1.6-1.834,2.117,2.117,0,0,0-1.011-1.384,1.473,1.473,0,0,1,1.437,1.321,2.1,2.1,0,0,1-1.959,2.321,22,22,0,0,1-3.412.227" fill="#1a1a1a"/>
        <path id="Trazado_608569" data-name="Trazado 608569" d="M154.524,138.116c-5.479-2.727-7.265-11.086-8.027-14.655-.133-.624-.238-1.118-.328-1.429.508.207.614.707.748,1.339.75,3.509,2.5,11.727,7.7,14.338.058.363-.018.407-.1.407" fill="#1a1a1a"/>
        <path id="Trazado_608570" data-name="Trazado 608570" d="M157.726,61.244a9.142,9.142,0,0,1-3.8-.876,15.962,15.962,0,0,1-6.11-5.087,33.929,33.929,0,0,1-5.133-10.249c-.35-1.068-.645-2.127-.958-3.249-.141-.507-.283-1.019-.432-1.534a38.1,38.1,0,0,1,4.627-1.5c.443-.122.886-.242,1.329-.369a.581.581,0,0,1,.7.237,43.241,43.241,0,0,0,8.1,8.147,3.232,3.232,0,0,0,2.971.617,10.523,10.523,0,0,0,3.162-1.447A41.267,41.267,0,0,0,168.85,40.4a123.978,123.978,0,0,0,10.519-11.932.733.733,0,0,1,.89-.3c1.515.433,3.032.853,4.55,1.272l1.575.436A102.125,102.125,0,0,1,173.358,49.9a48.378,48.378,0,0,1-8.467,8.337,25.991,25.991,0,0,1-3.3,2.017,8.267,8.267,0,0,1-3.867.985m-15.959-20.9c.128.446.251.889.374,1.329.311,1.117.6,2.172.952,3.23a33.512,33.512,0,0,0,5.067,10.123,15.521,15.521,0,0,0,5.946,4.956,7.943,7.943,0,0,0,7.287-.1,25.531,25.531,0,0,0,3.245-1.982,48.058,48.058,0,0,0,8.389-8.264,145.2,145.2,0,0,0,13.3-19.262,15.926,15.926,0,0,0-1.631-.517c-1.518-.419-3.038-.84-4.553-1.273-.215-.064-.286-.038-.434.15A124.1,124.1,0,0,1,169.151,40.7a41.686,41.686,0,0,1-6.744,5.592,10.849,10.849,0,0,1-3.289,1.5,3.67,3.67,0,0,1-3.341-.7A43.646,43.646,0,0,1,147.6,38.87a7.414,7.414,0,0,0-1.568.291Z" fill="#1a1a1a"/>
        <path id="Trazado_608571" data-name="Trazado 608571" d="M57.878,75.864a6.317,6.317,0,0,1,.372-2.758c.509-1.813,1.14-4.068.525-4.855-1.338-1.707-4.642-2.877-4.675-2.889.282-.356,3.6.818,5.014,2.626.75.956.112,3.229-.449,5.235a16.289,16.289,0,0,0-.573,2.445.214.214,0,0,1-.214.2" fill="#1a1a1a"/>
        <path id="Trazado_608572" data-name="Trazado 608572" d="M128.216,131.052a6.933,6.933,0,0,0,1.539-1.114l6.361-7.767c.3.245-6.062,8.013-6.062,8.013a2.367,2.367,0,0,1-1.838.868" fill="#1a1a1a"/>
        <path id="Trazado_608573" data-name="Trazado 608573" d="M139.858,118.1c-.15-.316,2.171-3.148,2.171-3.148a2,2,0,0,0-.279-2.8l-14.579-11.939c.245-.3,14.824,11.641,14.824,11.641a2.383,2.383,0,0,1,.333,3.347l-2.321,2.833a.194.194,0,0,1-.149.07" fill="#1a1a1a"/>
        <path id="Trazado_608574" data-name="Trazado 608574" d="M120.034,83.679c-2.878-.022-4.812-.8-5.752-2.3-1.481-2.375.064-5.652.131-5.791.372.219-1.122,3.391.235,5.565.857,1.373,2.669,2.079,5.388,2.1.212.335.116.43,0,.43" fill="#1a1a1a"/>
        <path id="Trazado_608575" data-name="Trazado 608575" d="M121.716,85.213c-.142-.054-1.826-1.591-1.826-1.591-.1-.186-.429-1.192,1.763-3.064a4.674,4.674,0,0,1,3.009-1.254c.115.042,1.962,1.379,1.962,1.379-.057.377-.867.7-2.68,2.161-1.785,1.439-2.016,2.2-2.018,2.21-.169.157-.189.159-.21.159m-1.488-1.863,1.416,1.291a8.063,8.063,0,0,1,2.031-2.132,16.863,16.863,0,0,1,2.407-1.688l-1.5-1.087a4.434,4.434,0,0,0-2.648,1.151c-1.711,1.461-1.727,2.282-1.705,2.465" fill="#1a1a1a"/>
        <path id="Trazado_608576" data-name="Trazado 608576" d="M110.443,82.7a9.143,9.143,0,0,1-.034-2.4c.429.035.248,2.208.248,2.208a.215.215,0,0,1-.214.2" fill="#1a1a1a"/>
        <path id="Trazado_608577" data-name="Trazado 608577" d="M126.876,99.113A6.891,6.891,0,0,1,121.5,96.6a3.9,3.9,0,0,1-.477-4.755c2.18-3.113.515-6.713.5-6.749.407-.147,2.179,3.674-.147,7a3.491,3.491,0,0,0,.461,4.24,6.674,6.674,0,0,0,7.837,1.791,6.174,6.174,0,0,0,4.087-4.979c.5-3.769-2.195-8.184-7.394-12.112,5.586,3.681,8.342,8.242,7.82,12.169a6.593,6.593,0,0,1-4.351,5.322,7.937,7.937,0,0,1-2.961.594" fill="#1a1a1a"/>
        <path id="Trazado_608578" data-name="Trazado 608578" d="M74.858,89.289c-2.518-2.755-4.826-8.728-4.642-10.3a1.6,1.6,0,0,1,1.325-1.453,1.265,1.265,0,0,1,.81-1.363,1.771,1.771,0,0,1,.665-.146,1.312,1.312,0,0,1,1,.591c.043.112,1.055,12.44,1.055,12.44-.157.228-.186.232-.214.232M72.986,76.455a1.177,1.177,0,0,0-.462.11.84.84,0,0,0-.515,1.09c-.244.283-1.241.316-1.366,1.383-.16,1.375,1.843,6.6,3.944,9.364l-.95-11.572a.849.849,0,0,0-.631-.373l-.02,0" fill="#1a1a1a"/>
        <path id="Trazado_608579" data-name="Trazado 608579" d="M81.057,83.2a2,2,0,0,1-1.017-.4l-3.515-.377a28.208,28.208,0,0,1-2.4-4.437c-.419-.93-.791-1.75-.519-2.4a1.336,1.336,0,0,1,.834-.711c1.393-.5,1.938.767,2.3,1.606.068.158.163.4.278.68a30.764,30.764,0,0,0,1.3,2.93,9.3,9.3,0,0,0,1.892,2.293l1.424.153c-.065.563-.305.665-.572.665M76.67,82l2.8.3a11.336,11.336,0,0,1-1.529-2,31.1,31.1,0,0,1-1.323-2.981c-.113-.281-.207-.517-.275-.673-.491-1.149-.9-1.678-1.755-1.371a.909.909,0,0,0-.582.475c-.2.473.127,1.194.367,1.72A41.789,41.789,0,0,0,76.67,82" fill="#1a1a1a"/>
        <path id="Trazado_608580" data-name="Trazado 608580" d="M84.506,85.144a9.03,9.03,0,0,1-.4-3.936l.027-.5c.431,0,.587,4.214.587,4.214-.194.223-.2.224-.215.224" fill="#1a1a1a"/>
        <path id="Trazado_608581" data-name="Trazado 608581" d="M74.408,83.728a18.456,18.456,0,0,1-1.616-2.813A20.826,20.826,0,0,1,71.6,77.782c.418-.1.968,1.775,1.576,2.933.748,1.429,1.424,2.7,1.424,2.7-.122.307-.156.316-.19.316" fill="#1a1a1a"/>
        <path id="Trazado_608582" data-name="Trazado 608582" d="M180.082,87.644a1.706,1.706,0,0,1-1.447-.63,1.251,1.251,0,0,1-.2-1.061c.044-.142.18-.2.4-.306a1.681,1.681,0,0,0,1.048-.939,23.174,23.174,0,0,0,.275-3.4c.428.117.378,2.682.137,3.515a2.088,2.088,0,0,1-1.283,1.212.539.539,0,0,0-.032.723,1.328,1.328,0,0,0,1.1.452c.209.337.113.43,0,.43" fill="#1a1a1a"/>
        <path id="Trazado_608583" data-name="Trazado 608583" d="M141.959,18.138a4.392,4.392,0,0,1-.624-.559.638.638,0,0,1,.78.2c-.05.342-.1.362-.156.362M139.733,15.9c-.743-.623-1.358-1.179-1.975-1.713a4.622,4.622,0,0,1,2.123,1.343c-.033.347-.09.37-.148.37m-3.748-3.231c-.773-.549-1.439-1.043-2.109-1.514a4.586,4.586,0,0,1,2.242,1.129c-.006.357-.069.385-.133.385m-4.046-2.847c-.81-.469-1.523-.891-2.235-1.286a4.56,4.56,0,0,1,2.349.889c.027.361-.043.4-.114.4m-4.326-2.4c-.838-.38-1.6-.717-2.342-1.025a4.515,4.515,0,0,1,2.435.616c.063.365-.014.409-.093.409m-4.575-1.882c-.835-.274-1.626-.518-2.421-.738a4.525,4.525,0,0,1,2.491.32c.1.363.019.418-.07.418m-4.769-1.31c-.85-.172-1.664-.315-2.466-.43a4.463,4.463,0,0,1,2.51,0c.146.355.056.425-.044.425" fill="#1a1a1a"/>
        <path id="Trazado_608584" data-name="Trazado 608584" d="M76.536,20.4a6.5,6.5,0,0,1,1.074-2.465,6.089,6.089,0,0,1-.885,2.35.21.21,0,0,1-.189.115m2.7-4.138a5.839,5.839,0,0,1,1.47-2.228,6.183,6.183,0,0,1-1.3,2.147.215.215,0,0,1-.168.081m3.41-3.575a5.462,5.462,0,0,1,1.8-1.938,6.089,6.089,0,0,1-1.658,1.884.22.22,0,0,1-.143.054m3.976-2.934a5.237,5.237,0,0,1,2.048-1.633,5.929,5.929,0,0,1-1.934,1.6.207.207,0,0,1-.114.033M91,7.454a5.081,5.081,0,0,1,2.216-1.346,5.742,5.742,0,0,1-2.129,1.327A.207.207,0,0,1,91,7.454m4.633-1.726a4.979,4.979,0,0,1,2.327-1.1,5.6,5.6,0,0,1-2.263,1.087.237.237,0,0,1-.064.01m4.79-1.232a4.862,4.862,0,0,1,2.4-.882,5.551,5.551,0,0,1-2.351.877.22.22,0,0,1-.044,0m4.881-.807c-.025-.429.469-.482.469-.482.045.427-.445.48-.445.48l-.024,0" fill="#1a1a1a"/>
        <path id="Trazado_608585" data-name="Trazado 608585" d="M164.077,106.978h-8.815c0-.43,8.815-.43,8.815-.43.215.333.118.43,0,.43" fill="#1a1a1a"/>
        <path id="Trazado_608586" data-name="Trazado 608586" d="M162.083,101.169h-8.614c0-.43,8.614-.43,8.614-.43.215.333.119.43,0,.43" fill="#1a1a1a"/>
        <path id="Trazado_608587" data-name="Trazado 608587" d="M164.077,106.978c-.205-.145-2.2-5.956-2.2-5.956.408-.139,2.4,5.671,2.4,5.671-.159.281-.181.285-.2.285" fill="#1a1a1a"/>
        <path id="Trazado_608588" data-name="Trazado 608588" d="M155.262,106.978c-.2-.145-2.2-5.956-2.2-5.956.408-.139,2.4,5.671,2.4,5.671-.156.281-.18.285-.2.285" fill="#1a1a1a"/>
        <path id="Trazado_608589" data-name="Trazado 608589" d="M185.942,107.781c-.184-.1-3.981-6.452-3.981-6.452l-3.378,4.691c-.389-.126-.389-9.539-.389-9.539.037-.12,1.767-2.68,1.767-2.68.386.066,2.126,6.7,2.126,6.7l6.323-6.8a22.357,22.357,0,0,1,2.771,2.63c.038.236-5.043,11.321-5.043,11.321a1.468,1.468,0,0,1-.2.126m-3.7-6.814,3.671,6.137,4.852-10.582-2.2-2.356Zm-3.621-4.42v8.681l3.121-4.334-1.693-6.459Z" fill="#1a1a1a"/>
        <path id="Trazado_608590" data-name="Trazado 608590" d="M183.147,113.769a44.691,44.691,0,0,1,2.116-7.095c-.079,1.261-.855,3.539-1.91,6.943a.216.216,0,0,1-.206.152" fill="#1a1a1a"/>
        <path id="Trazado_608591" data-name="Trazado 608591" d="M178.079,113.294a41.608,41.608,0,0,1,.421-7.862c.416.11-.071,2.549-.206,7.652a.216.216,0,0,1-.215.21" fill="#1a1a1a"/>
        <path id="Trazado_608592" data-name="Trazado 608592" d="M182.364,107.78l-2.468-.233a23.194,23.194,0,0,1-.45-3.373c.429-.035.67,2.961.67,2.961l2.145.2,1.884-2.612c.35.252-1.606,2.964-1.606,2.964a.217.217,0,0,1-.175.089" fill="#1a1a1a"/>
        <path id="Trazado_608593" data-name="Trazado 608593" d="M178.171,111.05c-.192-.311,1.553-3.813,1.553-3.813.385.192-1.36,3.693-1.36,3.693a.216.216,0,0,1-.193.12" fill="#1a1a1a"/>
        <path id="Trazado_608594" data-name="Trazado 608594" d="M183.035,110.341a18.107,18.107,0,0,1-.879-2.722c.416-.108,1.085,2.453,1.085,2.453-.171.266-.19.269-.206.269" fill="#1a1a1a"/>
        <path id="Trazado_608595" data-name="Trazado 608595" d="M157.777,84.587H141.5c0-.43,16.276-.43,16.276-.43.215.334.118.43,0,.43" fill="#1a1a1a"/>
        <path id="Trazado_608596" data-name="Trazado 608596" d="M157.777,88.849H141.5c0-.43,16.276-.43,16.276-.43.215.333.118.43,0,.43" fill="#1a1a1a"/>
        <path id="Trazado_608597" data-name="Trazado 608597" d="M157.777,92.86H141.5c0-.43,16.276-.43,16.276-.43.215.333.118.43,0,.43" fill="#1a1a1a"/>
        <path id="Trazado_608598" data-name="Trazado 608598" d="M99.693,63.877H90.161c-.215-.215-.215-9.748-.215-9.748.215-.215,9.747-.215,9.747-.215.216.215.216,9.748.216,9.748a.216.216,0,0,1-.216.215m-9.317-.431h9.1v-9.1h-9.1Z" fill="#1a1a1a"/>
        <path id="Trazado_608599" data-name="Trazado 608599" d="M75.261,117.532H68.123c-.217-.217-.217-7.355-.217-7.355.217-.217,7.355-.217,7.355-.217.217.217.217,7.355.217,7.355a.216.216,0,0,1-.217.217M68.34,117.1h6.705v-6.7H68.34Z" fill="#1a1a1a"/>
        <path id="Trazado_608600" data-name="Trazado 608600" d="M25.648,60.814c-.136-.384,1.6-2.128,5.659-6.323,5.837-6.027,13.415-.712,13.489-.658l7.446,4.433a8.733,8.733,0,0,0,2.371.925,3.674,3.674,0,0,1-2.591-.554l-7.46-4.444c-.088-.062-7.367-5.164-12.945.6-4.064,4.2-5.8,5.944-5.816,5.961a.218.218,0,0,1-.153.063" fill="#1a1a1a"/>
        <path id="Trazado_608601" data-name="Trazado 608601" d="M85.2,62.552c-.1-.023-9.381-4.767-9.381-4.767a12.263,12.263,0,0,0-8.317-.612l-6.96,2.361a8.868,8.868,0,0,1-2.462.426,12.2,12.2,0,0,1,2.325-.833l6.958-2.362a12.781,12.781,0,0,1,8.651.637L85.3,62.145c.055.364-.02.407-.1.407" fill="#1a1a1a"/>
        <path id="Trazado_608602" data-name="Trazado 608602" d="M75.758,43.61a5.551,5.551,0,1,1,5.549-5.551,5.559,5.559,0,0,1-5.549,5.551m0-10.672a5.121,5.121,0,1,0,5.119,5.121,5.128,5.128,0,0,0-5.119-5.121" fill="#1a1a1a"/>
        <path id="Trazado_608603" data-name="Trazado 608603" d="M89.7,115.291a7.15,7.15,0,0,1,6.818-4.222,7.919,7.919,0,0,1,6.944,3.824,8.99,8.99,0,0,0-6.944-3.417,7.48,7.48,0,0,0-6.639,3.709.2.2,0,0,1-.179.106" fill="#1a1a1a"/>
        <path id="Trazado_608604" data-name="Trazado 608604" d="M43.7,108.784a7.39,7.39,0,0,1,4.275-6.865,7.921,7.921,0,0,1,7.923.283,9,9,0,0,0-7.739.081,7.488,7.488,0,0,0-4.255,6.305.2.2,0,0,1-.2.2" fill="#1a1a1a"/>
        <path id="Trazado_608605" data-name="Trazado 608605" d="M166.364,113.769H155.5c0-.43,10.863-.43,10.863-.43.215.333.119.43,0,.43" fill="#1a1a1a"/>
        <path id="Trazado_608606" data-name="Trazado 608606" d="M167.885,116.885H157.021c0-.43,10.864-.43,10.864-.43.215.334.118.43,0,.43" fill="#1a1a1a"/>
        <path id="Trazado_608607" data-name="Trazado 608607" d="M169.4,120.04H158.537c0-.43,10.863-.43,10.863-.43.215.334.119.43,0,.43" fill="#1a1a1a"/>
        <path id="Trazado_608608" data-name="Trazado 608608" d="M164.317,137.955a44.614,44.614,0,0,1-.215-5.247c.43,0,.43,5.032.43,5.032a.215.215,0,0,1-.215.215" fill="#1a1a1a"/>
      </g>
    </g>
  </g>
</svg>
