<svg xmlns="http://www.w3.org/2000/svg" xmlns:xlink="http://www.w3.org/1999/xlink" width="142" height="142" viewBox="0 0 142 142">
  <defs>
    <clipPath id="clip-path">
      <rect id="Rect치ngulo_377439" data-name="Rect치ngulo 377439" width="76.687" height="85.269" fill="none"/>
    </clipPath>
  </defs>
  <g id="Grupo_1072955" data-name="Grupo 1072955" transform="translate(-420 -699)">
    <g id="Grupo_1071523" data-name="Grupo 1071523" transform="translate(-608.999 -6323)">
      <g id="Grupo_1015037" data-name="Grupo 1015037" transform="translate(1028.999 7022)">
        <g id="Grupo_159183" data-name="Grupo 159183" transform="translate(0 0)">
          <g id="Grupo_1015569" data-name="Grupo 1015569">
            <g id="Grupo_1015568" data-name="Grupo 1015568">
              <path id="Uni칩n_12" data-name="Uni칩n 12" d="M101.655,135.059a71.06,71.06,0,1,1,23.7-18.381L135.108,142Z" fill="#a3bfe4"/>
              <path id="Trazado_606158" data-name="Trazado 606158" d="M55.281,0A55.281,55.281,0,1,1,0,55.281,55.281,55.281,0,0,1,55.281,0Z" transform="translate(15.831 15.83)" fill="#e3ecf7"/>
            </g>
          </g>
        </g>
      </g>
    </g>
    <g id="Grupo_1072957" data-name="Grupo 1072957" transform="translate(448.503 723.065)">
      <g id="Grupo_1072956" data-name="Grupo 1072956" clip-path="url(#clip-path)">
        <path id="Trazado_819197" data-name="Trazado 819197" d="M20.476,73.633c.076-.718.018-1.438.031-2.157a6.105,6.105,0,0,1,.191-2.162,4.226,4.226,0,0,1,4.011-2.828c1.247-.033,2.5-.009,3.745-.011.163,0,.3.02.4-.191.813-1.74,1.658-3.465,2.464-5.207C32.187,59.2,33.06,57.331,34,55.493a2.642,2.642,0,0,0,.388-1.685.055.055,0,0,0,0-.073c.008-.39.027-.78.017-1.172-.017-.695.109-1.388.134-2.08.026-.729.1-1.456.121-2.187a19.371,19.371,0,0,1,.136-2.366,5.388,5.388,0,0,0,.013-.828,9.305,9.305,0,0,1,.383-2.026c.189-.883.5-1.735.712-2.616.192-.81.464-1.6.722-2.4.056-.172.066-.348.115-.515A1.348,1.348,0,0,1,38.3,36.505a1.2,1.2,0,0,1,.883,1.677c-.276,1.237-.681,2.446-1.027,3.668-.032.113-.168.23-.064.343s.238,0,.344-.039c1.679-.681,3.354-1.371,5.034-2.049a.669.669,0,0,0,.422-.467c.187-.608.386-1.212.588-1.816.42-1.259.846-2.515,1.268-3.773.092-.273.043-.359-.184-.34a1.294,1.294,0,0,1-1.4-.837,1.173,1.173,0,0,1,.557-1.441c.432-.293.886-.554,1.333-.825,2.84-1.726,5.687-3.44,8.517-5.183a11.966,11.966,0,0,0,2.922-2.033,4.647,4.647,0,0,0,1.3-2.889c.018-.357-.089-.357-.364-.205-1.233.681-2.474,1.346-3.712,2.018q-5.91,3.208-11.821,6.414a2.906,2.906,0,0,0-1.282,1.367,15.79,15.79,0,0,0-.9,2.743c-.3,1.137-.864,1.483-1.743,1.266a1.244,1.244,0,0,1-.733-1.577A13.207,13.207,0,0,1,39.9,28.22c.1-.145.1-.236-.059-.337a4.073,4.073,0,0,1-1.361-1.595,21.772,21.772,0,0,1-1.714-3.468,3.443,3.443,0,0,1,.16-2.463,4.056,4.056,0,0,1,2.083-2.093,8.734,8.734,0,0,1,2.1-.862,1.976,1.976,0,0,1,.442-.047,5.513,5.513,0,0,1,1.328.163,3.352,3.352,0,0,1,1.9,1.338,19.881,19.881,0,0,1,2.1,4.071c.272.7.226.7.874.344q2.713-1.509,5.436-3,1.976-1.082,3.967-2.134c.186-.1.239-.181.139-.353-.128-.219.089-.377.089-.592-.019-5.174-.013-10.348-.02-15.522a1.912,1.912,0,0,1,.2-1.139A1.333,1.333,0,0,1,58.945.042a1.161,1.161,0,0,1,.841,1.042c.026.773.026.771.8.771,4.675,0,9.35.009,14.024-.008a2.018,2.018,0,0,1,1.814.876,1.525,1.525,0,0,1,.194.92c.025,1.287-1.1,1.755-1.817,2.5-.653.682-1.414,1.26-2.132,1.878-.169.146-.153.228.017.377.919.805,1.821,1.631,2.735,2.441a5.858,5.858,0,0,1,.943.934,1.768,1.768,0,0,1-1.3,2.773,4.4,4.4,0,0,1-.664.03q-6.6,0-13.192,0-.129-.266-.256,0c-.353.027-.8-.159-1.034.073-.211.214-.04.659-.062,1a5.287,5.287,0,0,1-.045.827c-.066.286.087.426.288.44.757.055.957.619,1.09,1.195a6.418,6.418,0,0,1,.135,2.213c-.171.057-.17.15-.057.267-.063.385-.1.777-.195,1.155a7.855,7.855,0,0,1-1.1,2.444.947.947,0,0,0-.113.557q0,9.614,0,19.227c0,.609-.059,1.213-.082,1.82-.013.35.1.449.446.447,2.317-.015,4.633,0,6.95-.009a4.421,4.421,0,0,1,3.448,1.441,4.1,4.1,0,0,1,.907,1.9,9.15,9.15,0,0,1,.1,1.935q0,15.189,0,30.379c0,.814,0,.814.821.817.9,0,1.792-.016,2.686.053a1.172,1.172,0,0,1,.963.956c.06.724-.245,1.275-.85,1.369a4.854,4.854,0,0,1-1.972.111,1.221,1.221,0,0,0-.29,0H51.809q-25.054,0-50.107,0c-.455,0-.929.075-1.3-.36a1.277,1.277,0,0,1-.288-1.44,1.23,1.23,0,0,1,1.2-.687c.819,0,1.637-.012,2.455,0,.357.006.5-.093.509-.487q.031-1.852-.005-3.7a1.624,1.624,0,0,0-.04-.241.376.376,0,0,0,.046-.423,3.958,3.958,0,0,1,1.1-2.558,3.868,3.868,0,0,1,2.934-1.321c3.5-.026,7.01-.015,10.515,0a5.015,5.015,0,0,1,1.586.334c.019.086.07.055.1.02s.064-.086-.018-.111q-.014-.216-.027-.432c.1-.051.1-.1,0-.15m16.289-6.918v-2a16.51,16.51,0,0,0-1.31,1.54c-.075.1-.121.227.034.262a3.1,3.1,0,0,0,1.241.27c.012,0,.033,0,.034-.009a.35.35,0,0,0,0-.062m5.12-8.306c1.136.006,2.273.007,3.409.023.2,0,.257-.047.264-.25.015-.511-.094-1.011-.111-1.521-.022-.662-.147-1.32-.221-1.981-.086-.763-.148-1.527-.193-2.294-.013-.213-.056-.432-.071-.65-.022-.307-.429-.727-.68-.657-.274.077-.2.359-.228.573-.038.352-.168.683-.208,1.04-.052.466-.2.924-.274,1.384a5.5,5.5,0,0,1-1.037,2.8,9.682,9.682,0,0,1-1.215,1.5l.487.025c.024.032.049.039.077,0M72.067,12.058c.2.007.41.025.613.014.081,0,.24.106.243-.1-.852-.772-1.7-1.545-2.556-2.313a1.774,1.774,0,0,1-.01-2.9c.864-.77,1.744-1.522,2.624-2.287-.1-.169-.283-.107-.437-.107q-6.178,0-12.355,0c-.243,0-.342.048-.341.32.009,2.329,0,4.659,0,6.989,0,.145-.05.316.145.392v0l.333.024h2.2l9.541-.019M57.314,26.741c-.092-.069-.149.013-.214.052q-1.514.913-3.028,1.827-2.3,1.383-4.61,2.759a.91.91,0,0,0-.429.473c-.267.686-.434,1.4-.66,2.1-.6,1.838-1.124,3.7-1.853,5.489a1.809,1.809,0,0,0,.454,2.236c1.614,1.734,3.122,3.564,4.583,5.43a4.31,4.31,0,0,1,.876,3.723c-.261,1.211-.333,2.447-.526,3.668-.188,1.19-.185,2.413-.444,3.6-.057.26.076.446.315.448.407,0,.753.242,1.2.249V51.232c.008-.007.024-.018.023-.021a.494.494,0,0,0-.034-.053,6.529,6.529,0,0,1,.02-1.368,4.287,4.287,0,0,1,4.1-3.546c.246-.011.3-.093.3-.318-.017-.637-.019-1.275-.02-1.913q-.007-8.587-.012-17.173c.025-.046.017-.081-.036-.1M54.291,70.218A1.3,1.3,0,0,1,52.963,68.9c-.01-1.886-.022-3.773.012-5.658a3.379,3.379,0,0,0-.145-1.065A1.794,1.794,0,0,0,50.9,60.939q-3.349-.007-6.7.007c-1.151,0-2.3-.005-3.453.028A1.579,1.579,0,0,0,39.3,62.2a3.231,3.231,0,0,0-.081.783q0,9.631-.009,19.263c0,.379.121.461.475.46q6.428-.015,12.856,0c.367,0,.424-.122.422-.449-.013-2.26-.008-4.521-.007-6.782a1.348,1.348,0,0,1,1.331-1.532,1.393,1.393,0,0,1,1.162,1.609c0,2.261,0,4.522-.011,6.783,0,.3.075.369.367.368q6.45-.016,12.9,0c.378,0,.491-.086.49-.48q-.017-8.406,0-16.812,0-7.324-.01-14.648a1.821,1.821,0,0,0-2.063-2.041c-1.956-.006-3.912,0-5.867,0-1.345,0-2.691-.011-4.036.012a1.669,1.669,0,0,0-1.6,1,2.617,2.617,0,0,0-.169,1.14q0,8.885,0,17.769a1.372,1.372,0,0,1-1.163,1.569m-24.43,12.5V82.7q3.057,0,6.115,0c.75,0,.751,0,.751-.764q0-5.407,0-10.815a1.922,1.922,0,0,0-2.164-2.166c-1.26.046-2.523.013-3.785.013-1.969,0-3.938-.007-5.906,0A1.743,1.743,0,0,0,23,70.717c-.009,3.882,0,7.764-.009,11.647,0,.261.058.359.345.357,2.177-.012,4.354-.007,6.53-.007m-16.235.008v-.015c2.177,0,4.355,0,6.533.006.25,0,.348-.059.346-.317-.009-1.331.021-2.664-.015-3.994a1.84,1.84,0,0,0-2.03-1.952c-1.081.022-2.164,0-3.246,0-2.192,0-4.384-.006-6.575,0a1.677,1.677,0,0,0-1.862,1.6c-.07,1.453-.019,2.912-.033,4.369,0,.241.071.306.307.3,2.192-.008,4.383,0,6.575,0M43.05,43.326c.077-.376-.093-.332-.314-.242-1.555.636-3.1,1.3-4.675,1.887-.582.218-.86.5-.754,1.134.03.18-.073.379-.069.568.029,1.453-.18,2.892-.241,4.339-.04.941-.065,1.884-.091,2.826a6.552,6.552,0,0,1-.635,2.691q-2.255,4.722-4.5,9.448c-.07.147-.255.325-.048.474a.448.448,0,0,0,.575-.071,1.989,1.989,0,0,0,.269-.314c1.191-1.6,2.372-3.208,3.571-4.8,1.152-1.532,2.33-3.045,3.482-4.577a6.606,6.606,0,0,0,1.527-2.86c.431-2.579.925-5.147,1.395-7.719.171-.939.343-1.878.507-2.782m2.486.437c-.279,1.509-.538,2.906-.8,4.3a.427.427,0,0,0,.222.488c.437.267.871.54,1.3.827a2.528,2.528,0,0,1,1.136,1.852c.278,2.252.485,4.511.668,6.772.029.365.2.425.5.444.331.021.435-.14.471-.434.3-2.456.579-4.915.918-7.366a2.87,2.87,0,0,0-.549-2.254c-.7-.935-1.488-1.79-2.217-2.7-.51-.636-1.057-1.242-1.651-1.935m-6.4-21.9a1.6,1.6,0,0,0,.26.817c.41.844.83,1.685,1.272,2.513a1.45,1.45,0,0,0,2.143.745c.348-.169.689-.351,1.03-.534a1.381,1.381,0,0,0,.655-1.888A21.238,21.238,0,0,0,42.92,20.46a1.332,1.332,0,0,0-1.639-.541,6.936,6.936,0,0,0-1.516.758,1.437,1.437,0,0,0-.635,1.185" transform="translate(0 0)"/>
        <path id="Trazado_819198" data-name="Trazado 819198" d="M114.892,74.4c.879.217,1.444-.129,1.743-1.266a15.789,15.789,0,0,1,.9-2.743,2.906,2.906,0,0,1,1.282-1.367q5.912-3.2,11.821-6.414c1.238-.672,2.479-1.337,3.712-2.018.275-.152.381-.152.364.205a4.648,4.648,0,0,1-1.3,2.889,11.976,11.976,0,0,1-2.922,2.033c-2.83,1.743-5.677,3.457-8.516,5.183-.447.271-.9.532-1.333.825a1.174,1.174,0,0,0-.557,1.441,1.3,1.3,0,0,0,1.4.837c.227-.019.275.067.184.34q-.634,1.887-1.268,3.773c-.2.6-.4,1.208-.588,1.816a.668.668,0,0,1-.422.467c-1.68.678-3.355,1.368-5.034,2.049-.106.043-.239.154-.344.039s.032-.231.064-.343c.346-1.222.751-2.43,1.027-3.668a1.2,1.2,0,0,0-.884-1.677,5.757,5.757,0,0,0,.62-1.752,1.924,1.924,0,0,0,.055-.65" transform="translate(-75.92 -40.3)" fill="#88b3c8"/>
        <path id="Trazado_819199" data-name="Trazado 819199" d="M12.56,233.189a.375.375,0,0,1-.046.423c-.1-.154-.148-.3.046-.423" transform="translate(-8.277 -155.335)" fill="#6089aa"/>
        <path id="Trazado_819200" data-name="Trazado 819200" d="M182.554,43.4c.084-.178.17-.178.256,0a.269.269,0,0,1-.256,0" transform="translate(-121.605 -28.819)" fill="#6089aa"/>
        <path id="Trazado_819201" data-name="Trazado 819201" d="M183.337,61.154c-.113-.117-.114-.211.057-.267.078.11-.039.178-.057.267" transform="translate(-122.074 -40.559)" fill="#6089aa"/>
        <path id="Trazado_819202" data-name="Trazado 819202" d="M61.17,220.546c.1.049.1.1,0,.15q-.162-.074,0-.15" transform="translate(-40.694 -146.913)" fill="#6089aa"/>
        <path id="Trazado_819203" data-name="Trazado 819203" d="M61.244,222.289c.082.024.05.076.018.111s-.084.066-.1-.02a.076.076,0,0,1,.085-.091" transform="translate(-40.74 -148.074)" fill="#6089aa"/>
        <path id="Trazado_819204" data-name="Trazado 819204" d="M102.882,160.944a.054.054,0,0,1,0,.073l-.061-.051.061-.022" transform="translate(-68.492 -107.21)" fill="#6089aa"/>
        <path id="Trazado_819205" data-name="Trazado 819205" d="M162.612,167.429a1.372,1.372,0,0,0,1.163-1.569q0-8.885,0-17.769a2.613,2.613,0,0,1,.17-1.14,1.667,1.667,0,0,1,1.6-1c1.345-.023,2.691-.012,4.036-.013,1.956,0,3.912-.005,5.867,0a1.821,1.821,0,0,1,2.063,2.041q.019,7.324.01,14.648,0,8.406,0,16.812c0,.394-.113.481-.49.48q-6.45-.018-12.9,0c-.292,0-.369-.07-.367-.368.016-2.261.012-4.522.011-6.783a1.393,1.393,0,0,0-1.162-1.609q0-1.865,0-3.73" transform="translate(-108.321 -97.212)" fill="#6089aa"/>
        <path id="Trazado_819206" data-name="Trazado 819206" d="M132.53,191.8q0,1.865,0,3.73a1.348,1.348,0,0,0-1.331,1.532c0,2.261-.007,4.521.007,6.782,0,.328-.055.451-.422.45q-6.428-.022-12.856,0c-.355,0-.476-.081-.475-.46q.019-9.631.009-19.263a3.236,3.236,0,0,1,.081-.783,1.579,1.579,0,0,1,1.45-1.227c1.15-.033,2.3-.025,3.453-.028q3.349-.008,6.7-.007a1.794,1.794,0,0,1,1.926,1.242,3.379,3.379,0,0,1,.145,1.065c-.034,1.886-.022,3.772-.012,5.658a1.3,1.3,0,0,0,1.328,1.313" transform="translate(-78.239 -121.581)" fill="#6b95b3"/>
        <path id="Trazado_819207" data-name="Trazado 819207" d="M75.724,220.29c-2.177,0-4.354-.006-6.53.007-.286,0-.345-.1-.345-.357.007-3.882,0-7.764.009-11.647a1.743,1.743,0,0,1,1.873-1.747c1.969-.007,3.938,0,5.906,0,1.262,0,2.525.033,3.785-.013a1.922,1.922,0,0,1,2.164,2.166q0,5.407,0,10.815c0,.769,0,.765-.751.764q-3.057,0-6.115,0v.013" transform="translate(-45.863 -137.577)" fill="#88b3c8"/>
        <path id="Trazado_819208" data-name="Trazado 819208" d="M179.734,20.754l-.333-.023v0c-.195-.076-.145-.247-.145-.392,0-2.329.005-4.659,0-6.989,0-.271.1-.32.341-.319q6.177.007,12.355,0c.153,0,.334-.062.437.107-.879.765-1.759,1.517-2.624,2.287a1.774,1.774,0,0,0,.011,2.9c.855.768,1.7,1.542,2.555,2.313-.274.14-.573.042-.856.09l-9.542.019h-2.195" transform="translate(-119.404 -8.677)" fill="#fcb558"/>
        <path id="Trazado_819209" data-name="Trazado 819209" d="M27.073,235.248c-2.192,0-4.383,0-6.575,0-.236,0-.309-.064-.307-.3.014-1.456-.037-2.915.033-4.369a1.677,1.677,0,0,1,1.862-1.6c2.192-.01,4.383,0,6.575,0,1.082,0,2.164.018,3.246,0a1.84,1.84,0,0,1,2.03,1.952c.036,1.331.006,2.663.015,3.994,0,.258-.1.318-.346.317-2.177-.011-4.355-.006-6.533-.006v.015" transform="translate(-13.447 -152.528)" fill="#88b3c8"/>
        <path id="Trazado_819210" data-name="Trazado 819210" d="M106.155,129.162c-.165.9-.337,1.844-.507,2.782-.469,2.572-.964,5.14-1.395,7.719a6.61,6.61,0,0,1-1.526,2.861c-1.152,1.532-2.33,3.045-3.482,4.576-1.2,1.594-2.38,3.2-3.571,4.8a1.973,1.973,0,0,1-.269.314.448.448,0,0,1-.575.071c-.207-.15-.022-.328.048-.475q2.245-4.727,4.5-9.448a6.547,6.547,0,0,0,.635-2.691c.025-.942.051-1.885.091-2.826.062-1.447.271-2.886.241-4.339,0-.189.1-.388.069-.568-.106-.631.172-.916.754-1.134,1.573-.59,3.119-1.251,4.675-1.887.221-.09.391-.135.314.242" transform="translate(-63.105 -85.836)" fill="#6089aa"/>
        <path id="Trazado_819211" data-name="Trazado 819211" d="M134.777,131.078c.594.693,1.14,1.3,1.651,1.935.729.907,1.519,1.762,2.217,2.7a2.872,2.872,0,0,1,.549,2.255c-.34,2.45-.621,4.909-.919,7.365-.035.294-.14.454-.471.434-.3-.019-.471-.079-.5-.443-.182-2.261-.389-4.521-.667-6.773A2.528,2.528,0,0,0,135.5,136.7c-.424-.287-.859-.56-1.3-.827a.427.427,0,0,1-.222-.488c.258-1.4.516-2.793.8-4.3" transform="translate(-89.242 -87.315)" fill="#6089aa"/>
        <path id="Trazado_819212" data-name="Trazado 819212" d="M117.2,61.426a1.437,1.437,0,0,1,.635-1.185,6.936,6.936,0,0,1,1.516-.758,1.332,1.332,0,0,1,1.639.541,21.238,21.238,0,0,1,1.571,3.056,1.381,1.381,0,0,1-.655,1.888c-.34.184-.682.365-1.03.534a1.45,1.45,0,0,1-2.143-.745c-.442-.828-.862-1.669-1.272-2.513a1.6,1.6,0,0,1-.26-.817" transform="translate(-78.069 -39.564)" fill="#fcb558"/>
        <path id="Trazado_819213" data-name="Trazado 819213" d="M215.854,35.935c.283-.048.582.049.856-.09,0,.21-.162.1-.243.1-.2.011-.409-.007-.613-.014" transform="translate(-143.787 -23.878)" fill="#6089aa"/>
        <path id="Trazado_819214" data-name="Trazado 819214" d="M125.224,174.931l.077,0c-.028.035-.053.027-.077,0" transform="translate(-83.416 -116.527)" fill="#6089aa"/>
        <path id="Trazado_819215" data-name="Trazado 819215" d="M171.681,80.193c-.043-.022-.061-.053-.036-.1.054.018.061.053.036.1" transform="translate(-114.331 -53.353)" fill="#88b3c8"/>
        <path id="Trazado_819216" data-name="Trazado 819216" d="M180.694,36.174h0" transform="translate(-120.364 -24.097)" fill="#6089aa"/>
        <path id="Trazado_819217" data-name="Trazado 819217" d="M179.7,36.107v0" transform="translate(-119.705 -24.05)" fill="#6089aa"/>
        <path id="Trazado_819218" data-name="Trazado 819218" d="M158.632,153.3a.049.049,0,0,1-.011-.074.49.49,0,0,1,.033.053s-.015.014-.022.021" transform="translate(-105.654 -102.07)" fill="#6089aa"/>
      </g>
    </g>
  </g>
</svg>
