<svg xmlns="http://www.w3.org/2000/svg" xmlns:xlink="http://www.w3.org/1999/xlink" width="146" height="146" viewBox="0 0 146 146">
  <defs>
    <clipPath id="clip-path">
      <rect id="Rectángulo_346180" data-name="Rectángulo 346180" width="94.367" height="94.26" fill="none"/>
    </clipPath>
  </defs>
  <g id="Grupo_1072952" data-name="Grupo 1072952" transform="translate(-285 -9975)">
    <circle id="Elipse_4744" data-name="Elipse 4744" cx="73" cy="73" r="73" transform="translate(285 9975)" fill="#fff198"/>
    <g id="Grupo_1016991" data-name="Grupo 1016991" transform="translate(312.966 10000.019)">
      <g id="Grupo_1016990" data-name="Grupo 1016990" clip-path="url(#clip-path)">
        <path id="Trazado_608453" data-name="Trazado 608453" d="M59.34,83.531a4.708,4.708,0,0,1-2.854,4.277,1.9,1.9,0,0,0-.959,1.063,9.258,9.258,0,0,1-16.774.052,2.576,2.576,0,0,0-1.206-1.23,4.4,4.4,0,0,1-1.909-6.412c.267-.489.431-.822.044-1.336a4.338,4.338,0,0,1-.732-2.9c-.519-.106-.68.348-.934.593a35.636,35.636,0,0,0-3.1,3.122A26.7,26.7,0,0,1,17.766,89.4c-3.968,1.267-7.816,2.916-11.7,4.428A4.181,4.181,0,0,1,.419,88.243Q3.93,79.173,7.4,70.087a5.2,5.2,0,0,1,1.245-1.865c3.952-3.922,7.863-7.885,11.841-11.78a1.684,1.684,0,0,0,.478-2.087,20.307,20.307,0,0,1-.973-10.29c.169-1.146-.062-1.552-1.331-1.511-3.137.1-6.279.047-9.419.03A9.085,9.085,0,0,1,.275,35.643,8.963,8.963,0,0,1,5.427,25.161a1.226,1.226,0,0,0,.884-1.571A15.119,15.119,0,0,1,34,13.09a1.644,1.644,0,0,0,1.961.844c4.967-.821,8.925.926,11.913,4.893A2.417,2.417,0,0,0,49.8,19.975a18,18,0,0,1,5.032.971c.747.262,1.2-.085,1.706-.59q8.3-8.341,16.645-16.64A12.276,12.276,0,1,1,90.513,21.11q-8.155,8.272-16.421,16.434A1.958,1.958,0,0,0,73.45,39.9a13.854,13.854,0,0,1,.81,4.452c0,1.007.428,1.481,1.458,1.267,1.582-.33,2.023.388,1.82,1.855a5.208,5.208,0,0,0,.093,1.959c.61,2.382,3.327,2.909,5.247,1.052s1.925-1.861,3.775-.014c1.289,1.288,2.538,2.62,3.88,3.849.681.623.59,1.009-.041,1.542a14.684,14.684,0,0,0-1.5,1.5,2.745,2.745,0,0,0-.569,3.079,2.961,2.961,0,0,0,2.528,1.884c.1.014.2,0,.3.009.949.036,2.232-.288,2.763.2.65.6.185,1.9.207,2.9.036,1.67-.026,3.343.026,5.013.024.765-.157,1.1-.99,1.024a12.426,12.426,0,0,0-2.276,0,2.827,2.827,0,0,0-2.55,1.837,2.883,2.883,0,0,0,.525,3.1c.67.842,2.164,1.434,1.962,2.432-.186.915-1.425,1.621-2.208,2.411-1.069,1.079-2.173,2.123-3.206,3.236-.525.566-.893.678-1.43.026a14.283,14.283,0,0,0-1.612-1.606,2.737,2.737,0,0,0-3.084-.54,2.937,2.937,0,0,0-1.854,2.549c-.006.05,0,.1-.005.152-.081,1,.446,2.4-.213,2.884-.7.515-2.023.2-3.074.214-1.62.018-3.243-.042-4.861.024-.822.034-1.053-.247-.992-1.023a12.932,12.932,0,0,0-.009-2.276A2.831,2.831,0,0,0,66.51,82.37a2.8,2.8,0,0,0-3.085.561c-.229.2-.436.422-.652.635-1.589,1.57-1.589,1.57-3.433-.036m-29.852-44h3.949c5.569,0,11.139.033,16.708-.018a4.549,4.549,0,0,0,4.548-4.225,4.6,4.6,0,0,0-3.644-4.743c-2.055-.479-4.623.761-5.048,2.849-.348,1.715-1.271,1.624-2.511,1.632-.867.006-1.042-.3-.909-1.054a6.89,6.89,0,0,1,2.934-4.933A3.342,3.342,0,0,0,47.1,25.754,9.15,9.15,0,0,0,39,16.821a9.247,9.247,0,0,0-9.712,6.367,1.3,1.3,0,0,0,.835,1.866A5.749,5.749,0,0,1,33.4,29.5c.056.3.266.831-.218.895a10.046,10.046,0,0,1-2.423.014c-.655-.074-.435-.8-.654-1.215a3.038,3.038,0,0,0-2.624-1.774A2.449,2.449,0,0,0,24.8,29c-.377,1.678-1.428,1.407-2.56,1.467-1.01.054-1.071-.4-.885-1.173a6.1,6.1,0,0,1,3.561-4.418c.479-.214,1.013-.327,1.125-1.045A11.626,11.626,0,0,1,31.2,15.8c.553-.381.476-.707.15-1.232a12.142,12.142,0,0,0-22.172,7.9c.154,1.236.488,1.946,1.974,2.184a8.82,8.82,0,0,1,7.065,7.866c.023.328.289.78-.356.97a2.1,2.1,0,0,1-2.933-1.545A5.719,5.719,0,0,0,10.1,27.517a5.638,5.638,0,0,0-5.745,2.278,5.652,5.652,0,0,0-.66,6.263,5.85,5.85,0,0,0,5.6,3.463c6.733.034,13.467.012,20.2.012M48.932,57.786q-3.8,0-7.594,0c-1,0-1.741.44-1.769,1.459-.03,1.112.74,1.576,1.8,1.576.861,0,1.722-.011,2.582,0A4.517,4.517,0,0,1,48.637,65.5c.025,2.177.029,4.354-.008,6.531-.012.691.135.988.906.964,1.77-.055,3.544-.049,5.315,0,.7.02.915-.321,1.177-.886a22.23,22.23,0,0,1,4.239-6.056c1.825-1.894,3.7-3.741,5.551-5.607A18.364,18.364,0,0,0,70.97,42.63c-2.329-10.451-8.913-16.9-19.351-19.372-1.57-.372-1.683-.26-1.51,1.293a6.361,6.361,0,0,1,.032,1.666c-.145.918.181,1.117,1.087,1.255a7.588,7.588,0,0,1,.1,15.014,41.642,41.642,0,0,1-5,.1c-1.2.023-2.826-.394-3.5.221-.8.728-.222,2.378-.244,3.625-.032,1.761.461,2.219,2.248,2.223,3.746.009,7.493-.012,11.239.008a4.56,4.56,0,1,1,.006,9.113c-2.379.021-4.759,0-7.138.005m-.663-3.045c2.429,0,4.859-.018,7.287.008,1.127.012,2.154-.225,2.146-1.537s-1.047-1.521-2.168-1.514c-3.8.022-7.591.031-11.387,0a4.493,4.493,0,0,1-4.625-4.577c-.025-1.214-.027-2.43,0-3.643.016-.6-.081-.909-.805-.905-4.909.029-9.818.02-14.726.009-.55,0-.8.175-.884.758-.857,5.763.094,11.042,3.99,15.6,1.417,1.656,2.965,3.177,4.514,4.7,2.638,2.594,5.185,5.258,6.688,8.716a.951.951,0,0,0,1.042.637c1.771-.027,3.543-.04,5.313,0,.7.017.973-.157.956-.914-.049-2.124-.014-4.251-.019-6.376a1.644,1.644,0,0,0-1.888-1.839c-.86.006-1.721.014-2.581,0a4.558,4.558,0,1,1,.007-9.114c2.378-.027,4.757-.006,7.135-.006M62.245,68.58a17.447,17.447,0,0,0-3.651,5.509c-.116.282-.267.549-.061.854a5.3,5.3,0,0,1,.753,3.475c-.068,1.053.991,1.45,1.608,2.05.485.472.853-.268,1.233-.512A6.051,6.051,0,0,1,71.4,84.182c.2,1.324.949.879,1.579.9.658.023,1.353.344,1.546-.935a5.95,5.95,0,0,1,9.374-4.023c1.035.732,1.358.122,1.936-.392.649-.576.978-.97.3-1.935a5.967,5.967,0,0,1,3.983-9.314c1.334-.2,1.025-.9,1.033-1.628.008-.693.251-1.33-.976-1.521A5.952,5.952,0,0,1,86.2,55.939c.67-.955.2-1.3-.336-1.822s-.893-1.268-1.926-.471a5.626,5.626,0,0,1-6.409.366,6.958,6.958,0,0,1-3.149-4.089,22.033,22.033,0,0,1-1.679,6.19c6.553.765,10.728,4.655,10.923,10.121a10.688,10.688,0,0,1-8.957,11.234c-5.573,1-10.143-2.239-12.423-8.888m28.9-56.718A10.043,10.043,0,0,0,90.5,8.97a8.974,8.974,0,0,0-7.853-5.811c-3.594-.337-6.276,1.468-8.553,4.055-.427.486-.118.707.162.988q5.9,5.91,11.814,11.814c.286.286.51.575.988.15,2.352-2.091,4.056-4.5,4.087-8.3M9.731,72.681c-1.28,3.305-2.43,6.3-3.608,9.287a1.052,1.052,0,0,0,.286,1.322Q8.7,85.505,10.917,87.8a1.15,1.15,0,0,0,1.454.314c2.753-1.1,5.514-2.191,8.3-3.211.743-.272.765-.469.249-.985-3.677-3.68-7.343-7.371-11.187-11.233M27.644,64.1a5,5,0,0,0-.338-.409,33.134,33.134,0,0,1-4.033-4.7c-.526-.776-.84-.142-1.143.16C18.762,62.5,15.421,65.866,12.044,69.2c-.543.536-.632.885-.032,1.45,1.359,1.281,2.674,2.61,3.965,3.959.516.539.861.65,1.45.051,3.221-3.276,6.484-6.511,9.728-9.765.2-.2.507-.354.489-.793m7.148,8.258a3,3,0,0,0-.182-.491A27.018,27.018,0,0,0,30.5,66.836c-.522-.514-.792-.085-1.108.231-3.256,3.252-6.5,6.517-9.779,9.748-.564.556-.575.907,0,1.452,1.358,1.287,2.693,2.6,3.966,3.972.636.684,1.015.471,1.561-.082,2.985-3.023,6-6.016,9-9.025.243-.243.447-.525.653-.77M80.53,66.975a7.615,7.615,0,0,0-5.221-7.256c-2.387-.692-4.66-.758-6.282,1.734a13.938,13.938,0,0,1-2.5,2.637,3.505,3.505,0,0,0-1.146,2.826,7.575,7.575,0,0,0,15.15.059M71.874,35.467c2.55-2.572,4.914-4.987,7.32-7.357.568-.559.56-.909-.008-1.45-1.389-1.322-2.731-2.693-4.072-4.063-.421-.43-.734-.55-1.225-.046-1.937,1.988-3.911,3.939-5.874,5.9-.286.286-.614.51-.185.973a30.333,30.333,0,0,1,4.045,6.042M58.8,22.386a28.015,28.015,0,0,1,5.894,3.9c.562.516.85.234,1.227-.144,1.891-1.894,3.775-3.8,5.688-5.668.488-.477.591-.815.041-1.34-1.388-1.324-2.738-2.69-4.074-4.068-.467-.482-.8-.6-1.34-.054-2.413,2.437-4.868,4.834-7.436,7.373m12.28-12.358c-.389.436-.888,1.073-1.469,1.625-.451.429-.37.7.028,1.1Q75.6,18.678,81.526,24.64c.411.413.7.463,1.092,0A9.786,9.786,0,0,1,83.8,23.475c.579-.477.473-.829-.024-1.321-3.909-3.875-7.791-7.777-11.693-11.66a1.033,1.033,0,0,0-1.011-.466M47.011,79.057c2.378,0,4.757-.017,7.135.008,1.086.011,2.016-.283,2.04-1.493s-.871-1.558-1.974-1.555q-7.059.021-14.119,0c-1.086,0-2.027.281-2.038,1.492-.012,1.315.992,1.571,2.124,1.558,2.277-.026,4.555-.008,6.832-.008M47.12,82.1c-2.328,0-4.656.019-6.984-.008-1.075-.012-2.037.243-2.08,1.451-.047,1.31.936,1.6,2.08,1.6q6.984-.025,13.968,0c1.075,0,2.038-.246,2.08-1.452.046-1.309-.934-1.611-2.081-1.6-2.328.025-4.656.007-6.984.007m-5.209,6.142a5.953,5.953,0,0,0,5.495,2.894,5.616,5.616,0,0,0,4.859-2.894ZM4.616,85.96c-.5,1.316-.929,2.5-1.407,3.654a1.006,1.006,0,0,0,.2,1.239,1.028,1.028,0,0,0,1.244.2c1.18-.49,2.38-.932,3.625-1.414L4.616,85.96" transform="translate(0 0)" fill="#0d0d0b"/>
        <path id="Trazado_608454" data-name="Trazado 608454" d="M36.441,60.6c-6.734,0-13.468.022-20.2-.012a5.851,5.851,0,0,1-5.6-3.463,5.652,5.652,0,0,1,.661-6.263,5.638,5.638,0,0,1,5.745-2.278,5.72,5.72,0,0,1,4.835,4.423,2.1,2.1,0,0,0,2.933,1.545c.644-.19.379-.641.356-.97a8.82,8.82,0,0,0-7.065-7.866c-1.486-.238-1.82-.948-1.974-2.184a12.142,12.142,0,0,1,22.172-7.9c.326.525.4.851-.15,1.232A11.624,11.624,0,0,0,32.99,44.9c-.112.717-.646.831-1.125,1.045A6.1,6.1,0,0,0,28.3,50.362c-.186.772-.125,1.227.885,1.173,1.132-.061,2.183.21,2.56-1.467a2.448,2.448,0,0,1,2.687-1.573,3.037,3.037,0,0,1,2.624,1.774c.219.411,0,1.141.654,1.216a10.061,10.061,0,0,0,2.423-.014c.484-.064.274-.595.218-.9a5.749,5.749,0,0,0-3.276-4.45,1.3,1.3,0,0,1-.835-1.866,9.246,9.246,0,0,1,9.712-6.367,9.15,9.15,0,0,1,8.1,8.934,3.341,3.341,0,0,1-1.587,3.287,6.891,6.891,0,0,0-2.934,4.933c-.134.751.041,1.06.909,1.054,1.24-.009,2.162.082,2.511-1.632.425-2.088,2.993-3.328,5.048-2.849a4.6,4.6,0,0,1,3.645,4.743A4.549,4.549,0,0,1,57.1,60.587c-5.569.051-11.138.017-16.708.018H36.441" transform="translate(-6.953 -21.072)" fill="#f7f9fa"/>
        <path id="Trazado_608455" data-name="Trazado 608455" d="M139.476,110.6c2.379,0,4.759.017,7.138,0a4.56,4.56,0,1,0-.006-9.113c-3.746-.02-7.493,0-11.239-.008-1.788,0-2.281-.463-2.249-2.223.023-1.248-.559-2.9.244-3.625.678-.615,2.3-.2,3.5-.221a41.583,41.583,0,0,0,5-.1,7.588,7.588,0,0,0-.1-15.014c-.906-.138-1.232-.337-1.087-1.255a6.347,6.347,0,0,0-.032-1.666c-.173-1.553-.061-1.666,1.51-1.293,10.437,2.474,17.022,8.921,19.351,19.372a18.366,18.366,0,0,1-5.154,17.817c-1.854,1.865-3.726,3.713-5.551,5.607a22.231,22.231,0,0,0-4.239,6.056c-.262.565-.475.905-1.177.886-1.771-.05-3.544-.055-5.315,0-.771.024-.918-.273-.906-.964.037-2.176.033-4.354.009-6.531a4.517,4.517,0,0,0-4.684-4.678c-.86-.014-1.721,0-2.582,0-1.063,0-1.833-.464-1.8-1.576.028-1.019.772-1.459,1.769-1.459q3.8,0,7.594,0" transform="translate(-90.543 -52.813)" fill="#ffe393"/>
        <path id="Trazado_608456" data-name="Trazado 608456" d="M100.492,152.158c-2.378,0-4.757-.021-7.135.006a4.558,4.558,0,1,0-.007,9.114c.86.016,1.721.008,2.581,0a1.644,1.644,0,0,1,1.888,1.839c.005,2.125-.03,4.252.019,6.376.018.758-.252.932-.955.914-1.77-.043-3.542-.029-5.313,0a.951.951,0,0,1-1.042-.637c-1.5-3.458-4.05-6.122-6.688-8.716-1.549-1.523-3.1-3.045-4.514-4.7-3.9-4.555-4.847-9.833-3.991-15.6.087-.582.335-.759.884-.758,4.909.011,9.818.02,14.726-.009.724,0,.821.306.805.905-.032,1.214-.03,2.429,0,3.643a4.492,4.492,0,0,0,4.625,4.577c3.8.03,7.591.022,11.386,0,1.121-.007,2.159.2,2.168,1.514s-1.019,1.549-2.146,1.537c-2.429-.026-4.858-.008-7.287-.008" transform="translate(-52.222 -97.417)" fill="#ffe393"/>
        <path id="Trazado_608457" data-name="Trazado 608457" d="M195.95,182.817c2.28,6.65,6.85,9.893,12.423,8.888a10.688,10.688,0,0,0,8.957-11.234c-.2-5.466-4.37-9.357-10.923-10.121a22.032,22.032,0,0,0,1.679-6.19,6.956,6.956,0,0,0,3.149,4.089,5.626,5.626,0,0,0,6.409-.365c1.032-.8,1.383-.053,1.926.471s1.006.867.336,1.821a5.952,5.952,0,0,0,3.973,9.394c1.227.191.984.828.976,1.522-.008.729.3,1.427-1.033,1.628a5.968,5.968,0,0,0-3.983,9.314c.676.965.346,1.359-.3,1.935-.578.513-.9,1.124-1.936.392a5.95,5.95,0,0,0-9.374,4.023c-.193,1.279-.887.958-1.546.935-.63-.022-1.379.424-1.579-.9a6.051,6.051,0,0,0-9.269-4.225c-.38.244-.748.983-1.233.512-.616-.6-1.676-1-1.608-2.05a5.293,5.293,0,0,0-.753-3.475c-.206-.305-.055-.573.061-.855a17.45,17.45,0,0,1,3.651-5.509" transform="translate(-133.705 -114.238)" fill="#ffe393"/>
        <path id="Trazado_608458" data-name="Trazado 608458" d="M260.208,19c-.031,3.8-1.735,6.212-4.087,8.3-.478.425-.7.136-.988-.15q-5.91-5.9-11.814-11.814c-.28-.281-.59-.5-.162-.988,2.277-2.587,4.958-4.392,8.553-4.055a8.974,8.974,0,0,1,7.853,5.811A10.033,10.033,0,0,1,260.208,19" transform="translate(-169.063 -7.137)" fill="#bec5cf"/>
        <path id="Trazado_608459" data-name="Trazado 608459" d="M23.473,238.994c3.844,3.862,7.51,7.554,11.187,11.233.516.516.494.713-.249.985-2.785,1.021-5.545,2.107-8.3,3.212a1.15,1.15,0,0,1-1.454-.315q-2.216-2.289-4.507-4.506a1.052,1.052,0,0,1-.287-1.322c1.179-2.985,2.328-5.982,3.608-9.287" transform="translate(-13.742 -166.313)" fill="#bec5cf"/>
        <path id="Trazado_608460" data-name="Trazado 608460" d="M54.186,198.243c.018.439-.286.589-.489.793-3.244,3.254-6.507,6.489-9.728,9.765-.589.6-.934.488-1.45-.051-1.291-1.349-2.606-2.679-3.965-3.96-.6-.565-.51-.914.033-1.45,3.376-3.336,6.718-6.705,10.085-10.05.3-.3.618-.936,1.144-.16a33.136,33.136,0,0,0,4.033,4.7,5.014,5.014,0,0,1,.338.409" transform="translate(-26.541 -134.139)" fill="#ea685c"/>
        <path id="Trazado_608461" data-name="Trazado 608461" d="M78.692,224.753c-.206.245-.411.527-.653.77-3,3.009-6.015,6-9,9.025-.546.553-.925.765-1.561.081-1.274-1.37-2.609-2.685-3.966-3.972-.575-.546-.565-.9,0-1.452,3.279-3.23,6.523-6.5,9.779-9.748.316-.316.587-.744,1.108-.23a27,27,0,0,1,4.111,5.035,2.971,2.971,0,0,1,.182.491" transform="translate(-43.9 -152.391)" fill="#64b599"/>
        <path id="Trazado_608462" data-name="Trazado 608462" d="M230.136,202.682a7.575,7.575,0,0,1-15.15-.059,3.505,3.505,0,0,1,1.147-2.826,13.936,13.936,0,0,0,2.5-2.637c1.623-2.493,3.9-2.426,6.282-1.734a7.615,7.615,0,0,1,5.221,7.256m-7.6,4.5a4.578,4.578,0,1,0-4.547-4.645,4.537,4.537,0,0,0,4.547,4.645" transform="translate(-149.606 -135.706)" fill="#ffe393"/>
        <path id="Trazado_608463" data-name="Trazado 608463" d="M226.613,86.312a30.333,30.333,0,0,0-4.045-6.042c-.429-.463-.1-.687.185-.973,1.963-1.962,3.938-3.913,5.874-5.9.49-.5.8-.384,1.225.046,1.342,1.37,2.684,2.741,4.072,4.063.568.541.576.891.008,1.45-2.407,2.371-4.77,4.786-7.32,7.357" transform="translate(-154.739 -50.845)" fill="#64b599"/>
        <path id="Trazado_608464" data-name="Trazado 608464" d="M193.338,55.915c2.569-2.539,5.023-4.935,7.436-7.372.542-.547.873-.427,1.34.054,1.336,1.377,2.685,2.743,4.074,4.068.55.525.447.862-.041,1.34-1.913,1.872-3.8,3.773-5.688,5.668-.377.377-.665.659-1.227.144a28.019,28.019,0,0,0-5.894-3.9" transform="translate(-134.541 -33.529)" fill="#ea685c"/>
        <path id="Trazado_608465" data-name="Trazado 608465" d="M229.657,32.965a1.033,1.033,0,0,1,1.011.466c3.9,3.883,7.784,7.785,11.693,11.66.5.492.6.844.023,1.321a9.783,9.783,0,0,0-1.186,1.169c-.394.458-.681.408-1.092,0q-5.927-5.963-11.89-11.89c-.4-.4-.48-.666-.029-1.1.581-.552,1.08-1.189,1.469-1.625" transform="translate(-158.581 -22.936)" fill="#f7f9fa"/>
        <path id="Trazado_608466" data-name="Trazado 608466" d="M134.092,253c-2.277,0-4.555-.018-6.832.008-1.132.013-2.137-.243-2.124-1.558.011-1.21.952-1.5,2.038-1.492q7.06.027,14.119,0c1.1,0,2,.348,1.974,1.555s-.954,1.5-2.04,1.493c-2.378-.024-4.757-.008-7.135-.008" transform="translate(-87.08 -173.941)" fill="#bec5cf"/>
        <path id="Trazado_608467" data-name="Trazado 608467" d="M134.2,269.95c2.328,0,4.656.017,6.983-.007,1.147-.012,2.127.29,2.081,1.6-.043,1.206-1.005,1.456-2.08,1.452q-6.984-.029-13.968,0c-1.145,0-2.127-.289-2.08-1.6.043-1.208,1.005-1.463,2.08-1.451,2.327.027,4.655.008,6.984.008" transform="translate(-87.078 -187.849)" fill="#bec5cf"/>
        <path id="Trazado_608468" data-name="Trazado 608468" d="M137.815,290.165h10.354a5.616,5.616,0,0,1-4.859,2.894,5.953,5.953,0,0,1-5.495-2.894" transform="translate(-95.904 -201.922)" fill="#bec5cf"/>
        <path id="Trazado_608469" data-name="Trazado 608469" d="M11.675,282.659l3.659,3.677c-1.245.482-2.445.924-3.625,1.414a1.028,1.028,0,0,1-1.244-.2,1.006,1.006,0,0,1-.2-1.239c.478-1.159.9-2.339,1.407-3.654" transform="translate(-7.058 -196.699)" fill="#bec5cf"/>
        <path id="Trazado_608470" data-name="Trazado 608470" d="M229.4,214.09A4.578,4.578,0,1,1,234,209.5a4.534,4.534,0,0,1-4.608,4.587m-.076-6.1c-.793.184-1.4.629-1.379,1.518a1.4,1.4,0,0,0,1.555,1.487,1.379,1.379,0,0,0,1.414-1.477c-.008-.953-.626-1.428-1.59-1.528" transform="translate(-156.469 -142.611)" fill="#0d0d0b"/>
        <path id="Trazado_608471" data-name="Trazado 608471" d="M236.394,214.977c.964.1,1.582.575,1.59,1.528a1.379,1.379,0,0,1-1.414,1.477,1.4,1.4,0,0,1-1.555-1.487c-.018-.889.586-1.334,1.379-1.518" transform="translate(-163.544 -149.6)" fill="#f7f9fa"/>
      </g>
    </g>
  </g>
</svg>
