<svg xmlns="http://www.w3.org/2000/svg" xmlns:xlink="http://www.w3.org/1999/xlink" width="146" height="146" viewBox="0 0 146 146">
  <defs>
    <clipPath id="clip-path">
      <rect id="Rectángulo_346179" data-name="Rectángulo 346179" width="91.565" height="91.445" fill="none"/>
    </clipPath>
  </defs>
  <g id="Grupo_1072951" data-name="Grupo 1072951" transform="translate(-285 -9975)">
    <circle id="Elipse_4744" data-name="Elipse 4744" cx="73" cy="73" r="73" transform="translate(285 9975)" fill="#fff198"/>
    <g id="Grupo_1016989" data-name="Grupo 1016989" transform="translate(312.218 10004.277)">
      <g id="Grupo_1016988" data-name="Grupo 1016988" clip-path="url(#clip-path)">
        <path id="Trazado_608417" data-name="Trazado 608417" d="M114.556,129.8c-1.457-12.346,8.234-20.423,17.932-19.961a17.24,17.24,0,1,1-7.357,33.216c.364,3.434.7,6.829.731,10.243.017,1.908-.333,2.274-2.188,2.274q-20.646,0-41.291,0c-1.9,0-2.263-.351-2.236-2.225a91.421,91.421,0,0,1,2.674-20.289,2.321,2.321,0,0,1,2.095-1.951c3.589-.656,7.166-1.377,10.739-2.114.577-.119,1.584.023,1.567-.759-.025-1.073.682-2.335-.634-3.235a11.066,11.066,0,0,1-4.984-8.7c-.049-.655-.335-.688-.836-.813a4.263,4.263,0,0,1-3.482-4.55c-.005-.762.015-1.525-.007-2.286-.013-.451.028-1.022.385-1.163,1.469-.582,1.037-1.8,1.04-2.848.022-7.03,3.921-12.308,10.6-14.294,8.587-2.555,17.775,4.179,17.989,13.187.016.666,0,1.333,0,2,0,.734-.171,1.525.873,1.786.206.051.394.41.484.664a5.641,5.641,0,0,1-3.736,7.536c-.562.184-.455.479-.487.821a11.31,11.31,0,0,1-5.037,8.681c-1.305.891-.555,2.167-.607,3.247-.037.775.945.569,1.466.7,1.411.345,2.854.561,4.308.832m15.6-9.474q0-2.927,0-5.853c0-1.716-.091-1.791-1.718-1.424a14.469,14.469,0,0,0-11.122,13.66c-.091,3.606-.036,3.673,3.517,4.333.047.009.093.021.14.025a2.43,2.43,0,0,1,2.319,2.26c.31,1.723.784,3.417,1.078,5.142a1.632,1.632,0,0,0,1.04,1.368,14.13,14.13,0,0,0,14.221-1.062c.8-.506.889-.834.154-1.547-2.936-2.849-5.788-5.783-8.706-8.651a2.823,2.823,0,0,1-.942-2.258c.057-2,.017-4,.017-5.995m-18.624-13.348a9.825,9.825,0,0,1,1.367.009c1.3.235,1.628-.341,1.566-1.566a29.546,29.546,0,0,0-.313-3.681c-1.121-6.34-8.453-10.623-14.525-8.478a11.851,11.851,0,0,0-8.05,12.931c.068.632.308.764.877.8,2,.119,3.068-.713,3.4-2.789.114-.721.337-1.309,1.107-1.467a1.235,1.235,0,0,1,1.562.67,3.748,3.748,0,0,0,2.448,2.005c3.523,1.37,7.255,1.277,10.564,1.568m.074,6.489a22,22,0,0,1,.018-2.426c.115-1.028-.29-1.227-1.26-1.259a30.476,30.476,0,0,1-9.817-1.465c-1.638-.616-3.052-1.326-4.32.525a1.722,1.722,0,0,1-.981.541c-.682.162-.865.538-.848,1.209.045,1.761-.032,3.525.031,5.284A8.58,8.58,0,0,0,111,118.66a13.246,13.246,0,0,0,.6-5.2m4.3,19.648c0,2.608-.007,5.171,0,7.734,0,.691,0,1.473-.732,1.7-1.792.569-1.009,1.425-.365,2.314.112.154.218.311.323.47,1.346,2.043.98,2.862-1.43,3.419-2.81.65-5.6,1.368-8.408,2.049-.656.159-.86.539-.844,1.215.018.78.508.65.963.65,5.514,0,11.028-.016,16.542.02.873.006.99-.306.946-1.081a113.237,113.237,0,0,0-1.664-13.825c-.679-3.734-.656-3.738-4.412-4.474-.276-.054-.552-.117-.923-.2m-25.821.057c-1.268.257-2.409.578-3.571.691-.766.075-.968.516-1.084,1.077a77.294,77.294,0,0,0-2.072,14.756c-.012.962-.844,2.213.037,2.8.7.468,1.935.15,2.932.151,4.666.006,9.333-.026,14,.025,1.067.011,1.407-.383,1.129-1.329-.134-.456-.652-.48-1.065-.583-2.944-.739-5.895-1.448-8.824-2.241-1.545-.418-1.855-1.282-1.06-2.668a15.7,15.7,0,0,1,1.189-1.775c.4-.52.53-.843-.252-1.133a2.15,2.15,0,0,1-1.382-2.381c.068-2.42.021-4.843.021-7.393m49.2-7.6h3.571c3.249,0,3.285-.012,2.219-3.11a14,14,0,0,0-10.408-9.388c-.492-.127-1.688-.884-1.671.743q.057,5.427-.007,10.855c-.01.814.326.927,1.01.912,1.761-.036,3.523-.012,5.285-.012m-4.344,2.841c2.595,2.565,4.888,4.819,7.162,7.093.4.4.648.441.994-.053a14.069,14.069,0,0,0,2.569-6.238c.088-.648-.066-.818-.7-.813-3.178.024-6.356.011-10.024.011m-23.3,3.844a42.729,42.729,0,0,1-4.9,15.173l5.343-1.345-1.071-1.607c-1.347-2.023-1.247-2.457.932-3.514a1.6,1.6,0,0,0,1.09-1.716c-.092-1.8-.088-3.612,0-5.413.048-1.032-.2-1.622-1.392-1.578m-17.291-.063c-1.342.37-1.345.37-1.348,1.571,0,1.57.1,3.15-.032,4.708a2.361,2.361,0,0,0,1.684,2.784c1.418.569,1.531,1.36.671,2.7-.433.678-.874,1.35-1.384,2.137l5.352,1.317a41.975,41.975,0,0,1-4.943-15.221m11.513-4.113c-.315-.325.614-1.466-.7-1.267a11.962,11.962,0,0,1-4.379-.033c-.393-.085-.57.02-.644.474-.21,1.291,1.492,4.249,2.709,4.59a.661.661,0,0,0,.389-.04,6.88,6.88,0,0,0,2.63-3.723m1.649,9.454a1.883,1.883,0,0,1-3.009.3v7.6a26.385,26.385,0,0,0,3.009-7.9m-9,.143a26.82,26.82,0,0,0,3.01,7.654v-7.5c-1.115.989-2.066.705-3.01-.155m-.782-6.116c-.349.025-.654.217-.236.672.734.8,1.525,1.545,2.292,2.313.177.178.371.309.606.108.174-.148.385-.287.359-.565-.039-.419-2.475-2.555-3.021-2.528m8.125,3.253a5.731,5.731,0,0,0,.526-.409q.962-.94,1.9-1.9c.219-.224.609-.5.315-.807a.759.759,0,0,0-1.04,0c-.725.675-1.421,1.381-2.105,2.1-.488.51.017.706.4,1.017M91.569,112.673c0-.859-.016-1.567.005-2.272.017-.578-.355-.562-.751-.552-.337.008-.672-.022-.678.48-.012,1.007-.054,2.016,1.424,2.345m22.87,0c1.42-.319,1.429-1.257,1.432-2.234,0-.548-.3-.593-.718-.595s-.739.043-.72.59c.025.705.006,1.412.006,2.239" transform="translate(-57.23 -64.125)" fill="#0a0909"/>
        <path id="Trazado_608418" data-name="Trazado 608418" d="M18.246,141.31q-8,0-16,0c-1.795,0-2.17-.371-2.171-2.151,0-9.332.029-18.663-.038-27.995-.009-1.263.5-1.316,1.466-1.315s1.478.047,1.468,1.314c-.07,8.664,0,17.33-.073,25.995-.01,1.254.483,1.324,1.461,1.32s1.488-.047,1.468-1.315c-.087-5.521-.04-11.045-.036-16.568,0-1.78.371-2.141,2.174-2.146q2.071-.006,4.142,0c1.908,0,2.256.34,2.257,2.208,0,5.523.06,11.047-.04,16.567-.025,1.384.642,1.23,1.533,1.246.906.016,1.413.009,1.4-1.231-.073-8.378-.039-16.758-.037-25.138,0-1.888.339-2.221,2.238-2.225q1.928,0,3.857,0c2.209,0,2.479.262,2.479,2.415,0,8.284.019,16.568-.024,24.852-.005,1.027.18,1.382,1.294,1.339,2.52-.1,5.05.06,7.567-.068,1.308-.067,1.191.618,1.172,1.45-.018.786.222,1.508-1.135,1.486-5.474-.092-10.95-.038-16.426-.038m4.7-15.721h.008c0-3.9-.047-7.806.029-11.707.022-1.108-.419-1.266-1.322-1.174-.782.08-1.639-.3-1.624,1.17q.112,11.706,0,23.414c-.012,1.3.641,1.177,1.47,1.175s1.508.138,1.475-1.173c-.1-3.9-.036-7.8-.036-11.706m-14.283,4.2c0,2.518.059,5.039-.028,7.554-.036,1.06.441,1.206,1.254,1.084.665-.1,1.648.494,1.629-.992q-.1-7.554.013-15.109c.018-1.189-.619-1.053-1.329-1.011s-1.634-.373-1.57,1.064c.11,2.466.031,4.94.031,7.411" transform="translate(-0.028 -78.441)" fill="#0a0909"/>
        <path id="Trazado_608419" data-name="Trazado 608419" d="M212.784,31.436c-4.562.028-4.327.314-4.206-4.218a2.891,2.891,0,0,0-1.808-3.082,12.767,12.767,0,0,1-6.476-14.32,12.915,12.915,0,0,1,25.063-.047,12.836,12.836,0,0,1-6.667,14.493c-1.179.6-1.771,1.279-1.589,2.625a16.84,16.84,0,0,1,.018,2.28c0,1.951-.329,2.266-2.339,2.268q-1,0-2,0m1.469-7.311a8.354,8.354,0,0,1,3.084-2.4,9.764,9.764,0,0,0,5.274-10.676,9.929,9.929,0,0,0-19.262-1.223,9.859,9.859,0,0,0,4.019,11.348c1.386.9,3.082,1.361,4.046,2.914V18.252c0-2.469,0-2.5-2.48-2.532-1.251-.017-1.844-.548-1.812-1.809.027-1.046.044-2.1,0-3.14-.052-1.119.779-.8,1.268-.725.552.081,1.5-.619,1.594.7.156,2.129.192,2.126,2.315,2.126a15.065,15.065,0,0,1,1.854.013c1.174.147,1.824-.146,1.558-1.489-.214-1.08.209-1.4,1.346-1.436,1.322-.047,1.668.395,1.5,1.593s.43,2.567-.361,3.61c-.805,1.062-2.137.438-3.233.528-.573.047-.712.249-.708.773.018,2.554.008,5.109.008,7.663m-1.383,3c-.511.221-1.515-.411-1.427.779.09,1.219,1.093.508,1.666.636.492.109,1.2.227,1.147-.726-.065-1.082-.9-.5-1.386-.689" transform="translate(-142.768 0)" fill="#0a0909"/>
        <path id="Trazado_608420" data-name="Trazado 608420" d="M2.963,50.122c0,1.385-.037,2.671.01,3.955.052,1.445-1.014.736-1.6.821s-1.334.338-1.3-.842C.158,51.582.109,49.1.1,46.628c0-1.1.49-1.7,1.617-1.7,2.524-.005,5.048.044,7.571-.022,1.231-.032.72.8.818,1.348.212,1.177-.137,1.731-1.473,1.56a26.807,26.807,0,0,0-3.33-.028A1.95,1.95,0,0,0,6.046,48.8c2.453,2.46,4.935,4.891,7.351,7.387.722.746,1.17.924,1.967.05,1.537-1.686,3.227-3.233,4.82-4.87a1.627,1.627,0,0,1,2.68-.029q4.526,4.559,9.1,9.074c1.108,1.088-.262,1.3-.6,1.822-.355.549-.759,1.016-1.521.218-2.4-2.511-4.933-4.894-7.325-7.412-.81-.852-1.254-.714-1.967.049-1.429,1.529-2.944,2.977-4.427,4.455-1.522,1.517-1.926,1.509-3.487-.05q-4.293-4.288-8.589-8.574c-.3-.3-.534-.73-1.076-.8" transform="translate(-0.055 -32.064)" fill="#0a0909"/>
        <path id="Trazado_608421" data-name="Trazado 608421" d="M104.3,24.911c1.175-.3,1.665.131,1.44,1.277-.27,1.374.393,1.69,1.615,1.561.391-.041,1.094-.349,1.2.306a4.7,4.7,0,0,1-.108,2.365c-.174.44-1.05.178-1.6.143-.821-.052-1.29.113-1.11,1.059.269,1.419-.206,1.987-1.754,1.87-.98-.074-1.251-.371-1.1-1.23.23-1.309-.177-1.984-1.612-1.677-1.15.246-1.368-.335-1.263-1.326.084-.793-.285-1.839,1.194-1.539,1.3.264,1.973-.167,1.679-1.6-.263-1.285.463-1.434,1.415-1.2" transform="translate(-71.401 -17.722)" fill="#0a0909"/>
        <path id="Trazado_608422" data-name="Trazado 608422" d="M273.981,123.476c-.943.232-1.349-.218-1.153-1.282.235-1.274-.258-1.843-1.563-1.577-1.252.255-1.33-.445-1.319-1.426.01-.951.023-1.716,1.3-1.438,1.489.324,1.814-.457,1.574-1.705-.254-1.321.615-1.165,1.428-1.158.8.007,1.709-.2,1.44,1.142-.283,1.408.261,2.021,1.705,1.72,1.317-.274,1.164.611,1.157,1.424-.007.8.2,1.709-1.143,1.439-1.408-.283-2.012.259-1.723,1.705.3,1.49-.786,1.115-1.706,1.155" transform="translate(-192.763 -82.034)" fill="#0a0909"/>
        <path id="Trazado_608423" data-name="Trazado 608423" d="M34.435,249.768c1.251-.334,1.513.346,1.322,1.355-.252,1.337.38,1.688,1.544,1.463,1.374-.266,1.3.55,1.363,1.538.078,1.195-.4,1.522-1.429,1.32-1.336-.261-1.687.378-1.462,1.541.266,1.375-.551,1.3-1.539,1.363-1.2.079-1.521-.4-1.319-1.429.261-1.336-.378-1.682-1.542-1.463-1.191.224-1.34-.363-1.363-1.4-.025-1.121.173-1.718,1.431-1.472,1.116.218,1.728-.134,1.466-1.388-.276-1.316.333-1.7,1.529-1.431" transform="translate(-21.428 -178.294)" fill="#0a0909"/>
        <path id="Trazado_608424" data-name="Trazado 608424" d="M183.624,53.617c-.335.406-.471.6-.635.765-1.07,1.076-2.166,2.128-3.211,3.227-.458.481-.722.325-1.136-.063-1.517-1.418-1.533-1.4-.1-2.84.7-.705,1.386-1.435,2.127-2.1.3-.266.485-.987,1.1-.544.648.469,1.233,1.026,1.856,1.552" transform="translate(-126.739 -37.079)" fill="#0a0909"/>
        <path id="Trazado_608425" data-name="Trazado 608425" d="M183.777,21.308a12.974,12.974,0,0,1-1.817,1.625c-.6.367-.829-.415-1.174-.72-.71-.626-1.357-1.323-2.027-1.995-1.319-1.322-1.219-2,.39-3.041.307-.2.484-.19.72.048,1.17,1.177,2.348,2.347,3.516,3.526a4.841,4.841,0,0,1,.392.557" transform="translate(-126.999 -12.166)" fill="#0a0909"/>
        <path id="Trazado_608426" data-name="Trazado 608426" d="M294,51.169c.374.291.566.412.723.568,1.078,1.068,2.122,2.174,3.234,3.206.552.513.362.8-.067,1.245-1.379,1.441-1.362,1.46-2.741.084a15.953,15.953,0,0,0-1.819-1.8c-1.275-.913-.994-1.643.068-2.452a3.617,3.617,0,0,0,.6-.855" transform="translate(-208.858 -36.539)" fill="#0a0909"/>
        <path id="Trazado_608427" data-name="Trazado 608427" d="M293.693,23.3a22.75,22.75,0,0,1-1.663-1.893c-.352-.495.276-.712.526-.976.944-1,1.977-1.917,2.892-2.94.779-.87,1.171-.131,1.514.334s1.6.726.582,1.714c-1.056,1.022-2.079,2.078-3.12,3.115-.166.166-.352.312-.731.646" transform="translate(-208.459 -12.201)" fill="#0a0909"/>
        <path id="Trazado_608428" data-name="Trazado 608428" d="M177.741,42.739a7.746,7.746,0,0,0-1.283.011c-1.248.213-1.6-.248-1.557-1.511.034-1.1.28-1.484,1.409-1.384a28.133,28.133,0,0,0,3.568.011c.624-.024.786.172.811.8.081,2.078.113,2.077-2.947,2.077" transform="translate(-124.892 -28.449)" fill="#0a0909"/>
        <path id="Trazado_608429" data-name="Trazado 608429" d="M297.676,42.749a6.84,6.84,0,0,0-1.141.01c-1.331.229-1.834-.2-1.718-1.634.077-.943.2-1.348,1.242-1.259a28.461,28.461,0,0,0,3.568.01c.706-.029.98.126.98.92,0,1.954.049,1.954-2.931,1.954" transform="translate(-210.512 -28.458)" fill="#0a0909"/>
        <path id="Trazado_608430" data-name="Trazado 608430" d="M1.53,92.628C.178,93.014.043,92.355,0,91.247c-.043-1.2.308-1.468,1.481-1.476,1.2-.008,1.515.308,1.463,1.49-.047,1.091-.154,1.8-1.418,1.367" transform="translate(0 -64.104)" fill="#0a0909"/>
        <path id="Trazado_608431" data-name="Trazado 608431" d="M222.924,177.931c0,2,.039,4-.017,5.995a2.824,2.824,0,0,0,.942,2.258c2.917,2.868,5.771,5.8,8.706,8.651.735.713.641,1.04-.154,1.547a14.13,14.13,0,0,1-14.221,1.062,1.632,1.632,0,0,1-1.04-1.368c-.294-1.725-.768-3.419-1.078-5.143a2.43,2.43,0,0,0-2.319-2.26c-.047-.005-.094-.017-.14-.026-3.553-.66-3.608-.727-3.517-4.333a14.47,14.47,0,0,1,11.122-13.66c1.627-.367,1.717-.293,1.718,1.424q0,2.926,0,5.853" transform="translate(-150.003 -121.734)" fill="#fa9d2c"/>
        <path id="Trazado_608432" data-name="Trazado 608432" d="M139.854,114.213c-3.309-.291-7.042-.2-10.564-1.568a3.748,3.748,0,0,1-2.448-2.005,1.235,1.235,0,0,0-1.561-.67c-.77.158-.992.746-1.107,1.467-.33,2.075-1.4,2.907-3.4,2.789-.57-.034-.809-.166-.877-.8a11.851,11.851,0,0,1,8.05-12.931c6.072-2.145,13.4,2.138,14.525,8.478a29.6,29.6,0,0,1,.313,3.681c.062,1.225-.265,1.8-1.566,1.566a9.871,9.871,0,0,0-1.367-.009" transform="translate(-85.557 -71.363)" fill="#845445"/>
        <path id="Trazado_608433" data-name="Trazado 608433" d="M147.18,158.041a13.236,13.236,0,0,1-.6,5.2A8.58,8.58,0,0,1,130,160.449c-.062-1.759.014-3.523-.031-5.284-.017-.67.166-1.046.848-1.209a1.723,1.723,0,0,0,.981-.541c1.268-1.851,2.682-1.141,4.32-.525a30.474,30.474,0,0,0,9.817,1.465c.969.033,1.375.231,1.26,1.259a21.922,21.922,0,0,0-.018,2.426m-8.513.695q-2.067,0-4.134,0c-1.218,0-1.689.663-1.639,1.813a5.7,5.7,0,0,0,11.376.026c.065-1.273-.429-1.81-1.754-1.834-1.283-.024-2.566-.005-3.849,0" transform="translate(-92.81 -108.703)" fill="#d67d6b"/>
        <path id="Trazado_608434" data-name="Trazado 608434" d="M176.613,241.284c.371.079.646.142.923.2,3.756.736,3.733.74,4.412,4.473a113.188,113.188,0,0,1,1.664,13.826c.044.775-.073,1.086-.945,1.081-5.514-.037-11.028-.017-16.542-.02-.455,0-.945.13-.963-.65-.016-.676.188-1.056.844-1.215,2.8-.681,5.6-1.4,8.408-2.049,2.41-.557,2.775-1.376,1.43-3.419-.1-.159-.211-.316-.323-.47-.644-.888-1.427-1.745.365-2.314.73-.232.736-1.014.733-1.7-.011-2.563,0-5.126,0-7.734" transform="translate(-117.939 -172.297)" fill="#6594b0"/>
        <path id="Trazado_608435" data-name="Trazado 608435" d="M97.191,241.484c0,2.55.048,4.973-.021,7.393a2.15,2.15,0,0,0,1.382,2.381c.782.29.652.614.252,1.133a15.762,15.762,0,0,0-1.189,1.775c-.795,1.386-.485,2.25,1.06,2.669,2.929.792,5.88,1.5,8.824,2.241.413.1.931.127,1.065.583.278.946-.063,1.34-1.13,1.329-4.666-.051-9.333-.018-14-.025-1,0-2.234.317-2.933-.151-.881-.591-.049-1.842-.037-2.8a77.288,77.288,0,0,1,2.072-14.756c.116-.562.318-1,1.084-1.077,1.161-.114,2.3-.435,3.571-.692" transform="translate(-64.337 -172.44)" fill="#845445"/>
        <path id="Trazado_608436" data-name="Trazado 608436" d="M271.272,182.956c-1.762,0-3.524-.024-5.285.012-.685.014-1.02-.1-1.01-.912q.063-5.427.007-10.855c-.017-1.627,1.179-.87,1.671-.743a14,14,0,0,1,10.408,9.389c1.066,3.1,1.03,3.111-2.219,3.111h-3.571" transform="translate(-189.215 -121.516)" fill="#d67d6b"/>
        <path id="Trazado_608437" data-name="Trazado 608437" d="M271.8,224.8c3.668,0,6.846.013,10.024-.011.635,0,.789.164.7.813a14.066,14.066,0,0,1-2.568,6.238c-.346.494-.6.448-.994.053-2.274-2.274-4.568-4.528-7.163-7.093" transform="translate(-194.089 -160.516)" fill="#6594b0"/>
        <path id="Trazado_608438" data-name="Trazado 608438" d="M178.064,238.263c1.19-.044,1.44.546,1.392,1.578-.084,1.8-.088,3.613,0,5.414a1.6,1.6,0,0,1-1.089,1.716c-2.179,1.057-2.279,1.491-.932,3.514l1.071,1.606-5.343,1.345a42.726,42.726,0,0,0,4.9-15.173" transform="translate(-123.655 -170.138)" fill="#6594b0"/>
        <path id="Trazado_608439" data-name="Trazado 608439" d="M126.323,238.05a41.975,41.975,0,0,0,4.943,15.221l-5.352-1.317c.51-.787.951-1.46,1.384-2.137.86-1.344.747-2.136-.671-2.7a2.362,2.362,0,0,1-1.684-2.784c.137-1.558.028-3.138.032-4.708,0-1.2.006-1.2,1.348-1.571" transform="translate(-89.205 -169.988)" fill="#6594b0"/>
        <path id="Trazado_608440" data-name="Trazado 608440" d="M155.739,220.348a6.879,6.879,0,0,1-2.63,3.723.664.664,0,0,1-.389.04c-1.217-.341-2.919-3.3-2.709-4.59.074-.454.251-.559.644-.474a11.967,11.967,0,0,0,4.379.033c1.318-.2.389.942.705,1.267" transform="translate(-107.107 -156.399)" fill="#d67d6b"/>
        <path id="Trazado_608441" data-name="Trazado 608441" d="M168.343,256.726a26.39,26.39,0,0,1-3.009,7.9v-7.6a1.883,1.883,0,0,0,3.009-.3" transform="translate(-118.062 -183.324)" fill="#f7f9fa"/>
        <path id="Trazado_608442" data-name="Trazado 608442" d="M144.381,257.225c.944.86,1.9,1.144,3.01.155v7.5a26.82,26.82,0,0,1-3.01-7.654" transform="translate(-103.1 -183.68)" fill="#f7f9fa"/>
        <path id="Trazado_608443" data-name="Trazado 608443" d="M140.55,235.833c.546-.028,2.982,2.108,3.021,2.527.026.277-.185.417-.359.565-.235.2-.429.069-.606-.108-.767-.768-1.558-1.514-2.292-2.312-.417-.455-.112-.647.236-.672" transform="translate(-100.051 -168.404)" fill="#6594b0"/>
        <path id="Trazado_608444" data-name="Trazado 608444" d="M168.559,238.918c-.383-.311-.889-.506-.4-1.016.685-.715,1.381-1.422,2.106-2.1a.759.759,0,0,1,1.04,0c.294.309-.1.583-.315.807q-.94.962-1.9,1.9a5.712,5.712,0,0,1-.526.409" transform="translate(-119.935 -168.237)" fill="#6594b0"/>
        <path id="Trazado_608445" data-name="Trazado 608445" d="M116.534,162.737c-1.478-.328-1.436-1.338-1.424-2.345.006-.5.341-.472.678-.48.4-.009.768-.025.751.552-.021.706-.005,1.413-.005,2.272" transform="translate(-82.196 -114.189)" fill="#d67d6b"/>
        <path id="Trazado_608446" data-name="Trazado 608446" d="M200.069,162.729c0-.827.019-1.534-.006-2.239-.019-.547.3-.592.72-.59s.72.046.718.595c0,.977-.012,1.915-1.432,2.234" transform="translate(-142.861 -114.182)" fill="#d67d6b"/>
        <path id="Trazado_608447" data-name="Trazado 608447" d="M72.895,132.678c0,3.9-.065,7.807.036,11.706.034,1.311-.65,1.171-1.475,1.173s-1.482.127-1.47-1.175q.106-11.707,0-23.414c-.014-1.472.843-1.09,1.624-1.17.9-.092,1.344.066,1.322,1.174-.076,3.9-.029,7.8-.029,11.707Z" transform="translate(-49.975 -85.529)" fill="#6594b0"/>
        <path id="Trazado_608448" data-name="Trazado 608448" d="M30.121,158.375c0-2.471.08-4.945-.031-7.411-.064-1.436.855-1.021,1.57-1.064s1.347-.178,1.329,1.011q-.115,7.553-.013,15.109c.019,1.486-.964.892-1.629.992-.813.123-1.291-.024-1.254-1.084.087-2.515.028-5.036.028-7.554" transform="translate(-21.485 -107.022)" fill="#6594b0"/>
        <path id="Trazado_608449" data-name="Trazado 608449" d="M221.532,31.211c0-2.554.01-5.109-.008-7.663,0-.524.135-.727.708-.773,1.1-.09,2.428.534,3.233-.528.791-1.043.188-2.405.361-3.61s-.174-1.639-1.5-1.593c-1.138.04-1.561.355-1.347,1.436.266,1.344-.384,1.636-1.558,1.489a15.065,15.065,0,0,0-1.854-.013c-2.124,0-2.16,0-2.315-2.126-.1-1.315-1.042-.615-1.594-.7-.489-.072-1.32-.393-1.268.725.049,1.044.031,2.093,0,3.14-.032,1.261.561,1.792,1.812,1.809,2.48.033,2.48.063,2.48,2.532v5.838c-.963-1.553-2.66-2.014-4.046-2.914a9.859,9.859,0,0,1-4.019-11.348,9.929,9.929,0,0,1,19.263,1.223,9.764,9.764,0,0,1-5.275,10.676,8.354,8.354,0,0,0-3.083,2.4" transform="translate(-150.048 -7.086)" fill="#fa9d2c"/>
        <path id="Trazado_608450" data-name="Trazado 608450" d="M241.606,94.881c.488.192,1.321-.393,1.386.689.057.954-.655.835-1.147.726-.573-.127-1.576.584-1.666-.636-.088-1.191.916-.558,1.427-.779" transform="translate(-171.504 -67.753)" fill="#845445"/>
        <path id="Trazado_608451" data-name="Trazado 608451" d="M145.957,174.974c1.283,0,2.566-.019,3.849.005,1.324.024,1.819.561,1.754,1.834a5.7,5.7,0,0,1-11.376-.026c-.049-1.151.421-1.815,1.639-1.813q2.067,0,4.134,0m2.3,2.907h-4.574c1.252,1.726,2.828,1.774,4.574,0" transform="translate(-100.1 -124.941)" fill="#0a0909"/>
        <path id="Trazado_608452" data-name="Trazado 608452" d="M156.993,185.16c-1.746,1.774-3.321,1.726-4.574,0Z" transform="translate(-108.84 -132.22)" fill="#d67d6b"/>
      </g>
    </g>
  </g>
</svg>
