<svg id="Grupo_1015565" data-name="Grupo 1015565" xmlns="http://www.w3.org/2000/svg" xmlns:xlink="http://www.w3.org/1999/xlink" width="190" height="188.393" viewBox="0 0 190 188.393">
  <defs>
    <clipPath id="clip-path">
      <rect id="Rectángulo_346075" data-name="Rectángulo 346075" width="190" height="188.393" fill="none"/>
    </clipPath>
  </defs>
  <g id="Grupo_1015564" data-name="Grupo 1015564" clip-path="url(#clip-path)">
    <path id="Trazado_606248" data-name="Trazado 606248" d="M94.7,188.268c-26,0-52-.244-78,.122C6.477,188.534-.783,180.935.069,171.679c.072-.785.009-1.581.009-2.372,0-4.429,0-4.481,4.427-4.781,1.127-.077,1.634-.339,1.516-1.514-.069-.686-.012-1.383-.012-2.075q0-40.632,0-81.264c0-9.823,6.233-16.009,16.119-16.03,2.571-.005,5.152-.151,7.708.044,2.258.173,2.948-.452,2.928-2.84-.122-15.125.29-30.263-.233-45.371-.213-6.151,1.432-10.014,6.824-13.022,4.991-2.784,4.916-3.386,9.366.114,2.816,2.216,4.817,2.424,7.731.065,4.46-3.611,4.651-3.375,9.291-.11,3.77,2.652,3.77,2.652,7.661-.048C78.029-.731,78.029-.731,82.532,2.4c4.029,2.8,4.029,2.8,8.158-.106,4.3-3.032,4.3-3.032,8.63-.011,4.186,2.921,4.186,2.921,8.407-.026,4.239-2.958,4.239-2.958,8.612.065,4.173,2.885,4.173,2.885,8.407-.134,4.1-2.927,4.1-2.927,8.376.023,4.31,2.978,4.31,2.978,8.6-.026,4.167-2.921,3.94-2.5,8.429-.065,5.8,3.149,7.59,7.333,7.328,13.946-.591,14.9-.125,29.849-.248,44.776-.02,2.388.67,3.007,2.928,2.841,2.655-.2,5.335-.053,8-.044,9.483.033,15.816,6.309,15.821,15.734.012,27.384.042,54.769-.06,82.153-.009,2.495.621,3.436,3.056,2.956,2.56-.5,3.2.648,2.987,3.045-.228,2.551.135,5.161-.154,7.7a14.576,14.576,0,0,1-14.736,13.008q-40.187.068-80.375.017ZM38.642,81.4q0,34.248,0,68.5c0,1.423-.458,2.793,2.07,2.786q54.264-.139,108.528-.029c1.662,0,2.146-.439,2.145-2.125q-.066-69.09.007-138.179c0-3.358-2.995-3.508-4.646-5.077-1.392-1.322-2.241.4-3.195.991-2.092,1.3-4.095,3.81-6.138,3.814s-4.192-2.315-6.094-3.862c-1.714-1.394-2.905-1.425-4.774-.033-5.938,4.422-6.074,4.4-12.192.019-1.783-1.276-2.9-1.4-4.757-.031-6.017,4.44-6.155,4.418-12.185.014-1.811-1.323-2.964-1.332-4.786,0C86.6,12.6,86.463,12.611,80.436,8.176c-1.85-1.362-2.958-1.281-4.755.02-6.078,4.4-6.213,4.412-12.2-.016-1.851-1.369-3.048-1.395-4.773.028-1.891,1.56-4.051,3.867-6.094,3.867S48.543,9.61,46.49,8.254c-.8-.527-1.635-1.37-2.467-1.387-1.915-.039-5.379,4.054-5.379,6.037q0,34.248,0,68.5m56.544,77.212c-23.918,0-47.836-.025-71.753.046-2,.006-2.648-.4-2.641-2.539q.123-36.024-.009-72.048c-.01-2.346.728-2.824,2.834-2.671,2.458.178,4.941-.015,7.409.065,1.251.04,1.754-.3,1.71-1.64-.091-2.764-.123-5.538.009-8.3.08-1.668-.614-1.974-2.077-1.923-2.764.1-5.534.024-8.3.028-6.887.011-10.416,3.5-10.418,10.333-.007,27.179.033,54.357-.064,81.536-.009,2.449.551,3.069,3.035,3.057,21.842-.11,43.684-.045,65.526-.1,1.843,0,2.955.088,2.743,2.438-.215,2.387,1.111,3.577,3.613,3.547,5.534-.066,11.069-.049,16.6-.008,2.2.016,3.577-1.086,3.374-3.159-.279-2.855,1.167-2.827,3.28-2.821,21.447.06,42.894-.016,64.34.1,2.8.015,3.758-.42,3.739-3.569-.158-26.683-.09-53.369-.09-80.053,0-8.13-3.152-11.359-11.229-11.276-3.121.032-7.407-1.394-9.042.6-1.566,1.915-.38,6.037-.517,9.185-.065,1.474.283,2.128,1.925,2.03,2.363-.142,4.757.129,7.109-.083s2.919.564,2.91,2.892q-.136,35.727,0,71.455c.008,2.252-.471,2.94-2.856,2.93-23.72-.1-47.44-.06-71.16-.06m-.446,23.7q39.893,0,79.786-.008c5.9,0,9.471-3.8,9.529-9.679.019-1.969-.7-2.213-2.4-2.209q-33.515.076-67.032-.006a3.251,3.251,0,0,0-3.253,1.822,8.292,8.292,0,0,1-7.664,4.154q-8.749-.054-17.5,0a8.207,8.207,0,0,1-7.621-4.219,3.2,3.2,0,0,0-3.294-1.744c-12.951.052-25.9.03-38.855.03-9.392,0-18.785.052-28.176-.044-1.831-.019-2.331.465-2.312,2.3.061,5.861,3.653,9.6,9.6,9.6q39.6.025,79.193.007m-62.034-62.1c0-10.066-.089-20.135.065-30.2.037-2.379-.782-2.78-2.854-2.662-1.835.1-3.238-.266-3.218,2.6q.223,30.05.008,60.1c-.015,2.447.856,2.737,2.86,2.615,1.771-.109,3.295.4,3.226-2.557-.231-9.962-.088-19.934-.088-29.9m130.511.037c0-9.968-.1-19.938.067-29.9.042-2.547-.718-3.076-3.114-3.034-2.238.039-2.955.5-2.942,2.9q.163,29.756-.009,59.511c-.017,2.589.786,2.934,3.112,3.013,2.645.09,2.969-.878,2.939-3.177-.126-9.769-.053-19.54-.053-29.311" transform="translate(0 0)" fill="#090909"/>
    <path id="Trazado_606249" data-name="Trazado 606249" d="M65.083,86.048q0-34.248,0-68.5c0-1.983,3.464-6.075,5.38-6.037.833.017,1.671.86,2.467,1.387,2.052,1.357,4.084,3.822,6.123,3.822s4.2-2.307,6.095-3.867c1.725-1.423,2.921-1.4,4.773-.028,5.987,4.428,6.122,4.412,12.2.015,1.8-1.3,2.906-1.381,4.756-.02,6.027,4.435,6.167,4.422,12.191.011,1.822-1.334,2.974-1.325,4.786,0,6.03,4.4,6.167,4.425,12.184-.014,1.861-1.373,2.974-1.245,4.757.031,6.118,4.377,6.254,4.4,12.192-.019,1.868-1.392,3.06-1.36,4.774.033,1.9,1.547,4.054,3.865,6.094,3.862s4.046-2.516,6.138-3.814c.953-.592,1.8-2.312,3.194-.991,1.652,1.569,4.651,1.719,4.646,5.077q-.093,69.089-.007,138.179c0,1.686-.483,2.127-2.144,2.125q-54.265-.069-108.528.028c-2.528.007-2.07-1.363-2.07-2.786q0-34.248,0-68.5m85.308,8.883c-.048-.262-.033-.377-.084-.428q-19.224-19.308-38.453-38.612c-1.118-1.123-1.416-.665-1.889.613-2.251,6.078-4.449,12.186-7.013,18.134-2.1,4.878-2.921,10.336-7.236,14.25-5.33,4.834-10.189,10.183-15.387,15.169-1.683,1.614-2,2.509-.094,4.315q8.594,8.146,16.739,16.76c1.887,2,3.032,1.928,4.495-.132,1.219-1.716,2.29-1.88,3.863-.11,2.619,2.947,5.515,5.653,8.357,8.4,3.777,3.647,9.2,3.744,12.735.3,3.662-3.57,3.612-8.983-.189-12.934-2.327-2.419-4.744-4.751-7.118-7.125-3.2-3.2-2.981-4.637,1.1-6.921a14.578,14.578,0,0,1,1.9-.79q14.149-5.452,28.271-10.886M73.973,44.263c0,5.225.112,10.454-.05,15.674-.072,2.341,1.059,2.536,2.87,2.45,1.686-.08,3.225.29,3.185-2.438-.15-10.251-.126-20.506-.009-30.758.027-2.334-1.058-2.535-2.87-2.455-1.7.075-3.289-.274-3.182,2.445.2,5.02.057,10.053.057,15.082M168.9,133.8c0-5.225-.118-10.455.052-15.674.079-2.425-1.186-2.488-2.925-2.387-1.512.087-3.145-.455-3.117,2.187q.166,15.674.008,31.35c-.026,2.737,1.78,1.967,3.206,2.067,1.553.109,2.885.168,2.819-2.165-.144-5.123-.044-10.252-.043-15.378M85.838,38.539c0,3.25.123,6.506-.042,9.747-.116,2.285,1.176,2.356,2.772,2.2,1.388-.134,3.289.756,3.245-2.013-.1-6.6-.089-13.2-.007-19.793.032-2.547-1.721-1.857-3.051-1.9-1.408-.045-3.057-.471-2.95,2.009.138,3.244.034,6.5.033,9.748m71.2,101.211c0-3.348-.11-6.7.035-10.043.118-2.713-1.734-2.011-3.181-2.092-1.53-.085-2.888-.207-2.841,2.144q.191,9.745,0,19.5c-.047,2.424,1.423,2.119,2.891,2.083,1.485-.036,3.269.538,3.132-2.138-.161-3.143-.037-6.3-.037-9.452M77.993,114.509c-1.174,1.291-2.394,2.44-3.375,3.767-.908,1.226.548,1.684,1.128,2.286,2.663,2.766,5.409,5.452,8.127,8.165,2.872,2.868,2.833,2.83,5.7-.172.9-.94,1.232-1.518.121-2.586-3.479-3.345-6.849-6.8-10.268-10.211-.335-.334-.712-.624-1.433-1.25m89.149-36.384c.06-3.709-1.138-4.606-4.716-3.614-3.878,1.075-7.744,2.2-11.655,3.146-1.653.4-2.3,1.1-1.414,2.6.724,1.223-.356,4.082,2.879,3.167,4.342-1.228,8.737-2.271,13.092-3.454.9-.245,2.021-.48,1.814-1.846M122.016,53.264c-.146,1.971.327,2.285,3.329,2.975,1.33.306,2.067-.034,2.411-1.338q1.84-6.962,3.7-13.918c.422-1.57-.707-2.029-1.763-2.047-1.285-.023-3.092-2.022-3.794.091-1.573,4.733-2.66,9.627-3.886,14.236M141.247,68.2c.46-.407.916-.772,1.327-1.182,3.215-3.2,6.346-6.493,9.662-9.586,1.474-1.375,1.141-2.268-.19-3.268-1.17-.88-1.916-3.156-3.969-1.022-3.145,3.269-6.408,6.425-9.6,9.648-.592.6-1.569,1.228-.738,2.213a11.01,11.01,0,0,0,3.509,3.2m-37.6-35.388c0-1.375-.07-2.754.015-4.124.157-2.535-1.687-1.879-3.02-1.9-1.378-.027-3.094-.531-2.965,1.971a71.778,71.778,0,0,1-.006,7.657c-.106,1.931.808,2.131,2.444,2.284,2.818.264,4.037-.628,3.555-3.53a14.884,14.884,0,0,1-.022-2.353M145.17,145.639c0-1.473.007-2.946,0-4.419-.005-.8-.035-1.473-1.109-1.743-3.475-.875-4.827.1-4.829,3.645q0,3.241.007,6.481c0,.8.039,1.468,1.111,1.738,3.483.874,4.824-.09,4.828-3.639q0-1.032,0-2.063" transform="translate(-26.442 -4.647)" fill="#ffd76b"/>
    <path id="Trazado_606250" data-name="Trazado 606250" d="M103.322,206c23.72,0,47.441-.039,71.16.06,2.385.01,2.864-.678,2.856-2.93q-.123-35.727,0-71.455c.009-2.328-.571-3.1-2.91-2.892s-4.746-.059-7.11.083c-1.642.1-1.99-.556-1.925-2.03.138-3.148-1.049-7.27.518-9.185,1.634-2,5.921-.572,9.041-.6,8.077-.083,11.229,3.146,11.229,11.276,0,26.685-.067,53.37.091,80.053.018,3.149-.936,3.584-3.74,3.569-21.446-.117-42.893-.041-64.34-.1-2.114-.006-3.559-.034-3.28,2.821.2,2.073-1.172,3.175-3.374,3.159-5.535-.042-11.07-.059-16.6.008-2.5.03-3.829-1.16-3.613-3.547.212-2.35-.9-2.443-2.743-2.438-21.842.052-43.685-.012-65.526.1-2.484.012-3.045-.608-3.036-3.057.1-27.178.056-54.357.064-81.536,0-6.837,3.53-10.322,10.417-10.333,2.768,0,5.537.067,8.3-.029,1.464-.051,2.157.255,2.077,1.923-.132,2.761-.1,5.535-.009,8.3.045,1.34-.459,1.68-1.71,1.64-2.468-.08-4.951.113-7.408-.065-2.106-.153-2.844.325-2.834,2.671q.15,36.023.009,72.048c-.007,2.142.637,2.545,2.641,2.539C55.486,205.974,79.4,206,103.322,206" transform="translate(-8.137 -47.386)" fill="#d6d6d6"/>
    <path id="Trazado_606251" data-name="Trazado 606251" d="M98.811,299q-39.6,0-79.193-.007c-5.945,0-9.538-3.739-9.6-9.6-.019-1.833.481-2.318,2.312-2.3,9.391.1,18.784.044,28.177.044,12.951,0,25.9.023,38.854-.03a3.2,3.2,0,0,1,3.295,1.744,8.206,8.206,0,0,0,7.62,4.219q8.75-.043,17.5,0a8.29,8.29,0,0,0,7.663-4.154,3.252,3.252,0,0,1,3.253-1.822q33.515.086,67.032.006c1.7,0,2.419.24,2.4,2.209-.057,5.877-3.626,9.675-9.529,9.679q-39.893.027-79.786.008" transform="translate(-4.073 -116.696)" fill="#d6d6d6"/>
    <path id="Trazado_606252" data-name="Trazado 606252" d="M50.988,180.021c0,9.968-.143,19.94.088,29.9.068,2.955-1.456,2.448-3.226,2.556-2,.123-2.876-.167-2.86-2.614q.189-30.051-.008-60.1c-.021-2.869,1.382-2.5,3.218-2.6,2.073-.118,2.891.283,2.854,2.661-.154,10.065-.065,20.133-.065,30.2" transform="translate(-18.284 -59.808)" fill="#99d6f3"/>
    <path id="Trazado_606253" data-name="Trazado 606253" d="M270.882,180.041c0,9.771-.073,19.542.053,29.311.03,2.3-.294,3.267-2.939,3.177-2.326-.08-3.129-.424-3.112-3.013q.192-29.755.009-59.511c-.013-2.4.7-2.861,2.942-2.9,2.4-.042,3.156.487,3.114,3.034-.164,9.965-.067,19.935-.067,29.9" transform="translate(-107.666 -59.792)" fill="#99d6f3"/>
    <path id="Trazado_606254" data-name="Trazado 606254" d="M159.9,124.94q-14.1,5.43-28.271,10.885a14.7,14.7,0,0,0-1.9.791c-4.08,2.284-4.3,3.717-1.1,6.921,2.374,2.375,4.791,4.706,7.118,7.125,3.8,3.951,3.851,9.364.189,12.934-3.532,3.444-8.958,3.346-12.735-.3-2.841-2.743-5.737-5.449-8.356-8.4-1.573-1.77-2.644-1.607-3.863.11-1.464,2.06-2.609,2.133-4.5.131q-8.123-8.615-16.739-16.76c-1.9-1.806-1.588-2.7.094-4.315,5.2-4.986,10.057-10.335,15.387-15.169,4.315-3.913,5.133-9.372,7.236-14.249,2.564-5.948,4.763-12.056,7.013-18.134.473-1.278.771-1.737,1.889-.613q19.219,19.314,38.453,38.612c.05.05.036.166.084.428m-11.2-2.114L122.19,96.185c-2.16,5.619-4.466,11.443-6.633,17.318-1.233,3.344-2.466,6.647-5.482,8.841-1.423,1.035-.913,1.772.095,2.755,3.25,3.168,6.474,6.366,9.6,9.654,1.167,1.226,2,1.287,3.01-.052,1.981-2.636,4.832-3.862,7.826-4.964,6.156-2.265,12.258-4.674,18.089-6.911m-44.045,5.344a3.242,3.242,0,0,0-.731.411q-3.475,3.441-6.925,6.906c-.87.869-.127,1.388.424,1.94,1.607,1.608,3.186,3.247,4.838,4.809,2.195,2.076,4.275,6.116,6.525,5.8,2.517-.352,4.523-4.054,6.851-6.19,1.146-1.052,1.16-1.742.025-2.833-3.349-3.217-6.589-6.547-9.878-9.827-.347-.347-.729-.658-1.13-1.017m16.492,16.682a37.035,37.035,0,0,0-3.185,3.6c-.7,1.017.577,1.469,1.1,2.012,2.592,2.689,5.274,5.291,7.889,7.958,1.381,1.408,2.974,2.292,4.615.772,1.67-1.547.871-3.164-.545-4.564-2.8-2.765-5.564-5.558-8.347-8.336-.407-.405-.835-.789-1.527-1.441" transform="translate(-35.948 -34.656)" fill="#090909"/>
    <path id="Trazado_606255" data-name="Trazado 606255" d="M80.039,54.734c0-5.028.142-10.062-.057-15.082-.107-2.718,1.486-2.369,3.182-2.445,1.812-.08,2.9.121,2.87,2.455-.118,10.252-.141,20.507.009,30.758.04,2.727-1.5,2.358-3.185,2.438-1.811.087-2.943-.109-2.87-2.45.162-5.22.05-10.449.05-15.674" transform="translate(-32.508 -15.118)" fill="#f7f9fa"/>
    <path id="Trazado_606256" data-name="Trazado 606256" d="M235.919,205.206c0,5.126-.1,10.256.044,15.378.065,2.333-1.266,2.274-2.819,2.165-1.426-.1-3.231.67-3.206-2.067q.143-15.675-.008-31.35c-.028-2.642,1.6-2.1,3.117-2.187,1.739-.1,3-.037,2.926,2.387-.17,5.22-.052,10.449-.053,15.674" transform="translate(-93.459 -76.057)" fill="#f7f9fa"/>
    <path id="Trazado_606257" data-name="Trazado 606257" d="M100.04,49.014c0-3.25.105-6.5-.033-9.748-.106-2.48,1.542-2.054,2.95-2.009,1.33.043,3.083-.647,3.051,1.9-.083,6.6-.1,13.2.007,19.793.044,2.768-1.857,1.879-3.245,2.013-1.6.153-2.888.082-2.772-2.2.165-3.241.042-6.5.042-9.747" transform="translate(-40.643 -15.122)" fill="#f7f9fa"/>
    <path id="Trazado_606258" data-name="Trazado 606258" d="M215.929,219.291c0,3.152-.123,6.31.037,9.452.137,2.677-1.647,2.1-3.132,2.138-1.467.036-2.937.341-2.891-2.083q.19-9.746,0-19.5c-.046-2.351,1.311-2.229,2.841-2.144,1.446.08,3.3-.622,3.181,2.092-.145,3.342-.035,6.7-.035,10.043" transform="translate(-85.334 -84.188)" fill="#f7f9fa"/>
    <path id="Trazado_606259" data-name="Trazado 606259" d="M84.346,185.1c.722.626,1.1.916,1.433,1.249,3.419,3.408,6.789,6.866,10.269,10.211,1.11,1.068.777,1.645-.122,2.586-2.868,3-2.829,3.039-5.7.171-2.717-2.713-5.463-5.4-8.127-8.165-.579-.6-2.035-1.059-1.128-2.286.981-1.327,2.2-2.476,3.375-3.767" transform="translate(-32.794 -75.237)" fill="#090909"/>
    <path id="Trazado_606260" data-name="Trazado 606260" d="M224.6,121.066c.207,1.366-.913,1.6-1.814,1.846-4.355,1.184-8.749,2.226-13.092,3.454-3.235.915-2.155-1.944-2.879-3.167-.887-1.5-.239-2.2,1.415-2.6,3.91-.943,7.776-2.07,11.655-3.146,3.577-.992,4.776-.095,4.716,3.615" transform="translate(-83.903 -47.588)" fill="#f7f9fa"/>
    <path id="Trazado_606261" data-name="Trazado 606261" d="M161.011,71.5c1.226-4.609,2.312-9.5,3.885-14.236.7-2.113,2.51-.114,3.8-.091,1.056.018,2.185.476,1.763,2.047q-1.868,6.955-3.7,13.918c-.344,1.3-1.082,1.643-2.412,1.338-3-.69-3.475-1-3.329-2.975" transform="translate(-65.436 -22.882)" fill="#f7f9fa"/>
    <path id="Trazado_606262" data-name="Trazado 606262" d="M190.8,96.161a11,11,0,0,1-3.509-3.2c-.83-.984.147-1.614.738-2.212,3.193-3.224,6.456-6.379,9.6-9.648,2.052-2.134,2.8.142,3.969,1.021,1.331,1,1.664,1.893.19,3.268-3.316,3.094-6.448,6.384-9.662,9.586-.411.41-.867.775-1.327,1.182" transform="translate(-75.999 -32.605)" fill="#f7f9fa"/>
    <path id="Trazado_606263" data-name="Trazado 606263" d="M125.977,43.287A14.681,14.681,0,0,0,126,45.641c.483,2.9-.737,3.794-3.555,3.529-1.635-.153-2.55-.353-2.444-2.284a71.768,71.768,0,0,0,.006-7.656c-.129-2.5,1.587-2,2.965-1.972,1.334.026,3.177-.63,3.02,1.9-.085,1.37-.015,2.749-.014,4.124" transform="translate(-48.772 -15.121)" fill="#f7f9fa"/>
    <path id="Trazado_606264" data-name="Trazado 606264" d="M195.969,233.12q0,1.031,0,2.063c0,3.549-1.344,4.513-4.827,3.639-1.073-.269-1.109-.934-1.112-1.738q-.012-3.241-.006-6.481c0-3.548,1.353-4.52,4.828-3.645,1.075.271,1.1.942,1.109,1.743.01,1.473,0,2.946.005,4.419" transform="translate(-77.239 -92.128)" fill="#f7f9fa"/>
    <path id="Trazado_606265" data-name="Trazado 606265" d="M162.911,130.306c-5.831,2.237-11.934,4.646-18.09,6.911-2.994,1.1-5.845,2.327-7.825,4.964-1.005,1.339-1.844,1.278-3.01.052-3.128-3.288-6.352-6.487-9.6-9.654-1.007-.982-1.518-1.719-.094-2.755,3.017-2.194,4.249-5.5,5.482-8.841,2.167-5.875,4.473-11.7,6.633-17.318l26.507,26.641" transform="translate(-50.162 -42.136)" fill="#eb7052"/>
    <path id="Trazado_606266" data-name="Trazado 606266" d="M110.237,157.555c.4.359.783.671,1.13,1.017,3.288,3.28,6.529,6.61,9.878,9.827,1.135,1.091,1.121,1.781-.026,2.833-2.327,2.136-4.333,5.838-6.851,6.19-2.25.315-4.33-3.726-6.525-5.8-1.651-1.562-3.23-3.2-4.837-4.809-.552-.552-1.3-1.071-.424-1.94q3.46-3.456,6.924-6.906a3.224,3.224,0,0,1,.731-.411" transform="translate(-41.533 -64.041)" fill="#eb7052"/>
    <path id="Trazado_606267" data-name="Trazado 606267" d="M141.219,185.662c.693.652,1.121,1.036,1.527,1.441,2.784,2.777,5.552,5.57,8.347,8.336,1.416,1.4,2.215,3.017.545,4.564-1.641,1.519-3.234.636-4.615-.772-2.616-2.666-5.3-5.269-7.889-7.958-.523-.543-1.8-.995-1.1-2.012a37.04,37.04,0,0,1,3.185-3.6" transform="translate(-56.024 -75.466)" fill="#99d6f3"/>
  </g>
</svg>
