<svg xmlns="http://www.w3.org/2000/svg" xmlns:xlink="http://www.w3.org/1999/xlink" width="134.615" height="133.615" viewBox="0 0 134.615 133.615">
  <defs>
    <clipPath id="clip-path">
      <path id="Trazado_606378" data-name="Trazado 606378" d="M151.433,75.384c0,36.9,30.133,66.808,67.307,66.808s67.307-29.912,67.307-66.808S255.912,8.576,218.74,8.576s-67.307,29.912-67.307,66.808" transform="translate(-151.433 -8.576)" fill="#e3ecf7"/>
    </clipPath>
    <clipPath id="clip-path-2">
      <rect id="Rect치ngulo_347562" data-name="Rect치ngulo 347562" width="102.596" height="102.638" fill="none"/>
    </clipPath>
  </defs>
  <g id="Grupo_1072963" data-name="Grupo 1072963" transform="translate(-4965.069 41.2)">
    <g id="Grupo_1017409" data-name="Grupo 1017409" transform="translate(4965.069 -41.2)">
      <g id="Grupo_1015634" data-name="Grupo 1015634" transform="translate(0)" clip-path="url(#clip-path)">
        <rect id="Rect치ngulo_346114" data-name="Rect치ngulo 346114" width="134.615" height="133.616" transform="translate(0 0)" fill="#e3ecf7"/>
      </g>
    </g>
    <g id="Grupo_1017423" data-name="Grupo 1017423" transform="translate(4981.404 -24.355)">
      <g id="Grupo_1017422" data-name="Grupo 1017422" clip-path="url(#clip-path-2)">
        <path id="Trazado_609031" data-name="Trazado 609031" d="M93.6,22.646a49.647,49.647,0,0,1,8.668,24.077c1.42,16.65-3.99,30.759-15.976,42.272a48.2,48.2,0,0,1-28.418,13.436c-17.069,1.958-31.818-3.21-43.795-15.607A48.921,48.921,0,0,1,.658,59.589C-1.474,45.515,1.558,32.625,10,21.2A49.486,49.486,0,0,1,43.256.963,49.738,49.738,0,0,1,80.191,9.275a3.374,3.374,0,0,0-.986,2.834c.053,2.372-.02,4.746-.04,7.12L76,22.146c-.216-.154-.439-.3-.646-.465a37.494,37.494,0,0,0-29.638-8.131A37.14,37.14,0,0,0,22.1,26.714a37.236,37.236,0,0,0-8.818,30.492A36.406,36.406,0,0,0,26.739,81c11.229,9.08,23.85,11.471,37.484,6.65C75.7,83.59,83.465,75.507,87.55,64.021a36.686,36.686,0,0,0,1.566-19.027,39.82,39.82,0,0,0-8.454-18.2l2.992-3.117c2.375-.014,4.751-.089,7.124-.018A3.454,3.454,0,0,0,93.6,22.646" transform="translate(0 -0.197)" fill="#3cb6e9"/>
        <path id="Trazado_609032" data-name="Trazado 609032" d="M261.266,22.448a3.454,3.454,0,0,1-2.826,1.011c-2.372-.071-4.749,0-7.124.018-1.369-.229-3.1.521-4.041-.318-1.04-.929-.177-2.732-.447-4.128.021-2.374.093-4.748.04-7.12a3.374,3.374,0,0,1,.986-2.834L256.382,0l.644.4V4.444c0,2.4.088,4.809-.034,7.205-.07,1.395.426,1.667,1.711,1.638,3.722-.085,7.448-.03,11.556-.03l-8.993,9.191" transform="translate(-167.663 0.001)" fill="#e75849"/>
        <path id="Trazado_609033" data-name="Trazado 609033" d="M107.893,53.993a39.821,39.821,0,0,1,8.454,18.2,36.687,36.687,0,0,1-1.566,19.027c-4.084,11.485-11.845,19.568-23.327,23.629C77.82,119.672,65.2,117.28,53.97,108.2A36.4,36.4,0,0,1,40.51,84.406a37.233,37.233,0,0,1,8.818-30.491,38.184,38.184,0,0,1,53.261-5.033c.208.165.431.311.647.465l-9.092,9.042c-.315-.2-.639-.384-.946-.594a25.268,25.268,0,0,0-20.7-3.943C59.51,56.808,50.7,70.368,53.261,83.419a25.673,25.673,0,0,0,49.523,3.576c2.8-8.617,1.346-16.606-4.006-23.9l9.115-9.1" transform="translate(-27.231 -27.398)" fill="#eee"/>
        <path id="Trazado_609034" data-name="Trazado 609034" d="M185.08,66.944l-9.115,9.1L166.8,85.26c-2.564,2.164-4.693,4.765-7.111,7.077a3.481,3.481,0,0,1-3.29,1.2,3.359,3.359,0,0,1-1.692-5.735c2.356-2.459,4.794-4.841,7.2-7.256l9.426-9.21,9.092-9.042,3.161-2.917c.27,1.4-.593,3.2.447,4.129.941.839,2.673.09,4.041.318l-2.992,3.117" transform="translate(-104.418 -40.348)" fill="#344b5a"/>
        <path id="Trazado_609035" data-name="Trazado 609035" d="M116.628,99.471l9.165-9.215c5.351,7.293,6.8,15.282,4.005,23.9a25.673,25.673,0,0,1-49.523-3.576c-2.562-13.05,6.25-26.61,19.234-29.566a25.268,25.268,0,0,1,20.7,3.943c.307.21.63.4.945.594l-9.426,9.21a12.338,12.338,0,0,0-8.6-1.387,12.807,12.807,0,1,0,13.5,6.1" transform="translate(-54.245 -54.559)" fill="#e75849"/>
        <path id="Trazado_609036" data-name="Trazado 609036" d="M143.9,126.683a12.861,12.861,0,1,1-13.5-6.1,12.338,12.338,0,0,1,8.6,1.387c-2.4,2.415-4.839,4.8-7.2,7.256a3.36,3.36,0,0,0,1.692,5.736,3.481,3.481,0,0,0,3.289-1.2c2.418-2.312,4.547-4.913,7.111-7.077" transform="translate(-81.514 -81.771)" fill="#ffc548"/>
      </g>
    </g>
  </g>
</svg>
