<svg xmlns="http://www.w3.org/2000/svg" xmlns:xlink="http://www.w3.org/1999/xlink" width="124.001" height="124" viewBox="0 0 124.001 124">
  <defs>
    <clipPath id="clip-path">
      <rect id="Rect치ngulo_347546" data-name="Rect치ngulo 347546" width="72.555" height="51.644" fill="none"/>
    </clipPath>
  </defs>
  <g id="Grupo_1017339" data-name="Grupo 1017339" transform="translate(-1090 -4900.469)">
    <g id="Grupo_1015098" data-name="Grupo 1015098">
      <g id="Grupo_1015002" data-name="Grupo 1015002" transform="translate(705.001 2842.469)">
        <path id="Uni칩n_12" data-name="Uni칩n 12" d="M8464.769,11817.939a62.055,62.055,0,1,1,20.7-16.051l8.516,22.111Z" transform="translate(-7991 -9642)" fill="#a3bfe4"/>
        <circle id="Elipse_4842" data-name="Elipse 4842" cx="48" cy="48" r="48" transform="translate(399 2072)" fill="#e3ecf7"/>
      </g>
      <g id="Grupo_1017346" data-name="Grupo 1017346" transform="translate(1115.723 4936.647)">
        <g id="Grupo_1017345" data-name="Grupo 1017345" clip-path="url(#clip-path)">
          <path id="Trazado_608947" data-name="Trazado 608947" d="M1.079,12.26A1.307,1.307,0,0,1,0,10.788c.02-1.661.015-3.323,0-4.984C0,4.922.371,4.465,1.293,4.495c.755.025,1.513-.033,2.265.017.613.041.789-.191.755-.774-.043-.753.03-1.512-.02-2.264C4.221.365,4.788.008,5.794.01,11.686.02,17.578.028,23.47,0a1.542,1.542,0,0,1,1.688,1.144c-.276.923-.945,1.116-1.831,1.114-5.051-.01-10.1.019-15.153.035-1.814-.119-1.814-.119-1.814,1.651q0,18.792-.02,37.584c0,.84.19,1.068,1.049,1.062,5.661-.042,11.323-.008,16.984-.028a25.209,25.209,0,0,1,7.483.9c1.088.33,2.165.7,3.284,1.059V42.845a.547.547,0,0,0,.023-.11q.015-18.783.041-37.566c0-.584-.291-.774-.739-.96A24.658,24.658,0,0,0,29.209,2.59c-.841-.145-1.289-.542-1.247-1.418.415-.884,1.16-.828,1.928-.661a28.309,28.309,0,0,1,5.662,1.84,1.609,1.609,0,0,0,1.472-.009A27.645,27.645,0,0,1,48.321.006c6.044.033,12.089.008,18.133.009,1.626,0,1.8.185,1.807,1.824,0,2.641,0,2.641,2.7,2.66,1.384.01,1.594.2,1.594,1.56q0,20.735,0,41.471c0,1.3-.307,1.62-1.578,1.622-4.722.007-9.444,0-14.166.008-.8,0-1.428-.176-1.543-1.1.115-1.01.839-1.124,1.647-1.124,4.076,0,8.153-.033,12.228.024,1.015.014,1.321-.23,1.318-1.288q-.053-19.017,0-38.035c0-.873-.262-1.059-1.087-1.064-.882-.006-1.138.23-1.132,1.134.042,5.962.009,11.924.036,17.885,0,.81-.154,1.408-1,1.646-.9-.222-1.093-.835-1.09-1.7.027-7.439,0-14.877.034-22.316,0-.785-.179-1-.982-.993q-9.007.058-18.015.018a23.886,23.886,0,0,0-8.777,1.81,1.463,1.463,0,0,0-1.1,1.642q.05,18.011.024,36.022c0,.376.032.752.049,1.128a4.972,4.972,0,0,0,.042,1.75,27.426,27.426,0,0,1,11.717-2.044c5.122.073,10.246.018,15.369.018,1.706,0,1.706,0,1.615-1.764.012-3.151.045-6.3.023-9.453-.006-.833.221-1.383,1.092-1.536a1.228,1.228,0,0,1,1,1.407q-.039,6.055,0,12.109c.006.982-.419,1.348-1.365,1.335-2-.027-4-.042-6,0-5.465.11-10.938-.291-16.4.235a21.2,21.2,0,0,0-6.592,1.855,2.122,2.122,0,0,0-.478,2.184c.377.443.8-.031,1.162-.174a31.487,31.487,0,0,1,12.426-1.828c.743.019,1.346.233,1.413,1.116-.1.935-.719,1.12-1.524,1.107a30.939,30.939,0,0,0-8.531.7,28.4,28.4,0,0,0-3.83,1.293,5.482,5.482,0,0,1-4.487.022A25.906,25.906,0,0,0,23.527,49.14c-7.246.049-14.493.015-21.74.013C.267,49.153.01,48.9.01,47.392q0-15.34-.01-30.679c0-.862.07-1.6,1.1-1.784,1,.179,1.039.906,1.038,1.714-.01,9.664.008,19.327-.027,28.991,0,.991.19,1.336,1.275,1.327,6.72-.056,13.441-.033,20.162-.025a32.945,32.945,0,0,1,6.176.6,47.24,47.24,0,0,1,5.359,1.63c.206-2.207.208-2.211-1.68-2.934a23.45,23.45,0,0,0-8.391-1.564q-9.628-.023-19.256.007c-1.059,0-1.566-.373-1.465-1.46.028-.3,0-.6,0-.906,0-11.287.012-22.574-.03-33.861,0-.677.72-1.863-1.019-1.875-1.8-.012-.976,1.2-1.09,1.94a9.8,9.8,0,0,0-.014,2.147,1.34,1.34,0,0,1-1.065,1.6" transform="translate(0 0)" fill="#0d0c0c"/>
          <path id="Trazado_608948" data-name="Trazado 608948" d="M36.031,6.194c5.051-.016,10.1-.045,15.153-.035.886,0,1.555-.191,1.831-1.114l2.8.028c-.043.876.406,1.274,1.247,1.418a24.659,24.659,0,0,1,5.256,1.618c.448.186.74.377.738.96q-.04,18.783-.041,37.566a.531.531,0,0,1-.023.111,7.554,7.554,0,0,1-.974-.282,22.646,22.646,0,0,0-9.463-1.77c-4.949.055-9.9.015-14.848.014-1.553,0-1.683-.13-1.683-1.684q0-18.415,0-36.829M48.609,29.753q-4.3,0-8.6,0c-1.381,0-1.7.331-1.7,1.741q-.005,5.036,0,10.072c0,1.351.257,1.633,1.56,1.635q8.772.015,17.544,0c1.232,0,1.515-.306,1.517-1.552q.011-5.149,0-10.3c0-1.269-.329-1.594-1.6-1.6-2.905-.006-5.811,0-8.716,0M43.071,10.941c-1.236-.045-1.742.515-1.307,1.929.533,1.731.105,2.882-1.487,3.658a1.171,1.171,0,0,0-.184.131c-1.235.935-1.3,1.6.038,2.4,1.594.958,2.212,2.052,1.624,3.944-.435,1.4.179,2.068,1.564,1.707a3.348,3.348,0,0,1,4.289,1.887c.568,1.023,1.455,1.028,2.027.015.994-1.758,2.208-2.457,4.276-1.9,1.4.374,1.77-.147,1.62-1.591a5.326,5.326,0,0,0-.145-.775,2.069,2.069,0,0,1,1.031-2.732,5.4,5.4,0,0,0,1.254-.957,1.014,1.014,0,0,0,0-1.59,3.424,3.424,0,0,0-.895-.682,2.379,2.379,0,0,1-1.293-3.32,1.1,1.1,0,0,0,.034-.223c.233-1.643-.234-2.237-1.83-1.811-1.818.486-3,0-3.8-1.622a.629.629,0,0,0-.061-.1c-.909-1.214-1.56-1.288-2.333-.026-.961,1.57-2.054,2.5-3.97,1.7a1.429,1.429,0,0,0-.449-.039" transform="translate(-27.858 -3.901)" fill="#eceded"/>
          <path id="Trazado_608949" data-name="Trazado 608949" d="M194.439,49.634c.847-.238,1.005-.836,1-1.646-.026-5.962.006-11.924-.036-17.885-.007-.9.25-1.141,1.132-1.134.825.006,1.089.192,1.087,1.064q-.048,19.017,0,38.035c0,1.058-.3,1.3-1.318,1.288-4.075-.058-8.152-.023-12.228-.024-.808,0-1.532.114-1.647,1.124l-2.821,0c-.066-.883-.669-1.1-1.412-1.116a31.487,31.487,0,0,0-12.426,1.828c-.367.143-.786.618-1.162.174a2.122,2.122,0,0,1,.478-2.184,21.2,21.2,0,0,1,6.592-1.855c5.458-.525,10.931-.125,16.4-.234,2-.04,4-.026,6,0,.946.013,1.371-.353,1.365-1.335q-.038-6.055,0-12.11a1.228,1.228,0,0,0-.995-1.407q0-1.29,0-2.58" transform="translate(-127.161 -22.398)" fill="#d86d55"/>
          <path id="Trazado_608950" data-name="Trazado 608950" d="M4.758,34.656a1.34,1.34,0,0,0,1.065-1.6,9.8,9.8,0,0,1,.014-2.147c.114-.737-.705-1.952,1.09-1.94,1.739.012,1.017,1.2,1.019,1.875.042,11.287.03,22.574.03,33.861,0,.3.024.606,0,.906-.1,1.087.406,1.465,1.465,1.46q9.628-.038,19.256-.007a23.45,23.45,0,0,1,8.391,1.564c1.888.723,1.887.727,1.68,2.934a47.239,47.239,0,0,0-5.359-1.63,32.946,32.946,0,0,0-6.176-.6c-6.721-.008-13.442-.031-20.162.025-1.085.009-1.278-.336-1.275-1.327.035-9.664.017-19.327.027-28.991,0-.807-.042-1.534-1.038-1.714q-.012-1.334-.024-2.669" transform="translate(-3.679 -22.396)" fill="#d86d55"/>
          <path id="Trazado_608951" data-name="Trazado 608951" d="M194.608,34.822q0,1.29,0,2.579c-.871.153-1.1.7-1.092,1.536.022,3.151-.011,6.3-.023,9.453q-10.012,0-20.024,0a21.641,21.641,0,0,0-3.227.394,37.116,37.116,0,0,0-5.492,1.646c-.017-.376-.049-.752-.049-1.128q0-18.011-.024-36.022a1.463,1.463,0,0,1,1.1-1.642,23.886,23.886,0,0,1,8.777-1.81q9.007.032,18.015-.018c.8-.005.985.208.982.993-.032,7.438-.007,14.877-.034,22.316,0,.866.185,1.479,1.09,1.7M174.441,27.8A2.556,2.556,0,0,1,174.716,29a.977.977,0,0,0,1.143.976.93.93,0,0,0,.916-1.072c-.033-.6-.055-1.208-.127-1.807-.189-1.563-.007-1.93,1.458-2.741,0,.622.027,1.225-.007,1.825-.042.746.195,1.331,1,1.34.871.01,1.107-.612,1.071-1.4-.028-.606-.006-1.214-.006-1.876,1.275.816,1.848,1.74,1.4,3.124a6.265,6.265,0,0,0-.081,1.465.953.953,0,0,0,.96,1.142,1.022,1.022,0,0,0,1.114-1.033c.039-.361-.07-.765.291-1.071.614.4,1.176,1.291,2.011.439.819-.834.019-1.459-.5-2.155.479-.07.85-.115,1.218-.18a1.043,1.043,0,0,0,.995-1.154,1.016,1.016,0,0,0-1.186-.951c-.526.039-1.057.061-1.576.149-1.577.269-1.876.138-2.837-1.42.729,0,1.395.011,2.059,0a.986.986,0,0,0,1.062-1.071,1.009,1.009,0,0,0-1.1-1.039c-.66-.007-1.32,0-2.173,0,.846-1.091,1.528-1.893,2.9-1.413a6.413,6.413,0,0,0,1.686.151,1.009,1.009,0,0,0,1.171-.963c.057-.639-.371-1.024-1-1.159-.377-.08-.823.093-1.152-.3.549-.561,1.171-1.167.52-1.943-.813-.968-1.492-.027-2.25.468-.056-.5-.1-.829-.129-1.161a1.014,1.014,0,0,0-1.11-1.033.935.935,0,0,0-.963,1.129,6.341,6.341,0,0,0,.091,1.577c.49,1.431-.253,2.23-1.415,3.032,0-.817,0-1.52,0-2.224a.985.985,0,0,0-1.051-1.08.971.971,0,0,0-1.007,1.11c.021.7,0,1.393,0,2.186-1.223-.8-1.859-1.671-1.443-3.069a6.921,6.921,0,0,0,.111-1.577.921.921,0,0,0-.9-1.078.981.981,0,0,0-1.159.957c-.043.391.044.819-.344,1.165-.55-.516-1.107-1.224-1.916-.527-.963.83-.083,1.494.472,2.223-.5.062-.834.1-1.164.144-.691.1-1.154.5-1.082,1.191a1.02,1.02,0,0,0,1.2.934,6.716,6.716,0,0,0,1.686-.156c1.382-.481,2.052.323,2.833,1.416-.824,0-1.488-.014-2.151,0a.991.991,0,0,0-1.081,1.052.981.981,0,0,0,1.071,1.057c.664.015,1.329,0,2.139,0-.741,1.153-1.489,1.825-2.824,1.458a8.209,8.209,0,0,0-1.8-.186.994.994,0,0,0-1.08.942,1.043,1.043,0,0,0,.879,1.142c.412.118.888-.014,1.288.312-.521.606-1.274,1.193-.464,2.024.832.853,1.4.039,2.063-.491m4.7,19.2c2.868,0,5.735.005,8.6,0,1.343,0,1.7-.349,1.7-1.648q.011-5.092,0-10.185c0-1.334-.328-1.67-1.675-1.672q-8.659-.012-17.318,0c-1.326,0-1.628.335-1.63,1.7q-.005,5.036,0,10.072c0,1.411.311,1.728,1.715,1.731,2.868.007,5.735,0,8.6,0" transform="translate(-127.329 -7.586)" fill="#eceded"/>
          <path id="Trazado_608952" data-name="Trazado 608952" d="M29.785,9.961q0,18.415,0,36.829c0,1.554.13,1.684,1.683,1.685,4.949,0,9.9.041,14.848-.014a22.645,22.645,0,0,1,9.462,1.77,7.568,7.568,0,0,0,.974.282v1.672c-1.119-.362-2.2-.729-3.284-1.059a25.21,25.21,0,0,0-7.483-.9c-5.661.02-11.323-.015-16.984.028-.859.006-1.051-.222-1.049-1.062q.043-18.792.02-37.584c0-1.77,0-1.77,1.814-1.651" transform="translate(-21.611 -7.668)" fill="#dfdfe0"/>
          <path id="Trazado_608953" data-name="Trazado 608953" d="M164.808,181.95A37.116,37.116,0,0,1,170.3,180.3a21.645,21.645,0,0,1,3.227-.394q10.012.006,20.024,0c.091,1.764.091,1.764-1.615,1.764-5.123,0-10.247.056-15.369-.018a27.423,27.423,0,0,0-11.717,2.044,4.966,4.966,0,0,1-.042-1.75" transform="translate(-127.384 -139.104)" fill="#dfdfe0"/>
          <path id="Trazado_608954" data-name="Trazado 608954" d="M56.346,113.977c2.905,0,5.811,0,8.716,0,1.271,0,1.6.328,1.6,1.6q.009,5.149,0,10.3c0,1.247-.286,1.55-1.517,1.552q-8.772.015-17.544,0c-1.3,0-1.557-.284-1.559-1.635q-.01-5.036,0-10.072c0-1.41.323-1.739,1.7-1.741q4.3-.006,8.6,0m-1.019,6.753c0-1.281-.021-2.562.01-3.841.013-.545-.082-.816-.725-.8-1.883.04-3.767.032-5.65,0-.555-.008-.706.191-.7.72q.031,3.9,0,7.8c0,.517.106.727.677.717,1.92-.034,3.842-.028,5.763,0,.493.007.65-.137.638-.635-.032-1.317-.011-2.636-.011-3.954m9.156-.072c0-1.244-.029-2.49.012-3.733.021-.641-.19-.851-.836-.838-1.81.037-3.621.032-5.431,0-.6-.01-.873.1-.862.795q.06,3.845,0,7.692c-.008.616.2.754.772.744q2.828-.048,5.657,0c.553.01.711-.162.7-.7-.036-1.319-.012-2.639-.011-3.959" transform="translate(-35.595 -88.125)" fill="#0d0c0c"/>
          <path id="Trazado_608955" data-name="Trazado 608955" d="M53.7,22.263a1.478,1.478,0,0,1,.449.04c1.915.8,3.008-.128,3.969-1.7.773-1.262,1.424-1.188,2.333.026a.612.612,0,0,1,.061.1c.807,1.626,1.987,2.108,3.8,1.622,1.6-.427,2.063.168,1.83,1.811a1.125,1.125,0,0,1-.034.223,2.379,2.379,0,0,0,1.293,3.32,3.421,3.421,0,0,1,.9.682,1.014,1.014,0,0,1,0,1.59,5.4,5.4,0,0,1-1.255.957,2.069,2.069,0,0,0-1.031,2.732,5.3,5.3,0,0,1,.145.775c.15,1.444-.218,1.965-1.619,1.591-2.069-.553-3.283.146-4.276,1.9-.572,1.012-1.459,1.007-2.027-.016a3.348,3.348,0,0,0-4.289-1.887c-1.385.362-2-.306-1.564-1.707.587-1.892-.031-2.986-1.624-3.944-1.335-.8-1.273-1.463-.038-2.4a1.177,1.177,0,0,1,.184-.131c1.593-.775,2.02-1.926,1.487-3.658-.435-1.414.07-1.975,1.307-1.931m5.51.333c-.9,1.786-2.217,2.526-4.128,2.033-.612-.158-.453.277-.369.614a3.032,3.032,0,0,1-.239,2.406c-.4.665-1.141.973-1.695,1.543a7.423,7.423,0,0,0,.7.574,2.7,2.7,0,0,1,1.256,3.218c-.25.906.113.851.755.706A2.767,2.767,0,0,1,58.7,34.995c.147.231.271.528.589.6C61,33.649,61,33.628,63.363,33.768c.707.042.523-.322.423-.689a2.668,2.668,0,0,1,.724-2.894c.381-.347.807-.645,1.3-1.029-1.654-.982-2.6-2.185-1.967-4.153.2-.609-.365-.376-.653-.328a2.9,2.9,0,0,1-3.149-.984c-.241-.333-.494-.657-.824-1.095" transform="translate(-38.488 -15.224)" fill="#0d0c0c"/>
          <path id="Trazado_608956" data-name="Trazado 608956" d="M194.844,39.127c-.66.53-1.231,1.344-2.063.491-.81-.831-.058-1.417.463-2.024-.4-.326-.876-.193-1.288-.312a1.042,1.042,0,0,1-.878-1.142.994.994,0,0,1,1.08-.942,8.225,8.225,0,0,1,1.8.186c1.335.367,2.083-.305,2.824-1.458-.81,0-1.475.012-2.139,0a1.055,1.055,0,1,1,.01-2.109c.663-.017,1.327,0,2.151,0-.78-1.094-1.451-1.9-2.833-1.417a6.728,6.728,0,0,1-1.686.156,1.02,1.02,0,0,1-1.2-.934c-.072-.694.39-1.094,1.081-1.191.33-.046.662-.082,1.164-.144-.555-.729-1.435-1.393-.472-2.223.809-.7,1.366.011,1.916.527.387-.347.3-.775.344-1.166a.981.981,0,0,1,1.159-.957.921.921,0,0,1,.9,1.078,6.927,6.927,0,0,1-.111,1.577c-.417,1.4.219,2.27,1.442,3.068,0-.793.016-1.49,0-2.186a.971.971,0,0,1,1.006-1.111.985.985,0,0,1,1.051,1.08c0,.7,0,1.408,0,2.224,1.162-.8,1.9-1.6,1.415-3.032a6.353,6.353,0,0,1-.091-1.577.935.935,0,0,1,.963-1.129,1.014,1.014,0,0,1,1.11,1.034c.031.332.073.663.129,1.161.758-.5,1.437-1.436,2.25-.468.651.776.029,1.381-.52,1.943.33.395.775.222,1.152.3.633.135,1.061.52,1,1.159a1.009,1.009,0,0,1-1.171.963,6.412,6.412,0,0,1-1.686-.151c-1.37-.48-2.052.322-2.9,1.413.853,0,1.513-.006,2.173,0a1.009,1.009,0,0,1,1.1,1.039.986.986,0,0,1-1.062,1.071c-.665.014-1.33,0-2.059,0,.961,1.558,1.261,1.689,2.837,1.42.519-.088,1.049-.11,1.576-.149a1.016,1.016,0,0,1,1.186.951,1.043,1.043,0,0,1-.994,1.154c-.368.064-.739.11-1.218.18.523.7,1.322,1.32.5,2.155-.835.852-1.4-.038-2.012-.439-.361.306-.252.71-.291,1.071a1.022,1.022,0,0,1-1.114,1.033.953.953,0,0,1-.96-1.142,6.277,6.277,0,0,1,.081-1.465c.445-1.384-.129-2.308-1.4-3.124,0,.662-.023,1.27.006,1.876.037.785-.2,1.408-1.071,1.4-.8-.01-1.039-.594-1-1.34.034-.6.007-1.2.007-1.825-1.465.811-1.647,1.177-1.458,2.741.072.6.094,1.2.127,1.807a.93.93,0,0,1-.916,1.072.977.977,0,0,1-1.143-.976,2.559,2.559,0,0,0-.275-1.194" transform="translate(-147.733 -18.908)" fill="#0d0c0c"/>
          <path id="Trazado_608957" data-name="Trazado 608957" d="M193.264,127.735c-2.868,0-5.735,0-8.6,0-1.4,0-1.713-.321-1.715-1.731q0-5.036,0-10.072c0-1.367.3-1.7,1.63-1.7q8.659-.014,17.318,0c1.347,0,1.672.338,1.675,1.672q.009,5.092,0,10.185c0,1.3-.36,1.644-1.7,1.648-2.868.007-5.735,0-8.6,0m-8.137-6.763c0,1.246.026,2.492-.011,3.737-.018.594.085.881.783.863q2.773-.071,5.55,0c.687.017.8-.251.791-.855q-.044-3.737,0-7.474c.007-.593-.092-.873-.782-.855q-2.773.07-5.55,0c-.682-.017-.813.237-.792.848.042,1.244.012,2.491.013,3.737m16.213.085c0-1.32-.022-2.64.011-3.958.013-.534-.14-.715-.692-.706q-2.884.046-5.769,0c-.525-.008-.618.2-.615.661q.027,3.9,0,7.8c0,.526.126.72.686.711,1.885-.032,3.771-.038,5.656,0,.626.013.752-.222.737-.782-.034-1.243-.01-2.488-.011-3.732" transform="translate(-141.451 -88.316)" fill="#0d0c0c"/>
          <path id="Trazado_608958" data-name="Trazado 608958" d="M62.908,127.927c0,1.318-.021,2.637.011,3.954.012.5-.146.642-.638.635-1.921-.025-3.843-.031-5.763,0-.57.01-.681-.2-.677-.717q.033-3.9,0-7.8c0-.529.147-.728.7-.72,1.883.028,3.767.037,5.65,0,.643-.014.738.257.725.8-.031,1.28-.01,2.561-.01,3.841" transform="translate(-43.175 -95.321)" fill="#dfdfe0"/>
          <path id="Trazado_608959" data-name="Trazado 608959" d="M103.11,127.859c0,1.32-.024,2.64.011,3.959.015.542-.143.714-.7.7q-2.828-.049-5.657,0c-.574.01-.78-.128-.772-.744.034-2.564.039-5.129,0-7.692-.011-.692.265-.8.862-.795,1.81.029,3.621.035,5.431,0,.646-.013.857.2.836.838-.042,1.243-.012,2.488-.012,3.733" transform="translate(-74.222 -95.325)" fill="#dfdfe0"/>
          <path id="Trazado_608960" data-name="Trazado 608960" d="M69.449,32.5c.33.438.583.762.824,1.095a2.9,2.9,0,0,0,3.149.984c.287-.047.849-.281.653.328-.634,1.968.313,3.171,1.967,4.153-.488.385-.914.683-1.3,1.029a2.668,2.668,0,0,0-.724,2.894c.1.367.284.731-.423.689-2.36-.14-2.361-.119-4.07,1.829-.319-.075-.443-.371-.589-.6A2.767,2.767,0,0,0,65.729,43.6c-.642.145-1,.2-.755-.706a2.7,2.7,0,0,0-1.255-3.218,7.391,7.391,0,0,1-.7-.575c.554-.57,1.294-.878,1.695-1.543a3.032,3.032,0,0,0,.239-2.406c-.085-.336-.244-.772.369-.614,1.911.493,3.233-.247,4.128-2.033m.012,3.1a3.487,3.487,0,1,0,.064,6.974,3.487,3.487,0,1,0-.064-6.974" transform="translate(-48.726 -25.131)" fill="#ffdd63"/>
          <path id="Trazado_608961" data-name="Trazado 608961" d="M192.515,128.351c0-1.246.03-2.492-.013-3.737-.021-.611.11-.865.792-.848q2.773.07,5.55,0c.691-.017.789.262.782.855q-.041,3.737,0,7.474c.007.6-.1.872-.791.855q-2.773-.069-5.55,0c-.7.018-.8-.269-.783-.863.037-1.245.011-2.491.011-3.737" transform="translate(-148.84 -95.695)" fill="#dfdfe0"/>
          <path id="Trazado_608962" data-name="Trazado 608962" d="M239.955,128.452c0,1.244-.023,2.489.011,3.732.015.56-.111.8-.737.782-1.885-.04-3.771-.035-5.656,0-.56.01-.69-.185-.686-.711.023-2.6.02-5.2,0-7.8,0-.465.09-.669.615-.661q2.884.044,5.769,0c.552-.009.706.173.692.706-.033,1.319-.011,2.639-.011,3.958" transform="translate(-180.067 -95.712)" fill="#dfdfe0"/>
          <path id="Trazado_608963" data-name="Trazado 608963" d="M79.54,46.16a3.487,3.487,0,1,1-3.485,3.469A3.6,3.6,0,0,1,79.54,46.16m.01,4.794c.734-.069,1.275-.382,1.3-1.225a1.279,1.279,0,1,0-2.556-.1c-.024.839.463,1.208,1.254,1.321" transform="translate(-58.805 -35.691)" fill="#0d0c0c"/>
          <path id="Trazado_608964" data-name="Trazado 608964" d="M87.191,58.537c-.791-.113-1.278-.482-1.254-1.321a1.279,1.279,0,1,1,2.556.1c-.027.843-.568,1.156-1.3,1.225" transform="translate(-66.445 -43.273)" fill="#ffdd63"/>
        </g>
      </g>
    </g>
  </g>
</svg>
