<svg xmlns="http://www.w3.org/2000/svg" xmlns:xlink="http://www.w3.org/1999/xlink" width="134.615" height="133.615" viewBox="0 0 134.615 133.615">
  <defs>
    <clipPath id="clip-path">
      <path id="Trazado_606378" data-name="Trazado 606378" d="M151.433,75.384c0,36.9,30.133,66.808,67.307,66.808s67.307-29.912,67.307-66.808S255.912,8.576,218.74,8.576s-67.307,29.912-67.307,66.808" transform="translate(-151.433 -8.576)" fill="#e3ecf7"/>
    </clipPath>
    <clipPath id="clip-path-2">
      <rect id="Rect치ngulo_347563" data-name="Rect치ngulo 347563" width="99" height="96.492" fill="none"/>
    </clipPath>
  </defs>
  <g id="Grupo_1072964" data-name="Grupo 1072964" transform="translate(-4041.336 -122.031)">
    <g id="Grupo_1017415" data-name="Grupo 1017415" transform="translate(4041.336 122.031)">
      <g id="Grupo_1015634" data-name="Grupo 1015634" transform="translate(0)" clip-path="url(#clip-path)">
        <rect id="Rect치ngulo_346114" data-name="Rect치ngulo 346114" width="134.615" height="133.616" transform="translate(0 0)" fill="#e3ecf7"/>
      </g>
    </g>
    <g id="Grupo_1017425" data-name="Grupo 1017425" transform="translate(4062.681 139.531)">
      <g id="Grupo_1017424" data-name="Grupo 1017424" clip-path="url(#clip-path-2)">
        <path id="Trazado_609037" data-name="Trazado 609037" d="M165.037,81.057c-3.6.573-7.184,1.039-10.834.125a28.194,28.194,0,0,1-7.038-2.882,28.108,28.108,0,0,1-7.178-7.458c-3.963-7.667-4.085-15.3.468-22.746a21.9,21.9,0,0,1,40.19,7.962c1.231,7.577-1.072,14.188-6.46,19.691a31.663,31.663,0,0,1-9.147,5.308m-21.49-21.239a15.521,15.521,0,0,0,15.525,15.369,15.393,15.393,0,1,0-15.525-15.369" transform="translate(-86.883 -23.937)" fill="#f8d61f"/>
        <path id="Trazado_609038" data-name="Trazado 609038" d="M41.95,198.887c-5.916-.143-11.831-.153-17.747,0a15.525,15.525,0,0,0-3.748,0Q12.23,198.844,4,198.8c-3.134-.014-4.782-2.47-3.644-5.416a.8.8,0,0,1,.822-.558c.487-.018.975-.017,1.462-.017q30.355,0,60.71.023c1.053,0,2.5-.639,2.46,1.542-.067,3.487-.447,4.406-2.632,4.423-5.181.041-10.362,0-15.543,0-.668,0-1.336.056-2,.086a15.465,15.465,0,0,0-3.686,0" transform="translate(0 -122.213)" fill="#f8d61f"/>
        <path id="Trazado_609039" data-name="Trazado 609039" d="M213.572,146.895a31.656,31.656,0,0,0,9.147-5.308c3.633,6.318,7.294,12.62,10.886,18.96a5.069,5.069,0,0,1-1.654,7.163c-2.539,1.51-5.5.7-7.165-2.1-3.286-5.536-6.491-11.12-9.748-16.673-.423-.721-.669-1.585-1.467-2.042" transform="translate(-135.418 -89.775)" fill="#e13f64"/>
        <path id="Trazado_609040" data-name="Trazado 609040" d="M66.17,107.849c0,3.344-.041,6.689.019,10.031.024,1.344-.465,1.881-1.815,1.79a26.572,26.572,0,0,0-3.645,0c-1.325.093-1.711-.572-1.71-1.737q.012-10.214,0-20.428c0-1.281.543-1.894,1.857-1.882,6.36.057,5.194-.69,5.289,4.93.041,2.431.007,4.864.007,7.3" transform="translate(-37.42 -60.628)" fill="#57b3a1"/>
        <path id="Trazado_609041" data-name="Trazado 609041" d="M23.145,127.271c0,1.943-.04,3.887.015,5.829.036,1.26-.479,1.669-1.726,1.7-5.444.124-5.443.156-5.443-5.248,0-2.732.03-5.465-.011-8.2-.019-1.29.466-1.934,1.811-1.886,1.213.043,2.428.027,3.643.005,1.237-.023,1.745.57,1.722,1.788-.037,2-.01,4.007-.01,6.011" transform="translate(-10.131 -75.748)" fill="#57b3a1"/>
        <path id="Trazado_609042" data-name="Trazado 609042" d="M109.13,127.219c0,1.943-.04,3.886.014,5.827.034,1.212-.364,1.818-1.67,1.746a32.1,32.1,0,0,0-3.822,0c-1.321.085-1.712-.583-1.71-1.743q.012-5.919,0-11.837c0-1.224.555-1.755,1.778-1.742,6.355.071,5.33-.708,5.411,5.014.013.91,0,1.821,0,2.732" transform="translate(-64.636 -75.752)" fill="#57b3a1"/>
        <path id="Trazado_609043" data-name="Trazado 609043" d="M53.153,42.465c-.184-3.452,1.284-5.832,4.108-6.661a5.605,5.605,0,0,1,6.559,2.621,6.3,6.3,0,0,1,.769,4.034l-1.736,3.09a6.261,6.261,0,0,1-7.963,0l-1.737-3.082" transform="translate(-33.693 -22.547)" fill="#f8d61f"/>
        <path id="Trazado_609044" data-name="Trazado 609044" d="M97.985,61.569a6.456,6.456,0,0,1,5.794-1.322,12.214,12.214,0,0,1,2.872,2.06,5.8,5.8,0,0,1-4.991,9.16c-3.427-.245-5.6-3.024-5.282-6.944a11.616,11.616,0,0,1,1.607-2.953" transform="translate(-61.09 -38.07)" fill="#e13f64"/>
        <path id="Trazado_609045" data-name="Trazado 609045" d="M21.613,64.495c.352,4.414-2.576,6.719-5.148,6.985a5.731,5.731,0,0,1-5.78-3.3A5.4,5.4,0,0,1,11.91,61.7a5.8,5.8,0,0,1,6.587-.99c.486.243.955.519,1.432.779l1.684,3.01" transform="translate(-6.404 -38.106)" fill="#4887c7"/>
        <path id="Trazado_609046" data-name="Trazado 609046" d="M140.279,9.235c-.913-1.933-1.368-3.94-.43-5.963a5.63,5.63,0,0,1,6.869-3A5.711,5.711,0,0,1,150.646,6.5a5.779,5.779,0,0,1-5.878,4.925c-.546-.01-1.09-.081-1.636-.123q-1.427-1.034-2.853-2.071" transform="translate(-88.345 0)" fill="#57b3a1"/>
        <path id="Trazado_609047" data-name="Trazado 609047" d="M40.348,209.342a15.545,15.545,0,0,1,3.748,0c-2.417,5.434-5.372,10.6-7.993,15.931-.321.653-.671,1.292-1,1.943-.587,1.178-1.212,2.525-2.829,1.666-1.5-.8-.8-2.042-.236-3.15,1.358-2.645,2.724-5.285,4.067-7.937,1.424-2.813,2.827-5.637,4.238-8.456" transform="translate(-19.893 -132.664)" fill="#123358"/>
        <path id="Trazado_609048" data-name="Trazado 609048" d="M114.635,209.338a15.466,15.466,0,0,1,3.686,0q4.061,8.038,8.124,16.074c.164.325.35.639.516.964.5.985.525,1.951-.539,2.513-1.13.6-1.971.074-2.523-1.01-1.791-3.515-3.632-7-5.371-10.545-1.307-2.66-2.948-5.16-3.892-8" transform="translate(-72.686 -132.664)" fill="#123358"/>
        <path id="Trazado_609049" data-name="Trazado 609049" d="M145,128.176a28.1,28.1,0,0,0,7.178,7.458c-.006.061-.007.122-.018.182-.257,1.41.7,3.412-.536,4.142-1.63.963-3.8.292-5.733.294-.9,0-.964-.789-.961-1.481q.024-5.3.07-10.595" transform="translate(-91.893 -81.272)" fill="#57b3a1"/>
        <path id="Trazado_609050" data-name="Trazado 609050" d="M125.9,25.235q1.426,1.036,2.853,2.071l-9.226,12.931a12.212,12.212,0,0,0-2.872-2.06L125.9,25.235" transform="translate(-73.967 -16.001)" fill="#123358"/>
        <path id="Trazado_609051" data-name="Trazado 609051" d="M38.644,60.9l-1.684-3.01L42.9,54.431l1.737,3.082L38.644,60.9" transform="translate(-23.435 -34.513)" fill="#123358"/>
        <path id="Trazado_609052" data-name="Trazado 609052" d="M87.422,58a11.615,11.615,0,0,0-1.607,2.953l-6.127-3.449,1.736-3.091,6,3.587" transform="translate(-50.527 -34.503)" fill="#123358"/>
        <path id="Trazado_609053" data-name="Trazado 609053" d="M154.847,71.342a15.464,15.464,0,1,1,15.525,15.369,15.411,15.411,0,0,1-15.525-15.369" transform="translate(-98.182 -35.46)" fill="#4887c7"/>
      </g>
    </g>
  </g>
</svg>
