<svg xmlns="http://www.w3.org/2000/svg" xmlns:xlink="http://www.w3.org/1999/xlink" width="134.615" height="133.615" viewBox="0 0 134.615 133.615">
  <defs>
    <clipPath id="clip-path">
      <path id="Trazado_606378" data-name="Trazado 606378" d="M151.433,75.384c0,36.9,30.133,66.808,67.307,66.808s67.307-29.912,67.307-66.808S255.912,8.576,218.74,8.576s-67.307,29.912-67.307,66.808" transform="translate(-151.433 -8.576)" fill="#e3ecf7"/>
    </clipPath>
    <clipPath id="clip-path-2">
      <rect id="Rect치ngulo_347561" data-name="Rect치ngulo 347561" width="99.947" height="99.926" fill="none"/>
    </clipPath>
  </defs>
  <g id="Grupo_1072962" data-name="Grupo 1072962" transform="translate(-396.336 -9445)">
    <g id="Grupo_1015635" data-name="Grupo 1015635" transform="translate(396.336 9445)">
      <g id="Grupo_1015634" data-name="Grupo 1015634" transform="translate(0)" clip-path="url(#clip-path)">
        <rect id="Rect치ngulo_346114" data-name="Rect치ngulo 346114" width="134.615" height="133.616" transform="translate(0 0)" fill="#e3ecf7"/>
      </g>
    </g>
    <g id="Grupo_1017421" data-name="Grupo 1017421" transform="translate(419.733 9460.95)">
      <g id="Grupo_1017420" data-name="Grupo 1017420" clip-path="url(#clip-path-2)">
        <path id="Trazado_609024" data-name="Trazado 609024" d="M63.4,87.5q-.006,17.244-.014,34.488c0,1.98-.007,1.985-2.021,1.986q-29.648,0-59.3,0c-2.066,0-2.07,0-2.07-2.092Q0,79.594,0,37.3c0-2.153.166-2.324,2.3-2.321q15.759.022,31.518.051a35.178,35.178,0,0,0-3.844,5.658A1.856,1.856,0,0,1,28,41.783c-5.929-.036-11.858-.02-17.787-.015a10.747,10.747,0,0,0-1.555.074,1.245,1.245,0,0,0-1.126,1.284,1.317,1.317,0,0,0,1,1.41,4.918,4.918,0,0,0,1.391.1q8.036.008,16.071,0c2.08,0,1.9-.036,1.5,1.98-.323,1.655-1.139,1.833-2.565,1.81-4.94-.08-9.881-.031-14.822-.03a7.879,7.879,0,0,0-1.091.018c-.861.121-1.493.553-1.479,1.5s.638,1.359,1.537,1.393c.416.016.832.009,1.248.009,4.785,0,9.571.047,14.354-.03,1.312-.021,1.7.316,1.573,1.648-.2,2.147-.117,2.156-2.295,2.156q-5.071,0-10.142,0c-1.56,0-3.121-.012-4.679.049-.923.036-1.661.464-1.592,1.52.066,1,.766,1.406,1.719,1.418.364,0,.728,0,1.092,0,4.837,0,9.674-.007,14.511.009.558,0,1.294-.277,1.356.767a32.192,32.192,0,0,0,4.186,13.408c-1.144,0-2.288.009-3.432-.007-1.181-.017-1.64.525-1.638,1.722q.037,20.67,0,41.339c0,1.272.486,1.766,1.762,1.741,2.651-.052,5.3,0,7.955,0,2.445,0,2.444,0,2.446-2.4q.02-17,.042-34.005a53.2,53.2,0,0,0,7.135,4.51q-.019,15.048-.05,30.1c-.005,1.327.52,1.883,1.854,1.862,2.754-.044,5.509-.01,8.264-.012,2.1,0,2.1,0,2.1-2.066q.012-13.489.019-26.977L63.4,87.5M18.681,100.827c0-4.892-.023-9.783.015-14.674.01-1.3-.409-1.9-1.8-1.859-2.912.082-5.827.081-8.74.041-1.2-.017-1.644.411-1.639,1.641q.053,14.674,0,29.349c-.006,1.284.395,1.761,1.7,1.733,2.86-.062,5.725-.062,8.584.025,1.428.044,1.931-.465,1.914-1.893-.059-4.787-.022-9.575-.022-14.362M14.657,64.733c1.714,0,3.429,0,5.143,0,.981,0,1.8-.274,1.785-1.454-.012-1.152-.785-1.458-1.787-1.457q-5.221.007-10.442,0c-1.014,0-1.789.37-1.807,1.471-.019,1.155.827,1.439,1.81,1.441q2.649.006,5.3,0" transform="translate(0 -24.052)" fill="#cccbe7"/>
        <path id="Trazado_609025" data-name="Trazado 609025" d="M79.974,63.451l-6.532.569a37.717,37.717,0,0,1-12.189-2.9,53.237,53.237,0,0,1-7.135-4.511,39.418,39.418,0,0,1-7.137-8.394A32.2,32.2,0,0,1,42.8,34.805c-.061-1.043-.8-.765-1.356-.767-4.837-.016-9.674-.009-14.511-.01-.364,0-.728,0-1.092,0-.953-.012-1.653-.414-1.719-1.418-.069-1.056.669-1.484,1.592-1.52,1.558-.061,3.119-.047,4.679-.049q5.071-.008,10.142,0c2.178,0,2.09-.009,2.295-2.156.127-1.331-.26-1.669-1.573-1.648-4.784.077-9.569.031-14.354.03-.416,0-.833.006-1.248-.009-.9-.034-1.522-.438-1.536-1.393s.617-1.378,1.479-1.5a7.929,7.929,0,0,1,1.091-.018c4.941,0,9.883-.05,14.822.031,1.426.023,2.242-.156,2.565-1.81.394-2.016.578-1.98-1.5-1.98q-8.035,0-16.071,0a4.917,4.917,0,0,1-1.391-.1,1.317,1.317,0,0,1-1-1.41,1.246,1.246,0,0,1,1.126-1.284,10.787,10.787,0,0,1,1.555-.074c5.929,0,11.858-.02,17.787.015a1.856,1.856,0,0,0,1.976-1.093,35.182,35.182,0,0,1,3.844-5.657,34.168,34.168,0,0,1,14.254-9.42C75.834-2.3,89.728,1.182,97.705,9.948c10.948,12.031,11.805,28.383,2.115,41.515-.7.95-.535,1.385.213,2.124q7.656,7.564,15.232,15.21c1.394,1.4,1.619,2.853.712,4.183a3,3,0,0,1-4.735.31c-1.911-1.837-3.757-3.741-5.633-5.615-3.309-3.308-6.653-6.581-9.9-9.947-.813-.842-1.3-.78-2.153-.124a30.954,30.954,0,0,1-13.582,5.848M48.657,31.946A25.668,25.668,0,0,0,74.593,57.9c15.214-.037,25.79-11.932,25.93-25.772a25.934,25.934,0,1,0-51.866-.181" transform="translate(-16.573 0)" fill="#3e445d"/>
        <path id="Trazado_609026" data-name="Trazado 609026" d="M86.17,154.3a39.419,39.419,0,0,0,7.137,8.394q-.021,17-.042,34.006c0,2.395,0,2.4-2.446,2.4-2.652,0-5.3-.053-7.955,0-1.276.025-1.764-.47-1.762-1.742q.033-20.669,0-41.339c0-1.2.457-1.738,1.638-1.722,1.144.016,2.288.006,3.431.007" transform="translate(-55.761 -106.082)" fill="#feac40"/>
        <path id="Trazado_609027" data-name="Trazado 609027" d="M33,209.34c0,4.787-.037,9.575.022,14.362.018,1.428-.486,1.937-1.914,1.893-2.859-.087-5.724-.087-8.584-.025-1.3.028-1.7-.448-1.7-1.732q.062-14.675,0-29.349c0-1.23.436-1.658,1.639-1.642,2.913.04,5.829.042,8.74-.041,1.4-.039,1.815.556,1.8,1.86C32.98,199.557,33,204.448,33,209.34" transform="translate(-14.322 -132.565)" fill="#de1f4e"/>
        <path id="Trazado_609028" data-name="Trazado 609028" d="M142.895,195.612a37.709,37.709,0,0,0,12.189,2.9q-.008,13.488-.019,26.977c0,2.061-.005,2.064-2.1,2.066-2.755,0-5.51-.032-8.264.012-1.333.021-1.859-.535-1.854-1.862q.054-15.048.05-30.1" transform="translate(-98.215 -134.495)" fill="#afdce9"/>
        <path id="Trazado_609029" data-name="Trazado 609029" d="M31.268,123.8q-2.649,0-5.3,0c-.983,0-1.828-.286-1.81-1.441.018-1.1.793-1.473,1.807-1.471q5.221.008,10.442,0c1,0,1.776.306,1.787,1.457.012,1.18-.8,1.45-1.785,1.454-1.714.006-3.428,0-5.143,0" transform="translate(-16.611 -83.115)" fill="#3e445d"/>
        <path id="Trazado_609030" data-name="Trazado 609030" d="M102.689,45.06a25.934,25.934,0,1,1,51.866.181c-.141,13.84-10.716,25.735-25.93,25.772A25.668,25.668,0,0,1,102.689,45.06" transform="translate(-70.605 -13.115)" fill="#afdce9"/>
      </g>
    </g>
  </g>
</svg>
