<svg xmlns="http://www.w3.org/2000/svg" xmlns:xlink="http://www.w3.org/1999/xlink" width="189" height="189" viewBox="0 0 189 189">
  <defs>
    <clipPath id="clip-path">
      <rect id="Rectángulo_347535" data-name="Rectángulo 347535" width="119.364" height="113.621" fill="none"/>
    </clipPath>
  </defs>
  <g id="Grupo_161724" data-name="Grupo 161724" transform="translate(-750 -911)">
    <g id="Grupo_161158" data-name="Grupo 161158" transform="translate(750 911)">
      <circle id="Elipse_1142" data-name="Elipse 1142" cx="94.5" cy="94.5" r="94.5" fill="#fff"/>
    </g>
    <g id="Grupo_1017326" data-name="Grupo 1017326" transform="translate(784.818 938)">
      <g id="Grupo_1017325" data-name="Grupo 1017325" clip-path="url(#clip-path)">
        <path id="Trazado_608783" data-name="Trazado 608783" d="M93.018,23.711a2.221,2.221,0,0,1,3.128.5A13.082,13.082,0,0,0,99.3,26.716c3.135,1.771,4.108,8.189,1.731,10.821-.628.7-.822,1.113-.022,1.747a11.414,11.414,0,0,1,1.448,1.444A1.044,1.044,0,0,0,104,40.98c3.305-1.731,6.4-.974,8.487,1.952,1.911,2.672,1.522,5.7-1.115,8.337q-9.533,9.546-19.106,19.089c.492.6,1.088.33,1.588.332,6.458.022,12.916.01,19.374.018a5.675,5.675,0,0,1,5.394,2.984,5.6,5.6,0,0,1-4.952,8.292,1.938,1.938,0,0,0-1.994,1.267,17.613,17.613,0,0,0-2.068,7.627c-.011,1.2-.066,2.4-1.453,2.93-1.575.079-2.372-.7-2.2-2.24.155-1.378-.4-1.6-1.648-1.592-6.333.056-12.668.014-19,.006a13.761,13.761,0,0,1-1.489-.016,1.718,1.718,0,0,1-1.768-1.77c-.016-1.148.733-1.642,1.754-1.8a8.9,8.9,0,0,1,1.3-.025q9.129-.016,18.257-.03c3.268,0,3.238-.013,4.4-2.971.4-1.017.319-1.351-.9-1.349q-32.135.048-64.271.027c-.544,0-1.11-.1-1.555.4-1.091,1.221-2.208,2.418-3.56,3.893H39.7q14.065.015,28.131.029c1.445,0,3.239-.15,3.2,1.849-.041,1.976-1.839,1.766-3.277,1.764q-8.663-.012-17.326,0-6.614,0-13.227.025c-.644,0-1.344-.21-1.4.916A22.345,22.345,0,0,0,37.7,101.417a1.434,1.434,0,0,0,1.522,1.007q30.553-.08,61.1-.068c2.578,0,5.156,0,7.907,0-.543-1.5-1.247-2.825.308-3.845a2.343,2.343,0,0,1,2.783,1.816,2.735,2.735,0,0,0,2.944,2.111,5.438,5.438,0,0,1,5.065,5.8,5.5,5.5,0,0,1-5.573,5.332c-4.223.059-8.447.017-12.671.017h-60c-4.44,0-5.993-1.264-6.769-5.586-.094-.524-.213-.856-.762-.767-5.247.852-6.593-2.983-8.054-6.683-.088-.222-.166-.447-.328-.887-2.349,2.532-4.619,4.977-6.886,7.424-1.182,1.275-2.325,2.588-3.545,3.824a8.525,8.525,0,0,1-12.291.183,8.38,8.38,0,0,1,.322-12.14c8.338-7.805,16.77-15.511,25.142-23.28a2.314,2.314,0,0,1,3.035-.254,2.28,2.28,0,0,1-.753,2.922C22.067,85.8,13.988,93.3,5.866,100.764a5.676,5.676,0,0,0-2.148,5.073,4.45,4.45,0,0,0,3.039,3.87,4.347,4.347,0,0,0,5.087-1.093Q22.886,96.8,33.911,84.974c2.913-3.127,5.8-6.279,8.694-9.422,2.066-2.243,2.064-2.244.133-4.18-2.4-2.41-2.419-2.425-4.956.056-1.028,1-2.037,1.88-3.568,1a2.326,2.326,0,0,1,.733-3.264c.539-.414.984-.953,1.527-1.362a3.625,3.625,0,0,0,1.612-3.577c-.3-3.9,2.941-6.618,6.827-5.981a2.024,2.024,0,0,0,2.215-.81c2.485-3.09,5.079-6.091,7.7-9.206-3.206-1.6-3.675-4.742-4.388-7.646a3.961,3.961,0,0,1,1.544-3.8c.82-.724.759-1.251-.05-1.9a11.8,11.8,0,0,1-1.451-1.443c-.449-.51-.8-.521-1.408-.146a6.258,6.258,0,0,1-8.487-1.968c-1.874-2.733-1.556-5.7,1.089-8.347Q52.2,12.45,62.752,1.945A6.057,6.057,0,0,1,69.9.647a6.58,6.58,0,0,1,3.645,6.73c-.049.363-.194.713-.245,1.076-.112.8-1.211,1.433-.806,2.138a17.635,17.635,0,0,0,2.271,2.436c.575.656.86.083,1.148-.222,1.993-2.112,4.171-1.86,6.8-1.142,3.722,1.017,4.985,4.368,7.337,6.671.694.68.046,1.5-.218,2.238a1.964,1.964,0,0,1-2.671-.306c-.731-.87-1.19-.634-1.888.068Q72.5,33.172,59.655,45.939c-.8.8-.66,1.227.08,1.879.973.857,1.863,1.809,2.788,2.72,1.069,1.115,2.187,2.188,3.191,3.36.8.939,1.373.913,2.232.016,2.575-2.684,5.236-5.285,7.865-7.917q8.611-8.62,17.233-17.227c.826-.821,1.49-1.466.235-2.485-.869-.7-.558-1.674-.261-2.574M76.849,105.978v-.028q-17.784,0-35.567,0c-.558,0-1.12-.017-1.674.039a2.015,2.015,0,0,0-.283,3.978,6.655,6.655,0,0,0,1.662.112q33.891.007,67.783,0c1.676,0,3.355.036,5.026-.063a1.919,1.919,0,0,0,1.952-2.072,1.865,1.865,0,0,0-2.027-1.957c-.434-.01-.869-.012-1.3-.012H76.849M44.8,78.419h1.426q31.486.01,62.973.017c1.552,0,3.108.039,4.656-.046a1.872,1.872,0,0,0,1.89-2.1,1.846,1.846,0,0,0-1.871-1.923c-.495-.031-.993-.019-1.49-.019q-27.853-.011-55.707-.028c-1.733,0-3.44-.087-4.97,1.008a2.419,2.419,0,0,1-2.127.459c-2.5-.932-3.235,1.116-4.781,2.629M65.426,58.851c-2.755,2.323-5.376,4.693-8.175,6.831-1.458,1.114-2.263,2.132-1.711,4.072.228.8.439.961,1.155.96q11.079-.024,22.159.009c.985,0,1.209-.325.877-1.178a5.28,5.28,0,0,1,.555-4.794c.44-.741.408-1.2-.229-1.737a10.477,10.477,0,0,1-1.445-1.448c-.569-.709-.982-.681-1.592,0a4.248,4.248,0,0,1-4.31,1.61c-2.734-.774-5.757-1.215-7.283-4.321m4.7-52.444a3.5,3.5,0,0,0-2.052-2.635,2.3,2.3,0,0,0-2.841.7q-10.664,10.636-21.3,21.3c-1.379,1.386-1.348,2.566-.086,3.886,1.329,1.391,2.593,1.462,4.017.046q10.681-10.62,21.31-21.291a3.012,3.012,0,0,0,.951-2.011m37.034,37.354a2.334,2.334,0,0,0-2.072.994q-2.95,2.977-5.924,5.93Q91.655,58.192,84.151,65.7C82.72,67.14,82.726,68.6,84.1,69.881c1.3,1.209,2.609,1.076,4.211-.522q10.222-10.191,20.416-20.412a6.49,6.49,0,0,0,.845-.986,2.788,2.788,0,0,0-2.417-4.2m-53.1-3.24a5.4,5.4,0,0,0,.693,2.1c.929,2.362.934,2.363,2.7.6Q68.837,31.828,80.224,20.435c1.009-1.01,2.028-2.009,3.026-3.031.326-.335.829-.639.445-1.246-.756-1.194-4.321-1.652-5.332-.643Q66.631,27.223,54.92,38.95c-.438.439-.923.856-.864,1.571m45.074-6.8c-.218-.561-.465-1.195-.71-1.828-.918-2.37-1.125-2.42-2.881-.665Q83.1,43.67,70.659,56.112c-.351.351-.706.7-1.027,1.077a.7.7,0,0,0-.045.995c1,1.267,4.149,1.56,5.276.434q11.726-11.705,23.433-23.43c.387-.387.867-.734.834-1.462m-43.891-.31c.577-.545.945-.876,1.295-1.226Q63.7,25.017,70.862,17.84c1.882-1.885,1.844-1.849-.026-3.768-.8-.826-1.3-.979-2.2-.057-5,5.092-10.072,10.107-15.1,15.171-.384.386-1.281.725-.752,1.457a34.693,34.693,0,0,0,2.457,2.773m28.012,27.86c.392-.357.671-.591.928-.847,5.139-5.133,10.238-10.308,15.436-15.381,1.528-1.491-.033-1.939-.646-2.743-.735-.964-1.343-1.311-2.446-.175-4.888,5.033-9.9,9.946-14.837,14.933-.414.418-1.435.758-.86,1.576a26.009,26.009,0,0,0,2.425,2.638M62.874,56.228a5.079,5.079,0,0,0-.389-.526q-2.228-2.236-4.466-4.461c-.593-.59-1-.157-1.369.288q-3.438,4.121-6.865,8.251c-.271.326-.741.7-.359,1.109,1.054,1.126,2.168,2.2,3.308,3.241.381.348.815.061,1.161-.235l8.441-7.221c.172-.147.348-.289.537-.446m-18.589,5.4a2.629,2.629,0,0,0-2.579,1.478,2.014,2.014,0,0,0,.478,2.54c1.858,1.911,3.764,3.776,5.673,5.637,1.113,1.084,2.385,1.2,3.429.04a2.329,2.329,0,0,0-.2-3.474q-2.548-2.581-5.1-5.159c-.577-.583-1.195-1.092-1.7-1.061m-9.426,42.011a28.778,28.778,0,0,1-2.747-11.3c-4.313,4.049-4.419,4.4-2.695,8.393,1.378,3.191,1.378,3.191,5.442,2.906" transform="translate(0 0)" fill="#0f0b0b"/>
        <path id="Trazado_608784" data-name="Trazado 608784" d="M168.68,236.42c-1.556,1.02-.852,2.342-.308,3.845-2.751,0-5.329,0-7.907,0q-30.553.018-61.105.068a1.434,1.434,0,0,1-1.522-1.007,22.345,22.345,0,0,1-1.892-10.494c.055-1.126.755-.913,1.4-.916q6.614-.022,13.227-.025,8.663-.006,17.326,0c1.438,0,3.235.212,3.276-1.764.042-2-1.753-1.847-3.2-1.848q-14.065-.011-28.131-.029H97.624c1.352-1.475,2.469-2.672,3.56-3.893.445-.5,1.011-.4,1.555-.4q32.136-.007,64.271-.027c1.22,0,1.3.332.9,1.349-1.167,2.958-1.136,2.966-4.4,2.971q-9.128.011-18.257.03a8.906,8.906,0,0,0-1.3.025c-1.02.154-1.769.648-1.753,1.8a1.717,1.717,0,0,0,1.767,1.77,13.756,13.756,0,0,0,1.489.016c6.334.008,12.668.049,19-.007,1.248-.011,1.8.214,1.647,1.593-.173,1.535.624,2.319,2.2,2.24-.762,1.639.495,3.116.379,4.7m-39.151-4.088c-6.46,0-12.919.012-19.379-.01-1.3,0-2.748-.044-2.764,1.66-.017,1.821,1.492,1.78,2.855,1.776,6.335-.018,12.671-.008,19.006-.008q9.876,0,19.752,0c.951,0,1.9.027,2.363-1.047.555-1.292-.356-2.363-2.082-2.367-6.584-.016-13.168-.006-19.752-.007" transform="translate(-60.142 -137.909)" fill="#c1b1ad"/>
        <path id="Trazado_608785" data-name="Trazado 608785" d="M40.4,189.389c1.531.881,2.54,0,3.568-1,2.538-2.481,2.552-2.466,4.956-.056,1.931,1.936,1.933,1.938-.133,4.18-2.9,3.143-5.781,6.3-8.694,9.422q-11.022,11.831-22.066,23.64a4.347,4.347,0,0,1-5.087,1.094A4.45,4.45,0,0,1,9.9,222.8a5.675,5.675,0,0,1,2.149-5.073c8.122-7.46,16.2-14.967,24.327-22.423a2.28,2.28,0,0,0,.753-2.922l3.268-2.993" transform="translate(-6.181 -116.962)" fill="#58251e"/>
        <path id="Trazado_608786" data-name="Trazado 608786" d="M198.141,60.8c-.3.9-.607,1.869.262,2.574,1.255,1.019.591,1.664-.235,2.485q-8.643,8.587-17.233,17.227c-2.629,2.632-5.29,5.233-7.865,7.917-.859.9-1.428.923-2.232-.016-1-1.171-2.122-2.244-3.19-3.359a4.959,4.959,0,0,0,1.69-1.421q13.548-13.524,27.082-27.061l1.722,1.654" transform="translate(-105.123 -37.084)" fill="#aa473d"/>
        <path id="Trazado_608787" data-name="Trazado 608787" d="M190.683,55.187Q177.144,68.72,163.6,82.248a4.956,4.956,0,0,1-1.69,1.421c-.926-.911-1.816-1.864-2.789-2.72-.74-.652-.885-1.08-.08-1.879q12.852-12.758,25.617-25.605c.7-.7,1.158-.938,1.888-.068a1.964,1.964,0,0,0,2.671.306,3.424,3.424,0,0,1,1.465,1.484" transform="translate(-99.387 -33.131)" fill="#c1b1ad"/>
        <path id="Trazado_608788" data-name="Trazado 608788" d="M140.3,284.11H175.87c.434,0,.869,0,1.3.012a1.866,1.866,0,0,1,2.028,1.957,1.919,1.919,0,0,1-1.952,2.072c-1.67.1-3.35.063-5.026.063q-33.891,0-67.783,0a6.653,6.653,0,0,1-1.662-.112,2.016,2.016,0,0,1,.283-3.978c.553-.056,1.116-.039,1.674-.039q17.784,0,35.567,0v.028" transform="translate(-63.454 -178.133)" fill="#dd276f"/>
        <path id="Trazado_608789" data-name="Trazado 608789" d="M120.119,203.374c1.546-1.513,2.278-3.561,4.78-2.629a2.421,2.421,0,0,0,2.127-.459c1.53-1.1,3.238-1.01,4.97-1.008q27.853.027,55.707.028c.5,0,1-.012,1.49.019a1.846,1.846,0,0,1,1.871,1.923,1.873,1.873,0,0,1-1.89,2.1c-1.548.085-3.1.046-4.656.045q-31.486-.006-62.973-.017h-1.426" transform="translate(-75.32 -124.956)" fill="#dd276f"/>
        <path id="Trazado_608790" data-name="Trazado 608790" d="M142.254,12.335a3.013,3.013,0,0,1-.951,2.011Q130.652,25,119.993,35.637c-1.424,1.416-2.687,1.344-4.017-.047-1.262-1.32-1.293-2.5.086-3.886q10.622-10.678,21.3-21.3a2.305,2.305,0,0,1,2.841-.7,3.5,3.5,0,0,1,2.052,2.635" transform="translate(-72.129 -5.928)" fill="#58251e"/>
        <path id="Trazado_608791" data-name="Trazado 608791" d="M246.832,117.294a2.788,2.788,0,0,1,2.417,4.2,6.526,6.526,0,0,1-.845.986q-10.2,10.212-20.416,20.412c-1.6,1.6-2.914,1.731-4.211.522-1.378-1.284-1.383-2.741.047-4.177q7.493-7.522,15.012-15.019c1.976-1.976,3.957-3.946,5.924-5.931a2.335,2.335,0,0,1,2.072-.994" transform="translate(-139.673 -73.534)" fill="#58251e"/>
        <path id="Trazado_608792" data-name="Trazado 608792" d="M144.936,65.675c-.062-.716.423-1.133.862-1.571q11.719-11.721,23.443-23.435c1.011-1.008,4.576-.551,5.332.643.385.607-.118.911-.445,1.246-1,1.022-2.016,2.022-3.026,3.031q-11.388,11.392-22.776,22.783c-1.766,1.766-1.771,1.764-2.7-.6a5.354,5.354,0,0,1-.69-2.1" transform="translate(-90.879 -25.153)" fill="#58251e"/>
        <path id="Trazado_608793" data-name="Trazado 608793" d="M215.811,84.175c.033.728-.447,1.075-.834,1.462q-11.711,11.721-23.433,23.43c-1.127,1.125-4.273.833-5.276-.434a.7.7,0,0,1,.046-.995c.321-.377.677-.726,1.027-1.077q12.438-12.441,24.879-24.88c1.756-1.755,1.963-1.7,2.881.665.245.634.492,1.267.71,1.828" transform="translate(-116.682 -50.45)" fill="#58251e"/>
        <path id="Trazado_608794" data-name="Trazado 608794" d="M143.707,55.921a34.614,34.614,0,0,1-2.457-2.773c-.529-.732.368-1.071.752-1.457,5.026-5.064,10.1-10.079,15.1-15.171.9-.922,1.4-.768,2.2.057,1.87,1.919,1.908,1.883.026,3.768Q152.168,47.521,145,54.7c-.35.35-.718.681-1.295,1.226" transform="translate(-88.469 -22.506)" fill="#aa473d"/>
        <path id="Trazado_608795" data-name="Trazado 608795" d="M218.856,130.908a26,26,0,0,1-2.424-2.638c-.576-.818.446-1.159.859-1.576,4.937-4.986,9.949-9.9,14.837-14.933,1.1-1.136,1.711-.789,2.446.176.612.8,2.174,1.252.646,2.743-5.2,5.073-10.3,10.248-15.436,15.381-.257.256-.536.49-.928.847" transform="translate(-135.605 -69.633)" fill="#aa473d"/>
        <path id="Trazado_608796" data-name="Trazado 608796" d="M145.734,141.9c-.189.157-.365.3-.537.446l-8.441,7.22c-.346.3-.78.583-1.161.235-1.14-1.04-2.254-2.115-3.308-3.241-.382-.408.088-.783.359-1.108q3.431-4.127,6.865-8.251c.371-.445.775-.878,1.369-.288q2.238,2.225,4.466,4.461a5.042,5.042,0,0,1,.389.526" transform="translate(-82.86 -85.669)" fill="#58251e"/>
        <path id="Trazado_608797" data-name="Trazado 608797" d="M113.954,165.246c.505-.032,1.123.478,1.7,1.061q2.552,2.577,5.1,5.159a2.329,2.329,0,0,1,.2,3.473c-1.044,1.159-2.316,1.045-3.429-.04-1.909-1.861-3.815-3.725-5.672-5.637a2.013,2.013,0,0,1-.478-2.539,2.628,2.628,0,0,1,2.579-1.478" transform="translate(-69.67 -103.616)" fill="#aa473d"/>
        <path id="Trazado_608798" data-name="Trazado 608798" d="M82.564,258.9c-4.064.285-4.064.285-5.442-2.906C75.4,252,75.5,251.645,79.817,247.6a28.778,28.778,0,0,0,2.747,11.3" transform="translate(-47.706 -155.254)" fill="#dd276f"/>
        <path id="Trazado_608799" data-name="Trazado 608799" d="M148.817,253.161c6.584,0,13.168-.009,19.752.007,1.726,0,2.637,1.074,2.082,2.367-.461,1.074-1.412,1.048-2.363,1.047q-9.876-.008-19.752,0c-6.335,0-12.671-.01-19.006.008-1.363,0-2.872.046-2.855-1.776.016-1.7,1.46-1.664,2.764-1.66,6.46.022,12.919.01,19.379.01" transform="translate(-79.43 -158.737)" fill="#0f0b0b"/>
      </g>
    </g>
  </g>
</svg>
