<svg xmlns="http://www.w3.org/2000/svg" xmlns:xlink="http://www.w3.org/1999/xlink" width="124.001" height="124" viewBox="0 0 124.001 124">
  <defs>
    <clipPath id="clip-path">
      <rect id="Rect치ngulo_346166" data-name="Rect치ngulo 346166" width="67.58" height="71.733" fill="none"/>
    </clipPath>
  </defs>
  <g id="Grupo_1015728" data-name="Grupo 1015728" transform="translate(-387 -4900.469)">
    <g id="Grupo_1015095" data-name="Grupo 1015095">
      <g id="Grupo_1015003" data-name="Grupo 1015003" transform="translate(2 2842.469)">
        <g id="Grupo_159182" data-name="Grupo 159182" transform="translate(0.001)">
          <path id="Uni칩n_12" data-name="Uni칩n 12" d="M8464.769,11817.939a62.055,62.055,0,1,1,20.7-16.051l8.516,22.111Z" transform="translate(-7991 -9642)" fill="#a3bfe4"/>
          <circle id="Elipse_4842" data-name="Elipse 4842" cx="48" cy="48" r="48" transform="translate(399 2072)" fill="#e3ecf7"/>
        </g>
        <g id="Grupo_1015735" data-name="Grupo 1015735" transform="translate(413.21 2080.531)">
          <g id="Grupo_1015734" data-name="Grupo 1015734" clip-path="url(#clip-path)">
            <path id="Trazado_606533" data-name="Trazado 606533" d="M8.019,39.54c-.463-.865-.047-1.375.684-1.811a18.29,18.29,0,0,1,15.434-1.878c.379.117.754.244,1.234.4V29.914c0-2.911.16-5.833-.038-8.731-.288-4.228,3.739-7.217,8.05-5,0-1.807,0-3.531,0-5.256a6.9,6.9,0,0,1,.35-2.526,5.115,5.115,0,0,1,6.7-2.9c.271.11.53.251.927.44A5.673,5.673,0,0,1,43.483,1,5.027,5.027,0,0,1,46.836.009c2.819.157,4.406,2.056,4.83,5.861a12.563,12.563,0,0,1,2.267-.731,5.082,5.082,0,0,1,5.681,5.289q.053,6.55-.006,13.1c-.007.909-.008,1.321,1.123.859a4.867,4.867,0,0,1,6.754,4.658c.034,7.872.26,15.75-.129,23.618a19.317,19.317,0,0,1-2.8,8.723,1.236,1.236,0,0,1-1.663.667,1.371,1.371,0,0,1-.112-1.894,16.47,16.47,0,0,0,2.5-8.227c.111-7.677.062-15.356.047-23.035a2.736,2.736,0,0,0-2.809-2.724c-1.773-.015-2.864,1.178-2.871,3.224-.017,4.473-.008,8.946,0,13.418a2.992,2.992,0,0,1-.337,1.72,7.141,7.141,0,0,1-1.078.251,7.936,7.936,0,0,0-7.664,7.677c-.052.755-.257,1.362-1.142,1.328-.911-.034-1.036-.706-1.006-1.434a10.138,10.138,0,0,1,8.133-9.517c.882-.167.954-.491.952-1.209-.02-6.533-.012-13.066-.012-19.6,0-3.92.013-7.839-.007-11.759A2.936,2.936,0,0,0,54.45,7.251c-1.742.066-2.845,1.321-2.849,3.33-.013,6.458,0,12.917-.013,19.375,0,.815.254,1.949-1.03,1.959-1.35.01-1.1-1.147-1.1-2.01q-.011-12.207,0-24.414a2.961,2.961,0,0,0-1.742-3.08,2.863,2.863,0,0,0-4.1,2.824q-.024,12.375-.008,24.75a5.473,5.473,0,0,1-.03,1,1.088,1.088,0,0,1-2.166-.078c-.028-.3-.01-.6-.01-.9q0-9.743-.006-19.487a3.2,3.2,0,0,0-.177-1.42,2.916,2.916,0,0,0-3.355-1.775,2.865,2.865,0,0,0-2.318,2.987q-.011,12.1,0,24.19c0,.336.02.674-.013,1.007a1.059,1.059,0,0,1-2.1.082,5.328,5.328,0,0,1-.048-1c0-4.666.017-9.333-.014-14a2.932,2.932,0,1,0-5.851.023c-.019,5.338,0,10.677-.017,16.015a1.056,1.056,0,0,0,.59,1.052C36.912,42.97,39.5,55.362,33.607,63.671c-.3.426-.3.661.087,1.009A18.011,18.011,0,0,0,46.76,69.458a17.7,17.7,0,0,0,12.1-4.54c.623-.543,1.2-1.043,2.034-.4a1.236,1.236,0,0,1-.325,1.758A20.631,20.631,0,0,1,44.853,71.59a20.253,20.253,0,0,1-13-5.714A18.343,18.343,0,0,1,21.6,71.442,18.029,18.029,0,0,1,1.918,61.19,17.707,17.707,0,0,1,3.627,42.417c.5-.708,1.047-1.028,1.88-.656.634.722.291,1.312-.177,1.974C1.382,49.318,1.184,55.218,4.211,61.191c3.051,6.019,9.744,9.074,16.722,8.1,9.829-1.375,14.838-10.467,13.512-18.664A16.315,16.315,0,0,0,9.935,39.459c-.684.42-1.251.616-1.915.081" transform="translate(0 0)" fill="#110d0d"/>
            <path id="Trazado_606534" data-name="Trazado 606534" d="M15.4,167.939c.664.535,1.231.339,1.915-.081a16.315,16.315,0,0,1,24.511,11.165c1.327,8.2-3.683,17.29-13.512,18.664-6.978.976-13.671-2.08-16.722-8.1-3.028-5.972-2.83-11.873,1.119-17.455.468-.662.812-1.252.177-1.975a16.011,16.011,0,0,1,2.512-2.221M26.054,196.08a7.555,7.555,0,0,0,2.514-.31c9.608-2.158,15.051-13.065,9.045-22.062-.655-.982-1.332-1.068-2.171-.232q-8.985,8.964-17.949,17.947c-.794.8-.735,1.4.17,2.014a15.121,15.121,0,0,0,8.391,2.641M11.494,181.7a14.75,14.75,0,0,0,2.577,8.153c.617.871,1.25.959,2.022.19Q25.127,181.038,34.135,172c.8-.807.73-1.363-.2-2.007a14.16,14.16,0,0,0-7.026-2.573A14.537,14.537,0,0,0,11.494,181.7" transform="translate(-7.38 -128.399)" fill="#dd458c"/>
            <path id="Trazado_606535" data-name="Trazado 606535" d="M221.191,135.15a2.991,2.991,0,0,0,.337-1.72c0-4.473-.014-8.946,0-13.418.008-2.045,1.1-3.239,2.871-3.223a2.736,2.736,0,0,1,2.809,2.724c.015,7.678.064,15.358-.047,23.034a16.47,16.47,0,0,1-2.5,8.227,1.371,1.371,0,0,0,.112,1.895,10.648,10.648,0,0,1-2,2.466c-.831-.646-1.411-.145-2.034.4a17.7,17.7,0,0,1-12.1,4.54,22.027,22.027,0,0,0,7.6-5.437,19.9,19.9,0,0,0,4.939-12.677c.047-2.268.012-4.538.014-6.807" transform="translate(-161.88 -90.613)" fill="#f3a995"/>
            <path id="Trazado_606536" data-name="Trazado 606536" d="M154.493,51.9c0,2.269.033,4.539-.014,6.807a19.9,19.9,0,0,1-4.939,12.677,22.027,22.027,0,0,1-7.6,5.437,18.01,18.01,0,0,1-13.066-4.778c-.39-.348-.389-.582-.087-1.008,5.889-8.309,3.305-20.7-5.523-25.983a1.055,1.055,0,0,1-.59-1.052c.017-5.338,0-10.677.017-16.015a2.932,2.932,0,1,1,5.851-.023c.031,4.666.01,9.333.013,14a5.326,5.326,0,0,0,.048,1,1.059,1.059,0,0,0,2.1-.081c.033-.333.013-.671.013-1.007q0-12.1,0-24.19a2.865,2.865,0,0,1,2.319-2.987,2.916,2.916,0,0,1,3.355,1.774,3.2,3.2,0,0,1,.177,1.42q.012,9.743.006,19.487c0,.3-.019.6.01.9a1.088,1.088,0,0,0,2.166.078,5.5,5.5,0,0,0,.03-1.005q0-12.375.008-24.75a2.862,2.862,0,0,1,4.1-2.824,2.961,2.961,0,0,1,1.742,3.08q-.016,12.207,0,24.414c0,.863-.25,2.021,1.1,2.01,1.284-.01,1.028-1.143,1.03-1.959.014-6.458,0-12.917.013-19.375,0-2.008,1.107-3.263,2.849-3.33a2.936,2.936,0,0,1,3.036,3.026c.02,3.92.007,7.839.007,11.759,0,6.533-.008,13.066.012,19.6,0,.718-.069,1.042-.951,1.209a10.138,10.138,0,0,0-8.133,9.517c-.03.728.094,1.4,1.006,1.434.886.033,1.091-.573,1.142-1.328a7.936,7.936,0,0,1,7.664-7.678,7.108,7.108,0,0,0,1.078-.251" transform="translate(-95.182 -7.366)" fill="#f7bbab"/>
            <path id="Trazado_606537" data-name="Trazado 606537" d="M51.765,221.761a15.121,15.121,0,0,1-8.391-2.641c-.905-.614-.964-1.219-.17-2.014q8.964-8.985,17.949-17.947c.839-.837,1.516-.75,2.171.232,6.005,9,.562,19.9-9.046,22.062a7.555,7.555,0,0,1-2.514.31m10.272-20.5c-5.465,5.474-10.83,10.853-16.207,16.221-.431.43-.219.557.189.765a11.163,11.163,0,0,0,3.9,1.235,11.843,11.843,0,0,0,11.762-5.519c2.689-4.035,2.678-8.286.352-12.7" transform="translate(-33.091 -154.08)" fill="#110d0d"/>
            <path id="Trazado_606538" data-name="Trazado 606538" d="M18.359,188.267a14.537,14.537,0,0,1,15.412-14.28,14.16,14.16,0,0,1,7.026,2.573c.932.644,1.007,1.2.2,2.007q-9.006,9.036-18.042,18.043c-.772.77-1.405.682-2.022-.19a14.752,14.752,0,0,1-2.577-8.153m3.734,6.024c.089-.021.138-.017.16-.04q8.052-8.018,16.106-16.033c.43-.426.227-.579-.184-.78a12.112,12.112,0,0,0-16.034,4.881c-2.333,3.927-2.183,7.974-.049,11.972" transform="translate(-14.244 -134.962)" fill="#110d0d"/>
          </g>
        </g>
      </g>
    </g>
  </g>
</svg>
