<svg id="Grupo_1015741" data-name="Grupo 1015741" xmlns="http://www.w3.org/2000/svg" xmlns:xlink="http://www.w3.org/1999/xlink" width="137.672" height="137.611" viewBox="0 0 137.672 137.611">
  <defs>
    <clipPath id="clip-path">
      <rect id="Rectángulo_346169" data-name="Rectángulo 346169" width="137.672" height="137.611" fill="none"/>
    </clipPath>
  </defs>
  <g id="Grupo_1015740" data-name="Grupo 1015740" clip-path="url(#clip-path)">
    <path id="Trazado_606605" data-name="Trazado 606605" d="M136.578,166.2c0,8.955,0,17.685,0,26.414,0,3.457-.25,3.707-3.621,3.708-4.013,0-8.026.015-12.039-.005-2.207-.011-2.93-.729-2.932-2.965q-.019-20.1,0-40.193c0-2.35.69-2.984,3.378-2.932,1.476.029,1.9-.1,1.461-1.841-3.511-13.844,1.529-26.4,13.484-33.828a2.21,2.21,0,0,0,1.186-2.241c-.065-2-.046-4.012-.012-6.018.042-2.522.714-3.2,3.186-3.223q4.944-.036,9.889,0c2.35.02,3.066.764,3.11,3.055.026,1.353-.36,2.974.251,3.982.591.976,2.379.482,3.615.773a7.175,7.175,0,0,1,1.647.438c5.682,2.932,11.812,2.149,17.842,2.193,1.505.011,3.01,0,4.515.005,1.423.006,2.452.706,2.482,2.116.033,1.535-1.036,2.26-2.549,2.265-2.651.008-5.3-.008-7.954.015a2.541,2.541,0,0,0-1.795.3,29.777,29.777,0,0,1,6.033,36.029c-.619,1.168-.639,1.845.4,2.68a34.927,34.927,0,0,1,2.943,2.82c1.057,1.077,1.976,2.025,3.834,1.5,1.166-.328,2.456.442,3.435,1.4,4.97,4.854,9.994,9.653,14.933,14.538,2.133,2.109,2.116,4.6.067,6.84-1.69,1.85-3.428,3.661-5.224,5.409a4.6,4.6,0,0,1-6.862.042c-5.015-4.806-9.97-9.675-14.967-14.5-.927-.9-1.759-2.089-1.448-3.191.586-2.074-.688-2.98-1.85-4.087-1.191-1.134-2.246-2.933-3.608-3.205-1.145-.229-2.564,1.593-4.007,2.016-2.528.742-2.816,2.351-2.771,4.642.135,7.019.049,14.042.049,21.063,0,3.7-.391,4.105-3.987,4.106q-5.482,0-10.964,0c-3.311,0-3.737-.4-3.741-3.658-.009-7.021-.068-14.043.042-21.063.028-1.81-.271-2.844-2.245-3.295a35.076,35.076,0,0,1-5.206-2.106m-10.522-26.094a25.432,25.432,0,1,0,50.863.129,25.432,25.432,0,1,0-50.863-.129m-3.773,33c0,5.724.048,11.448-.034,17.171-.02,1.417.382,1.834,1.78,1.761,2.213-.116,4.438-.1,6.652,0,1.213.049,1.561-.329,1.555-1.547-.049-8.728-.027-17.457-.021-26.186a2.245,2.245,0,0,0-.629-1.939,28.8,28.8,0,0,1-5.827-7.089c-.749-1.267-1.939-.718-2.9-.646-1.082.08-.55,1.14-.554,1.738-.043,5.581-.026,11.161-.026,16.742m36.059,7.52c0-3.29-.024-6.579.014-9.868.012-1.041-.075-1.505-1.4-1.265a23.753,23.753,0,0,1-7.24.537c-1.1-.139-1.334.307-1.33,1.29.027,6.436.042,12.872-.01,19.307-.009,1.205.482,1.42,1.529,1.391,2.216-.061,4.437-.094,6.65.01,1.362.064,1.873-.287,1.822-1.751-.112-3.214-.035-6.435-.035-9.653m26.649-15a12.9,12.9,0,0,0-.994.83c-1.3,1.327-2.547,2.712-3.893,3.992-.878.835-.828,1.392.054,2.223,3.28,3.084,6.45,6.286,9.739,9.361,1.6,1.494,3.027,4.328,4.836,4.116,1.728-.2,3.119-2.878,4.762-4.352,1-.893.908-1.417-.034-2.309-4.463-4.23-8.851-8.538-13.271-12.814-.351-.34-.737-.645-1.2-1.046M145.719,107.41c-4.12,0-4.085,0-3.873,3.11.062.916.246,1.284,1.252,1.036a40.109,40.109,0,0,1,4.99-1c1.389-.16,1.215-1.016,1.261-1.949.058-1.172-.627-1.242-1.494-1.207-.711.029-1.424.006-2.136.006m33.818,57a7.659,7.659,0,0,0-.6-.741c-1.211-1.205-2.457-2.376-3.648-3.6-.665-.683-1.154-.582-1.74.1-.536.625-1.091,1.1-.179,1.9,1.284,1.125,2.47,2.361,3.722,3.524.325.3.635.922,1.217.4a3.037,3.037,0,0,0,1.224-1.586" transform="translate(-67.23 -58.73)" fill="#0f0d0c"/>
    <path id="Trazado_606606" data-name="Trazado 606606" d="M30.422.055a30.385,30.385,0,0,1,30.2,30.334A30.295,30.295,0,1,1,30.422.055m-2.308,17.83c0-3.649-.086-7.3.036-10.946.062-1.859-.279-2.854-2.376-2.158a8.5,8.5,0,0,1-.851.087A26.1,26.1,0,0,0,5.4,37.613c4.209,14.606,20.619,22.567,34.5,16.8,1.355-.563,1.568-.951.782-2.235-2.643-4.313-4.894-8.887-7.783-13.021-3.761-5.381-5.678-11.063-4.8-17.629a27.848,27.848,0,0,0,.022-3.646M44.1,28.1v.017c3.509,0,7.018-.036,10.526.021,1.151.018,1.523-.354,1.321-1.487a26.274,26.274,0,0,0-1.243-4.966c-3.661-9.409-10.394-15.11-20.373-16.94-1.394-.256-1.894.08-1.88,1.575q.094,10.094-.008,20.19c-.016,1.433.557,1.638,1.776,1.613,3.293-.067,6.588-.023,9.881-.023M34.4,33c3.425,5.809,6.9,11.683,10.348,17.572.479.818.881.663,1.5.161a26.385,26.385,0,0,0,9.671-16.391c.27-1.518-.388-1.789-1.713-1.783-6.153.032-12.307-.01-18.461-.014A1.364,1.364,0,0,0,34.4,33" transform="translate(-0.018 -0.031)" fill="#0f0d0c"/>
    <path id="Trazado_606607" data-name="Trazado 606607" d="M76.385,199.72q0,14.815,0,29.63c0,2.688-.554,3.235-3.256,3.239q-6.12.01-12.24,0c-2.465-.007-3.085-.585-3.086-2.977q-.014-29.952,0-59.9c0-2.562.425-2.976,3.042-2.989q6.335-.033,12.67,0c2.4.016,2.866.509,2.868,2.94q.014,15.029,0,30.059m-4.332.2c0-9.025-.025-18.049.028-27.073.008-1.333-.247-1.915-1.734-1.831-2.285.128-4.584.075-6.874.015-1-.026-1.36.246-1.358,1.308q.045,27.288-.005,54.576c0,1.222.474,1.4,1.512,1.372,2.147-.063,4.3-.12,6.445.015,1.555.1,2.051-.281,2.033-1.954-.1-8.809-.045-17.619-.045-26.428" transform="translate(-32.935 -94.997)" fill="#0f0d0c"/>
    <path id="Trazado_606608" data-name="Trazado 606608" d="M18.565,222.51q0,11.706,0,23.412c0,2.812-.434,3.235-3.223,3.239-4.153.007-8.307-.035-12.46.018C.913,249.2,0,248.405,0,246.389q.036-23.949.005-47.9c0-1.879.833-2.73,2.734-2.71,4.3.045,8.593,0,12.889.018,2.516.009,2.927.434,2.931,3.084q.02,11.814,0,23.627m-4.426.233c0-6.936-.037-13.874.031-20.809.014-1.387-.339-1.87-1.77-1.793-2.211.12-4.433.064-6.65.017-.923-.02-1.414.1-1.411,1.24q.056,21.024.006,42.048c0,1.006.265,1.381,1.318,1.349,2.287-.071,4.581-.111,6.864.012,1.374.074,1.651-.4,1.639-1.684-.062-6.793-.029-13.587-.027-20.38" transform="translate(0 -111.569)" fill="#0f0d0c"/>
    <path id="Trazado_606609" data-name="Trazado 606609" d="M236.12,110.827q-9.561,0-19.122-.007a17.4,17.4,0,0,1-2.129-.16,1.875,1.875,0,0,1-1.663-1.942,1.927,1.927,0,0,1,1.719-2.114,12.961,12.961,0,0,1,1.918-.153q19.337-.013,38.673,0a12.022,12.022,0,0,1,1.915.172,1.852,1.852,0,0,1,1.653,1.938,1.9,1.9,0,0,1-1.712,2.109,12.855,12.855,0,0,1-2.13.149q-9.561.016-19.122.006" transform="translate(-121.498 -60.659)" fill="#0f0d0c"/>
    <path id="Trazado_606610" data-name="Trazado 606610" d="M179.484,8.052c0,1.789-.041,3.58.011,5.368.052,1.77-.755,2.733-2.511,2.751-3.722.04-7.445.029-11.167.009a2.306,2.306,0,0,1-2.5-2.581c-.036-3.65-.046-7.3,0-10.951.022-1.812.946-2.687,2.855-2.646,3.506.076,7.015.046,10.522.012,1.993-.019,2.868.912,2.806,2.885-.054,1.716-.011,3.435-.012,5.153m-8.055-3.723c-3.792,0-3.792,0-3.792,3.542,0,3.956,0,3.956,3.876,3.956,3.65,0,3.65,0,3.65-3.712,0-3.786,0-3.786-3.734-3.786" transform="translate(-93.05 0)" fill="#0f0d0c"/>
    <path id="Trazado_606611" data-name="Trazado 606611" d="M171.321,67.842c-1.789,0-3.58-.055-5.366.015a2.224,2.224,0,0,1-2.618-2.4c-.077-3.79-.068-7.583,0-11.374a2.157,2.157,0,0,1,2.476-2.312c3.721.033,7.442.016,11.163.008,1.664,0,2.52.767,2.514,2.471q-.02,5.473,0,10.946c.009,1.9-.944,2.7-2.8,2.653-1.788-.047-3.578-.01-5.366-.011m3.825-7.955c0-3.754,0-3.754-3.818-3.754h-.214c-3.417,0-3.417,0-3.417,3.512,0,3.862,0,3.862,3.926,3.862,3.523,0,3.523,0,3.523-3.62" transform="translate(-93.048 -29.505)" fill="#0f0d0c"/>
    <path id="Trazado_606612" data-name="Trazado 606612" d="M236.118,7.469c-6.591,0-13.182-.023-19.773.017-1.587.01-3.1-.25-3.1-2.084,0-1.9,1.539-2.283,3.213-2.281q19.773.03,39.547.006c1.47,0,2.875.257,3.069,1.969.216,1.913-1.093,2.385-2.748,2.38-6.734-.019-13.469-.008-20.2-.008" transform="translate(-121.519 -1.779)" fill="#0f0d0c"/>
    <path id="Trazado_606613" data-name="Trazado 606613" d="M236.129,59.262c-6.592,0-13.184-.027-19.775.019-1.626.011-3.054-.375-3.1-2.151-.041-1.8,1.353-2.211,3-2.207q19.883.051,39.766.009c1.558,0,3.053.171,3.064,2.1.012,2.045-1.543,2.245-3.183,2.239-6.592-.024-13.184-.01-19.775-.01" transform="translate(-121.528 -31.299)" fill="#0f0d0c"/>
    <path id="Trazado_606614" data-name="Trazado 606614" d="M225.59,28.427c-3.22,0-6.441-.048-9.659.021-1.548.034-2.66-.6-2.688-2.078-.031-1.595,1.116-2.3,2.741-2.293q9.766.043,19.532,0c1.609-.008,2.792.619,2.78,2.24-.012,1.647-1.228,2.173-2.833,2.136-3.289-.075-6.581-.023-9.872-.023" transform="translate(-121.52 -13.719)" fill="#0f0d0c"/>
    <path id="Trazado_606615" data-name="Trazado 606615" d="M225.836,75.868c3.292,0,6.585.043,9.876-.018,1.578-.03,2.587.681,2.586,2.167s-1.031,2.206-2.589,2.2q-9.876-.042-19.752,0c-1.644.009-2.759-.728-2.708-2.312.048-1.467,1.165-2.094,2.712-2.059,3.29.073,6.583.022,9.875.022" transform="translate(-121.522 -43.221)" fill="#0f0d0c"/>
    <path id="Trazado_606616" data-name="Trazado 606616" d="M136.759,155.473a25.432,25.432,0,1,1,50.863.129,25.432,25.432,0,1,1-50.863-.129m25.277,22.288c10.877.588,22.485-8.712,22.5-22.283a22.34,22.34,0,0,0-44.68-.111,22.177,22.177,0,0,0,22.175,22.394" transform="translate(-77.933 -74.095)" fill="#f6f8fa"/>
    <path id="Trazado_606617" data-name="Trazado 606617" d="M127.857,241.2c0-5.581-.018-11.162.026-16.742,0-.6-.528-1.658.554-1.739.956-.071,2.146-.62,2.9.647a28.789,28.789,0,0,0,5.827,7.089,2.245,2.245,0,0,1,.629,1.939c-.006,8.729-.028,17.457.021,26.186.006,1.217-.342,1.6-1.555,1.547-2.215-.091-4.44-.111-6.652,0-1.4.073-1.8-.344-1.78-1.76.082-5.723.034-11.447.034-17.171" transform="translate(-72.804 -126.816)" fill="#ffd35c"/>
    <path id="Trazado_606618" data-name="Trazado 606618" d="M198.619,268.568c0,3.218-.078,6.439.034,9.653.051,1.463-.46,1.814-1.822,1.751-2.213-.1-4.434-.071-6.65-.01-1.047.028-1.538-.186-1.528-1.391.052-6.435.037-12.871.01-19.307,0-.984.233-1.43,1.33-1.291a23.739,23.739,0,0,0,7.24-.537c1.324-.241,1.411.224,1.4,1.265-.038,3.289-.014,6.579-.014,9.868" transform="translate(-107.507 -146.668)" fill="#e2485a"/>
    <path id="Trazado_606619" data-name="Trazado 606619" d="M266.463,248.515c.462.4.847.706,1.2,1.047,4.419,4.276,8.807,8.585,13.271,12.814.942.892,1.031,1.416.034,2.309-1.643,1.473-3.034,4.149-4.762,4.352-1.809.212-3.238-2.622-4.836-4.116-3.289-3.075-6.459-6.277-9.739-9.361-.883-.83-.933-1.387-.054-2.222,1.346-1.28,2.591-2.665,3.893-3.993.286-.291.628-.527.994-.83" transform="translate(-148.702 -141.62)" fill="#ffd35c"/>
    <path id="Trazado_606620" data-name="Trazado 606620" d="M177.246,113.159c.712,0,1.425.023,2.135-.006.867-.035,1.552.036,1.494,1.207-.046.933.128,1.789-1.262,1.949a40.1,40.1,0,0,0-4.989,1c-1.006.248-1.19-.12-1.252-1.036-.212-3.112-.246-3.11,3.873-3.11" transform="translate(-98.757 -64.479)" fill="#e2485a"/>
    <path id="Trazado_606621" data-name="Trazado 606621" d="M252.288,239.335a3.037,3.037,0,0,1-1.224,1.586c-.582.523-.892-.1-1.217-.4-1.252-1.163-2.438-2.4-3.722-3.524-.911-.8-.356-1.277.179-1.9.586-.684,1.075-.786,1.74-.1,1.191,1.224,2.437,2.395,3.648,3.6a7.662,7.662,0,0,1,.6.741" transform="translate(-139.982 -133.65)" fill="#6b606d"/>
    <path id="Trazado_606622" data-name="Trazado 606622" d="M33.861,23.851a27.848,27.848,0,0,1-.022,3.646c-.874,6.566,1.042,12.247,4.8,17.629,2.889,4.134,5.141,8.708,7.783,13.021.786,1.283.573,1.671-.782,2.235-13.877,5.766-30.286-2.195-34.5-16.8A26.1,26.1,0,0,1,30.67,10.833a8.5,8.5,0,0,0,.851-.087c2.1-.7,2.438.3,2.376,2.159-.122,3.645-.036,7.3-.036,10.945" transform="translate(-5.766 -5.997)" fill="#75b8e7"/>
    <path id="Trazado_606623" data-name="Trazado 606623" d="M87.049,34.217c-3.294,0-6.589-.044-9.881.023-1.219.025-1.792-.18-1.776-1.614q.113-10.094.008-20.19c-.014-1.5.486-1.831,1.88-1.575,9.979,1.829,16.712,7.531,20.373,16.94A26.273,26.273,0,0,1,98.9,32.767c.2,1.133-.169,1.505-1.321,1.487-3.508-.057-7.018-.021-10.526-.021Z" transform="translate(-42.963 -6.145)" fill="#ffd35c"/>
    <path id="Trazado_606624" data-name="Trazado 606624" d="M79.93,76.022a1.364,1.364,0,0,1,1.347-.455c6.154,0,12.307.046,18.461.014,1.324-.006,1.983.265,1.713,1.783a26.385,26.385,0,0,1-9.671,16.391c-.62.5-1.023.657-1.5-.161C86.829,87.7,83.355,81.831,79.93,76.022" transform="translate(-45.549 -43.056)" fill="#e2485a"/>
    <path id="Trazado_606625" data-name="Trazado 606625" d="M77.769,205.633c0,8.81-.051,17.62.045,26.428.018,1.673-.478,2.053-2.033,1.954-2.141-.136-4.3-.079-6.445-.015-1.038.031-1.515-.15-1.512-1.372q.057-27.288.005-54.576c0-1.062.36-1.334,1.358-1.308,2.291.06,4.59.114,6.874-.015,1.487-.084,1.742.5,1.734,1.831-.052,9.024-.028,18.048-.028,27.073" transform="translate(-38.651 -100.707)" fill="#75b8e7"/>
    <path id="Trazado_606626" data-name="Trazado 606626" d="M19.885,228.508c0,6.794-.034,13.587.028,20.38.012,1.284-.265,1.758-1.639,1.684-2.282-.123-4.577-.083-6.864-.012-1.054.032-1.32-.343-1.318-1.349q.04-21.024-.006-42.048c0-1.145.487-1.26,1.411-1.24,2.216.047,4.439.1,6.649-.017,1.431-.077,1.784.406,1.77,1.793-.068,6.935-.031,13.873-.032,20.809" transform="translate(-5.748 -117.335)" fill="#75b8e7"/>
    <path id="Trazado_606627" data-name="Trazado 606627" d="M177.2,10.065c3.734,0,3.734,0,3.734,3.786,0,3.712,0,3.712-3.65,3.712-3.876,0-3.876,0-3.876-3.956,0-3.542,0-3.542,3.792-3.542" transform="translate(-98.818 -5.736)" fill="#75b8e7"/>
    <path id="Trazado_606628" data-name="Trazado 606628" d="M181,65.659c0,3.62,0,3.62-3.523,3.62-3.926,0-3.926,0-3.926-3.862,0-3.512,0-3.512,3.417-3.512h.214c3.818,0,3.818,0,3.818,3.754" transform="translate(-98.899 -35.278)" fill="#ffd35c"/>
    <path id="Trazado_606629" data-name="Trazado 606629" d="M166.149,181.948a22.176,22.176,0,0,1-22.175-22.394,22.34,22.34,0,0,1,44.68.111c-.019,13.571-11.627,22.871-22.505,22.283M151.272,169.1c2.669-4.172,4.137-5.9,6.715-7.286,1.273-.686,1.347-1.09.517-2.309a9.126,9.126,0,0,1,1.272-11.583,9.307,9.307,0,0,1,15.337,9.592c-.4,1.244-1.933,2.4-1.56,3.33.422,1.049,2.078,1.572,3.139,2.4a21.243,21.243,0,0,1,4.655,5.828c4.923-7.355,3.139-17.576-3.883-23.384a17.9,17.9,0,0,0-23.681,1.2c-6.1,5.974-7.306,16.115-2.511,22.21m15.011,8.516a17.217,17.217,0,0,0,10.423-3.214,1.894,1.894,0,0,0,.848-2.647,11.957,11.957,0,0,0-22.546.161,1.681,1.681,0,0,0,.7,2.322,17.17,17.17,0,0,0,10.579,3.377m.054-27.93a4.966,4.966,0,0,0-4.966,4.839,5.133,5.133,0,0,0,4.9,4.974,4.937,4.937,0,0,0,4.876-4.914,4.776,4.776,0,0,0-4.811-4.9" transform="translate(-82.046 -78.282)" fill="#0f0d0c"/>
    <path id="Trazado_606630" data-name="Trazado 606630" d="M157.034,174.942c-4.8-6.1-3.593-16.236,2.51-22.21a17.9,17.9,0,0,1,23.681-1.2c7.022,5.808,8.806,16.029,3.883,23.384a21.258,21.258,0,0,0-4.654-5.828c-1.061-.826-2.717-1.349-3.139-2.4-.373-.927,1.156-2.086,1.56-3.33a9.307,9.307,0,0,0-15.337-9.592,9.126,9.126,0,0,0-1.272,11.583c.831,1.22.757,1.624-.516,2.309-2.579,1.388-4.047,3.115-6.715,7.286" transform="translate(-87.807 -84.124)" fill="#6b606d"/>
    <path id="Trazado_606631" data-name="Trazado 606631" d="M180.648,212.722a17.183,17.183,0,0,1-10.578-3.38,1.681,1.681,0,0,1-.7-2.322,11.957,11.957,0,0,1,22.546-.161,1.894,1.894,0,0,1-.848,2.647,17.237,17.237,0,0,1-10.423,3.217" transform="translate(-96.41 -113.385)" fill="#75b8e7"/>
    <path id="Trazado_606632" data-name="Trazado 606632" d="M189.387,166a4.776,4.776,0,0,1,4.811,4.9,4.937,4.937,0,0,1-4.876,4.914,5.133,5.133,0,0,1-4.9-4.974A4.966,4.966,0,0,1,189.387,166" transform="translate(-105.095 -94.6)" fill="#f6f8fa"/>
  </g>
</svg>
