<svg xmlns="http://www.w3.org/2000/svg" xmlns:xlink="http://www.w3.org/1999/xlink" width="134.615" height="133.615" viewBox="0 0 134.615 133.615">
  <defs>
    <clipPath id="clip-path">
      <path id="Trazado_606378" data-name="Trazado 606378" d="M151.433,75.384c0,36.9,30.133,66.808,67.307,66.808s67.307-29.912,67.307-66.808S255.912,8.576,218.74,8.576s-67.307,29.912-67.307,66.808" transform="translate(-151.433 -8.576)" fill="#e3ecf7"/>
    </clipPath>
    <clipPath id="clip-path-2">
      <rect id="Rect치ngulo_347564" data-name="Rect치ngulo 347564" width="97.123" height="97.044" fill="none"/>
    </clipPath>
  </defs>
  <g id="Grupo_1072965" data-name="Grupo 1072965" transform="translate(-4737.069 -266.646)">
    <g id="Grupo_1017412" data-name="Grupo 1017412" transform="translate(4737.069 266.646)">
      <g id="Grupo_1015634" data-name="Grupo 1015634" transform="translate(0)" clip-path="url(#clip-path)">
        <rect id="Rect치ngulo_346114" data-name="Rect치ngulo 346114" width="134.615" height="133.616" transform="translate(0 0)" fill="#e3ecf7"/>
      </g>
    </g>
    <g id="Grupo_1017427" data-name="Grupo 1017427" transform="translate(4756 278.882)">
      <g id="Grupo_1017426" data-name="Grupo 1017426" clip-path="url(#clip-path-2)">
        <path id="Trazado_609054" data-name="Trazado 609054" d="M52.872,241.754c3.635.808,6.808-.8,10.057-1.933,8.713-3.025,17.4-6.127,26.112-9.15a5.956,5.956,0,0,1,4.591,10.984c-9.745,4.765-19.532,9.446-29.238,14.29a11.44,11.44,0,0,1-5.367,1.141q-28.578-.04-57.156,0c-1.432,0-1.91-.323-1.868-1.818.107-3.787.036-7.579.035-11.368A2.086,2.086,0,0,1,.5,242.219c3.761-3.731,7.393-7.608,12.388-9.794a27.271,27.271,0,0,1,9.451-2.392c9.439-.545,18.883-.1,28.324-.245a6.1,6.1,0,0,1,2.517,11.775c-.118.057-.327.017-.307.191" transform="translate(0 -160.048)" fill="#f8c0b2"/>
        <path id="Trazado_609055" data-name="Trazado 609055" d="M160.023.023c9.324-.477,19.012,6.639,21.477,15.934,2.484,9.369.039,17.314-7.282,23.7a7.008,7.008,0,0,0-2.727,5.174L160,44.885l.027-.088q0-22.387,0-44.774" transform="translate(-111.458 0)" fill="#f6891a"/>
        <path id="Trazado_609056" data-name="Trazado 609056" d="M108.623.056q0,22.387,0,44.774c-3.486.018-6.973.03-10.459.06-.611.005-1-.031-1.095-.837a6.944,6.944,0,0,0-2.8-4.505A21.538,21.538,0,0,1,86.228,21.7,22.247,22.247,0,0,1,108.623.056" transform="translate(-60.057 -0.033)" fill="#ffca07"/>
        <path id="Trazado_609057" data-name="Trazado 609057" d="M159.952,147.809l11.49-.058c.013,2.221.147,4.449,0,6.659-.133,2.059-1.75,3.606-2.284,5.541-.578,2.092-1.9,2.665-3.92,2.418a21.94,21.94,0,0,0-3.933-.012c-1.062.062-1.391-.314-1.379-1.373.05-4.391.021-8.783.022-13.175" transform="translate(-111.408 -102.924)" fill="#a6c9cf"/>
        <path id="Trazado_609058" data-name="Trazado 609058" d="M256.842,63.77c1.144.173,2.927-.628,3.815.328.8.863.118,2.6.259,3.945.13,1.231-.257,1.693-1.558,1.622-2.008-.11-4.027-.053-6.04-.018-.769.014-1.093-.231-1.062-1.036.049-1.257.058-2.519,0-3.775-.044-.912.374-1.114,1.177-1.078,1.055.047,2.114.012,3.41.012" transform="translate(-175.72 -44.318)" fill="#ffca07"/>
        <path id="Trazado_609059" data-name="Trazado 609059" d="M43.344,69.9c-4.185,0-4.138,0-4.179-4.243-.012-1.307.345-1.818,1.707-1.743,1.863.1,3.738.063,5.6.011,1.021-.029,1.5.295,1.438,1.381-.064,1.107-.047,2.223,0,3.332.034.9-.312,1.3-1.233,1.27-1.11-.038-2.222-.009-3.333-.008" transform="translate(-27.282 -44.518)" fill="#fff090"/>
        <path id="Trazado_609060" data-name="Trazado 609060" d="M246.114,116.405c-.439.781-.779,1.4-1.132,2.009-1.715,2.975-1.719,2.978-4.682,1.284-1.18-.675-2.332-1.4-3.53-2.041-.672-.359-.878-.676-.412-1.392.713-1.1,1.307-2.269,1.97-3.4.189-.322.327-.785.9-.452,2.13,1.245,4.271,2.472,6.408,3.706.174.1.345.2.481.285" transform="translate(-164.473 -78.228)" fill="#ffca07"/>
        <path id="Trazado_609061" data-name="Trazado 609061" d="M238.95,15.014c-.411.047-.478-.315-.619-.553-.692-1.17-1.334-2.372-2.055-3.523-.368-.587-.2-.921.323-1.219,1.968-1.125,3.947-2.229,5.9-3.387.588-.35.865-.229,1.174.339.648,1.194,1.368,2.349,2.039,3.532.182.32.516.654-.07.985-2.149,1.212-4.281,2.456-6.419,3.687-.087.05-.178.094-.268.141" transform="translate(-164.454 -4.274)" fill="#ffca07"/>
        <path id="Trazado_609062" data-name="Trazado 609062" d="M62.085,116.849c.006.541-.411.672-.753.871-1.826,1.063-3.661,2.113-5.474,3.2-.652.391-.985.287-1.434-.376-2.716-4.007-2.736-3.988,1.447-6.281.971-.532,1.927-1.091,2.883-1.65.349-.2.655-.515.978.059.715,1.272,1.464,2.525,2.194,3.788a2.828,2.828,0,0,1,.16.39" transform="translate(-36.594 -78.259)" fill="#fff090"/>
        <path id="Trazado_609063" data-name="Trazado 609063" d="M54.782,6.145c.226.112.457.214.674.34,1.826,1.059,3.64,2.138,5.478,3.175.671.379.832.764.368,1.437-.484.7-.888,1.458-1.306,2.2-1.056,1.884-1.046,1.878-2.851.8-1.554-.925-3.1-1.866-4.693-2.723-.725-.39-.762-.765-.358-1.405.67-1.062,1.286-2.158,1.92-3.242.177-.3.312-.651.767-.589" transform="translate(-36.111 -4.276)" fill="#fff090"/>
      </g>
    </g>
  </g>
</svg>
