<svg xmlns="http://www.w3.org/2000/svg" xmlns:xlink="http://www.w3.org/1999/xlink" width="499.854" height="752.914" viewBox="0 0 499.854 752.914">
  <defs>
    <clipPath id="clip-path">
      <rect id="Rectángulo_345442" data-name="Rectángulo 345442" width="450.871" height="501.236" fill="none"/>
    </clipPath>
    <clipPath id="clip-path-2">
      <rect id="Rectángulo_345444" data-name="Rectángulo 345444" width="390.993" height="66.73" fill="none"/>
    </clipPath>
  </defs>
  <g id="Grupo_1016993" data-name="Grupo 1016993" transform="translate(-180 -4676)">
    <rect id="Rectángulo_345364" data-name="Rectángulo 345364" width="499.854" height="752.411" transform="translate(180 4676)" fill="none"/>
    <rect id="Rectángulo_345443" data-name="Rectángulo 345443" width="499.854" height="160.479" rx="31" transform="translate(180 5267.932)" fill="#e3ecf7"/>
    <path id="Trazado_602007" data-name="Trazado 602007" d="M-2209.983-6842.526l22.019,55.924s5.942,109.186,6.609,141.807,0,67.244,0,67.244h-191.074s-6.657-201.061,22.635-245.666S-2209.983-6842.526-2209.983-6842.526Z" transform="translate(2602.804 12005.965)" fill="#1a1a1a" stroke="#707070" stroke-width="1"/>
    <g id="Grupo_1014794" data-name="Grupo 1014794" transform="translate(212.885 4746.688)">
      <g id="Grupo_1014793" data-name="Grupo 1014793" transform="translate(0 0)" clip-path="url(#clip-path)">
        <path id="Trazado_601935" data-name="Trazado 601935" d="M20.358,172.249l-10.486,61S100.9,253.145,170.1,231.867V64.6l-68.742,9.88-11.373,2.29L64.145,122.31Z" transform="translate(39.586 259.023)" fill="#33ece0"/>
        <path id="Trazado_601936" data-name="Trazado 601936" d="M129.13,68.059V224.325s-38.517,15.666-109.042,8.437c0,0,79.538,2.71,103.922-11.017l3.076-155.269Z" transform="translate(80.552 266.566)" fill="#1a1a1a"/>
        <path id="Trazado_601937" data-name="Trazado 601937" d="M114.5,31.474S68.373,20.292,40.282,66.429C16.24,105.9,2.452,153.261.844,173.381s-1.107,59.714,29.849,76.076L27.036,363.008S40.9,378.85,97.812,372.657L120.963,331.1V232.479s4.118-18.417,17.354-20.285L188.928,62.646l29.443-1.037s-29.1-33.867-66.427-28.727S114.5,31.474,114.5,31.474" transform="translate(1.385 121.43)" fill="#33ece0"/>
        <path id="Trazado_601938" data-name="Trazado 601938" d="M165.85,141.3s7.024-6.773-.686-20.37-13.346-13.677-12.976-19.694,2.51-12.851,8.868-21.6,10.12-19.564,8.672-36.017-9.178-22.85-19.484-28.131-28.271-15.806-45.45-3.652c0,0-38.937,5.686-42.459,14.975S59.538,63.1,60.4,69.906s2.059,28.882-7.846,34.443-17.805,6.583-24.8,8.171S2.7,130.607,10.776,155.141c0,0,20.255-24.584,41.182-25.916s28.9-1.232,28.9-1.232l38.356,1.232s24.008-1.5,46.638,12.079" transform="translate(35.03 24.907)" fill="#1a1a1a"/>
        <path id="Trazado_601939" data-name="Trazado 601939" d="M38.148,18.255c-.862-.326-1.538-.07-2.475,3.091-1.037,3.527-.24,4.354.571,4.489s1.849-.8,2.35-3.372.681-3.778-.446-4.208" transform="translate(141.068 72.771)" fill="#1a1a1a"/>
        <path id="Trazado_601940" data-name="Trazado 601940" d="M32.919,17.021c-.872-.306-1.543-.03-2.39,3.151-.952,3.557-.13,4.364.681,4.479s1.834-.847,2.259-3.432.586-3.8-.551-4.2" transform="translate(120.706 67.872)" fill="#1a1a1a"/>
        <path id="Trazado_601941" data-name="Trazado 601941" d="M64.177,93.37,60.089,111.2s2.906,29.849-4.454,29.133-32-32-32-32L34.848,64.512S20.485,64.823,23.4,49.838s17.54-7.53,17.54-7.53,8.337-6.809,9.729-15.25S53.7,11.116,53.7,11.116s10.185,11.1,22.57,14.013,18.1,10.882,18.1,10.882L85.529,77.142S79.537,98.309,64.177,93.37" transform="translate(92.254 44.575)" fill="#fff"/>
        <path id="Trazado_601942" data-name="Trazado 601942" d="M39.932,55.81l-7.259-9.774s6.728.085,9.91,2.58Z" transform="translate(131.017 184.602)" fill="#fff"/>
        <path id="Trazado_601943" data-name="Trazado 601943" d="M90.264,64.522,76.757,103.394s-10.671-2.725-12.219-2.024-12.46,16.448-12.46,16.448-15.591-10.1-21.883-16.964A129.544,129.544,0,0,1,19.548,87.568s19.93-23.346,22.44-27.6S58,45.985,67.593,46.191L81.175,61.035Z" transform="translate(78.387 185.209)" fill="#fff"/>
        <path id="Trazado_601944" data-name="Trazado 601944" d="M92,45.651,86.3,61.533a72.928,72.928,0,0,1-16.272,1.478c-9.324-.165-15.736-.256-17.234,4.694S49.805,78,53.974,79.629c0,0-5.546,6.924-4.865,10.09a15.426,15.426,0,0,0,3.006,5.872s-4.364,2.956-3.066,8.081c1.313,5.125,4.193,12.52,18.817,11.944,14.639-.566,25.921-3.136,29-5.741s9.574-15.8,9.143-29.834S107.285,57.625,92,45.651" transform="translate(195.717 183.059)" fill="#fff"/>
        <path id="Trazado_601945" data-name="Trazado 601945" d="M59.409,68.8l-21.9-26-9.694,8.166L48.267,75.243l8.141,2.024Z" transform="translate(111.541 171.62)" fill="#1a1a1a"/>
        <path id="Trazado_601946" data-name="Trazado 601946" d="M132.413,188.548,184.051,37.984H80.775L29.138,188.548Z" transform="translate(116.841 152.313)" fill="#fff"/>
        <path id="Trazado_601948" data-name="Trazado 601948" d="M38.325,19.034c-.867-.331-1.538-.075-2.475,3.091-1.032,3.527-.235,4.354.576,4.489s1.849-.8,2.345-3.372.686-3.783-.446-4.208" transform="translate(141.793 75.885)" fill="#1a1a1a"/>
        <path id="Trazado_601949" data-name="Trazado 601949" d="M33.382,17.785c-.852-.356-1.538-.12-2.575,3.011-1.157,3.487-.386,4.344.421,4.509s1.879-.741,2.46-3.292.812-3.762-.306-4.228" transform="translate(121.175 70.816)" fill="#1a1a1a"/>
        <path id="Trazado_601950" data-name="Trazado 601950" d="M40.574,46.584,36.9,41.855l-9.85,8.1,4.434,4.8Z" transform="translate(108.478 167.835)" fill="#fff"/>
        <path id="Trazado_601951" data-name="Trazado 601951" d="M180.239,42.952l2.2-5.386L79.654,36.745,27.816,187.284h8.111L86.076,42.952Z" transform="translate(111.54 147.344)" fill="#ccc"/>
        <path id="Trazado_601952" data-name="Trazado 601952" d="M26.041,68.41l7.064-9.9s8.807,9.5,6.057,13.191S26.041,68.41,26.041,68.41" transform="translate(104.423 234.623)" fill="#1a1a1a"/>
        <path id="Trazado_601953" data-name="Trazado 601953" d="M22.66,62.8l6.678-8.307S23.276,51,19.809,52.961,22.66,62.8,22.66,62.8" transform="translate(75.275 209.977)" fill="#1a1a1a"/>
        <path id="Trazado_601954" data-name="Trazado 601954" d="M115.073,62.013S91.366,122.754,48.36,140.559c-34.278,14.188-42.3,5.26-42.3,5.26l1.738-23.6s8.457,6.864,26.352,2.826S70.8,105.129,81.476,96.757s33.6-34.744,33.6-34.744" transform="translate(24.284 248.67)" fill="#1a1a1a"/>
        <path id="Trazado_601955" data-name="Trazado 601955" d="M48.808,57.973s2,9.88,17.7,12.585l1.723-5.025s-10.4,2.4-19.424-7.56" transform="translate(195.718 232.469)" fill="#ccc"/>
        <path id="Trazado_601956" data-name="Trazado 601956" d="M48.821,60.925s16.272,10.135,42.069-2.6l-26.052.716s-11.4-1.653-12.775-3.427Z" transform="translate(195.77 223.03)" fill="#ccc"/>
        <path id="Trazado_601957" data-name="Trazado 601957" d="M49.209,57.7A46.021,46.021,0,0,0,89.334,53L65.226,55.821s-11.4-1.658-12.775-3.427Z" transform="translate(197.326 210.098)" fill="#ccc"/>
        <path id="Trazado_601958" data-name="Trazado 601958" d="M60.655,61.273,50.44,93.247l17,.045s11.608-21.763,14.1-34.048c0,0-14.965,2.921-20.882,2.029" transform="translate(202.262 237.566)" fill="#33ece0"/>
        <path id="Trazado_601960" data-name="Trazado 601960" d="M53.4,72s7.024-6.773-.686-20.37S39.363,37.953,39.734,31.936a32.094,32.094,0,0,1,1.723-8.4c-.666-.511-6.533,3.712-4.083,15.29,1.994,9.439,4.93,20.451,2.209,26.608A81.023,81.023,0,0,1,53.4,72" transform="translate(147.483 94.209)" fill="#fff"/>
        <path id="Trazado_601961" data-name="Trazado 601961" d="M29.626,7.532c.045.225,37.55,4.183,45.611,28.2,5.887,17.54,3.7,35.455,2.094,43.842,6.323-8.732,10.07-19.544,8.627-35.951C84.505,27.166,76.78,20.763,66.474,15.488c-8.592-4.4-22.5-12.44-36.848-7.956" transform="translate(118.799 24.918)" fill="#fff"/>
        <path id="Trazado_601962" data-name="Trazado 601962" d="M28.681,41.118c-14.053,2.46,10.842,15.756,10.842,15.756S53.982,33.4,54.007,32.751s-6.688-21.858-6.688-21.858S42.724,38.658,28.681,41.118" transform="translate(97.77 43.68)" fill="#fff"/>
        <path id="Trazado_601963" data-name="Trazado 601963" d="M48.967,77.087C48.1,76.686,27.64,52.4,27.64,52.4c.14-1.613,9.84-9.774,9.84-9.774,1.6.135,24.018,26.738,24.018,26.738-1.748,1.478-23.427-24.253-23.427-24.253L30.12,51.8,49.839,75.208c-.346,1.794-.611,1.879-.872,1.879" transform="translate(110.835 170.916)" fill="#1a1a1a"/>
        <path id="Trazado_601964" data-name="Trazado 601964" d="M31.7,56.591c-.872-.4-4.85-5.13-4.85-5.13.135-1.613,9.835-9.779,9.835-9.779,1.608.135,5.586,4.865,5.586,4.865-1.743,1.473-4.99-2.38-4.99-2.38l-7.956,6.693,3.246,3.853c-.346,1.794-.611,1.879-.872,1.879" transform="translate(107.659 167.139)" fill="#1a1a1a"/>
        <path id="Trazado_601965" data-name="Trazado 601965" d="M41.219,56.007a102.113,102.113,0,0,1-10.8-3.307c4.724-.731,7.615.17,11.077,1.057.706,1.909.23,2.249-.276,2.249" transform="translate(121.975 210.252)" fill="#1a1a1a"/>
        <path id="Trazado_601966" data-name="Trazado 601966" d="M48.855,54.514c-6.533-1.047-14.4-2.625-18.963-5.726,5.471.962,13.031,2.46,19.148,3.457.857,1.874.361,2.27-.185,2.27" transform="translate(119.866 195.638)" fill="#1a1a1a"/>
        <path id="Trazado_601967" data-name="Trazado 601967" d="M40.562,58.018A81.111,81.111,0,0,1,29.55,56.289c.6-2.2,4.629-1.187,11.122-.546.972,1.834.471,2.275-.11,2.275" transform="translate(118.494 220.315)" fill="#1a1a1a"/>
        <path id="Trazado_601968" data-name="Trazado 601968" d="M44.56,51.025a32,32,0,0,0-12.269-3.863c.436-2.259,7.064-1.779,12.861,1.738.165,1.929-.21,2.124-.591,2.124" transform="translate(129.485 183.596)" fill="#1a1a1a"/>
        <path id="Trazado_601969" data-name="Trazado 601969" d="M19.547,89.614c-.035-2.971,20.5-29.388,25.947-34.023,9.584-8.146,22.249-9.574,22.78-9.629.125,2.285-12.264,3.692-21.292,11.368C41.706,61.819,20.669,88.9,20.449,89.168a1.127,1.127,0,0,1-.9.446" transform="translate(78.383 184.306)" fill="#1a1a1a"/>
        <path id="Trazado_601970" data-name="Trazado 601970" d="M25.873,75.712c2.094-6.844,9.629-18.737,13.3-18.737a15.954,15.954,0,0,1,2.445.351,42.381,42.381,0,0,0,9.985.9,14.082,14.082,0,0,1-10.4,1.348c-3.577-.235-9.223,7.039-14.354,15.581a1.138,1.138,0,0,1-.977.556" transform="translate(103.75 228.467)" fill="#1a1a1a"/>
        <path id="Trazado_601971" data-name="Trazado 601971" d="M7.9,110.931C20.7,85.079,52.837,58.677,62.366,52.294,52.832,61.432,21.725,87.88,8.895,110.359a1.16,1.16,0,0,1-.992.571" transform="translate(31.691 209.697)" fill="#1a1a1a"/>
        <path id="Trazado_601972" data-name="Trazado 601972" d="M53.976,93.71C58.35,82.132,62.939,70.779,66.26,59.181c-1.172,12.385-5.827,23.9-11.282,33.932a1.146,1.146,0,0,1-1,.6" transform="translate(216.441 237.313)" fill="#1a1a1a"/>
        <path id="Trazado_601973" data-name="Trazado 601973" d="M49.149,255.161a38.091,38.091,0,0,1-17.59-4.223c-37.234-19.063-41.613-68.717-12.65-143.6,3.963-10.26,18.822-45.25,43.587-64.919,17.53-13.933,43.251-12.765,53.526-11.613-10.21,1.157-35.24-.01-52.114,13.4C39.6,63.525,24.951,98.039,21.038,108.159-7.433,181.79-3.436,230.457,32.611,248.9c36.528,18.712,82.178-33.061,109.453-63.972-21.853,28.221-58.912,70.225-92.915,70.23" transform="translate(-0.001 120.962)" fill="#1a1a1a"/>
        <path id="Trazado_601974" data-name="Trazado 601974" d="M96.173,60.381c-14.3-17.85-43.361-30.576-65.55-28.732,22.85-4.168,52.645,8.943,66.462,26.893-.421,1.764-.666,1.839-.912,1.839" transform="translate(122.797 123.795)" fill="#1a1a1a"/>
        <path id="Trazado_601975" data-name="Trazado 601975" d="M48.539,75.079a29.766,29.766,0,0,1-7.57-1.127c-3.727-.982-9.143-2.615-12.851-4.058,4.454-.721,9.769.887,13.427,1.849a23.663,23.663,0,0,0,9.193.912c4.233-.576,7.49-3.126,9.98-7.811A55.065,55.065,0,0,0,65.888,49.6c.531-2.635,1.217-6.127,1.949-9.89,1.854-9.5,3.958-20.275,4.93-23.687,1.258,3.948-.932,15.14-2.69,24.123-.731,3.768-1.413,7.269-1.954,9.9a57.22,57.22,0,0,1-5.386,15.872c-2.856,5.376-6.678,8.322-11.693,8.993a18.4,18.4,0,0,1-2.5.165" transform="translate(112.752 64.248)" fill="#1a1a1a"/>
        <path id="Trazado_601976" data-name="Trazado 601976" d="M35.845,42.894a12.793,12.793,0,0,1-3.046-.366A13.049,13.049,0,1,1,45.454,21.015c-3.131-.035-5.01-1.137-7.114-1.643a10.765,10.765,0,1,0,.741,20.736c-.591,2.585-1.909,2.786-3.236,2.786" transform="translate(91.388 67.346)" fill="#1a1a1a"/>
        <path id="Trazado_601977" data-name="Trazado 601977" d="M24.695,31.36c-.536-2.154,7.109-6.187,7.109-6.187l-6.583-6.894C26.879,16.7,34.5,24.692,34.5,24.692c-.3,1.8-9.278,6.533-9.278,6.533a1.082,1.082,0,0,1-.526.135" transform="translate(98.916 72.471)" fill="#1a1a1a"/>
        <path id="Trazado_601978" data-name="Trazado 601978" d="M16.31,106.143C15.163,71.84,27.473,42.136,27.6,41.84,29.587,43.012,17.453,72.316,17.453,105a1.145,1.145,0,0,1-1.142,1.142" transform="translate(65.101 167.777)" fill="#1a1a1a"/>
        <path id="Trazado_601979" data-name="Trazado 601979" d="M39.173,32.466a8.78,8.78,0,0,1-6.408-2.33c-3.021-2.976-2.7-7.645-2.68-7.841,2.27.21,2.024,4,4.3,6.212,1.348,1.328,3.367,1.889,6.022,1.608-.291,2.325-.772,2.35-1.232,2.35" transform="translate(120.57 89.406)" fill="#1a1a1a"/>
        <path id="Trazado_601980" data-name="Trazado 601980" d="M74.107,116.3a83.674,83.674,0,0,1-9.539-.571c-7-.8-16.949-5.837-16.052-14.078a8.408,8.408,0,0,1,4.449-6.543c-.762,3.006-1.949,4.744-2.174,6.788-.762,6.949,8.767,10.962,14.038,11.568,17.54,2.009,29.143-1.769,32.8-6.433,2.735-3.492,4.784-8.086,6.277-14.043a79.693,79.693,0,0,0,1.844-28.321c-1.137-9.744-12.49-18.632-12.61-18.717,1.9-1.428,13.627,7.765,14.88,18.457a82.286,82.286,0,0,1-1.9,29.138c-1.568,6.272-3.757,11.147-6.693,14.89-3.928,5.025-13.407,7.866-25.32,7.866" transform="translate(194.321 183.667)" fill="#1a1a1a"/>
        <path id="Trazado_601981" data-name="Trazado 601981" d="M62.866,73.454a21.508,21.508,0,0,1-3.011-.15c-3.367-.451-7.214-.952-8.9-3.662a11.406,11.406,0,0,1-1.273-9.9,12.011,12.011,0,0,1,5.947-6.418c2.6-1.408,5.311-1.242,7.936-1.1,3.011.12,4.188.135,5.306.135,19.183,0,22.85-4.289,22.885-4.334,1.433,1.929-2.866,7.084-26.473,6.573-4.278-.225-6.543-.356-8.567.731a9.86,9.86,0,0,0-4.89,5.18A9.2,9.2,0,0,0,52.9,68.439c1.107,1.784,4.314,2.209,6.428,2.485,5.812.847,27.55-1.5,29.454-2.244-1.343,2.976-18.061,4.774-25.912,4.774" transform="translate(196.78 192.57)" fill="#1a1a1a"/>
        <path id="Trazado_601982" data-name="Trazado 601982" d="M68.683,73.774c-3.031,0-6.052-.115-8.858-.4-5.812-.6-11.783-4.5-11.137-11.678a13.446,13.446,0,0,1,5.9-9.369c-1.418,3.732-3.4,6.819-3.632,9.564-.5,5.641,4.364,8.727,9.1,9.208,13.076,1.313,31.212-1.192,31.407-1.217.17,2.285-11.343,3.893-22.78,3.893" transform="translate(195.046 209.825)" fill="#1a1a1a"/>
        <path id="Trazado_601983" data-name="Trazado 601983" d="M55.686,98.714c-10.27,0-30.375-29.018-32.74-32.49C22.78,65.3,33.937,21.776,33.937,21.776c2.219.571-8.818,43.587-8.818,43.587C34.208,78.594,50.455,98.4,56.462,96.309c3.988-1.383,3.888-16.488,2.53-26.768.02-.411,4.324-19.173,4.324-19.173,2.234.516-2.024,19.078-2.024,19.078.626,4.88,3,26.568-4.078,29.023a4.652,4.652,0,0,1-1.528.245" transform="translate(92.003 87.321)" fill="#1a1a1a"/>
        <path id="Trazado_601984" data-name="Trazado 601984" d="M132.426,190.6H29.15C28.068,189.1,79.711,38.528,79.711,38.528c1.082-.772,104.357-.772,104.357-.772,1.082,1.513-17.189,54.774-17.189,54.774-2.169-.741,15.591-52.489,15.591-52.489H81.6L30.749,188.32H131.614l13.923-40.631c2.169.746-12.029,42.144-12.029,42.144a1.138,1.138,0,0,1-1.082.772" transform="translate(116.825 151.4)" fill="#1a1a1a"/>
        <path id="Trazado_601985" data-name="Trazado 601985" d="M36.595,189.368H27.827c-1.082-1.513,50.56-152.082,50.56-152.082,1.082-.772,104.362-.772,104.362-.772,1.082,1.513-.621,6.473-.621,6.473-2.164-.746-.982-4.188-.982-4.188H80.282L29.426,187.078h7.169c1.142,1.773.631,2.29,0,2.29" transform="translate(111.519 146.42)" fill="#1a1a1a"/>
        <path id="Trazado_601986" data-name="Trazado 601986" d="M83.119,45.3c-1.142-1.628-1.328-13.011-19.659-18.442-13.682-4.053-20.345-9.584-23.206-12.71-.857,7.019-3.933,24.609-13.682,28.993,9.84-6.924,11.663-31.783,11.678-32.029,2.189-.4,7.169,8.016,25.856,13.557,20.085,5.947,20.165,18.953,20.155,19.5A1.142,1.142,0,0,1,83.119,45.3" transform="translate(106.553 44.503)" fill="#1a1a1a"/>
        <path id="Trazado_601987" data-name="Trazado 601987" d="M40.912,20.815c-1.082-.762-2.054-2.7-5.015-2.7,4.263-2.68,5.982.932,6.052,1.092-.726,1.573-.882,1.608-1.037,1.608" transform="translate(143.945 68.683)" fill="#1a1a1a"/>
        <path id="Trazado_601988" data-name="Trazado 601988" d="M44.527,19.664c-.957-.471-5.957-4.679-14.494-1.112,9.073-6.227,15.01-1.107,15.255-.882-.13,1.864-.446,1.994-.761,1.994" transform="translate(120.431 62.063)" fill="#1a1a1a"/>
        <path id="Trazado_601989" data-name="Trazado 601989" d="M66.286,99.825q-3.322,0-9.163-3.151A102.389,102.389,0,0,1,38.281,82.791,103.128,103.128,0,0,1,22.615,65.4c-3.968-5.887-5.035-9.925-3.171-11.994,2.485-2.72,7.014-.832,11.092,1.388-5.6-.441-8.312-1.047-9.394.145-.751.827-.316,3.727,3.372,9.178A99.936,99.936,0,0,0,39.814,81.1a99.629,99.629,0,0,0,18.4,13.562c5.786,3.131,8.717,3.282,9.464,2.46,1.022-1.142.1-5.13-5.917-12.65,8,6.338,9.965,11.593,7.61,14.188a3.974,3.974,0,0,1-3.086,1.167" transform="translate(74.398 208.764)" fill="#1a1a1a"/>
        <path id="Trazado_601990" data-name="Trazado 601990" d="M58.194,65.51c2.66-1.348,7.525-6.553,9.584-13.737s.726-14.148-2.921-15.205c-3.452-.957-7.826,3.382-10.105,9.885.566-8.537,6.112-13.412,10.731-12.079,5.01,1.443,6.984,9.364,4.5,18.026C67.743,60.16,62.8,65.51,58.194,65.51" transform="translate(219.553 136.962)" fill="#1a1a1a"/>
        <path id="Trazado_601991" data-name="Trazado 601991" d="M51.871,65.51c2.68-1.358,7.525-6.553,9.589-13.737s.726-14.148-2.921-15.205c-3.462-.957-7.831,3.382-10.105,9.885C49,37.915,54.521,33.041,59.16,34.373c5.015,1.443,6.989,9.364,4.5,18.026C61.425,60.16,56.485,65.51,51.871,65.51" transform="translate(194.218 136.962)" fill="#1a1a1a"/>
        <path id="Trazado_601992" data-name="Trazado 601992" d="M45.509,65.51c2.675-1.358,7.525-6.553,9.589-13.737a21.239,21.239,0,0,0,.611-10.25c-.6-2.71-1.859-4.469-3.537-4.955-3.467-.957-7.821,3.382-10.105,9.885.571-8.537,6.107-13.412,10.731-12.079,2.52.731,4.339,3.091,5.135,6.653A23.534,23.534,0,0,1,57.3,52.4C55.063,60.16,50.123,65.51,45.509,65.51" transform="translate(168.687 136.962)" fill="#1a1a1a"/>
        <path id="Trazado_601993" data-name="Trazado 601993" d="M107.528,44.975H41.853c0-2.285,65.675-2.285,65.675-2.285,1.142,1.774.631,2.285,0,2.285" transform="translate(167.829 171.185)" fill="#1a1a1a"/>
        <path id="Trazado_601994" data-name="Trazado 601994" d="M106.345,48.48H40.674c0-2.29,65.671-2.29,65.671-2.29,1.147,1.779.631,2.29,0,2.29" transform="translate(163.101 185.22)" fill="#1a1a1a"/>
        <path id="Trazado_601995" data-name="Trazado 601995" d="M93.807,55.012h-55.4c0-2.29,55.4-2.29,55.4-2.29,1.142,1.779.631,2.29,0,2.29" transform="translate(154.03 211.413)" fill="#1a1a1a"/>
        <path id="Trazado_601996" data-name="Trazado 601996" d="M91.046,51.908H39.464c0-2.29,51.582-2.29,51.582-2.29,1.147,1.779.631,2.29,0,2.29" transform="translate(158.249 198.966)" fill="#1a1a1a"/>
        <path id="Trazado_601997" data-name="Trazado 601997" d="M95.432,58.441H37.256c0-2.29,58.176-2.29,58.176-2.29,1.142,1.779.631,2.29,0,2.29" transform="translate(149.395 225.163)" fill="#1a1a1a"/>
        <path id="Trazado_601998" data-name="Trazado 601998" d="M101.771,61.869H36.1c0-2.29,65.67-2.29,65.67-2.29,1.147,1.779.631,2.29,0,2.29" transform="translate(144.763 238.909)" fill="#1a1a1a"/>
        <path id="Trazado_601999" data-name="Trazado 601999" d="M56.048,200.25a137.921,137.921,0,0,1-29.784-3.206,82.326,82.326,0,0,1-13.978-4.013c-2.5-1.032-6.6-2.705-6.753-5.8C4.771,171.447,8.207,75.1,8.243,74.129c2.254,1.052-1.182,97.3-.426,112.995.08,1.633,3.547,3.061,5.03,3.672a81.353,81.353,0,0,0,13.913,4.018,142.418,142.418,0,0,0,50.08,1.728c-6.919,3.226-13.928,3.707-20.791,3.707" transform="translate(21.742 297.254)" fill="#1a1a1a"/>
        <path id="Trazado_602001" data-name="Trazado 602001" d="M11.455,156.877c-7.425-18.442-.045-36.958,16.478-44.794a56.46,56.46,0,0,1,11.588-3.557c5.932-1.373,11.538-2.665,15.691-6.533,5.431-5.06,6.287-12.9,6.313-17.114A73.447,73.447,0,0,0,60.293,72.91c-.391-2.495-.8-5.09-1.037-7.68A150.35,150.35,0,0,1,58.574,45.2c.351-8.732.661-16.889,6.9-22.9,3.878-3.732,9.213-5.431,12.881-6.388a122.393,122.393,0,0,1,13.968-2.5,28.763,28.763,0,0,1,5.506-.386c2.375.03,5.07.075,6.293-.987.175-.145,17.956-15.531,48.291,3.627,19.869,12.55,20.045,22.88,18.592,43.206-.711,9.935-5.847,18.081-10.371,25.27-4.619,7.34-8.607,13.677-6.012,19.419,1.553,3.437,3.993,6.453,6.568,9.649,6.283,7.77,12.775,15.806,5.982,30.01,4.1-13.888-1.658-21.027-7.75-28.577-2.56-3.161-5.205-6.438-6.879-10.14-3.106-6.859,1.187-13.677,6.162-21.578,4.384-6.964,9.349-14.85,10.01-24.218C170.156,38.792,170,29.479,151.193,17.6,122.431-.561,106.3,13.166,105.633,13.762c-1.894,1.643-5.025,1.6-7.846,1.553a22.374,22.374,0,0,0-3.111.08,141.314,141.314,0,0,0-15.741,2.73c-5.516,1.438-9.178,3.226-11.864,5.822-5.576,5.376-5.872,12.715-6.172,20.5a149.57,149.57,0,0,0,.626,20.576c.235,2.52.641,5.07,1.032,7.535a75.792,75.792,0,0,1,1.252,12.34c-.05,7.921-2.55,14.589-7.039,18.767-4.6,4.289-10.766,5.716-16.738,7.089a54.635,54.635,0,0,0-11.122,3.4c-15.681,7.44-22.415,24.378-16.383,41.2-.812,1.513-.942,1.533-1.072,1.533" transform="translate(34.351 24.313)" fill="#1a1a1a"/>
        <path id="Trazado_602002" data-name="Trazado 602002" d="M33.551,46.845c2.129-2.41,3.793-4,4.589-4.94a7.6,7.6,0,0,0,1.7-3.076c-1.157-.772-4.9-3.487-5.4-6.658-.446-2.816.721-13.722.862-14.955,1.914,3.517,1.057,12.47,1.388,14.6.316,1.944,3.031,4.268,4.669,5.28.411.251,1.052.9.656,2.45-.6,2.335-3.752,7.034-8.407,7.295l-.06,0" transform="translate(134.538 69.035)" fill="#1a1a1a"/>
        <path id="Trazado_602003" data-name="Trazado 602003" d="M31.617,15.668c-1.057-.7-3.868-7.41-3.868-7.41,2.109-.882,4.92,5.827,4.92,5.827-.757,1.553-.907,1.583-1.052,1.583" transform="translate(111.272 32.794)" fill="#1a1a1a"/>
      </g>
    </g>
    <g id="Grupo_1014796" data-name="Grupo 1014796" transform="translate(272.763 5214.558)">
      <g id="Grupo_1014795" data-name="Grupo 1014795" transform="translate(0 0)" clip-path="url(#clip-path-2)">
        <path id="Trazado_602008" data-name="Trazado 602008" d="M368.729,63.53H18.448A17.96,17.96,0,0,1,.536,45.624V18.2A17.963,17.963,0,0,1,18.448.3H368.729a17.958,17.958,0,0,1,17.906,17.9V45.624A17.955,17.955,0,0,1,368.729,63.53" transform="translate(2.61 1.45)" fill="#fff"/>
        <path id="Trazado_602009" data-name="Trazado 602009" d="M56.078,21.31A17.994,17.994,0,1,0,74.072,3.316,17.993,17.993,0,0,0,56.078,21.31" transform="translate(273.039 16.144)" fill="#fff198"/>
        <path id="Trazado_602010" data-name="Trazado 602010" d="M195.494,66.73H19.872A19.89,19.89,0,0,1,0,46.863v-27A19.894,19.894,0,0,1,19.872,0H44.6a1.749,1.749,0,0,1,0,3.5H19.872A16.391,16.391,0,0,0,3.5,19.866v27A16.392,16.392,0,0,0,19.872,63.238H195.494a1.746,1.746,0,1,1,0,3.492" transform="translate(0 -0.001)" fill="#1a1a1a"/>
        <path id="Trazado_602011" data-name="Trazado 602011" d="M335.563,66.73h-86.6a1.746,1.746,0,1,1,0-3.492h86.6a16.392,16.392,0,0,0,16.374-16.374v-27A16.391,16.391,0,0,0,335.563,3.5H9.051a1.749,1.749,0,1,1,0-3.5H335.563a19.89,19.89,0,0,1,19.872,19.866v27A19.886,19.886,0,0,1,335.563,66.73" transform="translate(35.553 -0.001)" fill="#1a1a1a"/>
        <path id="Trazado_602012" data-name="Trazado 602012" d="M74.587,41.813A19.746,19.746,0,1,1,94.33,22.064,19.77,19.77,0,0,1,74.587,41.813m0-35.994A16.248,16.248,0,1,0,90.832,22.064,16.271,16.271,0,0,0,74.587,5.819" transform="translate(267.031 11.3)" fill="#1a1a1a"/>
        <path id="Trazado_602013" data-name="Trazado 602013" d="M278.569,6.937H7.173a1.746,1.746,0,1,1,0-3.492h271.4a1.746,1.746,0,1,1,0,3.492" transform="translate(26.409 16.772)" fill="#1a1a1a"/>
        <path id="Trazado_602014" data-name="Trazado 602014" d="M278.569,10.828H7.173a1.749,1.749,0,1,1,0-3.5h271.4a1.749,1.749,0,1,1,0,3.5" transform="translate(26.409 35.688)" fill="#1a1a1a"/>
      </g>
    </g>
    <path id="Trazado_602015" data-name="Trazado 602015" d="M79.775,123.966H211.7a26.9,26.9,0,0,0,26.818-26.823V26.823A26.9,26.9,0,0,0,211.7,0H79.775A26.9,26.9,0,0,0,52.957,26.823v70.32a26.9,26.9,0,0,0,26.818,26.823" transform="translate(425.241 4712.832)" fill="#fff198"/>
    <path id="Trazado_602016" data-name="Trazado 602016" d="M88.015,30.681A18.617,18.617,0,1,1,69.4,12.064,18.619,18.619,0,0,1,88.015,30.681" transform="translate(416.515 4761.208)" fill="#fff"/>
    <path id="Trazado_602017" data-name="Trazado 602017" d="M207.22,129.431c14.494-2.285,26.277-14.073,26.277-28.562V31.742A26.3,26.3,0,0,0,207.22,5.47H76.495A26.3,26.3,0,0,0,50.223,31.742v69.127a26.3,26.3,0,0,0,26.272,26.277h74.438c0,2.285-74.438,2.285-74.438,2.285a28.591,28.591,0,0,1-28.562-28.562V31.742A28.594,28.594,0,0,1,76.495,3.18H207.22a28.6,28.6,0,0,1,28.567,28.562v69.127a28.6,28.6,0,0,1-28.567,28.562" transform="translate(405.095 4725.583)" fill="#1a1a1a"/>
    <path id="Trazado_602018" data-name="Trazado 602018" d="M70.311,51.356A19.759,19.759,0,1,1,90.076,31.6,19.783,19.783,0,0,1,70.311,51.356m0-37.234A17.472,17.472,0,1,0,87.791,31.6a17.492,17.492,0,0,0-17.48-17.475" transform="translate(415.597 4760.298)" fill="#1a1a1a"/>
    <path id="Trazado_602019" data-name="Trazado 602019" d="M161.056,15.182H61.493c0-2.29,99.563-2.29,99.563-2.29,1.142,1.779.626,2.29,0,2.29" transform="translate(459.469 4764.528)" fill="#1a1a1a"/>
    <path id="Trazado_602020" data-name="Trazado 602020" d="M161.056,20.367H61.493c0-2.29,99.563-2.29,99.563-2.29,1.142,1.779.626,2.29,0,2.29" transform="translate(459.469 4785.32)" fill="#1a1a1a"/>
  </g>
</svg>
