<svg xmlns="http://www.w3.org/2000/svg" xmlns:xlink="http://www.w3.org/1999/xlink" width="189" height="189" viewBox="0 0 189 189">
  <defs>
    <clipPath id="clip-path">
      <rect id="Rectángulo_347537" data-name="Rectángulo 347537" width="119.408" height="127.133" fill="none"/>
    </clipPath>
  </defs>
  <g id="Grupo_1017023" data-name="Grupo 1017023" transform="translate(-750 -911)">
    <g id="Grupo_161158" data-name="Grupo 161158" transform="translate(750 911)">
      <circle id="Elipse_1142" data-name="Elipse 1142" cx="94.5" cy="94.5" r="94.5" fill="#fff"/>
    </g>
    <g id="Grupo_1017330" data-name="Grupo 1017330" transform="translate(783 937.8)">
      <g id="Grupo_1017329" data-name="Grupo 1017329" clip-path="url(#clip-path)">
        <path id="Trazado_608818" data-name="Trazado 608818" d="M60.56,36.567Q60.555,19.6,60.552,2.633c0-2.274.341-2.6,2.691-2.6q39.39,0,78.781-.034c1.855,0,2.489.791,2.664,2.361a16.191,16.191,0,0,1,.028,1.784q.008,28.477.015,56.954c-.526.022-1.053.064-1.579.063q-16.229-.005-32.458-.031c-1.357,0-2.438.154-2.129,1.925l-17.023.093c.115-1.4-.425-2.1-1.935-2a25.59,25.59,0,0,1-3.964-.028c-1.583-.147-2.384.458-2.442,2.043l-11.523.005a17.632,17.632,0,0,1-.058-2.319,3.549,3.549,0,0,0-2.27-4.027q.03-3.761.059-7.522a5.876,5.876,0,0,0,3.1-1.15,6.093,6.093,0,0,0,2.47-6.755c-.9-2.982-3.092-4.619-6.518-4.733-2.633-.088-5.27-.068-7.905-.095m22.234-6.719a19.8,19.8,0,1,0,19.811-19.754A19.75,19.75,0,0,0,82.794,29.849" transform="translate(-36.499 0)" fill="#ffefd5"/>
        <path id="Trazado_608819" data-name="Trazado 608819" d="M59.951,217.848c0-2.773.012-5.547,0-8.32,0-.711.174-1.468-.382-2.083,2.892-.033,5.784-.037,8.675-.107A6.227,6.227,0,0,0,68.83,194.9q-.011-3.94-.022-7.88a2.539,2.539,0,0,0,2.2-2.81c.027-1.052.047-2.1.07-3.156l11.54.007c.107,1.542.9,2.16,2.459,2.017a27.7,27.7,0,0,1,3.915-.047c1.443.073,2.073-.535,1.952-1.958l17.032.086c-.291,1.982,1.057,1.9,2.369,1.9q16.894.023,33.788.059,0,24.888-.009,49.777c0,3.047-.278,3.329-3.225,3.329l-56.319-.01c.026-2.7.089-5.395.066-8.091-.015-1.667-1.03-2.473-2.617-2.618-.588-.054-1.184-.035-1.776-.048-.021-1.383-.046-2.765-.063-4.148-.032-2.634-.755-3.347-3.442-3.363q-8.4-.052-16.8-.1M112.1,194.593c5.619,0,11.239-.009,16.859.006,1.31,0,2.493-.209,2.5-1.82.008-1.6-1.133-1.851-2.467-1.849q-16.859.024-33.718,0c-1.4,0-2.665.269-2.624,1.934.039,1.559,1.285,1.744,2.591,1.738,5.619-.024,11.239-.01,16.859-.01m-.129,18.654c5.62,0,11.24-.01,16.861.008,1.367,0,2.654-.138,2.624-1.887-.027-1.6-1.227-1.787-2.533-1.785q-16.762.021-33.524,0c-1.362,0-2.713.156-2.751,1.813s1.264,1.874,2.659,1.866c5.554-.034,11.109-.014,16.663-.014m-7.54,9.447c3.107,0,6.213.005,9.319,0,1.346,0,2.626-.21,2.62-1.946s-1.3-1.948-2.633-1.95c-6.147-.012-12.293,0-18.44-.011-1.409,0-2.664.4-2.657,1.972s1.251,1.962,2.67,1.948c3.04-.032,6.081-.01,9.121-.01m16.058-18.639c2.777,0,5.553.006,8.329,0,1.344,0,2.626-.211,2.646-1.934s-1.253-1.976-2.6-1.979c-5.487-.011-10.974.008-16.461-.013-1.416-.006-2.668.4-2.684,1.948s1.21,2,2.64,1.989c2.71-.029,5.421-.008,8.131-.008m-20.769,0c1.579,0,3.159.014,4.738,0,1.287-.015,2.255-.622,2.266-1.946s-.98-1.946-2.252-1.957c-3.158-.027-6.317-.02-9.475-.006-1.355.006-2.423.595-2.364,2.044.053,1.3,1.066,1.869,2.35,1.869h4.737m25.313,18.631v.008c1.447,0,2.894-.018,4.341.006a1.958,1.958,0,0,0,2.213-1.793,1.83,1.83,0,0,0-1.928-2.054c-3.021-.1-6.05-.092-9.072-.005a1.767,1.767,0,0,0-1.889,1.863c-.01,1.345.831,1.893,2,1.957,1.443.079,2.893.019,4.34.019" transform="translate(-35.907 -109.135)" fill="#ffefd5"/>
        <path id="Trazado_608820" data-name="Trazado 608820" d="M217.5,166.7q-16.894-.031-33.788-.059c-1.312,0-2.66.081-2.369-1.9q0-4.482,0-8.966c-.309-1.771.772-1.928,2.129-1.925q16.229.04,32.459.031c.526,0,1.053-.041,1.579-.063,1.711.023,3.422.022,5.133.074a6.377,6.377,0,0,1-.006,12.736c-1.71.056-3.422.05-5.133.072" transform="translate(-109.278 -92.719)" fill="#be5846"/>
        <path id="Trazado_608821" data-name="Trazado 608821" d="M44.345,292.748c.592.014,1.187-.006,1.776.048,1.588.145,2.6.951,2.617,2.618.023,2.7-.039,5.394-.066,8.091-15.437.008-30.875-.005-46.312.055-1.718.007-2.435-.572-2.355-2.272.059-1.25.01-2.506.011-3.76,0-4.238.353-4.614,4.527-4.839l39.8.058" transform="translate(0 -176.428)" fill="#752f23"/>
        <path id="Trazado_608822" data-name="Trazado 608822" d="M56.043,158.142c-.023,1.052-.043,2.1-.07,3.156a2.539,2.539,0,0,1-2.2,2.81L36.744,164.1a2.34,2.34,0,0,1-2.09-2.651c-.039-5.144,0-10.288-.028-15.432-.009-1.584.995-2.328,2.192-2.976l16.9,0a3.549,3.549,0,0,1,2.27,4.027,17.564,17.564,0,0,0,.058,2.319q0,4.375-.008,8.75" transform="translate(-20.872 -86.224)" fill="#be5846"/>
        <path id="Trazado_608823" data-name="Trazado 608823" d="M39.433,92.058c2.635.028,5.272.007,7.905.095,3.426.114,5.622,1.751,6.518,4.733a6.092,6.092,0,0,1-2.47,6.755,5.876,5.876,0,0,1-3.1,1.15l-17.136-.024c-3.669-.635-5.907-3.365-5.619-6.852a6.333,6.333,0,0,1,6.417-5.73c2.5-.07,4.992-.087,7.489-.127" transform="translate(-15.372 -55.491)" fill="#be5846"/>
        <path id="Trazado_608824" data-name="Trazado 608824" d="M48.323,215.913c3.548.473,6.005,3.214,5.825,6.5a6.348,6.348,0,0,1-6.411,5.942c-2.891.07-5.783.074-8.675.107-2.505-.016-5.013.03-7.515-.065a6.192,6.192,0,0,1-6-6.131,6.121,6.121,0,0,1,5.713-6.344l17.06-.006" transform="translate(-15.4 -130.148)" fill="#be5846"/>
        <path id="Trazado_608825" data-name="Trazado 608825" d="M51.241,281.292l-39.8-.058c.007-1.385.008-2.769.022-4.153.026-2.543.779-3.311,3.268-3.324q8.105-.041,16.21-.072,8.4.047,16.8.1c2.687.016,3.41.728,3.442,3.363.017,1.383.042,2.765.063,4.148" transform="translate(-6.896 -164.972)" fill="#be5846"/>
        <path id="Trazado_608826" data-name="Trazado 608826" d="M56.994,203.944l-17.06.006q0-3.947.01-7.893l17.028.006q.011,3.941.022,7.881" transform="translate(-24.071 -118.18)" fill="#752f23"/>
        <path id="Trazado_608827" data-name="Trazado 608827" d="M39.711,124.054l17.136.024q-.03,3.761-.059,7.522l-16.905,0-.172-7.543" transform="translate(-23.937 -74.778)" fill="#752f23"/>
        <path id="Trazado_608828" data-name="Trazado 608828" d="M116.548,45.166a19.8,19.8,0,1,1,19.728,19.8,19.824,19.824,0,0,1-19.728-19.8m29.771-3.936a1.61,1.61,0,0,0-1.061-1.634,2.074,2.074,0,0,0-2.335.614c-2.184,2.214-4.422,4.375-6.578,6.614-.714.742-1.183.79-1.889.011-1.065-1.175-2.228-2.261-3.358-3.377-.932-.921-2-1.175-2.95-.163-.9.959-.5,1.938.348,2.785,1.737,1.724,3.482,3.442,5.191,5.194a2.077,2.077,0,0,0,3.406.005c2.791-2.822,5.609-5.618,8.42-8.421a2.085,2.085,0,0,0,.806-1.631" transform="translate(-70.253 -15.318)" fill="#5fa420"/>
        <path id="Trazado_608829" data-name="Trazado 608829" d="M155.583,158.746q0,4.483,0,8.966l-17.033-.086q0-4.394.006-8.786l17.022-.093" transform="translate(-83.518 -95.689)" fill="#752f23"/>
        <path id="Trazado_608830" data-name="Trazado 608830" d="M88.543,167.768q0-4.375.008-8.75l11.522-.005a20.874,20.874,0,0,1,.01,8.762l-11.54-.007" transform="translate(-53.372 -95.85)" fill="#752f23"/>
        <path id="Trazado_608831" data-name="Trazado 608831" d="M117.579,164.641a20.885,20.885,0,0,0-.01-8.761c.058-1.586.86-2.19,2.443-2.044a25.59,25.59,0,0,0,3.964.028c1.511-.1,2.05.6,1.935,2l-.006,8.786c.122,1.423-.508,2.031-1.951,1.957a27.7,27.7,0,0,0-3.915.047c-1.558.143-2.352-.475-2.459-2.017" transform="translate(-70.868 -92.717)" fill="#be5846"/>
        <path id="Trazado_608832" data-name="Trazado 608832" d="M162.295,209.582c-5.62,0-11.239-.014-16.859.011-1.305.006-2.552-.18-2.59-1.739-.041-1.665,1.227-1.936,2.624-1.934q16.86.021,33.718,0c1.334,0,2.474.253,2.467,1.849-.008,1.612-1.19,1.824-2.5,1.82-5.62-.015-11.239-.006-16.859-.006" transform="translate(-86.104 -124.125)" fill="#f79a5c"/>
        <path id="Trazado_608833" data-name="Trazado 608833" d="M162.164,256.539c-5.554,0-11.109-.02-16.662.014-1.4.008-2.7-.2-2.66-1.866s1.389-1.815,2.751-1.813q16.762.023,33.524,0c1.306,0,2.505.181,2.533,1.785.03,1.749-1.257,1.891-2.624,1.887-5.62-.018-11.241-.008-16.861-.008" transform="translate(-86.102 -152.428)" fill="#f79a5c"/>
        <path id="Trazado_608834" data-name="Trazado 608834" d="M154.614,279.952c-3.04,0-6.081-.022-9.12.01-1.419.015-2.663-.379-2.67-1.948s1.248-1.975,2.657-1.972c6.147.013,12.293,0,18.44.011,1.336,0,2.626.221,2.633,1.95s-1.274,1.943-2.62,1.946c-3.107.008-6.213,0-9.319,0" transform="translate(-86.091 -166.394)" fill="#f79a5c"/>
        <path id="Trazado_608835" data-name="Trazado 608835" d="M196.585,233c-2.711,0-5.422-.021-8.131.008-1.43.015-2.657-.437-2.641-1.989s1.268-1.954,2.685-1.948c5.486.021,10.974,0,16.461.013,1.348,0,2.622.251,2.6,1.979s-1.3,1.93-2.646,1.934c-2.777.008-5.553,0-8.329,0" transform="translate(-112.005 -138.079)" fill="#f79a5c"/>
        <path id="Trazado_608836" data-name="Trazado 608836" d="M149.887,233h-4.738c-1.283,0-2.3-.565-2.35-1.869-.059-1.449,1.009-2.037,2.364-2.044,3.158-.015,6.317-.022,9.475.005,1.272.011,2.262.62,2.251,1.957s-.98,1.93-2.266,1.946c-1.579.019-3.158,0-4.738,0" transform="translate(-86.076 -138.082)" fill="#f79a5c"/>
        <path id="Trazado_608837" data-name="Trazado 608837" d="M214.755,279.93c-1.447,0-2.9.06-4.34-.019-1.166-.064-2.007-.613-2-1.957a1.767,1.767,0,0,1,1.889-1.863c3.022-.087,6.051-.1,9.072.005a1.83,1.83,0,0,1,1.928,2.054,1.958,1.958,0,0,1-2.213,1.793c-1.447-.024-2.894-.006-4.341-.006v-.008" transform="translate(-125.631 -166.381)" fill="#f79a5c"/>
        <path id="Trazado_608838" data-name="Trazado 608838" d="M163.146,62.543a2.085,2.085,0,0,1-.806,1.631c-2.811,2.8-5.629,5.6-8.42,8.421a2.077,2.077,0,0,1-3.406-.005c-1.709-1.752-3.453-3.47-5.191-5.194-.853-.847-1.25-1.826-.348-2.785.951-1.012,2.017-.758,2.95.163,1.13,1.116,2.293,2.2,3.358,3.377.706.779,1.175.73,1.889-.011,2.156-2.24,4.394-4.4,6.578-6.614a2.074,2.074,0,0,1,2.335-.614,1.61,1.61,0,0,1,1.061,1.634" transform="translate(-87.079 -36.63)" fill="#f7f9fa"/>
      </g>
    </g>
  </g>
</svg>
