<svg xmlns="http://www.w3.org/2000/svg" xmlns:xlink="http://www.w3.org/1999/xlink" width="124.001" height="124" viewBox="0 0 124.001 124">
  <defs>
    <clipPath id="clip-path">
      <rect id="Rect치ngulo_347544" data-name="Rect치ngulo 347544" width="70.916" height="70.871" fill="none"/>
    </clipPath>
  </defs>
  <g id="Grupo_1017337" data-name="Grupo 1017337" transform="translate(-387 -4900.469)">
    <g id="Grupo_1015095" data-name="Grupo 1015095">
      <g id="Grupo_1015003" data-name="Grupo 1015003" transform="translate(2 2842.469)">
        <g id="Grupo_159182" data-name="Grupo 159182" transform="translate(0.001)">
          <path id="Uni칩n_12" data-name="Uni칩n 12" d="M8464.769,11817.939a62.055,62.055,0,1,1,20.7-16.051l8.516,22.111Z" transform="translate(-7991 -9642)" fill="#a3bfe4"/>
          <circle id="Elipse_4842" data-name="Elipse 4842" cx="48" cy="48" r="48" transform="translate(399 2072)" fill="#e3ecf7"/>
        </g>
        <g id="Grupo_1017342" data-name="Grupo 1017342" transform="translate(411.543 2084.564)">
          <g id="Grupo_1017341" data-name="Grupo 1017341" clip-path="url(#clip-path)">
            <path id="Trazado_608888" data-name="Trazado 608888" d="M27.816,20.566,21.845,9.951c-.27-.48-.55-.956-.8-1.444-.487-.935-.9-1.659-2.268-1.77-2-.163-3.167-2.466-2.541-4.367A3.494,3.494,0,0,1,20.892.28a3.393,3.393,0,0,1,1.592,4.74,1.3,1.3,0,0,0,.057,1.488c2.587,4.568,5.156,9.146,7.758,13.772a14.628,14.628,0,0,0,1.449-2.412c2.133-3.77,4.25-7.55,6.4-11.309A1.327,1.327,0,0,0,38.2,5a3.255,3.255,0,0,1,.63-4.035A3.4,3.4,0,0,1,42.9.463a3.474,3.474,0,0,1,1.628,3.894,3.493,3.493,0,0,1-3.165,2.5c-.459.019-.8.033-1.074.526-2.352,4.237-4.741,8.453-7.114,12.678a3.34,3.34,0,0,0-.167.52,39.705,39.705,0,0,0,5.57-.177,2.241,2.241,0,0,0,1.331-3.79c-.445-.542-1.413-.9-1.26-1.612.124-.579.892-1.025,1.385-1.52,1.432-1.436,2.887-2.848,4.294-4.308.419-.435.673-.517,1.1-.02.526.614,1.152,1.14,1.7,1.733a1.173,1.173,0,0,0,1.4.323,1.152,1.152,0,0,0,.677-1.164c-.01-.811.025-1.624-.011-2.434-.024-.533.069-.783.7-.774,2.581.037,5.164.031,7.745,0,.554-.006.687.186.665.7-.036.81-.012,1.622-.008,2.434a1.223,1.223,0,0,0,.73,1.253,1.192,1.192,0,0,0,1.393-.37c.551-.594,1.165-1.13,1.7-1.734.391-.437.641-.381,1.032.018q2.707,2.769,5.474,5.477c.4.388.448.623,0,1.01-.611.53-1.142,1.15-1.73,1.708a1.176,1.176,0,0,0-.385,1.386,1.214,1.214,0,0,0,1.262.712c.848,0,1.7.019,2.545-.007.424-.013.577.115.575.557q-.025,4.038,0,8.076c0,.488-.227.529-.609.52-.774-.018-1.55.013-2.323-.011-.63-.019-1.2.059-1.459.726s.11,1.118.564,1.541c.7.652,1.382,1.316,2.1,2-2.057,2.05-4.055,4.014-6.013,6.016-.422.432-.662.409-1.046-.01-.6-.651-1.233-1.271-1.887-1.865-.317-.288-.76-.542-.764.239-.014,2.457-.005,4.913-.005,7.673,1.412-2.1,3.321-1.527,5.044-1.429a2.04,2.04,0,0,1,1.783,2.185c.024,1.29.049,2.583-.007,3.872-.033.761.168,1.058.979,1.226,2.8.582,4.23,2.88,3.427,5.367a3.776,3.776,0,0,1-3.063,2.7c-1.117.192-1.437.658-1.349,1.728a33.2,33.2,0,0,1,.015,3.428A2.135,2.135,0,0,1,64.1,66.215c-.7.024-1.4.014-2.1.006-1.532-.019-2.386-.676-2.506-2.185a1.659,1.659,0,0,0-.915-1.372c-1.717-1.135-3.659-.937-5.567-.92-.558.005-.365.458-.368.738-.016,1.881,0,3.762-.012,5.642-.016,1.865-.851,2.685-2.7,2.7-3.891.021-4.2-.292-4.2-4.218,0-1.364-.018-2.729.009-4.093.01-.511-.074-.776-.676-.852a6.838,6.838,0,0,1-4.1-1.96c-.591-.593-1.336-.193-2.009-.325-.18.407.139.626.3.878,1.159,1.877,2.339,3.742,3.5,5.618,1.083,1.75.939,3.325-.377,4.337a3.921,3.921,0,0,1-4.937-.462C35.272,67.376,33.142,64.98,31,62.6c-.518-.575-1.043-1.144-1.555-1.724a3.316,3.316,0,0,0-2.676-1.562,4.315,4.315,0,0,0-3.661,1.675c-2.533,2.972-5.21,5.821-7.805,8.741a3.749,3.749,0,0,1-3.858.992,2.8,2.8,0,0,1-2.176-2.247,2.932,2.932,0,0,1,.563-2.389c1.216-1.975,2.441-3.944,3.7-5.892.44-.681.307-.83-.474-.822-3.024.032-6.049.023-9.073.01-2.632-.011-3.9-1.3-3.9-3.956q0-15.434-.005-30.868A4.528,4.528,0,0,1,.42,22.51a.754.754,0,0,0,.1-.621c-.946-2.8-.3-5.688-.381-8.533-.035-1.187,1.015-1.886,2.42-1.9,2.249-.026,4.5-.008,6.749-.008q4.2,0,8.409,0c2.2,0,2.932.733,2.934,2.9,0,1.807.023,3.614-.012,5.421-.012.605.129.83.783.817,2.062-.042,4.125-.016,6.393-.016m13.42,29.05a10.061,10.061,0,0,1,2.354-1.287c1.693-.563,3.437-.239,5.157-.315,2.463-.109,4.929.145,7.4-.148.885-.105,1.051-.451,1.048-1.256-.028-7.3-.016-14.6-.017-21.893,0-1.6-.3-1.9-1.96-1.9q-6.137,0-12.275,0-14.21,0-28.42,0c-.941,0-1.467.673-1.375,1.86.067.872.788.443,1.185.445,8,.027,16,.017,24,.023,2.156,0,2.909.773,2.91,2.935,0,7.113,0,14.226,0,21.532M21.142,57.094q8.574,0,17.148-.008c.306,0,.855.162.879-.147a4.554,4.554,0,0,0-.277-1.827c-.172-.485-.717-.242-1.089-.242q-15.157-.02-30.314-.012c-2.035,0-2.811-.776-2.812-2.8q-.006-10.4,0-20.8c0-1.327-.021-2.656.015-3.982a1.922,1.922,0,0,1,1.677-2.016c1.341-.024,1.373-.562,1.031-1.621-.208-.646-.464-.894-1.133-.835s-1.326.01-1.99.013c-1.577.007-1.9.313-1.9,1.86q-.006,15.266,0,30.532c0,1.61.273,1.883,1.841,1.883q8.463,0,16.927,0M28.773,45.91a9.663,9.663,0,0,1,4.12,5.994.715.715,0,0,0,.854.628,37.006,37.006,0,0,1,3.865.009c1.039.075,1.361-.195,1.352-1.3-.057-7.511-.032-15.023-.033-22.534,0-.258,0-.515,0-.773,0-.3-.09-.486-.439-.485-1.771.007-3.543,0-5.438,0a9.921,9.921,0,0,1-.211,10.135,4.6,4.6,0,0,0-.831,1.9,9.3,9.3,0,0,1-3.236,6.424M17.1,45.921a8.652,8.652,0,0,1-3.054-5.1,12.8,12.8,0,0,0-1.457-4.1,9.882,9.882,0,0,1-1.047-5.006,11.815,11.815,0,0,1,1.2-4.268c-1.8,0-3.485.024-5.172-.013-.594-.013-.638.258-.637.731q.015,11.831,0,23.663c0,.515.13.712.675.7,1.511-.032,3.022-.02,4.534,0,.466,0,.688-.1.809-.633a9.637,9.637,0,0,1,4.156-5.97M65.878,32.937c-.394-.43-.745-.76-1.035-1.137a3.465,3.465,0,0,1,1.881-5.452c.617-.126,1.478.364,1.807-.329a5.061,5.061,0,0,0,.079-1.966c0-.479-.036-.962.01-1.437.066-.692-.125-1.022-.9-.935a3.022,3.022,0,0,1-2.435-.821c-1.593-1.445-1.619-3.485.01-5.153.47-.481.527-.728,0-1.186a27.3,27.3,0,0,1-2.11-2.109c-.376-.409-.637-.477-1.042-.027a3.456,3.456,0,0,1-6.09-2.562c.036-.618-.231-.746-.778-.728-.994.033-1.993.043-2.986,0-.63-.029-.863.182-.815.813a3.329,3.329,0,0,1-.686,2.38,3.481,3.481,0,0,1-5.247.292c-.256-.229-.434-.921-1.011-.328-.848.872-1.72,1.721-2.577,2.584-.15.151-.293.274-.09.541a4.8,4.8,0,0,1,.426,5.1,1.73,1.73,0,0,0,2.325-1.095A10.247,10.247,0,1,1,60.241,31.915a1.992,1.992,0,0,0-.747,2.005c.071.691.739.435,1.134.6A3.941,3.941,0,0,1,62.142,35.6c.326.388.57.444.958.045.9-.924,1.843-1.8,2.778-2.706M29.765,37.891c0-.827,0-1.343,0-1.858,0-1.486-.256-1.726-1.714-1.754-2.159-.042-4.35.249-6.438-.591a1.127,1.127,0,0,0-.751.085c-1.232.356-2.464.711-3.7,1.042a1.322,1.322,0,0,0-1.1,1.434c.012.957-.039,1.918.027,2.871a6.568,6.568,0,0,0,4.163,6A6.539,6.539,0,0,0,27.294,44.1a6.8,6.8,0,0,0,2.471-6.208M59.392,49.254a10.986,10.986,0,0,1-4.622,1.029c-1.877-.047-3.758.029-5.635-.03-.791-.024-1.077.133-1.052,1,.069,2.355.059,4.715,0,7.071-.018.8.151,1.025,1,1.046,3.447.087,6.97-.579,10.3,1.034ZM10.416,13.742c-2.4,0-4.792.025-7.187-.016-.681-.012-.884.173-.864.86.05,1.694.054,3.392,0,5.085-.024.758.249.921.95.9,1.657-.048,3.317,0,4.976-.024.526-.008.779.126.89.7.216,1.113.539,2.2.819,3.3.054.21.066.479.359.476s.307-.252.364-.47a32.787,32.787,0,0,0,.813-3.188c.119-.775.5-.83,1.118-.819,1.585.027,3.171-.025,4.754.025.7.022.969-.149.945-.9-.053-1.694-.048-3.391,0-5.085.019-.677-.167-.875-.857-.862-2.358.045-4.718.017-7.077.017m21.4,20.079a7.658,7.658,0,0,0-1.155-5.711,1.144,1.144,0,0,0-1.047-.609c-4.454.027-8.908.018-13.362.01a1.069,1.069,0,0,0-.95.406,6.9,6.9,0,0,0-1.033,6.218c.944-1.639,2.769-1.595,4.282-2.233-.259-.308-.46-.522-.632-.757-.26-.355-.856-.8-.13-1.126.614-.274,1.066-1.594,2.056-.418a5.878,5.878,0,0,0,4.709,2.244c.957-.008,1.916.039,2.871-.007a4.442,4.442,0,0,1,4.392,1.985M46.706,20.566c3,0,5.9,0,8.809,0,2.632,0,3.928,1.272,3.95,3.885.013,1.6,0,3.2,0,4.891,2.053-1.686,2.835-5.215,1.853-7.955A8.057,8.057,0,0,0,53.751,16a7.686,7.686,0,0,0-7.045,4.563M22.83,52.508c2.286,0,4.572-.028,6.857.015.793.015,1.062-.138.742-.961a7.545,7.545,0,0,0-3.352-3.957,1.39,1.39,0,0,0-1.254-.1,8.7,8.7,0,0,1-5.837-.011,1.211,1.211,0,0,0-1.053.033,7.291,7.291,0,0,0-3.548,4.185c-.193.557-.14.83.59.814,2.285-.048,4.571-.017,6.857-.017m38.987,2.349c0,2.723.05,5.447-.027,8.168-.027.955.4.99,1.106.948.606-.036,1.188.164,1.177-.884q-.082-8.278,0-16.558c.009-1.072-.64-.808-1.221-.857-.675-.057-1.073.021-1.054.9.061,2.758.022,5.519.022,8.279m-40.5,4.622c-1.509,0-2.823.015-4.135-.008-.472-.008-.631.323-.821.626q-2.165,3.457-4.311,6.926c-.232.376-.751.866-.2,1.234a1.281,1.281,0,0,0,1.715-.2c2.54-2.8,5.073-5.616,7.751-8.584m10.1,0c1.779,1.988,3.407,3.81,5.04,5.629.883.984,1.766,1.968,2.661,2.941a1.327,1.327,0,0,0,1.722.232c.641-.408.03-.915-.209-1.3-1.4-2.281-2.836-4.543-4.252-6.815-.217-.348-.394-.693-.9-.687-1.278.017-2.556.006-4.065.006m14.3-4.653c0-1.29-.011-2.58.006-3.869.006-.5-.088-.72-.688-.628a4.619,4.619,0,0,0-3.8,4.263,4.558,4.558,0,0,0,3.543,4.689c.694.137,1-.014.957-.807-.064-1.213-.017-2.432-.017-3.648M50.332,65.1q0-.939,0-1.877c0-1.623,0-1.6-1.635-1.5-.5.029-.609.207-.6.659.018,1.84.015,3.681,0,5.521-.006,1.01.752.563,1.2.6s1.092.259,1.048-.646-.01-1.84-.009-2.76M66.31,54.774c0,.475.005.951,0,1.426,0,.3.075.5.431.454a1.85,1.85,0,0,0,1.711-1.162,1.685,1.685,0,0,0-.646-2.124c-.389-.258-.9-.542-1.319-.354-.395.176-.118.724-.171,1.1a4.552,4.552,0,0,0,0,.657M19.493,2.335a1.027,1.027,0,0,0-1.08,1.089,1.1,1.1,0,1,0,2.2.036,1.059,1.059,0,0,0-1.122-1.125M40.115,3.39a1.1,1.1,0,1,0,2.2.1,1.1,1.1,0,0,0-2.2-.1" transform="translate(0 0)" fill="#0b0b0a"/>
            <path id="Trazado_608889" data-name="Trazado 608889" d="M87.423,129.861c0-7.307,0-14.42,0-21.533,0-2.162-.754-2.934-2.91-2.935-8-.007-16,0-24-.023-.4,0-1.118.427-1.185-.445-.091-1.187.434-1.86,1.375-1.86q14.21,0,28.42,0,6.137,0,12.275,0c1.657,0,1.959.294,1.959,1.9,0,7.3-.011,14.6.017,21.893,0,.8-.162,1.151-1.048,1.256-2.466.293-4.933.039-7.4.148-1.72.076-3.464-.247-5.157.315a10.066,10.066,0,0,0-2.354,1.287m7.9-13.074a5.689,5.689,0,1,0-5.673-5.706,5.723,5.723,0,0,0,5.673,5.706" transform="translate(-46.188 -80.245)" fill="#97a1ad"/>
            <path id="Trazado_608890" data-name="Trazado 608890" d="M29.487,137.268q-8.464,0-16.927,0c-1.568,0-1.84-.274-1.841-1.884q0-15.266,0-30.532c0-1.546.325-1.853,1.9-1.86.664,0,1.331.044,1.99-.013s.924.189,1.133.835c.342,1.059.31,1.6-1.032,1.621a1.922,1.922,0,0,0-1.677,2.016c-.035,1.327-.015,2.655-.015,3.982q0,10.4,0,20.8c0,2.025.777,2.8,2.812,2.8q15.157.005,30.314.012c.371,0,.917-.243,1.089.242a4.564,4.564,0,0,1,.277,1.827c-.025.309-.574.146-.879.147q-8.574.016-17.148.008" transform="translate(-8.344 -80.174)" fill="#97a1ad"/>
            <path id="Trazado_608891" data-name="Trazado 608891" d="M129.964,142.439a9.3,9.3,0,0,0,3.237-6.424,4.6,4.6,0,0,1,.83-1.9,9.922,9.922,0,0,0,.212-10.136c1.9,0,3.667,0,5.438,0,.349,0,.441.188.439.484,0,.258,0,.516,0,.773,0,7.512-.023,15.023.033,22.534.008,1.107-.313,1.376-1.352,1.3a37.006,37.006,0,0,0-3.865-.009.715.715,0,0,1-.854-.628,9.661,9.661,0,0,0-4.12-5.994" transform="translate(-101.191 -96.529)" fill="#5dc0e4"/>
            <path id="Trazado_608892" data-name="Trazado 608892" d="M41.481,142.4a9.638,9.638,0,0,0-4.156,5.97c-.121.533-.343.638-.809.633-1.511-.016-3.023-.027-4.534,0-.544.011-.676-.186-.675-.7q.02-11.831,0-23.663c0-.472.044-.744.637-.731,1.687.038,3.376.013,5.172.013a11.815,11.815,0,0,0-1.2,4.268A9.88,9.88,0,0,0,36.97,133.2a12.8,12.8,0,0,1,1.457,4.1,8.653,8.653,0,0,0,3.054,5.1" transform="translate(-24.377 -96.483)" fill="#5dc0e4"/>
            <path id="Trazado_608893" data-name="Trazado 608893" d="M212.76,64.908c-.935.9-1.88,1.782-2.778,2.706-.388.4-.633.343-.958-.045a3.943,3.943,0,0,0-1.514-1.076c-.395-.168-1.063.088-1.134-.6a1.991,1.991,0,0,1,.746-2.005A10.247,10.247,0,1,0,191.5,51.352a1.73,1.73,0,0,1-2.325,1.095,4.8,4.8,0,0,0-.426-5.1c-.2-.267-.06-.39.09-.541.857-.863,1.729-1.712,2.577-2.584.577-.594.755.1,1.011.328a3.481,3.481,0,0,0,5.247-.292,3.329,3.329,0,0,0,.687-2.38c-.048-.631.185-.842.815-.813.994.046,1.992.035,2.986,0,.547-.018.814.11.778.728a3.456,3.456,0,0,0,6.09,2.561c.405-.45.666-.383,1.042.027a27.339,27.339,0,0,0,2.11,2.11c.524.458.467.7,0,1.185-1.629,1.668-1.6,3.707-.009,5.153a3.022,3.022,0,0,0,2.434.82c.773-.086.964.244.9.935-.045.475-.005.958-.01,1.437a5.06,5.06,0,0,1-.079,1.966c-.329.693-1.19.2-1.807.329a3.465,3.465,0,0,0-1.881,5.453c.29.377.641.707,1.035,1.137" transform="translate(-146.882 -31.971)" fill="#fdc856"/>
            <path id="Trazado_608894" data-name="Trazado 608894" d="M86.222,156.221a6.8,6.8,0,0,1-2.471,6.208,6.854,6.854,0,0,1-11.206-4.98c-.066-.953-.015-1.914-.027-2.872a1.322,1.322,0,0,1,1.1-1.434c1.238-.331,2.471-.686,3.7-1.042a1.129,1.129,0,0,1,.751-.085c2.088.84,4.279.549,6.438.591,1.458.028,1.709.269,1.714,1.754,0,.516,0,1.031,0,1.858m-6.736,5.486a4.8,4.8,0,0,0,3.4-.861c.232-.17.88-.326.486-.753-.449-.487-.869-1.538-1.6-1.154a6.5,6.5,0,0,1-3.536.511c-.92-.044-1.16.221-1.16,1.142s.234,1.274,1.156,1.124a9.476,9.476,0,0,1,1.259-.008" transform="translate(-56.457 -118.331)" fill="#97a1ad"/>
            <path id="Trazado_608895" data-name="Trazado 608895" d="M228.492,222.472v11.153c-3.33-1.613-6.854-.946-10.3-1.034-.853-.021-1.022-.25-1-1.046.054-2.356.065-4.715,0-7.071-.026-.87.261-1.027,1.051-1,1.877.058,3.758-.018,5.635.03a10.985,10.985,0,0,0,4.622-1.029" transform="translate(-169.099 -173.218)" fill="#f6f8fa"/>
            <path id="Trazado_608896" data-name="Trazado 608896" d="M18.729,62.005c2.359,0,4.719.028,7.077-.017.691-.013.876.186.857.862-.047,1.694-.052,3.391,0,5.085.023.751-.242.922-.945.9-1.583-.05-3.17,0-4.754-.025-.616-.01-1,.045-1.118.819-.166,1.079-.538,2.125-.813,3.188-.056.218-.084.466-.364.47s-.306-.266-.359-.476c-.28-1.1-.6-2.192-.819-3.3-.111-.57-.364-.7-.89-.7-1.658.024-3.318-.024-4.975.024-.7.02-.974-.143-.95-.9.054-1.694.05-3.391,0-5.085-.02-.687.183-.872.864-.86,2.4.041,4.791.016,7.187.016m-.048,2.25c-.933-.2-1.3.088-1.243,1.111.045.856.085,1.321,1.16,1.26.918-.052,1.35-.15,1.314-1.239-.032-.964-.259-1.369-1.231-1.132M13.01,65.293c-.137.828-.087,1.423,1.046,1.323.755-.067,1.366.015,1.23-1.062-.089-.7.194-1.5-1.038-1.35-.742.089-1.568-.113-1.237,1.089m11.361.01c.332-1.193-.478-1.006-1.233-1.1-1.248-.16-.956.641-1.047,1.341-.137,1.058.433,1.017,1.213,1.077,1.111.085,1.222-.457,1.067-1.315" transform="translate(-8.312 -48.264)" fill="#f6f8fa"/>
            <path id="Trazado_608897" data-name="Trazado 608897" d="M80.847,130.534a4.442,4.442,0,0,0-4.392-1.985c-.955.046-1.914,0-2.871.007a5.879,5.879,0,0,1-4.709-2.244c-.989-1.176-1.441.144-2.056.418-.727.325-.13.771.13,1.126.172.235.373.449.632.757-1.514.638-3.338.594-4.282,2.233a6.9,6.9,0,0,1,1.033-6.218,1.069,1.069,0,0,1,.95-.406c4.454.009,8.908.017,13.363-.01a1.143,1.143,0,0,1,1.047.609,7.658,7.658,0,0,1,1.155,5.711" transform="translate(-49.026 -96.714)" fill="#e36558"/>
            <path id="Trazado_608898" data-name="Trazado 608898" d="M210.966,76.842a7.686,7.686,0,0,1,7.045-4.563,8.057,8.057,0,0,1,7.57,5.385c.981,2.74.2,6.269-1.853,7.955,0-1.69.011-3.291,0-4.891-.022-2.614-1.318-3.884-3.95-3.886-2.906,0-5.812,0-8.809,0" transform="translate(-164.26 -56.277)" fill="#f6f8fa"/>
            <path id="Trazado_608899" data-name="Trazado 608899" d="M76.6,219.17c-2.286,0-4.572-.03-6.857.017-.73.015-.783-.257-.59-.814a7.291,7.291,0,0,1,3.548-4.185,1.211,1.211,0,0,1,1.053-.033,8.7,8.7,0,0,0,5.837.011,1.39,1.39,0,0,1,1.254.1,7.544,7.544,0,0,1,3.352,3.957c.32.823.051.976-.742.961-2.285-.044-4.571-.016-6.857-.016" transform="translate(-53.767 -166.662)" fill="#fdc856"/>
            <path id="Trazado_608900" data-name="Trazado 608900" d="M279.121,215.44c0-2.76.039-5.52-.022-8.279-.019-.883.379-.961,1.054-.9.582.049,1.23-.215,1.221.857q-.069,8.279,0,16.558c.01,1.048-.571.848-1.177.884-.7.042-1.133.007-1.107-.948.077-2.721.027-5.445.027-8.168" transform="translate(-217.303 -160.583)" fill="#e36558"/>
            <path id="Trazado_608901" data-name="Trazado 608901" d="M62.138,268.631c-2.678,2.968-5.21,5.779-7.751,8.584a1.281,1.281,0,0,1-1.715.2c-.553-.368-.033-.858.2-1.234q2.138-3.474,4.311-6.926c.19-.3.348-.635.821-.626,1.313.023,2.626.008,4.136.008" transform="translate(-40.819 -209.152)" fill="#e36558"/>
            <path id="Trazado_608902" data-name="Trazado 608902" d="M141.9,268.637c1.508,0,2.786.011,4.065-.006.5-.006.68.339.9.687,1.416,2.273,2.85,4.534,4.252,6.815.239.39.851.9.209,1.3a1.327,1.327,0,0,1-1.722-.232c-.9-.972-1.778-1.957-2.661-2.941-1.632-1.819-3.26-3.641-5.04-5.629" transform="translate(-110.486 -209.158)" fill="#e36558"/>
            <path id="Trazado_608903" data-name="Trazado 608903" d="M190.731,231.751c0,1.216-.048,2.435.017,3.647.042.793-.263.944-.957.807a4.558,4.558,0,0,1-3.543-4.689,4.619,4.619,0,0,1,3.8-4.263c.6-.092.694.126.688.628-.017,1.29-.006,2.58-.006,3.87" transform="translate(-145.013 -176.925)" fill="#e36558"/>
            <path id="Trazado_608904" data-name="Trazado 608904" d="M219.462,282.028c0,.92-.035,1.842.01,2.76s-.6.686-1.048.646-1.2.406-1.2-.6c.011-1.84.014-3.681,0-5.521,0-.451.1-.629.6-.659,1.637-.1,1.635-.122,1.635,1.5q0,.938,0,1.877" transform="translate(-169.131 -216.931)" fill="#97a1ad"/>
            <path id="Trazado_608905" data-name="Trazado 608905" d="M299.365,241a4.683,4.683,0,0,1,0-.657c.053-.379-.224-.927.171-1.1.422-.188.93.1,1.319.354a1.685,1.685,0,0,1,.646,2.124,1.85,1.85,0,0,1-1.711,1.161c-.357.043-.436-.153-.431-.454.007-.475,0-.951,0-1.426" transform="translate(-233.056 -186.225)" fill="#fdc856"/>
            <path id="Trazado_608906" data-name="Trazado 608906" d="M84.251,10.545a1.059,1.059,0,0,1,1.122,1.125,1.1,1.1,0,1,1-2.2-.036,1.028,1.028,0,0,1,1.08-1.089" transform="translate(-64.757 -8.21)" fill="#e36558"/>
            <path id="Trazado_608907" data-name="Trazado 608907" d="M181.189,11.652a1.1,1.1,0,0,1,2.2.1,1.1,1.1,0,1,1-2.2-.1" transform="translate(-141.074 -8.263)" fill="#e36558"/>
            <path id="Trazado_608908" data-name="Trazado 608908" d="M201.973,125.037a5.689,5.689,0,1,1,5.8-5.684,5.737,5.737,0,0,1-5.8,5.684m.978-2.556c-1.133-1.51-2.252-3-3.374-4.5-.244-.324-.433-.478-.68.046a3.5,3.5,0,0,0,.622,3.6,3.042,3.042,0,0,0,3.432.855m2.456-3.116a3.351,3.351,0,0,0-3.579-3.427c-.693.044-.742.236-.339.756.873,1.127,1.7,2.288,2.577,3.414.252.324.426.976.861.834.42-.137.464-.765.479-1.247,0-.11,0-.219,0-.329" transform="translate(-152.84 -88.496)" fill="#0b0b0a"/>
            <path id="Trazado_608909" data-name="Trazado 608909" d="M95.528,185.9a9.473,9.473,0,0,0-1.259.008c-.921.15-1.156-.207-1.156-1.124s.24-1.186,1.16-1.141a6.5,6.5,0,0,0,3.536-.511c.733-.384,1.153.667,1.6,1.154.394.427-.254.584-.486.753a4.8,4.8,0,0,1-3.4.861" transform="translate(-72.498 -142.521)" fill="#0b0b0a"/>
            <path id="Trazado_608910" data-name="Trazado 608910" d="M42.441,72c.971-.237,1.2.168,1.23,1.132.036,1.089-.4,1.187-1.314,1.239-1.075.061-1.115-.4-1.16-1.26-.054-1.023.311-1.315,1.243-1.111" transform="translate(-32.073 -56.007)" fill="#0b0b0a"/>
            <path id="Trazado_608911" data-name="Trazado 608911" d="M20.955,73.026c-.331-1.2.5-1,1.238-1.089,1.232-.148.95.648,1.038,1.35.136,1.077-.474,1-1.229,1.062-1.133.1-1.184-.495-1.046-1.323" transform="translate(-16.258 -55.997)" fill="#0b0b0a"/>
            <path id="Trazado_608912" data-name="Trazado 608912" d="M64.444,73.015c.155.858.044,1.4-1.067,1.315-.779-.06-1.35-.019-1.213-1.077.091-.7-.2-1.5,1.047-1.341.755.1,1.565-.09,1.233,1.1" transform="translate(-48.385 -55.975)" fill="#0b0b0a"/>
            <path id="Trazado_608913" data-name="Trazado 608913" d="M211.191,136.654a3.042,3.042,0,0,1-3.432-.855,3.5,3.5,0,0,1-.622-3.6c.247-.524.436-.371.68-.046,1.122,1.492,2.241,2.986,3.374,4.5" transform="translate(-161.08 -102.668)" fill="#e36558"/>
            <path id="Trazado_608914" data-name="Trazado 608914" d="M222.761,127.355c0,.11,0,.22,0,.329-.015.481-.06,1.11-.479,1.247-.436.142-.61-.51-.861-.834-.874-1.126-1.7-2.287-2.577-3.414-.4-.52-.354-.712.339-.756a3.351,3.351,0,0,1,3.579,3.427" transform="translate(-170.195 -96.485)" fill="#e36558"/>
          </g>
        </g>
      </g>
    </g>
  </g>
</svg>
