<svg xmlns="http://www.w3.org/2000/svg" xmlns:xlink="http://www.w3.org/1999/xlink" width="124.001" height="124" viewBox="0 0 124.001 124">
  <defs>
    <clipPath id="clip-path">
      <rect id="Rect치ngulo_346165" data-name="Rect치ngulo 346165" width="68.399" height="73.933" fill="none"/>
    </clipPath>
  </defs>
  <g id="Grupo_1015727" data-name="Grupo 1015727" transform="translate(-1090 -4900.469)">
    <g id="Grupo_1015098" data-name="Grupo 1015098">
      <g id="Grupo_1015002" data-name="Grupo 1015002" transform="translate(705.001 2842.469)">
        <path id="Uni칩n_12" data-name="Uni칩n 12" d="M8464.769,11817.939a62.055,62.055,0,1,1,20.7-16.051l8.516,22.111Z" transform="translate(-7991 -9642)" fill="#a3bfe4"/>
        <circle id="Elipse_4842" data-name="Elipse 4842" cx="48" cy="48" r="48" transform="translate(399 2072)" fill="#e3ecf7"/>
      </g>
      <g id="Grupo_1015733" data-name="Grupo 1015733" transform="translate(1121.438 4923.467)">
        <g id="Grupo_1015732" data-name="Grupo 1015732" clip-path="url(#clip-path)">
          <path id="Trazado_606522" data-name="Trazado 606522" d="M0,41.668Q0,28.8,0,15.938C0,13.323.832,12.5,3.483,12.5c1.613,0,3.227-.026,4.839.011.647.015.935-.153.882-.85A20.809,20.809,0,0,1,9.2,9.537a5.248,5.248,0,0,1,5.107-5.15,2.11,2.11,0,0,1,.354,0,2.69,2.69,0,0,0,3.319-1.776C18.832.667,20.774-.1,22.895.012a5.093,5.093,0,0,1,4.753,3.3A1.463,1.463,0,0,0,29.375,4.4a8.648,8.648,0,0,1,2.7.149,5.327,5.327,0,0,1,3.941,5.122c.037.9-.38,2.051.18,2.618.612.62,1.789.167,2.718.2,1.1.043,2.2-.008,3.3.014,2.058.043,2.968.977,2.975,3.114.017,4.878.005,9.757.006,14.635q0,7.849.008,15.7c0,.365-.21.863.182,1.072.327.174.628-.23.919-.4q4.8-2.877,9.589-5.775c2.176-1.312,3.361-1.048,4.641,1.188C62,44.576,63.871,46.9,64.714,49.779a11.552,11.552,0,0,1,.448,5.7,3.085,3.085,0,0,0,.509,2.552c.742,1.059,1.378,2.195,2.03,3.315a4.01,4.01,0,0,1-1.4,5.816q-5.009,3.1-10.079,6.1a4.022,4.022,0,0,1-5.8-1.477c-.919-1.462-1.79-2.954-2.686-4.43a2.793,2.793,0,0,0-.53-.772,2.226,2.226,0,0,0-1.749-.5c-.545.131-.244.881-.249,1.349-.032,2.719-.823,3.534-3.505,3.534q-19.238,0-38.476,0C.943,70.956,0,70.028,0,67.753Q0,54.71,0,41.668m37.02-2.546V38.2c0-7.434-.02-14.868.025-22.3.006-.954-.339-1.068-1.152-1.066q-13.275.027-26.55-.028c-.954,0-1.157.285-1.155,1.188q.04,22.833,0,45.667c0,.9.193,1.2,1.151,1.191q11.445-.077,22.892-.033c.91,0,1.044-.267,1.055-1.12a5.235,5.235,0,0,1,2.763-4.978c1.25-.655,1.279-.732.508-2.021-1.9-3.168-3.836-6.31-5.68-9.508-.511-.886-.8-.869-1.6-.289a11.482,11.482,0,0,1-14.54-.929A11.607,11.607,0,0,1,25.546,24.221a11.77,11.77,0,0,1,8.67,10.956c.013.36-.213.837.264,1.057,1.145.53,1.746,1.544,2.54,2.888M62.982,53.673a10.992,10.992,0,0,0-1.126-4.77c-1.126-2.023-2.366-3.982-3.519-5.99-.322-.56-.626-.418-1.035-.168-1.34.819-2.691,1.621-4.036,2.432-3.261,1.967-6.515,3.944-9.784,5.9-1.236.738-1.627.618-2.381-.6-.123-.2-.235-.408-.357-.609q-3.165-5.244-6.336-10.484c-.787-1.292-1.8-1.571-2.83-.839-.912.645-1.036,1.606-.314,2.807q4.461,7.419,8.94,14.828c.323.536.732,1.061.36,1.738-.382.7-1.044.572-1.67.558A2.807,2.807,0,0,0,35.752,60.7c-.31.939-.147,1.361.925,1.416a48.956,48.956,0,0,1,10.3,1.807,4.1,4.1,0,0,1,2.711,2.065c.811,1.478,1.722,2.9,2.6,4.34.849,1.384,1.612,1.571,3.028.722q4.8-2.879,9.576-5.785c1.252-.761,1.438-1.489.739-2.749a17.5,17.5,0,0,0-.963-1.621c-1.437-2.038-2.608-4.13-1.693-6.756a1.5,1.5,0,0,0,.006-.469M2.353,41.7c0,8.538.019,17.077-.024,25.616-.005,1.031.24,1.317,1.3,1.314,12.394-.039,24.789-.025,37.183-.025,2.056,0,1.979,0,2.081-2.066.052-1.055-.42-1.231-1.273-1.5-1.812-.579-3.541.09-5.3.094q-13.752.033-27.5.009c-2.3,0-2.951-.65-2.951-2.932q0-22.547,0-45.093c0-2.3,0-2.246-2.278-2.3-.993-.022-1.251.294-1.247,1.268.036,8.538.021,17.077.021,25.616M13.37,36.39c.052,2.845,1.8,5.686,5.165,7.37a8.921,8.921,0,0,0,9.669-.92,1.084,1.084,0,0,0,.473-1.533,3.931,3.931,0,0,1,2.177-5c1.062-.416,1.05-1.04.956-1.878a9.353,9.353,0,0,0-9.467-8.252c-5.1.267-8.948,4.237-8.972,10.214m10.6-23.979c2.439,0,4.877.009,7.316,0,2.634-.011,2.722-.122,2.375-2.782a2.943,2.943,0,0,0-3.226-2.877c-1.023-.01-2.047-.047-3.068-.007-1.044.042-1.5-.511-1.656-1.446A3.37,3.37,0,0,0,22.508,2.28a3.287,3.287,0,0,0-3.144,3.1c-.082,1.049-.625,1.353-1.528,1.354-.944,0-1.888-.013-2.832-.017-2.329-.008-3.472,1.126-3.48,3.448a9.858,9.858,0,0,1-.009,1.179c-.123.985.281,1.34,1.261,1.268,3.728-.275,7.463-.15,11.2-.2M42.659,48.491l.2-.076V17.178c0-2.368,0-2.324-2.384-2.365-.9-.015-1.111.246-1.107,1.124.034,8.774.02,17.549.024,26.324a1.972,1.972,0,0,0,.1.924c1.034,1.782,2.11,3.539,3.173,5.3" transform="translate(0 -0.001)" fill="#0c0d0c"/>
          <path id="Trazado_606523" data-name="Trazado 606523" d="M63.493,86.992c-.794-1.343-1.4-2.358-2.54-2.888-.476-.22-.251-.7-.264-1.057a11.6,11.6,0,0,0-21.761-5.333,11.6,11.6,0,0,0,2.283,14.132,11.482,11.482,0,0,0,14.54.929c.8-.58,1.089-.6,1.6.289,1.844,3.2,3.784,6.34,5.68,9.508.772,1.289.742,1.366-.508,2.021a5.235,5.235,0,0,0-2.763,4.978c-.012.854-.145,1.124-1.055,1.12q-11.446-.041-22.891.033c-.958.006-1.153-.293-1.152-1.191q.04-22.833,0-45.667c0-.9.2-1.193,1.155-1.188q13.275.067,26.55.028c.814,0,1.158.113,1.152,1.066-.045,7.434-.025,14.868-.025,22.3ZM43.908,105.806c-1.022,0-2.044.01-3.066,0-.741-.01-1.218.268-1.265,1.063a1.073,1.073,0,0,0,1.1,1.255q3.24.08,6.484,0a1.1,1.1,0,0,0,1.166-1.218,1.067,1.067,0,0,0-1.24-1.1c-1.061.015-2.123,0-3.184,0m8.733,2.337a.916.916,0,0,0,.376-.006c.744-.117,1.241-.506,1.167-1.32-.069-.764-.577-1.043-1.3-1.014-.467.018-.939-.032-1.4.023a1.131,1.131,0,0,0-.768,1.838c.414.519,1.015.508,1.929.479" transform="translate(-26.473 -47.87)" fill="#f7d7da"/>
          <path id="Trazado_606524" data-name="Trazado 606524" d="M162.557,176.979a1.5,1.5,0,0,1-.006.469c-.915,2.626.256,4.718,1.693,6.756a17.591,17.591,0,0,1,.963,1.621c.7,1.26.512,1.988-.739,2.749q-4.78,2.907-9.576,5.785c-1.416.849-2.179.662-3.028-.722-.882-1.439-1.794-2.862-2.6-4.34a4.1,4.1,0,0,0-2.711-2.065,48.942,48.942,0,0,0-10.3-1.807c-1.072-.055-1.236-.478-.925-1.417a2.807,2.807,0,0,1,3.142-2.234c.626.014,1.288.137,1.67-.558.372-.677-.037-1.2-.36-1.738q-4.47-7.414-8.94-14.828c-.722-1.2-.6-2.162.314-2.808,1.034-.732,2.044-.453,2.83.839,2.123,3.488,4.225,6.988,6.335,10.484.122.2.234.409.357.609.753,1.223,1.144,1.343,2.38.6,3.269-1.953,6.523-3.931,9.784-5.9,1.345-.811,2.7-1.613,4.036-2.432.409-.25.714-.392,1.035.168,1.153,2.008,2.393,3.967,3.519,5.99a10.989,10.989,0,0,1,1.126,4.77" transform="translate(-99.574 -123.307)" fill="#f7a986"/>
          <path id="Trazado_606525" data-name="Trazado 606525" d="M9.883,89.583c0-8.539.015-17.077-.021-25.616,0-.974.254-1.29,1.247-1.268,2.277.05,2.278,0,2.278,2.3q0,22.546,0,45.093c0,2.282.65,2.932,2.951,2.932q13.752,0,27.5-.009c1.764,0,3.492-.673,5.3-.094.853.272,1.325.449,1.273,1.5-.1,2.062-.025,2.066-2.081,2.066-12.395,0-24.789-.014-37.184.025-1.056,0-1.3-.283-1.3-1.314.043-8.539.024-17.077.024-25.616" transform="translate(-7.53 -47.887)" fill="#4ebaee"/>
          <path id="Trazado_606526" data-name="Trazado 606526" d="M56.6,120.982c.023-5.977,3.875-9.947,8.972-10.214a9.353,9.353,0,0,1,9.467,8.252c.094.837.107,1.462-.956,1.878a3.931,3.931,0,0,0-2.177,5,1.084,1.084,0,0,1-.473,1.533,8.921,8.921,0,0,1-9.669.92c-3.365-1.684-5.112-4.525-5.165-7.37m13.233-3.6a2.234,2.234,0,0,0-2.015-2.121c-.624-.1-.848-.265-.856-.914a1.136,1.136,0,0,0-2.267.106c.026.523-.182.746-.661.925A2.884,2.884,0,0,0,61.88,118.8a3.1,3.1,0,0,0,3.163,2.457c.628.023,1.257.007,1.884.025a.549.549,0,0,1,.56.5.63.63,0,0,1-.241.627,4.206,4.206,0,0,1-3.325-.466,1.118,1.118,0,0,0-1.342-.433,1.074,1.074,0,0,0-.729,1.2,2.15,2.15,0,0,0,1.979,2.11c.653.053.886.227.872.892-.015.7.436,1.053,1.135,1.065.658.012,1.129-.349,1.111-.959-.023-.764.361-.944.962-1.17a2.939,2.939,0,0,0-1.013-5.7c-.667-.02-1.336,0-2-.021a.672.672,0,0,1-.689-.532.64.64,0,0,1,.262-.722,3.775,3.775,0,0,1,3.273.5,1.134,1.134,0,0,0,1.355.415,1.076,1.076,0,0,0,.736-1.2" transform="translate(-43.228 -84.592)" fill="#f7a986"/>
          <path id="Trazado_606527" data-name="Trazado 606527" d="M61.137,19.776c-3.733.048-7.468-.076-11.2.2-.98.072-1.384-.283-1.261-1.268a9.809,9.809,0,0,0,.008-1.179c.008-2.322,1.152-3.456,3.48-3.448.944,0,1.888.017,2.832.017.9,0,1.446-.305,1.527-1.354a3.287,3.287,0,0,1,3.144-3.1,3.37,3.37,0,0,1,3.208,3.019c.157.934.613,1.487,1.656,1.446,1.021-.04,2.045,0,3.068.007a2.943,2.943,0,0,1,3.226,2.877c.346,2.66.259,2.77-2.375,2.782-2.439.011-4.877,0-7.316,0M59.778,14.6a1.342,1.342,0,0,0,1.4-1.434,1.3,1.3,0,0,0-1.354-1.336,1.4,1.4,0,0,0-1.442,1.505A1.308,1.308,0,0,0,59.778,14.6" transform="translate(-37.163 -7.365)" fill="#726d7c"/>
          <path id="Trazado_606528" data-name="Trazado 606528" d="M169.938,96.378c-1.063-1.765-2.139-3.523-3.173-5.3a1.972,1.972,0,0,1-.1-.924c0-8.775.01-17.55-.024-26.324,0-.879.212-1.14,1.107-1.124,2.384.042,2.384,0,2.384,2.365V96.3l-.2.076" transform="translate(-127.279 -47.888)" fill="#4ebaee"/>
          <path id="Trazado_606529" data-name="Trazado 606529" d="M59.792,245.239c1.061,0,2.123.013,3.184,0a1.067,1.067,0,0,1,1.24,1.1,1.1,1.1,0,0,1-1.167,1.218q-3.241.072-6.484,0a1.073,1.073,0,0,1-1.1-1.255c.047-.794.524-1.073,1.265-1.063,1.022.014,2.044,0,3.066,0" transform="translate(-42.357 -187.302)" fill="#491e5d"/>
          <path id="Trazado_606530" data-name="Trazado 606530" d="M103.716,247.566c-.914.029-1.515.04-1.929-.479a1.131,1.131,0,0,1,.768-1.838c.461-.055.933,0,1.4-.023.727-.029,1.236.25,1.3,1.014.074.815-.423,1.2-1.167,1.32a.916.916,0,0,1-.376.006" transform="translate(-77.548 -187.293)" fill="#491e5d"/>
          <path id="Trazado_606531" data-name="Trazado 606531" d="M86.739,125.647a1.077,1.077,0,0,1-.736,1.2,1.133,1.133,0,0,1-1.355-.415,3.775,3.775,0,0,0-3.273-.5.639.639,0,0,0-.262.722.672.672,0,0,0,.689.532c.667.026,1.335,0,2,.021a2.939,2.939,0,0,1,1.013,5.7c-.6.227-.985.406-.962,1.17.018.61-.453.971-1.111.96-.7-.013-1.15-.363-1.135-1.065.014-.665-.219-.838-.872-.892a2.15,2.15,0,0,1-1.98-2.11,1.074,1.074,0,0,1,.729-1.2,1.118,1.118,0,0,1,1.342.433,4.2,4.2,0,0,0,3.325.466.631.631,0,0,0,.242-.627.55.55,0,0,0-.561-.5c-.628-.017-1.257,0-1.884-.025a3.1,3.1,0,0,1-3.163-2.457,2.884,2.884,0,0,1,2.152-3.419c.479-.178.687-.4.661-.925a1.136,1.136,0,0,1,2.267-.106c.008.648.232.814.856.914a2.235,2.235,0,0,1,2.016,2.121" transform="translate(-60.135 -92.855)" fill="#491e5d"/>
          <path id="Trazado_606532" data-name="Trazado 606532" d="M91.205,21.636a1.308,1.308,0,0,1-1.392-1.265,1.4,1.4,0,0,1,1.442-1.505A1.3,1.3,0,0,1,92.609,20.2a1.341,1.341,0,0,1-1.4,1.434" transform="translate(-68.591 -14.406)" fill="#491e5d"/>
        </g>
      </g>
    </g>
  </g>
</svg>
