<svg xmlns="http://www.w3.org/2000/svg" xmlns:xlink="http://www.w3.org/1999/xlink" width="134.615" height="133.615" viewBox="0 0 134.615 133.615">
  <defs>
    <clipPath id="clip-path">
      <path id="Trazado_606378" data-name="Trazado 606378" d="M151.433,75.384c0,36.9,30.133,66.808,67.307,66.808s67.307-29.912,67.307-66.808S255.912,8.576,218.74,8.576s-67.307,29.912-67.307,66.808" transform="translate(-151.433 -8.576)" fill="#e3ecf7"/>
    </clipPath>
    <clipPath id="clip-path-2">
      <rect id="Rect치ngulo_347565" data-name="Rect치ngulo 347565" width="84.116" height="83.957" fill="none"/>
    </clipPath>
  </defs>
  <g id="Grupo_1072984" data-name="Grupo 1072984" transform="translate(-390 -11256.192)">
    <g id="Grupo_1017418" data-name="Grupo 1017418" transform="translate(390 11256.192)">
      <g id="Grupo_1015634" data-name="Grupo 1015634" transform="translate(0)" clip-path="url(#clip-path)">
        <rect id="Rect치ngulo_346114" data-name="Rect치ngulo 346114" width="134.615" height="133.616" transform="translate(0 0)" fill="#e3ecf7"/>
      </g>
    </g>
    <g id="Grupo_1017429" data-name="Grupo 1017429" transform="translate(415.249 11281.021)">
      <g id="Grupo_1017428" data-name="Grupo 1017428" clip-path="url(#clip-path-2)">
        <path id="Trazado_609064" data-name="Trazado 609064" d="M70.384,34.865c2-.243,3.716-.458,5.435-.659,2.777-.325,5.557-.634,8.333-.97.5-.06.822-.13.731.6-.552,4.422-1.062,8.849-1.591,13.274-.009.073-.09.136-.234.342a26.718,26.718,0,0,1-2.376-2.366c-.783-.991-1.259-.7-2.006.053-9.753,9.8-19.55,19.55-29.288,29.361-.936.942-1.412,1.052-2.4.038-3.258-3.361-6.662-6.579-9.954-9.908-.728-.737-1.11-.741-1.846,0Q21.446,78.454,7.654,92.232c-.738.742-1.161.872-1.919.024-1.282-1.434-2.675-2.772-4.076-4.092-.607-.572-.69-.926-.027-1.538,1.382-1.276,2.677-2.645,4.008-3.976Q20.4,67.885,35.147,53.1c.788-.793,1.175-.744,1.917.016,3.362,3.446,6.8,6.815,10.177,10.249.674.686,1.068.83,1.839.048Q61.06,51.256,73.137,39.2c.735-.733.655-1.094-.046-1.7-.883-.763-1.682-1.626-2.707-2.632" transform="translate(-0.861 -24.475)" fill="#324a5a"/>
        <path id="Trazado_609065" data-name="Trazado 609065" d="M285.43,139.051c0,8.009-.016,16.017.021,24.025,0,.943-.18,1.281-1.206,1.259-3.324-.071-6.651-.061-9.976,0-.944.016-1.157-.293-1.155-1.191q.038-23.04.01-46.081a2.1,2.1,0,0,1,.588-1.65c1.946-1.952,3.879-3.918,5.76-5.933.584-.625.91-.54,1.444.03,1.167,1.244,2.371,2.457,3.622,3.615a2.663,2.663,0,0,1,.912,2.167c-.035,7.921-.021,15.842-.021,23.763" transform="translate(-201.335 -80.384)" fill="#e85a49"/>
        <path id="Trazado_609066" data-name="Trazado 609066" d="M6.352,50.293c-.58-.04-.824-.446-1.121-.746-2.319-2.339-2.218-1.439-.755-4.417a2.635,2.635,0,0,0,.317-2.068c-.436-1.64-1.633-1.972-2.917-2.141C.406,40.726-.074,40.089.009,38.6c.134-2.411.036-2.417,2.419-3.017,2.273-.572,2.976-2.339,1.91-4.371-1.48-2.823-1.792-1.763.518-4.323.754-.836,1.351-1.033,2.254-.376a8.334,8.334,0,0,0,1.163.6,2.856,2.856,0,0,0,4.233-1.956c.892-3.228.012-2.576,3.45-2.7,1.054-.039,1.664.214,1.764,1.355a9.558,9.558,0,0,0,.407,1.513,2.675,2.675,0,0,0,4.053,1.647c2.475-1.492,2.437-1.45,4.6.472.766.682.963,1.215.354,2.062a10.821,10.821,0,0,0-.784,1.512A2.578,2.578,0,0,0,27.9,34.7c3.013.9,2.987.9,2.929,4.067-.014.746-.255,1.139-.968,1.293a9.767,9.767,0,0,1-1.388.366c-1.849.111-2.083,1.643-2.551,2.909-.237.64.439,1.093.719,1.611,1.241,2.292,1.183,2.22-.5,4.182a1.663,1.663,0,0,1-2.537.37c-1.142-.694-2.285-1.462-3.75-.569a2.129,2.129,0,0,0-1.186,1.56c-.532,2.886-1.59,3.552-4.434,2.958a.9.9,0,0,1-.722-.66c-.2-.577-.392-1.16-.552-1.749-.638-2.347-2.365-3.092-4.5-1.922-.725.4-1.444.808-2.108,1.179M20.015,38.054c-.008-2.555-1.8-4.21-4.406-4.328a4.35,4.35,0,0,0-4.483,4.433,4.6,4.6,0,0,0,4.432,4.48,4.671,4.671,0,0,0,4.457-4.585" transform="translate(0 -16.555)" fill="#78cbf2"/>
        <path id="Trazado_609067" data-name="Trazado 609067" d="M205.433,168.707v1.655c0,12.114-.027,24.227.037,36.341.007,1.383-.4,1.655-1.677,1.619-3.19-.091-6.384-.058-9.575-.012-.86.012-1.12-.247-1.117-1.108q.042-12.66.012-25.321a1.669,1.669,0,0,1,.457-1.305c3.869-3.856,7.726-7.725,11.864-11.87" transform="translate(-142.351 -124.368)" fill="#5fb6a9"/>
        <path id="Trazado_609068" data-name="Trazado 609068" d="M113.115,204.266c0-4.592.022-9.184-.019-13.776a2.562,2.562,0,0,1,.867-2.063c1.334-1.262,2.631-2.565,3.9-3.9.527-.554.872-.668,1.466-.048,1.816,1.894,3.688,3.733,5.558,5.574a1.8,1.8,0,0,1,.568,1.392q-.019,13.579.007,27.159c0,.839-.32,1.025-1.081,1.018-3.367-.03-6.735-.043-10.1.007-.931.014-1.186-.293-1.178-1.2.038-4.723.018-9.446.018-14.169" transform="translate(-83.372 -135.691)" fill="#78cbf2"/>
        <path id="Trazado_609069" data-name="Trazado 609069" d="M129.7,5.719c.4.093,1.1-.369,1.45.22a5.657,5.657,0,0,1,.977,2.54c.029.612-.7.831-1.127,1.175-1.454,1.179-1.5,2.17-.1,3.372,1.75,1.506,1.782,1.891.582,3.888-.329.547-.706.309-1.115.33-1.025.052-2.08-.483-3.034.587a2.4,2.4,0,0,0-.641,2.221c.131.81.574,1.679-.714,2.117-1.181.4-2.3,1.219-3.116-.489-.429-.9-1.166-1.062-2.141-1.095-1.134-.038-1.6.709-2.028,1.389-1,1.591-1.987.4-3.011.16-1.1-.255-.916-1.016-.7-1.725a2.529,2.529,0,0,0-3.061-3.246c-.471.1-1.2.534-1.562-.074a7.743,7.743,0,0,1-1-2.538c-.1-.577.7-.815,1.126-1.156,1.594-1.27,1.631-2.653.067-3.881a2.519,2.519,0,0,1-.212-3.827c.326-.368.636-.085.955-.1.946-.059,1.889.5,2.841-.356a2.644,2.644,0,0,0,.788-2.925c-.225-.872-.031-1.458.9-1.637.885-.171,1.776-1.4,2.671.074A2.507,2.507,0,0,0,121.067,2.3c1.16-.111,1.5-.957,2.082-1.58.484-.514.833-1.018,1.6-.5s2.222.376,1.855,1.992c-.254,1.116-.361,2.127.758,3.036.756.613,1.447.413,2.333.47M120.575,8.31a3.256,3.256,0,0,0-3.111,3.243,3.555,3.555,0,0,0,3.408,3.307,3.227,3.227,0,0,0,3.141-3.321,3.371,3.371,0,0,0-3.438-3.228" transform="translate(-80.61 -0.001)" fill="#e85a49"/>
        <path id="Trazado_609070" data-name="Trazado 609070" d="M45.554,237.215c0,7.157-.007,13.98.011,20.8,0,.674-.3.788-.879.786-3.5-.016-7-.027-10.5.007-.771.008-.961-.285-.952-1,.032-2.494.016-4.99.009-7.484a1.521,1.521,0,0,1,.387-1.2c3.9-3.886,7.794-7.781,11.927-11.912" transform="translate(-24.496 -174.871)" fill="#ffc649"/>
        <path id="Trazado_609071" data-name="Trazado 609071" d="M51.221,69.652a4.671,4.671,0,0,1-4.457,4.585,4.6,4.6,0,0,1-4.432-4.48,4.35,4.35,0,0,1,4.483-4.433c2.607.118,4.4,1.772,4.406,4.328" transform="translate(-31.206 -48.152)" fill="#f7f9fa"/>
        <path id="Trazado_609072" data-name="Trazado 609072" d="M143.339,31.615a3.371,3.371,0,0,1,3.438,3.228,3.227,3.227,0,0,1-3.141,3.321,3.555,3.555,0,0,1-3.408-3.307,3.256,3.256,0,0,1,3.111-3.243" transform="translate(-103.374 -23.306)" fill="#f7f9fa"/>
      </g>
    </g>
  </g>
</svg>
