<svg xmlns="http://www.w3.org/2000/svg" xmlns:xlink="http://www.w3.org/1999/xlink" width="124.001" height="124" viewBox="0 0 124.001 124">
  <defs>
    <clipPath id="clip-path">
      <rect id="Rect치ngulo_347547" data-name="Rect치ngulo 347547" width="64.868" height="64.856" fill="none"/>
    </clipPath>
  </defs>
  <g id="Grupo_1017340" data-name="Grupo 1017340" transform="translate(-387 -4900.469)">
    <g id="Grupo_1015095" data-name="Grupo 1015095">
      <g id="Grupo_1015003" data-name="Grupo 1015003" transform="translate(2 2842.469)">
        <g id="Grupo_159182" data-name="Grupo 159182" transform="translate(0.001)">
          <path id="Uni칩n_12" data-name="Uni칩n 12" d="M8464.769,11817.939a62.055,62.055,0,1,1,20.7-16.051l8.516,22.111Z" transform="translate(-7991 -9642)" fill="#a3bfe4"/>
          <circle id="Elipse_4842" data-name="Elipse 4842" cx="48" cy="48" r="48" transform="translate(399 2072)" fill="#e3ecf7"/>
        </g>
        <g id="Grupo_1017348" data-name="Grupo 1017348" transform="translate(417.388 2090.393)">
          <g id="Grupo_1017347" data-name="Grupo 1017347" clip-path="url(#clip-path)">
            <path id="Trazado_608965" data-name="Trazado 608965" d="M52.33,109.973c3.033,0,6.066,0,9.1,0a3.142,3.142,0,0,1,3.43,3.439q.008,5.961,0,11.922a3.161,3.161,0,0,1-3.512,3.464c-1.394,0-2.791.049-4.182-.015-1.052-.048-.614.684-.656,1.128-.044.468-.229,1.056.683,1,.581-.033,1.465-.472,1.441.882-.019,1.037-.3,1.292-1.273,1.205-1.038-.092-2.094.035-3.134-.039-.773-.055-.914.232-.886.933.056,1.392.028,2.788.014,4.183a3.12,3.12,0,0,1-3.287,3.267c-1.813.014-3.626.027-5.438-.011-.574-.012-.77.177-.861.73A11.45,11.45,0,0,1,33.017,151.8a11.607,11.607,0,0,1-11.84-9,3.781,3.781,0,0,1-.077-.727c-.019-.557-.264-.75-.846-.739-2.126.037-4.253.021-6.379.013a3.094,3.094,0,0,1-3.38-3.365c.007-.728-.24-.925-.917-1.013a11.494,11.494,0,1,1,13.328-9.747,11.289,11.289,0,0,1-9.676,9.767c-.717.125-.674.517-.666,1.015a1.1,1.1,0,0,0,1.206,1.247c1.534.01,3.068.006,4.6,0a5.8,5.8,0,0,0,2.37-.085c.7-.353.4-1.433.649-2.173a11.323,11.323,0,0,1,6.759-7.323,1.545,1.545,0,0,0,1.176-1.783,3.126,3.126,0,1,1,6.23.177,1.36,1.36,0,0,0,1.042,1.561,11.018,11.018,0,0,1,7.162,8.871c.1.607.322.788.936.771,1.707-.047,3.416-.008,5.124-.019,1.1-.007,1.43-.336,1.44-1.428.013-1.359-.042-2.721.022-4.078.032-.692-.222-.8-.828-.777-1.114.046-2.234-.042-3.345.031-.827.055-1.142-.118-1.112-1.04.027-.818.143-1.253,1.059-1.074.826.162,1.131-.109,1.107-1.023-.022-.832-.158-1.149-1.068-1.088-1.353.091-2.718.035-4.077.021a3.1,3.1,0,0,1-3.253-3.192q-.028-6.222,0-12.445a3.089,3.089,0,0,1,3.259-3.184c3.1-.015,6.205,0,9.308,0m-.073,12.551c3.242,0,6.484-.02,9.725.017.656.008.81-.175.8-.812-.037-2.718-.011-5.437-.018-8.156,0-1.172-.32-1.5-1.465-1.5q-8.993-.008-17.986,0c-1.145,0-1.46.331-1.463,1.506-.006,2.719.019,5.438-.018,8.156-.009.64.149.818.8.811,3.206-.036,6.413-.017,9.62-.017m-31.324,3.117a9.413,9.413,0,1,0-9.42,9.433,9.466,9.466,0,0,0,9.42-9.433m8.367,5.922c-3.373.829-7.079,5.237-6.1,10.6a9.641,9.641,0,0,0,9.574,7.548,9.458,9.458,0,0,0,9.059-8.832c.3-4.479-2.883-8.5-6.182-9.274a2.5,2.5,0,0,0,1.241,2.972,6.987,6.987,0,0,1,2.5,7.982,7.27,7.27,0,0,1-6.82,5.061,7.391,7.391,0,0,1-7.2-5.288,7.256,7.256,0,0,1,3.23-8.221,1.2,1.2,0,0,0,.707-1.307,10.7,10.7,0,0,1-.009-1.245m6.275,4.643c0,.774.015,1.4,0,2.022a3.135,3.135,0,0,1-6.27.03c-.021-.643,0-1.288,0-2.011a5.106,5.106,0,0,0-.762,7.533,5.253,5.253,0,0,0,7.627.169,5.154,5.154,0,0,0-.589-7.743M52.4,124.6c-3.171,0-6.341-.008-9.512.012-.341,0-.875-.241-1,.214a1.548,1.548,0,0,0,.285,1.573,1.5,1.5,0,0,0,1.169.323q8.989-.006,17.978-.005a2.135,2.135,0,0,0,.721-.071c.793-.293.791-.981.737-1.655-.059-.732-.651-.369-.97-.372-3.135-.032-6.271-.02-9.407-.02m-18.92,8.3c0-1.563-.013-3.126.006-4.689.01-.782-.183-1.473-1.072-1.461-.817.011-1.02.667-1.017,1.413q.02,4.793,0,9.587c0,.782.184,1.482,1.071,1.46s1.028-.749,1.018-1.516c-.021-1.6-.006-3.2-.006-4.793m18.755-2.013c.519,0,1.042-.04,1.556.009.767.073.685-.47.589-.866-.1-.424.51-1.222-.536-1.229s-2.076,0-3.114,0c-.244,0-.435,0-.516.34-.3,1.286.022,1.747,1.295,1.748h.727" transform="translate(0 -86.955)" fill="#0b0a09"/>
            <path id="Trazado_608966" data-name="Trazado 608966" d="M164.885,19.926c0-2.37-.006-4.74,0-7.11a3.131,3.131,0,0,1,3.369-3.393c1.742-.009,3.486-.029,5.227.013.628.015.905-.133,1.008-.807a10.456,10.456,0,1,1,.113,4.253c-.281-1.223-.68-1.468-1.787-1.39-1.387.1-2.786.021-4.18.024-1.373,0-1.656.279-1.657,1.632,0,4.74-.041,9.48.03,14.219.016,1.047-.519.859-1.138.9-.692.04-1.042-.03-1.014-.913.078-2.472.027-4.948.027-7.423m19.8-10.5c2.292,0,2.27,0,2.005-1.587-.065-.393-.17-.523-.563-.513-.9.024-1.8.031-2.7,0-.453-.017-.547.157-.611.578-.234,1.528-.258,1.524,1.242,1.524h.622m0,4.183a13.138,13.138,0,0,1,1.347.01c.509.053.607-.16.67-.628.2-1.477.226-1.474-1.3-1.473-.726,0-1.452,0-2.178,0-.271,0-.51-.039-.544.4-.1,1.3.209,1.692,1.486,1.692h.518m-6.128-4.183c2.075,0,2.052,0,2.179-1.515.042-.492-.125-.594-.56-.583-.87.022-1.741-.02-2.61.013-1.109.042-.864,1-.969,1.627-.146.87.6.343.922.438a3.82,3.82,0,0,0,1.038.021m12.385,0h.731c1.458,0,1.556-.166,1.032-1.557-.143-.381-.314-.567-.74-.543-.59.032-1.183.008-1.774.008-1.443,0-1.4,0-1.306,1.388.04.608.25.768.806.712.414-.041.834-.008,1.252-.008m-12.38,2.091h-.731c-1.442,0-1.548.184-1.021,1.567.146.384.328.558.749.533.555-.033,1.113-.008,1.67-.008,1.567,0,1.531,0,1.391-1.5-.049-.532-.251-.626-.7-.6s-.9.006-1.357.006m12.412,0c-2.084,0-2.064,0-2.194,1.5-.041.467.081.615.542.6.834-.026,1.67-.024,2.505,0,1.218.031.987-.974,1.086-1.621.147-.962-.657-.329-1.007-.455a2.887,2.887,0,0,0-.932-.02m-7.7-6.275c.882,0,1.707-.005,2.532,0,.288,0,.5-.062.388-.4a9.21,9.21,0,0,0-1-2.373c-.3-.436-.592-.425-.872.012a7.705,7.705,0,0,0-1.046,2.761m-.11,10.459c.341.892.579,1.608.891,2.292.147.323.275.8.726.786.38-.012.517-.432.652-.737.265-.6.477-1.216.722-1.821.184-.455-.042-.53-.431-.523-.795.013-1.589,0-2.56,0m-4.8-10.563c2.658.352,2.869.2,3.327-2.425a7.969,7.969,0,0,0-3.327,2.425m12.864.025a8.245,8.245,0,0,0-3.431-2.44c.656,2.593.656,2.593,3.151,2.507.033,0,.066-.015.279-.067M181.8,18.264c-.28-.935-.292-1.917-.787-2.383-.567-.533-1.587-.124-2.408-.172-.05,0-.1.061-.215.131a8,8,0,0,0,3.41,2.425m9.391-2.468c-2.739-.326-2.947-.171-3.348,2.416a8.208,8.208,0,0,0,3.348-2.416" transform="translate(-130.355 0)" fill="#0b0a09"/>
            <path id="Trazado_608967" data-name="Trazado 608967" d="M28.3,21.229c0-2.057.008-4.114,0-6.17-.006-1.1-.335-1.436-1.428-1.439-3.1-.01-6.205.021-9.307-.022-.687-.01-.786.221-.778.827.033,2.44.02,4.88.012,7.32a3.133,3.133,0,0,1-3.392,3.374q-4.967.012-9.935,0a3.128,3.128,0,0,1-3.4-3.358q-.011-9.2,0-18.406A3.113,3.113,0,0,1,3.39.021Q8.462,0,13.534.022A3.107,3.107,0,0,1,16.8,3.31c.014,2.475.027,4.95-.013,7.425-.011.645.151.813.8.8,3.1-.037,6.2-.02,9.307-.016a3.156,3.156,0,0,1,3.5,3.471c0,4.113-.038,8.227.03,12.34.016.966-.418.919-1.1.943-.753.027-1.087-.1-1.052-.984.079-2.019.025-4.043.025-6.065M2.181,12.57c0,1.777.032,3.555-.016,5.33-.019.7.114.952.886.942,3.588-.045,7.177-.034,10.765-.007.638,0,.9-.1.888-.831-.042-3.623-.032-7.247-.006-10.87,0-.6-.087-.842-.778-.835q-5.487.058-10.974,0c-.693-.008-.789.238-.777.836.035,1.811.013,3.623.013,5.435M8.38,4.2c1.774,0,3.548.015,5.322-.013.33-.005.847.258.97-.256a1.539,1.539,0,0,0-.279-1.48,1.459,1.459,0,0,0-1.16-.344q-4.8.008-9.6,0a2.324,2.324,0,0,0-.622.039c-.812.23-.879.875-.853,1.576.031.826.661.444,1.005.453C4.9,4.224,6.641,4.2,8.38,4.2m.045,16.737c-1.774,0-3.552.07-5.321-.026-1.05-.057-1.046.484-.918,1.181.14.761.7.941,1.4.939,3.235-.011,6.47,0,9.705-.009a1.973,1.973,0,0,0,.716-.092c.731-.293.733-.94.693-1.58-.045-.742-.633-.386-.954-.393-1.773-.04-3.548-.019-5.322-.019" transform="translate(-0.049 -0.01)" fill="#0b0a09"/>
            <path id="Trazado_608968" data-name="Trazado 608968" d="M136.008,146.885c-.77.142-1.247.045-1.169-.947.056-.721-.013-1.244,1-1.153.719.064,1.273-.011,1.143,1-.085.662.132,1.436-.975,1.1" transform="translate(-106.614 -114.476)" fill="#0b0a09"/>
            <path id="Trazado_608969" data-name="Trazado 608969" d="M166.893,145.916c.331,1.1-.349.98-1.062,1.051-.985.1-.972-.374-1.026-1.129-.071-.984.375-.992,1.137-1.022.925-.037,1.189.292.952,1.1" transform="translate(-130.309 -114.508)" fill="#0b0a09"/>
            <path id="Trazado_608970" data-name="Trazado 608970" d="M136.921,165.939c.318,1.057-.363.937-1.076,1.008-.985.1-.971-.374-1.026-1.129-.071-.984.376-.985,1.136-1.023.944-.047,1.149.33.966,1.144" transform="translate(-106.599 -130.305)" fill="#0b0a09"/>
            <path id="Trazado_608971" data-name="Trazado 608971" d="M165.918,164.8c.945-.27,1.045.211,1.074,1.023.031.882-.226,1.075-1.084,1.08-.878.006-1.1-.227-1.074-1.09.02-.828.158-1.275,1.084-1.014" transform="translate(-130.337 -130.255)" fill="#0b0a09"/>
            <path id="Trazado_608972" data-name="Trazado 608972" d="M210.326,130.438c-3.207,0-6.414-.02-9.62.017-.654.008-.811-.17-.8-.811.037-2.718.012-5.437.018-8.156,0-1.175.318-1.505,1.463-1.506q8.993-.008,17.986,0c1.144,0,1.462.333,1.465,1.5.006,2.719-.019,5.438.018,8.156.008.638-.145.82-.8.812-3.241-.037-6.483-.017-9.724-.017" transform="translate(-158.068 -94.869)" fill="#5cbee2"/>
            <path id="Trazado_608973" data-name="Trazado 608973" d="M28.9,149.368a9.413,9.413,0,1,1-9.458-9.393,9.468,9.468,0,0,1,9.458,9.393m-8.672-7.3a12.067,12.067,0,0,0-8.261,2.789c-.315.289-.861.616-.176,1,.47.266.544,1.458,1.562.6a9.293,9.293,0,0,1,12.3.023c1.023.848,1.074-.4,1.555-.663.622-.339.135-.658-.173-.928a10.973,10.973,0,0,0-6.811-2.828m2.4,11.486a3.136,3.136,0,1,0-3.07,3.153,3.123,3.123,0,0,0,3.07-3.153m-3.1-7.31a7.163,7.163,0,0,0-4.5,1.535c-.248.2-.993.442-.4.883.473.353.594,1.607,1.714.776a4.766,4.766,0,0,1,5.82-.279c.958.637,1.415.491,2.067-.272.369-.432.359-.639-.062-.972a7.439,7.439,0,0,0-4.64-1.671" transform="translate(-7.966 -110.682)" fill="#ffe192"/>
            <path id="Trazado_608974" data-name="Trazado 608974" d="M116.353,213.155a10.7,10.7,0,0,0,.009,1.245,1.2,1.2,0,0,1-.707,1.307,7.256,7.256,0,0,0-3.23,8.221,7.391,7.391,0,0,0,7.2,5.288,7.27,7.27,0,0,0,6.82-5.06,6.986,6.986,0,0,0-2.5-7.982A2.5,2.5,0,0,1,122.7,213.2c3.3.774,6.484,4.8,6.182,9.274a9.458,9.458,0,0,1-9.059,8.832,9.641,9.641,0,0,1-9.574-7.548c-.975-5.366,2.73-9.774,6.1-10.6" transform="translate(-87.052 -168.547)" fill="#e7675a"/>
            <path id="Trazado_608975" data-name="Trazado 608975" d="M138.445,235.342a5.154,5.154,0,0,1,.589,7.743,5.253,5.253,0,0,1-7.627-.169,5.107,5.107,0,0,1,.761-7.533c0,.724-.017,1.368,0,2.012a3.135,3.135,0,0,0,6.27-.03c.018-.624,0-1.248,0-2.022" transform="translate(-102.868 -186.091)" fill="#f7f9fa"/>
            <path id="Trazado_608976" data-name="Trazado 608976" d="M210.3,179.633c3.136,0,6.272-.013,9.407.019.319,0,.911-.36.97.372.055.674.056,1.362-.737,1.655a2.135,2.135,0,0,1-.721.071q-8.989.005-17.978.005a1.5,1.5,0,0,1-1.169-.323,1.548,1.548,0,0,1-.285-1.573c.127-.456.661-.212,1-.214,3.171-.02,6.341-.012,9.512-.012" transform="translate(-157.907 -141.987)" fill="#99a4b0"/>
            <path id="Trazado_608977" data-name="Trazado 608977" d="M152.094,196.313c0,1.6-.015,3.2.006,4.793.01.767-.131,1.494-1.018,1.516s-1.075-.678-1.072-1.46q.021-4.793,0-9.587c0-.746.2-1.4,1.017-1.413.889-.012,1.082.679,1.072,1.461-.019,1.563-.006,3.126-.006,4.689" transform="translate(-118.617 -150.366)" fill="#e7675a"/>
            <path id="Trazado_608978" data-name="Trazado 608978" d="M241.552,202.034h-.727c-1.272,0-1.6-.462-1.295-1.748.081-.345.271-.34.516-.34,1.038,0,2.076-.007,3.114,0s.433.805.536,1.229c.1.4.179.94-.589.866-.514-.049-1.037-.009-1.556-.009" transform="translate(-189.32 -158.1)" fill="#99a4b0"/>
            <path id="Trazado_608979" data-name="Trazado 608979" d="M252.1,37.078h-.622c-1.5,0-1.476,0-1.242-1.524.064-.42.158-.595.611-.578.9.034,1.8.027,2.7,0,.392-.01.5.119.563.513.265,1.59.287,1.587-2.005,1.587" transform="translate(-197.777 -27.655)" fill="#5cbee2"/>
            <path id="Trazado_608980" data-name="Trazado 608980" d="M251.961,57.107h-.518c-1.277,0-1.589-.387-1.486-1.692.035-.438.273-.4.544-.4.726,0,1.452,0,2.178,0,1.526,0,1.5,0,1.3,1.473-.063.469-.161.681-.67.628a13.079,13.079,0,0,0-1.347-.01" transform="translate(-197.633 -43.501)" fill="#5cbee2"/>
            <path id="Trazado_608981" data-name="Trazado 608981" d="M222.845,37.092a3.819,3.819,0,0,1-1.038-.021c-.324-.1-1.068.432-.922-.438.1-.624-.141-1.585.969-1.627.869-.033,1.74.009,2.61-.013.436-.011.6.091.56.583-.128,1.513-.1,1.515-2.179,1.515" transform="translate(-174.644 -27.67)" fill="#5cbee2"/>
            <path id="Trazado_608982" data-name="Trazado 608982" d="M281.582,37.081c-.418,0-.839-.033-1.252.008-.555.055-.765-.105-.806-.713-.093-1.391-.137-1.388,1.306-1.388.592,0,1.185.024,1.774-.008.427-.023.6.163.74.543.523,1.391.425,1.557-1.032,1.557h-.731" transform="translate(-220.995 -27.658)" fill="#5cbee2"/>
            <path id="Trazado_608983" data-name="Trazado 608983" d="M222.632,54.974c.452,0,.906.023,1.357-.006s.653.064.7.6c.139,1.506.175,1.5-1.391,1.5-.557,0-1.115-.025-1.67.008-.421.025-.6-.149-.749-.533-.528-1.384-.421-1.567,1.021-1.567h.731" transform="translate(-174.426 -43.46)" fill="#5cbee2"/>
            <path id="Trazado_608984" data-name="Trazado 608984" d="M281.341,54.756a2.881,2.881,0,0,1,.932.02c.349.126,1.154-.507,1.006.455-.1.647.131,1.652-1.086,1.621-.835-.021-1.671-.023-2.505,0-.46.014-.582-.134-.542-.6.13-1.5.11-1.5,2.194-1.5" transform="translate(-220.722 -43.243)" fill="#5cbee2"/>
            <path id="Trazado_608985" data-name="Trazado 608985" d="M252.854,13.34a7.7,7.7,0,0,1,1.046-2.761c.28-.437.572-.448.872-.012a9.206,9.206,0,0,1,1,2.373c.114.34-.1.4-.388.4-.825-.008-1.65,0-2.532,0" transform="translate(-199.938 -8.102)" fill="#5cbee2"/>
            <path id="Trazado_608986" data-name="Trazado 608986" d="M252.329,74.992c.971,0,1.766.009,2.56,0,.388-.007.615.068.431.523-.245.605-.457,1.225-.722,1.821-.135.305-.272.725-.652.737-.451.014-.579-.463-.726-.786-.312-.683-.55-1.4-.891-2.291" transform="translate(-199.523 -59.294)" fill="#5cbee2"/>
            <path id="Trazado_608987" data-name="Trazado 608987" d="M229.372,15.369a7.971,7.971,0,0,1,3.327-2.426c-.458,2.621-.669,2.777-3.327,2.426" transform="translate(-181.37 -10.234)" fill="#5cbee2"/>
            <path id="Trazado_608988" data-name="Trazado 608988" d="M277.879,15.432a2.771,2.771,0,0,1-.279.067c-2.5.087-2.5.087-3.151-2.506a8.245,8.245,0,0,1,3.431,2.44" transform="translate(-217.013 -10.273)" fill="#5cbee2"/>
            <path id="Trazado_608989" data-name="Trazado 608989" d="M232.918,77.223a7.993,7.993,0,0,1-3.41-2.425c.111-.07.165-.133.214-.13.821.048,1.841-.36,2.408.172.5.466.507,1.447.788,2.383" transform="translate(-181.478 -58.959)" fill="#5cbee2"/>
            <path id="Trazado_608990" data-name="Trazado 608990" d="M278.027,75.006a8.208,8.208,0,0,1-3.348,2.416c.4-2.587.609-2.743,3.348-2.416" transform="translate(-217.195 -59.21)" fill="#5cbee2"/>
            <path id="Trazado_608991" data-name="Trazado 608991" d="M10.117,36.322c0-1.811.022-3.624-.013-5.435-.012-.6.085-.844.777-.836q5.487.058,10.974,0c.691-.007.782.236.778.835-.025,3.623-.035,7.247.006,10.87.008.731-.25.836-.888.831-3.588-.027-7.177-.038-10.765.007-.772.01-.905-.247-.886-.942.049-1.775.016-3.553.016-5.33" transform="translate(-7.985 -23.762)" fill="#ffe192"/>
            <path id="Trazado_608992" data-name="Trazado 608992" d="M16.28,12.124c-1.739,0-3.479.023-5.218-.019-.344-.008-.974.373-1.005-.453-.026-.7.041-1.346.853-1.576a2.323,2.323,0,0,1,.622-.039q4.8,0,9.6,0a1.458,1.458,0,0,1,1.16.344,1.539,1.539,0,0,1,.279,1.48c-.123.514-.64.25-.97.256-1.774.028-3.548.013-5.322.013" transform="translate(-7.949 -7.932)" fill="#99a4b0"/>
            <path id="Trazado_608993" data-name="Trazado 608993" d="M16.233,99.774c1.774,0,3.549-.021,5.322.019.321.007.908-.349.954.393.039.64.037,1.288-.693,1.58a1.972,1.972,0,0,1-.716.092c-3.235.005-6.47,0-9.705.009-.7,0-1.26-.178-1.4-.939-.128-.7-.132-1.238.918-1.181,1.769.1,3.547.026,5.321.026" transform="translate(-7.856 -78.846)" fill="#99a4b0"/>
            <path id="Trazado_608994" data-name="Trazado 608994" d="M25.47,149.983a10.972,10.972,0,0,1,6.811,2.828c.307.269.795.588.173.928-.481.263-.533,1.511-1.555.663a9.293,9.293,0,0,0-12.3-.023c-1.018.856-1.092-.337-1.562-.6-.685-.388-.139-.715.176-1a12.066,12.066,0,0,1,8.261-2.79" transform="translate(-13.209 -118.595)" fill="#0b0a09"/>
            <path id="Trazado_608995" data-name="Trazado 608995" d="M46.339,193.076a3.136,3.136,0,1,1-3.1-3.12,3.129,3.129,0,0,1,3.1,3.12m-3.13,1.065c.592-.1,1.006-.426,1.015-1.018a1.023,1.023,0,0,0-2.044-.064c-.016.649.416.983,1.029,1.081" transform="translate(-31.681 -150.202)" fill="#0b0a09"/>
            <path id="Trazado_608996" data-name="Trazado 608996" d="M35.876,169.934a7.439,7.439,0,0,1,4.64,1.671c.421.333.432.54.062.972-.652.763-1.109.909-2.067.272a4.766,4.766,0,0,0-5.82.279c-1.12.831-1.241-.423-1.714-.776-.592-.442.153-.688.4-.883a7.163,7.163,0,0,1,4.5-1.535" transform="translate(-24.318 -134.371)" fill="#0b0a09"/>
            <path id="Trazado_608997" data-name="Trazado 608997" d="M51.194,202.132c-.613-.1-1.045-.432-1.029-1.081a1.023,1.023,0,0,1,2.044.064c-.009.591-.423.914-1.015,1.018" transform="translate(-39.667 -158.193)" fill="#e7675a"/>
          </g>
        </g>
      </g>
    </g>
  </g>
</svg>
